<?xml version="1.0" encoding="UTF-8"?>
<svg xmlns="http://www.w3.org/2000/svg" xmlns:xlink="http://www.w3.org/1999/xlink" version="1.2" >
<font id="Brandon Text Thin Italic">
<font-face  font-family="Brandon Text" units-per-em="1000" ascent="700" descent="-300" font-style="italic" font-weight="100" font-stretch="normal" slope="-8" cap-height="700" x-height="462" underline-position="-75" underline-thickness="50" />
<missing-glyph  horiz-adv-x="599" d="M50 30 C50 9 59 0 80 0 L519 0 C540 0 549 9 549 30 L549 670 C549 691 540 700 519 700 L80 700 C59 700 50 691 50 670 L50 30 Z M262 314 L262 343 C262 418 361 427 361 490 C361 517 340 542 300 542 C252 542 229 513 216 501 C210 497 205 497 199 501 L177 523 C171 528 173 535 177 541 C177 541 220 602 307 602 C378 602 432 556 432 491 C432 404 327 389 327 341 L327 315 C327 306 321 302 312 302 L276 302 C269 302 262 307 262 314 L262 314 Z M245 156 C245 182 267 204 293 204 C320 204 342 182 342 156 C342 130 320 108 293 108 C267 108 245 130 245 156 L245 156 Z " />
<glyph glyph-name=".null" d="" />
<glyph glyph-name="&amp;#x0;" d="" />
<glyph glyph-name="&amp;#xd;" unicode="&#xd;" d="" />
<glyph glyph-name="space" unicode="&#x20;" horiz-adv-x="240" d="" />
<glyph glyph-name="exclam" unicode="&#x21;" horiz-adv-x="226" d="M108 267 L112 267 C115 267 119 270 119 274 L179 693 C179 697 177 700 173 700 L170 700 C165 700 161 698 161 693 L102 274 C102 270 104 267 108 267 L108 267 Z M51 11 C51 0 60 -10 71 -10 C85 -10 97 3 97 17 C97 28 89 37 78 37 C64 37 51 26 51 11 L51 11 Z " />
<glyph glyph-name="quotedbl" unicode="&#x22;" horiz-adv-x="298" d="M244 501 L247 501 C250 501 254 504 254 508 L281 693 C281 697 279 700 275 700 L271 700 C267 700 264 697 264 693 L238 508 C238 504 240 501 244 501 L244 501 Z M110 501 L113 501 C117 501 120 504 121 508 L147 693 C148 697 145 700 142 700 L138 700 C134 700 131 697 130 693 L105 508 C104 504 107 501 110 501 L110 501 Z " />
<glyph glyph-name="numbersign" unicode="&#x23;" horiz-adv-x="533" d="M77 8 C75 3 78 0 82 0 L86 0 C89 0 92 3 93 6 L159 217 L316 217 L250 8 C248 3 250 0 255 0 L259 0 C262 0 265 3 266 6 L332 217 L431 217 C434 217 437 220 438 224 L439 227 C440 231 437 234 433 234 L338 234 L398 428 L486 428 C488 428 491 431 492 435 L493 439 C494 443 491 446 488 446 L403 446 L480 692 C482 697 480 700 475 700 L471 700 C468 700 466 697 465 694 L387 446 L230 446 L308 692 C309 697 307 700 302 700 L299 700 C296 700 293 697 292 694 L214 446 L113 446 C110 446 107 443 106 439 L105 435 C104 431 107 428 111 428 L208 428 L147 234 L58 234 C55 234 53 231 52 227 L51 224 C50 220 53 217 56 217 L143 217 L77 8 Z M165 234 L225 428 L381 428 L321 234 L165 234 Z " />
<glyph glyph-name="dollar" unicode="&#x24;" horiz-adv-x="600" d="M84 73 C94 61 155 -7 258 -10 L242 -123 C241 -128 246 -129 251 -129 C255 -129 258 -126 259 -123 L274 -10 C383 -7 490 73 490 188 C490 283 427 327 327 360 C342 470 357 580 373 690 C447 686 497 644 500 642 C504 639 509 640 512 646 C514 650 516 655 512 658 C512 658 458 704 375 708 L382 752 C382 756 380 759 376 759 L372 759 C369 759 365 756 365 752 L359 709 C206 707 141 601 141 509 C141 413 212 377 308 347 L260 8 C163 10 112 71 99 85 C96 89 93 88 90 86 L85 82 C82 79 82 75 84 73 L84 73 Z M310 365 C220 393 159 428 159 512 C159 594 216 689 356 691 L310 365 Z M277 8 L324 342 C412 312 472 273 472 188 C472 88 375 12 277 8 L277 8 Z " />
<glyph glyph-name="percent" unicode="&#x25;" horiz-adv-x="643" d="M203 427 C280 427 351 496 351 588 C351 655 306 710 243 710 C166 710 95 641 95 550 C95 482 140 427 203 427 L203 427 Z M83 4 L90 -1 C93 -3 95 -1 97 2 L567 688 C571 693 568 695 566 696 L560 699 C558 701 555 701 553 698 L83 12 C81 9 81 6 83 4 L83 4 Z M206 445 C150 445 113 493 113 552 C113 629 173 692 240 692 C295 692 334 644 334 585 C334 508 272 445 206 445 L206 445 Z M312 112 C312 45 357 -10 421 -10 C497 -10 569 59 569 150 C569 218 523 273 461 273 C383 273 312 204 312 112 L312 112 Z M330 115 C330 192 391 255 458 255 C513 255 550 207 550 148 C550 71 490 8 423 8 C368 8 330 56 330 115 L330 115 Z " />
<glyph glyph-name="ampersand" unicode="&#x26;" horiz-adv-x="629" d="M65 150 C65 65 117 -10 209 -10 C296 -10 382 36 445 108 L528 1 C530 -1 532 -3 535 0 L543 6 C546 9 546 11 543 14 L458 122 C532 202 571 318 571 397 C571 402 569 405 565 405 L559 405 C555 405 553 402 553 397 C553 319 516 212 446 135 L263 375 C366 423 455 492 455 581 C455 647 419 710 334 710 C240 710 164 633 164 543 C164 492 190 442 214 409 L235 379 C141 331 65 266 65 150 L65 150 Z M251 387 C241 399 234 410 225 422 C202 455 181 500 181 544 C181 629 257 693 332 693 C406 693 437 637 437 581 C437 496 353 436 251 387 L251 387 Z M82 149 C82 260 157 320 247 367 L434 122 C374 54 294 7 211 7 C129 7 82 73 82 149 L82 149 Z " />
<glyph glyph-name="quotesingle" unicode="&#x27;" horiz-adv-x="165" d="M111 501 L115 501 C118 501 121 504 122 508 L148 693 C149 697 147 700 143 700 L138 700 C134 700 131 697 131 693 L105 508 C105 504 107 501 111 501 L111 501 Z " />
<glyph glyph-name="parenleft" unicode="&#x28;" horiz-adv-x="320" d="M63 209 C63 2 147 -74 234 -78 C237 -78 241 -75 241 -72 L242 -68 C242 -64 240 -61 236 -61 C156 -56 81 15 81 209 C81 565 221 685 342 692 C346 692 350 695 350 699 L350 703 C351 707 348 710 344 710 C217 703 63 579 63 209 L63 209 Z " />
<glyph glyph-name="parenright" unicode="&#x29;" horiz-adv-x="320" d="M-13 -61 C-17 -61 -21 -64 -21 -68 L-21 -72 C-21 -75 -19 -78 -15 -78 C112 -72 266 54 266 423 C266 629 182 705 95 710 C92 710 89 708 88 704 L87 699 C86 695 89 692 93 692 C173 687 248 619 248 422 C248 66 108 -49 -13 -61 L-13 -61 Z " />
<glyph glyph-name="asterisk" unicode="&#x2a;" horiz-adv-x="401" d="M214 406 L218 406 C222 406 225 409 225 413 L243 537 L330 475 C334 473 336 473 338 476 L343 483 C344 486 343 489 341 490 L254 553 L359 616 C361 617 363 620 362 623 L360 629 C359 631 357 634 352 631 L247 569 L265 693 C265 697 263 700 259 700 L255 700 C252 700 248 697 248 693 L230 569 L143 631 C139 634 136 631 135 629 C134 627 133 625 131 623 C129 620 130 617 132 616 L219 553 L115 490 C112 489 110 486 111 483 L114 476 C115 473 117 473 121 475 L226 537 L208 413 C208 409 210 406 214 406 L214 406 Z " />
<glyph glyph-name="plus" unicode="&#x2b;" horiz-adv-x="600" d="M273 153 C273 149 275 146 279 146 L283 146 C287 146 290 149 291 153 L317 339 L483 339 C487 339 489 342 490 346 L491 350 C492 354 489 357 485 357 L320 357 L346 542 C346 546 344 549 340 549 L336 549 C332 549 329 546 328 542 L302 357 L135 357 C132 357 129 354 128 350 L127 346 C126 342 129 339 133 339 L300 339 L273 153 Z " />
<glyph glyph-name="comma" unicode="&#x2c;" horiz-adv-x="178" d="M23 11 C23 -1 32 -10 44 -10 C54 -10 60 -6 66 0 C69 -7 71 -17 71 -29 C71 -78 46 -120 9 -146 C5 -149 2 -151 5 -157 L8 -163 C10 -167 13 -167 19 -163 C64 -130 91 -81 91 -29 C91 4 80 38 53 38 C38 38 23 26 23 11 L23 11 Z " />
<glyph glyph-name="hyphen" unicode="&#x2d;" horiz-adv-x="368" d="M69 243 L287 243 C290 243 292 246 293 250 L294 254 C295 258 293 261 290 261 L72 261 C68 261 66 258 65 254 L64 250 C63 246 66 243 69 243 L69 243 Z " />
<glyph glyph-name="period" unicode="&#x2e;" horiz-adv-x="180" d="M29 14 C29 1 38 -11 52 -11 C67 -11 81 4 81 21 C81 34 72 44 59 44 C43 44 29 31 29 14 L29 14 Z " />
<glyph glyph-name="slash" unicode="&#x2f;" horiz-adv-x="352" d="M21 0 L27 0 C30 0 33 -1 35 4 L351 692 C353 695 352 700 348 700 L342 700 C339 700 337 699 336 696 L20 7 C18 4 18 1 21 0 L21 0 Z " />
<glyph glyph-name="zero" unicode="0" horiz-adv-x="631" d="M274 -11 C450 -11 561 169 561 440 C561 605 497 710 376 710 C199 710 88 531 88 260 C88 94 152 -11 274 -11 L274 -11 Z M276 7 C165 7 107 104 107 260 C107 519 206 691 373 691 C484 691 542 594 542 439 C542 179 443 7 276 7 L276 7 Z " />
<glyph glyph-name="one" unicode="1" horiz-adv-x="338" d="M161 7 C161 3 163 0 167 0 L172 0 C176 0 179 3 180 7 L277 697 C278 703 271 708 266 703 L78 564 C74 561 74 559 75 557 L79 550 C80 547 83 547 86 549 L255 673 L161 7 Z " />
<glyph glyph-name="two" unicode="2" horiz-adv-x="520" d="M18 0 L394 0 C397 0 401 3 401 7 L402 11 C402 15 400 19 396 19 L50 19 L329 274 C420 356 480 429 480 535 C480 627 422 710 300 710 C188 710 124 607 124 607 C121 602 122 600 125 597 L132 593 C134 592 137 592 139 596 C140 596 195 692 298 692 C409 692 461 616 461 532 C461 434 402 365 317 287 L15 12 C10 8 12 0 18 0 L18 0 Z " />
<glyph glyph-name="three" unicode="3" horiz-adv-x="554" d="M44 82 C54 60 116 -10 218 -10 C361 -10 460 90 460 210 C460 277 419 344 353 364 C353 364 353 365 353 365 C425 388 492 460 492 556 C492 644 432 710 337 710 C215 710 148 628 139 617 C137 614 137 611 140 609 L145 605 C148 603 151 604 153 607 C159 614 220 692 333 692 C420 692 473 634 473 554 C473 446 381 373 298 373 L177 373 C174 373 171 371 170 367 L169 363 C168 358 171 354 175 354 L298 354 C388 354 442 282 442 209 C442 98 350 8 218 8 C118 8 72 75 58 94 C56 97 53 98 50 96 L45 92 C42 90 42 87 44 82 L44 82 Z " />
<glyph glyph-name="four" unicode="4" horiz-adv-x="579" d="M27 164 L416 164 L393 7 C392 3 395 0 398 0 L403 0 C407 0 410 4 410 7 L433 164 L497 164 C503 164 505 166 506 170 L507 175 C508 179 505 181 501 181 L435 181 L509 712 C510 718 504 719 500 715 L23 175 C19 170 20 164 27 164 L27 164 Z M52 181 L488 676 L418 181 L52 181 Z " />
<glyph glyph-name="five" unicode="5" horiz-adv-x="552" d="M58 78 C77 45 124 -10 227 -10 C368 -10 484 112 484 267 C484 377 419 442 292 440 L136 440 L171 683 L460 683 C464 683 467 686 468 690 L469 693 C470 697 468 700 464 700 L161 700 C157 700 154 697 153 693 L116 430 C116 425 118 422 122 422 L292 422 C409 422 465 366 465 267 C465 122 360 8 227 8 C134 8 91 61 74 90 C72 94 70 95 66 92 L59 88 C55 85 56 82 58 78 L58 78 Z " />
<glyph glyph-name="six" unicode="6" horiz-adv-x="563" d="M73 228 C73 96 135 -10 254 -10 C379 -10 499 111 499 263 C499 379 422 456 325 456 C217 456 137 379 102 335 C150 570 376 678 446 703 C450 704 452 707 451 711 L450 718 C450 721 446 722 443 721 C360 692 73 553 73 228 L73 228 Z M91 230 C91 264 95 294 97 299 C103 308 187 438 323 438 C411 438 481 368 481 263 C481 121 372 8 254 8 C147 8 91 106 91 230 L91 230 Z " />
<glyph glyph-name="seven" unicode="7" horiz-adv-x="469" d="M109 9 C106 4 107 1 110 0 L115 -2 C119 -4 121 -3 123 1 L494 691 C496 695 494 700 490 700 L92 700 C89 700 88 698 87 694 L86 689 C85 685 87 683 91 683 L470 683 L109 9 Z " />
<glyph glyph-name="eight" unicode="8" horiz-adv-x="579" d="M66 153 C66 44 143 -10 247 -10 C377 -10 484 55 484 202 C484 277 430 342 342 359 C441 381 516 452 516 551 C516 630 466 710 346 710 C197 710 132 602 132 508 C132 435 180 378 256 360 C142 339 66 269 66 153 L66 153 Z M302 370 C213 375 149 428 149 509 C149 595 209 694 345 694 C454 694 497 623 497 551 C497 442 410 377 302 370 L302 370 Z M84 154 C84 271 171 339 298 349 C402 341 466 279 466 201 C466 70 366 6 250 6 C154 6 84 55 84 154 L84 154 Z " />
<glyph glyph-name="nine" unicode="9" horiz-adv-x="564" d="M481 367 C432 132 207 23 137 -2 C133 -3 130 -6 131 -10 L133 -17 C134 -21 137 -22 140 -21 C222 8 510 148 510 474 C510 606 448 710 328 710 C204 710 83 590 83 439 C83 323 160 245 257 245 C365 245 446 323 481 367 L481 367 Z M259 264 C172 264 102 334 102 439 C102 581 211 691 328 691 C435 691 491 595 491 472 C491 438 487 408 486 403 C480 394 395 264 259 264 L259 264 Z " />
<glyph glyph-name="colon" unicode="&#x3a;" horiz-adv-x="207" d="M123 419 C139 419 152 434 152 450 C152 463 145 474 130 474 C115 474 101 461 101 442 C101 430 110 419 123 419 L123 419 Z M40 13 C40 0 49 -12 63 -12 C79 -12 92 3 92 20 C92 33 83 43 70 43 C54 43 40 30 40 13 L40 13 Z " />
<glyph glyph-name="semicolon" unicode="&#x3b;" horiz-adv-x="252" d="M135 419 C151 419 164 434 164 450 C164 463 157 474 142 474 C127 474 114 461 114 442 C114 430 123 419 135 419 L135 419 Z M55 11 C55 -1 64 -10 76 -10 C86 -10 92 -6 98 0 C101 -7 103 -17 103 -29 C103 -78 78 -120 41 -146 C37 -149 34 -151 37 -157 L40 -163 C42 -167 45 -167 51 -163 C96 -130 123 -81 123 -29 C123 4 112 38 85 38 C70 38 55 26 55 11 L55 11 Z " />
<glyph glyph-name="less" unicode="&#x3c;" horiz-adv-x="600" d="M118 225 L413 -2 C416 -4 418 -3 421 0 L425 5 C428 8 427 12 424 14 L141 229 L487 455 C491 457 491 460 489 463 L486 471 C484 474 482 475 479 473 L119 238 C114 235 113 229 118 225 L118 225 Z " />
<glyph glyph-name="equal" unicode="&#x3d;" horiz-adv-x="600" d="M164 382 L461 382 C465 382 468 385 469 389 L470 393 C471 397 468 400 464 400 L167 400 C163 400 160 397 159 393 L158 389 C157 385 160 382 164 382 L164 382 Z M135 176 L432 176 C436 176 439 179 440 183 L441 187 C442 191 439 194 435 194 L138 194 C134 194 131 191 130 187 L129 183 C128 179 131 176 135 176 L135 176 Z " />
<glyph glyph-name="greater" unicode="&#x3e;" horiz-adv-x="600" d="M107 -1 L466 226 C471 229 472 235 468 238 C468 238 468 238 173 473 C170 475 167 475 164 471 L161 467 C159 464 159 461 162 458 L443 235 L98 13 C95 11 94 7 96 4 L98 0 C100 -3 103 -3 107 -1 L107 -1 Z " />
<glyph glyph-name="question" unicode="&#x3f;" horiz-adv-x="449" d="M202 257 L207 257 C211 257 214 260 215 264 L223 322 C228 361 256 377 295 400 C324 417 423 478 423 581 C423 654 370 710 282 710 C166 710 102 620 102 620 C99 616 100 613 103 611 L107 608 C112 605 115 607 118 611 C118 611 177 693 282 693 C358 693 406 640 406 581 C406 488 317 432 288 415 C249 392 212 372 206 324 L197 264 C196 260 199 257 202 257 L202 257 Z M152 11 C152 0 160 -10 171 -10 C185 -10 197 3 197 17 C197 28 189 37 178 37 C164 37 152 26 152 11 L152 11 Z " />
<glyph glyph-name="at" unicode="&#x40;" horiz-adv-x="925" d="M59 157 C59 -18 147 -159 277 -224 C280 -226 283 -225 285 -221 L287 -217 C289 -213 289 -209 285 -207 C161 -144 76 -11 76 157 C76 460 271 692 546 692 C750 692 858 569 858 357 C858 187 768 38 641 38 C594 38 571 79 579 134 L619 423 C620 427 617 430 613 430 L609 430 C605 430 603 427 602 423 L597 386 C580 407 541 440 474 440 C363 440 267 337 267 199 C267 99 321 20 412 20 C492 20 538 67 561 100 C563 55 590 20 641 20 C774 19 875 169 875 357 C875 579 759 710 546 710 C261 710 59 470 59 157 L59 157 Z M284 200 C284 327 370 423 474 423 C554 423 590 366 593 359 L561 135 C561 135 519 38 412 38 C336 38 284 109 284 200 L284 200 Z " />
<glyph glyph-name="A" unicode="A" horiz-adv-x="587" d="M-9 1 L101 210 L470 210 L520 2 C521 -1 524 -2 527 -1 L532 1 C535 2 537 4 536 8 L364 717 C363 720 361 721 359 721 L358 721 C356 721 353 720 352 717 L-25 7 C-26 5 -26 2 -23 1 L-15 -2 C-11 -3 -10 -1 -9 1 L-9 1 Z M111 227 L354 688 C355 688 355 688 355 688 L465 227 L111 227 Z " />
<glyph glyph-name="B" unicode="B" horiz-adv-x="584" d="M69 7 C69 3 71 0 75 0 L269 0 C403 0 498 87 498 214 C498 297 453 345 386 360 C463 387 525 453 525 548 C525 646 461 700 359 700 L173 700 C170 700 166 697 166 693 L69 7 Z M138 367 L182 682 L357 682 C449 682 507 635 507 548 C507 439 424 367 314 367 L138 367 Z M89 18 L135 349 L328 349 C418 349 479 306 479 214 C479 96 391 18 272 18 L89 18 Z " />
<glyph glyph-name="C" unicode="C" horiz-adv-x="667" d="M69 301 C69 128 183 -10 349 -10 C429 -10 511 22 583 88 C585 90 586 93 584 95 L579 101 C577 103 574 103 572 101 C503 40 428 8 349 8 C200 8 87 137 87 301 C87 516 260 693 448 693 C534 693 593 660 643 604 C645 602 648 601 651 604 L656 609 C659 612 658 615 656 617 C603 674 542 710 448 710 C252 710 69 527 69 301 L69 301 Z " />
<glyph glyph-name="D" unicode="D" horiz-adv-x="677" d="M69 7 C69 3 71 0 74 0 L255 0 C450 0 625 178 625 394 C625 564 512 700 353 700 L172 700 C169 700 166 697 165 693 L69 7 Z M88 18 L181 682 L350 682 C500 682 607 553 607 394 C607 187 438 18 257 18 L88 18 Z " />
<glyph glyph-name="E" unicode="E" horiz-adv-x="547" d="M69 7 C69 3 71 0 75 0 L441 0 C445 0 448 3 449 7 L450 11 C451 15 450 18 443 18 L89 18 L136 355 L448 355 C451 355 454 358 455 362 L456 366 C457 370 454 373 450 373 L139 373 L182 682 L537 682 C541 682 543 685 544 689 L545 693 C546 697 543 700 539 700 L173 700 C170 700 166 697 166 693 L69 7 Z " />
<glyph glyph-name="F" unicode="F" horiz-adv-x="526" d="M69 7 C69 3 71 0 75 0 L79 0 C83 0 87 3 87 7 C102 115 117 222 133 330 L441 330 C446 330 449 332 450 335 L452 342 C453 346 450 348 447 348 L135 348 L182 682 L537 682 C541 682 543 685 544 689 L545 693 C546 697 543 700 539 700 L173 700 C170 700 166 697 166 693 L69 7 Z " />
<glyph glyph-name="G" unicode="G" horiz-adv-x="695" d="M69 301 C69 128 186 -10 349 -10 C493 -10 580 58 588 70 L624 323 C624 326 622 329 618 329 L406 329 C402 329 400 326 399 323 L398 319 C397 315 399 312 403 312 L605 312 L571 77 C552 60 472 8 352 8 C197 8 87 137 87 301 C87 516 260 693 448 693 C534 693 593 660 643 604 C645 602 648 601 651 604 L656 609 C659 612 658 615 656 617 C603 674 542 710 448 710 C252 710 69 527 69 301 L69 301 Z " />
<glyph glyph-name="H" unicode="H" horiz-adv-x="692" d="M69 7 C68 3 71 0 75 0 L79 0 C83 0 86 3 87 7 L136 355 L576 355 L527 7 C526 3 529 0 533 0 L538 0 C541 0 544 3 545 7 L642 693 C643 697 640 700 636 700 L631 700 C628 700 625 697 624 693 L579 373 L139 373 L183 693 C184 697 182 700 178 700 L173 700 C170 700 166 697 166 693 L69 7 Z " />
<glyph glyph-name="I" unicode="I" horiz-adv-x="234" d="M69 7 C68 3 71 0 75 0 L79 0 C83 0 86 3 87 7 L183 693 C184 697 181 700 177 700 L173 700 C169 700 166 697 165 693 L69 7 Z " />
<glyph glyph-name="J" unicode="J" horiz-adv-x="432" d="M122 -10 C230 -10 301 73 321 214 L388 693 C389 697 387 700 383 700 L379 700 C375 700 372 697 372 693 L304 214 C285 82 221 7 123 7 C51 7 20 55 8 77 C6 80 4 81 -1 78 L-5 76 C-9 74 -8 70 -7 67 C4 44 42 -10 122 -10 L122 -10 Z " />
<glyph glyph-name="K" unicode="K" horiz-adv-x="504" d="M69 7 C68 3 71 0 75 0 L79 0 C83 0 86 3 87 7 L134 345 L429 -2 C432 -6 435 -6 438 -4 L443 0 C446 3 447 6 444 10 L152 353 L530 686 C533 689 533 693 530 696 L527 699 C524 702 521 702 517 699 L137 363 L184 693 C185 697 182 700 178 700 L173 700 C170 700 167 697 166 693 L69 7 Z " />
<glyph glyph-name="L" unicode="L" horiz-adv-x="456" d="M69 7 C69 3 71 0 75 0 L398 0 C402 0 404 3 405 7 L406 11 C407 15 404 17 400 17 L88 17 L183 693 C184 697 181 700 178 700 L173 700 C170 700 167 697 166 693 L69 7 Z " />
<glyph glyph-name="M" unicode="M" horiz-adv-x="794" d="M17 8 C15 3 16 0 20 -1 L27 -2 C30 -2 32 -1 34 4 L252 666 L348 -8 C349 -15 358 -15 361 -8 L646 666 L681 4 C681 -1 684 -2 688 -1 L694 0 C698 1 698 3 698 8 L661 712 C660 719 651 719 648 712 L360 36 C360 36 361 36 261 712 C261 719 251 719 249 712 L17 8 Z " />
<glyph glyph-name="N" unicode="N" horiz-adv-x="710" d="M69 7 C68 3 71 0 75 0 L79 0 C83 0 86 3 87 7 L181 676 L548 -12 C551 -18 560 -15 561 -8 L660 693 C661 697 658 700 654 700 L650 700 C646 700 643 697 642 693 L548 26 C548 26 548 25 181 714 C178 720 169 717 168 710 L69 7 Z " />
<glyph glyph-name="O" unicode="O" horiz-adv-x="780" d="M70 302 C70 130 185 -10 349 -10 C547 -10 729 171 729 397 C729 571 613 710 450 710 C251 710 70 529 70 302 L70 302 Z M88 303 C88 518 261 692 449 692 C601 692 711 561 711 396 C711 181 537 8 349 8 C198 8 88 139 88 303 L88 303 Z " />
<glyph glyph-name="P" unicode="P" horiz-adv-x="556" d="M69 7 C68 3 71 0 75 0 L79 0 C83 0 86 3 87 7 L121 245 L298 245 C421 245 538 362 538 503 C538 611 464 700 361 700 L173 700 C170 700 166 697 166 693 L69 7 Z M123 263 L182 682 L358 682 C452 682 519 600 519 501 C519 371 413 263 300 263 L123 263 Z " />
<glyph glyph-name="Q" unicode="Q" horiz-adv-x="780" d="M70 302 C70 130 185 -10 349 -10 C382 -10 416 -5 448 5 L525 -189 C526 -191 528 -193 531 -192 L541 -187 C544 -185 545 -182 543 -179 L466 11 C613 65 729 217 729 397 C729 571 613 710 450 710 C251 710 70 529 70 302 L70 302 Z M88 303 C88 518 261 692 449 692 C601 692 711 561 711 396 C711 181 537 8 349 8 C198 8 88 139 88 303 L88 303 Z " />
<glyph glyph-name="R" unicode="R" horiz-adv-x="599" d="M69 7 C69 3 71 0 75 0 L79 0 C82 0 86 3 86 7 L123 267 L325 267 C334 267 345 267 354 268 L458 0 C459 -3 461 -4 464 -3 L470 -1 C473 0 474 4 473 7 L369 271 C474 292 564 389 564 514 C564 621 489 700 387 700 L173 700 C169 700 166 697 166 693 L69 7 Z M125 284 L181 682 L387 682 C478 682 547 609 547 514 C547 382 445 284 325 284 L125 284 Z " />
<glyph glyph-name="S" unicode="S" horiz-adv-x="513" d="M41 73 C50 59 114 -10 224 -10 C345 -10 447 72 447 182 C447 287 378 327 269 365 C178 397 115 428 115 521 C115 595 175 693 317 693 C400 693 457 643 457 643 C460 641 463 642 465 645 L470 651 C472 654 471 657 469 659 C469 659 410 710 317 710 C165 710 98 605 98 521 C98 417 167 384 261 350 C359 315 430 278 430 182 C430 78 329 7 224 7 C123 7 66 71 56 86 C54 89 51 90 48 87 L42 82 C39 79 39 76 41 73 L41 73 Z " />
<glyph glyph-name="T" unicode="T" horiz-adv-x="463" d="M181 7 C180 3 183 0 187 0 L191 0 C195 0 198 3 199 7 L294 682 L482 682 C486 682 488 684 489 688 L490 693 C491 697 488 700 484 700 L92 700 C89 700 86 698 85 694 L84 689 C83 685 86 682 90 682 L276 682 L181 7 Z " />
<glyph glyph-name="U" unicode="U" horiz-adv-x="667" d="M96 252 C94 235 92 217 92 201 C92 74 167 -10 291 -10 C445 -10 540 98 562 252 L624 693 C625 697 622 700 619 700 L614 700 C610 700 607 697 606 693 L544 252 C524 108 426 8 294 8 C177 8 110 85 110 202 C110 218 111 235 114 252 L175 693 C176 697 174 700 170 700 L165 700 C162 700 159 697 158 693 L96 252 Z " />
<glyph glyph-name="V" unicode="V" horiz-adv-x="585" d="M240 -16 C241 -23 250 -20 252 -16 L627 691 C629 694 629 698 626 699 L619 702 C616 703 613 701 612 699 L250 16 L87 696 C86 700 84 702 81 701 L73 699 C70 698 69 695 70 692 L240 -16 Z " />
<glyph glyph-name="W" unicode="W" horiz-adv-x="805" d="M181 -12 C182 -19 190 -19 193 -12 L454 666 L533 -12 C534 -19 542 -19 545 -12 L821 691 C823 695 822 698 819 699 L812 702 C809 703 806 702 805 699 L544 32 L466 708 C465 715 456 715 453 708 L193 31 L113 697 C113 700 111 703 108 702 L99 700 C96 699 95 697 95 694 L181 -12 Z " />
<glyph glyph-name="X" unicode="X" horiz-adv-x="498" d="M-1 3 L6 -1 C9 -3 12 -1 14 2 L258 339 L407 2 C408 -1 410 -3 414 -1 L421 2 C426 4 425 8 424 11 L269 355 L509 688 C511 691 513 695 509 697 L503 701 C499 703 497 701 495 698 L260 373 L119 698 C118 701 116 703 112 701 L105 697 C101 695 102 691 103 688 L248 357 L-1 12 C-3 9 -5 6 -1 3 L-1 3 Z " />
<glyph glyph-name="Y" unicode="Y" horiz-adv-x="509" d="M204 7 C203 2 205 0 209 0 L215 0 C219 0 221 2 222 6 L269 344 L555 688 C558 691 559 695 555 697 L548 701 C545 703 542 701 540 698 L261 360 L79 697 C77 700 75 702 71 700 L65 697 C61 695 61 691 63 688 L251 343 L204 7 Z " />
<glyph glyph-name="Z" unicode="Z" horiz-adv-x="476" d="M-8 0 L379 0 C383 0 386 3 387 7 L388 11 C389 15 387 18 383 18 L15 18 L502 689 C505 694 503 700 497 700 L121 700 C117 700 115 697 114 693 L113 689 C112 685 114 682 118 682 L474 682 L-12 11 C-16 6 -14 0 -8 0 L-8 0 Z " />
<glyph glyph-name="bracketleft" unicode="&#x5b;" horiz-adv-x="313" d="M38 -220 L164 682 L336 682 C339 682 342 685 343 689 L344 693 C345 697 342 700 338 700 L156 700 C152 700 149 697 148 693 L19 -231 C18 -235 21 -238 24 -238 L207 -238 C210 -238 213 -235 214 -231 L215 -227 C216 -223 213 -220 209 -220 L38 -220 Z " />
<glyph glyph-name="backslash" unicode="&#x5c;" horiz-adv-x="346" d="M235 4 C236 -1 239 0 242 0 L248 0 C251 0 252 3 251 6 L129 696 C128 699 126 700 123 700 L117 700 C113 700 112 697 113 694 L235 4 Z " />
<glyph glyph-name="bracketright" unicode="&#x5d;" horiz-adv-x="312" d="M-38 -220 C-42 -220 -45 -223 -46 -227 L-47 -231 C-48 -235 -45 -238 -41 -238 L141 -238 C145 -238 148 -235 149 -231 L279 693 C279 697 277 700 273 700 L91 700 C87 700 85 697 84 693 L83 689 C82 685 84 682 88 682 L259 682 L133 -220 L-38 -220 Z " />
<glyph glyph-name="asciicircum" unicode="&#x5e;" horiz-adv-x="472" d="M61 398 C64 396 67 397 69 400 L298 692 L438 400 C439 397 442 396 445 398 L451 402 C455 404 456 407 454 410 L305 715 C303 719 298 719 294 715 L55 410 C52 407 53 404 56 402 L61 398 Z " />
<glyph glyph-name="underscore" unicode="&#x5f;" horiz-adv-x="627" d="M124 -10 C120 -10 117 -13 116 -17 L115 -20 C114 -24 117 -27 120 -27 L417 -27 C421 -27 424 -24 425 -21 L426 -17 C427 -13 425 -10 421 -10 L124 -10 Z " />
<glyph glyph-name="grave" unicode="&#x60;" horiz-adv-x="272" d="M254 560 C258 558 261 560 263 563 L265 567 C267 570 266 572 263 574 L113 665 C110 666 107 667 104 662 L102 659 C99 655 100 652 103 650 L254 560 Z " />
<glyph glyph-name="a" unicode="a" horiz-adv-x="520" d="M50 195 C50 80 114 -11 220 -11 C294 -11 359 36 382 67 L374 8 C373 3 375 0 379 0 L384 0 C388 0 391 3 392 8 L454 454 C455 459 452 462 449 462 L444 462 C441 462 439 459 438 454 L430 412 C409 436 363 472 288 472 C156 472 50 351 50 195 L50 195 Z M68 196 C68 342 166 454 288 454 C380 454 422 393 426 385 L386 101 C360 58 294 7 220 7 C127 7 68 91 68 196 L68 196 Z " />
<glyph glyph-name="b" unicode="b" horiz-adv-x="521" d="M56 0 L61 0 C66 0 68 3 69 8 L78 64 C97 33 144 -11 227 -11 C347 -11 457 111 457 267 C457 383 389 472 280 472 C192 472 126 413 126 413 L167 692 C168 697 164 700 160 700 L155 700 C151 700 149 697 148 692 L50 8 C49 3 51 0 56 0 L56 0 Z M82 95 L123 383 C123 383 185 454 280 454 C375 454 439 373 439 267 C439 124 338 7 227 7 C126 7 84 87 82 95 L82 95 Z " />
<glyph glyph-name="c" unicode="c" horiz-adv-x="497" d="M49 199 C49 79 133 -11 238 -11 C339 -11 415 67 417 69 C420 72 419 77 417 79 L412 84 C410 86 407 86 404 83 C400 80 331 7 238 7 C145 7 67 91 67 199 C67 349 182 454 306 454 C390 454 433 404 441 397 C444 394 448 393 451 396 L456 401 C458 403 460 406 457 411 C453 415 403 472 306 472 C172 472 49 361 49 199 L49 199 Z " />
<glyph glyph-name="d" unicode="d" horiz-adv-x="520" d="M49 195 C49 80 114 -11 216 -11 C293 -11 353 33 382 64 L374 8 C373 3 375 0 379 0 L384 0 C387 0 391 1 392 8 L487 692 C488 697 486 700 483 700 L476 700 C472 700 470 697 470 692 L430 413 C430 413 382 472 294 472 C159 472 49 354 49 195 L49 195 Z M67 195 C67 340 168 454 294 454 C383 454 427 385 427 385 L386 96 C381 88 318 7 216 7 C127 7 67 90 67 195 L67 195 Z " />
<glyph glyph-name="e" unicode="e" horiz-adv-x="493" d="M49 189 C49 80 105 -11 225 -11 C289 -11 361 23 382 44 C384 46 384 49 383 51 L380 57 C379 59 377 63 371 58 C344 37 290 7 225 7 C124 7 67 85 67 191 C67 201 68 211 69 222 C114 215 156 212 196 212 C353 212 450 261 450 346 C450 416 388 472 290 472 C151 472 49 348 49 189 L49 189 Z M71 240 C88 360 175 454 290 454 C378 454 432 406 432 346 C432 271 341 230 195 230 C158 230 115 234 71 240 L71 240 Z " />
<glyph glyph-name="f" unicode="f" horiz-adv-x="347" d="M42 -238 L47 -238 C52 -238 54 -234 55 -229 L148 444 L336 444 C339 444 343 446 344 450 L345 455 C346 460 342 462 338 462 L151 462 L160 528 C174 633 218 693 302 693 C351 693 379 669 399 649 C403 645 406 645 410 649 L412 651 C415 654 416 659 413 663 C395 684 360 710 302 710 C210 710 158 647 142 528 L133 462 L69 462 C66 462 62 461 61 456 L60 450 C59 446 62 444 67 444 L130 444 L36 -229 C35 -234 38 -238 42 -238 L42 -238 Z " />
<glyph glyph-name="g" unicode="g" horiz-adv-x="521" d="M49 196 C49 80 119 -11 235 -11 C304 -11 355 23 381 46 L375 6 C356 -137 287 -201 196 -201 C122 -201 74 -146 59 -128 C57 -126 55 -125 52 -127 L47 -131 C43 -134 42 -137 46 -142 C58 -158 111 -219 195 -219 C289 -219 371 -163 393 3 L454 454 C455 459 452 462 449 462 L444 462 C441 462 439 459 438 454 L431 410 C410 434 363 472 288 472 C156 472 49 352 49 196 L49 196 Z M67 196 C67 342 166 454 288 454 C380 454 422 389 426 381 L384 75 C376 64 321 7 235 7 C131 7 67 92 67 196 L67 196 Z " />
<glyph glyph-name="h" unicode="h" horiz-adv-x="505" d="M61 0 C66 0 68 3 69 8 L119 355 C129 367 191 454 287 454 C382 454 418 392 399 258 L363 8 C362 3 364 0 370 0 L374 0 C379 0 380 3 381 8 L417 258 C438 399 397 472 287 472 C205 472 150 416 122 385 L166 692 C167 697 164 700 160 700 L156 700 C151 700 149 697 148 692 L50 8 C49 3 51 0 57 0 L61 0 Z " />
<glyph glyph-name="i" unicode="i" horiz-adv-x="198" d="M57 0 L62 0 C67 0 68 3 69 8 L132 454 C133 459 130 462 126 462 L121 462 C116 462 114 459 113 454 L50 8 C49 3 51 0 57 0 L57 0 Z M143 605 C158 605 169 618 169 632 C169 643 162 653 150 653 C136 653 123 640 123 626 C123 615 130 605 143 605 L143 605 Z " />
<glyph glyph-name="j" unicode="j" horiz-adv-x="197" d="M145 605 C160 605 171 618 171 632 C171 643 164 653 152 653 C138 653 125 640 125 626 C125 615 132 605 145 605 L145 605 Z M125 462 L121 462 C116 462 114 459 113 454 L40 -65 C25 -170 -19 -212 -100 -231 C-105 -232 -109 -234 -108 -239 L-107 -244 C-106 -249 -103 -250 -97 -249 C-6 -230 43 -178 58 -65 L131 454 C132 459 130 462 125 462 L125 462 Z " />
<glyph glyph-name="k" unicode="k" horiz-adv-x="417" d="M57 0 L61 0 C66 0 69 3 70 8 L104 248 L330 -2 C333 -6 338 -6 341 -3 L345 1 C348 4 350 7 346 11 L123 254 L403 452 C406 454 408 457 406 461 L402 467 C398 471 396 470 393 468 L106 266 L168 692 C169 697 164 700 160 700 L156 700 C151 700 149 697 148 692 L50 8 C49 3 51 0 57 0 L57 0 Z " />
<glyph glyph-name="l" unicode="l" horiz-adv-x="214" d="M69 0 C74 0 76 3 77 8 L174 692 C175 697 171 700 168 700 L163 700 C159 700 157 697 156 692 L58 8 C57 3 59 0 65 0 L69 0 Z " />
<glyph glyph-name="m" unicode="m" horiz-adv-x="763" d="M57 0 L61 0 C66 0 68 3 69 8 L118 359 C130 378 180 454 278 454 C365 454 397 384 379 258 L343 8 C342 3 344 0 350 0 L354 0 C359 0 361 3 362 8 L397 258 C403 298 405 332 400 360 C416 381 460 454 552 454 C643 454 676 390 657 258 L621 8 C620 3 622 0 628 0 L632 0 C636 0 639 3 640 8 L675 258 C695 399 657 472 552 472 C466 472 419 416 395 384 C378 439 343 472 278 472 C196 472 149 424 123 391 L131 454 C132 459 129 462 125 462 L120 462 C115 462 114 459 113 454 L50 8 C49 3 51 0 57 0 L57 0 Z " />
<glyph glyph-name="n" unicode="n" horiz-adv-x="506" d="M50 8 C49 3 51 0 57 0 L61 0 C66 0 68 3 69 8 L119 359 C132 379 191 454 288 454 C383 454 419 389 400 258 L364 8 C363 3 365 0 370 0 L375 0 C379 0 382 3 383 8 L418 258 C439 399 396 472 288 472 C206 472 152 422 123 391 L131 454 C131 459 130 462 126 462 L121 462 C117 462 115 459 114 454 L50 8 Z " />
<glyph glyph-name="o" unicode="o" horiz-adv-x="537" d="M49 197 C49 81 120 -11 228 -11 C358 -11 473 112 473 266 C473 380 402 472 295 472 C165 472 49 350 49 197 L49 197 Z M67 197 C67 337 174 454 295 454 C391 454 455 371 455 266 C455 125 349 7 228 7 C134 7 67 91 67 197 L67 197 Z " />
<glyph glyph-name="p" unicode="p" horiz-adv-x="519" d="M74 47 C93 24 132 -11 206 -11 C346 -11 455 112 455 270 C455 384 389 472 283 472 C207 472 151 436 125 412 L130 455 C131 460 129 462 125 462 L120 462 C116 462 114 460 113 455 L17 -230 C16 -235 20 -238 23 -238 L28 -238 C33 -238 34 -235 35 -230 L74 47 Z M78 74 L121 384 C129 395 187 454 283 454 C375 454 437 376 437 270 C437 123 336 7 206 7 C118 7 82 65 78 74 L78 74 Z " />
<glyph glyph-name="q" unicode="q" horiz-adv-x="520" d="M49 196 C49 80 119 -11 235 -11 C304 -11 354 23 380 46 L341 -229 C340 -234 342 -238 348 -238 L352 -238 C355 -238 358 -234 359 -229 L454 454 C455 459 452 462 449 462 L444 462 C441 462 439 459 438 454 L430 410 C409 434 363 472 288 472 C156 472 49 352 49 196 L49 196 Z M67 196 C67 342 166 454 288 454 C380 454 422 391 426 383 L383 74 C375 63 321 7 235 7 C131 7 67 90 67 196 L67 196 Z " />
<glyph glyph-name="r" unicode="r" horiz-adv-x="347" d="M61 0 C66 0 67 3 68 8 L119 360 C128 374 184 454 269 454 C297 454 316 447 331 437 C336 434 340 437 341 439 L343 442 C346 446 346 450 342 453 C329 461 308 472 269 472 C200 472 147 425 123 393 L130 454 C131 459 129 462 126 462 L120 462 C116 462 114 459 113 454 L50 8 C49 3 50 0 56 0 L61 0 Z " />
<glyph glyph-name="s" unicode="s" horiz-adv-x="402" d="M165 -11 C252 -11 330 44 330 122 C330 196 265 220 193 248 C125 274 85 297 85 352 C85 396 129 454 220 454 C271 454 306 434 324 421 C330 417 331 419 334 423 L337 427 C340 431 340 434 336 437 C318 451 279 472 220 472 C118 472 67 404 67 352 C67 292 106 260 184 232 C254 206 312 185 312 122 C312 55 244 7 165 7 C101 7 64 37 46 56 C43 59 40 59 36 55 L32 51 C28 47 29 43 32 40 C53 20 90 -11 165 -11 L165 -11 Z " />
<glyph glyph-name="t" unicode="t" horiz-adv-x="322" d="M148 -11 C198 -11 259 19 275 29 C278 31 280 34 278 37 L275 43 C273 46 270 48 265 45 C250 35 197 7 148 7 C81 7 83 59 92 124 L137 444 L305 444 C310 444 313 448 314 452 L315 454 C316 459 313 462 308 462 L140 462 L156 587 C157 591 154 594 150 594 L145 594 C142 594 140 591 139 587 L122 462 L77 462 C73 462 71 459 70 454 L69 452 C68 448 70 444 73 444 L119 444 L74 124 C63 47 69 -11 148 -11 L148 -11 Z " />
<glyph glyph-name="u" unicode="u" horiz-adv-x="496" d="M202 7 C108 7 70 69 90 201 L125 454 C126 459 124 462 119 462 L115 462 C110 462 108 460 107 455 L71 201 C51 61 91 -11 202 -11 C280 -11 328 37 356 69 L348 8 C347 3 350 0 353 0 L358 0 C362 0 365 3 366 8 L429 454 C430 459 427 462 423 462 L418 462 C413 462 411 459 410 454 L360 101 C353 90 299 7 202 7 L202 7 Z " />
<glyph glyph-name="v" unicode="v" horiz-adv-x="441" d="M172 -12 C175 -19 182 -19 186 -12 L435 457 C437 461 435 465 432 466 L427 468 C423 470 420 468 418 464 L181 18 L72 463 C71 467 70 469 64 468 L57 465 C53 464 53 461 54 457 L172 -12 Z " />
<glyph glyph-name="w" unicode="w" horiz-adv-x="637" d="M137 -12 C138 -20 148 -19 152 -12 L340 440 L401 -12 C403 -20 412 -19 417 -12 L619 458 C621 462 621 465 617 466 L610 469 C606 470 605 469 603 465 L413 25 L352 474 C349 485 339 484 336 475 L149 26 L82 464 C81 468 80 470 74 469 L69 468 C64 467 64 462 65 458 L137 -12 Z " />
<glyph glyph-name="x" unicode="x" horiz-adv-x="420" d="M1 2 L7 -3 C9 -5 13 -4 15 -2 L202 227 L327 0 C330 -4 333 -3 335 -2 L341 1 C345 3 346 7 343 11 L215 239 L400 455 C402 459 401 461 399 463 L394 468 C392 470 388 470 386 467 L205 255 L85 463 C84 465 81 469 76 466 L71 463 C68 461 66 459 69 453 L192 241 L1 11 C-2 7 -2 5 1 2 L1 2 Z " />
<glyph glyph-name="y" unicode="y" horiz-adv-x="440" d="M173 10 L44 -230 C41 -236 43 -238 46 -240 L50 -242 C54 -244 56 -244 59 -239 L434 457 C436 461 435 464 431 466 L426 468 C422 470 419 468 417 465 L185 30 L71 463 C70 466 67 468 63 467 L57 465 C54 464 53 461 54 457 L173 10 Z " />
<glyph glyph-name="z" unicode="z" horiz-adv-x="394" d="M1 0 L295 0 C299 0 302 2 303 7 L304 11 C305 15 302 18 298 18 L25 18 L377 449 C382 455 379 462 372 462 L94 462 C90 462 87 461 86 456 L85 451 C84 447 87 444 92 444 L348 444 L-3 13 C-8 7 -6 0 1 0 L1 0 Z " />
<glyph glyph-name="braceleft" unicode="&#x7b;" horiz-adv-x="328" d="M75 -15 C50 -190 116 -249 222 -249 C226 -249 229 -246 230 -242 L231 -238 C232 -234 229 -231 225 -231 C129 -231 69 -186 93 -15 L114 133 C121 185 94 218 68 233 C98 248 135 281 142 333 L162 478 C186 649 258 692 354 692 C358 692 361 695 362 699 L363 703 C364 707 361 710 357 710 C245 710 170 663 144 478 L124 333 C115 271 61 242 38 242 C34 242 32 239 31 235 L30 231 C29 226 32 224 36 224 C62 224 105 193 96 133 L75 -15 Z " />
<glyph glyph-name="bar" unicode="&#x7c;" horiz-adv-x="197" d="M18 -231 C17 -235 20 -238 24 -238 L28 -238 C32 -238 34 -235 35 -231 L173 752 C174 756 171 759 168 759 L164 759 C160 759 157 756 156 752 L18 -231 Z " />
<glyph glyph-name="braceright" unicode="&#x7d;" horiz-adv-x="328" d="M150 -15 C126 -186 54 -231 -41 -231 C-45 -231 -48 -234 -49 -238 L-50 -242 C-51 -246 -48 -249 -44 -249 C68 -249 142 -200 168 -15 L189 133 C197 193 249 224 275 224 C279 224 281 226 282 231 L283 235 C284 239 281 242 277 242 C254 242 208 271 217 333 L237 478 C262 657 196 710 90 710 C86 710 83 707 82 703 L81 699 C80 695 83 692 87 692 C183 692 243 649 219 478 L199 333 C192 281 219 248 245 233 C215 218 178 185 171 133 L150 -15 Z " />
<glyph glyph-name="asciitilde" unicode="&#x7e;" horiz-adv-x="543" d="M72 250 C75 248 78 249 80 253 C80 253 127 341 196 341 C232 341 251 310 265 286 C282 257 303 223 351 223 C431 223 482 320 482 320 C484 324 484 326 480 328 L474 331 C471 332 469 332 466 328 C466 328 419 240 351 240 C315 240 296 267 281 293 C265 321 242 359 196 359 C116 359 64 262 64 262 C61 257 62 256 64 254 L72 250 Z " />
<glyph glyph-name="uni00A0" unicode="&#xa0;" horiz-adv-x="240" d="" />
<glyph glyph-name="exclamdown" unicode="&#xa1;" horiz-adv-x="201" d="M120 425 C134 425 147 436 147 451 C147 462 138 472 127 472 C113 472 101 459 101 445 C101 434 109 425 120 425 L120 425 Z M79 188 L19 -231 C19 -235 21 -238 25 -238 L28 -238 C33 -238 37 -236 37 -231 L96 188 C96 192 94 195 90 195 L86 195 C83 195 79 192 79 188 L79 188 Z " />
<glyph glyph-name="cent" unicode="&#xa2;" horiz-adv-x="525" d="M138 -93 C136 -99 137 -103 142 -104 L147 -105 C150 -106 153 -104 155 -100 L192 -3 C210 -9 229 -11 249 -11 C352 -11 427 71 428 71 C430 73 429 78 427 80 L424 84 C421 86 418 86 415 83 C413 83 344 9 253 9 C234 9 217 12 200 16 L363 444 C420 429 450 394 450 394 C452 391 457 390 461 393 L466 398 C468 400 471 403 467 408 C465 410 433 447 371 463 L387 505 C390 513 387 515 383 516 L380 517 C375 518 371 516 370 511 L353 467 C342 469 329 471 317 471 C176 471 59 358 59 199 C59 108 106 34 174 4 L138 -93 Z M184 23 C121 49 79 120 79 203 C79 349 194 450 315 450 C325 450 335 448 345 447 L184 23 Z " />
<glyph glyph-name="sterling" unicode="&#xa3;" horiz-adv-x="600" d="M93 10 C91 5 93 0 98 0 L425 0 C429 0 431 3 432 7 L433 11 C434 15 431 18 427 18 L117 18 C166 119 191 213 189 311 L402 311 C406 311 408 314 409 318 L410 322 C411 326 408 328 404 328 L190 328 C187 368 183 418 183 455 C183 610 282 692 373 692 C461 692 502 645 519 624 C521 621 525 623 527 625 L531 629 C534 632 535 635 533 638 C514 662 465 710 375 710 C266 710 166 618 166 452 C166 415 170 367 173 328 L137 328 C133 328 131 325 130 322 L129 318 C128 314 131 311 135 311 L173 311 C177 202 141 104 93 10 L93 10 Z " />
<glyph glyph-name="currency" unicode="&#xa4;" horiz-adv-x="475" d="M156 230 C142 248 136 270 136 294 C136 358 191 428 258 428 C308 428 346 387 346 331 C346 263 288 195 224 195 C197 195 172 207 156 230 L156 230 Z M85 151 L148 212 C168 190 195 178 223 178 C251 178 280 188 306 210 L352 151 C358 146 370 155 366 163 L321 223 C348 253 362 294 362 333 C362 357 356 380 343 399 L408 463 C412 467 409 471 406 475 C404 477 401 477 398 475 L332 412 C313 434 287 445 259 445 C231 445 202 435 177 414 L130 475 C124 480 112 471 117 463 L162 402 C133 371 120 331 120 292 C120 268 126 245 138 225 L74 163 C69 155 76 145 85 151 L85 151 Z " />
<glyph glyph-name="yen" unicode="&#xa5;" horiz-adv-x="600" d="M119 155 L270 155 L249 7 C249 3 251 0 255 0 L260 0 C263 0 267 3 267 7 L288 155 L440 155 C443 155 446 157 447 161 L448 166 C449 170 445 172 442 172 L290 172 L305 273 L457 273 C459 273 462 275 463 279 L464 283 C465 287 462 290 459 290 L307 290 L315 344 L600 688 C603 691 604 694 600 697 L595 701 C592 704 587 701 585 698 L307 359 L123 698 C122 700 120 703 116 701 L110 698 C105 695 106 691 108 688 L297 343 L289 290 L138 290 C135 290 133 289 132 285 L131 279 C130 276 132 273 136 273 L287 273 L273 172 L122 172 C119 172 116 170 115 166 L114 162 C113 158 116 155 119 155 L119 155 Z " />
<glyph glyph-name="brokenbar" unicode="&#xa6;" horiz-adv-x="204" d="M113 384 L117 384 C121 384 124 387 124 391 L175 752 C176 756 173 759 170 759 L166 759 C162 759 159 756 158 752 L108 391 C107 387 109 384 113 384 L113 384 Z M72 131 L21 -230 C21 -234 23 -237 27 -237 L31 -237 C34 -237 38 -234 38 -230 L89 131 C89 134 87 137 83 137 L79 137 C76 137 72 134 72 131 L72 131 Z " />
<glyph glyph-name="section" unicode="&#xa7;" horiz-adv-x="541" d="M45 -120 L39 -126 C35 -129 36 -132 39 -135 C49 -147 113 -212 209 -212 C324 -212 420 -133 420 -27 C420 13 407 46 385 69 C418 101 454 145 454 201 C454 291 384 334 283 363 C193 389 132 431 132 513 C132 594 191 692 334 692 C416 692 469 642 469 642 C473 639 476 643 478 645 L483 652 C485 655 484 658 482 659 C482 659 426 710 337 710 C172 710 115 601 115 510 C115 474 126 442 144 419 C102 380 81 335 81 283 C81 194 154 147 245 121 C339 94 403 55 403 -29 C403 -124 306 -195 211 -195 C116 -195 62 -133 53 -121 C51 -118 48 -118 45 -120 L45 -120 Z M251 137 C161 162 99 205 99 286 C99 333 119 373 156 408 C185 379 227 361 276 347 C370 320 435 281 435 198 C435 148 402 107 372 80 C343 105 301 122 251 137 L251 137 Z " />
<glyph glyph-name="dieresis" unicode="&#xa8;" horiz-adv-x="373" d="M312 605 C325 605 337 615 337 630 C337 642 330 650 318 650 C306 650 294 637 294 624 C294 613 300 605 312 605 L312 605 Z M142 605 C157 605 166 615 166 630 C166 642 160 650 148 650 C136 650 123 640 123 624 C123 613 130 605 142 605 L142 605 Z " />
<glyph glyph-name="copyright" unicode="&#xa9;" horiz-adv-x="805" d="M82 303 C82 131 202 -10 361 -10 C560 -10 741 173 741 397 C741 569 621 710 462 710 C263 710 82 526 82 303 L82 303 Z M100 305 C100 518 274 692 459 692 C613 692 723 558 723 395 C723 182 549 8 363 8 C210 8 100 141 100 305 L100 305 Z M244 323 C244 231 309 156 392 156 C433 156 470 169 506 199 C508 201 509 203 508 206 L506 211 C503 216 501 216 497 213 C463 184 429 174 395 174 C317 174 261 242 261 325 C261 435 350 524 444 524 C477 524 510 513 535 488 C538 486 540 486 542 489 L547 494 C549 497 549 500 546 502 C519 528 483 541 446 541 C338 541 244 444 244 323 L244 323 Z " />
<glyph glyph-name="ordfeminine" unicode="&#xaa;" horiz-adv-x="336" d="M163 401 C203 401 243 424 265 442 L261 417 C260 413 263 410 267 410 L270 410 C274 410 277 413 278 417 L306 613 C315 677 295 710 235 710 C181 710 146 686 146 686 C143 684 142 681 143 678 L146 672 C147 670 149 669 152 671 C152 671 183 692 233 692 C284 692 296 668 289 613 L285 587 C271 593 243 600 215 600 C141 600 93 558 85 502 C76 440 114 401 163 401 L163 401 Z M165 419 C122 419 95 449 102 502 C108 548 152 584 213 584 C245 584 273 573 282 569 L268 467 C252 448 209 419 165 419 L165 419 Z " />
<glyph glyph-name="guillemotleft" unicode="&#xab;" horiz-adv-x="389" d="M279 62 C281 59 283 58 287 60 L292 62 C296 64 296 67 295 70 L214 236 L341 401 C344 404 344 406 341 409 L337 413 C334 416 331 415 328 412 L195 242 C193 239 193 237 194 234 L279 62 Z M135 62 C137 59 139 58 143 60 L148 62 C152 64 152 67 151 70 L70 236 L197 401 C200 404 200 406 197 409 L193 413 C190 416 187 415 184 412 L51 242 C49 239 49 237 50 234 L135 62 Z " />
<glyph glyph-name="logicalnot" unicode="&#xac;" horiz-adv-x="560" d="M115 340 L455 340 L429 154 C428 150 430 147 434 147 L439 147 C442 147 445 150 446 154 L473 351 C474 355 472 358 468 358 L117 358 C114 358 112 355 111 351 L110 347 C109 343 112 340 115 340 L115 340 Z " />
<glyph glyph-name="uni00AD" unicode="&#xad;" horiz-adv-x="368" d="M69 243 L287 243 C290 243 292 246 293 250 L294 254 C295 258 293 261 290 261 L72 261 C68 261 66 258 65 254 L64 250 C63 246 66 243 69 243 L69 243 Z " />
<glyph glyph-name="registered" unicode="&#xae;" horiz-adv-x="804" d="M82 303 C82 131 202 -10 360 -10 C559 -10 740 173 740 397 C740 569 620 710 461 710 C262 710 82 526 82 303 L82 303 Z M100 305 C100 518 273 692 459 692 C612 692 723 558 723 395 C723 182 548 8 363 8 C210 8 100 141 100 305 L100 305 Z M268 173 C267 169 270 166 273 166 L277 166 C281 166 284 169 285 173 L304 310 L430 310 L483 169 C484 166 486 164 489 166 L496 169 C500 171 499 173 498 176 L447 311 C506 319 562 361 562 443 C562 506 514 539 460 539 L325 539 C322 539 319 536 319 532 L268 173 Z M306 326 L334 522 L457 522 C503 522 545 496 545 440 C545 362 482 326 430 326 L306 326 Z " />
<glyph glyph-name="macron" unicode="&#xaf;" horiz-adv-x="373" d="M43 607 L302 607 C306 607 308 610 309 614 L310 618 C311 622 308 625 304 625 L46 625 C42 625 39 622 38 618 L37 614 C36 610 38 607 43 607 L43 607 Z " />
<glyph glyph-name="degree" unicode="&#xb0;" horiz-adv-x="367" d="M202 427 C277 427 350 501 350 590 C350 658 302 710 241 710 C162 710 93 634 93 546 C93 478 141 427 202 427 L202 427 Z M204 445 C148 445 111 489 111 548 C111 625 170 692 239 692 C294 692 331 647 331 588 C331 510 270 445 204 445 L204 445 Z " />
<glyph glyph-name="plusminus" unicode="&#xb1;" horiz-adv-x="600" d="M291 218 L297 218 C300 218 303 221 304 225 L326 381 L492 381 C495 381 498 384 499 388 L500 392 C501 396 497 399 494 399 L328 399 L354 584 C355 588 352 591 349 591 L343 591 C340 591 337 588 336 584 L310 399 L144 399 C140 399 138 396 137 392 L136 388 C135 384 138 381 142 381 L308 381 L286 225 C285 221 288 218 291 218 L291 218 Z M102 85 L452 85 C456 85 459 88 460 92 L460 96 C461 100 458 103 454 103 L104 103 C101 103 98 100 97 96 L97 92 C96 88 99 85 102 85 L102 85 Z " />
<glyph glyph-name="twosuperior" unicode="&#xb2;" horiz-adv-x="267" d="M74 504 L246 504 C249 504 252 507 253 511 L254 515 C255 519 252 522 249 522 L102 522 L215 615 C254 647 285 680 285 730 C285 774 255 810 204 810 C144 810 117 765 117 765 C113 760 116 757 117 756 L122 752 C125 750 128 751 130 755 C130 755 153 792 201 792 C245 792 268 762 268 729 C268 686 234 652 204 628 L71 517 C66 513 67 504 74 504 L74 504 Z " />
<glyph glyph-name="threesuperior" unicode="&#xb3;" horiz-adv-x="286" d="M167 494 C224 496 284 531 284 590 C284 619 266 644 239 656 C274 670 296 707 296 742 C296 785 263 810 217 810 C153 810 120 768 120 768 C117 765 115 763 120 758 L123 755 C125 753 129 754 130 756 C130 756 161 792 214 792 C254 792 278 772 278 740 C278 696 240 664 202 664 L143 664 C140 664 138 661 137 657 L136 653 C135 649 138 646 141 646 L200 646 C243 646 265 620 265 589 C265 538 209 512 171 512 C118 512 99 540 91 549 C88 552 85 552 82 549 L79 546 C75 542 75 539 77 536 C87 525 115 494 167 494 L167 494 Z " />
<glyph glyph-name="acute" unicode="&#xb4;" horiz-adv-x="272" d="M95 559 L271 649 C275 651 277 654 275 658 L272 663 C269 668 267 667 264 666 L88 575 C84 573 83 570 84 568 L87 562 C89 558 90 557 95 559 L95 559 Z " />
<glyph glyph-name="mu" unicode="&#xb5;" horiz-adv-x="507" d="M223 7 C129 7 93 69 111 201 L146 454 C147 459 145 462 140 462 L136 462 C131 462 129 460 128 455 L31 -230 C30 -235 32 -238 38 -238 L42 -238 C47 -238 49 -235 50 -230 L93 79 C108 19 151 -11 223 -11 C301 -11 349 37 377 69 L369 8 C368 3 371 0 374 0 L379 0 C383 0 386 3 387 8 L450 454 C451 459 448 462 444 462 L439 462 C434 462 432 459 431 454 L381 101 C374 90 320 7 223 7 L223 7 Z " />
<glyph glyph-name="paragraph" unicode="&#xb6;" horiz-adv-x="648" d="M227 274 C230 274 233 276 234 280 C236 286 236 290 232 290 C146 290 86 365 86 460 C86 581 174 682 276 682 L353 682 L225 -231 C225 -237 229 -238 235 -238 C239 -238 242 -235 243 -231 L370 682 L542 682 L415 -231 C414 -237 420 -238 425 -238 C429 -238 432 -235 433 -231 L560 682 L650 682 C653 682 657 685 657 689 L658 693 C658 697 656 700 652 700 L279 700 C156 700 67 590 67 459 C67 356 135 274 227 274 L227 274 Z " />
<glyph glyph-name="periodcentered" unicode="&#xb7;" horiz-adv-x="200" d="M93 238 C108 238 119 251 119 265 C119 276 112 285 100 285 C87 285 74 274 74 259 C74 248 82 238 93 238 L93 238 Z " />
<glyph glyph-name="cedilla" unicode="&#xb8;" horiz-adv-x="247" d="M142 3 L75 -87 C72 -91 76 -101 82 -98 C97 -92 112 -89 131 -89 C165 -89 190 -105 190 -141 C190 -189 149 -217 108 -217 C78 -217 60 -205 47 -188 C45 -185 41 -184 38 -187 L34 -191 C30 -195 30 -198 33 -201 C47 -219 72 -235 109 -235 C167 -235 209 -194 209 -140 C209 -91 170 -71 133 -71 C121 -71 112 -73 103 -76 L164 3 L142 3 Z " />
<glyph glyph-name="onesuperior" unicode="&#xb9;" horiz-adv-x="160" d="M126 504 L129 504 C133 504 137 507 137 511 L177 798 C178 804 173 808 168 804 L95 751 C90 748 91 746 92 744 L96 739 C98 737 100 735 104 738 L158 777 L120 511 C120 507 122 504 126 504 L126 504 Z " />
<glyph glyph-name="ordmasculine" unicode="&#xba;" horiz-adv-x="343" d="M185 394 C261 394 321 471 321 590 C321 665 286 710 230 710 C153 710 96 633 96 511 C96 438 129 394 185 394 L185 394 Z M188 412 C139 412 113 449 113 512 C113 623 163 693 227 693 C276 693 303 656 303 591 C303 481 252 412 188 412 L188 412 Z " />
<glyph glyph-name="guillemotright" unicode="&#xbb;" horiz-adv-x="389" d="M179 64 L183 60 C186 57 189 59 192 62 L325 234 C327 237 327 239 326 242 L241 412 C239 415 236 415 233 414 L228 412 C224 410 223 407 225 404 L306 240 L178 72 C176 69 176 67 179 64 L179 64 Z M39 61 C42 58 45 59 48 62 L181 234 C183 237 183 239 182 242 L97 412 C95 415 92 415 89 414 L84 412 C80 410 79 407 81 404 L162 240 L34 73 C32 70 32 68 35 65 L39 61 Z " />
<glyph glyph-name="onequarter" unicode="&#xbc;" horiz-adv-x="589" d="M149 404 L152 404 C156 404 160 407 160 411 L200 698 C201 704 196 708 191 704 L118 651 C113 648 114 646 115 644 L119 639 C121 637 123 635 127 638 L181 677 L143 411 C143 407 145 404 149 404 L149 404 Z M36 4 L40 1 C42 -1 47 -1 49 2 L520 688 C524 693 521 695 520 696 L515 700 C512 702 509 702 507 699 L35 13 C33 10 33 6 36 4 L36 4 Z M261 79 C257 74 259 68 265 68 L438 68 L429 7 C428 3 430 0 434 0 L438 0 C441 0 444 3 445 7 L454 68 L499 68 C502 68 504 70 505 73 L506 78 C507 82 504 85 501 85 L456 85 L486 297 C487 304 481 306 475 302 L261 79 Z M289 85 L466 268 L440 85 L289 85 Z " />
<glyph glyph-name="onehalf" unicode="&#xbd;" horiz-adv-x="577" d="M149 404 L152 404 C156 404 160 407 160 411 L200 698 C201 704 196 708 191 704 L118 651 C113 648 114 646 115 644 L119 639 C121 637 123 635 127 638 L181 677 L143 411 C143 407 145 404 149 404 L149 404 Z M36 4 L40 1 C42 -1 47 -1 49 2 L520 688 C524 693 521 695 520 696 L515 700 C512 702 509 702 507 699 L35 13 C33 10 33 6 36 4 L36 4 Z M292 0 L464 0 C467 0 470 3 471 7 L472 11 C473 15 470 18 467 18 L320 18 L433 111 C472 143 503 176 503 226 C503 270 473 306 422 306 C362 306 335 261 335 261 C331 256 334 253 335 252 L340 248 C343 246 346 247 348 251 C348 251 371 288 419 288 C463 288 486 258 486 225 C486 182 452 148 422 124 L289 13 C284 9 285 0 292 0 L292 0 Z " />
<glyph glyph-name="threequarters" unicode="&#xbe;" horiz-adv-x="641" d="M87 13 C85 10 85 6 88 4 L92 1 C94 -1 99 -1 101 2 L572 688 C576 693 573 695 572 696 L567 700 C564 702 561 702 559 699 L87 13 Z M313 79 C309 74 311 68 317 68 L490 68 L481 7 C480 3 482 0 486 0 L490 0 C493 0 496 3 497 7 L506 68 L551 68 C554 68 556 70 557 73 L558 78 C559 82 556 85 553 85 L508 85 L538 297 C539 304 533 306 527 302 L313 79 Z M341 85 L518 268 L492 85 L341 85 Z M176 394 C233 396 293 431 293 490 C293 519 275 544 248 556 C283 570 305 607 305 642 C305 685 272 710 226 710 C162 710 129 668 129 668 C126 665 124 663 129 658 L132 655 C134 653 138 654 139 656 C139 656 170 692 223 692 C263 692 287 672 287 640 C287 596 249 564 211 564 L152 564 C149 564 147 561 146 557 L145 553 C144 549 147 546 150 546 L209 546 C252 546 274 520 274 489 C274 438 218 412 180 412 C127 412 108 440 100 449 C97 452 94 452 91 449 L88 446 C84 442 84 439 86 436 C96 425 124 394 176 394 L176 394 Z " />
<glyph glyph-name="questiondown" unicode="&#xbf;" horiz-adv-x="403" d="M228 425 C242 425 254 436 254 451 C254 462 246 472 235 472 C221 472 209 459 209 445 C209 434 217 425 228 425 L228 425 Z M111 62 C82 45 -17 -16 -17 -119 C-17 -192 36 -247 124 -247 C240 -247 304 -157 304 -157 C307 -153 306 -150 303 -148 L299 -145 C294 -142 291 -144 288 -148 C288 -148 229 -230 124 -230 C48 -230 0 -177 0 -118 C0 -25 89 30 118 47 C157 70 194 90 200 138 L209 198 C210 202 207 205 204 205 L199 205 C195 205 192 202 191 198 L183 140 C178 101 150 85 111 62 L111 62 Z " />
<glyph glyph-name="Agrave" unicode="&#xc0;" horiz-adv-x="587" d="M-9 1 L101 210 L470 210 L520 2 C521 -1 524 -2 527 -1 L532 1 C535 2 537 4 536 8 L364 717 C363 720 361 721 359 721 L358 721 C356 721 353 720 352 717 L-25 7 C-26 5 -26 2 -23 1 L-15 -2 C-11 -3 -10 -1 -9 1 L-9 1 Z M111 227 L354 688 C355 688 355 688 355 688 L465 227 L111 227 Z M449 779 C453 777 456 779 458 782 L460 786 C462 789 461 791 458 793 L308 884 C305 885 302 886 299 881 L297 878 C294 874 295 871 298 869 L449 779 Z " />
<glyph glyph-name="Aacute" unicode="&#xc1;" horiz-adv-x="587" d="M-9 1 L101 210 L470 210 L520 2 C521 -1 524 -2 527 -1 L532 1 C535 2 537 4 536 8 L364 717 C363 720 361 721 359 721 L358 721 C356 721 353 720 352 717 L-25 7 C-26 5 -26 2 -23 1 L-15 -2 C-11 -3 -10 -1 -9 1 L-9 1 Z M111 227 L354 688 C355 688 355 688 355 688 L465 227 L111 227 Z M290 777 L466 867 C470 869 472 872 470 876 L467 881 C464 886 462 885 459 884 L283 793 C279 791 278 788 279 786 L282 780 C284 776 285 775 290 777 L290 777 Z " />
<glyph glyph-name="Acircumflex" unicode="&#xc2;" horiz-adv-x="587" d="M-9 1 L101 210 L470 210 L520 2 C521 -1 524 -2 527 -1 L532 1 C535 2 537 4 536 8 L364 717 C363 720 361 721 359 721 L358 721 C356 721 353 720 352 717 L-25 7 C-26 5 -26 2 -23 1 L-15 -2 C-11 -3 -10 -1 -9 1 L-9 1 Z M111 227 L354 688 C355 688 355 688 355 688 L465 227 L111 227 Z M253 763 L379 865 L475 764 C479 761 481 764 482 765 L486 769 C489 772 488 774 485 777 L384 883 C382 885 379 885 376 883 L249 781 C242 775 240 775 243 769 L246 764 C247 763 248 760 253 763 L253 763 Z " />
<glyph glyph-name="Atilde" unicode="&#xc3;" horiz-adv-x="587" d="M-9 1 L101 210 L470 210 L520 2 C521 -1 524 -2 527 -1 L532 1 C535 2 537 4 536 8 L364 717 C363 720 361 721 359 721 L358 721 C356 721 353 720 352 717 L-25 7 C-26 5 -26 2 -23 1 L-15 -2 C-11 -3 -10 -1 -9 1 L-9 1 Z M111 227 L354 688 C355 688 355 688 355 688 L465 227 L111 227 Z M250 802 C252 801 255 802 257 807 C263 822 289 880 328 880 C381 880 353 772 422 772 C476 772 503 838 511 856 C514 861 512 864 508 865 L501 867 C498 868 496 866 494 861 C486 841 465 789 424 789 C368 789 401 897 330 897 C277 897 248 832 240 813 C238 808 239 805 243 804 L250 802 Z " />
<glyph glyph-name="Adieresis" unicode="&#xc4;" horiz-adv-x="587" d="M-9 1 L101 210 L470 210 L520 2 C521 -1 524 -2 527 -1 L532 1 C535 2 537 4 536 8 L364 717 C363 720 361 721 359 721 L358 721 C356 721 353 720 352 717 L-25 7 C-26 5 -26 2 -23 1 L-15 -2 C-11 -3 -10 -1 -9 1 L-9 1 Z M111 227 L354 688 C355 688 355 688 355 688 L465 227 L111 227 Z M466 808 C478 808 490 818 490 833 C490 845 484 853 472 853 C459 853 447 843 447 827 C447 816 454 808 466 808 L466 808 Z M279 808 C292 808 304 818 304 833 C304 845 297 853 285 853 C273 853 260 843 260 827 C260 816 267 808 279 808 L279 808 Z " />
<glyph glyph-name="Aring" unicode="&#xc5;" horiz-adv-x="587" d="M-9 1 L101 210 L470 210 L520 2 C521 -1 524 -2 527 -1 L532 1 C535 2 537 4 536 8 L364 717 C363 720 361 721 359 721 L358 721 C356 721 353 720 352 717 L-25 7 C-26 5 -26 2 -23 1 L-15 -2 C-11 -3 -10 -1 -9 1 L-9 1 Z M111 227 L354 688 C355 688 355 688 355 688 L465 227 L111 227 Z M365 750 C422 750 474 802 474 868 C474 918 441 958 394 958 C336 958 284 905 284 839 C284 789 317 750 365 750 L365 750 Z M367 767 C323 767 302 801 302 843 C302 896 345 941 392 941 C433 941 457 906 457 865 C457 811 413 767 367 767 L367 767 Z " />
<glyph glyph-name="AE" unicode="&#xc6;" horiz-adv-x="840" d="M-24 0 L128 210 L391 210 L363 7 C362 3 365 0 369 0 L734 0 C737 0 740 3 741 7 L742 11 C743 15 740 18 736 18 L381 18 L429 355 L740 355 C746 355 749 360 749 367 C749 371 746 373 743 373 L431 373 L475 682 L830 682 C833 682 836 685 837 689 L838 693 C839 697 836 700 832 700 L468 700 C465 700 462 699 461 697 L-38 10 C-42 5 -40 4 -37 2 L-32 -1 C-29 -3 -26 -3 -24 0 L-24 0 Z M140 227 L455 661 L394 227 L140 227 Z " />
<glyph glyph-name="Ccedilla" unicode="&#xc7;" horiz-adv-x="667" d="M69 301 C69 133 176 -2 334 -9 L277 -87 C274 -91 278 -101 284 -98 C299 -92 314 -89 333 -89 C367 -89 392 -105 392 -141 C392 -189 351 -217 310 -217 C280 -217 262 -205 249 -188 C247 -185 243 -184 240 -187 L236 -191 C232 -195 232 -198 235 -201 C249 -219 274 -235 311 -235 C369 -235 411 -194 411 -140 C411 -91 372 -71 335 -71 C323 -71 314 -73 305 -76 L356 -10 C433 -7 513 24 583 88 C585 90 586 93 584 95 L579 101 C577 103 574 103 572 101 C503 40 428 8 349 8 C200 8 87 137 87 301 C87 516 260 693 448 693 C534 693 593 660 643 604 C645 602 648 601 651 604 L656 609 C659 612 658 615 656 617 C603 674 542 710 448 710 C252 710 69 527 69 301 L69 301 Z " />
<glyph glyph-name="Egrave" unicode="&#xc8;" horiz-adv-x="547" d="M69 7 C69 3 71 0 75 0 L441 0 C445 0 448 3 449 7 L450 11 C451 15 450 18 443 18 L89 18 L136 355 L448 355 C451 355 454 358 455 362 L456 366 C457 370 454 373 450 373 L139 373 L182 682 L537 682 C541 682 543 685 544 689 L545 693 C546 697 543 700 539 700 L173 700 C170 700 166 697 166 693 L69 7 Z M445 779 C449 777 452 779 454 782 L456 786 C458 789 457 791 454 793 L304 884 C301 885 298 886 295 881 L293 878 C290 874 291 871 294 869 L445 779 Z " />
<glyph glyph-name="Eacute" unicode="&#xc9;" horiz-adv-x="547" d="M69 7 C69 3 71 0 75 0 L441 0 C445 0 448 3 449 7 L450 11 C451 15 450 18 443 18 L89 18 L136 355 L448 355 C451 355 454 358 455 362 L456 366 C457 370 454 373 450 373 L139 373 L182 682 L537 682 C541 682 543 685 544 689 L545 693 C546 697 543 700 539 700 L173 700 C170 700 166 697 166 693 L69 7 Z M287 777 L463 867 C467 869 469 872 467 876 L464 881 C461 886 459 885 456 884 L280 793 C276 791 275 788 276 786 L279 780 C281 776 282 775 287 777 L287 777 Z " />
<glyph glyph-name="Ecircumflex" unicode="&#xca;" horiz-adv-x="547" d="M69 7 C69 3 71 0 75 0 L441 0 C445 0 448 3 449 7 L450 11 C451 15 450 18 443 18 L89 18 L136 355 L448 355 C451 355 454 358 455 362 L456 366 C457 370 454 373 450 373 L139 373 L182 682 L537 682 C541 682 543 685 544 689 L545 693 C546 697 543 700 539 700 L173 700 C170 700 166 697 166 693 L69 7 Z M238 763 L364 865 L460 764 C464 761 466 764 467 765 L471 769 C474 772 473 774 470 777 L369 883 C367 885 364 885 361 883 L234 781 C227 775 225 775 228 769 L231 764 C232 763 233 760 238 763 L238 763 Z " />
<glyph glyph-name="Edieresis" unicode="&#xcb;" horiz-adv-x="547" d="M69 7 C69 3 71 0 75 0 L441 0 C445 0 448 3 449 7 L450 11 C451 15 450 18 443 18 L89 18 L136 355 L448 355 C451 355 454 358 455 362 L456 366 C457 370 454 373 450 373 L139 373 L182 682 L537 682 C541 682 543 685 544 689 L545 693 C546 697 543 700 539 700 L173 700 C170 700 166 697 166 693 L69 7 Z M448 808 C460 808 472 818 472 833 C472 845 466 853 454 853 C441 853 429 843 429 827 C429 816 436 808 448 808 L448 808 Z M261 808 C274 808 286 818 286 833 C286 845 279 853 267 853 C255 853 242 843 242 827 C242 816 249 808 261 808 L261 808 Z " />
<glyph glyph-name="Igrave" unicode="&#xcc;" horiz-adv-x="234" d="M69 7 C68 3 71 0 75 0 L79 0 C83 0 86 3 87 7 L183 693 C184 697 181 700 177 700 L173 700 C169 700 166 697 165 693 L69 7 Z M266 779 C270 777 273 779 275 782 L277 786 C279 789 278 791 275 793 L125 884 C122 885 119 886 116 881 L114 878 C111 874 112 871 115 869 L266 779 Z " />
<glyph glyph-name="Iacute" unicode="&#xcd;" horiz-adv-x="234" d="M69 7 C68 3 71 0 75 0 L79 0 C83 0 86 3 87 7 L183 693 C184 697 181 700 177 700 L173 700 C169 700 166 697 165 693 L69 7 Z M109 777 L285 867 C289 869 291 872 289 876 L286 881 C283 886 281 885 278 884 L102 793 C98 791 97 788 98 786 L101 780 C103 776 104 775 109 777 L109 777 Z " />
<glyph glyph-name="Icircumflex" unicode="&#xce;" horiz-adv-x="234" d="M69 7 C68 3 71 0 75 0 L79 0 C83 0 86 3 87 7 L183 693 C184 697 181 700 177 700 L173 700 C169 700 166 697 165 693 L69 7 Z M72 763 L198 865 L294 764 C298 761 300 764 301 765 L305 769 C308 772 307 774 304 777 L203 883 C201 885 198 885 195 883 L68 781 C61 775 59 775 62 769 L65 764 C66 763 67 760 72 763 L72 763 Z " />
<glyph glyph-name="Idieresis" unicode="&#xcf;" horiz-adv-x="234" d="M69 7 C68 3 71 0 75 0 L79 0 C83 0 86 3 87 7 L183 693 C184 697 181 700 177 700 L173 700 C169 700 166 697 165 693 L69 7 Z M286 808 C298 808 310 818 310 833 C310 845 304 853 292 853 C279 853 267 843 267 827 C267 816 274 808 286 808 L286 808 Z M99 808 C112 808 124 818 124 833 C124 845 117 853 105 853 C93 853 80 843 80 827 C80 816 87 808 99 808 L99 808 Z " />
<glyph glyph-name="Eth" unicode="&#xd0;" horiz-adv-x="696" d="M69 7 C69 3 71 0 75 0 L273 0 C464 0 644 178 644 396 C644 564 529 700 371 700 L173 700 C169 700 166 697 166 693 L119 358 L83 358 C79 358 76 355 75 351 L75 347 C74 343 77 340 80 340 L116 340 L69 7 Z M89 18 L134 340 L392 340 C396 340 399 343 399 347 L400 351 C401 355 398 358 394 358 L136 358 L182 682 L368 682 C518 682 625 553 625 394 C625 187 456 18 275 18 L89 18 Z " />
<glyph glyph-name="Ntilde" unicode="&#xd1;" horiz-adv-x="710" d="M69 7 C68 3 71 0 75 0 L79 0 C83 0 86 3 87 7 L181 676 L548 -12 C551 -18 560 -15 561 -8 L660 693 C661 697 658 700 654 700 L650 700 C646 700 643 697 642 693 L548 26 C548 26 548 25 181 714 C178 720 169 717 168 710 L69 7 Z M306 802 C308 801 311 802 313 807 C319 822 345 880 384 880 C437 880 409 772 478 772 C532 772 559 838 567 856 C570 861 568 864 564 865 L557 867 C554 868 552 866 550 861 C542 841 521 789 480 789 C424 789 457 897 386 897 C333 897 304 832 296 813 C294 808 295 805 299 804 L306 802 Z " />
<glyph glyph-name="Ograve" unicode="&#xd2;" horiz-adv-x="780" d="M70 302 C70 130 185 -10 349 -10 C547 -10 729 171 729 397 C729 571 613 710 450 710 C251 710 70 529 70 302 L70 302 Z M88 303 C88 518 261 692 449 692 C601 692 711 561 711 396 C711 181 537 8 349 8 C198 8 88 139 88 303 L88 303 Z M542 779 C546 777 549 779 551 782 L553 786 C555 789 554 791 551 793 L401 884 C398 885 395 886 392 881 L390 878 C387 874 388 871 391 869 L542 779 Z " />
<glyph glyph-name="Oacute" unicode="&#xd3;" horiz-adv-x="780" d="M70 302 C70 130 185 -10 349 -10 C547 -10 729 171 729 397 C729 571 613 710 450 710 C251 710 70 529 70 302 L70 302 Z M88 303 C88 518 261 692 449 692 C601 692 711 561 711 396 C711 181 537 8 349 8 C198 8 88 139 88 303 L88 303 Z M385 777 L561 867 C565 869 567 872 565 876 L562 881 C559 886 557 885 554 884 L378 793 C374 791 373 788 374 786 L377 780 C379 776 380 775 385 777 L385 777 Z " />
<glyph glyph-name="Ocircumflex" unicode="&#xd4;" horiz-adv-x="780" d="M70 302 C70 130 185 -10 349 -10 C547 -10 729 171 729 397 C729 571 613 710 450 710 C251 710 70 529 70 302 L70 302 Z M88 303 C88 518 261 692 449 692 C601 692 711 561 711 396 C711 181 537 8 349 8 C198 8 88 139 88 303 L88 303 Z M348 763 L474 865 L570 764 C574 761 576 764 577 765 L581 769 C584 772 583 774 580 777 L479 883 C477 885 474 885 471 883 L344 781 C337 775 335 775 338 769 L341 764 C342 763 343 760 348 763 L348 763 Z " />
<glyph glyph-name="Otilde" unicode="&#xd5;" horiz-adv-x="780" d="M70 302 C70 130 185 -10 349 -10 C547 -10 729 171 729 397 C729 571 613 710 450 710 C251 710 70 529 70 302 L70 302 Z M88 303 C88 518 261 692 449 692 C601 692 711 561 711 396 C711 181 537 8 349 8 C198 8 88 139 88 303 L88 303 Z M345 802 C347 801 350 802 352 807 C358 822 384 880 423 880 C476 880 448 772 517 772 C571 772 598 838 606 856 C609 861 607 864 603 865 L596 867 C593 868 591 866 589 861 C581 841 560 789 519 789 C463 789 496 897 425 897 C372 897 343 832 335 813 C333 808 334 805 338 804 L345 802 Z " />
<glyph glyph-name="Odieresis" unicode="&#xd6;" horiz-adv-x="780" d="M70 302 C70 130 185 -10 349 -10 C547 -10 729 171 729 397 C729 571 613 710 450 710 C251 710 70 529 70 302 L70 302 Z M88 303 C88 518 261 692 449 692 C601 692 711 561 711 396 C711 181 537 8 349 8 C198 8 88 139 88 303 L88 303 Z M561 808 C573 808 585 818 585 833 C585 845 579 853 567 853 C554 853 542 843 542 827 C542 816 549 808 561 808 L561 808 Z M374 808 C387 808 399 818 399 833 C399 845 392 853 380 853 C368 853 355 843 355 827 C355 816 362 808 374 808 L374 808 Z " />
<glyph glyph-name="multiply" unicode="&#xd7;" horiz-adv-x="600" d="M160 203 C162 200 165 200 168 203 L307 335 L406 205 C408 202 411 201 414 204 L418 208 C420 210 421 213 418 216 L320 347 L456 478 C460 481 459 485 457 488 L454 492 C452 495 448 495 445 492 L308 361 L209 492 C207 495 203 494 200 492 L197 490 C194 488 194 483 196 480 L296 349 L158 216 C155 214 155 209 157 207 L160 203 Z " />
<glyph glyph-name="Oslash" unicode="&#xd8;" horiz-adv-x="781" d="M52 34 L55 31 C58 28 60 29 63 31 L132 94 C182 28 260 -10 351 -10 C550 -10 729 171 729 396 C729 466 707 541 673 593 L744 658 C747 661 747 664 745 668 L743 671 C741 675 737 674 734 671 L663 606 C614 671 536 710 447 710 C248 710 70 527 70 301 C70 232 90 159 123 108 L54 44 C51 41 49 37 52 34 L52 34 Z M136 120 C105 167 88 237 88 301 C88 518 259 692 447 692 C531 692 602 655 650 594 L136 120 Z M147 107 L660 581 C692 533 711 461 711 395 C711 180 539 8 351 8 C265 8 193 44 147 107 L147 107 Z " />
<glyph glyph-name="Ugrave" unicode="&#xd9;" horiz-adv-x="667" d="M96 252 C94 235 92 217 92 201 C92 74 167 -10 291 -10 C445 -10 540 98 562 252 L624 693 C625 697 622 700 619 700 L614 700 C610 700 607 697 606 693 L544 252 C524 108 426 8 294 8 C177 8 110 85 110 202 C110 218 111 235 114 252 L175 693 C176 697 174 700 170 700 L165 700 C162 700 159 697 158 693 L96 252 Z M482 779 C486 777 489 779 491 782 L493 786 C495 789 494 791 491 793 L341 884 C338 885 335 886 332 881 L330 878 C327 874 328 871 331 869 L482 779 Z " />
<glyph glyph-name="Uacute" unicode="&#xda;" horiz-adv-x="667" d="M96 252 C94 235 92 217 92 201 C92 74 167 -10 291 -10 C445 -10 540 98 562 252 L624 693 C625 697 622 700 619 700 L614 700 C610 700 607 697 606 693 L544 252 C524 108 426 8 294 8 C177 8 110 85 110 202 C110 218 111 235 114 252 L175 693 C176 697 174 700 170 700 L165 700 C162 700 159 697 158 693 L96 252 Z M327 777 L503 867 C507 869 509 872 507 876 L504 881 C501 886 499 885 496 884 L320 793 C316 791 315 788 316 786 L319 780 C321 776 322 775 327 777 L327 777 Z " />
<glyph glyph-name="Ucircumflex" unicode="&#xdb;" horiz-adv-x="667" d="M96 252 C94 235 92 217 92 201 C92 74 167 -10 291 -10 C445 -10 540 98 562 252 L624 693 C625 697 622 700 619 700 L614 700 C610 700 607 697 606 693 L544 252 C524 108 426 8 294 8 C177 8 110 85 110 202 C110 218 111 235 114 252 L175 693 C176 697 174 700 170 700 L165 700 C162 700 159 697 158 693 L96 252 Z M291 763 L417 865 L513 764 C517 761 519 764 520 765 L524 769 C527 772 526 774 523 777 L422 883 C420 885 417 885 414 883 L287 781 C280 775 278 775 281 769 L284 764 C285 763 286 760 291 763 L291 763 Z " />
<glyph glyph-name="Udieresis" unicode="&#xdc;" horiz-adv-x="667" d="M96 252 C94 235 92 217 92 201 C92 74 167 -10 291 -10 C445 -10 540 98 562 252 L624 693 C625 697 622 700 619 700 L614 700 C610 700 607 697 606 693 L544 252 C524 108 426 8 294 8 C177 8 110 85 110 202 C110 218 111 235 114 252 L175 693 C176 697 174 700 170 700 L165 700 C162 700 159 697 158 693 L96 252 Z M503 808 C515 808 527 818 527 833 C527 845 521 853 509 853 C496 853 484 843 484 827 C484 816 491 808 503 808 L503 808 Z M316 808 C329 808 341 818 341 833 C341 845 334 853 322 853 C310 853 297 843 297 827 C297 816 304 808 316 808 L316 808 Z " />
<glyph glyph-name="Yacute" unicode="&#xdd;" horiz-adv-x="509" d="M204 7 C203 2 205 0 209 0 L215 0 C219 0 221 2 222 6 L269 344 L555 688 C558 691 559 695 555 697 L548 701 C545 703 542 701 540 698 L261 360 L79 697 C77 700 75 702 71 700 L65 697 C61 695 61 691 63 688 L251 343 L204 7 Z M244 777 L420 867 C424 869 426 872 424 876 L421 881 C418 886 416 885 413 884 L237 793 C233 791 232 788 233 786 L236 780 C238 776 239 775 244 777 L244 777 Z " />
<glyph glyph-name="Thorn" unicode="&#xde;" horiz-adv-x="556" d="M69 7 C68 3 71 0 75 0 L79 0 C83 0 87 3 87 7 L104 124 L281 124 C413 124 521 240 521 382 C521 489 447 579 344 578 L167 578 L184 693 C185 697 182 700 178 700 L173 700 C170 700 166 697 166 693 L69 7 Z M106 141 L165 561 L341 561 C435 562 503 479 503 380 C503 249 396 141 283 141 L106 141 Z " />
<glyph glyph-name="germandbls" unicode="&#xdf;" horiz-adv-x="573" d="M318 -11 C424 -11 503 39 503 146 C503 236 379 298 379 345 C379 395 504 450 504 559 C504 660 414 710 342 710 C194 710 131 592 113 461 L19 -229 C18 -234 20 -238 25 -238 L30 -238 C34 -238 37 -234 37 -229 L132 461 C148 579 211 692 341 692 C404 692 486 650 486 556 C486 459 361 406 361 345 C361 286 485 231 485 145 C485 45 406 7 320 7 C268 7 240 22 230 29 C226 32 222 33 219 28 L216 24 C213 19 216 16 219 14 C232 6 267 -11 318 -11 L318 -11 Z " />
<glyph glyph-name="agrave" unicode="&#xe0;" horiz-adv-x="520" d="M50 195 C50 80 114 -11 220 -11 C294 -11 359 36 382 67 L374 8 C373 3 375 0 379 0 L384 0 C388 0 391 3 392 8 L454 454 C455 459 452 462 449 462 L444 462 C441 462 439 459 438 454 L430 412 C409 436 363 472 288 472 C156 472 50 351 50 195 L50 195 Z M68 196 C68 342 166 454 288 454 C380 454 422 393 426 385 L386 101 C360 58 294 7 220 7 C127 7 68 91 68 196 L68 196 Z M358 560 C362 558 365 560 367 563 L369 567 C371 570 370 572 367 574 L217 665 C214 666 211 667 208 662 L206 659 C203 655 204 652 207 650 L358 560 Z " />
<glyph glyph-name="aacute" unicode="&#xe1;" horiz-adv-x="520" d="M50 195 C50 80 114 -11 220 -11 C294 -11 359 36 382 67 L374 8 C373 3 375 0 379 0 L384 0 C388 0 391 3 392 8 L454 454 C455 459 452 462 449 462 L444 462 C441 462 439 459 438 454 L430 412 C409 436 363 472 288 472 C156 472 50 351 50 195 L50 195 Z M68 196 C68 342 166 454 288 454 C380 454 422 393 426 385 L386 101 C360 58 294 7 220 7 C127 7 68 91 68 196 L68 196 Z M241 559 L417 649 C421 651 423 654 421 658 L418 663 C415 668 413 667 410 666 L234 575 C230 573 229 570 230 568 L233 562 C235 558 236 557 241 559 L241 559 Z " />
<glyph glyph-name="acircumflex" unicode="&#xe2;" horiz-adv-x="520" d="M50 195 C50 80 114 -11 220 -11 C294 -11 359 36 382 67 L374 8 C373 3 375 0 379 0 L384 0 C388 0 391 3 392 8 L454 454 C455 459 452 462 449 462 L444 462 C441 462 439 459 438 454 L430 412 C409 436 363 472 288 472 C156 472 50 351 50 195 L50 195 Z M68 196 C68 342 166 454 288 454 C380 454 422 393 426 385 L386 101 C360 58 294 7 220 7 C127 7 68 91 68 196 L68 196 Z M199 548 L325 650 L421 549 C425 546 427 549 428 550 L432 554 C435 557 434 559 431 562 L330 668 C328 670 325 670 322 668 L195 566 C188 560 186 560 189 554 L192 549 C193 548 194 545 199 548 L199 548 Z " />
<glyph glyph-name="atilde" unicode="&#xe3;" horiz-adv-x="520" d="M50 195 C50 80 114 -11 220 -11 C294 -11 359 36 382 67 L374 8 C373 3 375 0 379 0 L384 0 C388 0 391 3 392 8 L454 454 C455 459 452 462 449 462 L444 462 C441 462 439 459 438 454 L430 412 C409 436 363 472 288 472 C156 472 50 351 50 195 L50 195 Z M68 196 C68 342 166 454 288 454 C380 454 422 393 426 385 L386 101 C360 58 294 7 220 7 C127 7 68 91 68 196 L68 196 Z M191 583 C193 582 196 583 198 588 C204 603 230 661 269 661 C322 661 294 553 363 553 C417 553 444 619 452 637 C455 642 453 645 449 646 L442 648 C439 649 437 647 435 642 C427 622 406 570 365 570 C309 570 342 678 271 678 C218 678 189 613 181 594 C179 589 180 586 184 585 L191 583 Z " />
<glyph glyph-name="adieresis" unicode="&#xe4;" horiz-adv-x="520" d="M50 195 C50 80 114 -11 220 -11 C294 -11 359 36 382 67 L374 8 C373 3 375 0 379 0 L384 0 C388 0 391 3 392 8 L454 454 C455 459 452 462 449 462 L444 462 C441 462 439 459 438 454 L430 412 C409 436 363 472 288 472 C156 472 50 351 50 195 L50 195 Z M68 196 C68 342 166 454 288 454 C380 454 422 393 426 385 L386 101 C360 58 294 7 220 7 C127 7 68 91 68 196 L68 196 Z M411 605 C424 605 436 615 436 630 C436 642 429 650 417 650 C405 650 393 637 393 624 C393 613 399 605 411 605 L411 605 Z M241 605 C256 605 265 615 265 630 C265 642 259 650 247 650 C235 650 222 640 222 624 C222 613 229 605 241 605 L241 605 Z " />
<glyph glyph-name="aring" unicode="&#xe5;" horiz-adv-x="520" d="M50 195 C50 80 114 -11 220 -11 C294 -11 359 36 382 67 L374 8 C373 3 375 0 379 0 L384 0 C388 0 391 3 392 8 L454 454 C455 459 452 462 449 462 L444 462 C441 462 439 459 438 454 L430 412 C409 436 363 472 288 472 C156 472 50 351 50 195 L50 195 Z M68 196 C68 342 166 454 288 454 C380 454 422 393 426 385 L386 101 C360 58 294 7 220 7 C127 7 68 91 68 196 L68 196 Z M306 510 C363 510 415 562 415 628 C415 678 382 718 335 718 C277 718 225 665 225 599 C225 549 258 510 306 510 L306 510 Z M308 527 C264 527 243 561 243 603 C243 656 286 701 333 701 C374 701 398 666 398 625 C398 571 354 527 308 527 L308 527 Z " />
<glyph glyph-name="ae" unicode="&#xe6;" horiz-adv-x="753" d="M370 236 C375 281 383 338 382 374 C419 423 487 454 550 454 C638 454 693 406 693 346 C693 271 602 227 471 228 C434 228 395 231 370 236 L370 236 Z M46 124 C46 218 125 284 232 284 C289 284 339 260 354 255 L329 81 C302 52 229 7 154 7 C80 7 46 54 46 124 L46 124 Z M367 218 C393 214 433 210 471 210 C614 209 711 261 711 346 C711 416 649 472 551 472 C488 472 423 446 380 400 C371 449 336 472 267 472 C182 472 123 433 123 433 C121 432 117 429 119 424 L122 418 C124 414 126 414 130 416 C149 425 185 454 264 454 C369 454 373 395 356 275 C335 285 285 302 233 302 C113 302 28 228 28 122 C28 40 74 -11 155 -11 C229 -11 303 31 337 64 C363 23 420 -11 487 -11 C554 -11 614 21 637 40 C641 44 643 46 641 50 L637 56 C635 59 633 60 630 58 C602 37 554 7 489 7 C433 7 379 31 349 82 L367 218 Z " />
<glyph glyph-name="ccedilla" unicode="&#xe7;" horiz-adv-x="497" d="M49 199 C49 83 127 -5 227 -11 L162 -99 C159 -103 163 -113 169 -110 C184 -104 199 -101 218 -101 C252 -101 277 -117 277 -153 C277 -201 236 -229 195 -229 C165 -229 147 -217 134 -200 C132 -197 128 -196 125 -199 L121 -203 C117 -207 117 -210 120 -213 C134 -231 159 -247 196 -247 C254 -247 296 -206 296 -152 C296 -103 257 -83 220 -83 C208 -83 199 -85 190 -88 L249 -10 C344 -5 415 67 417 69 C420 72 419 77 417 79 L412 84 C410 86 407 86 404 83 C400 80 331 7 238 7 C145 7 67 91 67 199 C67 349 182 454 306 454 C390 454 433 404 441 397 C444 394 448 393 451 396 L456 401 C458 403 460 406 457 411 C453 415 403 472 306 472 C172 472 49 361 49 199 L49 199 Z " />
<glyph glyph-name="egrave" unicode="&#xe8;" horiz-adv-x="493" d="M49 189 C49 80 105 -11 225 -11 C289 -11 361 23 382 44 C384 46 384 49 383 51 L380 57 C379 59 377 63 371 58 C344 37 290 7 225 7 C124 7 67 85 67 191 C67 201 68 211 69 222 C114 215 156 212 196 212 C353 212 450 261 450 346 C450 416 388 472 290 472 C151 472 49 348 49 189 L49 189 Z M71 240 C88 360 175 454 290 454 C378 454 432 406 432 346 C432 271 341 230 195 230 C158 230 115 234 71 240 L71 240 Z M361 560 C365 558 368 560 370 563 L372 567 C374 570 373 572 370 574 L220 665 C217 666 214 667 211 662 L209 659 C206 655 207 652 210 650 L361 560 Z " />
<glyph glyph-name="eacute" unicode="&#xe9;" horiz-adv-x="493" d="M49 189 C49 80 105 -11 225 -11 C289 -11 361 23 382 44 C384 46 384 49 383 51 L380 57 C379 59 377 63 371 58 C344 37 290 7 225 7 C124 7 67 85 67 191 C67 201 68 211 69 222 C114 215 156 212 196 212 C353 212 450 261 450 346 C450 416 388 472 290 472 C151 472 49 348 49 189 L49 189 Z M71 240 C88 360 175 454 290 454 C378 454 432 406 432 346 C432 271 341 230 195 230 C158 230 115 234 71 240 L71 240 Z M244 559 L420 649 C424 651 426 654 424 658 L421 663 C418 668 416 667 413 666 L237 575 C233 573 232 570 233 568 L236 562 C238 558 239 557 244 559 L244 559 Z " />
<glyph glyph-name="ecircumflex" unicode="&#xea;" horiz-adv-x="493" d="M49 189 C49 80 105 -11 225 -11 C289 -11 361 23 382 44 C384 46 384 49 383 51 L380 57 C379 59 377 63 371 58 C344 37 290 7 225 7 C124 7 67 85 67 191 C67 201 68 211 69 222 C114 215 156 212 196 212 C353 212 450 261 450 346 C450 416 388 472 290 472 C151 472 49 348 49 189 L49 189 Z M71 240 C88 360 175 454 290 454 C378 454 432 406 432 346 C432 271 341 230 195 230 C158 230 115 234 71 240 L71 240 Z M188 548 L314 650 L410 549 C414 546 416 549 417 550 L421 554 C424 557 423 559 420 562 L319 668 C317 670 314 670 311 668 L184 566 C177 560 175 560 178 554 L181 549 C182 548 183 545 188 548 L188 548 Z " />
<glyph glyph-name="edieresis" unicode="&#xeb;" horiz-adv-x="493" d="M49 189 C49 80 105 -11 225 -11 C289 -11 361 23 382 44 C384 46 384 49 383 51 L380 57 C379 59 377 63 371 58 C344 37 290 7 225 7 C124 7 67 85 67 191 C67 201 68 211 69 222 C114 215 156 212 196 212 C353 212 450 261 450 346 C450 416 388 472 290 472 C151 472 49 348 49 189 L49 189 Z M71 240 C88 360 175 454 290 454 C378 454 432 406 432 346 C432 271 341 230 195 230 C158 230 115 234 71 240 L71 240 Z M393 605 C406 605 418 615 418 630 C418 642 411 650 399 650 C387 650 375 637 375 624 C375 613 381 605 393 605 L393 605 Z M223 605 C238 605 247 615 247 630 C247 642 241 650 229 650 C217 650 204 640 204 624 C204 613 211 605 223 605 L223 605 Z " />
<glyph glyph-name="igrave" unicode="&#xec;" horiz-adv-x="198" d="M57 0 L62 0 C67 0 68 3 69 8 L132 454 C133 459 130 462 126 462 L121 462 C116 462 114 459 113 454 L50 8 C49 3 51 0 57 0 L57 0 Z M196 560 C200 558 203 560 205 563 L207 567 C209 570 208 572 205 574 L55 665 C52 666 49 667 46 662 L44 659 C41 655 42 652 45 650 L196 560 Z " />
<glyph glyph-name="iacute" unicode="&#xed;" horiz-adv-x="198" d="M57 0 L62 0 C67 0 68 3 69 8 L132 454 C133 459 130 462 126 462 L121 462 C116 462 114 459 113 454 L50 8 C49 3 51 0 57 0 L57 0 Z M71 559 L247 649 C251 651 253 654 251 658 L248 663 C245 668 243 667 240 666 L64 575 C60 573 59 570 60 568 L63 562 C65 558 66 557 71 559 L71 559 Z " />
<glyph glyph-name="icircumflex" unicode="&#xee;" horiz-adv-x="198" d="M57 0 L62 0 C67 0 68 3 69 8 L132 454 C133 459 130 462 126 462 L121 462 C116 462 114 459 113 454 L50 8 C49 3 51 0 57 0 L57 0 Z M25 548 L151 650 L247 549 C251 546 253 549 254 550 L258 554 C261 557 260 559 257 562 L156 668 C154 670 151 670 148 668 L21 566 C14 560 12 560 15 554 L18 549 C19 548 20 545 25 548 L25 548 Z " />
<glyph glyph-name="idieresis" unicode="&#xef;" horiz-adv-x="198" d="M57 0 L62 0 C67 0 68 3 69 8 L132 454 C133 459 130 462 126 462 L121 462 C116 462 114 459 113 454 L50 8 C49 3 51 0 57 0 L57 0 Z M228 605 C241 605 253 615 253 630 C253 642 246 650 234 650 C222 650 210 637 210 624 C210 613 216 605 228 605 L228 605 Z M58 605 C73 605 82 615 82 630 C82 642 76 650 64 650 C52 650 39 640 39 624 C39 613 46 605 58 605 L58 605 Z " />
<glyph glyph-name="eth" unicode="&#xf0;" horiz-adv-x="555" d="M49 193 C49 77 127 -10 225 -10 C412 -10 490 201 490 353 C490 476 441 564 385 625 L447 661 C451 663 453 667 451 672 L450 675 C448 678 445 679 442 677 L374 637 C325 686 273 714 246 726 C243 727 239 727 237 723 L234 717 C231 713 233 711 236 709 C262 698 311 672 357 627 L227 551 C223 549 221 545 223 542 L224 539 C225 535 230 534 233 536 L369 615 C426 556 476 465 471 335 C448 379 391 456 286 456 C144 456 47 321 49 193 L49 193 Z M283 438 C420 438 465 308 469 299 L467 284 C446 129 358 8 228 8 C135 8 66 87 66 192 C66 321 157 435 283 438 L283 438 Z " />
<glyph glyph-name="ntilde" unicode="&#xf1;" horiz-adv-x="506" d="M50 8 C49 3 51 0 57 0 L61 0 C66 0 68 3 69 8 L119 359 C132 379 191 454 288 454 C383 454 419 389 400 258 L364 8 C363 3 365 0 370 0 L375 0 C379 0 382 3 383 8 L418 258 C439 399 396 472 288 472 C206 472 152 422 123 391 L131 454 C131 459 130 462 126 462 L121 462 C117 462 115 459 114 454 L50 8 Z M184 584 C186 583 189 584 191 589 C197 604 223 662 262 662 C315 662 287 554 356 554 C410 554 437 620 445 638 C448 643 446 646 442 647 L435 649 C432 650 430 648 428 643 C420 623 399 571 358 571 C302 571 335 679 264 679 C211 679 182 614 174 595 C172 590 173 587 177 586 L184 584 Z " />
<glyph glyph-name="ograve" unicode="&#xf2;" horiz-adv-x="537" d="M49 197 C49 81 120 -11 228 -11 C358 -11 473 112 473 266 C473 380 402 472 295 472 C165 472 49 350 49 197 L49 197 Z M67 197 C67 337 174 454 295 454 C391 454 455 371 455 266 C455 125 349 7 228 7 C134 7 67 91 67 197 L67 197 Z M366 560 C370 558 373 560 375 563 L377 567 C379 570 378 572 375 574 L225 665 C222 666 219 667 216 662 L214 659 C211 655 212 652 215 650 L366 560 Z " />
<glyph glyph-name="oacute" unicode="&#xf3;" horiz-adv-x="537" d="M49 197 C49 81 120 -11 228 -11 C358 -11 473 112 473 266 C473 380 402 472 295 472 C165 472 49 350 49 197 L49 197 Z M67 197 C67 337 174 454 295 454 C391 454 455 371 455 266 C455 125 349 7 228 7 C134 7 67 91 67 197 L67 197 Z M252 559 L428 649 C432 651 434 654 432 658 L429 663 C426 668 424 667 421 666 L245 575 C241 573 240 570 241 568 L244 562 C246 558 247 557 252 559 L252 559 Z " />
<glyph glyph-name="ocircumflex" unicode="&#xf4;" horiz-adv-x="537" d="M49 197 C49 81 120 -11 228 -11 C358 -11 473 112 473 266 C473 380 402 472 295 472 C165 472 49 350 49 197 L49 197 Z M67 197 C67 337 174 454 295 454 C391 454 455 371 455 266 C455 125 349 7 228 7 C134 7 67 91 67 197 L67 197 Z M198 548 L324 650 L420 549 C424 546 426 549 427 550 L431 554 C434 557 433 559 430 562 L329 668 C327 670 324 670 321 668 L194 566 C187 560 185 560 188 554 L191 549 C192 548 193 545 198 548 L198 548 Z " />
<glyph glyph-name="otilde" unicode="&#xf5;" horiz-adv-x="537" d="M49 197 C49 81 120 -11 228 -11 C358 -11 473 112 473 266 C473 380 402 472 295 472 C165 472 49 350 49 197 L49 197 Z M67 197 C67 337 174 454 295 454 C391 454 455 371 455 266 C455 125 349 7 228 7 C134 7 67 91 67 197 L67 197 Z M191 583 C193 582 196 583 198 588 C204 603 230 661 269 661 C322 661 294 553 363 553 C417 553 444 619 452 637 C455 642 453 645 449 646 L442 648 C439 649 437 647 435 642 C427 622 406 570 365 570 C309 570 342 678 271 678 C218 678 189 613 181 594 C179 589 180 586 184 585 L191 583 Z " />
<glyph glyph-name="odieresis" unicode="&#xf6;" horiz-adv-x="537" d="M49 197 C49 81 120 -11 228 -11 C358 -11 473 112 473 266 C473 380 402 472 295 472 C165 472 49 350 49 197 L49 197 Z M67 197 C67 337 174 454 295 454 C391 454 455 371 455 266 C455 125 349 7 228 7 C134 7 67 91 67 197 L67 197 Z M401 605 C414 605 426 615 426 630 C426 642 419 650 407 650 C395 650 383 637 383 624 C383 613 389 605 401 605 L401 605 Z M231 605 C246 605 255 615 255 630 C255 642 249 650 237 650 C225 650 212 640 212 624 C212 613 219 605 231 605 L231 605 Z " />
<glyph glyph-name="divide" unicode="&#xf7;" horiz-adv-x="600" d="M318 465 C331 465 341 476 343 489 C345 502 337 512 324 512 C313 512 302 502 300 489 C298 476 307 465 318 465 L318 465 Z M128 340 L479 340 C482 340 485 343 486 347 L487 351 C488 355 485 358 482 358 L131 358 C128 358 125 355 124 351 L123 347 C122 343 125 340 128 340 L128 340 Z M261 209 C259 196 268 185 279 185 C292 185 302 196 304 209 C306 222 298 232 285 232 C274 232 263 222 261 209 L261 209 Z " />
<glyph glyph-name="oslash" unicode="&#xf8;" horiz-adv-x="537" d="M49 197 C49 155 58 116 75 83 L49 61 C46 58 43 56 47 50 L49 47 C51 44 57 43 60 46 L85 68 C116 20 166 -11 228 -11 C358 -11 473 112 473 266 C473 307 464 345 447 377 L482 408 C485 413 485 416 483 420 L480 424 C478 427 473 426 470 424 L436 395 C405 442 356 472 295 472 C165 472 49 350 49 197 L49 197 Z M455 266 C455 125 349 7 228 7 C173 7 128 36 99 80 L433 366 C447 338 455 302 455 266 L455 266 Z M67 197 C67 337 174 454 295 454 C350 454 395 426 423 382 L90 95 C75 124 67 160 67 197 L67 197 Z " />
<glyph glyph-name="ugrave" unicode="&#xf9;" horiz-adv-x="496" d="M202 7 C108 7 70 69 90 201 L125 454 C126 459 124 462 119 462 L115 462 C110 462 108 460 107 455 L71 201 C51 61 91 -11 202 -11 C280 -11 328 37 356 69 L348 8 C347 3 350 0 353 0 L358 0 C362 0 365 3 366 8 L429 454 C430 459 427 462 423 462 L418 462 C413 462 411 459 410 454 L360 101 C353 90 299 7 202 7 L202 7 Z M377 560 C381 558 384 560 386 563 L388 567 C390 570 389 572 386 574 L236 665 C233 666 230 667 227 662 L225 659 C222 655 223 652 226 650 L377 560 Z " />
<glyph glyph-name="uacute" unicode="&#xfa;" horiz-adv-x="496" d="M202 7 C108 7 70 69 90 201 L125 454 C126 459 124 462 119 462 L115 462 C110 462 108 460 107 455 L71 201 C51 61 91 -11 202 -11 C280 -11 328 37 356 69 L348 8 C347 3 350 0 353 0 L358 0 C362 0 365 3 366 8 L429 454 C430 459 427 462 423 462 L418 462 C413 462 411 459 410 454 L360 101 C353 90 299 7 202 7 L202 7 Z M181 559 L357 649 C361 651 363 654 361 658 L358 663 C355 668 353 667 350 666 L174 575 C170 573 169 570 170 568 L173 562 C175 558 176 557 181 559 L181 559 Z " />
<glyph glyph-name="ucircumflex" unicode="&#xfb;" horiz-adv-x="496" d="M202 7 C108 7 70 69 90 201 L125 454 C126 459 124 462 119 462 L115 462 C110 462 108 460 107 455 L71 201 C51 61 91 -11 202 -11 C280 -11 328 37 356 69 L348 8 C347 3 350 0 353 0 L358 0 C362 0 365 3 366 8 L429 454 C430 459 427 462 423 462 L418 462 C413 462 411 459 410 454 L360 101 C353 90 299 7 202 7 L202 7 Z M165 548 L291 650 L387 549 C391 546 393 549 394 550 L398 554 C401 557 400 559 397 562 L296 668 C294 670 291 670 288 668 L161 566 C154 560 152 560 155 554 L158 549 C159 548 160 545 165 548 L165 548 Z " />
<glyph glyph-name="udieresis" unicode="&#xfc;" horiz-adv-x="496" d="M202 7 C108 7 70 69 90 201 L125 454 C126 459 124 462 119 462 L115 462 C110 462 108 460 107 455 L71 201 C51 61 91 -11 202 -11 C280 -11 328 37 356 69 L348 8 C347 3 350 0 353 0 L358 0 C362 0 365 3 366 8 L429 454 C430 459 427 462 423 462 L418 462 C413 462 411 459 410 454 L360 101 C353 90 299 7 202 7 L202 7 Z M375 605 C388 605 400 615 400 630 C400 642 393 650 381 650 C369 650 357 637 357 624 C357 613 363 605 375 605 L375 605 Z M205 605 C220 605 229 615 229 630 C229 642 223 650 211 650 C199 650 186 640 186 624 C186 613 193 605 205 605 L205 605 Z " />
<glyph glyph-name="yacute" unicode="&#xfd;" horiz-adv-x="440" d="M173 10 L44 -230 C41 -236 43 -238 46 -240 L50 -242 C54 -244 56 -244 59 -239 L434 457 C436 461 435 464 431 466 L426 468 C422 470 419 468 417 465 L185 30 L71 463 C70 466 67 468 63 467 L57 465 C54 464 53 461 54 457 L173 10 Z M194 559 L370 649 C374 651 376 654 374 658 L371 663 C368 668 366 667 363 666 L187 575 C183 573 182 570 183 568 L186 562 C188 558 189 557 194 559 L194 559 Z " />
<glyph glyph-name="thorn" unicode="&#xfe;" horiz-adv-x="522" d="M73 47 C93 24 133 -11 206 -11 C358 -11 456 106 456 265 C456 380 390 472 285 472 C207 472 151 434 125 408 L166 692 C166 697 162 700 158 700 L154 700 C150 700 148 697 147 692 L17 -229 C17 -234 18 -238 21 -238 L28 -238 C31 -238 36 -234 36 -229 L73 47 Z M78 73 L121 380 C129 390 188 454 281 454 C376 454 438 371 438 265 C438 119 344 7 208 7 C119 7 81 64 78 73 L78 73 Z " />
<glyph glyph-name="ydieresis" unicode="&#xff;" horiz-adv-x="440" d="M173 10 L44 -230 C41 -236 43 -238 46 -240 L50 -242 C54 -244 56 -244 59 -239 L434 457 C436 461 435 464 431 466 L426 468 C422 470 419 468 417 465 L185 30 L71 463 C70 466 67 468 63 467 L57 465 C54 464 53 461 54 457 L173 10 Z M352 605 C365 605 377 615 377 630 C377 642 370 650 358 650 C346 650 334 637 334 624 C334 613 340 605 352 605 L352 605 Z M182 605 C197 605 206 615 206 630 C206 642 200 650 188 650 C176 650 163 640 163 624 C163 613 170 605 182 605 L182 605 Z " />
<glyph glyph-name="Amacron" unicode="&#x100;" horiz-adv-x="587" d="M-9 1 L101 210 L470 210 L520 2 C521 -1 524 -2 527 -1 L532 1 C535 2 537 4 536 8 L364 717 C363 720 361 721 359 721 L358 721 C356 721 353 720 352 717 L-25 7 C-26 5 -26 2 -23 1 L-15 -2 C-11 -3 -10 -1 -9 1 L-9 1 Z M111 227 L354 688 C355 688 355 688 355 688 L465 227 L111 227 Z M248 842 L507 842 C511 842 513 845 514 849 L515 853 C516 857 513 860 509 860 L251 860 C247 860 244 857 243 853 L242 849 C241 845 243 842 248 842 L248 842 Z " />
<glyph glyph-name="amacron" unicode="&#x101;" horiz-adv-x="520" d="M50 195 C50 80 114 -11 220 -11 C294 -11 359 36 382 67 L374 8 C373 3 375 0 379 0 L384 0 C388 0 391 3 392 8 L454 454 C455 459 452 462 449 462 L444 462 C441 462 439 459 438 454 L430 412 C409 436 363 472 288 472 C156 472 50 351 50 195 L50 195 Z M68 196 C68 342 166 454 288 454 C380 454 422 393 426 385 L386 101 C360 58 294 7 220 7 C127 7 68 91 68 196 L68 196 Z M187 607 L446 607 C450 607 452 610 453 614 L454 618 C455 622 452 625 448 625 L190 625 C186 625 183 622 182 618 L181 614 C180 610 182 607 187 607 L187 607 Z " />
<glyph glyph-name="Abreve" unicode="&#x102;" horiz-adv-x="587" d="M-9 1 L101 210 L470 210 L520 2 C521 -1 524 -2 527 -1 L532 1 C535 2 537 4 536 8 L364 717 C363 720 361 721 359 721 L358 721 C356 721 353 720 352 717 L-25 7 C-26 5 -26 2 -23 1 L-15 -2 C-11 -3 -10 -1 -9 1 L-9 1 Z M111 227 L354 688 C355 688 355 688 355 688 L465 227 L111 227 Z M374 780 C434 780 486 827 504 887 C505 891 505 895 500 895 L492 895 C489 895 487 893 486 889 C470 835 425 798 376 798 C325 798 290 835 291 889 C291 892 290 895 286 895 L280 895 C277 895 275 892 275 887 C275 827 314 780 374 780 L374 780 Z " />
<glyph glyph-name="abreve" unicode="&#x103;" horiz-adv-x="520" d="M50 195 C50 80 114 -11 220 -11 C294 -11 359 36 382 67 L374 8 C373 3 375 0 379 0 L384 0 C388 0 391 3 392 8 L454 454 C455 459 452 462 449 462 L444 462 C441 462 439 459 438 454 L430 412 C409 436 363 472 288 472 C156 472 50 351 50 195 L50 195 Z M68 196 C68 342 166 454 288 454 C380 454 422 393 426 385 L386 101 C360 58 294 7 220 7 C127 7 68 91 68 196 L68 196 Z M308 545 C368 545 420 592 438 652 C439 656 439 660 434 660 L426 660 C423 660 421 658 420 654 C404 600 359 563 310 563 C259 563 224 600 225 654 C225 657 224 660 220 660 L214 660 C211 660 209 657 209 652 C209 592 248 545 308 545 L308 545 Z " />
<glyph glyph-name="Aogonek" unicode="&#x104;" horiz-adv-x="587" d="M-9 1 L101 210 L470 210 L517 12 C440 -27 365 -77 365 -159 C365 -203 390 -238 443 -238 C473 -238 506 -223 521 -214 C526 -211 529 -208 527 -204 L523 -198 C520 -194 517 -195 514 -197 C509 -201 477 -220 444 -220 C403 -220 383 -192 383 -158 C383 -75 470 -29 532 1 C535 2 537 4 536 8 L364 717 C363 720 361 721 359 721 L358 721 C356 721 353 720 352 717 L-25 7 C-26 5 -26 2 -23 1 L-15 -2 C-11 -3 -10 -1 -9 1 L-9 1 Z M111 227 L354 688 L355 688 L465 227 L111 227 Z " />
<glyph glyph-name="aogonek" unicode="&#x105;" horiz-adv-x="520" d="M50 195 C50 80 114 -11 220 -11 C294 -11 359 36 382 67 L375 15 C297 -24 220 -76 220 -159 C220 -203 245 -238 298 -238 C328 -238 361 -223 376 -214 C381 -211 384 -208 382 -204 L378 -198 C375 -194 372 -195 369 -197 C364 -201 332 -220 299 -220 C258 -220 238 -192 238 -158 C238 -76 323 -30 385 0 C388 1 391 4 392 9 L454 454 C455 459 452 462 449 462 L444 462 C441 462 439 459 438 454 L430 412 C409 436 363 472 288 472 C156 472 50 351 50 195 L50 195 Z M68 196 C68 342 166 454 288 454 C380 454 422 393 426 385 L386 101 C360 58 294 7 220 7 C127 7 68 91 68 196 L68 196 Z " />
<glyph glyph-name="Cacute" unicode="&#x106;" horiz-adv-x="667" d="M69 301 C69 128 183 -10 349 -10 C429 -10 511 22 583 88 C585 90 586 93 584 95 L579 101 C577 103 574 103 572 101 C503 40 428 8 349 8 C200 8 87 137 87 301 C87 516 260 693 448 693 C534 693 593 660 643 604 C645 602 648 601 651 604 L656 609 C659 612 658 615 656 617 C603 674 542 710 448 710 C252 710 69 527 69 301 L69 301 Z M380 777 L556 867 C560 869 562 872 560 876 L557 881 C554 886 552 885 549 884 L373 793 C369 791 368 788 369 786 L372 780 C374 776 375 775 380 777 L380 777 Z " />
<glyph glyph-name="cacute" unicode="&#x107;" horiz-adv-x="497" d="M49 199 C49 79 133 -11 238 -11 C339 -11 415 67 417 69 C420 72 419 77 417 79 L412 84 C410 86 407 86 404 83 C400 80 331 7 238 7 C145 7 67 91 67 199 C67 349 182 454 306 454 C390 454 433 404 441 397 C444 394 448 393 451 396 L456 401 C458 403 460 406 457 411 C453 415 403 472 306 472 C172 472 49 361 49 199 L49 199 Z M264 559 L440 649 C444 651 446 654 444 658 L441 663 C438 668 436 667 433 666 L257 575 C253 573 252 570 253 568 L256 562 C258 558 259 557 264 559 L264 559 Z " />
<glyph glyph-name="Ccircumflex" unicode="&#x108;" horiz-adv-x="667" d="M69 301 C69 128 183 -10 349 -10 C429 -10 511 22 583 88 C585 90 586 93 584 95 L579 101 C577 103 574 103 572 101 C503 40 428 8 349 8 C200 8 87 137 87 301 C87 516 260 693 448 693 C534 693 593 660 643 604 C645 602 648 601 651 604 L656 609 C659 612 658 615 656 617 C603 674 542 710 448 710 C252 710 69 527 69 301 L69 301 Z M344 763 L470 865 L566 764 C570 761 572 764 573 765 L577 769 C580 772 579 774 576 777 L475 883 C473 885 470 885 467 883 L340 781 C333 775 331 775 334 769 L337 764 C338 763 339 760 344 763 L344 763 Z " />
<glyph glyph-name="ccircumflex" unicode="&#x109;" horiz-adv-x="497" d="M49 199 C49 79 133 -11 238 -11 C339 -11 415 67 417 69 C420 72 419 77 417 79 L412 84 C410 86 407 86 404 83 C400 80 331 7 238 7 C145 7 67 91 67 199 C67 349 182 454 306 454 C390 454 433 404 441 397 C444 394 448 393 451 396 L456 401 C458 403 460 406 457 411 C453 415 403 472 306 472 C172 472 49 361 49 199 L49 199 Z M207 548 L333 650 L429 549 C433 546 435 549 436 550 L440 554 C443 557 442 559 439 562 L338 668 C336 670 333 670 330 668 L203 566 C196 560 194 560 197 554 L200 549 C201 548 202 545 207 548 L207 548 Z " />
<glyph glyph-name="Cdotaccent" unicode="&#x10a;" horiz-adv-x="667" d="M69 301 C69 128 183 -10 349 -10 C429 -10 511 22 583 88 C585 90 586 93 584 95 L579 101 C577 103 574 103 572 101 C503 40 428 8 349 8 C200 8 87 137 87 301 C87 516 260 693 448 693 C534 693 593 660 643 604 C645 602 648 601 651 604 L656 609 C659 612 658 615 656 617 C603 674 542 710 448 710 C252 710 69 527 69 301 L69 301 Z M464 819 C479 819 490 832 490 846 C490 857 483 867 471 867 C457 867 444 854 444 840 C444 829 451 819 464 819 L464 819 Z " />
<glyph glyph-name="cdotaccent" unicode="&#x10b;" horiz-adv-x="497" d="M49 199 C49 79 133 -11 238 -11 C339 -11 415 67 417 69 C420 72 419 77 417 79 L412 84 C410 86 407 86 404 83 C400 80 331 7 238 7 C145 7 67 91 67 199 C67 349 182 454 306 454 C390 454 433 404 441 397 C444 394 448 393 451 396 L456 401 C458 403 460 406 457 411 C453 415 403 472 306 472 C172 472 49 361 49 199 L49 199 Z M323 605 C338 605 349 618 349 632 C349 643 342 653 330 653 C316 653 303 640 303 626 C303 615 310 605 323 605 L323 605 Z " />
<glyph glyph-name="Ccaron" unicode="&#x10c;" horiz-adv-x="667" d="M69 301 C69 128 183 -10 349 -10 C429 -10 511 22 583 88 C585 90 586 93 584 95 L579 101 C577 103 574 103 572 101 C503 40 428 8 349 8 C200 8 87 137 87 301 C87 516 260 693 448 693 C534 693 593 660 643 604 C645 602 648 601 651 604 L656 609 C659 612 658 615 656 617 C603 674 542 710 448 710 C252 710 69 527 69 301 L69 301 Z M454 771 C456 769 459 769 462 771 L589 873 C596 879 598 879 595 885 L592 890 C591 891 590 894 585 891 L459 789 L363 890 C359 893 357 890 356 889 L352 885 C349 882 350 880 353 877 L454 771 Z " />
<glyph glyph-name="ccaron" unicode="&#x10d;" horiz-adv-x="497" d="M49 199 C49 79 133 -11 238 -11 C339 -11 415 67 417 69 C420 72 419 77 417 79 L412 84 C410 86 407 86 404 83 C400 80 331 7 238 7 C145 7 67 91 67 199 C67 349 182 454 306 454 C390 454 433 404 441 397 C444 394 448 393 451 396 L456 401 C458 403 460 406 457 411 C453 415 403 472 306 472 C172 472 49 361 49 199 L49 199 Z M311 553 C313 551 316 551 319 553 L446 655 C453 661 455 661 452 667 L449 672 C448 673 447 676 442 673 L316 571 L220 672 C216 675 214 672 213 671 L209 667 C206 664 207 662 210 659 L311 553 Z " />
<glyph glyph-name="Dcaron" unicode="&#x10e;" horiz-adv-x="677" d="M69 7 C69 3 71 0 74 0 L255 0 C450 0 625 178 625 394 C625 564 512 700 353 700 L172 700 C169 700 166 697 165 693 L69 7 Z M88 18 L181 682 L350 682 C500 682 607 553 607 394 C607 187 438 18 257 18 L88 18 Z M352 771 C354 769 357 769 360 771 L487 873 C494 879 496 879 493 885 L490 890 C489 891 488 894 483 891 L357 789 L261 890 C257 893 255 890 254 889 L250 885 C247 882 248 880 251 877 L352 771 Z " />
<glyph glyph-name="dcaron" unicode="&#x10f;" horiz-adv-x="528" d="M548 682 C548 671 557 662 569 662 C576 662 583 663 588 668 C590 661 590 658 590 654 C590 622 577 593 554 576 C549 573 546 571 550 565 L554 559 C556 555 558 555 563 559 C596 584 611 626 611 662 C611 690 601 710 577 710 C561 710 548 697 548 682 L548 682 Z M49 195 C49 80 114 -11 216 -11 C293 -11 353 33 382 64 L374 8 C373 3 375 0 379 0 L384 0 C387 0 391 1 392 8 L487 692 C488 697 486 700 483 700 L476 700 C472 700 470 697 470 692 L430 413 C430 413 382 472 294 472 C159 472 49 354 49 195 L49 195 Z M67 195 C67 340 168 454 294 454 C383 454 427 385 427 385 L386 96 C381 88 318 7 216 7 C127 7 67 90 67 195 L67 195 Z " />
<glyph glyph-name="Dcroat" unicode="&#x110;" horiz-adv-x="696" d="M69 7 C69 3 71 0 75 0 L273 0 C464 0 644 178 644 396 C644 564 529 700 371 700 L173 700 C169 700 166 697 166 693 L119 358 L83 358 C79 358 76 355 75 351 L75 347 C74 343 77 340 80 340 L116 340 L69 7 Z M89 18 L134 340 L392 340 C396 340 399 343 399 347 L400 351 C401 355 398 358 394 358 L136 358 L182 682 L368 682 C518 682 625 553 625 394 C625 187 456 18 275 18 L89 18 Z " />
<glyph glyph-name="dcroat" unicode="&#x111;" horiz-adv-x="520" d="M49 195 C49 80 114 -11 216 -11 C293 -11 353 33 382 64 L374 8 C373 3 375 0 379 0 L384 0 C387 0 391 1 392 8 L467 548 L505 548 C509 548 512 551 513 555 L514 559 C515 563 512 566 508 566 L469 566 L487 692 C488 697 486 700 483 700 L476 700 C472 700 470 697 470 692 L452 566 L249 566 C245 566 241 563 241 559 L240 555 C240 551 242 548 246 548 L449 548 L430 413 C430 413 382 472 294 472 C159 472 49 354 49 195 L49 195 Z M67 195 C67 340 168 454 294 454 C383 454 427 385 427 385 L386 96 C381 88 318 7 216 7 C127 7 67 90 67 195 L67 195 Z " />
<glyph glyph-name="Emacron" unicode="&#x112;" horiz-adv-x="547" d="M69 7 C69 3 71 0 75 0 L441 0 C445 0 448 3 449 7 L450 11 C451 15 450 18 443 18 L89 18 L136 355 L448 355 C451 355 454 358 455 362 L456 366 C457 370 454 373 450 373 L139 373 L182 682 L537 682 C541 682 543 685 544 689 L545 693 C546 697 543 700 539 700 L173 700 C170 700 166 697 166 693 L69 7 Z M234 842 L493 842 C497 842 499 845 500 849 L501 853 C502 857 499 860 495 860 L237 860 C233 860 230 857 229 853 L228 849 C227 845 229 842 234 842 L234 842 Z " />
<glyph glyph-name="emacron" unicode="&#x113;" horiz-adv-x="493" d="M49 189 C49 80 105 -11 225 -11 C289 -11 361 23 382 44 C384 46 384 49 383 51 L380 57 C379 59 377 63 371 58 C344 37 290 7 225 7 C124 7 67 85 67 191 C67 201 68 211 69 222 C114 215 156 212 196 212 C353 212 450 261 450 346 C450 416 388 472 290 472 C151 472 49 348 49 189 L49 189 Z M71 240 C88 360 175 454 290 454 C378 454 432 406 432 346 C432 271 341 230 195 230 C158 230 115 234 71 240 L71 240 Z M182 607 L441 607 C445 607 447 610 448 614 L449 618 C450 622 447 625 443 625 L185 625 C181 625 178 622 177 618 L176 614 C175 610 177 607 182 607 L182 607 Z " />
<glyph glyph-name="Ebreve" unicode="&#x114;" horiz-adv-x="547" d="M69 7 C69 3 71 0 75 0 L441 0 C445 0 448 3 449 7 L450 11 C451 15 450 18 443 18 L89 18 L136 355 L448 355 C451 355 454 358 455 362 L456 366 C457 370 454 373 450 373 L139 373 L182 682 L537 682 C541 682 543 685 544 689 L545 693 C546 697 543 700 539 700 L173 700 C170 700 166 697 166 693 L69 7 Z M361 780 C421 780 473 827 491 887 C492 891 492 895 487 895 L479 895 C476 895 474 893 473 889 C457 835 412 798 363 798 C312 798 277 835 278 889 C278 892 277 895 273 895 L267 895 C264 895 262 892 262 887 C262 827 301 780 361 780 L361 780 Z " />
<glyph glyph-name="ebreve" unicode="&#x115;" horiz-adv-x="493" d="M49 189 C49 80 105 -11 225 -11 C289 -11 361 23 382 44 C384 46 384 49 383 51 L380 57 C379 59 377 63 371 58 C344 37 290 7 225 7 C124 7 67 85 67 191 C67 201 68 211 69 222 C114 215 156 212 196 212 C353 212 450 261 450 346 C450 416 388 472 290 472 C151 472 49 348 49 189 L49 189 Z M71 240 C88 360 175 454 290 454 C378 454 432 406 432 346 C432 271 341 230 195 230 C158 230 115 234 71 240 L71 240 Z M298 545 C358 545 410 592 428 652 C429 656 429 660 424 660 L416 660 C413 660 411 658 410 654 C394 600 349 563 300 563 C249 563 214 600 215 654 C215 657 214 660 210 660 L204 660 C201 660 199 657 199 652 C199 592 238 545 298 545 L298 545 Z " />
<glyph glyph-name="Edotaccent" unicode="&#x116;" horiz-adv-x="547" d="M69 7 C69 3 71 0 75 0 L441 0 C445 0 448 3 449 7 L450 11 C451 15 450 18 443 18 L89 18 L136 355 L448 355 C451 355 454 358 455 362 L456 366 C457 370 454 373 450 373 L139 373 L182 682 L537 682 C541 682 543 685 544 689 L545 693 C546 697 543 700 539 700 L173 700 C170 700 166 697 166 693 L69 7 Z M369 819 C384 819 395 832 395 846 C395 857 388 867 376 867 C362 867 349 854 349 840 C349 829 356 819 369 819 L369 819 Z " />
<glyph glyph-name="edotaccent" unicode="&#x117;" horiz-adv-x="493" d="M49 189 C49 80 105 -11 225 -11 C289 -11 361 23 382 44 C384 46 384 49 383 51 L380 57 C379 59 377 63 371 58 C344 37 290 7 225 7 C124 7 67 85 67 191 C67 201 68 211 69 222 C114 215 156 212 196 212 C353 212 450 261 450 346 C450 416 388 472 290 472 C151 472 49 348 49 189 L49 189 Z M71 240 C88 360 175 454 290 454 C378 454 432 406 432 346 C432 271 341 230 195 230 C158 230 115 234 71 240 L71 240 Z M308 605 C323 605 334 618 334 632 C334 643 327 653 315 653 C301 653 288 640 288 626 C288 615 295 605 308 605 L308 605 Z " />
<glyph glyph-name="Eogonek" unicode="&#x118;" horiz-adv-x="547" d="M69 7 C69 3 71 0 75 0 L407 0 C340 -37 277 -86 277 -159 C277 -203 302 -238 355 -238 C385 -238 418 -223 433 -214 C438 -211 441 -208 439 -204 L435 -198 C432 -194 429 -195 426 -197 C421 -201 389 -220 356 -220 C315 -220 295 -192 295 -158 C295 -76 380 -30 442 0 C446 2 448 3 449 7 L450 11 C451 15 450 18 443 18 L89 18 L136 355 L448 355 C451 355 454 358 455 362 L456 366 C457 370 454 373 450 373 L139 373 L182 682 L537 682 C541 682 543 685 544 689 L545 693 C546 697 543 700 539 700 L173 700 C170 700 166 697 166 693 L69 7 Z " />
<glyph glyph-name="eogonek" unicode="&#x119;" horiz-adv-x="493" d="M49 189 C49 80 105 -11 225 -11 C230 -11 236 -11 242 -10 C181 -46 131 -92 131 -159 C131 -203 156 -238 209 -238 C239 -238 272 -223 287 -214 C292 -211 295 -208 293 -204 L289 -198 C286 -194 283 -195 280 -197 C275 -201 243 -220 210 -220 C169 -220 149 -192 149 -158 C149 -76 231 -30 293 0 C333 11 368 30 382 44 C384 46 384 49 383 51 L380 57 C379 59 377 63 371 58 C344 37 290 7 225 7 C124 7 66 86 67 191 C67 201 68 211 69 222 C114 215 156 212 196 212 C353 211 450 261 450 346 C450 416 388 472 290 472 C151 472 49 348 49 189 L49 189 Z M71 240 C88 360 175 454 290 454 C378 454 432 406 432 346 C432 271 341 229 195 230 C158 230 115 234 71 240 L71 240 Z " />
<glyph glyph-name="Ecaron" unicode="&#x11a;" horiz-adv-x="547" d="M69 7 C69 3 71 0 75 0 L441 0 C445 0 448 3 449 7 L450 11 C451 15 450 18 443 18 L89 18 L136 355 L448 355 C451 355 454 358 455 362 L456 366 C457 370 454 373 450 373 L139 373 L182 682 L537 682 C541 682 543 685 544 689 L545 693 C546 697 543 700 539 700 L173 700 C170 700 166 697 166 693 L69 7 Z M351 771 C353 769 356 769 359 771 L486 873 C493 879 495 879 492 885 L489 890 C488 891 487 894 482 891 L356 789 L260 890 C256 893 254 890 253 889 L249 885 C246 882 247 880 250 877 L351 771 Z " />
<glyph glyph-name="ecaron" unicode="&#x11b;" horiz-adv-x="493" d="M49 189 C49 80 105 -11 225 -11 C289 -11 361 23 382 44 C384 46 384 49 383 51 L380 57 C379 59 377 63 371 58 C344 37 290 7 225 7 C124 7 67 85 67 191 C67 201 68 211 69 222 C114 215 156 212 196 212 C353 212 450 261 450 346 C450 416 388 472 290 472 C151 472 49 348 49 189 L49 189 Z M71 240 C88 360 175 454 290 454 C378 454 432 406 432 346 C432 271 341 230 195 230 C158 230 115 234 71 240 L71 240 Z M297 553 C299 551 302 551 305 553 L432 655 C439 661 441 661 438 667 L435 672 C434 673 433 676 428 673 L302 571 L206 672 C202 675 200 672 199 671 L195 667 C192 664 193 662 196 659 L297 553 Z " />
<glyph glyph-name="Gcircumflex" unicode="&#x11c;" horiz-adv-x="695" d="M69 301 C69 128 186 -10 349 -10 C493 -10 580 58 588 70 L624 323 C624 326 622 329 618 329 L406 329 C402 329 400 326 399 323 L398 319 C397 315 399 312 403 312 L605 312 L571 77 C552 60 472 8 352 8 C197 8 87 137 87 301 C87 516 260 693 448 693 C534 693 593 660 643 604 C645 602 648 601 651 604 L656 609 C659 612 658 615 656 617 C603 674 542 710 448 710 C252 710 69 527 69 301 L69 301 Z M350 763 L476 865 L572 764 C576 761 578 764 579 765 L583 769 C586 772 585 774 582 777 L481 883 C479 885 476 885 473 883 L346 781 C339 775 337 775 340 769 L343 764 C344 763 345 760 350 763 L350 763 Z " />
<glyph glyph-name="gcircumflex" unicode="&#x11d;" horiz-adv-x="521" d="M196 548 L322 650 L418 549 C422 546 424 549 425 550 L429 554 C432 557 431 559 428 562 L327 668 C325 670 322 670 319 668 L192 566 C185 560 183 560 186 554 L189 549 C190 548 191 545 196 548 L196 548 Z M49 196 C49 80 119 -11 235 -11 C304 -11 355 23 381 46 L375 6 C356 -137 287 -201 196 -201 C122 -201 74 -146 59 -128 C57 -126 55 -125 52 -127 L47 -131 C43 -134 42 -137 46 -142 C58 -158 111 -219 195 -219 C289 -219 371 -163 393 3 L454 454 C455 459 452 462 449 462 L444 462 C441 462 439 459 438 454 L431 410 C410 434 363 472 288 472 C156 472 49 352 49 196 L49 196 Z M67 196 C67 342 166 454 288 454 C380 454 422 389 426 381 L384 75 C376 64 321 7 235 7 C131 7 67 92 67 196 L67 196 Z " />
<glyph glyph-name="Gbreve" unicode="&#x11e;" horiz-adv-x="695" d="M69 301 C69 128 186 -10 349 -10 C493 -10 580 58 588 70 L624 323 C624 326 622 329 618 329 L406 329 C402 329 400 326 399 323 L398 319 C397 315 399 312 403 312 L605 312 L571 77 C552 60 472 8 352 8 C197 8 87 137 87 301 C87 516 260 693 448 693 C534 693 593 660 643 604 C645 602 648 601 651 604 L656 609 C659 612 658 615 656 617 C603 674 542 710 448 710 C252 710 69 527 69 301 L69 301 Z M473 780 C533 780 585 827 603 887 C604 891 604 895 599 895 L591 895 C588 895 586 893 585 889 C569 835 524 798 475 798 C424 798 389 835 390 889 C390 892 389 895 385 895 L379 895 C376 895 374 892 374 887 C374 827 413 780 473 780 L473 780 Z " />
<glyph glyph-name="gbreve" unicode="&#x11f;" horiz-adv-x="521" d="M306 545 C366 545 418 592 436 652 C437 656 437 660 432 660 L424 660 C421 660 419 658 418 654 C402 600 357 563 308 563 C257 563 222 600 223 654 C223 657 222 660 218 660 L212 660 C209 660 207 657 207 652 C207 592 246 545 306 545 L306 545 Z M49 196 C49 80 119 -11 235 -11 C304 -11 355 23 381 46 L375 6 C356 -137 287 -201 196 -201 C122 -201 74 -146 59 -128 C57 -126 55 -125 52 -127 L47 -131 C43 -134 42 -137 46 -142 C58 -158 111 -219 195 -219 C289 -219 371 -163 393 3 L454 454 C455 459 452 462 449 462 L444 462 C441 462 439 459 438 454 L431 410 C410 434 363 472 288 472 C156 472 49 352 49 196 L49 196 Z M67 196 C67 342 166 454 288 454 C380 454 422 389 426 381 L384 75 C376 64 321 7 235 7 C131 7 67 92 67 196 L67 196 Z " />
<glyph glyph-name="Gdotaccent" unicode="&#x120;" horiz-adv-x="695" d="M69 301 C69 128 186 -10 349 -10 C493 -10 580 58 588 70 L624 323 C624 326 622 329 618 329 L406 329 C402 329 400 326 399 323 L398 319 C397 315 399 312 403 312 L605 312 L571 77 C552 60 472 8 352 8 C197 8 87 137 87 301 C87 516 260 693 448 693 C534 693 593 660 643 604 C645 602 648 601 651 604 L656 609 C659 612 658 615 656 617 C603 674 542 710 448 710 C252 710 69 527 69 301 L69 301 Z M472 819 C487 819 498 832 498 846 C498 857 491 867 479 867 C465 867 452 854 452 840 C452 829 459 819 472 819 L472 819 Z " />
<glyph glyph-name="gdotaccent" unicode="&#x121;" horiz-adv-x="521" d="M313 605 C328 605 339 618 339 632 C339 643 332 653 320 653 C306 653 293 640 293 626 C293 615 300 605 313 605 L313 605 Z M49 196 C49 80 119 -11 235 -11 C304 -11 355 23 381 46 L375 6 C356 -137 287 -201 196 -201 C122 -201 74 -146 59 -128 C57 -126 55 -125 52 -127 L47 -131 C43 -134 42 -137 46 -142 C58 -158 111 -219 195 -219 C289 -219 371 -163 393 3 L454 454 C455 459 452 462 449 462 L444 462 C441 462 439 459 438 454 L431 410 C410 434 363 472 288 472 C156 472 49 352 49 196 L49 196 Z M67 196 C67 342 166 454 288 454 C380 454 422 389 426 381 L384 75 C376 64 321 7 235 7 C131 7 67 92 67 196 L67 196 Z " />
<glyph glyph-name="Gcommaaccent" unicode="&#x122;" horiz-adv-x="695" d="M69 301 C69 128 186 -10 349 -10 C493 -10 580 58 588 70 L624 323 C624 326 622 329 618 329 L406 329 C402 329 400 326 399 323 L398 319 C397 315 399 312 403 312 L605 312 L571 77 C552 60 472 8 352 8 C197 8 87 137 87 301 C87 516 260 693 448 693 C534 693 593 660 643 604 C645 602 648 601 651 604 L656 609 C659 612 658 615 656 617 C603 674 542 710 448 710 C252 710 69 527 69 301 L69 301 Z M310 -111 C310 -122 319 -131 331 -131 C338 -131 345 -130 350 -125 C352 -132 352 -135 352 -139 C352 -171 339 -200 316 -217 C311 -220 308 -222 312 -228 L316 -234 C318 -238 320 -238 325 -234 C358 -209 373 -167 373 -131 C373 -103 363 -83 339 -83 C323 -83 310 -96 310 -111 L310 -111 Z " />
<glyph glyph-name="gcommaaccent" unicode="&#x123;" horiz-adv-x="521" d="M49 196 C49 80 119 -11 235 -11 C304 -11 355 23 381 46 L375 6 C356 -137 287 -201 196 -201 C122 -201 74 -146 59 -128 C57 -126 55 -125 52 -127 L47 -131 C43 -134 42 -137 46 -142 C58 -158 111 -219 195 -219 C289 -219 371 -163 393 3 L454 454 C455 459 452 462 449 462 L444 462 C441 462 439 459 438 454 L431 410 C410 434 363 472 288 472 C156 472 49 352 49 196 L49 196 Z M67 196 C67 342 166 454 288 454 C380 454 422 389 426 381 L384 75 C376 64 321 7 235 7 C131 7 67 92 67 196 L67 196 Z M358 604 C358 615 349 624 337 624 C330 624 323 623 318 618 C316 625 316 628 316 632 C316 664 329 693 352 710 C357 713 360 715 356 721 L352 727 C350 731 348 731 343 727 C310 702 295 660 295 624 C295 596 305 576 329 576 C345 576 358 589 358 604 L358 604 Z " />
<glyph glyph-name="Hcircumflex" unicode="&#x124;" horiz-adv-x="692" d="M69 7 C68 3 71 0 75 0 L79 0 C83 0 86 3 87 7 L136 355 L576 355 L527 7 C526 3 529 0 533 0 L538 0 C541 0 544 3 545 7 L642 693 C643 697 640 700 636 700 L631 700 C628 700 625 697 624 693 L579 373 L139 373 L183 693 C184 697 182 700 178 700 L173 700 C170 700 166 697 166 693 L69 7 Z M301 763 L427 865 L523 764 C527 761 529 764 530 765 L534 769 C537 772 536 774 533 777 L432 883 C430 885 427 885 424 883 L297 781 C290 775 288 775 291 769 L294 764 C295 763 296 760 301 763 L301 763 Z " />
<glyph glyph-name="hcircumflex" unicode="&#x125;" horiz-adv-x="504" d="M61 0 C66 0 68 3 69 8 L119 355 C129 367 191 454 287 454 C382 454 418 392 399 258 L363 8 C362 3 364 0 370 0 L374 0 C379 0 380 3 381 8 L417 258 C438 399 397 472 287 472 C205 472 150 416 122 385 L166 692 C167 697 164 700 160 700 L156 700 C151 700 149 697 148 692 L50 8 C49 3 51 0 57 0 L61 0 Z M47 765 L173 867 L269 766 C273 763 275 766 276 767 L280 771 C283 774 282 776 279 779 L178 885 C176 887 173 887 170 885 L43 783 C36 777 34 777 37 771 L40 766 C41 765 42 762 47 765 L47 765 Z " />
<glyph glyph-name="Hbar" unicode="&#x126;" horiz-adv-x="692" d="M69 7 C69 3 71 0 75 0 L79 0 C83 0 87 3 87 7 L136 355 L576 355 L527 7 C526 2 528 0 532 0 L538 0 C542 0 544 2 545 7 L621 548 L650 548 C654 548 656 551 657 555 L658 559 C659 563 656 566 652 566 L624 566 L642 693 C642 697 640 700 636 700 L632 700 C628 700 624 697 624 693 L606 566 L166 566 L183 693 C184 697 182 700 178 700 L173 700 C170 700 166 697 166 693 L148 566 L122 566 C118 566 116 563 115 559 L114 555 C113 551 114 548 119 548 L145 548 L69 7 Z M139 373 L163 548 L603 548 L579 373 L139 373 Z " />
<glyph glyph-name="hbar" unicode="&#x127;" horiz-adv-x="525" d="M61 0 C66 0 68 3 69 8 L119 356 C129 368 201 454 297 454 C392 454 438 392 419 258 L383 8 C382 3 384 0 390 0 L394 0 C399 0 400 3 401 8 L437 258 C458 399 407 472 297 472 C215 472 150 413 122 385 L145 548 L347 548 C351 548 354 551 355 555 L356 559 C357 563 354 566 350 566 L148 566 L166 692 C167 697 164 700 160 700 L156 700 C151 700 149 697 148 692 L130 566 L91 566 C87 566 85 563 84 559 L83 555 C82 551 84 548 88 548 L127 548 L50 8 C49 3 51 0 57 0 L61 0 Z " />
<glyph glyph-name="Itilde" unicode="&#x128;" horiz-adv-x="234" d="M69 7 C68 3 71 0 75 0 L79 0 C83 0 86 3 87 7 L183 693 C184 697 181 700 177 700 L173 700 C169 700 166 697 165 693 L69 7 Z M69 802 C71 801 74 802 76 807 C82 822 108 880 147 880 C200 880 172 772 241 772 C295 772 322 838 330 856 C333 861 331 864 327 865 L320 867 C317 868 315 866 313 861 C305 841 284 789 243 789 C187 789 220 897 149 897 C96 897 67 832 59 813 C57 808 58 805 62 804 L69 802 Z " />
<glyph glyph-name="itilde" unicode="&#x129;" horiz-adv-x="198" d="M58 0 L63 0 C68 0 69 3 70 8 L133 454 C134 459 131 462 127 462 L122 462 C117 462 115 459 114 454 L51 8 C50 3 52 0 58 0 L58 0 Z M20 583 C22 582 25 583 27 588 C33 603 59 661 98 661 C151 661 123 553 192 553 C246 553 273 619 281 637 C284 642 282 645 278 646 L271 648 C268 649 266 647 264 642 C256 622 235 570 194 570 C138 570 171 678 100 678 C47 678 18 613 10 594 C8 589 9 586 13 585 L20 583 Z " />
<glyph glyph-name="Imacron" unicode="&#x12a;" horiz-adv-x="234" d="M69 7 C68 3 71 0 75 0 L79 0 C83 0 86 3 87 7 L183 693 C184 697 181 700 177 700 L173 700 C169 700 166 697 165 693 L69 7 Z M66 842 L325 842 C329 842 331 845 332 849 L333 853 C334 857 331 860 327 860 L69 860 C65 860 62 857 61 853 L60 849 C59 845 61 842 66 842 L66 842 Z " />
<glyph glyph-name="imacron" unicode="&#x12b;" horiz-adv-x="198" d="M57 0 L62 0 C67 0 68 3 69 8 L132 454 C133 459 130 462 126 462 L121 462 C116 462 114 459 113 454 L50 8 C49 3 51 0 57 0 L57 0 Z M14 607 L273 607 C277 607 279 610 280 614 L281 618 C282 622 279 625 275 625 L17 625 C13 625 10 622 9 618 L8 614 C7 610 9 607 14 607 L14 607 Z " />
<glyph glyph-name="Ibreve" unicode="&#x12c;" horiz-adv-x="234" d="M69 7 C68 3 71 0 75 0 L79 0 C83 0 86 3 87 7 L183 693 C184 697 181 700 177 700 L173 700 C169 700 166 697 165 693 L69 7 Z M192 780 C252 780 304 827 322 887 C323 891 323 895 318 895 L310 895 C307 895 305 893 304 889 C288 835 243 798 194 798 C143 798 108 835 109 889 C109 892 108 895 104 895 L98 895 C95 895 93 892 93 887 C93 827 132 780 192 780 L192 780 Z " />
<glyph glyph-name="ibreve" unicode="&#x12d;" horiz-adv-x="198" d="M57 0 L62 0 C67 0 68 3 69 8 L132 454 C133 459 130 462 126 462 L121 462 C116 462 114 459 113 454 L50 8 C49 3 51 0 57 0 L57 0 Z M134 545 C194 545 246 592 264 652 C265 656 265 660 260 660 L252 660 C249 660 247 658 246 654 C230 600 185 563 136 563 C85 563 50 600 51 654 C51 657 50 660 46 660 L40 660 C37 660 35 657 35 652 C35 592 74 545 134 545 L134 545 Z " />
<glyph glyph-name="Iogonek" unicode="&#x12e;" horiz-adv-x="234" d="M70 14 C-7 -25 -85 -76 -85 -159 C-85 -203 -60 -238 -7 -238 C23 -238 56 -223 71 -214 C76 -211 79 -208 77 -204 L73 -198 C70 -194 67 -195 64 -197 C59 -201 27 -220 -6 -220 C-47 -220 -67 -192 -67 -158 C-67 -76 18 -30 80 0 C83 1 86 3 87 10 L183 693 C184 697 181 700 177 700 L173 700 C169 700 166 697 165 693 L70 14 Z " />
<glyph glyph-name="iogonek" unicode="&#x12f;" horiz-adv-x="199" d="M-101 -159 C-101 -203 -76 -238 -23 -238 C7 -238 40 -223 55 -214 C60 -211 63 -208 61 -204 L57 -198 C54 -194 51 -195 48 -197 C43 -201 11 -220 -22 -220 C-63 -220 -83 -192 -83 -158 C-83 -76 2 -30 64 0 C68 2 70 5 71 10 L133 454 C135 459 131 462 127 462 L122 462 C117 462 115 459 114 454 L52 14 C-25 -25 -101 -77 -101 -159 L-101 -159 Z M144 605 C159 605 170 618 170 632 C170 643 163 653 151 653 C137 653 124 640 124 626 C124 615 131 605 144 605 L144 605 Z " />
<glyph glyph-name="Idotaccent" unicode="&#x130;" horiz-adv-x="234" d="M69 7 C68 3 71 0 75 0 L79 0 C83 0 86 3 87 7 L183 693 C184 697 181 700 177 700 L173 700 C169 700 166 697 165 693 L69 7 Z M193 819 C208 819 219 832 219 846 C219 857 212 867 200 867 C186 867 173 854 173 840 C173 829 180 819 193 819 L193 819 Z " />
<glyph glyph-name="dotlessi" unicode="&#x131;" horiz-adv-x="198" d="M57 0 L62 0 C67 0 68 3 69 8 L132 454 C133 459 130 462 126 462 L121 462 C116 462 114 459 113 454 L50 8 C49 3 51 0 57 0 L57 0 Z " />
<glyph glyph-name="IJ" unicode="&#x132;" horiz-adv-x="611" d="M69 7 C68 3 71 0 75 0 L79 0 C83 0 86 3 87 7 L183 693 C184 697 181 700 177 700 L173 700 C169 700 166 697 165 693 L69 7 Z M301 -10 C409 -10 480 73 500 214 L567 693 C568 697 566 700 562 700 L558 700 C554 700 551 697 551 693 L483 214 C464 82 400 7 302 7 C230 7 199 55 187 77 C185 80 183 81 178 78 L174 76 C170 74 171 70 172 67 C183 44 221 -10 301 -10 L301 -10 Z " />
<glyph glyph-name="ij" unicode="&#x133;" horiz-adv-x="378" d="M57 0 L62 0 C67 0 68 3 69 8 L132 454 C133 459 130 462 126 462 L121 462 C116 462 114 459 113 454 L50 8 C49 3 51 0 57 0 L57 0 Z M143 605 C158 605 169 618 169 632 C169 643 162 653 150 653 C136 653 123 640 123 626 C123 615 130 605 143 605 L143 605 Z M326 605 C341 605 352 618 352 632 C352 643 345 653 333 653 C319 653 306 640 306 626 C306 615 313 605 326 605 L326 605 Z M306 462 L302 462 C297 462 295 459 294 454 L221 -65 C206 -170 162 -212 81 -231 C76 -232 72 -234 73 -239 L74 -244 C75 -249 78 -250 84 -249 C175 -230 224 -178 239 -65 L312 454 C313 459 311 462 306 462 L306 462 Z " />
<glyph glyph-name="Jcircumflex" unicode="&#x134;" horiz-adv-x="432" d="M122 -10 C230 -10 301 73 321 214 L388 693 C389 697 387 700 383 700 L379 700 C375 700 372 697 372 693 L304 214 C285 82 221 7 123 7 C51 7 20 55 8 77 C6 80 4 81 -1 78 L-5 76 C-9 74 -8 70 -7 67 C4 44 42 -10 122 -10 L122 -10 Z M278 763 L404 865 L500 764 C504 761 506 764 507 765 L511 769 C514 772 513 774 510 777 L409 883 C407 885 404 885 401 883 L274 781 C267 775 265 775 268 769 L271 764 C272 763 273 760 278 763 L278 763 Z " />
<glyph glyph-name="jcircumflex" unicode="&#x135;" horiz-adv-x="197" d="M131 454 C132 459 130 462 125 462 L121 462 C116 462 114 459 113 454 L40 -65 C25 -170 -19 -212 -100 -231 C-105 -232 -109 -234 -108 -239 L-107 -244 C-106 -249 -103 -250 -97 -249 C-6 -230 43 -178 58 -65 L131 454 Z M25 548 L151 650 L247 549 C251 546 253 549 254 550 L258 554 C261 557 260 559 257 562 L156 668 C154 670 151 670 148 668 L21 566 C14 560 12 560 15 554 L18 549 C19 548 20 545 25 548 L25 548 Z " />
<glyph glyph-name="Kcommaaccent" unicode="&#x136;" horiz-adv-x="504" d="M69 7 C68 3 71 0 75 0 L79 0 C83 0 86 3 87 7 L134 345 L429 -2 C432 -6 435 -6 438 -4 L443 0 C446 3 447 6 444 10 L152 353 L530 686 C533 689 533 693 530 696 L527 699 C524 702 521 702 517 699 L137 363 L184 693 C185 697 182 700 178 700 L173 700 C170 700 167 697 166 693 L69 7 Z M199 -111 C199 -122 208 -131 220 -131 C227 -131 234 -130 239 -125 C241 -132 241 -135 241 -139 C241 -171 228 -200 205 -217 C200 -220 197 -222 201 -228 L205 -234 C207 -238 209 -238 214 -234 C247 -209 262 -167 262 -131 C262 -103 252 -83 228 -83 C212 -83 199 -96 199 -111 L199 -111 Z " />
<glyph glyph-name="kcommaaccent" unicode="&#x137;" horiz-adv-x="417" d="M57 0 L61 0 C66 0 69 3 70 8 L104 248 L330 -2 C333 -6 338 -6 341 -3 L345 1 C348 4 350 7 346 11 L123 254 L403 452 C406 454 408 457 406 461 L402 467 C398 471 396 470 393 468 L106 266 L168 692 C169 697 164 700 160 700 L156 700 C151 700 149 697 148 692 L50 8 C49 3 51 0 57 0 L57 0 Z M142 -111 C142 -122 151 -131 163 -131 C170 -131 177 -130 182 -125 C184 -132 184 -135 184 -139 C184 -171 171 -200 148 -217 C143 -220 140 -222 144 -228 L148 -234 C150 -238 152 -238 157 -234 C190 -209 205 -167 205 -131 C205 -103 195 -83 171 -83 C155 -83 142 -96 142 -111 L142 -111 Z " />
<glyph glyph-name="kgreenlandic" unicode="&#x138;" horiz-adv-x="436" d="M50 8 C50 3 52 0 58 0 L61 0 C65 0 70 3 70 8 L100 220 L355 -4 C358 -6 360 -6 363 -3 L368 2 C372 6 372 10 368 13 L120 229 L416 449 C418 451 420 455 418 459 L414 466 C412 470 408 470 405 468 L104 240 L133 454 C133 459 131 462 127 462 L123 462 C118 462 114 459 114 454 L50 8 Z " />
<glyph glyph-name="Lacute" unicode="&#x139;" horiz-adv-x="456" d="M69 7 C69 3 71 0 75 0 L398 0 C402 0 404 3 405 7 L406 11 C407 15 404 17 400 17 L88 17 L183 693 C184 697 181 700 178 700 L173 700 C170 700 167 697 166 693 L69 7 Z M110 777 L286 867 C290 869 292 872 290 876 L287 881 C284 886 282 885 279 884 L103 793 C99 791 98 788 99 786 L102 780 C104 776 105 775 110 777 L110 777 Z " />
<glyph glyph-name="lacute" unicode="&#x13a;" horiz-adv-x="214" d="M69 0 C74 0 76 3 77 8 L174 692 C175 697 171 700 168 700 L163 700 C159 700 157 697 156 692 L58 8 C57 3 59 0 65 0 L69 0 Z M119 776 L295 866 C299 868 301 871 299 875 L296 880 C293 885 291 884 288 883 L112 792 C108 790 107 787 108 785 L111 779 C113 775 114 774 119 776 L119 776 Z " />
<glyph glyph-name="Lcommaaccent" unicode="&#x13b;" horiz-adv-x="456" d="M69 7 C69 3 71 0 75 0 L398 0 C402 0 404 3 405 7 L406 11 C407 15 404 17 400 17 L88 17 L183 693 C184 697 181 700 178 700 L173 700 C170 700 167 697 166 693 L69 7 Z M189 -111 C189 -122 198 -131 210 -131 C217 -131 224 -130 229 -125 C231 -132 231 -135 231 -139 C231 -171 218 -200 195 -217 C190 -220 187 -222 191 -228 L195 -234 C197 -238 199 -238 204 -234 C237 -209 252 -167 252 -131 C252 -103 242 -83 218 -83 C202 -83 189 -96 189 -111 L189 -111 Z " />
<glyph glyph-name="lcommaaccent" unicode="&#x13c;" horiz-adv-x="214" d="M69 0 C74 0 76 3 77 8 L174 692 C175 697 171 700 168 700 L163 700 C159 700 157 697 156 692 L58 8 C57 3 59 0 65 0 L69 0 Z M27 -111 C27 -122 36 -131 48 -131 C55 -131 62 -130 67 -125 C69 -132 69 -135 69 -139 C69 -171 56 -200 33 -217 C28 -220 25 -222 29 -228 L33 -234 C35 -238 37 -238 42 -234 C75 -209 90 -167 90 -131 C90 -103 80 -83 56 -83 C40 -83 27 -96 27 -111 L27 -111 Z " />
<glyph glyph-name="Lcaron" unicode="&#x13d;" horiz-adv-x="462" d="M69 7 C69 3 71 0 75 0 L398 0 C402 0 404 3 405 7 L406 11 C407 15 404 17 400 17 L88 17 L183 693 C184 697 181 700 178 700 L173 700 C170 700 167 697 166 693 L69 7 Z M392 683 C392 672 401 663 413 663 C420 663 427 664 432 669 C434 662 434 659 434 655 C434 623 421 594 398 577 C393 574 390 572 394 566 L398 560 C400 556 402 556 407 560 C440 585 455 627 455 663 C455 691 445 711 421 711 C405 711 392 698 392 683 L392 683 Z " />
<glyph glyph-name="lcaron" unicode="&#x13e;" horiz-adv-x="214" d="M69 0 C74 0 76 3 77 8 L174 692 C175 697 171 700 168 700 L163 700 C159 700 157 697 156 692 L58 8 C57 3 59 0 65 0 L69 0 Z M232 682 C232 671 241 662 253 662 C260 662 267 663 272 668 C274 661 274 658 274 654 C274 622 261 593 238 576 C233 573 230 571 234 565 L238 559 C240 555 242 555 247 559 C280 584 295 626 295 662 C295 690 285 710 261 710 C245 710 232 697 232 682 L232 682 Z " />
<glyph glyph-name="Ldot" unicode="&#x13f;" horiz-adv-x="464" d="M69 7 C69 3 71 0 75 0 L398 0 C402 0 404 3 405 7 L406 11 C407 15 404 17 400 17 L88 17 L183 693 C184 697 181 700 178 700 L173 700 C170 700 167 697 166 693 L69 7 Z M396 322 C411 322 422 335 422 349 C422 360 415 369 403 369 C390 369 377 358 377 343 C377 332 385 322 396 322 L396 322 Z " />
<glyph glyph-name="ldot" unicode="&#x140;" horiz-adv-x="315" d="M69 0 C74 0 76 3 77 8 L174 692 C175 697 171 700 168 700 L163 700 C159 700 157 697 156 692 L58 8 C57 3 59 0 65 0 L69 0 Z M260 321 C275 321 286 334 286 348 C286 359 279 368 267 368 C254 368 241 357 241 342 C241 331 249 321 260 321 L260 321 Z " />
<glyph glyph-name="Lslash" unicode="&#x141;" horiz-adv-x="460" d="M68 7 C68 3 70 0 74 0 L415 0 C419 0 422 3 423 7 L424 11 C425 15 422 18 417 18 L88 18 L133 337 L313 426 C315 427 319 430 318 433 L316 439 C314 444 311 443 308 442 L136 357 L183 693 C184 697 181 700 177 700 L173 700 C169 700 165 697 165 693 L117 349 L67 325 C64 324 61 321 62 318 L64 310 C65 307 68 307 72 309 L114 329 L68 7 Z " />
<glyph glyph-name="lslash" unicode="&#x142;" horiz-adv-x="272" d="M75 0 C80 0 82 3 83 8 L132 358 L273 426 C277 428 278 431 277 433 L275 438 C273 442 272 444 266 441 L135 377 L180 692 C181 697 177 700 174 700 L169 700 C165 700 163 697 162 692 L115 367 L28 325 C25 324 23 321 24 317 L26 311 C27 308 29 308 32 309 L112 348 L64 8 C63 3 65 0 71 0 L75 0 Z " />
<glyph glyph-name="Nacute" unicode="&#x143;" horiz-adv-x="710" d="M69 7 C68 3 71 0 75 0 L79 0 C83 0 86 3 87 7 L181 676 L548 -12 C551 -18 560 -15 561 -8 L660 693 C661 697 658 700 654 700 L650 700 C646 700 643 697 642 693 L548 26 C548 26 548 25 181 714 C178 720 169 717 168 710 L69 7 Z M359 777 L535 867 C539 869 541 872 539 876 L536 881 C533 886 531 885 528 884 L352 793 C348 791 347 788 348 786 L351 780 C353 776 354 775 359 777 L359 777 Z " />
<glyph glyph-name="nacute" unicode="&#x144;" horiz-adv-x="506" d="M50 8 C49 3 51 0 57 0 L61 0 C66 0 68 3 69 8 L119 359 C132 379 191 454 288 454 C383 454 419 389 400 258 L364 8 C363 3 365 0 370 0 L375 0 C379 0 382 3 383 8 L418 258 C439 399 396 472 288 472 C206 472 152 422 123 391 L131 454 C131 459 130 462 126 462 L121 462 C117 462 115 459 114 454 L50 8 Z M241 560 L417 650 C421 652 423 655 421 659 L418 664 C415 669 413 668 410 667 L234 576 C230 574 229 571 230 569 L233 563 C235 559 236 558 241 560 L241 560 Z " />
<glyph glyph-name="Ncommaaccent" unicode="&#x145;" horiz-adv-x="710" d="M69 7 C68 3 71 0 75 0 L79 0 C83 0 86 3 87 7 L181 676 L548 -12 C551 -18 560 -15 561 -8 L660 693 C661 697 658 700 654 700 L650 700 C646 700 643 697 642 693 L548 26 C548 26 548 25 181 714 C178 720 169 717 168 710 L69 7 Z M281 -111 C281 -122 290 -131 302 -131 C309 -131 316 -130 321 -125 C323 -132 323 -135 323 -139 C323 -171 310 -200 287 -217 C282 -220 279 -222 283 -228 L287 -234 C289 -238 291 -238 296 -234 C329 -209 344 -167 344 -131 C344 -103 334 -83 310 -83 C294 -83 281 -96 281 -111 L281 -111 Z " />
<glyph glyph-name="ncommaaccent" unicode="&#x146;" horiz-adv-x="506" d="M50 8 C49 3 51 0 57 0 L61 0 C66 0 68 3 69 8 L119 359 C132 379 191 454 288 454 C383 454 419 389 400 258 L364 8 C363 3 365 0 370 0 L375 0 C379 0 382 3 383 8 L418 258 C439 399 396 472 288 472 C206 472 152 422 123 391 L131 454 C131 459 130 462 126 462 L121 462 C117 462 115 459 114 454 L50 8 Z M180 -110 C180 -121 189 -130 201 -130 C208 -130 215 -129 220 -124 C222 -131 222 -134 222 -138 C222 -170 209 -199 186 -216 C181 -219 178 -221 182 -227 L186 -233 C188 -237 190 -237 195 -233 C228 -208 243 -166 243 -130 C243 -102 233 -82 209 -82 C193 -82 180 -95 180 -110 L180 -110 Z " />
<glyph glyph-name="Ncaron" unicode="&#x147;" horiz-adv-x="710" d="M69 7 C68 3 71 0 75 0 L79 0 C83 0 86 3 87 7 L181 676 L548 -12 C551 -18 560 -15 561 -8 L660 693 C661 697 658 700 654 700 L650 700 C646 700 643 697 642 693 L548 26 C548 26 548 25 181 714 C178 720 169 717 168 710 L69 7 Z M423 771 C425 769 428 769 431 771 L558 873 C565 879 567 879 564 885 L561 890 C560 891 559 894 554 891 L428 789 L332 890 C328 893 326 890 325 889 L321 885 C318 882 319 880 322 877 L423 771 Z " />
<glyph glyph-name="ncaron" unicode="&#x148;" horiz-adv-x="506" d="M50 8 C49 3 51 0 57 0 L61 0 C66 0 68 3 69 8 L119 359 C132 379 191 454 288 454 C383 454 419 389 400 258 L364 8 C363 3 365 0 370 0 L375 0 C379 0 382 3 383 8 L418 258 C439 399 396 472 288 472 C206 472 152 422 123 391 L131 454 C131 459 130 462 126 462 L121 462 C117 462 115 459 114 454 L50 8 Z M298 554 C300 552 303 552 306 554 L433 656 C440 662 442 662 439 668 L436 673 C435 674 434 677 429 674 L303 572 L207 673 C203 676 201 673 200 672 L196 668 C193 665 194 663 197 660 L298 554 Z " />
<glyph glyph-name="napostrophe" unicode="&#x149;" horiz-adv-x="506" d="M50 8 C49 3 51 0 57 0 L61 0 C66 0 68 3 69 8 L119 359 C132 379 191 454 288 454 C383 454 419 389 400 258 L364 8 C363 3 365 0 370 0 L375 0 C379 0 382 3 383 8 L418 258 C439 399 396 472 288 472 C206 472 152 422 123 391 L131 454 C131 459 130 462 126 462 L121 462 C117 462 115 459 114 454 L50 8 Z M74 682 C74 671 83 662 95 662 C102 662 109 663 114 668 C116 661 116 658 116 654 C116 622 103 593 80 576 C75 573 72 571 76 565 L80 559 C82 555 84 555 89 559 C122 584 137 626 137 662 C137 690 127 710 103 710 C87 710 74 697 74 682 L74 682 Z " />
<glyph glyph-name="Eng" unicode="&#x14a;" horiz-adv-x="711" d="M660 693 C661 697 658 700 654 700 L650 700 C646 700 643 697 642 693 L548 26 C548 26 548 25 181 714 C178 720 169 717 168 710 L69 7 C68 3 71 0 75 0 L79 0 C83 0 86 3 87 7 L181 676 L544 -5 L536 -65 C522 -170 477 -212 396 -231 C391 -232 387 -234 388 -239 L389 -244 C390 -249 393 -250 399 -249 C490 -230 538 -178 554 -65 L660 693 Z " />
<glyph glyph-name="eng" unicode="&#x14b;" horiz-adv-x="506" d="M353 -65 C338 -170 295 -212 214 -231 C209 -232 205 -234 206 -239 L207 -244 C208 -249 211 -250 217 -249 C308 -230 357 -178 373 -65 L418 258 C439 399 396 472 288 472 C206 472 152 422 123 391 L131 454 C131 459 130 462 126 462 L121 462 C117 462 115 459 114 454 L50 8 C49 3 51 0 57 0 L61 0 C66 0 68 3 69 8 L119 359 C131 378 191 454 288 454 C383 454 419 389 400 258 L353 -65 Z " />
<glyph glyph-name="Omacron" unicode="&#x14c;" horiz-adv-x="780" d="M70 302 C70 130 185 -10 349 -10 C547 -10 729 171 729 397 C729 571 613 710 450 710 C251 710 70 529 70 302 L70 302 Z M88 303 C88 518 261 692 449 692 C601 692 711 561 711 396 C711 181 537 8 349 8 C198 8 88 139 88 303 L88 303 Z M342 842 L601 842 C605 842 607 845 608 849 L609 853 C610 857 607 860 603 860 L345 860 C341 860 338 857 337 853 L336 849 C335 845 337 842 342 842 L342 842 Z " />
<glyph glyph-name="omacron" unicode="&#x14d;" horiz-adv-x="537" d="M49 197 C49 81 120 -11 228 -11 C358 -11 473 112 473 266 C473 380 402 472 295 472 C165 472 49 350 49 197 L49 197 Z M67 197 C67 337 174 454 295 454 C391 454 455 371 455 266 C455 125 349 7 228 7 C134 7 67 91 67 197 L67 197 Z M187 607 L446 607 C450 607 452 610 453 614 L454 618 C455 622 452 625 448 625 L190 625 C186 625 183 622 182 618 L181 614 C180 610 182 607 187 607 L187 607 Z " />
<glyph glyph-name="Obreve" unicode="&#x14e;" horiz-adv-x="780" d="M70 302 C70 130 185 -10 349 -10 C547 -10 729 171 729 397 C729 571 613 710 450 710 C251 710 70 529 70 302 L70 302 Z M88 303 C88 518 261 692 449 692 C601 692 711 561 711 396 C711 181 537 8 349 8 C198 8 88 139 88 303 L88 303 Z M473 780 C533 780 585 827 603 887 C604 891 604 895 599 895 L591 895 C588 895 586 893 585 889 C569 835 524 798 475 798 C424 798 389 835 390 889 C390 892 389 895 385 895 L379 895 C376 895 374 892 374 887 C374 827 413 780 473 780 L473 780 Z " />
<glyph glyph-name="obreve" unicode="&#x14f;" horiz-adv-x="537" d="M49 197 C49 81 120 -11 228 -11 C358 -11 473 112 473 266 C473 380 402 472 295 472 C165 472 49 350 49 197 L49 197 Z M67 197 C67 337 174 454 295 454 C391 454 455 371 455 266 C455 125 349 7 228 7 C134 7 67 91 67 197 L67 197 Z M311 545 C371 545 423 592 441 652 C442 656 442 660 437 660 L429 660 C426 660 424 658 423 654 C407 600 362 563 313 563 C262 563 227 600 228 654 C228 657 227 660 223 660 L217 660 C214 660 212 657 212 652 C212 592 251 545 311 545 L311 545 Z " />
<glyph glyph-name="Ohungarumlaut" unicode="&#x150;" horiz-adv-x="780" d="M70 302 C70 130 185 -10 349 -10 C547 -10 729 171 729 397 C729 571 613 710 450 710 C251 710 70 529 70 302 L70 302 Z M88 303 C88 518 261 692 449 692 C601 692 711 561 711 396 C711 181 537 8 349 8 C198 8 88 139 88 303 L88 303 Z M531 757 C534 755 536 755 540 759 L660 932 C664 937 662 939 659 941 L654 944 C651 946 649 946 646 942 L526 769 C522 764 524 762 526 760 L531 757 Z M382 757 C385 755 387 755 390 759 L511 932 C514 937 513 939 510 941 L505 944 C501 946 499 946 496 942 L376 769 C373 764 374 762 377 760 L382 757 Z " />
<glyph glyph-name="ohungarumlaut" unicode="&#x151;" horiz-adv-x="537" d="M49 197 C49 81 120 -11 228 -11 C358 -11 473 112 473 266 C473 380 402 472 295 472 C165 472 49 350 49 197 L49 197 Z M67 197 C67 337 174 454 295 454 C391 454 455 371 455 266 C455 125 349 7 228 7 C134 7 67 91 67 197 L67 197 Z M380 513 C384 511 386 511 389 515 L509 688 C513 693 511 695 508 697 L503 700 C500 702 498 702 495 698 L375 525 C372 520 373 518 376 516 L380 513 Z M231 513 C234 511 236 511 239 515 L360 688 C364 693 362 695 359 697 L354 700 C351 702 349 702 345 698 L226 525 C222 520 224 518 226 516 L231 513 Z " />
<glyph glyph-name="OE" unicode="&#x152;" horiz-adv-x="891" d="M69 300 C69 127 182 -10 345 -10 C372 -10 400 -6 424 0 L786 0 C790 0 792 3 793 7 L794 11 C795 15 792 18 788 18 L434 18 L481 355 L792 355 C795 355 798 358 799 362 L800 366 C801 370 798 373 795 373 L484 373 L527 682 L882 682 C885 682 887 685 888 689 L889 693 C890 697 888 700 884 700 L521 700 C498 706 474 710 447 710 C249 710 69 527 69 300 L69 300 Z M86 302 C86 518 257 692 445 692 C468 692 488 689 509 684 L415 16 C392 10 371 8 348 8 C194 8 86 138 86 302 L86 302 Z " />
<glyph glyph-name="oe" unicode="&#x153;" horiz-adv-x="832" d="M49 198 C49 81 122 -11 229 -11 C296 -11 361 24 408 81 C435 27 487 -11 559 -11 C624 -11 696 23 717 44 C719 46 720 48 719 50 L716 57 C715 59 712 63 706 58 C680 37 625 7 559 7 C494 7 439 43 418 103 L434 216 C463 212 493 211 523 211 C660 211 792 250 792 346 C792 420 722 472 632 472 C551 472 488 433 447 377 C416 433 363 472 296 472 C167 472 49 352 49 198 L49 198 Z M438 234 L453 357 C493 413 557 454 632 454 C715 454 772 401 772 346 C772 264 645 229 519 229 C491 229 464 231 438 234 L438 234 Z M68 198 C68 338 176 454 296 454 C355 454 406 421 436 359 L401 104 C358 46 293 7 229 7 C136 7 68 92 68 198 L68 198 Z " />
<glyph glyph-name="Racute" unicode="&#x154;" horiz-adv-x="599" d="M69 7 C69 3 71 0 75 0 L79 0 C82 0 86 3 86 7 L123 267 L325 267 C334 267 345 267 354 268 L458 0 C459 -3 461 -4 464 -3 L470 -1 C473 0 474 4 473 7 L369 271 C474 292 564 389 564 514 C564 621 489 700 387 700 L173 700 C169 700 166 697 166 693 L69 7 Z M125 284 L181 682 L387 682 C478 682 547 609 547 514 C547 382 445 284 325 284 L125 284 Z M270 777 L446 867 C450 869 452 872 450 876 L447 881 C444 886 442 885 439 884 L263 793 C259 791 258 788 259 786 L262 780 C264 776 265 775 270 777 L270 777 Z " />
<glyph glyph-name="racute" unicode="&#x155;" horiz-adv-x="347" d="M61 0 C66 0 67 3 68 8 L119 360 C128 374 184 454 269 454 C297 454 316 447 331 437 C336 434 340 437 341 439 L343 442 C346 446 346 450 342 453 C329 461 308 472 269 472 C200 472 147 425 123 393 L130 454 C131 459 129 462 126 462 L120 462 C116 462 114 459 113 454 L50 8 C49 3 50 0 56 0 L61 0 Z M170 559 L346 649 C350 651 352 654 350 658 L347 663 C344 668 342 667 339 666 L163 575 C159 573 158 570 159 568 L162 562 C164 558 165 557 170 559 L170 559 Z " />
<glyph glyph-name="Rcommaaccent" unicode="&#x156;" horiz-adv-x="599" d="M69 7 C69 3 71 0 75 0 L79 0 C82 0 86 3 86 7 L123 267 L325 267 C334 267 345 267 354 268 L458 0 C459 -3 461 -4 464 -3 L470 -1 C473 0 474 4 473 7 L369 271 C474 292 564 389 564 514 C564 621 489 700 387 700 L173 700 C169 700 166 697 166 693 L69 7 Z M125 284 L181 682 L387 682 C478 682 547 609 547 514 C547 382 445 284 325 284 L125 284 Z M223 -111 C223 -122 232 -131 244 -131 C251 -131 258 -130 263 -125 C265 -132 265 -135 265 -139 C265 -171 252 -200 229 -217 C224 -220 221 -222 225 -228 L229 -234 C231 -238 233 -238 238 -234 C271 -209 286 -167 286 -131 C286 -103 276 -83 252 -83 C236 -83 223 -96 223 -111 L223 -111 Z " />
<glyph glyph-name="rcommaaccent" unicode="&#x157;" horiz-adv-x="347" d="M61 0 C66 0 67 3 68 8 L119 360 C128 374 184 454 269 454 C297 454 316 447 331 437 C336 434 340 437 341 439 L343 442 C346 446 346 450 342 453 C329 461 308 472 269 472 C200 472 147 425 123 393 L130 454 C131 459 129 462 126 462 L120 462 C116 462 114 459 113 454 L50 8 C49 3 50 0 56 0 L61 0 Z M20 -111 C20 -122 29 -131 41 -131 C48 -131 55 -130 60 -125 C62 -132 62 -135 62 -139 C62 -171 49 -200 26 -217 C21 -220 18 -222 22 -228 L26 -234 C28 -238 30 -238 35 -234 C68 -209 83 -167 83 -131 C83 -103 73 -83 49 -83 C33 -83 20 -96 20 -111 L20 -111 Z " />
<glyph glyph-name="Rcaron" unicode="&#x158;" horiz-adv-x="599" d="M69 7 C69 3 71 0 75 0 L79 0 C82 0 86 3 86 7 L123 267 L325 267 C334 267 345 267 354 268 L458 0 C459 -3 461 -4 464 -3 L470 -1 C473 0 474 4 473 7 L369 271 C474 292 564 389 564 514 C564 621 489 700 387 700 L173 700 C169 700 166 697 166 693 L69 7 Z M125 284 L181 682 L387 682 C478 682 547 609 547 514 C547 382 445 284 325 284 L125 284 Z M334 771 C336 769 339 769 342 771 L469 873 C476 879 478 879 475 885 L472 890 C471 891 470 894 465 891 L339 789 L243 890 C239 893 237 890 236 889 L232 885 C229 882 230 880 233 877 L334 771 Z " />
<glyph glyph-name="rcaron" unicode="&#x159;" horiz-adv-x="347" d="M61 0 C66 0 67 3 68 8 L119 360 C128 374 184 454 269 454 C297 454 316 447 331 437 C336 434 340 437 341 439 L343 442 C346 446 346 450 342 453 C329 461 308 472 269 472 C200 472 147 425 123 393 L130 454 C131 459 129 462 126 462 L120 462 C116 462 114 459 113 454 L50 8 C49 3 50 0 56 0 L61 0 Z M232 553 C234 551 237 551 240 553 L367 655 C374 661 376 661 373 667 L370 672 C369 673 368 676 363 673 L237 571 L141 672 C137 675 135 672 134 671 L130 667 C127 664 128 662 131 659 L232 553 Z " />
<glyph glyph-name="Sacute" unicode="&#x15a;" horiz-adv-x="513" d="M41 73 C50 59 114 -10 224 -10 C345 -10 447 72 447 182 C447 287 378 327 269 365 C178 397 115 428 115 521 C115 595 175 693 317 693 C400 693 457 643 457 643 C460 641 463 642 465 645 L470 651 C472 654 471 657 469 659 C469 659 410 710 317 710 C165 710 98 605 98 521 C98 417 167 384 261 350 C359 315 430 278 430 182 C430 78 329 7 224 7 C123 7 66 71 56 86 C54 89 51 90 48 87 L42 82 C39 79 39 76 41 73 L41 73 Z M256 762 L432 852 C436 854 438 857 436 861 L433 866 C430 871 428 870 425 869 L249 778 C245 776 244 773 245 771 L248 765 C250 761 251 760 256 762 L256 762 Z " />
<glyph glyph-name="sacute" unicode="&#x15b;" horiz-adv-x="402" d="M165 -11 C252 -11 330 44 330 122 C330 196 265 220 193 248 C125 274 85 297 85 352 C85 396 129 454 220 454 C271 454 306 434 324 421 C330 417 331 419 334 423 L337 427 C340 431 340 434 336 437 C318 451 279 472 220 472 C118 472 67 404 67 352 C67 292 106 260 184 232 C254 206 312 185 312 122 C312 55 244 7 165 7 C101 7 64 37 46 56 C43 59 40 59 36 55 L32 51 C28 47 29 43 32 40 C53 20 90 -11 165 -11 L165 -11 Z M175 562 L351 652 C355 654 357 657 355 661 L352 666 C349 671 347 670 344 669 L168 578 C164 576 163 573 164 571 L167 565 C169 561 170 560 175 562 L175 562 Z " />
<glyph glyph-name="Scircumflex" unicode="&#x15c;" horiz-adv-x="513" d="M41 73 C50 59 114 -10 224 -10 C345 -10 447 72 447 182 C447 287 378 327 269 365 C178 397 115 428 115 521 C115 595 175 693 317 693 C400 693 457 643 457 643 C460 641 463 642 465 645 L470 651 C472 654 471 657 469 659 C469 659 410 710 317 710 C165 710 98 605 98 521 C98 417 167 384 261 350 C359 315 430 278 430 182 C430 78 329 7 224 7 C123 7 66 71 56 86 C54 89 51 90 48 87 L42 82 C39 79 39 76 41 73 L41 73 Z M219 748 L345 850 L441 749 C445 746 447 749 448 750 L452 754 C455 757 454 759 451 762 L350 868 C348 870 345 870 342 868 L215 766 C208 760 206 760 209 754 L212 749 C213 748 214 745 219 748 L219 748 Z " />
<glyph glyph-name="scircumflex" unicode="&#x15d;" horiz-adv-x="402" d="M165 -11 C252 -11 330 44 330 122 C330 196 265 220 193 248 C125 274 85 297 85 352 C85 396 129 454 220 454 C271 454 306 434 324 421 C330 417 331 419 334 423 L337 427 C340 431 340 434 336 437 C318 451 279 472 220 472 C118 472 67 404 67 352 C67 292 106 260 184 232 C254 206 312 185 312 122 C312 55 244 7 165 7 C101 7 64 37 46 56 C43 59 40 59 36 55 L32 51 C28 47 29 43 32 40 C53 20 90 -11 165 -11 L165 -11 Z M121 551 L247 653 L343 552 C347 549 349 552 350 553 L354 557 C357 560 356 562 353 565 L252 671 C250 673 247 673 244 671 L117 569 C110 563 108 563 111 557 L114 552 C115 551 116 548 121 551 L121 551 Z " />
<glyph glyph-name="Scedilla" unicode="&#x15e;" horiz-adv-x="513" d="M41 73 C49 59 109 -4 211 -9 L154 -87 C151 -91 155 -101 161 -98 C176 -92 191 -89 210 -89 C244 -89 269 -105 269 -141 C269 -189 228 -217 187 -217 C157 -217 139 -205 126 -188 C124 -185 120 -184 117 -187 L113 -191 C109 -195 109 -198 112 -201 C126 -219 151 -235 188 -235 C246 -235 288 -194 288 -140 C288 -91 249 -71 212 -71 C200 -71 191 -73 182 -76 L233 -10 C350 -6 447 74 447 182 C447 287 378 327 269 365 C178 397 115 428 115 521 C115 595 175 693 317 693 C400 693 457 643 457 643 C460 641 463 642 465 645 L470 651 C472 654 471 657 469 659 C469 659 410 710 317 710 C165 710 98 605 98 521 C98 417 167 384 261 350 C359 315 430 278 430 182 C430 78 329 7 224 7 C123 7 66 71 56 86 C54 89 51 90 48 87 L42 82 C39 79 39 76 41 73 L41 73 Z " />
<glyph glyph-name="scedilla" unicode="&#x15f;" horiz-adv-x="402" d="M330 122 C330 196 265 220 193 248 C125 274 85 297 85 352 C85 396 129 454 220 454 C271 454 306 434 324 421 C330 417 333 419 335 423 L337 427 C339 431 340 434 336 437 C318 451 279 472 220 472 C118 472 67 404 67 352 C67 292 106 260 184 232 C254 206 312 185 312 122 C312 55 244 7 165 7 C101 7 64 37 46 56 C43 59 40 59 36 55 L32 51 C28 47 29 43 32 40 C51 21 85 -7 151 -11 L95 -87 C92 -91 96 -101 102 -98 C117 -92 132 -89 151 -89 C185 -89 210 -105 210 -141 C210 -189 169 -217 128 -217 C98 -217 80 -205 67 -188 C65 -185 61 -184 58 -187 L54 -191 C50 -195 50 -198 53 -201 C67 -219 92 -235 129 -235 C187 -235 229 -194 229 -140 C229 -91 190 -71 153 -71 C141 -71 132 -73 123 -76 L173 -11 C257 -7 330 46 330 122 L330 122 Z " />
<glyph glyph-name="Scaron" unicode="&#x160;" horiz-adv-x="513" d="M41 73 C50 59 114 -10 224 -10 C345 -10 447 72 447 182 C447 287 378 327 269 365 C178 397 115 428 115 521 C115 595 175 693 317 693 C400 693 457 643 457 643 C460 641 463 642 465 645 L470 651 C472 654 471 657 469 659 C469 659 410 710 317 710 C165 710 98 605 98 521 C98 417 167 384 261 350 C359 315 430 278 430 182 C430 78 329 7 224 7 C123 7 66 71 56 86 C54 89 51 90 48 87 L42 82 C39 79 39 76 41 73 L41 73 Z M328 756 C330 754 333 754 336 756 L463 858 C470 864 472 864 469 870 L466 875 C465 876 464 879 459 876 L333 774 L237 875 C233 878 231 875 230 874 L226 870 C223 867 224 865 227 862 L328 756 Z " />
<glyph glyph-name="scaron" unicode="&#x161;" horiz-adv-x="402" d="M165 -11 C252 -11 330 44 330 122 C330 196 265 220 193 248 C125 274 85 297 85 352 C85 396 129 454 220 454 C271 454 306 434 324 421 C330 417 331 419 334 423 L337 427 C340 431 340 434 336 437 C318 451 279 472 220 472 C118 472 67 404 67 352 C67 292 106 260 184 232 C254 206 312 185 312 122 C312 55 244 7 165 7 C101 7 64 37 46 56 C43 59 40 59 36 55 L32 51 C28 47 29 43 32 40 C53 20 90 -11 165 -11 L165 -11 Z M232 556 C234 554 237 554 240 556 L367 658 C374 664 376 664 373 670 L370 675 C369 676 368 679 363 676 L237 574 L141 675 C137 678 135 675 134 674 L130 670 C127 667 128 665 131 662 L232 556 Z " />
<glyph glyph-name="Tcommaaccent" unicode="&#x162;" horiz-adv-x="463" d="M294 682 L482 682 C486 682 488 684 489 688 L490 693 C491 697 488 700 484 700 L92 700 C89 700 86 698 85 694 L84 689 C83 685 86 682 90 682 L276 682 L181 10 L111 -87 C108 -91 112 -101 118 -98 C133 -92 148 -89 167 -89 C201 -89 226 -105 226 -141 C226 -189 185 -217 144 -217 C114 -217 96 -205 83 -188 C81 -185 77 -184 74 -187 L70 -191 C66 -195 66 -198 69 -201 C83 -219 108 -235 145 -235 C203 -235 245 -194 245 -140 C245 -91 206 -71 169 -71 C157 -71 148 -73 139 -76 L192 -4 C196 2 199 6 200 14 L294 682 Z " />
<glyph glyph-name="tcommaaccent" unicode="&#x163;" horiz-adv-x="324" d="M277 29 C280 31 282 34 280 37 L277 43 C275 46 272 48 267 45 C252 35 199 7 150 7 C83 7 85 59 94 124 L139 444 L307 444 C312 444 315 448 316 452 L317 454 C318 459 315 462 310 462 L142 462 L158 587 C159 591 156 594 152 594 L147 594 C144 594 142 591 141 587 L124 462 L79 462 C75 462 73 459 72 454 L71 452 C70 448 72 444 75 444 L121 444 L76 124 C65 50 70 -6 140 -10 L83 -87 C80 -91 84 -101 90 -98 C105 -92 120 -89 139 -89 C173 -89 198 -105 198 -141 C198 -189 157 -217 116 -217 C86 -217 68 -205 55 -188 C53 -185 49 -184 46 -187 L42 -191 C38 -195 38 -198 41 -201 C55 -219 80 -235 117 -235 C175 -235 217 -194 217 -140 C217 -91 178 -71 141 -71 C129 -71 120 -73 111 -76 L161 -10 C209 -6 262 19 277 29 L277 29 Z " />
<glyph glyph-name="Tcaron" unicode="&#x164;" horiz-adv-x="463" d="M181 7 C180 3 183 0 187 0 L191 0 C195 0 198 3 199 7 L294 682 L482 682 C486 682 488 684 489 688 L490 693 C491 697 488 700 484 700 L92 700 C89 700 86 698 85 694 L84 689 C83 685 86 682 90 682 L276 682 L181 7 Z M291 771 C293 769 296 769 299 771 L426 873 C433 879 435 879 432 885 L429 890 C428 891 427 894 422 891 L296 789 L200 890 C196 893 194 890 193 889 L189 885 C186 882 187 880 190 877 L291 771 Z " />
<glyph glyph-name="tcaron" unicode="&#x165;" horiz-adv-x="322" d="M148 -11 C198 -11 259 19 275 29 C278 31 280 34 278 37 L275 43 C273 46 270 48 265 45 C250 35 197 7 148 7 C81 7 83 59 92 124 L137 444 L305 444 C310 444 313 448 314 452 L315 454 C316 459 313 462 308 462 L140 462 L156 587 C157 591 154 594 150 594 L145 594 C142 594 140 591 139 587 L122 462 L77 462 C73 462 71 459 70 454 L69 452 C68 448 70 444 73 444 L119 444 L74 124 C63 47 69 -11 148 -11 L148 -11 Z M323 682 C323 671 332 662 344 662 C351 662 358 663 363 668 C365 661 365 658 365 654 C365 622 352 593 329 576 C324 573 321 571 325 565 L329 559 C331 555 333 555 338 559 C371 584 386 626 386 662 C386 690 376 710 352 710 C336 710 323 697 323 682 L323 682 Z " />
<glyph glyph-name="Tbar" unicode="&#x166;" horiz-adv-x="464" d="M183 7 C182 3 185 0 188 0 L192 0 C196 0 200 3 200 7 L242 311 L378 311 C382 311 384 314 385 318 L386 322 C387 326 384 328 380 328 L245 328 L295 682 L483 682 C487 682 490 685 491 689 L492 693 C493 697 490 700 486 700 L94 700 C90 700 88 698 87 694 L86 689 C85 685 87 682 91 682 L278 682 L228 328 L98 328 C94 328 91 325 90 322 L89 318 C88 314 91 311 94 311 L226 311 L183 7 Z " />
<glyph glyph-name="tbar" unicode="&#x167;" horiz-adv-x="322" d="M148 -11 C198 -11 259 19 275 29 C278 31 280 34 278 37 L275 43 C273 46 270 48 265 45 C250 35 197 7 148 7 C81 7 83 59 92 124 L107 233 L236 233 C240 233 242 236 243 240 L244 244 C245 248 242 250 238 250 L110 250 L137 444 L305 444 C310 444 313 446 314 450 L315 454 C316 459 313 462 308 462 L140 462 L156 587 C157 591 154 594 150 594 L145 594 C142 594 140 591 139 587 L122 462 L77 462 C73 462 71 459 70 454 L69 450 C68 446 70 444 73 444 L119 444 L92 250 L57 250 C53 250 50 247 50 244 L49 240 C48 236 51 233 55 233 L89 233 L74 124 C63 47 69 -11 148 -11 L148 -11 Z " />
<glyph glyph-name="Utilde" unicode="&#x168;" horiz-adv-x="667" d="M96 252 C94 235 92 217 92 201 C92 74 167 -10 291 -10 C445 -10 540 98 562 252 L624 693 C625 697 622 700 619 700 L614 700 C610 700 607 697 606 693 L544 252 C524 108 426 8 294 8 C177 8 110 85 110 202 C110 218 111 235 114 252 L175 693 C176 697 174 700 170 700 L165 700 C162 700 159 697 158 693 L96 252 Z M287 802 C289 801 292 802 294 807 C300 822 326 880 365 880 C418 880 390 772 459 772 C513 772 540 838 548 856 C551 861 549 864 545 865 L538 867 C535 868 533 866 531 861 C523 841 502 789 461 789 C405 789 438 897 367 897 C314 897 285 832 277 813 C275 808 276 805 280 804 L287 802 Z " />
<glyph glyph-name="utilde" unicode="&#x169;" horiz-adv-x="496" d="M202 7 C108 7 70 69 90 201 L125 454 C126 459 124 462 119 462 L115 462 C110 462 108 460 107 455 L71 201 C51 61 91 -11 202 -11 C280 -11 328 37 356 69 L348 8 C347 3 350 0 353 0 L358 0 C362 0 365 3 366 8 L429 454 C430 459 427 462 423 462 L418 462 C413 462 411 459 410 454 L360 101 C353 90 299 7 202 7 L202 7 Z M166 583 C168 582 171 583 173 588 C179 603 205 661 244 661 C297 661 269 553 338 553 C392 553 419 619 427 637 C430 642 428 645 424 646 L417 648 C414 649 412 647 410 642 C402 622 381 570 340 570 C284 570 317 678 246 678 C193 678 164 613 156 594 C154 589 155 586 159 585 L166 583 Z " />
<glyph glyph-name="Umacron" unicode="&#x16a;" horiz-adv-x="667" d="M96 252 C94 235 92 217 92 201 C92 74 167 -10 291 -10 C445 -10 540 98 562 252 L624 693 C625 697 622 700 619 700 L614 700 C610 700 607 697 606 693 L544 252 C524 108 426 8 294 8 C177 8 110 85 110 202 C110 218 111 235 114 252 L175 693 C176 697 174 700 170 700 L165 700 C162 700 159 697 158 693 L96 252 Z M284 842 L543 842 C547 842 549 845 550 849 L551 853 C552 857 549 860 545 860 L287 860 C283 860 280 857 279 853 L278 849 C277 845 279 842 284 842 L284 842 Z " />
<glyph glyph-name="umacron" unicode="&#x16b;" horiz-adv-x="496" d="M202 7 C108 7 70 69 90 201 L125 454 C126 459 124 462 119 462 L115 462 C110 462 108 460 107 455 L71 201 C51 61 91 -11 202 -11 C280 -11 328 37 356 69 L348 8 C347 3 350 0 353 0 L358 0 C362 0 365 3 366 8 L429 454 C430 459 427 462 423 462 L418 462 C413 462 411 459 410 454 L360 101 C353 90 299 7 202 7 L202 7 Z M156 607 L415 607 C419 607 421 610 422 614 L423 618 C424 622 421 625 417 625 L159 625 C155 625 152 622 151 618 L150 614 C149 610 151 607 156 607 L156 607 Z " />
<glyph glyph-name="Ubreve" unicode="&#x16c;" horiz-adv-x="667" d="M96 252 C94 235 92 217 92 201 C92 74 167 -10 291 -10 C445 -10 540 98 562 252 L624 693 C625 697 622 700 619 700 L614 700 C610 700 607 697 606 693 L544 252 C524 108 426 8 294 8 C177 8 110 85 110 202 C110 218 111 235 114 252 L175 693 C176 697 174 700 170 700 L165 700 C162 700 159 697 158 693 L96 252 Z M409 780 C469 780 521 827 539 887 C540 891 540 895 535 895 L527 895 C524 895 522 893 521 889 C505 835 460 798 411 798 C360 798 325 835 326 889 C326 892 325 895 321 895 L315 895 C312 895 310 892 310 887 C310 827 349 780 409 780 L409 780 Z " />
<glyph glyph-name="ubreve" unicode="&#x16d;" horiz-adv-x="496" d="M202 7 C108 7 70 69 90 201 L125 454 C126 459 124 462 119 462 L115 462 C110 462 108 460 107 455 L71 201 C51 61 91 -11 202 -11 C280 -11 328 37 356 69 L348 8 C347 3 350 0 353 0 L358 0 C362 0 365 3 366 8 L429 454 C430 459 427 462 423 462 L418 462 C413 462 411 459 410 454 L360 101 C353 90 299 7 202 7 L202 7 Z M278 545 C338 545 390 592 408 652 C409 656 409 660 404 660 L396 660 C393 660 391 658 390 654 C374 600 329 563 280 563 C229 563 194 600 195 654 C195 657 194 660 190 660 L184 660 C181 660 179 657 179 652 C179 592 218 545 278 545 L278 545 Z " />
<glyph glyph-name="Uring" unicode="&#x16e;" horiz-adv-x="667" d="M96 252 C94 235 92 217 92 201 C92 74 167 -10 291 -10 C445 -10 540 98 562 252 L624 693 C625 697 622 700 619 700 L614 700 C610 700 607 697 606 693 L544 252 C524 108 426 8 294 8 C177 8 110 85 110 202 C110 218 111 235 114 252 L175 693 C176 697 174 700 170 700 L165 700 C162 700 159 697 158 693 L96 252 Z M401 750 C458 750 510 802 510 868 C510 918 477 958 430 958 C372 958 320 905 320 839 C320 789 353 750 401 750 L401 750 Z M403 767 C359 767 338 801 338 843 C338 896 381 941 428 941 C469 941 493 906 493 865 C493 811 449 767 403 767 L403 767 Z " />
<glyph glyph-name="uring" unicode="&#x16f;" horiz-adv-x="496" d="M202 7 C108 7 70 69 90 201 L125 454 C126 459 124 462 119 462 L115 462 C110 462 108 460 107 455 L71 201 C51 61 91 -11 202 -11 C280 -11 328 37 356 69 L348 8 C347 3 350 0 353 0 L358 0 C362 0 365 3 366 8 L429 454 C430 459 427 462 423 462 L418 462 C413 462 411 459 410 454 L360 101 C353 90 299 7 202 7 L202 7 Z M273 510 C330 510 382 562 382 628 C382 678 349 718 302 718 C244 718 192 665 192 599 C192 549 225 510 273 510 L273 510 Z M275 527 C231 527 210 561 210 603 C210 656 253 701 300 701 C341 701 365 666 365 625 C365 571 321 527 275 527 L275 527 Z " />
<glyph glyph-name="Uhungarumlaut" unicode="&#x170;" horiz-adv-x="667" d="M96 252 C94 235 92 217 92 201 C92 74 167 -10 291 -10 C445 -10 540 98 562 252 L624 693 C625 697 622 700 619 700 L614 700 C610 700 607 697 606 693 L544 252 C524 108 426 8 294 8 C177 8 110 85 110 202 C110 218 111 235 114 252 L175 693 C176 697 174 700 170 700 L165 700 C162 700 159 697 158 693 L96 252 Z M465 757 C468 755 470 755 474 759 L594 932 C598 937 596 939 593 941 L588 944 C585 946 583 946 580 942 L460 769 C456 764 458 762 460 760 L465 757 Z M316 757 C319 755 321 755 324 759 L445 932 C448 937 447 939 444 941 L439 944 C435 946 433 946 430 942 L310 769 C307 764 308 762 311 760 L316 757 Z " />
<glyph glyph-name="uhungarumlaut" unicode="&#x171;" horiz-adv-x="496" d="M202 7 C108 7 70 69 90 201 L125 454 C126 459 124 462 119 462 L115 462 C110 462 108 460 107 455 L71 201 C51 61 91 -11 202 -11 C280 -11 328 37 356 69 L348 8 C347 3 350 0 353 0 L358 0 C362 0 365 3 366 8 L429 454 C430 459 427 462 423 462 L418 462 C413 462 411 459 410 454 L360 101 C353 90 299 7 202 7 L202 7 Z M349 513 C353 511 355 511 358 515 L478 688 C482 693 480 695 477 697 L472 700 C469 702 467 702 464 698 L344 525 C341 520 342 518 345 516 L349 513 Z M200 513 C203 511 205 511 208 515 L329 688 C333 693 331 695 328 697 L323 700 C320 702 318 702 314 698 L195 525 C191 520 193 518 195 516 L200 513 Z " />
<glyph glyph-name="Uogonek" unicode="&#x172;" horiz-adv-x="667" d="M96 252 C74 98 151 -10 291 -10 C298 -10 306 -9 313 -9 C252 -45 202 -92 202 -159 C202 -203 227 -238 280 -238 C310 -238 343 -223 358 -214 C363 -211 366 -208 364 -204 L360 -198 C357 -194 354 -195 351 -197 C346 -201 314 -220 281 -220 C240 -220 220 -192 220 -158 C220 -77 303 -31 365 -1 C475 28 544 124 562 252 L624 693 C625 697 622 700 619 700 L614 700 C610 700 607 697 606 693 L544 252 C524 108 426 8 294 8 C161 8 93 108 114 252 L175 693 C176 697 174 700 170 700 L165 700 C162 700 159 697 158 693 L96 252 Z " />
<glyph glyph-name="uogonek" unicode="&#x173;" horiz-adv-x="495" d="M202 7 C108 7 70 69 90 201 L125 454 C126 459 124 462 119 462 L115 462 C110 462 108 460 107 455 L71 201 C51 61 91 -11 202 -11 C280 -11 328 37 356 69 L349 14 C271 -25 194 -76 194 -159 C194 -203 219 -238 272 -238 C302 -238 335 -223 350 -214 C355 -211 358 -208 356 -204 L352 -198 C349 -194 346 -195 343 -197 C338 -201 306 -220 273 -220 C232 -220 212 -192 212 -158 C212 -76 297 -30 359 0 C363 2 365 4 366 9 L429 454 C430 459 427 462 423 462 L418 462 C413 462 411 459 410 454 L360 101 C353 90 299 7 202 7 L202 7 Z " />
<glyph glyph-name="Wcircumflex" unicode="&#x174;" horiz-adv-x="805" d="M181 -12 C182 -19 190 -19 193 -12 L454 666 L533 -12 C534 -19 542 -19 545 -12 L821 691 C823 695 822 698 819 699 L812 702 C809 703 806 702 805 699 L544 32 L466 708 C465 715 456 715 453 708 L193 31 L113 697 C113 700 111 703 108 702 L99 700 C96 699 95 697 95 694 L181 -12 Z M357 763 L483 865 L579 764 C583 761 585 764 586 765 L590 769 C593 772 592 774 589 777 L488 883 C486 885 483 885 480 883 L353 781 C346 775 344 775 347 769 L350 764 C351 763 352 760 357 763 L357 763 Z " />
<glyph glyph-name="wcircumflex" unicode="&#x175;" horiz-adv-x="637" d="M137 -12 C138 -20 148 -19 152 -12 L340 440 L401 -12 C403 -20 412 -19 417 -12 L619 458 C621 462 621 465 617 466 L610 469 C606 470 605 469 603 465 L413 25 L352 474 C349 485 339 484 336 475 L149 26 L82 464 C81 468 80 470 74 469 L69 468 C64 467 64 462 65 458 L137 -12 Z M245 548 L371 650 L467 549 C471 546 473 549 474 550 L478 554 C481 557 480 559 477 562 L376 668 C374 670 371 670 368 668 L241 566 C234 560 232 560 235 554 L238 549 C239 548 240 545 245 548 L245 548 Z " />
<glyph glyph-name="Ycircumflex" unicode="&#x176;" horiz-adv-x="509" d="M204 7 C203 2 205 0 209 0 L215 0 C219 0 221 2 222 6 L269 344 L555 688 C558 691 559 695 555 697 L548 701 C545 703 542 701 540 698 L261 360 L79 697 C77 700 75 702 71 700 L65 697 C61 695 61 691 63 688 L251 343 L204 7 Z M208 763 L334 865 L430 764 C434 761 436 764 437 765 L441 769 C444 772 443 774 440 777 L339 883 C337 885 334 885 331 883 L204 781 C197 775 195 775 198 769 L201 764 C202 763 203 760 208 763 L208 763 Z " />
<glyph glyph-name="ycircumflex" unicode="&#x177;" horiz-adv-x="440" d="M173 10 L44 -230 C41 -236 43 -238 46 -240 L50 -242 C54 -244 56 -244 59 -239 L434 457 C436 461 435 464 431 466 L426 468 C422 470 419 468 417 465 L185 30 L71 463 C70 466 67 468 63 467 L57 465 C54 464 53 461 54 457 L173 10 Z M151 548 L277 650 L373 549 C377 546 379 549 380 550 L384 554 C387 557 386 559 383 562 L282 668 C280 670 277 670 274 668 L147 566 C140 560 138 560 141 554 L144 549 C145 548 146 545 151 548 L151 548 Z " />
<glyph glyph-name="Ydieresis" unicode="&#x178;" horiz-adv-x="509" d="M204 7 C203 2 205 0 209 0 L215 0 C219 0 221 2 222 6 L269 344 L555 688 C558 691 559 695 555 697 L548 701 C545 703 542 701 540 698 L261 360 L79 697 C77 700 75 702 71 700 L65 697 C61 695 61 691 63 688 L251 343 L204 7 Z M421 808 C433 808 445 818 445 833 C445 845 439 853 427 853 C414 853 402 843 402 827 C402 816 409 808 421 808 L421 808 Z M234 808 C247 808 259 818 259 833 C259 845 252 853 240 853 C228 853 215 843 215 827 C215 816 222 808 234 808 L234 808 Z " />
<glyph glyph-name="Zacute" unicode="&#x179;" horiz-adv-x="476" d="M-8 0 L379 0 C383 0 386 3 387 7 L388 11 C389 15 387 18 383 18 L15 18 L502 689 C505 694 503 700 497 700 L121 700 C117 700 115 697 114 693 L113 689 C112 685 114 682 118 682 L474 682 L-12 11 C-16 6 -14 0 -8 0 L-8 0 Z M249 777 L425 867 C429 869 431 872 429 876 L426 881 C423 886 421 885 418 884 L242 793 C238 791 237 788 238 786 L241 780 C243 776 244 775 249 777 L249 777 Z " />
<glyph glyph-name="zacute" unicode="&#x17a;" horiz-adv-x="394" d="M1 0 L295 0 C299 0 302 2 303 7 L304 11 C305 15 302 18 298 18 L25 18 L377 449 C382 455 379 462 372 462 L94 462 C90 462 87 461 86 456 L85 451 C84 447 87 444 92 444 L348 444 L-3 13 C-8 7 -6 0 1 0 L1 0 Z M180 559 L356 649 C360 651 362 654 360 658 L357 663 C354 668 352 667 349 666 L173 575 C169 573 168 570 169 568 L172 562 C174 558 175 557 180 559 L180 559 Z " />
<glyph glyph-name="Zdotaccent" unicode="&#x17b;" horiz-adv-x="476" d="M-8 0 L379 0 C383 0 386 3 387 7 L388 11 C389 15 387 18 383 18 L15 18 L502 689 C505 694 503 700 497 700 L121 700 C117 700 115 697 114 693 L113 689 C112 685 114 682 118 682 L474 682 L-12 11 C-16 6 -14 0 -8 0 L-8 0 Z M325 819 C340 819 351 832 351 846 C351 857 344 867 332 867 C318 867 305 854 305 840 C305 829 312 819 325 819 L325 819 Z " />
<glyph glyph-name="zdotaccent" unicode="&#x17c;" horiz-adv-x="394" d="M1 0 L295 0 C299 0 302 2 303 7 L304 11 C305 15 302 18 298 18 L25 18 L377 449 C382 455 379 462 372 462 L94 462 C90 462 87 461 86 456 L85 451 C84 447 87 444 92 444 L348 444 L-3 13 C-8 7 -6 0 1 0 L1 0 Z M242 605 C257 605 268 618 268 632 C268 643 261 653 249 653 C235 653 222 640 222 626 C222 615 229 605 242 605 L242 605 Z " />
<glyph glyph-name="Zcaron" unicode="&#x17d;" horiz-adv-x="476" d="M-8 0 L379 0 C383 0 386 3 387 7 L388 11 C389 15 387 18 383 18 L15 18 L502 689 C505 694 503 700 497 700 L121 700 C117 700 115 697 114 693 L113 689 C112 685 114 682 118 682 L474 682 L-12 11 C-16 6 -14 0 -8 0 L-8 0 Z M308 771 C310 769 313 769 316 771 L443 873 C450 879 452 879 449 885 L446 890 C445 891 444 894 439 891 L313 789 L217 890 C213 893 211 890 210 889 L206 885 C203 882 204 880 207 877 L308 771 Z " />
<glyph glyph-name="zcaron" unicode="&#x17e;" horiz-adv-x="394" d="M1 0 L295 0 C299 0 302 2 303 7 L304 11 C305 15 302 18 298 18 L25 18 L377 449 C382 455 379 462 372 462 L94 462 C90 462 87 461 86 456 L85 451 C84 447 87 444 92 444 L348 444 L-3 13 C-8 7 -6 0 1 0 L1 0 Z M233 553 C235 551 238 551 241 553 L368 655 C375 661 377 661 374 667 L371 672 C370 673 369 676 364 673 L238 571 L142 672 C138 675 136 672 135 671 L131 667 C128 664 129 662 132 659 L233 553 Z " />
<glyph glyph-name="florin" unicode="&#x192;" horiz-adv-x="352" d="M84 -72 C69 -180 15 -230 -55 -230 C-100 -230 -127 -208 -140 -192 C-142 -189 -146 -189 -149 -192 L-153 -195 C-156 -198 -156 -202 -154 -205 C-140 -223 -108 -248 -57 -248 C23 -248 85 -192 102 -72 L165 382 L326 382 C330 382 333 385 334 389 L335 393 C336 397 332 400 329 400 L168 400 L186 534 C202 642 255 692 325 692 C370 692 397 670 410 654 C412 651 416 651 419 654 L423 657 C426 660 427 664 424 667 C410 685 378 710 328 710 C248 710 186 654 169 534 L150 400 L52 400 C48 400 46 397 45 393 L44 389 C43 385 46 382 50 382 L147 382 L84 -72 Z " />
<glyph glyph-name="Aringacute" unicode="&#x1fa;" horiz-adv-x="590" d="M315 937 L491 1027 C495 1029 497 1032 495 1036 L492 1041 C489 1046 487 1045 484 1044 L308 953 C304 951 303 948 304 946 L307 940 C309 936 310 935 315 937 L315 937 Z M-7 1 L103 210 L472 210 L522 2 C523 -1 526 -2 529 -1 L534 1 C537 2 539 4 538 8 L368 708 C422 711 471 762 471 826 C471 876 438 916 391 916 C333 916 281 863 281 797 C281 751 308 715 349 709 L-23 7 C-24 5 -24 2 -21 1 L-13 -2 C-9 -3 -8 -1 -7 1 L-7 1 Z M364 724 C320 724 298 759 298 801 C298 854 342 900 389 900 C430 900 455 864 455 823 C455 769 410 724 364 724 L364 724 Z M113 227 L356 688 L357 688 L467 227 L113 227 Z " />
<glyph glyph-name="aringacute" unicode="&#x1fb;" horiz-adv-x="520" d="M307 511 C364 511 416 563 416 629 C416 679 383 719 336 719 C278 719 226 666 226 600 C226 550 259 511 307 511 L307 511 Z M309 527 C265 527 243 562 243 604 C243 657 287 703 334 703 C375 703 400 667 400 626 C400 572 355 527 309 527 L309 527 Z M261 722 L437 812 C441 814 443 817 441 821 L438 826 C435 831 433 830 430 829 L254 738 C250 736 249 733 250 731 L253 725 C255 721 256 720 261 722 L261 722 Z M50 195 C50 80 114 -11 220 -11 C294 -11 359 36 382 67 L374 8 C373 3 375 0 379 0 L384 0 C388 0 391 3 392 8 L454 454 C455 459 452 462 449 462 L444 462 C441 462 439 459 438 454 L430 412 C409 436 363 472 288 472 C156 472 50 351 50 195 L50 195 Z M68 196 C68 342 166 454 288 454 C380 454 422 393 426 385 L386 101 C360 58 294 7 220 7 C127 7 68 91 68 196 L68 196 Z " />
<glyph glyph-name="AEacute" unicode="&#x1fc;" horiz-adv-x="840" d="M-24 0 L128 210 L391 210 L363 7 C362 3 365 0 369 0 L734 0 C737 0 740 3 741 7 L742 11 C743 15 740 18 736 18 L381 18 L429 355 L740 355 C746 355 749 360 749 367 C749 371 746 373 743 373 L431 373 L475 682 L830 682 C833 682 836 685 837 689 L838 693 C839 697 836 700 832 700 L468 700 C465 700 462 699 461 697 L-38 10 C-42 5 -40 4 -37 2 L-32 -1 C-29 -3 -26 -3 -24 0 L-24 0 Z M140 227 L455 661 L394 227 L140 227 Z M571 778 L747 868 C751 870 753 873 751 877 L748 882 C745 887 743 886 740 885 L564 794 C560 792 559 789 560 787 L563 781 C565 777 566 776 571 778 L571 778 Z " />
<glyph glyph-name="aeacute" unicode="&#x1fd;" horiz-adv-x="753" d="M370 236 C375 281 383 338 382 374 C419 423 487 454 550 454 C638 454 693 406 693 346 C693 271 602 227 471 228 C434 228 395 231 370 236 L370 236 Z M46 124 C46 218 125 284 232 284 C289 284 339 260 354 255 L329 81 C302 52 229 7 154 7 C80 7 46 54 46 124 L46 124 Z M367 218 C393 214 433 210 471 210 C614 209 711 261 711 346 C711 416 649 472 551 472 C488 472 423 446 380 400 C371 449 336 472 267 472 C182 472 123 433 123 433 C121 432 117 429 119 424 L122 418 C124 414 126 414 130 416 C149 425 185 454 264 454 C369 454 373 395 356 275 C335 285 285 302 233 302 C113 302 28 228 28 122 C28 40 74 -11 155 -11 C229 -11 303 31 337 64 C363 23 420 -11 487 -11 C554 -11 614 21 637 40 C641 44 643 46 641 50 L637 56 C635 59 633 60 630 58 C602 37 554 7 489 7 C433 7 379 31 349 82 L367 218 Z M371 559 L547 649 C551 651 553 654 551 658 L548 663 C545 668 543 667 540 666 L364 575 C360 573 359 570 360 568 L363 562 C365 558 366 557 371 559 L371 559 Z " />
<glyph glyph-name="Oslashacute" unicode="&#x1fe;" horiz-adv-x="781" d="M52 34 L55 31 C58 28 60 29 63 31 L132 94 C182 28 260 -10 351 -10 C550 -10 729 171 729 396 C729 466 707 541 673 593 L744 658 C747 661 747 664 745 668 L743 671 C741 675 737 674 734 671 L663 606 C614 671 536 710 447 710 C248 710 70 527 70 301 C70 232 90 159 123 108 L54 44 C51 41 49 37 52 34 L52 34 Z M136 120 C105 167 88 237 88 301 C88 518 259 692 447 692 C531 692 602 655 650 594 L136 120 Z M147 107 L660 581 C692 533 711 461 711 395 C711 180 539 8 351 8 C265 8 193 44 147 107 L147 107 Z M388 777 L564 867 C568 869 570 872 568 876 L565 881 C562 886 560 885 557 884 L381 793 C377 791 376 788 377 786 L380 780 C382 776 383 775 388 777 L388 777 Z " />
<glyph glyph-name="oslashacute" unicode="&#x1ff;" horiz-adv-x="537" d="M49 197 C49 155 58 116 75 83 L49 61 C46 58 43 56 47 50 L49 47 C51 44 57 43 60 46 L85 68 C116 20 166 -11 228 -11 C358 -11 473 112 473 266 C473 307 464 345 447 377 L482 408 C485 413 485 416 483 420 L480 424 C478 427 473 426 470 424 L436 395 C405 442 356 472 295 472 C165 472 49 350 49 197 L49 197 Z M455 266 C455 125 349 7 228 7 C173 7 128 36 99 80 L433 366 C447 338 455 302 455 266 L455 266 Z M67 197 C67 337 174 454 295 454 C350 454 395 426 423 382 L90 95 C75 124 67 160 67 197 L67 197 Z M252 559 L428 649 C432 651 434 654 432 658 L429 663 C426 668 424 667 421 666 L245 575 C241 573 240 570 241 568 L244 562 C246 558 247 557 252 559 L252 559 Z " />
<glyph glyph-name="Scommaaccent" unicode="&#x218;" horiz-adv-x="513" d="M41 73 C50 59 114 -10 224 -10 C345 -10 447 72 447 182 C447 287 378 327 269 365 C178 397 115 428 115 521 C115 595 175 693 317 693 C400 693 457 643 457 643 C460 641 463 642 465 645 L470 651 C472 654 471 657 469 659 C469 659 410 710 317 710 C165 710 98 605 98 521 C98 417 167 384 261 350 C359 315 430 278 430 182 C430 78 329 7 224 7 C123 7 66 71 56 86 C54 89 51 90 48 87 L42 82 C39 79 39 76 41 73 L41 73 Z M170 -126 C170 -137 179 -146 191 -146 C198 -146 205 -145 210 -140 C212 -147 212 -150 212 -154 C212 -186 199 -215 176 -232 C171 -235 168 -237 172 -243 L176 -249 C178 -253 180 -253 185 -249 C218 -224 233 -182 233 -146 C233 -118 223 -98 199 -98 C183 -98 170 -111 170 -126 L170 -126 Z " />
<glyph glyph-name="scommaaccent" unicode="&#x219;" horiz-adv-x="402" d="M165 -11 C252 -11 330 44 330 122 C330 196 265 220 193 248 C125 274 85 297 85 352 C85 396 129 454 220 454 C271 454 306 434 324 421 C330 417 331 419 334 423 L337 427 C340 431 340 434 336 437 C318 451 279 472 220 472 C118 472 67 404 67 352 C67 292 106 260 184 232 C254 206 312 185 312 122 C312 55 244 7 165 7 C101 7 64 37 46 56 C43 59 40 59 36 55 L32 51 C28 47 29 43 32 40 C53 20 90 -11 165 -11 L165 -11 Z M112 -108 C112 -119 121 -128 133 -128 C140 -128 147 -127 152 -122 C154 -129 154 -132 154 -136 C154 -168 141 -197 118 -214 C113 -217 110 -219 114 -225 L118 -231 C120 -235 122 -235 127 -231 C160 -206 175 -164 175 -128 C175 -100 165 -80 141 -80 C125 -80 112 -93 112 -108 L112 -108 Z " />
<glyph glyph-name="uni021A" unicode="&#x21a;" horiz-adv-x="463" d="M181 7 C180 3 183 0 187 0 L191 0 C195 0 198 3 199 7 L294 682 L482 682 C486 682 488 684 489 688 L490 693 C491 697 488 700 484 700 L92 700 C89 700 86 698 85 694 L84 689 C83 685 86 682 90 682 L276 682 L181 7 Z M142 -111 C142 -122 151 -131 163 -131 C170 -131 177 -130 182 -125 C184 -132 184 -135 184 -139 C184 -171 171 -200 148 -217 C143 -220 140 -222 144 -228 L148 -234 C150 -238 152 -238 157 -234 C190 -209 205 -167 205 -131 C205 -103 195 -83 171 -83 C155 -83 142 -96 142 -111 L142 -111 Z " />
<glyph glyph-name="uni021B" unicode="&#x21b;" horiz-adv-x="322" d="M148 -11 C198 -11 259 19 275 29 C278 31 280 34 278 37 L275 43 C273 46 270 48 265 45 C250 35 197 7 148 7 C81 7 83 59 92 124 L137 444 L305 444 C310 444 313 448 314 452 L315 454 C316 459 313 462 308 462 L140 462 L156 587 C157 591 154 594 150 594 L145 594 C142 594 140 591 139 587 L122 462 L77 462 C73 462 71 459 70 454 L69 452 C68 448 70 444 73 444 L119 444 L74 124 C63 47 69 -11 148 -11 L148 -11 Z M106 -111 C106 -122 115 -131 127 -131 C134 -131 141 -130 146 -125 C148 -132 148 -135 148 -139 C148 -171 135 -200 112 -217 C107 -220 104 -222 108 -228 L112 -234 C114 -238 116 -238 121 -234 C154 -209 169 -167 169 -131 C169 -103 159 -83 135 -83 C119 -83 106 -96 106 -111 L106 -111 Z " />
<glyph glyph-name="dotlessj" unicode="&#x237;" horiz-adv-x="197" d="M131 454 C132 459 130 462 125 462 L121 462 C116 462 114 459 113 454 L40 -65 C25 -170 -19 -212 -100 -231 C-105 -232 -109 -234 -108 -239 L-107 -244 C-106 -249 -103 -250 -97 -249 C-6 -230 43 -178 58 -65 L131 454 Z " />
<glyph glyph-name="circumflex" unicode="&#x2c6;" horiz-adv-x="336" d="M73 548 L199 650 L295 549 C299 546 301 549 302 550 L306 554 C309 557 308 559 305 562 L204 668 C202 670 199 670 196 668 L69 566 C62 560 60 560 63 554 L66 549 C67 548 68 545 73 548 L73 548 Z " />
<glyph glyph-name="caron" unicode="&#x2c7;" horiz-adv-x="336" d="M180 553 C182 551 185 551 188 553 L315 655 C322 661 324 661 321 667 L318 672 C317 673 316 676 311 673 L185 571 L89 672 C85 675 83 672 82 671 L78 667 C75 664 76 662 79 659 L180 553 Z " />
<glyph glyph-name="uni02C9" unicode="&#x2c9;" horiz-adv-x="373" d="M82 607 L341 607 C345 607 347 610 348 614 L349 618 C350 622 347 625 343 625 L85 625 C81 625 78 622 77 618 L76 614 C75 610 77 607 82 607 L82 607 Z " />
<glyph glyph-name="breve" unicode="&#x2d8;" horiz-adv-x="311" d="M172 545 C232 545 284 592 302 652 C303 656 303 660 298 660 L290 660 C287 660 285 658 284 654 C268 600 223 563 174 563 C123 563 88 600 89 654 C89 657 88 660 84 660 L78 660 C75 660 73 657 73 652 C73 592 112 545 172 545 L172 545 Z " />
<glyph glyph-name="dotaccent" unicode="&#x2d9;" horiz-adv-x="197" d="M121 593 C136 593 147 606 147 620 C147 631 140 641 128 641 C114 641 101 628 101 614 C101 603 108 593 121 593 L121 593 Z " />
<glyph glyph-name="ring" unicode="&#x2da;" horiz-adv-x="261" d="M141 500 C198 500 250 552 250 618 C250 668 217 708 170 708 C112 708 60 655 60 589 C60 539 93 500 141 500 L141 500 Z M143 517 C99 517 78 551 78 593 C78 646 121 691 168 691 C209 691 233 656 233 615 C233 561 189 517 143 517 L143 517 Z " />
<glyph glyph-name="ogonek" unicode="&#x2db;" horiz-adv-x="276" d="M194 1 L186 17 C107 -23 27 -75 27 -159 C27 -203 52 -238 105 -238 C135 -238 168 -223 183 -214 C188 -211 191 -208 189 -204 L185 -198 C182 -194 179 -195 176 -197 C171 -201 139 -220 106 -220 C65 -220 45 -192 45 -158 C45 -75 132 -29 194 1 L194 1 Z " />
<glyph glyph-name="tilde" unicode="&#x2dc;" horiz-adv-x="342" d="M63 583 C65 582 68 583 70 588 C76 603 102 661 141 661 C194 661 166 553 235 553 C289 553 316 619 324 637 C327 642 325 645 321 646 L314 648 C311 649 309 647 307 642 C299 622 278 570 237 570 C181 570 214 678 143 678 C90 678 61 613 53 594 C51 589 52 586 56 585 L63 583 Z " />
<glyph glyph-name="hungarumlaut" unicode="&#x2dd;" horiz-adv-x="353" d="M223 513 C227 511 229 511 232 515 L352 688 C356 693 354 695 351 697 L346 700 C343 702 341 702 338 698 L218 525 C215 520 216 518 219 516 L223 513 Z M74 513 C77 511 79 511 82 515 L203 688 C207 693 205 695 202 697 L197 700 C194 702 192 702 188 698 L69 525 C65 520 67 518 69 516 L74 513 Z " />
<glyph glyph-name="uni0394" unicode="&#x394;" horiz-adv-x="630" d="M12 0 L542 0 C547 0 560 0 555 17 L386 717 C385 719 383 721 382 721 L380 721 C378 721 376 719 375 717 L5 19 C-5 -1 6 0 12 0 L12 0 Z M24 18 L377 682 L535 18 L24 18 Z " />
<glyph glyph-name="uni03A9" unicode="&#x3a9;" horiz-adv-x="782" d="M53 7 C52 3 55 0 59 0 L273 0 C276 0 279 3 280 7 L281 11 C282 15 278 18 275 18 C161 51 89 158 89 293 C89 492 247 692 448 692 C603 692 712 568 712 404 C712 230 595 67 435 18 C431 18 430 15 429 11 L428 7 C427 3 429 0 433 0 L647 0 C651 0 653 3 654 7 L655 11 C656 15 653 18 649 18 L483 18 C635 91 730 246 730 404 C730 578 611 710 450 710 C225 710 71 486 71 291 C71 166 132 65 228 18 L61 18 C57 18 55 15 54 11 L53 7 Z " />
<glyph glyph-name="uni03BC" unicode="&#x3bc;" horiz-adv-x="507" d="M223 7 C129 7 93 69 111 201 L146 454 C147 459 145 462 140 462 L136 462 C131 462 129 460 128 455 L31 -230 C30 -235 32 -238 38 -238 L42 -238 C47 -238 49 -235 50 -230 L93 79 C108 19 151 -11 223 -11 C301 -11 349 37 377 69 L369 8 C368 3 371 0 374 0 L379 0 C383 0 386 3 387 8 L450 454 C451 459 448 462 444 462 L439 462 C434 462 432 459 431 454 L381 101 C374 90 320 7 223 7 L223 7 Z " />
<glyph glyph-name="pi" unicode="&#x3c0;" horiz-adv-x="578" d="M108 0 L114 0 C118 0 121 3 122 8 L183 444 L442 444 L379 8 C378 3 382 0 385 0 L390 0 C395 0 397 3 398 8 L459 444 L571 444 C574 444 577 446 578 450 L579 455 C580 460 577 462 574 462 L57 462 C52 462 49 460 48 455 L47 450 C46 446 49 444 52 444 L165 444 L103 8 C102 3 104 0 108 0 L108 0 Z " />
<glyph glyph-name="Wgrave" unicode="&#x1e80;" horiz-adv-x="805" d="M181 -12 C182 -19 190 -19 193 -12 L454 666 L533 -12 C534 -19 542 -19 545 -12 L821 691 C823 695 822 698 819 699 L812 702 C809 703 806 702 805 699 L544 32 L466 708 C465 715 456 715 453 708 L193 31 L113 697 C113 700 111 703 108 702 L99 700 C96 699 95 697 95 694 L181 -12 Z M549 779 C553 777 556 779 558 782 L560 786 C562 789 561 791 558 793 L408 884 C405 885 402 886 399 881 L397 878 C394 874 395 871 398 869 L549 779 Z " />
<glyph glyph-name="wgrave" unicode="&#x1e81;" horiz-adv-x="637" d="M137 -12 C138 -20 148 -19 152 -12 L340 440 L401 -12 C403 -20 412 -19 417 -12 L619 458 C621 462 621 465 617 466 L610 469 C606 470 605 469 603 465 L413 25 L352 474 C349 485 339 484 336 475 L149 26 L82 464 C81 468 80 470 74 469 L69 468 C64 467 64 462 65 458 L137 -12 Z M417 560 C421 558 424 560 426 563 L428 567 C430 570 429 572 426 574 L276 665 C273 666 270 667 267 662 L265 659 C262 655 263 652 266 650 L417 560 Z " />
<glyph glyph-name="Wacute" unicode="&#x1e82;" horiz-adv-x="805" d="M181 -12 C182 -19 190 -19 193 -12 L454 666 L533 -12 C534 -19 542 -19 545 -12 L821 691 C823 695 822 698 819 699 L812 702 C809 703 806 702 805 699 L544 32 L466 708 C465 715 456 715 453 708 L193 31 L113 697 C113 700 111 703 108 702 L99 700 C96 699 95 697 95 694 L181 -12 Z M392 777 L568 867 C572 869 574 872 572 876 L569 881 C566 886 564 885 561 884 L385 793 C381 791 380 788 381 786 L384 780 C386 776 387 775 392 777 L392 777 Z " />
<glyph glyph-name="wacute" unicode="&#x1e83;" horiz-adv-x="637" d="M137 -12 C138 -20 148 -19 152 -12 L340 440 L401 -12 C403 -20 412 -19 417 -12 L619 458 C621 462 621 465 617 466 L610 469 C606 470 605 469 603 465 L413 25 L352 474 C349 485 339 484 336 475 L149 26 L82 464 C81 468 80 470 74 469 L69 468 C64 467 64 462 65 458 L137 -12 Z M301 559 L477 649 C481 651 483 654 481 658 L478 663 C475 668 473 667 470 666 L294 575 C290 573 289 570 290 568 L293 562 C295 558 296 557 301 559 L301 559 Z " />
<glyph glyph-name="Wdieresis" unicode="&#x1e84;" horiz-adv-x="805" d="M181 -12 C182 -19 190 -19 193 -12 L454 666 L533 -12 C534 -19 542 -19 545 -12 L821 691 C823 695 822 698 819 699 L812 702 C809 703 806 702 805 699 L544 32 L466 708 C465 715 456 715 453 708 L193 31 L113 697 C113 700 111 703 108 702 L99 700 C96 699 95 697 95 694 L181 -12 Z M568 808 C580 808 592 818 592 833 C592 845 586 853 574 853 C561 853 549 843 549 827 C549 816 556 808 568 808 L568 808 Z M381 808 C394 808 406 818 406 833 C406 845 399 853 387 853 C375 853 362 843 362 827 C362 816 369 808 381 808 L381 808 Z " />
<glyph glyph-name="wdieresis" unicode="&#x1e85;" horiz-adv-x="637" d="M137 -12 C138 -20 148 -19 152 -12 L340 440 L401 -12 C403 -20 412 -19 417 -12 L619 458 C621 462 621 465 617 466 L610 469 C606 470 605 469 603 465 L413 25 L352 474 C349 485 339 484 336 475 L149 26 L82 464 C81 468 80 470 74 469 L69 468 C64 467 64 462 65 458 L137 -12 Z M450 605 C463 605 475 615 475 630 C475 642 468 650 456 650 C444 650 432 637 432 624 C432 613 438 605 450 605 L450 605 Z M280 605 C295 605 304 615 304 630 C304 642 298 650 286 650 C274 650 261 640 261 624 C261 613 268 605 280 605 L280 605 Z " />
<glyph glyph-name="Ygrave" unicode="&#x1ef2;" horiz-adv-x="509" d="M204 7 C203 2 205 0 209 0 L215 0 C219 0 221 2 222 6 L269 344 L555 688 C558 691 559 695 555 697 L548 701 C545 703 542 701 540 698 L261 360 L79 697 C77 700 75 702 71 700 L65 697 C61 695 61 691 63 688 L251 343 L204 7 Z M399 779 C403 777 406 779 408 782 L410 786 C412 789 411 791 408 793 L258 884 C255 885 252 886 249 881 L247 878 C244 874 245 871 248 869 L399 779 Z " />
<glyph glyph-name="ygrave" unicode="&#x1ef3;" horiz-adv-x="440" d="M173 10 L44 -230 C41 -236 43 -238 46 -240 L50 -242 C54 -244 56 -244 59 -239 L434 457 C436 461 435 464 431 466 L426 468 C422 470 419 468 417 465 L185 30 L71 463 C70 466 67 468 63 467 L57 465 C54 464 53 461 54 457 L173 10 Z M320 560 C324 558 327 560 329 563 L331 567 C333 570 332 572 329 574 L179 665 C176 666 173 667 170 662 L168 659 C165 655 166 652 169 650 L320 560 Z " />
<glyph glyph-name="endash" unicode="&#x2013;" horiz-adv-x="510" d="M70 243 L428 243 C432 243 434 246 435 250 L436 254 C437 258 434 261 430 261 L72 261 C68 261 66 258 65 254 L64 250 C63 246 66 243 70 243 L70 243 Z " />
<glyph glyph-name="emdash" unicode="&#x2014;" horiz-adv-x="705" d="M69 243 L622 243 C626 243 629 246 630 250 L631 254 C632 258 628 261 625 261 L72 261 C68 261 66 258 65 254 L64 250 C63 246 66 243 69 243 L69 243 Z " />
<glyph glyph-name="quoteleft" unicode="&#x2018;" horiz-adv-x="198" d="M170 532 C170 544 161 553 149 553 C139 553 133 549 127 543 C124 550 122 560 122 572 C122 621 147 663 184 689 C188 692 191 694 188 700 L185 706 C183 710 180 710 174 706 C129 673 102 624 102 572 C102 539 113 505 140 505 C155 505 170 517 170 532 L170 532 Z " />
<glyph glyph-name="quoteright" unicode="&#x2019;" horiz-adv-x="196" d="M117 683 C117 671 126 662 138 662 C148 662 154 666 160 672 C163 665 165 655 165 643 C165 594 140 552 103 526 C99 523 96 521 99 515 L102 509 C104 505 107 505 113 509 C158 542 185 591 185 643 C185 676 174 710 147 710 C132 710 117 698 117 683 L117 683 Z " />
<glyph glyph-name="quotesinglbase" unicode="&#x201a;" horiz-adv-x="178" d="M23 11 C23 -1 32 -10 44 -10 C54 -10 60 -6 66 0 C69 -7 71 -17 71 -29 C71 -78 46 -120 9 -146 C5 -149 2 -151 5 -157 L8 -163 C10 -167 13 -167 19 -163 C64 -130 91 -81 91 -29 C91 4 80 38 53 38 C38 38 23 26 23 11 L23 11 Z " />
<glyph glyph-name="quotedblleft" unicode="&#x201c;" horiz-adv-x="358" d="M170 532 C170 544 161 553 149 553 C139 553 133 549 127 543 C124 550 122 560 122 572 C122 621 147 663 184 689 C188 692 191 694 188 700 L185 706 C183 710 180 710 174 706 C129 673 102 624 102 572 C102 539 113 505 140 505 C155 505 170 517 170 532 L170 532 Z M330 532 C330 544 321 553 309 553 C299 553 293 549 287 543 C284 550 282 560 282 572 C282 621 307 663 344 689 C348 692 351 694 348 700 L345 706 C343 710 340 710 334 706 C289 673 262 624 262 572 C262 539 273 505 300 505 C315 505 330 517 330 532 L330 532 Z " />
<glyph glyph-name="quotedblright" unicode="&#x201d;" horiz-adv-x="356" d="M117 683 C117 671 126 662 138 662 C148 662 154 666 160 672 C163 665 165 655 165 643 C165 594 140 552 103 526 C99 523 96 521 99 515 L102 509 C104 505 107 505 113 509 C158 542 185 591 185 643 C185 676 174 710 147 710 C132 710 117 698 117 683 L117 683 Z M277 683 C277 671 286 662 298 662 C308 662 314 666 320 672 C323 665 325 655 325 643 C325 594 300 552 263 526 C259 523 256 521 259 515 L262 509 C264 505 267 505 273 509 C318 542 345 591 345 643 C345 676 334 710 307 710 C292 710 277 698 277 683 L277 683 Z " />
<glyph glyph-name="quotedblbase" unicode="&#x201e;" horiz-adv-x="338" d="M23 11 C23 -1 32 -10 44 -10 C54 -10 60 -6 66 0 C69 -7 71 -17 71 -29 C71 -78 46 -120 9 -146 C5 -149 2 -151 5 -157 L8 -163 C10 -167 13 -167 19 -163 C64 -130 91 -81 91 -29 C91 4 80 38 53 38 C38 38 23 26 23 11 L23 11 Z M183 11 C183 -1 192 -10 204 -10 C214 -10 220 -6 226 0 C229 -7 231 -17 231 -29 C231 -78 206 -120 169 -146 C165 -149 162 -151 165 -157 L168 -163 C170 -167 173 -167 179 -163 C224 -130 251 -81 251 -29 C251 4 240 38 213 38 C198 38 183 26 183 11 L183 11 Z " />
<glyph glyph-name="dagger" unicode="&#x2020;" horiz-adv-x="496" d="M166 -231 C165 -235 168 -238 172 -238 L176 -238 C180 -238 183 -235 184 -231 L270 382 L464 382 C468 382 470 385 471 389 L472 393 C473 397 470 400 466 400 L273 400 L314 693 C314 697 312 700 308 700 L303 700 C299 700 296 697 296 693 L254 400 L61 400 C58 400 55 397 54 393 L53 389 C52 385 55 382 59 382 L252 382 L166 -231 Z " />
<glyph glyph-name="daggerdbl" unicode="&#x2021;" horiz-adv-x="524" d="M41 9 C40 4 42 0 46 0 L212 0 L180 -231 C179 -235 182 -238 186 -238 L190 -238 C194 -238 197 -235 198 -231 L230 0 L397 0 C401 0 404 3 405 7 L406 11 C407 15 403 18 400 18 L233 18 L287 400 L480 400 C484 400 487 403 488 407 L489 411 C490 415 487 418 483 418 L289 418 L328 693 C328 697 326 700 322 700 L319 700 C314 700 310 698 310 693 L271 418 L78 418 C74 418 72 417 71 413 L70 409 C69 404 71 400 75 400 L268 400 L215 18 L49 18 C45 18 43 17 42 13 L41 9 Z " />
<glyph glyph-name="bullet" unicode="&#x2022;" horiz-adv-x="265" d="M122 219 C145 219 165 238 165 261 C165 280 152 295 133 295 C111 295 92 275 92 251 C92 234 104 219 122 219 L122 219 Z " />
<glyph glyph-name="ellipsis" unicode="&#x2026;" horiz-adv-x="518" d="M374 18 C374 7 381 -3 392 -3 C407 -3 419 10 419 24 C419 35 411 44 399 44 C386 44 374 33 374 18 L374 18 Z M200 18 C200 7 208 -3 219 -3 C233 -3 245 10 245 24 C245 35 237 44 225 44 C212 44 200 33 200 18 L200 18 Z M29 18 C29 7 37 -3 48 -3 C63 -3 74 10 74 24 C74 35 67 44 55 44 C42 44 29 33 29 18 L29 18 Z " />
<glyph glyph-name="perthousand" unicode="&#x2030;" horiz-adv-x="927" d="M205 427 C282 427 351 496 351 588 C351 655 304 710 241 710 C164 710 95 641 95 550 C95 482 142 427 205 427 L205 427 Z M83 4 L90 -1 C93 -3 95 -1 97 2 L567 688 C571 693 568 695 566 696 L560 699 C558 701 555 701 553 698 L83 12 C81 9 81 6 83 4 L83 4 Z M206 445 C150 445 113 493 113 552 C113 629 173 692 240 692 C295 692 334 644 334 585 C334 508 272 445 206 445 L206 445 Z M607 112 C607 45 654 -10 718 -10 C794 -10 864 59 864 150 C864 218 816 273 754 273 C676 273 607 204 607 112 L607 112 Z M312 112 C312 45 359 -10 423 -10 C499 -10 569 59 569 150 C569 218 521 273 459 273 C381 273 312 204 312 112 L312 112 Z M625 115 C625 192 686 255 753 255 C808 255 845 207 845 148 C845 71 785 8 718 8 C663 8 625 56 625 115 L625 115 Z M330 115 C330 192 391 255 458 255 C513 255 550 207 550 148 C550 71 490 8 423 8 C368 8 330 56 330 115 L330 115 Z " />
<glyph glyph-name="guilsinglleft" unicode="&#x2039;" horiz-adv-x="244" d="M135 62 C136 59 139 58 143 60 L147 62 C151 64 151 67 150 70 L69 237 L198 403 C201 406 201 408 197 411 L193 414 C189 416 186 415 184 412 L51 242 C49 239 48 237 50 234 L135 62 Z " />
<glyph glyph-name="guilsinglright" unicode="&#x203a;" horiz-adv-x="243" d="M37 60 C40 57 43 59 46 62 L179 234 C181 237 181 239 180 242 L95 412 C93 415 90 416 87 414 L83 412 C79 410 78 407 80 404 L161 239 L33 71 C31 68 31 66 34 63 L37 60 Z " />
<glyph glyph-name="fraction" unicode="&#x2044;" horiz-adv-x="140" d="M-149 2 L322 688 C326 693 323 695 322 696 L317 700 C314 702 311 702 309 699 L-163 13 C-165 10 -165 6 -162 4 L-158 1 C-156 -1 -151 -1 -149 2 L-149 2 Z " />
<glyph glyph-name="zerosuperior" unicode="&#x2070;" horiz-adv-x="309" d="M183 494 C259 494 319 571 319 690 C319 765 284 810 228 810 C151 810 94 733 94 611 C94 538 127 494 183 494 L183 494 Z M186 512 C137 512 111 549 111 612 C111 723 161 793 225 793 C274 793 301 756 301 691 C301 581 250 512 186 512 L186 512 Z " />
<glyph glyph-name="foursuperior" unicode="&#x2074;" horiz-adv-x="305" d="M243 504 L247 504 C250 504 253 507 254 511 L263 572 L308 572 C311 572 313 574 314 577 L315 582 C316 586 313 589 310 589 L265 589 L295 801 C296 808 290 810 284 806 L70 583 C66 578 68 572 74 572 L247 572 L238 511 C237 507 239 504 243 504 L243 504 Z M98 589 L275 772 L249 589 L98 589 Z " />
<glyph glyph-name="fivesuperior" unicode="&#x2075;" horiz-adv-x="283" d="M166 494 C237 498 292 545 292 616 C292 666 259 695 194 695 L127 695 L139 782 L273 782 C276 782 279 785 280 789 L281 793 C282 797 279 800 276 800 L132 800 C128 800 125 797 124 793 L109 684 C108 680 111 677 115 677 L192 677 C247 677 274 654 274 614 C274 554 221 512 169 512 C122 512 105 535 96 547 C95 550 91 551 87 547 L84 544 C80 540 80 536 82 533 C93 520 117 494 166 494 L166 494 Z " />
<glyph glyph-name="sixsuperior" unicode="&#x2076;" horiz-adv-x="284" d="M180 494 C246 498 295 551 295 616 C295 670 256 704 211 704 C166 704 135 680 115 662 C146 744 235 790 266 801 C268 802 270 805 270 808 L270 815 C270 820 265 820 262 819 C170 786 88 707 88 603 C88 541 122 494 180 494 L180 494 Z M182 512 C132 512 107 552 107 605 C107 613 108 622 109 631 C109 631 144 685 208 685 C247 685 277 659 277 615 C277 561 232 512 182 512 L182 512 Z " />
<glyph glyph-name="sevensuperior" unicode="&#x2077;" horiz-adv-x="244" d="M97 503 C100 501 105 502 107 505 L289 790 C292 795 291 800 285 800 L110 800 C107 800 104 797 103 793 L102 789 C101 785 104 782 107 782 L263 782 L93 515 C91 511 89 508 94 505 L97 503 Z " />
<glyph glyph-name="eightsuperior" unicode="&#x2078;" horiz-adv-x="295" d="M179 494 C238 494 292 522 292 589 C292 621 272 645 234 655 C276 667 305 699 305 738 C305 777 276 810 219 810 C146 810 115 764 115 717 C115 688 135 667 165 657 C117 645 85 609 85 565 C85 515 130 494 179 494 L179 494 Z M202 668 C160 670 134 689 134 719 C134 757 162 792 218 792 C265 792 285 768 285 737 C285 698 252 670 202 668 L202 668 Z M180 512 C139 512 105 528 105 567 C105 611 140 641 198 644 C246 641 272 620 272 587 C272 534 226 512 180 512 L180 512 Z " />
<glyph glyph-name="ninesuperior" unicode="&#x2079;" horiz-adv-x="284" d="M126 485 C162 498 279 553 297 678 C298 686 299 695 299 703 C299 764 265 810 208 810 C142 810 92 747 92 688 C92 634 132 600 177 600 C225 600 250 624 270 642 C239 555 153 514 122 503 C119 502 118 499 118 496 L118 489 C118 483 123 484 126 485 L126 485 Z M180 619 C141 619 111 645 111 689 C111 743 156 792 206 792 C255 792 278 753 278 701 C278 692 277 683 276 673 C276 673 244 619 180 619 L180 619 Z " />
<glyph glyph-name="zeroinferior" unicode="&#x2080;" horiz-adv-x="309" d="M5 -2 C3 -16 2 -30 2 -43 C2 -116 35 -160 91 -160 C167 -160 227 -83 227 36 C227 111 192 156 136 156 C65 156 18 96 5 -2 L5 -2 Z M22 -2 C34 86 75 139 133 139 C182 139 209 102 209 37 C209 -73 158 -142 94 -142 C45 -142 19 -105 19 -42 C19 -30 20 -17 22 -2 L22 -2 Z " />
<glyph glyph-name="oneinferior" unicode="&#x2081;" horiz-adv-x="160" d="M4 85 C6 83 8 81 12 84 L66 123 L28 -143 C28 -147 30 -150 34 -150 L37 -150 C41 -150 45 -147 45 -143 L85 144 C86 150 81 154 76 150 L3 97 C-2 94 -1 92 0 90 L4 85 Z " />
<glyph glyph-name="twoinferior" unicode="&#x2082;" horiz-adv-x="265" d="M-19 -150 L153 -150 C156 -150 159 -147 160 -143 L161 -139 C162 -135 159 -132 156 -132 L9 -132 L122 -39 C161 -7 192 26 192 76 C192 120 162 156 111 156 C51 156 24 111 24 111 C20 106 23 103 24 102 L29 98 C32 96 35 97 37 101 C37 101 60 138 108 138 C152 138 175 108 175 75 C175 32 141 -2 111 -26 L-22 -137 C-27 -141 -26 -150 -19 -150 L-19 -150 Z " />
<glyph glyph-name="threeinferior" unicode="&#x2083;" horiz-adv-x="286" d="M74 -160 C131 -158 191 -123 191 -64 C191 -35 173 -10 146 2 C181 16 203 53 203 88 C203 131 170 156 124 156 C60 156 27 114 27 114 C24 111 22 109 27 104 L30 101 C32 99 36 100 37 102 C37 102 68 138 121 138 C161 138 185 118 185 86 C185 42 147 10 109 10 L50 10 C47 10 45 7 44 3 L43 -1 C42 -5 45 -8 48 -8 L107 -8 C150 -8 172 -34 172 -65 C172 -116 116 -142 78 -142 C25 -142 6 -114 -2 -105 C-5 -102 -8 -102 -11 -105 L-14 -108 C-18 -112 -18 -115 -16 -118 C-6 -129 22 -160 74 -160 L74 -160 Z " />
<glyph glyph-name="fourinferior" unicode="&#x2084;" horiz-adv-x="305" d="M-21 -71 C-25 -76 -23 -82 -17 -82 L156 -82 L147 -143 C146 -147 148 -150 152 -150 L156 -150 C159 -150 162 -147 163 -143 L172 -82 L217 -82 C220 -82 222 -80 223 -77 L224 -72 C225 -68 222 -65 219 -65 L174 -65 L204 147 C205 154 199 156 193 152 L-21 -71 Z M7 -65 L184 118 L158 -65 L7 -65 Z " />
<glyph glyph-name="fiveinferior" unicode="&#x2085;" horiz-adv-x="283" d="M74 -160 C145 -156 200 -109 200 -38 C200 12 167 41 102 41 L35 41 L47 128 L181 128 C184 128 187 131 188 135 L189 139 C190 143 187 146 184 146 L40 146 C36 146 33 143 32 139 L17 30 C16 26 19 23 23 23 L100 23 C155 23 182 0 182 -40 C182 -100 129 -142 77 -142 C30 -142 13 -119 4 -107 C3 -104 -1 -103 -5 -107 L-8 -110 C-12 -114 -12 -118 -10 -121 C1 -134 25 -160 74 -160 L74 -160 Z " />
<glyph glyph-name="sixinferior" unicode="&#x2086;" horiz-adv-x="284" d="M89 -160 C155 -156 204 -103 204 -38 C204 16 165 50 120 50 C75 50 44 26 24 8 C55 90 144 136 175 147 C177 148 179 151 179 154 L179 161 C179 166 174 166 171 165 C79 132 -3 53 -3 -51 C-3 -113 31 -160 89 -160 L89 -160 Z M91 -142 C41 -142 16 -102 16 -49 C16 -41 17 -32 18 -23 C18 -23 53 31 117 31 C156 31 186 5 186 -39 C186 -93 141 -142 91 -142 L91 -142 Z " />
<glyph glyph-name="seveninferior" unicode="&#x2087;" horiz-adv-x="242" d="M14 128 L170 128 L0 -139 C-2 -143 -4 -146 1 -149 L4 -151 C7 -153 12 -152 14 -149 L196 136 C199 141 198 146 192 146 L17 146 C14 146 11 143 10 139 L9 135 C8 131 11 128 14 128 L14 128 Z " />
<glyph glyph-name="eightinferior" unicode="&#x2088;" horiz-adv-x="295" d="M-7 -89 C-7 -139 38 -160 87 -160 C146 -160 200 -132 200 -65 C200 -33 180 -9 142 1 C184 13 213 45 213 84 C213 123 184 156 127 156 C57 156 23 110 23 63 C23 34 43 13 73 3 C26 -12 -7 -45 -7 -89 L-7 -89 Z M126 138 C173 138 193 114 193 83 C193 44 160 16 110 14 C68 16 42 35 42 65 C42 113 86 138 126 138 L126 138 Z M106 -10 C154 -13 180 -34 180 -67 C180 -120 134 -142 88 -142 C47 -142 13 -126 13 -87 C13 -34 65 -13 106 -10 L106 -10 Z " />
<glyph glyph-name="nineinferior" unicode="&#x2089;" horiz-adv-x="284" d="M1 49 C-7 -14 36 -54 85 -54 C133 -54 158 -30 178 -12 C147 -99 61 -140 30 -151 C27 -152 26 -155 26 -158 L26 -165 C26 -171 31 -170 34 -169 C70 -156 187 -101 205 24 C215 97 181 156 116 156 C58 156 10 108 1 49 L1 49 Z M20 49 C27 98 69 138 114 138 C172 138 193 85 184 19 C184 19 152 -35 88 -35 C45 -35 13 -3 20 49 L20 49 Z " />
<glyph glyph-name="Euro" unicode="&#x20ac;" horiz-adv-x="600" d="M484 382 C488 382 490 383 491 387 L493 395 C494 399 491 400 487 400 L119 400 C157 560 269 692 415 692 C488 692 536 667 586 614 C587 612 590 611 594 614 L598 619 C601 622 600 625 599 627 C554 676 494 710 414 710 C257 710 141 567 101 400 L51 400 C48 400 45 398 44 394 L43 389 C42 385 45 382 48 382 L97 382 C90 350 86 315 86 282 L34 282 C31 282 28 281 27 277 L26 271 C25 267 28 265 31 265 L86 265 C88 115 160 -11 318 -11 C403 -11 460 20 522 78 C525 80 525 84 523 86 L519 91 C516 94 513 93 511 91 C449 33 395 7 318 7 C169 7 108 129 105 265 L429 265 C432 265 434 267 435 270 L437 277 C438 281 434 282 431 282 L104 282 C104 308 106 343 115 382 L484 382 Z " />
<glyph glyph-name="afii61289" unicode="&#x2113;" horiz-adv-x="428" d="M175 -10 C276 -10 343 38 348 42 C352 45 351 49 350 52 L347 56 C346 59 342 59 338 57 C333 53 274 10 178 10 C71 10 94 138 119 217 L129 245 C275 300 420 409 445 589 C455 662 425 710 373 710 C284 710 218 584 146 364 L113 259 C87 250 61 243 38 238 C33 237 30 234 31 230 L32 222 C32 219 34 216 38 217 C56 221 82 229 106 237 L100 221 C67 118 59 -10 175 -10 L175 -10 Z M135 266 L165 362 C232 566 293 690 371 690 C416 690 434 650 425 589 C402 425 271 319 135 266 L135 266 Z " />
<glyph glyph-name="uni2117" unicode="&#x2117;" horiz-adv-x="804" d="M82 303 C82 131 202 -10 360 -10 C559 -10 740 173 740 397 C740 569 620 710 461 710 C262 710 82 526 82 303 L82 303 Z M100 305 C100 518 273 692 459 692 C612 692 723 558 723 395 C723 182 548 8 363 8 C210 8 100 141 100 305 L100 305 Z M334 309 L439 309 C519 309 573 371 573 443 C573 511 526 539 471 539 L357 539 C351 539 349 536 348 532 L298 173 C297 169 299 166 302 166 L308 166 C311 166 314 169 315 173 L334 309 Z M336 326 L364 522 L469 522 C518 522 556 498 556 443 C556 375 508 326 441 326 L336 326 Z " />
<glyph glyph-name="trademark" unicode="&#x2122;" horiz-adv-x="743" d="M341 389 L345 387 C349 386 352 386 354 391 L457 661 L499 383 C500 376 509 376 512 383 L632 661 L658 391 C659 388 659 386 662 387 L671 389 C676 390 676 392 676 397 L645 706 C644 713 633 713 631 706 L511 425 L468 706 C468 713 459 713 456 706 L338 397 C337 393 337 391 341 389 L341 389 Z M186 389 L190 389 C193 389 196 392 197 396 L237 682 L329 682 C333 682 336 685 336 689 L336 693 C336 697 335 700 331 700 L129 700 C126 700 122 697 122 693 L122 689 C122 685 124 682 127 682 L221 682 L181 396 C180 392 183 389 186 389 L186 389 Z " />
<glyph glyph-name="Omega" unicode="&#x2126;" horiz-adv-x="782" d="M53 7 C52 3 55 0 59 0 L273 0 C276 0 279 3 280 7 L281 11 C282 15 278 18 275 18 C161 51 89 158 89 293 C89 492 247 692 448 692 C603 692 712 568 712 404 C712 230 595 67 435 18 C431 18 430 15 429 11 L428 7 C427 3 429 0 433 0 L647 0 C651 0 653 3 654 7 L655 11 C656 15 653 18 649 18 L483 18 C635 91 730 246 730 404 C730 578 611 710 450 710 C225 710 71 486 71 291 C71 166 132 65 228 18 L61 18 C57 18 55 15 54 11 L53 7 Z " />
<glyph glyph-name="estimated" unicode="&#x212e;" horiz-adv-x="784" d="M132 148 L159 340 L729 340 C732 340 736 343 736 347 L737 351 L737 352 C739 370 740 387 740 404 C740 579 622 710 461 710 C236 710 81 492 81 291 C81 118 194 -10 360 -10 C437 -10 522 22 594 88 C595 90 595 93 595 95 L591 101 C589 104 586 103 584 101 C515 40 439 8 362 8 C261 8 174 65 132 148 L132 148 Z M162 358 L189 551 C257 637 356 692 459 692 C563 692 647 635 690 549 L664 358 L162 358 Z " />
<glyph glyph-name="onethird" unicode="&#x2153;" horiz-adv-x="599" d="M149 404 L152 404 C156 404 160 407 160 411 L200 698 C201 704 196 708 191 704 L118 651 C113 648 114 646 115 644 L119 639 C121 637 123 635 127 638 L181 677 L143 411 C143 407 145 404 149 404 L149 404 Z M40 1 C42 -1 47 -1 49 2 L520 688 C524 693 521 695 520 696 L515 700 C512 702 509 702 507 699 L35 13 C33 10 33 6 36 4 L40 1 Z M392 -10 C449 -8 509 27 509 86 C509 115 491 140 464 152 C499 166 521 203 521 238 C521 281 488 306 442 306 C378 306 345 264 345 264 C342 261 340 259 345 254 L348 251 C350 249 354 250 355 252 C355 252 386 288 439 288 C479 288 503 268 503 236 C503 192 465 160 427 160 L368 160 C365 160 363 157 362 153 L361 149 C360 145 363 142 366 142 L425 142 C468 142 490 116 490 85 C490 34 434 8 396 8 C343 8 324 36 316 45 C313 48 310 48 307 45 L304 42 C300 38 300 35 302 32 C312 21 340 -10 392 -10 L392 -10 Z " />
<glyph glyph-name="twothirds" unicode="&#x2154;" horiz-adv-x="659" d="M102 1 C104 -1 109 -1 111 2 L582 688 C586 693 583 695 582 696 L577 700 C574 702 571 702 569 699 L97 13 C95 10 95 6 98 4 L102 1 Z M453 -10 C510 -8 570 27 570 86 C570 115 552 140 525 152 C560 166 582 203 582 238 C582 281 549 306 503 306 C439 306 406 264 406 264 C403 261 401 259 406 254 L409 251 C411 249 415 250 416 252 C416 252 447 288 500 288 C540 288 564 268 564 236 C564 192 526 160 488 160 L429 160 C426 160 424 157 423 153 L422 149 C421 145 424 142 427 142 L486 142 C529 142 551 116 551 85 C551 34 495 8 457 8 C404 8 385 36 377 45 C374 48 371 48 368 45 L365 42 C361 38 361 35 363 32 C373 21 401 -10 453 -10 L453 -10 Z M85 404 L257 404 C260 404 263 407 264 411 L265 415 C266 419 263 422 260 422 L113 422 L226 515 C265 547 296 580 296 630 C296 674 266 710 215 710 C155 710 128 665 128 665 C124 660 127 657 128 656 L133 652 C136 650 139 651 141 655 C141 655 164 692 212 692 C256 692 279 662 279 629 C279 586 245 552 215 528 L82 417 C77 413 78 404 85 404 L85 404 Z " />
<glyph glyph-name="oneeighth" unicode="&#x215b;" horiz-adv-x="608" d="M313 74 C312 70 312 65 312 61 C312 11 357 -10 406 -10 C465 -10 519 18 519 85 C519 117 499 141 461 151 C503 163 532 195 532 234 C532 273 503 306 446 306 C373 306 342 260 342 213 C342 184 362 163 392 153 C349 142 318 112 313 74 L313 74 Z M445 290 C492 290 512 264 512 233 C512 194 479 166 429 164 C387 166 361 185 361 215 C361 262 404 290 445 290 L445 290 Z M333 74 C338 112 373 137 425 140 C473 137 499 116 499 83 C499 30 453 6 407 6 C366 6 332 24 332 63 C332 66 332 70 333 74 L333 74 Z M148 404 L151 404 C155 404 159 407 159 411 L199 698 C200 704 195 708 190 704 L117 651 C112 648 113 646 114 644 L118 639 C120 637 122 635 126 638 L180 677 L142 411 C142 407 144 404 148 404 L148 404 Z M36 4 L40 1 C42 -1 47 -1 49 2 L520 688 C524 693 521 695 520 696 L515 700 C512 702 509 702 507 699 L35 13 C33 10 33 6 36 4 L36 4 Z " />
<glyph glyph-name="threeeighths" unicode="&#x215c;" horiz-adv-x="653" d="M357 74 C356 70 356 65 356 61 C356 11 401 -10 450 -10 C509 -10 563 18 563 85 C563 117 543 141 505 151 C547 163 576 195 576 234 C576 273 547 306 490 306 C417 306 386 260 386 213 C386 184 406 163 436 153 C393 142 362 112 357 74 L357 74 Z M489 288 C536 288 556 264 556 233 C556 194 523 166 473 164 C431 166 405 185 405 215 C405 263 449 288 489 288 L489 288 Z M377 74 C382 112 417 137 469 140 C517 137 543 116 543 83 C543 30 497 8 451 8 C410 8 376 24 376 63 C376 66 376 70 377 74 L377 74 Z M89 4 L93 1 C95 -1 100 -1 102 2 L573 688 C577 693 574 695 573 696 L568 700 C565 702 562 702 560 699 L88 13 C86 10 86 6 89 4 L89 4 Z M176 394 C233 396 293 431 293 490 C293 519 275 544 248 556 C283 570 305 607 305 642 C305 685 272 710 226 710 C162 710 129 668 129 668 C126 665 124 663 129 658 L132 655 C134 653 138 654 139 656 C139 656 170 692 223 692 C263 692 287 672 287 640 C287 596 249 564 211 564 L152 564 C149 564 147 561 146 557 L145 553 C144 549 147 546 150 546 L209 546 C252 546 274 520 274 489 C274 438 218 412 180 412 C127 412 108 440 100 449 C97 452 94 452 91 449 L88 446 C84 442 84 439 86 436 C96 425 124 394 176 394 L176 394 Z " />
<glyph glyph-name="fiveeighths" unicode="&#x215d;" horiz-adv-x="649" d="M353 74 C352 70 352 65 352 61 C352 11 397 -10 446 -10 C505 -10 559 18 559 85 C559 117 539 141 501 151 C543 163 572 195 572 234 C572 273 543 306 486 306 C413 306 382 260 382 213 C382 184 402 163 432 153 C389 142 358 112 353 74 L353 74 Z M485 288 C532 288 552 264 552 233 C552 194 519 166 469 164 C427 166 401 185 401 215 C401 263 445 288 485 288 L485 288 Z M373 74 C378 112 413 137 465 140 C513 137 539 116 539 83 C539 30 493 8 447 8 C406 8 372 24 372 63 C372 66 372 70 373 74 L373 74 Z M85 4 L89 1 C91 -1 96 -1 98 2 L569 688 C573 693 570 695 569 696 L564 700 C561 702 558 702 556 699 L84 13 C82 10 82 6 85 4 L85 4 Z M176 394 C247 398 302 445 302 516 C302 566 269 595 204 595 L137 595 L149 682 L283 682 C286 682 289 685 290 689 L291 693 C292 697 289 700 286 700 L142 700 C138 700 135 697 134 693 L119 584 C118 580 121 577 125 577 L202 577 C257 577 284 554 284 514 C284 454 231 412 179 412 C132 412 115 435 106 447 C105 450 101 451 97 447 L94 444 C90 440 90 436 92 433 C103 420 127 394 176 394 L176 394 Z " />
<glyph glyph-name="seveneighths" unicode="&#x215e;" horiz-adv-x="600" d="M303 74 C302 70 302 65 302 61 C302 11 347 -10 396 -10 C455 -10 509 18 509 85 C509 117 489 141 451 151 C493 163 522 195 522 234 C522 273 493 306 436 306 C363 306 332 260 332 213 C332 184 352 163 382 153 C339 142 308 112 303 74 L303 74 Z M435 290 C482 290 502 264 502 233 C502 194 469 166 419 164 C377 166 351 185 351 215 C351 262 394 290 435 290 L435 290 Z M323 74 C328 112 363 137 415 140 C463 137 489 116 489 83 C489 30 443 6 397 6 C356 6 322 24 322 63 C322 66 322 70 323 74 L323 74 Z M37 4 L41 1 C43 -1 48 -1 50 2 L521 688 C525 693 522 695 521 696 L516 700 C513 702 510 702 508 699 L36 13 C34 10 34 6 37 4 L37 4 Z M116 403 C119 401 124 402 126 405 L308 690 C311 695 310 700 304 700 L129 700 C126 700 123 697 122 693 L121 689 C120 685 123 682 126 682 L282 682 L112 415 C110 411 108 408 113 405 L116 403 Z " />
<glyph glyph-name="partialdiff" unicode="&#x2202;" horiz-adv-x="560" d="M48 193 C48 77 126 -10 224 -10 C411 -10 489 201 489 353 C489 591 305 700 245 726 C242 727 238 727 236 723 L233 717 C230 713 232 711 235 709 C296 683 480 580 470 335 C447 379 390 456 285 456 C143 456 48 322 48 193 L48 193 Z M282 438 C419 438 464 308 468 299 L466 284 C445 129 357 8 227 8 C134 8 65 87 65 192 C65 321 156 435 282 438 L282 438 Z " />
<glyph glyph-name="Delta" unicode="&#x2206;" horiz-adv-x="630" d="M12 0 L542 0 C547 0 560 0 555 17 L386 717 C385 719 383 721 382 721 L380 721 C378 721 376 719 375 717 L5 19 C-5 -1 6 0 12 0 L12 0 Z M24 18 L377 682 L535 18 L24 18 Z " />
<glyph glyph-name="product" unicode="&#x220f;" horiz-adv-x="715" d="M80 7 C79 3 82 0 86 0 L89 0 C93 0 97 3 97 7 L192 682 L634 682 L539 7 C538 3 541 0 545 0 L548 0 C552 0 556 3 556 7 L653 693 C653 697 651 700 647 700 L185 700 C181 700 177 697 177 693 L80 7 Z " />
<glyph glyph-name="summation" unicode="&#x2211;" horiz-adv-x="505" d="M22 0 L388 0 C392 0 395 3 396 7 L397 11 C398 15 395 18 391 18 L42 18 L395 352 C398 355 401 357 402 361 L403 366 C404 370 401 373 398 376 L138 682 L484 682 C488 682 491 685 492 689 L493 693 C494 697 491 700 487 700 L121 700 C111 700 107 689 112 683 L383 367 L19 19 C13 14 13 0 22 0 L22 0 Z " />
<glyph glyph-name="minus" unicode="&#x2212;" horiz-adv-x="600" d="M130 340 L481 340 C484 340 487 343 488 347 L489 351 C490 355 487 358 484 358 L133 358 C130 358 127 355 126 351 L125 347 C124 343 127 340 130 340 L130 340 Z " />
<glyph glyph-name="uni2215" unicode="&#x2215;" horiz-adv-x="140" d="M-149 2 L322 688 C326 693 323 695 322 696 L317 700 C314 702 311 702 309 699 L-163 13 C-165 10 -165 6 -162 4 L-158 1 C-156 -1 -151 -1 -149 2 L-149 2 Z " />
<glyph glyph-name="uni2219" unicode="&#x2219;" horiz-adv-x="200" d="M93 238 C108 238 119 251 119 265 C119 276 112 285 100 285 C87 285 74 274 74 259 C74 248 82 238 93 238 L93 238 Z " />
<glyph glyph-name="radical" unicode="&#x221a;" horiz-adv-x="606" d="M159 -16 C160 -22 166 -22 170 -16 L540 682 L637 682 C641 682 643 685 644 689 L645 693 C646 697 643 700 639 700 L538 700 C533 700 530 699 527 692 L167 16 L75 398 C74 403 72 404 69 403 L63 401 C60 400 59 398 60 394 L159 -16 Z " />
<glyph glyph-name="infinity" unicode="&#x221e;" horiz-adv-x="656" d="M191 157 C245 157 297 192 323 245 C335 194 375 157 428 157 C504 157 576 226 576 317 C576 385 530 440 468 440 C412 440 360 405 335 351 C322 402 282 440 231 440 C153 440 82 371 82 279 C82 212 127 157 191 157 L191 157 Z M337 282 C337 346 388 422 465 422 C520 422 557 374 557 315 C557 238 497 175 430 175 C375 175 337 223 337 282 L337 282 Z M193 175 C138 175 100 223 100 282 C100 359 161 422 228 422 C283 422 320 374 320 315 C320 238 260 175 193 175 L193 175 Z " />
<glyph glyph-name="integral" unicode="&#x222b;" horiz-adv-x="500" d="M191 -72 C175 -180 123 -230 52 -230 C6 -230 -21 -208 -33 -192 C-36 -189 -39 -188 -42 -191 L-47 -196 C-50 -199 -49 -202 -47 -205 C-33 -223 0 -248 50 -248 C130 -248 191 -192 208 -72 L292 534 C308 642 362 692 433 692 C479 692 505 670 518 654 C521 651 524 651 527 654 L532 658 C535 660 534 664 532 667 C517 685 485 710 435 710 C355 710 292 654 275 534 L191 -72 Z " />
<glyph glyph-name="approxequal" unicode="&#x2248;" horiz-adv-x="600" d="M151 345 C153 343 156 344 158 348 C158 348 197 418 252 418 C282 418 297 393 308 374 C321 351 343 324 376 324 C443 324 483 402 483 402 C486 406 484 408 481 410 L476 414 C474 415 472 415 470 411 C470 411 433 340 377 340 C349 340 333 364 321 385 C308 407 286 435 253 435 C187 435 145 355 145 355 C142 351 144 349 146 348 L151 345 Z M128 179 C130 177 133 178 135 182 C135 182 174 252 229 252 C259 252 274 227 285 208 C298 185 320 158 353 158 C420 158 460 236 460 236 C463 240 461 242 458 244 L453 248 C451 249 449 249 447 245 C447 245 410 174 354 174 C326 174 310 198 298 219 C285 241 263 269 230 269 C164 269 122 189 122 189 C119 185 121 183 123 182 L128 179 Z " />
<glyph glyph-name="notequal" unicode="&#x2260;" horiz-adv-x="600" d="M175 80 C178 79 181 80 183 83 L244 176 L431 176 C435 176 438 179 439 183 L440 187 C441 191 437 194 433 194 L256 194 L380 382 L460 382 C464 382 467 385 468 389 L469 393 C470 397 466 400 462 400 L392 400 L430 456 C433 460 431 464 427 466 L423 468 C420 469 415 470 413 466 L370 400 L165 400 C161 400 159 397 158 393 L157 389 C156 385 159 382 163 382 L359 382 L235 194 L136 194 C132 194 130 191 129 187 L128 183 C127 179 130 176 134 176 L223 176 L168 92 C165 89 166 85 170 83 L175 80 Z " />
<glyph glyph-name="lessequal" unicode="&#x2264;" horiz-adv-x="600" d="M133 393 L451 195 C455 193 457 193 459 197 L462 202 C464 205 465 209 461 211 L156 398 L516 593 C520 595 520 599 519 602 L517 607 C516 610 513 612 509 610 L134 405 C129 402 128 396 133 393 L133 393 Z M94 85 L444 85 C448 85 451 88 452 92 L453 96 C454 100 451 103 447 103 L97 103 C94 103 91 100 90 96 L89 92 C88 88 91 85 94 85 L94 85 Z " />
<glyph glyph-name="greaterequal" unicode="&#x2265;" horiz-adv-x="600" d="M129 195 L503 393 C508 396 509 402 504 405 L187 610 C184 612 180 611 178 607 L176 604 C174 601 173 597 177 595 L481 400 L122 212 C118 210 118 206 119 203 L121 198 C123 194 125 193 129 195 L129 195 Z M104 85 L454 85 C457 85 460 88 461 92 L462 96 C463 100 460 103 457 103 L107 103 C103 103 100 100 99 96 L98 92 C97 88 100 85 104 85 L104 85 Z " />
<glyph glyph-name="lozenge" unicode="&#x25ca;" horiz-adv-x="535" d="M223 -6 C224 -8 225 -10 227 -10 L229 -10 C231 -10 233 -8 234 -6 L472 328 C490 351 490 351 479 374 L335 708 C334 711 333 712 331 712 L329 712 C327 712 325 710 324 708 L82 372 C67 351 67 351 76 329 L223 -6 Z M232 26 L89 349 L327 679 L466 352 L232 26 Z " />
<glyph glyph-name="commaaccent" unicode="&#xf6c3;" horiz-adv-x="263" d="M148 -111 C148 -122 157 -131 169 -131 C176 -131 183 -130 188 -125 C190 -132 190 -135 190 -139 C190 -171 177 -200 154 -217 C149 -220 146 -222 150 -228 L154 -234 C156 -238 158 -238 163 -234 C196 -209 211 -167 211 -131 C211 -103 201 -83 177 -83 C161 -83 148 -96 148 -111 L148 -111 Z " />
<glyph glyph-name="uniF8FF" unicode="&#xf8ff;" horiz-adv-x="599" d="M50 30 C50 9 59 0 80 0 L519 0 C540 0 549 9 549 30 L549 670 C549 691 540 700 519 700 L80 700 C59 700 50 691 50 670 L50 30 Z M262 314 L262 343 C262 418 361 427 361 490 C361 517 340 542 300 542 C252 542 229 513 216 501 C210 497 205 497 199 501 L177 523 C171 528 173 535 177 541 C177 541 220 602 307 602 C378 602 432 556 432 491 C432 404 327 389 327 341 L327 315 C327 306 321 302 312 302 L276 302 C269 302 262 307 262 314 L262 314 Z M245 156 C245 182 267 204 293 204 C320 204 342 182 342 156 C342 130 320 108 293 108 C267 108 245 130 245 156 L245 156 Z " />
<glyph glyph-name="fi" unicode="&#xfb01;" horiz-adv-x="520" d="M41 -238 L45 -238 C50 -238 52 -234 53 -229 L147 444 L436 444 L375 8 C373 3 377 0 380 0 L386 0 C389 0 392 3 393 8 L456 454 C456 459 454 462 449 462 L150 462 L158 515 C178 645 249 692 328 692 C400 692 439 651 452 632 C455 628 458 629 461 631 L465 634 C469 637 469 640 466 644 C450 667 409 710 328 710 C239 710 163 658 140 515 L132 462 L58 462 C55 462 51 461 50 456 L49 452 C48 448 52 444 56 444 L129 444 L36 -229 C35 -234 37 -238 41 -238 L41 -238 Z " />
</font>
</svg>
