<?xml version="1.0" encoding="UTF-8"?>
<svg xmlns="http://www.w3.org/2000/svg" xmlns:xlink="http://www.w3.org/1999/xlink" version="1.2" >
<font id="Brandon Text Bold Italic">
<font-face  font-family="Brandon Text" units-per-em="1000" ascent="700" descent="-300" font-style="italic" font-weight="700" font-stretch="normal" slope="-8" cap-height="700" x-height="462" underline-position="-75" underline-thickness="50" />
<missing-glyph  horiz-adv-x="599" d="M50 30 C50 9 59 0 80 0 L519 0 C540 0 549 9 549 30 L549 670 C549 691 540 700 519 700 L80 700 C59 700 50 691 50 670 L50 30 Z M262 314 L262 343 C262 418 361 427 361 490 C361 517 340 542 300 542 C252 542 229 513 216 501 C210 497 205 497 199 501 L177 523 C171 528 173 535 177 541 C177 541 220 602 307 602 C378 602 432 556 432 491 C432 404 327 389 327 341 L327 315 C327 306 321 302 312 302 L276 302 C269 302 262 307 262 314 L262 314 Z M245 156 C245 182 267 204 293 204 C320 204 342 182 342 156 C342 130 320 108 293 108 C267 108 245 130 245 156 L245 156 Z " />
<glyph glyph-name=".null" d="" />
<glyph glyph-name="&amp;#x0;" d="" />
<glyph glyph-name="&amp;#xd;" unicode="&#xd;" d="" />
<glyph glyph-name="space" unicode="&#x20;" horiz-adv-x="240" d="" />
<glyph glyph-name="exclam" unicode="&#x21;" horiz-adv-x="263" d="M113 272 L146 272 C154 272 164 280 166 288 L245 569 L261 681 C262 691 256 700 247 700 L132 700 C123 700 114 691 113 681 L97 567 L98 288 C97 280 104 272 113 272 L113 272 Z M20 62 C20 23 50 -10 89 -10 C137 -10 183 32 183 82 C183 121 153 155 112 155 C65 155 20 112 20 62 L20 62 Z " />
<glyph glyph-name="quotedbl" unicode="&#x22;" horiz-adv-x="359" d="M255 501 L299 501 C308 501 314 508 317 516 L380 675 C386 689 379 700 367 700 L283 700 C274 700 265 691 264 681 L241 520 C239 510 246 501 255 501 L255 501 Z M96 501 L140 501 C151 501 155 508 158 516 L221 675 C227 689 220 700 208 700 L124 700 C115 700 106 691 105 681 L82 520 C80 510 87 501 96 501 L96 501 Z " />
<glyph glyph-name="numbersign" unicode="&#x23;" horiz-adv-x="523" d="M69 22 C66 10 72 0 83 0 L98 0 C106 0 115 7 118 16 L162 188 L305 188 L260 22 C258 10 263 0 274 0 L289 0 C298 0 307 7 309 16 L354 188 L418 188 C427 188 437 197 438 207 L440 221 C442 232 435 240 426 240 L369 240 L412 404 L475 404 C485 404 493 413 494 423 L496 437 C498 447 492 456 482 456 L426 456 L485 678 C488 690 481 700 471 700 L456 700 C448 700 438 692 436 684 L377 456 L235 456 L293 678 C296 690 290 700 280 700 L264 700 C256 700 247 692 245 684 L184 456 L113 456 C104 456 94 447 93 437 L91 423 C90 413 97 404 106 404 L171 404 L127 240 L56 240 C46 240 38 232 37 221 L35 207 C33 197 39 188 49 188 L113 188 L69 22 Z M177 240 L221 404 L362 404 L319 240 L177 240 Z " />
<glyph glyph-name="dollar" unicode="&#x24;" horiz-adv-x="600" d="M71 65 C84 51 143 -3 230 -9 L216 -113 C214 -123 220 -131 228 -131 L244 -131 C253 -131 262 -124 264 -113 L278 -10 C420 -5 499 87 499 208 C499 305 403 378 339 415 L364 595 C403 589 442 567 461 550 C473 540 484 544 492 554 L535 610 C543 620 542 636 534 643 C515 659 460 701 381 708 L385 741 C387 752 380 760 371 760 L357 760 C348 760 339 752 337 741 L333 709 C189 701 121 608 121 498 C121 397 203 340 274 294 L246 108 C201 118 165 141 144 160 C133 170 120 171 108 154 L69 98 C58 83 61 77 71 65 L71 65 Z M291 440 C260 463 246 487 246 518 C246 559 274 592 314 599 L291 440 Z M296 107 L320 271 C349 246 364 219 364 187 C364 140 333 115 296 107 L296 107 Z " />
<glyph glyph-name="percent" unicode="&#x25;" horiz-adv-x="614" d="M186 440 C261 440 322 508 322 593 C322 658 275 710 213 710 C131 710 76 641 76 557 C76 492 123 440 186 440 L186 440 Z M72 27 C64 14 70 0 84 0 L135 0 C142 0 148 6 151 10 L555 673 C563 686 557 700 544 700 L492 700 C484 700 479 696 475 690 L72 27 Z M192 526 C174 526 162 545 162 567 C162 598 183 623 205 623 C223 623 234 604 234 582 C234 552 213 526 192 526 L192 526 Z M312 107 C312 42 359 -10 422 -10 C497 -10 558 58 558 143 C558 208 511 260 449 260 C367 260 312 191 312 107 L312 107 Z M398 117 C398 148 419 173 441 173 C459 173 470 154 470 132 C470 102 449 76 428 76 C410 76 398 95 398 117 L398 117 Z " />
<glyph glyph-name="ampersand" unicode="&#x26;" horiz-adv-x="631" d="M37 157 C37 68 107 -10 214 -10 C345 -10 423 69 423 69 L468 4 C476 -8 492 -10 506 -1 L549 28 C570 43 567 62 557 74 L494 158 C494 158 555 228 578 327 C582 343 581 362 560 368 L514 382 C492 389 483 379 477 357 C459 288 425 240 425 240 L345 358 C359 368 486 437 486 562 C486 641 420 710 316 710 C211 710 135 638 135 538 C135 491 163 444 184 414 L200 391 L200 389 C191 377 37 309 37 157 L37 157 Z M291 440 L275 464 C257 491 244 509 244 537 C244 580 274 614 316 614 C354 614 377 584 377 550 C377 483 303 448 291 440 L291 440 Z M156 178 C156 256 243 299 254 307 L357 158 C357 158 310 96 235 96 C190 96 156 131 156 178 L156 178 Z " />
<glyph glyph-name="quotesingle" unicode="&#x27;" horiz-adv-x="200" d="M97 501 L140 501 C148 501 155 508 158 516 L221 675 C227 689 220 700 208 700 L125 700 C116 700 106 691 105 681 L82 520 C81 510 88 501 97 501 L97 501 Z " />
<glyph glyph-name="parenleft" unicode="&#x28;" horiz-adv-x="325" d="M43 207 C43 9 138 -75 224 -79 C234 -79 242 -73 244 -63 L256 2 C258 13 253 18 248 20 C194 42 168 113 168 210 C168 298 161 571 330 611 C337 613 343 618 344 629 L350 695 C351 704 345 711 335 710 C209 699 43 614 43 207 L43 207 Z " />
<glyph glyph-name="parenright" unicode="&#x29;" horiz-adv-x="326" d="M-10 3 L-16 -63 C-17 -73 -11 -79 -1 -79 C124 -73 291 12 291 423 C291 632 196 703 110 710 C100 711 92 704 90 695 L78 629 C76 618 80 613 86 611 C143 595 166 516 166 419 C166 148 88 48 4 21 C-2 19 -9 14 -10 3 L-10 3 Z " />
<glyph glyph-name="asterisk" unicode="&#x2a;" horiz-adv-x="408" d="M198 370 L231 370 C240 370 250 379 251 389 L261 475 L320 425 C327 419 337 423 344 431 L367 458 C373 466 374 478 366 484 L297 535 L380 585 C390 591 393 603 388 612 L374 639 C370 647 359 649 351 644 L278 593 L292 681 C294 691 287 700 278 700 L244 700 C234 700 226 691 225 681 L214 593 L155 643 C149 648 138 646 132 639 L109 612 C102 604 102 590 110 585 L180 535 L96 485 C87 479 83 467 88 458 L102 431 C106 423 117 420 125 426 L198 476 L184 389 C182 379 189 370 198 370 L198 370 Z " />
<glyph glyph-name="plus" unicode="&#x2b;" horiz-adv-x="600" d="M229 150 C228 140 235 132 244 132 L308 132 C317 132 327 140 328 150 L349 299 L481 299 C490 299 499 308 500 318 L508 374 C509 384 503 393 494 393 L362 393 L383 544 C385 554 378 562 369 562 L304 562 C295 562 286 554 285 544 L263 393 L136 393 C127 393 117 384 116 374 L108 318 C107 308 113 299 122 299 L250 299 L229 150 Z " />
<glyph glyph-name="comma" unicode="&#x2c;" horiz-adv-x="265" d="M11 75 C11 39 30 12 70 12 C84 12 99 16 110 23 C110 21 110 19 110 17 C110 -26 75 -88 34 -134 C26 -142 22 -151 29 -159 L57 -181 C64 -188 72 -188 80 -180 C148 -112 193 -24 193 69 C193 135 158 171 110 171 C54 171 11 126 11 75 L11 75 Z " />
<glyph glyph-name="hyphen" unicode="&#x2d;" horiz-adv-x="348" d="M59 192 L263 192 C273 192 282 200 283 210 L292 277 C293 288 288 296 278 296 L74 296 C64 296 55 288 54 277 L45 210 C44 200 49 192 59 192 L59 192 Z " />
<glyph glyph-name="period" unicode="&#x2e;" horiz-adv-x="263" d="M10 71 C10 26 45 -11 90 -11 C145 -11 198 37 198 94 C198 140 164 178 117 178 C62 178 10 129 10 71 L10 71 Z " />
<glyph glyph-name="slash" unicode="&#x2f;" horiz-adv-x="378" d="M22 0 L101 0 C109 0 116 6 119 13 L387 675 C393 689 387 700 375 700 L297 700 C287 700 282 694 279 687 L9 25 C3 11 10 0 22 0 L22 0 Z " />
<glyph glyph-name="zero" unicode="0" horiz-adv-x="603" d="M260 -10 C449 -10 554 169 554 439 C554 605 481 710 362 710 C180 710 67 534 67 264 C67 98 140 -10 260 -10 L260 -10 Z M277 111 C229 111 197 172 197 267 C197 457 257 590 344 590 C391 590 424 529 424 436 C424 245 364 111 277 111 L277 111 Z " />
<glyph glyph-name="one" unicode="1" horiz-adv-x="368" d="M109 20 C108 9 114 0 124 0 L217 0 C226 0 236 9 237 20 L329 681 C330 691 324 700 315 700 L259 700 C245 700 234 696 223 688 L92 587 C82 579 80 574 79 563 L74 507 C73 497 81 491 90 493 L179 513 L109 20 Z " />
<glyph glyph-name="two" unicode="2" horiz-adv-x="519" d="M218 112 L412 338 C463 399 488 458 488 517 C488 628 422 710 302 710 C192 710 120 625 105 609 C96 601 96 588 102 582 L153 525 C160 518 172 516 179 525 C204 554 239 590 287 590 C336 590 360 552 360 509 C360 460 328 417 301 385 L23 58 C10 43 9 38 7 20 C6 9 11 0 21 0 L390 0 C399 0 410 9 411 20 L420 91 C421 101 415 110 405 110 L218 110 L218 112 Z " />
<glyph glyph-name="three" unicode="3" horiz-adv-x="520" d="M20 81 C38 56 91 -10 208 -10 C354 -10 446 85 446 207 C446 283 392 335 355 353 L355 356 C417 387 477 451 477 546 C477 645 400 710 299 710 C197 710 133 640 113 619 C106 612 104 599 110 592 L159 535 C167 526 177 527 185 536 C204 553 232 586 278 586 C317 586 346 559 346 518 C346 458 298 407 221 407 L170 407 C159 407 151 400 149 386 L140 321 C138 309 145 301 154 301 L207 301 C275 301 311 256 311 209 C311 146 265 103 208 103 C158 103 124 131 109 151 C100 165 87 165 79 157 L24 107 C17 101 15 89 20 81 L20 81 Z " />
<glyph glyph-name="four" unicode="4" horiz-adv-x="593" d="M31 149 L310 149 L291 20 C290 9 297 0 306 0 L396 0 C405 0 415 9 417 20 L434 149 L507 149 C518 149 527 159 528 169 L537 238 C538 248 532 256 522 256 L449 256 L509 690 C511 701 504 710 495 710 L444 710 C427 710 423 708 411 694 L41 269 C32 259 27 248 25 234 L17 169 C15 159 21 149 31 149 L31 149 Z M170 256 L363 483 L365 483 L330 253 L170 253 L170 256 Z " />
<glyph glyph-name="five" unicode="5" horiz-adv-x="530" d="M36 81 C53 56 113 -10 223 -10 C374 -10 475 97 475 251 C475 368 408 454 292 454 L220 454 L240 591 L436 591 C447 591 456 600 457 611 L467 681 C468 691 462 700 452 700 L156 700 C146 700 137 691 136 681 L92 377 C90 360 98 341 116 341 L259 341 C318 341 348 298 348 244 C348 170 301 103 223 103 C172 103 145 126 122 151 C111 163 101 165 92 157 L40 107 C33 101 31 89 36 81 L36 81 Z " />
<glyph glyph-name="six" unicode="6" horiz-adv-x="548" d="M55 231 C55 102 130 -10 250 -10 C382 -10 490 103 490 254 C490 376 412 449 314 449 C258 449 221 431 221 431 C262 535 409 593 454 610 C473 617 479 627 475 640 L459 703 C457 716 448 721 433 717 C347 690 55 566 55 231 L55 231 Z M257 107 C184 107 160 214 176 282 C189 302 229 346 281 346 C336 346 371 302 371 245 C371 171 326 107 257 107 L257 107 Z " />
<glyph glyph-name="seven" unicode="7" horiz-adv-x="487" d="M342 586 L28 41 C22 31 20 25 20 16 C20 3 28 0 39 0 L123 0 C138 0 149 10 159 28 L516 654 C522 665 525 674 525 685 C525 694 519 700 510 700 L124 700 C115 700 105 691 104 681 L93 609 C91 598 100 589 109 589 L342 589 L342 586 Z " />
<glyph glyph-name="eight" unicode="8" horiz-adv-x="568" d="M45 163 C45 65 116 -10 242 -10 C403 -10 495 87 495 207 C495 283 439 338 404 359 L404 363 C449 389 525 451 525 546 C525 645 443 710 340 710 C210 710 110 626 110 503 C110 435 154 383 184 363 L184 359 C159 344 45 271 45 163 L45 163 Z M302 419 C260 433 240 465 240 503 C240 560 280 598 327 598 C370 598 393 572 393 529 C393 480 361 436 302 419 L302 419 Z M183 176 C183 229 223 281 285 299 C332 285 358 243 358 203 C358 138 315 100 257 100 C214 100 183 128 183 176 L183 176 Z " />
<glyph glyph-name="nine" unicode="9" horiz-adv-x="546" d="M108 -2 C111 -15 119 -21 133 -16 C220 10 511 135 511 471 C511 600 436 710 317 710 C185 710 77 599 77 447 C77 326 155 252 253 252 C309 252 346 271 346 271 C304 167 158 107 113 91 C93 83 88 73 91 61 L108 -2 Z M286 355 C230 355 195 400 195 456 C195 531 246 592 310 592 C382 592 406 487 391 419 C378 400 337 355 286 355 L286 355 Z " />
<glyph glyph-name="colon" unicode="&#x3a;" horiz-adv-x="272" d="M139 306 C187 306 231 347 231 399 C231 439 202 472 162 472 C115 472 71 430 71 378 C71 337 99 306 139 306 L139 306 Z M26 61 C26 21 54 -11 94 -11 C142 -11 186 30 186 82 C186 123 157 154 118 154 C70 154 26 113 26 61 L26 61 Z " />
<glyph glyph-name="semicolon" unicode="&#x3b;" horiz-adv-x="277" d="M135 306 C185 306 228 347 228 399 C228 439 199 472 158 472 C115 472 74 435 69 389 C62 342 92 306 135 306 L135 306 Z M25 68 C25 36 43 12 78 12 C91 12 104 16 114 22 C112 -35 79 -83 46 -119 C39 -127 34 -136 41 -142 L67 -162 C73 -168 81 -168 88 -161 C152 -101 189 -19 189 62 C189 123 157 155 114 155 C63 155 25 114 25 68 L25 68 Z " />
<glyph glyph-name="less" unicode="&#x3c;" horiz-adv-x="600" d="M110 210 L395 5 C405 -2 420 -1 422 15 L432 83 C433 92 430 96 426 99 L261 220 L261 225 L462 351 C466 354 471 358 472 367 L482 445 C484 461 471 469 459 461 L115 249 C110 246 106 243 105 235 L104 228 C103 219 105 214 110 210 L110 210 Z " />
<glyph glyph-name="equal" unicode="&#x3d;" horiz-adv-x="600" d="M156 337 L456 337 C466 337 475 346 476 356 L484 413 C485 423 479 432 469 432 L169 432 C159 432 151 423 150 413 L142 356 C141 346 146 337 156 337 L156 337 Z M127 127 L427 127 C437 127 446 136 447 146 L455 203 C456 213 450 222 440 222 L140 222 C130 222 122 213 121 203 L113 146 C112 136 117 127 127 127 L127 127 Z " />
<glyph glyph-name="greater" unicode="&#x3e;" horiz-adv-x="600" d="M125 4 L468 210 C475 214 478 220 479 226 L480 233 C481 239 478 245 473 249 L189 461 C178 469 164 465 162 449 L153 383 C152 374 154 370 158 367 L327 240 L327 238 L123 115 C118 112 114 108 113 99 L102 20 C100 4 112 -4 125 4 L125 4 Z " />
<glyph glyph-name="question" unicode="&#x3f;" horiz-adv-x="449" d="M156 272 L242 272 C253 272 259 278 261 288 L269 326 C283 393 435 422 435 559 C435 645 361 710 269 710 C156 710 99 635 86 621 C79 613 76 602 82 595 L128 544 C135 537 147 534 157 543 C172 557 208 595 248 595 C282 595 301 574 301 544 C301 466 161 432 147 333 L141 291 C139 280 147 272 156 272 L156 272 Z M89 62 C89 23 119 -10 159 -10 C206 -10 252 32 252 82 C252 121 222 155 182 155 C134 155 89 112 89 62 L89 62 Z " />
<glyph glyph-name="at" unicode="&#x40;" horiz-adv-x="921" d="M41 160 C41 -15 142 -169 270 -227 C278 -231 287 -226 292 -216 L325 -153 C331 -142 326 -133 318 -129 C219 -77 152 37 152 171 C152 429 307 607 529 607 C697 607 775 489 775 340 C775 219 729 128 666 128 C640 128 616 145 627 228 L653 411 C655 422 648 430 639 430 L605 430 C592 430 590 424 586 415 L569 381 C555 401 517 440 463 440 C354 440 267 335 267 198 C267 101 321 20 405 20 C462 20 515 60 543 98 L549 98 C558 56 583 20 645 20 C816 20 890 195 890 354 C890 556 753 710 533 710 C237 710 41 472 41 160 L41 160 Z M379 202 C379 274 410 332 467 332 C504 332 531 305 538 289 L532 248 C522 181 479 128 433 128 C401 128 379 157 379 202 L379 202 Z " />
<glyph glyph-name="A" unicode="A" horiz-adv-x="619" d="M-14 0 L78 0 C94 0 105 10 110 20 L168 131 L417 131 L442 20 C445 5 453 0 468 0 L555 0 C569 0 578 13 574 26 L390 699 C388 705 383 710 376 710 L367 710 C359 710 354 706 350 699 L-26 26 C-33 13 -28 0 -14 0 L-14 0 Z M227 239 L336 457 L338 457 L385 239 L227 239 Z " />
<glyph glyph-name="B" unicode="B" horiz-adv-x="570" d="M46 19 C44 9 50 0 60 0 L281 0 C416 0 506 92 506 213 C506 291 454 336 413 352 C463 374 535 433 535 531 C535 625 464 700 367 700 L159 700 C149 700 140 691 139 681 L46 19 Z M230 406 L255 581 L336 581 C371 581 395 555 395 510 C395 444 355 406 302 406 L230 406 Z M189 118 L215 296 L300 296 C337 296 369 268 369 220 C369 158 329 118 277 118 L189 118 Z " />
<glyph glyph-name="C" unicode="C" horiz-adv-x="628" d="M53 301 C53 129 165 -10 338 -10 C418 -10 494 20 564 87 C571 94 574 107 569 114 L517 179 C509 189 498 191 485 180 C451 150 406 121 348 121 C252 121 195 212 195 318 C195 461 299 585 419 585 C474 585 517 560 543 535 C552 526 565 525 576 535 L630 587 C639 595 640 607 634 615 C587 670 516 710 426 710 C219 710 53 536 53 301 L53 301 Z " />
<glyph glyph-name="D" unicode="D" horiz-adv-x="680" d="M46 19 C44 9 50 0 59 0 L276 0 C494 0 645 179 645 396 C645 558 532 700 374 700 L158 700 C149 700 140 691 139 681 L46 19 Z M190 122 L254 579 L348 579 C444 579 506 496 506 387 C506 237 405 122 283 122 L190 122 Z " />
<glyph glyph-name="E" unicode="E" horiz-adv-x="535" d="M46 19 C44 9 50 0 60 0 L430 0 C440 0 449 9 450 19 L461 101 C462 111 457 120 447 120 L190 120 L215 295 L427 295 C436 295 445 303 447 314 L459 397 C460 407 453 416 444 416 L232 416 L255 580 L511 580 C521 580 530 589 531 599 L543 681 C544 691 538 700 528 700 L158 700 C149 700 140 691 139 681 L46 19 Z " />
<glyph glyph-name="F" unicode="F" horiz-adv-x="518" d="M46 19 C44 9 50 0 60 0 L156 0 C165 0 174 9 176 19 L211 272 L424 272 C433 272 443 281 444 291 L455 373 C457 383 450 392 441 392 L228 392 L255 580 L511 580 C521 580 530 589 531 599 L543 681 C544 691 538 700 528 700 L158 700 C149 700 140 691 139 681 L46 19 Z " />
<glyph glyph-name="G" unicode="G" horiz-adv-x="659" d="M53 301 C53 129 171 -10 334 -10 C469 -10 548 49 558 57 C565 63 572 72 574 88 L607 328 C608 338 602 347 593 347 L416 347 C406 347 398 339 396 328 L385 250 C384 240 390 232 400 232 L464 232 L452 144 C433 132 397 120 350 120 C262 120 195 212 195 318 C195 461 299 585 419 585 C481 585 518 560 544 535 C553 526 565 526 577 535 L630 587 C639 595 640 607 634 615 C583 675 516 710 426 710 C217 710 53 536 53 301 L53 301 Z " />
<glyph glyph-name="H" unicode="H" horiz-adv-x="702" d="M46 19 C44 9 51 0 60 0 L157 0 C167 0 175 9 177 19 L216 295 L489 295 L450 19 C449 9 454 0 464 0 L561 0 C570 0 579 9 581 19 L674 681 C675 691 668 700 659 700 L563 700 C553 700 544 691 543 681 L506 416 L233 416 L270 681 C271 691 265 700 255 700 L159 700 C150 700 140 691 139 681 L46 19 Z " />
<glyph glyph-name="I" unicode="I" horiz-adv-x="298" d="M46 19 C44 9 51 0 60 0 L158 0 C167 0 176 9 177 19 L270 681 C272 691 265 700 256 700 L158 700 C149 700 140 691 139 681 L46 19 Z " />
<glyph glyph-name="J" unicode="J" horiz-adv-x="424" d="M-15 63 C-1 40 45 -10 124 -10 C253 -10 314 70 331 189 L401 681 C402 691 396 700 386 700 L287 700 C278 700 269 691 268 681 L198 186 C191 140 161 108 121 108 C92 108 73 122 62 132 C54 140 47 143 37 133 L-9 88 C-16 81 -20 71 -15 63 L-15 63 Z " />
<glyph glyph-name="K" unicode="K" horiz-adv-x="603" d="M47 24 C46 11 53 0 66 0 L160 0 C171 0 183 11 184 24 L227 329 L405 20 C414 4 422 0 441 0 L532 0 C549 0 559 18 552 31 L350 361 L623 667 C636 682 630 700 613 700 L514 700 C493 700 484 695 473 682 L238 406 L276 676 C278 689 270 700 258 700 L164 700 C151 700 141 689 139 676 L47 24 Z " />
<glyph glyph-name="L" unicode="L" horiz-adv-x="470" d="M46 19 C45 9 51 0 61 0 L395 0 C405 0 414 9 415 19 L426 101 C427 111 422 120 412 120 L191 120 L270 681 C271 691 265 700 256 700 L159 700 C149 700 140 691 139 681 L46 19 Z " />
<glyph glyph-name="M" unicode="M" horiz-adv-x="810" d="M13 23 C9 9 16 0 27 0 L122 0 C134 0 139 8 141 15 L237 374 C238 374 239 374 239 374 L341 1 C343 -5 347 -10 355 -10 L371 -10 C379 -10 385 -5 388 1 L597 374 C598 374 599 374 600 374 L592 15 C592 8 597 0 607 0 L703 0 C714 0 723 9 723 23 L714 695 C714 703 707 710 700 710 L685 710 C677 710 672 706 668 700 L396 247 L394 247 L258 700 C256 706 251 710 244 710 L230 710 C219 710 213 703 211 695 L13 23 Z " />
<glyph glyph-name="N" unicode="N" horiz-adv-x="705" d="M47 17 C46 8 53 0 61 0 L157 0 C167 0 176 9 177 19 L231 435 C231 435 232 435 232 435 L524 8 C534 -7 538 -10 553 -10 L563 -10 C572 -10 581 -2 582 8 L677 681 C678 691 671 700 662 700 L565 700 C555 700 547 691 546 681 L492 278 C492 278 491 278 491 278 L197 694 C186 710 182 710 171 710 L160 710 C151 710 142 702 141 692 L47 17 Z " />
<glyph glyph-name="O" unicode="O" horiz-adv-x="743" d="M53 300 C53 134 171 -10 334 -10 C545 -10 708 172 708 397 C708 567 589 710 427 710 C214 710 53 526 53 300 L53 300 Z M348 120 C249 120 188 209 188 317 C188 459 292 580 412 580 C511 580 573 489 573 381 C573 238 470 120 348 120 L348 120 Z " />
<glyph glyph-name="P" unicode="P" horiz-adv-x="551" d="M46 19 C44 9 50 0 60 0 L156 0 C165 0 175 9 176 19 L209 254 L311 254 C440 254 546 354 546 500 C546 605 473 700 373 700 L159 700 C149 700 140 691 139 681 L46 19 Z M226 376 L254 577 L347 577 C386 577 415 541 415 494 C415 429 368 376 319 376 L226 376 Z " />
<glyph glyph-name="Q" unicode="Q" horiz-adv-x="742" d="M52 300 C52 140 168 -10 331 -10 C339 -10 354 -9 366 -7 L434 -180 C439 -194 446 -198 459 -198 L557 -198 C571 -198 581 -185 575 -171 L491 25 C616 95 707 217 707 397 C707 570 589 710 427 710 C216 710 52 526 52 300 L52 300 Z M348 120 C249 120 188 209 188 317 C188 459 292 580 412 580 C511 580 573 489 573 381 C573 238 470 120 348 120 L348 120 Z " />
<glyph glyph-name="R" unicode="R" horiz-adv-x="618" d="M46 19 C44 9 50 0 60 0 L157 0 C166 0 175 9 176 19 L212 274 L307 274 L380 16 C383 4 392 0 402 0 L497 0 C512 0 518 13 514 26 L432 282 C527 312 591 391 591 513 C591 616 520 700 422 700 L158 700 C149 700 140 691 139 681 L46 19 Z M228 381 L256 580 L393 580 C430 580 458 552 458 497 C458 434 416 381 353 381 L228 381 Z " />
<glyph glyph-name="S" unicode="S" horiz-adv-x="511" d="M28 68 C59 39 124 -10 218 -10 C366 -10 457 88 457 205 C457 315 369 370 303 414 C243 454 216 474 216 514 C216 553 250 592 301 592 C352 592 383 573 414 548 C428 537 441 538 449 550 L488 605 C498 619 497 633 485 645 C468 662 400 710 307 710 C150 710 81 602 81 502 C81 402 159 345 225 302 C281 265 311 236 311 192 C311 142 267 107 222 107 C161 107 123 138 98 159 C90 166 76 169 67 155 L28 98 C17 83 22 74 28 68 L28 68 Z " />
<glyph glyph-name="T" unicode="T" horiz-adv-x="492" d="M142 19 C141 9 148 0 157 0 L254 0 C263 0 273 9 274 19 L353 580 L485 580 C495 580 504 589 505 599 L517 681 C518 691 512 700 502 700 L105 700 C96 700 87 691 86 681 L74 599 C73 589 79 580 89 580 L221 580 L142 19 Z " />
<glyph glyph-name="U" unicode="U" horiz-adv-x="662" d="M72 253 C70 239 69 226 69 213 C69 82 163 -10 297 -10 C453 -10 559 101 580 253 L641 681 C642 691 635 700 626 700 L527 700 C517 700 508 691 507 681 L447 259 C435 175 389 122 307 122 C239 122 205 162 205 228 C205 238 205 249 207 260 L267 681 C268 691 262 700 252 700 L153 700 C144 700 134 691 133 681 L72 253 Z " />
<glyph glyph-name="V" unicode="V" horiz-adv-x="618" d="M247 1 C249 -5 253 -10 261 -10 L270 -10 C277 -10 284 -5 287 1 L663 674 C670 687 665 700 651 700 L539 700 C531 700 526 694 523 689 L301 271 L297 271 L194 689 C193 694 187 700 180 700 L81 700 C68 700 58 687 62 674 L247 1 Z " />
<glyph glyph-name="W" unicode="W" horiz-adv-x="815" d="M157 4 C158 -4 164 -10 172 -10 L186 -10 C195 -10 200 -5 203 1 L425 434 L429 434 L531 1 C532 -5 537 -10 545 -10 L560 -10 C567 -10 575 -4 578 4 L842 676 C848 690 842 700 829 700 L734 700 C727 700 719 693 716 686 L574 307 L570 307 L489 699 C488 705 483 710 475 710 L459 710 C451 710 445 705 442 699 L240 307 L236 307 L202 686 C201 693 195 700 188 700 L101 700 C89 700 80 690 82 676 L157 4 Z " />
<glyph glyph-name="X" unicode="X" horiz-adv-x="588" d="M1 0 L116 0 C125 0 130 5 133 9 L294 253 L297 253 L397 9 C398 6 403 0 411 0 L507 0 C522 0 530 12 524 26 L382 359 L609 674 C619 687 614 700 599 700 L477 700 C472 700 466 698 461 691 L314 464 L312 464 L221 691 C219 697 214 700 208 700 L107 700 C91 700 83 687 88 674 L226 359 L-8 26 C-18 13 -14 0 1 0 L1 0 Z " />
<glyph glyph-name="Y" unicode="Y" horiz-adv-x="555" d="M295 458 L191 686 C187 696 183 700 172 700 L78 700 C64 700 55 689 61 676 L217 337 L172 19 C171 9 176 0 186 0 L283 0 C292 0 302 9 303 19 L347 338 L599 674 C608 687 605 700 590 700 L480 700 C472 700 467 695 464 691 L297 458 L295 458 Z " />
<glyph glyph-name="Z" unicode="Z" horiz-adv-x="501" d="M6 0 L394 0 C404 0 413 9 414 19 L425 102 C426 112 421 121 411 121 L197 121 L197 124 L518 660 C523 668 525 678 525 685 C525 696 519 700 510 700 L131 700 C122 700 112 691 111 681 L99 598 C98 588 105 579 114 579 L326 579 L326 576 L2 50 C-6 37 -8 30 -8 16 C-8 6 -3 0 6 0 L6 0 Z " />
<glyph glyph-name="bracketleft" unicode="&#x5b;" horiz-adv-x="337" d="M120 -138 L224 600 L339 600 C348 600 358 608 359 619 L367 681 C368 691 362 700 353 700 L139 700 C130 700 121 691 120 681 L-7 -219 C-8 -229 -1 -238 8 -238 L221 -238 C230 -238 240 -229 241 -219 L250 -156 C251 -146 244 -138 235 -138 L120 -138 Z " />
<glyph glyph-name="backslash" unicode="&#x5c;" horiz-adv-x="372" d="M184 13 C185 6 192 0 199 0 L269 0 C281 0 291 11 289 25 L206 687 C205 694 198 700 191 700 L122 700 C109 700 100 689 102 675 L184 13 Z " />
<glyph glyph-name="bracketright" unicode="&#x5d;" horiz-adv-x="338" d="M-16 -138 C-25 -138 -35 -146 -36 -156 L-45 -219 C-46 -229 -39 -238 -30 -238 L183 -238 C192 -238 202 -229 203 -219 L329 681 C331 691 324 700 315 700 L101 700 C92 700 83 691 82 681 L73 619 C71 608 78 600 87 600 L203 600 L99 -138 L-16 -138 Z " />
<glyph glyph-name="asciicircum" unicode="&#x5e;" horiz-adv-x="472" d="M57 385 L130 385 C141 385 148 390 151 394 L280 562 L281 562 L361 394 C363 389 369 385 377 385 L442 385 C456 385 463 397 457 410 L314 704 C312 709 307 714 300 714 L295 714 C287 714 282 709 278 704 L49 409 C39 397 43 385 57 385 L57 385 Z " />
<glyph glyph-name="underscore" unicode="&#x5f;" horiz-adv-x="556" d="M79 -10 C69 -10 60 -18 59 -29 L54 -68 C53 -78 59 -86 68 -86 L384 -86 C394 -86 401 -78 403 -68 L409 -29 C411 -18 404 -10 394 -10 L79 -10 Z " />
<glyph glyph-name="grave" unicode="&#x60;" horiz-adv-x="272" d="M227 531 C238 525 245 528 251 537 L271 570 C276 578 273 586 268 589 L131 686 C126 690 113 692 104 678 L75 635 C66 622 70 612 77 608 L227 531 Z " />
<glyph glyph-name="a" unicode="a" horiz-adv-x="533" d="M330 181 C322 158 280 106 232 106 C178 106 154 153 154 204 C154 294 203 356 264 356 C313 356 341 316 345 292 L330 181 Z M491 440 C494 453 485 462 475 462 L434 462 C424 462 419 455 415 447 L394 411 C377 432 329 472 264 472 C129 472 29 350 29 201 C29 83 98 -11 205 -11 C274 -11 327 38 344 55 L352 20 C355 3 363 0 370 0 L411 0 C421 0 433 10 434 22 L491 440 Z " />
<glyph glyph-name="b" unicode="b" horiz-adv-x="528" d="M26 22 C24 10 32 0 43 0 L78 0 C89 0 97 7 103 20 L120 58 C120 58 158 -12 248 -12 C383 -12 484 115 484 254 C484 380 419 472 305 472 C278 472 238 463 213 451 L246 678 C247 690 239 700 228 700 L141 700 C132 700 120 690 119 678 L26 22 Z M174 180 L195 329 C195 329 230 356 278 356 C326 356 359 317 359 253 C359 166 306 106 249 106 C201 106 178 154 174 180 L174 180 Z " />
<glyph glyph-name="c" unicode="c" horiz-adv-x="452" d="M30 204 C30 80 107 -11 221 -11 C294 -11 354 29 395 82 C403 93 399 105 390 114 L347 157 C337 167 325 163 318 155 C304 140 275 106 234 106 C190 106 156 140 156 212 C156 303 210 356 273 356 C312 356 339 334 350 321 C357 313 368 308 380 320 L418 359 C428 369 435 381 427 392 C396 435 340 472 270 472 C137 472 30 361 30 204 L30 204 Z " />
<glyph glyph-name="d" unicode="d" horiz-adv-x="532" d="M202 -11 C277 -11 327 38 344 55 L352 20 C355 3 363 0 370 0 L409 0 C419 0 431 10 432 22 L524 678 C525 690 516 700 506 700 L430 700 C413 700 401 697 399 677 L366 448 C350 459 302 472 269 472 C132 472 29 351 29 201 C29 83 104 -11 202 -11 L202 -11 Z M153 204 C153 282 198 356 268 356 C315 356 350 332 350 332 L329 177 C321 154 280 106 232 106 C185 106 153 139 153 204 L153 204 Z " />
<glyph glyph-name="e" unicode="e" horiz-adv-x="463" d="M28 194 C28 83 93 -11 210 -11 C271 -11 329 15 370 52 C379 61 379 73 373 82 L335 133 C329 143 318 140 309 133 C289 120 251 101 224 101 C168 101 145 140 148 187 C286 188 440 226 440 344 C440 415 378 472 287 472 C125 472 28 334 28 194 L28 194 Z M160 272 C172 315 221 366 268 366 C303 366 316 347 316 330 C316 293 246 272 160 272 L160 272 Z " />
<glyph glyph-name="f" unicode="f" horiz-adv-x="378" d="M29 -215 C27 -227 34 -238 45 -238 L133 -238 C143 -238 153 -227 156 -215 L237 350 L345 350 C357 350 366 361 368 372 L378 440 C380 453 373 462 361 462 L252 462 L257 499 C264 550 276 594 328 594 C361 594 380 586 394 578 C406 571 416 571 425 587 L454 641 C458 649 458 661 453 667 C436 684 384 710 328 710 C199 710 148 625 131 499 L126 462 L75 462 C64 462 56 453 54 440 L43 372 C42 361 49 350 61 350 L111 350 L29 -215 Z " />
<glyph glyph-name="g" unicode="g" horiz-adv-x="533" d="M322 129 C322 129 289 103 237 103 C177 103 158 151 158 206 C158 269 189 358 267 358 C321 358 339 320 345 294 L322 129 Z M491 440 C493 452 485 462 474 462 L433 462 C423 462 415 453 410 440 L394 403 C394 403 356 472 268 472 C117 472 29 337 29 198 C29 73 99 -11 209 -11 C251 -11 289 0 310 8 L308 -5 C295 -91 258 -115 194 -115 C151 -115 114 -90 100 -80 C92 -74 80 -77 75 -86 L40 -149 C34 -157 35 -169 41 -175 C58 -192 117 -232 188 -232 C295 -232 405 -179 429 -5 L491 440 Z " />
<glyph glyph-name="h" unicode="h" horiz-adv-x="517" d="M26 22 C25 10 32 0 43 0 L127 0 C144 0 150 9 153 22 L192 299 C192 299 214 356 275 356 C334 356 338 317 329 253 L297 22 C296 10 303 0 314 0 L399 0 C409 0 421 10 422 22 L454 251 C469 367 444 472 313 472 C269 472 236 455 211 436 L245 678 C246 690 238 700 227 700 L141 700 C132 700 120 690 119 678 L26 22 Z " />
<glyph glyph-name="i" unicode="i" horiz-adv-x="252" d="M26 22 C25 10 34 0 44 0 L129 0 C139 0 150 10 152 22 L212 440 C214 453 204 462 194 462 L108 462 C98 462 87 453 85 440 L26 22 Z M161 541 C208 541 251 582 251 630 C251 669 223 700 183 700 C135 700 93 660 93 610 C93 572 121 541 161 541 L161 541 Z " />
<glyph glyph-name="j" unicode="j" horiz-adv-x="252" d="M210 440 C212 453 202 462 191 462 L110 462 C99 462 87 453 85 440 L18 -36 C9 -98 -36 -118 -71 -136 C-89 -145 -93 -158 -89 -176 L-68 -235 C-63 -253 -42 -252 -25 -245 C55 -212 127 -156 146 -19 L210 440 Z M159 541 C206 541 249 582 249 630 C249 669 221 700 181 700 C133 700 91 660 91 610 C91 572 119 541 159 541 L159 541 Z " />
<glyph glyph-name="k" unicode="k" horiz-adv-x="495" d="M131 0 C140 0 152 10 154 22 L182 222 L299 13 C304 4 309 0 324 0 L419 0 C438 0 445 16 437 29 L303 241 L482 430 C495 443 492 462 474 462 L367 462 C355 462 347 457 339 448 L190 283 L246 678 C247 690 239 700 228 700 L141 700 C132 700 120 690 119 678 L26 22 C24 10 32 0 43 0 L131 0 Z " />
<glyph glyph-name="l" unicode="l" horiz-adv-x="255" d="M27 22 C26 10 33 0 44 0 L130 0 C140 0 152 10 153 22 L246 678 C247 690 239 700 228 700 L142 700 C133 700 121 690 120 678 L27 22 Z " />
<glyph glyph-name="m" unicode="m" horiz-adv-x="765" d="M26 22 C24 10 32 0 43 0 L125 0 C135 0 147 10 148 22 L189 296 C189 296 215 356 272 356 C321 356 330 318 321 258 L284 22 C282 10 288 0 300 0 L383 0 C394 0 404 10 406 22 L445 296 C445 296 476 356 530 356 C578 356 588 322 579 258 L543 22 C542 10 549 0 560 0 L646 0 C657 0 667 10 669 22 L702 249 C720 369 694 472 563 472 C490 472 440 423 418 402 C397 448 365 472 306 472 C237 472 196 433 169 405 L159 449 C157 457 152 462 143 462 L107 462 C97 462 86 453 85 440 L26 22 Z " />
<glyph glyph-name="n" unicode="n" horiz-adv-x="515" d="M26 22 C24 10 32 0 43 0 L125 0 C140 0 147 5 149 22 L189 292 C189 292 220 356 280 356 C332 356 338 318 330 258 L294 22 C293 10 299 0 310 0 L398 0 C408 0 419 10 420 22 L453 251 C470 370 441 472 314 472 C236 472 193 425 171 405 L161 448 C160 457 153 462 145 462 L107 462 C97 462 86 453 85 440 L26 22 Z " />
<glyph glyph-name="o" unicode="o" horiz-adv-x="506" d="M28 199 C28 89 104 -11 212 -11 C347 -11 464 114 464 264 C464 377 386 472 280 472 C141 472 28 348 28 199 L28 199 Z M229 106 C174 106 149 155 149 212 C149 292 198 356 264 356 C315 356 341 308 341 253 C341 171 291 106 229 106 L229 106 Z " />
<glyph glyph-name="p" unicode="p" horiz-adv-x="529" d="M152 15 C170 2 212 -11 246 -11 C379 -11 485 110 485 266 C485 379 426 472 319 472 C246 472 197 438 171 411 L163 448 C161 458 153 462 146 462 L107 462 C97 462 86 453 85 440 L-6 -219 C-7 -229 1 -238 10 -238 L93 -238 C113 -238 119 -229 121 -215 L152 15 Z M168 135 L188 299 C198 317 233 356 282 356 C336 356 361 316 361 261 C361 174 308 106 245 106 C198 106 168 135 168 135 L168 135 Z " />
<glyph glyph-name="q" unicode="q" horiz-adv-x="527" d="M200 -11 C234 -11 279 2 300 14 L269 -215 C266 -230 275 -238 287 -238 L371 -238 C382 -238 393 -227 394 -215 L486 440 C489 453 480 462 470 462 L433 462 C423 462 418 455 414 447 L393 411 C376 432 328 472 263 472 C128 472 29 346 29 197 C29 81 102 -11 200 -11 L200 -11 Z M235 106 C179 106 151 152 151 207 C151 295 198 356 263 356 C312 356 337 317 345 297 L321 135 C321 135 282 106 235 106 L235 106 Z " />
<glyph glyph-name="r" unicode="r" horiz-adv-x="371" d="M26 22 C24 10 32 0 43 0 L124 0 C140 0 149 5 151 22 L191 301 C204 327 224 356 267 356 C288 356 305 351 316 346 C326 341 335 345 340 355 L376 425 C383 438 378 447 371 453 C359 461 331 472 297 472 C239 472 192 431 172 402 L163 447 C161 455 155 462 145 462 L107 462 C97 462 86 453 85 440 L26 22 Z " />
<glyph glyph-name="s" unicode="s" horiz-adv-x="385" d="M153 -11 C264 -11 327 57 327 137 C327 203 279 246 218 278 C177 300 163 314 163 332 C163 349 176 366 212 366 C242 366 274 353 297 343 C309 338 319 341 324 349 L351 401 C357 413 354 428 345 435 C326 450 274 472 216 472 C104 472 46 404 46 330 C46 265 84 231 141 197 C181 173 203 155 203 132 C203 108 183 97 154 97 C119 97 90 110 68 123 C59 129 45 126 40 117 L12 63 C7 53 5 43 14 36 C35 20 90 -11 153 -11 L153 -11 Z " />
<glyph glyph-name="t" unicode="t" horiz-adv-x="366" d="M172 -11 C232 -11 285 14 294 19 C306 26 313 35 311 46 L300 116 C298 127 289 133 277 128 C266 123 243 113 223 113 C211 113 197 118 201 148 L229 351 L318 351 C330 351 340 362 341 373 L349 440 C351 453 345 462 333 462 L245 462 L262 590 C264 602 258 612 247 612 L159 612 C149 612 138 602 136 590 L119 462 L68 462 C58 462 48 453 46 440 L38 373 C37 362 44 351 55 351 L104 351 L73 138 C59 44 101 -11 172 -11 L172 -11 Z " />
<glyph glyph-name="u" unicode="u" horiz-adv-x="499" d="M176 -11 C258 -11 289 29 313 56 L321 17 C323 8 329 0 339 0 L377 0 C387 0 399 10 400 22 L458 440 C460 453 451 462 441 462 L357 462 C345 462 335 458 332 440 L294 169 C294 169 272 106 215 106 C176 106 162 130 171 191 L207 440 C209 453 201 462 190 462 L104 462 C93 462 84 453 82 440 L46 195 C29 78 50 -11 176 -11 L176 -11 Z " />
<glyph glyph-name="v" unicode="v" horiz-adv-x="455" d="M168 1 C170 -5 175 -11 184 -11 L188 -11 C198 -11 205 -6 208 1 L457 434 C467 448 461 462 446 462 L362 462 C350 462 341 461 334 449 L217 229 C216 229 215 229 214 229 L159 449 C157 457 152 462 142 462 L59 462 C43 462 35 450 39 436 L168 1 Z " />
<glyph glyph-name="w" unicode="w" horiz-adv-x="657" d="M116 2 C117 -5 123 -11 132 -11 L136 -11 C145 -11 152 -6 155 0 L326 270 C326 270 327 270 327 270 L420 0 C422 -6 427 -11 434 -11 L440 -11 C450 -11 456 -5 460 2 L651 436 C658 450 654 462 638 462 L562 462 C551 462 541 461 536 448 L446 243 C446 243 445 243 445 243 L373 463 C370 469 365 474 358 474 L348 474 C338 474 335 470 330 463 L194 243 C194 243 193 243 193 243 L162 448 C161 457 152 462 146 462 L67 462 C53 462 45 453 47 438 L116 2 Z " />
<glyph glyph-name="x" unicode="x" horiz-adv-x="479" d="M2 0 L103 0 C111 0 118 4 121 9 L221 151 C221 151 223 151 223 151 L292 19 C297 8 302 0 316 0 L395 0 C411 0 421 16 415 31 L307 229 L466 429 C477 445 474 462 455 462 L360 462 C345 462 338 459 328 446 L241 324 C241 324 240 324 240 324 L177 446 C169 460 163 462 155 462 L67 462 C49 462 41 445 49 429 L155 239 L-7 30 C-18 15 -16 0 2 0 L2 0 Z " />
<glyph glyph-name="y" unicode="y" horiz-adv-x="472" d="M132 33 L3 -210 C-6 -227 -1 -238 13 -238 L108 -238 C118 -238 125 -230 128 -224 L472 432 C480 447 475 462 459 462 L368 462 C359 462 350 460 345 449 L215 167 C215 167 212 167 212 167 L167 449 C166 457 156 462 150 462 L61 462 C44 462 40 447 43 432 L132 33 Z " />
<glyph glyph-name="z" unicode="z" horiz-adv-x="388" d="M13 0 L279 0 C291 0 301 10 302 22 L313 91 C314 103 309 113 297 113 L178 113 L178 116 L379 430 C382 435 383 440 383 444 C383 455 376 462 364 462 L86 462 C76 462 66 453 65 440 L55 370 C53 359 59 348 69 348 L194 348 L194 345 L4 44 C-2 34 -5 28 -5 18 C-5 10 0 0 13 0 L13 0 Z " />
<glyph glyph-name="braceleft" unicode="&#x7b;" horiz-adv-x="365" d="M58 4 C37 -151 154 -244 246 -248 C255 -249 265 -241 267 -231 L278 -168 C280 -157 275 -150 269 -149 C194 -133 156 -98 170 4 L183 101 C194 182 149 215 126 226 L126 230 C135 234 208 274 220 360 L233 455 C247 557 294 594 376 612 C382 613 390 619 391 630 L396 693 C397 705 391 710 381 710 C271 710 151 675 121 455 L105 338 C99 295 41 271 32 269 C26 267 19 262 17 252 L11 203 C9 193 14 186 21 185 C42 181 79 162 73 117 L58 4 Z " />
<glyph glyph-name="bar" unicode="&#x7c;" horiz-adv-x="175" d="M-7 -220 C-8 -230 -1 -238 8 -238 L20 -238 C29 -238 39 -230 40 -220 L175 741 C176 752 170 760 161 760 L147 760 C138 760 129 752 128 741 L-7 -220 Z " />
<glyph glyph-name="braceright" unicode="&#x7d;" horiz-adv-x="364" d="M116 4 C102 -98 62 -132 -26 -150 C-32 -151 -40 -158 -41 -169 L-47 -232 C-48 -242 -40 -249 -31 -249 C85 -249 200 -191 228 4 L244 117 C250 162 293 181 315 185 C322 186 329 193 331 203 L338 252 C339 262 334 267 328 269 C319 271 269 295 275 338 L291 455 C315 630 190 710 103 710 C93 710 85 705 83 693 L71 630 C68 619 74 613 80 612 C149 595 193 557 179 455 L166 360 C154 274 215 234 223 230 L222 226 C195 215 140 182 129 101 L116 4 Z " />
<glyph glyph-name="asciitilde" unicode="&#x7e;" horiz-adv-x="504" d="M75 194 C82 186 93 186 101 196 C116 216 142 247 170 247 C192 247 207 232 222 219 C247 198 280 176 324 176 C398 176 466 271 466 271 C473 278 473 289 468 295 L428 342 C421 350 410 350 401 340 C385 321 359 288 332 288 C306 288 288 307 271 320 C248 339 217 361 179 361 C104 361 33 266 33 266 C27 259 26 249 32 242 L75 194 Z " />
<glyph glyph-name="uni00A0" unicode="&#xa0;" horiz-adv-x="240" d="" />
<glyph glyph-name="exclamdown" unicode="&#xa1;" horiz-adv-x="243" d="M129 307 C176 307 221 350 221 400 C221 439 191 472 152 472 C104 472 58 430 58 380 C58 341 88 307 129 307 L129 307 Z M75 174 L-4 -107 L-20 -219 C-21 -229 -15 -238 -6 -238 L109 -238 C118 -238 127 -229 128 -219 L144 -105 L143 174 C144 182 137 190 128 190 L95 190 C87 190 77 182 75 174 L75 174 Z " />
<glyph glyph-name="cent" unicode="&#xa2;" horiz-adv-x="498" d="M52 204 C52 113 92 41 159 8 L115 -106 C109 -118 116 -129 126 -131 L140 -135 C150 -138 161 -131 165 -120 L208 -8 C219 -10 231 -11 243 -11 C316 -11 376 29 417 82 C425 93 421 105 412 114 L369 157 C359 167 347 163 340 155 C326 140 297 106 256 106 L252 106 L344 343 C357 336 366 327 372 321 C379 313 390 308 402 320 L440 359 C450 369 457 381 449 392 C433 413 411 434 384 448 L406 504 C410 517 406 528 395 530 L380 533 C371 535 359 530 355 519 L335 467 C321 470 307 472 292 472 C159 472 52 361 52 204 L52 204 Z M178 212 C178 291 230 354 292 356 L206 131 C188 151 178 181 178 212 L178 212 Z " />
<glyph glyph-name="sterling" unicode="&#xa3;" horiz-adv-x="600" d="M104 19 C103 9 110 0 119 0 L420 0 C429 0 438 9 439 19 L449 92 C451 103 445 111 436 111 L273 111 C296 172 306 243 308 291 L392 291 C402 291 410 299 412 309 L415 323 C417 333 409 342 399 342 L307 342 C304 386 292 439 292 480 C292 559 337 597 378 597 C415 597 442 564 451 554 C457 548 466 548 475 557 L532 613 C539 621 540 633 534 639 C514 661 466 710 389 710 C258 710 164 618 164 465 C164 418 168 373 172 342 L144 342 C135 342 127 333 125 323 L123 310 C121 300 128 291 137 291 L175 291 C177 216 165 131 107 37 L104 19 Z " />
<glyph glyph-name="currency" unicode="&#xa4;" horiz-adv-x="464" d="M98 161 C104 155 115 154 122 161 L174 209 C187 200 203 196 219 196 C235 196 252 200 268 209 L307 161 C312 154 322 156 330 162 L377 201 C385 208 386 221 381 228 L343 275 C356 300 363 328 363 355 C363 367 361 378 359 389 L410 436 C417 443 419 456 413 462 L378 502 C372 508 361 509 354 502 L303 455 C289 463 273 468 257 468 C241 468 224 463 208 455 L170 502 C165 509 154 509 146 502 L100 463 C92 457 91 443 96 436 L135 388 C122 363 116 335 116 308 C116 297 117 286 119 276 L67 228 C60 221 57 207 63 201 L98 161 Z M231 281 C210 281 195 299 195 323 C195 351 215 384 244 384 C266 384 280 367 280 343 C280 312 260 281 231 281 L231 281 Z " />
<glyph glyph-name="yen" unicode="&#xa5;" horiz-adv-x="600" d="M112 120 L207 120 L193 19 C192 9 197 0 207 0 L304 0 C313 0 323 9 324 19 L338 120 L431 120 C441 120 449 128 451 138 L453 152 C454 162 448 171 438 171 L345 171 L354 240 L448 240 C458 240 466 248 468 258 L469 272 C471 282 465 291 455 291 L361 291 L368 338 L620 674 C629 687 626 700 611 700 L501 700 C493 700 488 695 485 691 L317 456 L212 686 C208 696 204 700 193 700 L99 700 C85 700 76 689 82 676 L238 337 L231 291 L136 291 C127 291 119 282 118 272 L116 259 C114 249 120 240 129 240 L224 240 L214 171 L120 171 C111 171 102 162 101 152 L99 139 C98 129 103 120 112 120 L112 120 Z " />
<glyph glyph-name="brokenbar" unicode="&#xa6;" horiz-adv-x="181" d="M99 392 L112 392 C121 392 130 400 131 410 L178 741 C179 752 173 760 164 760 L150 760 C141 760 132 752 131 741 L84 410 C83 400 90 392 99 392 L99 392 Z M42 111 L-4 -220 C-5 -230 2 -238 11 -238 L23 -238 C32 -238 42 -230 43 -220 L90 111 C91 122 85 130 76 130 L62 130 C53 130 44 122 42 111 L42 111 Z " />
<glyph glyph-name="section" unicode="&#xa7;" horiz-adv-x="524" d="M45 -93 L12 -141 C1 -157 3 -165 11 -175 C25 -191 95 -249 188 -249 C334 -249 416 -153 416 -38 C416 19 393 61 372 80 C412 109 456 170 456 245 C456 346 372 398 307 432 C251 461 225 490 225 526 C225 564 255 598 299 598 C346 598 395 571 412 556 C424 546 434 549 443 561 L484 615 C492 625 491 640 483 646 C463 661 408 710 314 710 C164 710 98 605 98 506 C98 452 120 410 143 390 C97 359 59 305 59 229 C59 138 132 84 195 47 C246 17 275 -17 275 -65 C275 -108 239 -135 199 -135 C145 -135 86 -91 79 -85 C66 -74 54 -80 45 -93 L45 -93 Z M280 138 C223 175 180 197 180 248 C180 300 210 328 218 335 C278 305 322 275 322 228 C322 168 280 138 280 138 L280 138 Z " />
<glyph glyph-name="dieresis" unicode="&#xa8;" horiz-adv-x="373" d="M299 542 C333 542 370 574 375 615 C379 656 353 687 316 687 C281 687 246 656 242 615 C237 574 261 542 299 542 L299 542 Z M110 542 C145 542 181 574 186 615 C190 656 165 687 127 687 C93 687 57 656 53 615 C48 574 73 542 110 542 L110 542 Z " />
<glyph glyph-name="copyright" unicode="&#xa9;" horiz-adv-x="765" d="M64 303 C64 131 180 -9 341 -9 C545 -9 719 174 719 397 C719 569 603 710 442 710 C236 710 64 525 64 303 L64 303 Z M140 312 C140 488 280 631 431 631 C555 631 643 522 643 388 C643 213 503 69 352 69 C228 69 140 179 140 312 L140 312 Z M229 328 C229 234 292 161 376 161 C415 161 448 173 484 203 C492 211 494 223 489 231 L456 274 C451 281 442 282 434 276 C419 265 403 257 387 257 C348 257 323 292 323 336 C323 395 365 445 413 445 C429 445 443 442 458 431 C464 426 472 426 480 433 L521 469 C531 477 531 490 524 498 C499 526 460 536 424 536 C318 536 229 448 229 328 L229 328 Z " />
<glyph glyph-name="ordfeminine" unicode="&#xaa;" horiz-adv-x="321" d="M143 398 C186 398 212 420 230 437 C233 421 237 406 247 406 L274 406 C281 406 288 412 289 420 L311 581 C323 666 303 710 221 710 C175 710 146 704 131 696 C121 690 117 683 117 676 L118 643 C117 631 122 626 132 628 C148 632 181 639 201 639 C231 639 236 623 229 586 C229 586 208 594 185 594 C111 594 64 547 64 484 C64 432 95 398 143 398 L143 398 Z M174 466 C158 466 147 478 147 496 C147 523 166 540 187 540 C199 540 213 536 218 532 L214 493 C209 480 192 466 174 466 L174 466 Z " />
<glyph glyph-name="guillemotleft" unicode="&#xab;" horiz-adv-x="465" d="M292 69 C294 65 298 61 304 61 L366 61 C381 61 388 75 384 91 L352 228 L432 377 C441 393 438 408 422 408 L358 408 C348 408 341 401 337 396 L223 248 C218 242 216 232 220 224 L292 69 Z M104 69 C106 65 110 61 116 61 L178 61 C193 61 200 75 196 91 L164 228 L244 377 C253 393 250 408 234 408 L170 408 C160 408 153 401 149 396 L35 248 C30 242 28 232 32 224 L104 69 Z " />
<glyph glyph-name="logicalnot" unicode="&#xac;" horiz-adv-x="530" d="M78 300 L361 300 L340 149 C338 139 345 131 354 131 L412 131 C421 131 430 139 431 149 L463 375 C464 384 459 394 449 394 L91 394 C82 394 73 385 72 375 L64 319 C63 309 69 300 78 300 L78 300 Z " />
<glyph glyph-name="uni00AD" unicode="&#xad;" horiz-adv-x="348" d="M59 192 L263 192 C273 192 282 200 283 210 L292 277 C293 288 288 296 278 296 L74 296 C64 296 55 288 54 277 L45 210 C44 200 49 192 59 192 L59 192 Z " />
<glyph glyph-name="registered" unicode="&#xae;" horiz-adv-x="765" d="M64 303 C64 131 180 -9 341 -9 C545 -9 719 174 719 397 C719 569 603 710 442 710 C236 710 64 525 64 303 L64 303 Z M140 312 C140 488 280 631 431 631 C555 631 643 522 643 388 C643 213 503 69 352 69 C228 69 140 179 140 312 L140 312 Z M261 168 L311 168 C321 168 329 177 330 187 L345 294 L388 294 L408 182 C409 175 415 168 422 168 L476 168 C489 168 498 181 495 195 L470 304 C507 318 550 351 550 428 C550 494 506 534 455 534 L312 534 C303 534 294 525 293 515 L247 187 C245 177 251 168 261 168 L261 168 Z M353 368 L365 450 L431 450 C447 450 458 436 458 416 C458 389 439 368 419 368 L353 368 Z " />
<glyph glyph-name="macron" unicode="&#xaf;" horiz-adv-x="373" d="M52 570 L283 570 C293 570 301 578 302 588 L307 622 C309 633 302 641 293 641 L62 641 C52 641 43 633 42 622 L38 588 C37 578 42 570 52 570 L52 570 Z " />
<glyph glyph-name="degree" unicode="&#xb0;" horiz-adv-x="314" d="M184 440 C259 440 320 508 320 593 C320 658 273 710 211 710 C129 710 74 641 74 557 C74 492 121 440 184 440 L184 440 Z M190 526 C172 526 160 545 160 567 C160 598 181 623 203 623 C221 623 232 604 232 582 C232 552 211 526 190 526 L190 526 Z " />
<glyph glyph-name="plusminus" unicode="&#xb1;" horiz-adv-x="600" d="M272 242 L334 242 C343 242 352 250 354 260 L367 363 L498 363 C507 363 516 372 517 382 L525 438 C526 448 520 457 511 457 L380 457 L401 605 C402 615 395 623 386 623 L325 623 C316 623 306 615 305 605 L284 457 L153 457 C144 457 135 448 134 438 L126 382 C125 372 131 363 140 363 L271 363 L258 260 C256 250 263 242 272 242 L272 242 Z M87 47 L442 47 C451 47 460 56 461 66 L469 122 C470 132 464 141 455 141 L97 141 C88 141 78 132 77 122 L70 66 C69 56 75 47 87 47 L87 47 Z " />
<glyph glyph-name="twosuperior" unicode="&#xb2;" horiz-adv-x="262" d="M69 504 L245 504 C249 504 254 508 254 513 L261 559 C262 564 258 568 253 568 L187 568 L244 632 C272 664 286 695 286 731 C286 778 247 810 198 810 C149 810 117 786 110 781 C97 772 99 768 103 760 L121 727 C126 718 131 718 137 722 C151 732 166 741 181 741 C197 741 205 728 205 713 C205 696 195 678 176 656 L64 530 L61 513 C60 507 64 504 69 504 L69 504 Z " />
<glyph glyph-name="threesuperior" unicode="&#xb3;" horiz-adv-x="258" d="M151 494 C214 494 267 529 267 590 C267 628 240 649 223 657 C248 668 280 695 280 738 C280 782 241 810 187 810 C139 810 107 780 107 780 C101 776 99 767 103 762 L124 731 C129 723 132 725 138 728 C147 736 159 744 171 744 C187 744 197 734 197 719 C197 698 181 683 162 683 L136 683 C127 683 120 679 119 669 L115 638 C113 627 117 624 125 624 L153 624 C174 624 184 612 184 596 C184 574 172 560 146 560 C127 560 115 567 109 573 C103 579 98 577 92 571 L70 545 C64 538 64 533 70 527 C77 519 104 494 151 494 L151 494 Z " />
<glyph glyph-name="acute" unicode="&#xb4;" horiz-adv-x="272" d="M90 528 L262 605 C271 609 277 620 271 632 L247 684 C242 695 232 695 223 689 L59 592 C51 588 48 581 51 573 L67 534 C71 525 76 522 90 528 L90 528 Z " />
<glyph glyph-name="mu" unicode="&#xb5;" horiz-adv-x="519" d="M9 -216 C8 -228 15 -238 26 -238 L112 -238 C122 -238 134 -228 135 -216 L164 -8 C174 -10 185 -11 197 -11 C279 -11 310 29 334 56 L342 17 C344 8 350 0 360 0 L398 0 C408 0 420 10 421 22 L479 440 C481 453 472 462 462 462 L378 462 C366 462 356 458 353 440 L315 169 C315 169 293 106 236 106 C201 106 185 137 192 188 L228 440 C230 453 222 462 211 462 L125 462 C114 462 105 453 103 440 L9 -216 Z " />
<glyph glyph-name="paragraph" unicode="&#xb6;" horiz-adv-x="683" d="M188 -219 C187 -229 194 -238 203 -238 L260 -238 C269 -238 278 -229 279 -219 L396 615 L514 615 L397 -219 C396 -229 402 -238 411 -238 L468 -238 C478 -238 487 -229 488 -219 L605 616 L667 616 C676 616 684 624 686 635 L693 681 C695 691 687 700 678 700 L265 700 C157 700 59 590 59 463 C59 361 127 281 219 281 L258 281 L188 -219 Z " />
<glyph glyph-name="periodcentered" unicode="&#xb7;" horiz-adv-x="262" d="M113 167 C167 167 218 213 218 267 C218 312 184 348 138 348 C86 348 36 302 36 246 C36 203 69 167 113 167 L113 167 Z " />
<glyph glyph-name="cedilla" unicode="&#xb8;" horiz-adv-x="247" d="M124 3 L64 -96 C58 -105 68 -118 79 -114 C88 -111 100 -103 118 -103 C143 -103 159 -114 159 -135 C159 -168 128 -180 106 -180 C87 -180 72 -170 66 -164 C56 -155 45 -159 37 -173 L25 -193 C18 -204 15 -213 22 -221 C36 -236 71 -246 110 -246 C181 -246 237 -201 237 -132 C237 -86 204 -59 163 -59 C156 -59 149 -60 142 -62 L192 3 L124 3 Z " />
<glyph glyph-name="onesuperior" unicode="&#xb9;" horiz-adv-x="203" d="M119 504 L181 504 C186 504 190 508 191 513 L230 791 C231 796 228 800 223 800 L171 800 L97 755 C92 752 89 749 88 741 L85 711 C84 705 87 702 91 702 L138 706 L111 513 C111 508 114 504 119 504 L119 504 Z " />
<glyph glyph-name="ordmasculine" unicode="&#xba;" horiz-adv-x="314" d="M172 394 C260 394 314 471 314 587 C314 662 277 710 216 710 C127 710 74 634 74 517 C74 443 112 394 172 394 L172 394 Z M182 468 C168 468 158 488 158 520 C158 582 177 636 206 636 C220 636 230 616 230 584 C230 520 210 468 182 468 L182 468 Z " />
<glyph glyph-name="guillemotright" unicode="&#xbb;" horiz-adv-x="465" d="M207 92 C198 76 201 61 217 61 L281 61 C291 61 298 68 302 73 L416 221 C421 227 423 237 419 245 L347 400 C345 404 341 408 335 408 L273 408 C258 408 251 394 255 378 L287 241 L207 92 Z M29 61 L93 61 C103 61 110 68 114 73 L228 221 C233 227 235 237 231 245 L159 400 C157 404 153 408 147 408 L85 408 C70 408 63 394 67 378 L99 241 L19 92 C10 76 13 61 29 61 L29 61 Z " />
<glyph glyph-name="onequarter" unicode="&#xbc;" horiz-adv-x="610" d="M52 27 C44 14 50 0 64 0 L115 0 C122 0 128 6 131 10 L535 673 C543 686 537 700 524 700 L472 700 C464 700 459 696 455 690 L52 27 Z M118 404 L180 404 C185 404 189 408 190 413 L229 691 C230 696 227 700 222 700 L170 700 L96 655 C91 652 88 649 87 641 L84 611 C83 605 86 602 90 602 L137 606 L110 413 C110 408 113 404 118 404 L118 404 Z M298 65 C298 61 301 57 305 57 L425 57 L418 9 C417 4 421 0 426 0 L482 0 C487 0 491 4 492 9 L498 57 L534 57 C538 57 543 61 543 66 L549 109 C550 113 547 117 542 117 L507 117 L531 287 C532 292 528 296 524 296 L485 296 C480 296 477 296 472 291 L305 116 L298 65 Z M375 116 L446 188 L434 116 L375 116 Z " />
<glyph glyph-name="onehalf" unicode="&#xbd;" horiz-adv-x="602" d="M52 27 C44 14 50 0 64 0 L115 0 C122 0 128 6 131 10 L535 673 C543 686 537 700 524 700 L472 700 C464 700 459 696 455 690 L52 27 Z M118 404 L180 404 C185 404 189 408 190 413 L229 691 C230 696 227 700 222 700 L170 700 L96 655 C91 652 88 649 87 641 L84 611 C83 605 86 602 90 602 L137 606 L110 413 C110 408 113 404 118 404 L118 404 Z M322 9 C321 3 325 0 330 0 L506 0 C510 0 515 4 515 9 L522 55 C523 60 519 64 514 64 L448 64 L505 128 C533 160 547 191 547 227 C547 274 508 306 459 306 C410 306 378 282 371 277 C358 268 360 264 364 256 L382 223 C387 214 392 214 398 218 C412 228 427 237 442 237 C458 237 466 224 466 209 C466 192 456 174 437 152 L325 26 L322 9 Z " />
<glyph glyph-name="threequarters" unicode="&#xbe;" horiz-adv-x="660" d="M148 394 C211 394 264 429 264 490 C264 528 237 549 220 557 C245 568 277 595 277 638 C277 682 238 710 184 710 C136 710 104 680 104 680 C98 676 96 667 100 662 L121 631 C126 623 129 625 135 628 C144 636 156 644 168 644 C184 644 194 634 194 619 C194 598 178 583 159 583 L133 583 C124 583 117 579 116 569 L112 538 C110 527 114 524 122 524 L150 524 C171 524 181 512 181 496 C181 474 169 460 143 460 C124 460 112 467 106 473 C100 479 95 477 89 471 L67 445 C61 438 61 433 67 427 C74 419 101 394 148 394 L148 394 Z M103 27 C95 14 101 0 115 0 L166 0 C173 0 179 6 182 10 L586 673 C594 686 588 700 575 700 L523 700 C515 700 510 696 506 690 L103 27 Z M349 65 C349 61 352 57 356 57 L476 57 L469 9 C468 4 472 0 477 0 L533 0 C538 0 542 4 543 9 L549 57 L585 57 C589 57 594 61 594 66 L600 109 C601 113 598 117 593 117 L558 117 L582 287 C583 292 579 296 575 296 L536 296 C531 296 528 296 523 291 L356 116 L349 65 Z M426 116 L497 188 L485 116 L426 116 Z " />
<glyph glyph-name="questiondown" unicode="&#xbf;" horiz-adv-x="419" d="M227 307 C275 307 320 350 320 400 C320 439 290 472 250 472 C203 472 157 430 157 380 C157 341 187 307 227 307 L227 307 Z M140 136 C126 69 -26 40 -26 -97 C-26 -183 48 -248 140 -248 C253 -248 310 -173 323 -159 C330 -151 333 -140 327 -133 L281 -82 C274 -75 262 -72 252 -81 C237 -95 201 -133 161 -133 C127 -133 108 -112 108 -82 C108 -4 248 30 262 129 L268 171 C269 182 262 190 253 190 L167 190 C156 190 150 184 148 174 L140 136 Z " />
<glyph glyph-name="Agrave" unicode="&#xc0;" horiz-adv-x="619" d="M-14 0 L78 0 C94 0 105 10 110 20 L168 131 L417 131 L442 20 C445 5 453 0 468 0 L555 0 C569 0 578 13 574 26 L390 699 C388 705 383 710 376 710 L367 710 C359 710 354 706 350 699 L-26 26 C-33 13 -28 0 -14 0 L-14 0 Z M227 239 L336 457 L338 457 L385 239 L227 239 Z M448 769 C459 763 466 766 472 775 L492 808 C497 816 494 824 489 827 L352 924 C347 928 334 930 325 916 L296 873 C287 860 291 850 298 846 L448 769 Z " />
<glyph glyph-name="Aacute" unicode="&#xc1;" horiz-adv-x="619" d="M-14 0 L78 0 C94 0 105 10 110 20 L168 131 L417 131 L442 20 C445 5 453 0 468 0 L555 0 C569 0 578 13 574 26 L390 699 C388 705 383 710 376 710 L367 710 C359 710 354 706 350 699 L-26 26 C-33 13 -28 0 -14 0 L-14 0 Z M227 239 L336 457 L338 457 L385 239 L227 239 Z M320 768 L492 845 C501 849 507 860 501 872 L477 924 C472 935 462 935 453 929 L289 832 C281 828 278 821 281 813 L297 774 C301 765 306 762 320 768 L320 768 Z " />
<glyph glyph-name="Acircumflex" unicode="&#xc2;" horiz-adv-x="619" d="M-14 0 L78 0 C94 0 105 10 110 20 L168 131 L417 131 L442 20 C445 5 453 0 468 0 L555 0 C569 0 578 13 574 26 L390 699 C388 705 383 710 376 710 L367 710 C359 710 354 706 350 699 L-26 26 C-33 13 -28 0 -14 0 L-14 0 Z M227 239 L336 457 L338 457 L385 239 L227 239 Z M289 765 L389 827 L467 765 C475 758 481 760 487 768 L516 805 C521 812 518 820 513 824 L407 925 C400 931 393 930 386 925 L252 824 C245 819 240 811 247 801 L269 768 C274 761 278 758 289 765 L289 765 Z " />
<glyph glyph-name="Atilde" unicode="&#xc3;" horiz-adv-x="619" d="M-14 0 L78 0 C94 0 105 10 110 20 L168 131 L417 131 L442 20 C445 5 453 0 468 0 L555 0 C569 0 578 13 574 26 L390 699 C388 705 383 710 376 710 L367 710 C359 710 354 706 350 699 L-26 26 C-33 13 -28 0 -14 0 L-14 0 Z M227 239 L336 457 L338 457 L385 239 L227 239 Z M278 789 C286 782 298 785 302 793 C310 808 321 832 340 832 C366 832 389 776 436 776 C489 776 523 833 532 852 C539 866 541 877 530 885 L507 903 C496 911 483 905 477 893 C470 879 461 862 445 862 C413 862 396 917 351 917 C294 917 259 853 249 833 C245 826 243 818 251 810 L278 789 Z " />
<glyph glyph-name="Adieresis" unicode="&#xc4;" horiz-adv-x="619" d="M-14 0 L78 0 C94 0 105 10 110 20 L168 131 L417 131 L442 20 C445 5 453 0 468 0 L555 0 C569 0 578 13 574 26 L390 699 C388 705 383 710 376 710 L367 710 C359 710 354 706 350 699 L-26 26 C-33 13 -28 0 -14 0 L-14 0 Z M227 239 L336 457 L338 457 L385 239 L227 239 Z M493 766 C527 766 563 798 568 839 C572 880 547 911 510 911 C475 911 440 880 436 839 C431 798 455 766 493 766 L493 766 Z M270 766 C305 766 341 798 346 839 C350 880 325 911 287 911 C253 911 218 880 214 839 C209 798 233 766 270 766 L270 766 Z " />
<glyph glyph-name="Aring" unicode="&#xc5;" horiz-adv-x="619" d="M-14 0 L78 0 C94 0 105 10 110 20 L168 131 L417 131 L442 20 C445 5 453 0 468 0 L555 0 C569 0 578 13 574 26 L390 699 C388 705 383 710 376 710 L367 710 C359 710 354 706 350 699 L-26 26 C-33 13 -28 0 -14 0 L-14 0 Z M227 239 L336 457 L338 457 L385 239 L227 239 Z M380 754 C445 754 499 811 499 882 C499 936 462 980 411 980 C344 980 291 923 291 852 C291 798 328 754 380 754 L380 754 Z M388 817 C369 817 354 838 354 861 C354 890 378 915 402 915 C422 915 436 896 436 873 C436 844 412 817 388 817 L388 817 Z " />
<glyph glyph-name="AE" unicode="&#xc6;" horiz-adv-x="822" d="M-31 0 L72 0 C84 0 92 5 99 15 L173 128 L348 128 L332 19 C331 9 337 0 347 0 L717 0 C727 0 736 9 737 19 L748 101 C749 111 744 120 734 120 L476 120 L501 295 L714 295 C723 295 732 303 734 314 L746 397 C747 407 740 416 731 416 L518 416 L541 580 L799 580 C809 580 817 589 818 599 L830 681 C831 691 825 700 816 700 L457 700 C434 700 428 689 413 669 L-38 26 C-47 13 -45 0 -31 0 L-31 0 Z M253 239 L394 461 L363 239 L253 239 Z " />
<glyph glyph-name="Ccedilla" unicode="&#xc7;" horiz-adv-x="628" d="M53 301 C53 146 144 18 288 -6 L234 -96 C228 -105 238 -118 249 -114 C258 -111 270 -103 288 -103 C313 -103 329 -114 329 -135 C329 -168 298 -180 276 -180 C257 -180 242 -170 236 -164 C226 -155 215 -159 207 -173 L195 -193 C188 -204 185 -213 192 -221 C206 -236 241 -246 280 -246 C351 -246 407 -201 407 -132 C407 -86 374 -59 333 -59 C326 -59 319 -60 312 -62 L352 -10 C427 -6 498 24 564 87 C571 94 574 107 569 114 L517 179 C509 189 498 191 485 180 C451 150 406 121 348 121 C252 121 195 212 195 318 C195 461 299 585 419 585 C474 585 517 560 543 535 C552 526 565 525 576 535 L630 587 C639 595 640 607 634 615 C587 670 516 710 426 710 C219 710 53 536 53 301 L53 301 Z " />
<glyph glyph-name="Egrave" unicode="&#xc8;" horiz-adv-x="535" d="M46 19 C44 9 50 0 60 0 L430 0 C440 0 449 9 450 19 L461 101 C462 111 457 120 447 120 L190 120 L215 295 L427 295 C436 295 445 303 447 314 L459 397 C460 407 453 416 444 416 L232 416 L255 580 L511 580 C521 580 530 589 531 599 L543 681 C544 691 538 700 528 700 L158 700 C149 700 140 691 139 681 L46 19 Z M420 769 C431 763 438 766 444 775 L464 808 C469 816 466 824 461 827 L324 924 C319 928 306 930 297 916 L268 873 C259 860 263 850 270 846 L420 769 Z " />
<glyph glyph-name="Eacute" unicode="&#xc9;" horiz-adv-x="535" d="M46 19 C44 9 50 0 60 0 L430 0 C440 0 449 9 450 19 L461 101 C462 111 457 120 447 120 L190 120 L215 295 L427 295 C436 295 445 303 447 314 L459 397 C460 407 453 416 444 416 L232 416 L255 580 L511 580 C521 580 530 589 531 599 L543 681 C544 691 538 700 528 700 L158 700 C149 700 140 691 139 681 L46 19 Z M293 768 L465 845 C474 849 480 860 474 872 L450 924 C445 935 435 935 426 929 L262 832 C254 828 251 821 254 813 L270 774 C274 765 279 762 293 768 L293 768 Z " />
<glyph glyph-name="Ecircumflex" unicode="&#xca;" horiz-adv-x="535" d="M46 19 C44 9 50 0 60 0 L430 0 C440 0 449 9 450 19 L461 101 C462 111 457 120 447 120 L190 120 L215 295 L427 295 C436 295 445 303 447 314 L459 397 C460 407 453 416 444 416 L232 416 L255 580 L511 580 C521 580 530 589 531 599 L543 681 C544 691 538 700 528 700 L158 700 C149 700 140 691 139 681 L46 19 Z M263 765 L363 827 L441 765 C449 758 455 760 461 768 L490 805 C495 812 492 820 487 824 L381 925 C374 931 367 930 360 925 L226 824 C219 819 214 811 221 801 L243 768 C248 761 252 758 263 765 L263 765 Z " />
<glyph glyph-name="Edieresis" unicode="&#xcb;" horiz-adv-x="535" d="M46 19 C44 9 50 0 60 0 L430 0 C440 0 449 9 450 19 L461 101 C462 111 457 120 447 120 L190 120 L215 295 L427 295 C436 295 445 303 447 314 L459 397 C460 407 453 416 444 416 L232 416 L255 580 L511 580 C521 580 530 589 531 599 L543 681 C544 691 538 700 528 700 L158 700 C149 700 140 691 139 681 L46 19 Z M466 766 C500 766 536 798 541 839 C545 880 520 911 483 911 C448 911 413 880 409 839 C404 798 428 766 466 766 L466 766 Z M243 766 C278 766 314 798 319 839 C323 880 298 911 260 911 C226 911 191 880 187 839 C182 798 206 766 243 766 L243 766 Z " />
<glyph glyph-name="Igrave" unicode="&#xcc;" horiz-adv-x="298" d="M46 19 C44 9 51 0 60 0 L158 0 C167 0 176 9 177 19 L270 681 C272 691 265 700 256 700 L158 700 C149 700 140 691 139 681 L46 19 Z M283 769 C294 763 301 766 307 775 L327 808 C332 816 329 824 324 827 L187 924 C182 928 169 930 160 916 L131 873 C122 860 126 850 133 846 L283 769 Z " />
<glyph glyph-name="Iacute" unicode="&#xcd;" horiz-adv-x="298" d="M46 19 C44 9 51 0 60 0 L158 0 C167 0 176 9 177 19 L270 681 C272 691 265 700 256 700 L158 700 C149 700 140 691 139 681 L46 19 Z M155 768 L327 845 C336 849 342 860 336 872 L312 924 C307 935 297 935 288 929 L124 832 C116 828 113 821 116 813 L132 774 C136 765 141 762 155 768 L155 768 Z " />
<glyph glyph-name="Icircumflex" unicode="&#xce;" horiz-adv-x="298" d="M46 19 C44 9 51 0 60 0 L158 0 C167 0 176 9 177 19 L270 681 C272 691 265 700 256 700 L158 700 C149 700 140 691 139 681 L46 19 Z M125 765 L225 827 L303 765 C311 758 317 760 323 768 L352 805 C357 812 354 820 349 824 L243 925 C236 931 229 930 222 925 L88 824 C81 819 76 811 83 801 L105 768 C110 761 114 758 125 765 L125 765 Z " />
<glyph glyph-name="Idieresis" unicode="&#xcf;" horiz-adv-x="298" d="M46 19 C44 9 51 0 60 0 L158 0 C167 0 176 9 177 19 L270 681 C272 691 265 700 256 700 L158 700 C149 700 140 691 139 681 L46 19 Z M328 766 C362 766 398 798 403 839 C407 880 382 911 345 911 C310 911 275 880 271 839 C266 798 290 766 328 766 L328 766 Z M105 766 C140 766 176 798 181 839 C185 880 160 911 122 911 C88 911 53 880 49 839 C44 798 68 766 105 766 L105 766 Z " />
<glyph glyph-name="Eth" unicode="&#xd0;" horiz-adv-x="681" d="M47 19 C45 9 51 0 60 0 L277 0 C483 0 646 179 646 396 C646 555 533 700 375 700 L159 700 C150 700 141 691 140 681 L96 372 L70 372 C61 372 51 363 50 353 L49 340 C48 330 54 321 63 321 L89 321 L47 19 Z M191 122 L219 321 L356 321 C366 321 374 329 375 339 L377 353 C378 363 373 372 363 372 L226 372 L255 579 L349 579 C445 579 507 496 507 387 C507 237 406 122 284 122 L191 122 Z " />
<glyph glyph-name="Ntilde" unicode="&#xd1;" horiz-adv-x="705" d="M47 17 C46 8 53 0 61 0 L157 0 C167 0 176 9 177 19 L231 435 C231 435 232 435 232 435 L524 8 C534 -7 538 -10 553 -10 L563 -10 C572 -10 581 -2 582 8 L677 681 C678 691 671 700 662 700 L565 700 C555 700 547 691 546 681 L492 278 C492 278 491 278 491 278 L197 694 C186 710 182 710 171 710 L160 710 C151 710 142 702 141 692 L47 17 Z M311 789 C319 782 331 785 335 793 C343 808 354 832 373 832 C399 832 422 776 469 776 C522 776 556 833 565 852 C572 866 574 877 563 885 L540 903 C529 911 516 905 510 893 C503 879 494 862 478 862 C446 862 429 917 384 917 C327 917 292 853 282 833 C278 826 276 818 284 810 L311 789 Z " />
<glyph glyph-name="Ograve" unicode="&#xd2;" horiz-adv-x="743" d="M53 300 C53 134 171 -10 334 -10 C545 -10 708 172 708 397 C708 567 589 710 427 710 C214 710 53 526 53 300 L53 300 Z M348 120 C249 120 188 209 188 317 C188 459 292 580 412 580 C511 580 573 489 573 381 C573 238 470 120 348 120 L348 120 Z M497 769 C508 763 515 766 521 775 L541 808 C546 816 543 824 538 827 L401 924 C396 928 383 930 374 916 L345 873 C336 860 340 850 347 846 L497 769 Z " />
<glyph glyph-name="Oacute" unicode="&#xd3;" horiz-adv-x="743" d="M53 300 C53 134 171 -10 334 -10 C545 -10 708 172 708 397 C708 567 589 710 427 710 C214 710 53 526 53 300 L53 300 Z M348 120 C249 120 188 209 188 317 C188 459 292 580 412 580 C511 580 573 489 573 381 C573 238 470 120 348 120 L348 120 Z M369 768 L541 845 C550 849 556 860 550 872 L526 924 C521 935 511 935 502 929 L338 832 C330 828 327 821 330 813 L346 774 C350 765 355 762 369 768 L369 768 Z " />
<glyph glyph-name="Ocircumflex" unicode="&#xd4;" horiz-adv-x="743" d="M53 300 C53 134 171 -10 334 -10 C545 -10 708 172 708 397 C708 567 589 710 427 710 C214 710 53 526 53 300 L53 300 Z M348 120 C249 120 188 209 188 317 C188 459 292 580 412 580 C511 580 573 489 573 381 C573 238 470 120 348 120 L348 120 Z M338 765 L438 827 L516 765 C524 758 530 760 536 768 L565 805 C570 812 567 820 562 824 L456 925 C449 931 442 930 435 925 L301 824 C294 819 289 811 296 801 L318 768 C323 761 327 758 338 765 L338 765 Z " />
<glyph glyph-name="Otilde" unicode="&#xd5;" horiz-adv-x="743" d="M53 300 C53 134 171 -10 334 -10 C545 -10 708 172 708 397 C708 567 589 710 427 710 C214 710 53 526 53 300 L53 300 Z M348 120 C249 120 188 209 188 317 C188 459 292 580 412 580 C511 580 573 489 573 381 C573 238 470 120 348 120 L348 120 Z M327 789 C335 782 347 785 351 793 C359 808 370 832 389 832 C415 832 438 776 485 776 C538 776 572 833 581 852 C588 866 590 877 579 885 L556 903 C545 911 532 905 526 893 C519 879 510 862 494 862 C462 862 445 917 400 917 C343 917 308 853 298 833 C294 826 292 818 300 810 L327 789 Z " />
<glyph glyph-name="Odieresis" unicode="&#xd6;" horiz-adv-x="743" d="M53 300 C53 134 171 -10 334 -10 C545 -10 708 172 708 397 C708 567 589 710 427 710 C214 710 53 526 53 300 L53 300 Z M348 120 C249 120 188 209 188 317 C188 459 292 580 412 580 C511 580 573 489 573 381 C573 238 470 120 348 120 L348 120 Z M543 766 C577 766 613 798 618 839 C622 880 597 911 560 911 C525 911 490 880 486 839 C481 798 505 766 543 766 L543 766 Z M320 766 C355 766 391 798 396 839 C400 880 375 911 337 911 C303 911 268 880 264 839 C259 798 283 766 320 766 L320 766 Z " />
<glyph glyph-name="multiply" unicode="&#xd7;" horiz-adv-x="600" d="M168 174 C174 168 184 167 191 174 L302 282 L381 176 C386 169 396 171 404 177 L447 212 C455 218 457 231 451 239 L373 344 L484 453 C492 460 493 473 487 479 L450 521 C444 528 434 529 426 522 L315 413 L237 518 C232 525 221 524 213 518 L171 482 C163 476 162 462 167 455 L245 350 L134 242 C127 235 125 223 131 216 L168 174 Z " />
<glyph glyph-name="Oslash" unicode="&#xd8;" horiz-adv-x="743" d="M29 23 L38 13 C44 7 54 5 61 12 L133 81 C183 25 253 -10 334 -10 C545 -10 708 172 708 397 C708 465 688 529 655 581 L730 653 C738 661 740 672 734 679 L725 689 C719 695 709 696 702 689 L628 618 C578 674 507 710 427 710 C214 710 53 526 53 300 C53 233 72 170 105 119 L32 49 C23 40 23 29 29 23 L29 23 Z M208 218 C195 247 188 281 188 317 C188 459 297 580 412 580 C459 580 499 557 527 522 L208 218 Z M233 177 L552 482 C565 452 573 417 573 381 C573 238 464 120 348 120 C301 120 261 142 233 177 L233 177 Z " />
<glyph glyph-name="Ugrave" unicode="&#xd9;" horiz-adv-x="662" d="M72 253 C70 239 69 226 69 213 C69 82 163 -10 297 -10 C453 -10 559 101 580 253 L641 681 C642 691 635 700 626 700 L527 700 C517 700 508 691 507 681 L447 259 C435 175 389 122 307 122 C239 122 205 162 205 228 C205 238 205 249 207 260 L267 681 C268 691 262 700 252 700 L153 700 C144 700 134 691 133 681 L72 253 Z M462 769 C473 763 480 766 486 775 L506 808 C511 816 508 824 503 827 L366 924 C361 928 348 930 339 916 L310 873 C301 860 305 850 312 846 L462 769 Z " />
<glyph glyph-name="Uacute" unicode="&#xda;" horiz-adv-x="662" d="M72 253 C70 239 69 226 69 213 C69 82 163 -10 297 -10 C453 -10 559 101 580 253 L641 681 C642 691 635 700 626 700 L527 700 C517 700 508 691 507 681 L447 259 C435 175 389 122 307 122 C239 122 205 162 205 228 C205 238 205 249 207 260 L267 681 C268 691 262 700 252 700 L153 700 C144 700 134 691 133 681 L72 253 Z M335 768 L507 845 C516 849 522 860 516 872 L492 924 C487 935 477 935 468 929 L304 832 C296 828 293 821 296 813 L312 774 C316 765 321 762 335 768 L335 768 Z " />
<glyph glyph-name="Ucircumflex" unicode="&#xdb;" horiz-adv-x="662" d="M72 253 C70 239 69 226 69 213 C69 82 163 -10 297 -10 C453 -10 559 101 580 253 L641 681 C642 691 635 700 626 700 L527 700 C517 700 508 691 507 681 L447 259 C435 175 389 122 307 122 C239 122 205 162 205 228 C205 238 205 249 207 260 L267 681 C268 691 262 700 252 700 L153 700 C144 700 134 691 133 681 L72 253 Z M305 765 L405 827 L483 765 C491 758 497 760 503 768 L532 805 C537 812 534 820 529 824 L423 925 C416 931 409 930 402 925 L268 824 C261 819 256 811 263 801 L285 768 C290 761 294 758 305 765 L305 765 Z " />
<glyph glyph-name="Udieresis" unicode="&#xdc;" horiz-adv-x="662" d="M72 253 C70 239 69 226 69 213 C69 82 163 -10 297 -10 C453 -10 559 101 580 253 L641 681 C642 691 635 700 626 700 L527 700 C517 700 508 691 507 681 L447 259 C435 175 389 122 307 122 C239 122 205 162 205 228 C205 238 205 249 207 260 L267 681 C268 691 262 700 252 700 L153 700 C144 700 134 691 133 681 L72 253 Z M508 766 C542 766 578 798 583 839 C587 880 562 911 525 911 C490 911 455 880 451 839 C446 798 470 766 508 766 L508 766 Z M285 766 C320 766 356 798 361 839 C365 880 340 911 302 911 C268 911 233 880 229 839 C224 798 248 766 285 766 L285 766 Z " />
<glyph glyph-name="Yacute" unicode="&#xdd;" horiz-adv-x="555" d="M295 458 L191 686 C187 696 183 700 172 700 L78 700 C64 700 55 689 61 676 L217 337 L172 19 C171 9 176 0 186 0 L283 0 C292 0 302 9 303 19 L347 338 L599 674 C608 687 605 700 590 700 L480 700 C472 700 467 695 464 691 L297 458 L295 458 Z M275 768 L447 845 C456 849 462 860 456 872 L432 924 C427 935 417 935 408 929 L244 832 C236 828 233 821 236 813 L252 774 C256 765 261 762 275 768 L275 768 Z " />
<glyph glyph-name="Thorn" unicode="&#xde;" horiz-adv-x="548" d="M46 19 C44 9 50 0 60 0 L156 0 C165 0 175 9 176 19 L191 127 L293 127 C422 127 528 242 528 380 C528 483 456 574 355 573 L254 573 L269 681 C270 691 264 700 255 700 L159 700 C149 700 140 691 139 681 L46 19 Z M208 249 L237 450 L330 450 C370 450 398 414 398 367 C398 302 351 249 302 249 L208 249 Z " />
<glyph glyph-name="germandbls" unicode="&#xdf;" horiz-adv-x="543" d="M247 13 C247 -11 272 -11 289 -11 C385 -11 489 46 489 173 C489 261 414 317 414 355 C414 395 519 436 519 537 C519 645 435 710 332 710 C194 710 110 608 88 457 L-8 -215 C-10 -227 -4 -238 8 -238 L96 -238 C105 -238 117 -227 119 -215 L214 453 C226 538 269 594 324 594 C366 594 382 570 382 533 C382 479 276 412 276 340 C276 293 349 239 349 175 C349 126 320 106 276 106 C254 106 247 95 247 84 L247 13 Z " />
<glyph glyph-name="agrave" unicode="&#xe0;" horiz-adv-x="533" d="M330 181 C322 158 280 106 232 106 C178 106 154 153 154 204 C154 294 203 356 264 356 C313 356 341 316 345 292 L330 181 Z M491 440 C494 453 485 462 475 462 L434 462 C424 462 419 455 415 447 L394 411 C377 432 329 472 264 472 C129 472 29 350 29 201 C29 83 98 -11 205 -11 C274 -11 327 38 344 55 L352 20 C355 3 363 0 370 0 L411 0 C421 0 433 10 434 22 L491 440 Z M363 531 C374 525 381 528 387 537 L407 570 C412 578 409 586 404 589 L267 686 C262 690 249 692 240 678 L211 635 C202 622 206 612 213 608 L363 531 Z " />
<glyph glyph-name="aacute" unicode="&#xe1;" horiz-adv-x="533" d="M330 181 C322 158 280 106 232 106 C178 106 154 153 154 204 C154 294 203 356 264 356 C313 356 341 316 345 292 L330 181 Z M491 440 C494 453 485 462 475 462 L434 462 C424 462 419 455 415 447 L394 411 C377 432 329 472 264 472 C129 472 29 350 29 201 C29 83 98 -11 205 -11 C274 -11 327 38 344 55 L352 20 C355 3 363 0 370 0 L411 0 C421 0 433 10 434 22 L491 440 Z M250 528 L422 605 C431 609 437 620 431 632 L407 684 C402 695 392 695 383 689 L219 592 C211 588 208 581 211 573 L227 534 C231 525 236 522 250 528 L250 528 Z " />
<glyph glyph-name="acircumflex" unicode="&#xe2;" horiz-adv-x="533" d="M330 181 C322 158 280 106 232 106 C178 106 154 153 154 204 C154 294 203 356 264 356 C313 356 341 316 345 292 L330 181 Z M491 440 C494 453 485 462 475 462 L434 462 C424 462 419 455 415 447 L394 411 C377 432 329 472 264 472 C129 472 29 350 29 201 C29 83 98 -11 205 -11 C274 -11 327 38 344 55 L352 20 C355 3 363 0 370 0 L411 0 C421 0 433 10 434 22 L491 440 Z M187 529 C192 522 196 519 207 526 L307 588 L385 526 C393 519 399 521 405 529 L434 566 C439 573 436 581 431 585 L325 686 C318 692 311 691 304 686 L170 585 C163 580 158 572 165 562 L187 529 Z " />
<glyph glyph-name="atilde" unicode="&#xe3;" horiz-adv-x="533" d="M330 181 C322 158 280 106 232 106 C178 106 154 153 154 204 C154 294 203 356 264 356 C313 356 341 316 345 292 L330 181 Z M491 440 C494 453 485 462 475 462 L434 462 C424 462 419 455 415 447 L394 411 C377 432 329 472 264 472 C129 472 29 350 29 201 C29 83 98 -11 205 -11 C274 -11 327 38 344 55 L352 20 C355 3 363 0 370 0 L411 0 C421 0 433 10 434 22 L491 440 Z M205 562 C213 555 225 558 229 566 C237 581 248 605 267 605 C293 605 316 549 363 549 C416 549 450 606 459 625 C466 639 468 650 457 658 L434 676 C423 684 410 678 404 666 C397 652 388 635 372 635 C340 635 323 690 278 690 C221 690 186 626 176 606 C172 599 170 591 178 583 L205 562 Z " />
<glyph glyph-name="adieresis" unicode="&#xe4;" horiz-adv-x="533" d="M330 181 C322 158 280 106 232 106 C178 106 154 153 154 204 C154 294 203 356 264 356 C313 356 341 316 345 292 L330 181 Z M491 440 C494 453 485 462 475 462 L434 462 C424 462 419 455 415 447 L394 411 C377 432 329 472 264 472 C129 472 29 350 29 201 C29 83 98 -11 205 -11 C274 -11 327 38 344 55 L352 20 C355 3 363 0 370 0 L411 0 C421 0 433 10 434 22 L491 440 Z M407 542 C441 542 478 574 483 615 C487 656 461 687 424 687 C389 687 354 656 350 615 C345 574 369 542 407 542 L407 542 Z M218 542 C253 542 289 574 294 615 C298 656 273 687 235 687 C201 687 165 656 161 615 C156 574 181 542 218 542 L218 542 Z " />
<glyph glyph-name="aring" unicode="&#xe5;" horiz-adv-x="533" d="M330 181 C322 158 280 106 232 106 C178 106 154 153 154 204 C154 294 203 356 264 356 C313 356 341 316 345 292 L330 181 Z M491 440 C494 453 485 462 475 462 L434 462 C424 462 419 455 415 447 L394 411 C377 432 329 472 264 472 C129 472 29 350 29 201 C29 83 98 -11 205 -11 C274 -11 327 38 344 55 L352 20 C355 3 363 0 370 0 L411 0 C421 0 433 10 434 22 L491 440 Z M301 510 C366 510 420 567 420 638 C420 692 383 736 332 736 C265 736 212 679 212 608 C212 554 249 510 301 510 L301 510 Z M309 573 C290 573 275 594 275 617 C275 646 299 671 323 671 C343 671 357 652 357 629 C357 600 333 573 309 573 L309 573 Z " />
<glyph glyph-name="ae" unicode="&#xe6;" horiz-adv-x="706" d="M13 122 C13 40 68 -11 144 -11 C240 -11 289 38 306 64 L307 64 C339 17 386 -11 449 -11 C517 -11 572 14 613 51 C622 60 622 72 617 81 L578 133 C571 143 561 140 550 133 C532 120 496 101 468 101 C412 101 387 140 391 187 C527 187 683 226 683 344 C683 415 621 472 530 472 C472 472 406 451 374 415 C355 445 321 472 257 472 C197 472 115 451 115 451 C104 448 94 439 94 427 L96 365 C96 354 107 346 117 347 C144 354 195 365 228 365 C272 365 279 342 273 282 C273 282 240 292 200 292 C88 292 13 220 13 122 L13 122 Z M134 140 C134 184 173 211 205 211 C229 211 258 205 263 204 C260 153 249 88 185 88 C159 88 134 108 134 140 L134 140 Z M403 272 C415 315 464 366 511 366 C546 366 559 347 559 330 C559 293 489 272 403 272 L403 272 Z " />
<glyph glyph-name="ccedilla" unicode="&#xe7;" horiz-adv-x="452" d="M30 204 C30 95 89 12 180 -7 L126 -96 C120 -105 130 -118 141 -114 C150 -111 162 -103 180 -103 C205 -103 221 -114 221 -135 C221 -168 190 -180 168 -180 C149 -180 134 -170 128 -164 C118 -155 107 -159 99 -173 L87 -193 C80 -204 77 -213 84 -221 C98 -236 133 -246 172 -246 C243 -246 299 -201 299 -132 C299 -86 266 -59 225 -59 C218 -59 211 -60 204 -62 L244 -10 C306 -2 358 34 395 82 C403 93 399 105 390 114 L347 157 C337 167 325 163 318 155 C304 140 275 106 234 106 C190 106 156 157 156 212 C156 292 210 356 273 356 C312 356 339 334 350 321 C357 313 368 308 380 320 L418 359 C428 369 435 381 427 392 C396 435 340 472 270 472 C137 472 30 361 30 204 L30 204 Z " />
<glyph glyph-name="egrave" unicode="&#xe8;" horiz-adv-x="463" d="M28 194 C28 83 93 -11 210 -11 C271 -11 329 15 370 52 C379 61 379 73 373 82 L335 133 C329 143 318 140 309 133 C289 120 251 101 224 101 C168 101 145 140 148 187 C286 188 440 226 440 344 C440 415 378 472 287 472 C125 472 28 334 28 194 L28 194 Z M160 272 C172 315 221 366 268 366 C303 366 316 347 316 330 C316 293 246 272 160 272 L160 272 Z M385 531 C396 525 403 528 409 537 L429 570 C434 578 431 586 426 589 L289 686 C284 690 271 692 262 678 L233 635 C224 622 228 612 235 608 L385 531 Z " />
<glyph glyph-name="eacute" unicode="&#xe9;" horiz-adv-x="463" d="M28 194 C28 83 93 -11 210 -11 C271 -11 329 15 370 52 C379 61 379 73 373 82 L335 133 C329 143 318 140 309 133 C289 120 251 101 224 101 C168 101 145 140 148 187 C286 188 440 226 440 344 C440 415 378 472 287 472 C125 472 28 334 28 194 L28 194 Z M160 272 C172 315 221 366 268 366 C303 366 316 347 316 330 C316 293 246 272 160 272 L160 272 Z M254 528 L426 605 C435 609 441 620 435 632 L411 684 C406 695 396 695 387 689 L223 592 C215 588 212 581 215 573 L231 534 C235 525 240 522 254 528 L254 528 Z " />
<glyph glyph-name="ecircumflex" unicode="&#xea;" horiz-adv-x="463" d="M28 194 C28 83 93 -11 210 -11 C271 -11 329 15 370 52 C379 61 379 73 373 82 L335 133 C329 143 318 140 309 133 C289 120 251 101 224 101 C168 101 145 140 148 187 C286 188 440 226 440 344 C440 415 378 472 287 472 C125 472 28 334 28 194 L28 194 Z M160 272 C172 315 221 366 268 366 C303 366 316 347 316 330 C316 293 246 272 160 272 L160 272 Z M198 529 C203 522 207 519 218 526 L318 588 L396 526 C404 519 410 521 416 529 L445 566 C450 573 447 581 442 585 L336 686 C329 692 322 691 315 686 L181 585 C174 580 169 572 176 562 L198 529 Z " />
<glyph glyph-name="edieresis" unicode="&#xeb;" horiz-adv-x="463" d="M28 194 C28 83 93 -11 210 -11 C271 -11 329 15 370 52 C379 61 379 73 373 82 L335 133 C329 143 318 140 309 133 C289 120 251 101 224 101 C168 101 145 140 148 187 C286 188 440 226 440 344 C440 415 378 472 287 472 C125 472 28 334 28 194 L28 194 Z M160 272 C172 315 221 366 268 366 C303 366 316 347 316 330 C316 293 246 272 160 272 L160 272 Z M407 542 C441 542 478 574 483 615 C487 656 461 687 424 687 C389 687 354 656 350 615 C345 574 369 542 407 542 L407 542 Z M218 542 C253 542 289 574 294 615 C298 656 273 687 235 687 C201 687 165 656 161 615 C156 574 181 542 218 542 L218 542 Z " />
<glyph glyph-name="igrave" unicode="&#xec;" horiz-adv-x="252" d="M26 22 C25 10 34 0 44 0 L129 0 C139 0 151 10 152 22 L212 440 C214 453 204 462 194 462 L108 462 C98 462 87 453 85 440 L26 22 Z M225 531 C236 525 243 528 249 537 L269 570 C274 578 271 586 266 589 L129 686 C124 690 111 692 102 678 L73 635 C64 622 68 612 75 608 L225 531 Z " />
<glyph glyph-name="iacute" unicode="&#xed;" horiz-adv-x="252" d="M26 22 C25 10 34 0 44 0 L129 0 C139 0 151 10 152 22 L212 440 C214 453 204 462 194 462 L108 462 C98 462 87 453 85 440 L26 22 Z M110 528 L282 605 C291 609 297 620 291 632 L267 684 C262 695 252 695 243 689 L79 592 C71 588 68 581 71 573 L87 534 C91 525 96 522 110 528 L110 528 Z " />
<glyph glyph-name="icircumflex" unicode="&#xee;" horiz-adv-x="252" d="M26 22 C25 10 34 0 44 0 L129 0 C139 0 151 10 152 22 L212 440 C214 453 204 462 194 462 L108 462 C98 462 87 453 85 440 L26 22 Z M47 529 C52 522 56 519 67 526 L167 588 L245 526 C253 519 259 521 265 529 L294 566 C299 573 296 581 291 585 L185 686 C178 692 171 691 164 686 L30 585 C23 580 18 572 25 562 L47 529 Z " />
<glyph glyph-name="idieresis" unicode="&#xef;" horiz-adv-x="252" d="M26 22 C25 10 34 0 44 0 L129 0 C139 0 151 10 152 22 L212 440 C214 453 204 462 194 462 L108 462 C98 462 87 453 85 440 L26 22 Z M256 542 C290 542 327 574 332 615 C336 656 310 687 273 687 C238 687 203 656 199 615 C194 574 218 542 256 542 L256 542 Z M67 542 C102 542 138 574 143 615 C147 656 122 687 84 687 C50 687 14 656 10 615 C5 574 30 542 67 542 L67 542 Z " />
<glyph glyph-name="eth" unicode="&#xf0;" horiz-adv-x="515" d="M31 226 C13 96 94 -10 208 -10 C353 -10 447 119 468 274 C491 436 440 545 376 616 L427 645 C437 650 442 663 437 672 L430 683 C425 691 417 696 408 691 L339 651 C294 690 249 712 222 723 C210 727 201 722 194 709 L166 650 C159 638 162 626 178 620 C191 615 211 605 233 590 L170 553 C161 547 157 536 161 527 L166 514 C169 506 179 503 188 508 L274 557 C309 523 341 477 348 420 C334 431 295 449 252 449 C159 449 51 373 31 226 L31 226 Z M224 107 C167 107 135 163 144 228 C153 294 201 348 259 348 C321 348 343 296 348 259 C338 188 300 107 224 107 L224 107 Z " />
<glyph glyph-name="ntilde" unicode="&#xf1;" horiz-adv-x="515" d="M26 22 C24 10 32 0 43 0 L125 0 C140 0 147 5 149 22 L189 292 C189 292 220 356 280 356 C332 356 338 318 330 258 L294 22 C293 10 299 0 310 0 L398 0 C408 0 419 10 420 22 L453 251 C470 370 441 472 314 472 C236 472 193 425 171 405 L161 448 C160 457 153 462 145 462 L107 462 C97 462 86 453 85 440 L26 22 Z M198 562 C206 555 218 558 222 566 C230 581 241 605 260 605 C286 605 309 549 356 549 C409 549 443 606 452 625 C459 639 461 650 450 658 L427 676 C416 684 403 678 397 666 C390 652 381 635 365 635 C333 635 316 690 271 690 C214 690 179 626 169 606 C165 599 163 591 171 583 L198 562 Z " />
<glyph glyph-name="ograve" unicode="&#xf2;" horiz-adv-x="506" d="M28 199 C28 89 104 -11 212 -11 C347 -11 464 114 464 264 C464 377 386 472 280 472 C141 472 28 348 28 199 L28 199 Z M229 106 C174 106 149 155 149 212 C149 292 198 356 264 356 C315 356 341 308 341 253 C341 171 291 106 229 106 L229 106 Z M360 531 C371 525 378 528 384 537 L404 570 C409 578 406 586 401 589 L264 686 C259 690 246 692 237 678 L208 635 C199 622 203 612 210 608 L360 531 Z " />
<glyph glyph-name="oacute" unicode="&#xf3;" horiz-adv-x="506" d="M28 199 C28 89 104 -11 212 -11 C347 -11 464 114 464 264 C464 377 386 472 280 472 C141 472 28 348 28 199 L28 199 Z M229 106 C174 106 149 155 149 212 C149 292 198 356 264 356 C315 356 341 308 341 253 C341 171 291 106 229 106 L229 106 Z M232 528 L404 605 C413 609 419 620 413 632 L389 684 C384 695 374 695 365 689 L201 592 C193 588 190 581 193 573 L209 534 C213 525 218 522 232 528 L232 528 Z " />
<glyph glyph-name="ocircumflex" unicode="&#xf4;" horiz-adv-x="506" d="M28 199 C28 89 104 -11 212 -11 C347 -11 464 114 464 264 C464 377 386 472 280 472 C141 472 28 348 28 199 L28 199 Z M229 106 C174 106 149 155 149 212 C149 292 198 356 264 356 C315 356 341 308 341 253 C341 171 291 106 229 106 L229 106 Z M178 529 C183 522 187 519 198 526 L298 588 L376 526 C384 519 390 521 396 529 L425 566 C430 573 427 581 422 585 L316 686 C309 692 302 691 295 686 L161 585 C154 580 149 572 156 562 L178 529 Z " />
<glyph glyph-name="otilde" unicode="&#xf5;" horiz-adv-x="506" d="M28 199 C28 89 104 -11 212 -11 C347 -11 464 114 464 264 C464 377 386 472 280 472 C141 472 28 348 28 199 L28 199 Z M229 106 C174 106 149 155 149 212 C149 292 198 356 264 356 C315 356 341 308 341 253 C341 171 291 106 229 106 L229 106 Z M186 562 C194 555 206 558 210 566 C218 581 229 605 248 605 C274 605 297 549 344 549 C397 549 431 606 440 625 C447 639 449 650 438 658 L415 676 C404 684 391 678 385 666 C378 652 369 635 353 635 C321 635 304 690 259 690 C202 690 167 626 157 606 C153 599 151 591 159 583 L186 562 Z " />
<glyph glyph-name="odieresis" unicode="&#xf6;" horiz-adv-x="506" d="M28 199 C28 89 104 -11 212 -11 C347 -11 464 114 464 264 C464 377 386 472 280 472 C141 472 28 348 28 199 L28 199 Z M229 106 C174 106 149 155 149 212 C149 292 198 356 264 356 C315 356 341 308 341 253 C341 171 291 106 229 106 L229 106 Z M388 542 C422 542 459 574 464 615 C468 656 442 687 405 687 C370 687 335 656 331 615 C326 574 350 542 388 542 L388 542 Z M199 542 C234 542 270 574 275 615 C279 656 254 687 216 687 C182 687 146 656 142 615 C137 574 162 542 199 542 L199 542 Z " />
<glyph glyph-name="divide" unicode="&#xf7;" horiz-adv-x="600" d="M323 471 C362 471 399 507 399 549 C399 582 375 609 343 609 C304 609 268 574 268 532 C268 499 291 471 323 471 L323 471 Z M123 299 L481 299 C490 299 499 308 500 318 L508 374 C509 384 503 393 494 393 L136 393 C127 393 118 384 117 374 L109 318 C108 308 114 299 123 299 L123 299 Z M214 151 C214 118 237 91 269 91 C308 91 345 126 345 169 C345 202 321 228 288 228 C249 228 214 194 214 151 L214 151 Z " />
<glyph glyph-name="oslash" unicode="&#xf8;" horiz-adv-x="506" d="M28 199 C28 159 38 120 56 87 L26 58 C17 49 15 35 22 27 L32 16 C40 9 51 7 59 15 L88 43 C120 10 162 -11 212 -11 C347 -11 464 114 464 264 C464 305 453 344 435 376 L468 408 C477 418 479 430 472 439 L462 450 C455 458 445 459 435 450 L403 419 C371 452 328 472 280 472 C141 472 28 348 28 199 L28 199 Z M149 212 C149 292 198 356 264 356 C285 356 302 348 314 334 L152 179 C150 189 149 200 149 212 L149 212 Z M229 106 C206 106 189 114 176 128 L338 283 C340 274 341 263 341 253 C341 171 291 106 229 106 L229 106 Z " />
<glyph glyph-name="ugrave" unicode="&#xf9;" horiz-adv-x="499" d="M176 -11 C258 -11 289 29 313 56 L321 17 C323 8 329 0 339 0 L377 0 C387 0 399 10 400 22 L458 440 C460 453 451 462 441 462 L357 462 C345 462 335 458 332 440 L294 169 C294 169 272 106 215 106 C176 106 162 130 171 191 L207 440 C209 453 201 462 190 462 L104 462 C93 462 84 453 82 440 L46 195 C29 78 50 -11 176 -11 L176 -11 Z M337 531 C348 525 355 528 361 537 L381 570 C386 578 383 586 378 589 L241 686 C236 690 223 692 214 678 L185 635 C176 622 180 612 187 608 L337 531 Z " />
<glyph glyph-name="uacute" unicode="&#xfa;" horiz-adv-x="499" d="M176 -11 C258 -11 289 29 313 56 L321 17 C323 8 329 0 339 0 L377 0 C387 0 399 10 400 22 L458 440 C460 453 451 462 441 462 L357 462 C345 462 335 458 332 440 L294 169 C294 169 272 106 215 106 C176 106 162 130 171 191 L207 440 C209 453 201 462 190 462 L104 462 C93 462 84 453 82 440 L46 195 C29 78 50 -11 176 -11 L176 -11 Z M241 528 L413 605 C422 609 428 620 422 632 L398 684 C393 695 383 695 374 689 L210 592 C202 588 199 581 202 573 L218 534 C222 525 227 522 241 528 L241 528 Z " />
<glyph glyph-name="ucircumflex" unicode="&#xfb;" horiz-adv-x="499" d="M176 -11 C258 -11 289 29 313 56 L321 17 C323 8 329 0 339 0 L377 0 C387 0 399 10 400 22 L458 440 C460 453 451 462 441 462 L357 462 C345 462 335 458 332 440 L294 169 C294 169 272 106 215 106 C176 106 162 130 171 191 L207 440 C209 453 201 462 190 462 L104 462 C93 462 84 453 82 440 L46 195 C29 78 50 -11 176 -11 L176 -11 Z M177 529 C182 522 186 519 197 526 L297 588 L375 526 C383 519 389 521 395 529 L424 566 C429 573 426 581 421 585 L315 686 C308 692 301 691 294 686 L160 585 C153 580 148 572 155 562 L177 529 Z " />
<glyph glyph-name="udieresis" unicode="&#xfc;" horiz-adv-x="499" d="M176 -11 C258 -11 289 29 313 56 L321 17 C323 8 329 0 339 0 L377 0 C387 0 399 10 400 22 L458 440 C460 453 451 462 441 462 L357 462 C345 462 335 458 332 440 L294 169 C294 169 272 106 215 106 C176 106 162 130 171 191 L207 440 C209 453 201 462 190 462 L104 462 C93 462 84 453 82 440 L46 195 C29 78 50 -11 176 -11 L176 -11 Z M379 542 C413 542 450 574 455 615 C459 656 433 687 396 687 C361 687 326 656 322 615 C317 574 341 542 379 542 L379 542 Z M190 542 C225 542 261 574 266 615 C270 656 245 687 207 687 C173 687 137 656 133 615 C128 574 153 542 190 542 L190 542 Z " />
<glyph glyph-name="yacute" unicode="&#xfd;" horiz-adv-x="472" d="M132 33 L3 -210 C-6 -227 -1 -238 13 -238 L108 -238 C118 -238 125 -230 128 -224 L472 432 C480 447 475 462 459 462 L368 462 C359 462 350 460 345 449 L215 167 C215 167 212 167 212 167 L167 449 C166 457 156 462 150 462 L61 462 C44 462 40 447 43 432 L132 33 Z M264 528 L436 605 C445 609 451 620 445 632 L421 684 C416 695 406 695 397 689 L233 592 C225 588 222 581 225 573 L241 534 C245 525 250 522 264 528 L264 528 Z " />
<glyph glyph-name="thorn" unicode="&#xfe;" horiz-adv-x="527" d="M151 15 C166 4 210 -11 237 -11 C380 -11 482 102 482 256 C482 378 419 472 317 472 C278 472 229 457 212 441 L245 678 C246 690 238 700 227 700 L140 700 C131 700 119 690 118 678 L-7 -216 C-9 -227 -2 -238 9 -238 L97 -238 C107 -238 118 -227 119 -216 L151 15 Z M170 139 L195 310 C195 310 224 356 278 356 C331 356 358 302 358 250 C358 160 302 106 244 106 C210 106 180 123 170 139 L170 139 Z " />
<glyph glyph-name="ydieresis" unicode="&#xff;" horiz-adv-x="472" d="M132 33 L3 -210 C-6 -227 -1 -238 13 -238 L108 -238 C118 -238 125 -230 128 -224 L472 432 C480 447 475 462 459 462 L368 462 C359 462 350 460 345 449 L215 167 C215 167 212 167 212 167 L167 449 C166 457 156 462 150 462 L61 462 C44 462 40 447 43 432 L132 33 Z M377 542 C411 542 448 574 453 615 C457 656 431 687 394 687 C359 687 324 656 320 615 C315 574 339 542 377 542 L377 542 Z M188 542 C223 542 259 574 264 615 C268 656 243 687 205 687 C171 687 135 656 131 615 C126 574 151 542 188 542 L188 542 Z " />
<glyph glyph-name="Amacron" unicode="&#x100;" horiz-adv-x="619" d="M-14 0 L78 0 C94 0 105 10 110 20 L168 131 L417 131 L442 20 C445 5 453 0 468 0 L555 0 C569 0 578 13 574 26 L390 699 C388 705 383 710 376 710 L367 710 C359 710 354 706 350 699 L-26 26 C-33 13 -28 0 -14 0 L-14 0 Z M227 239 L336 457 L338 457 L385 239 L227 239 Z M272 808 L502 808 C512 808 521 816 522 826 L527 860 C529 871 523 879 513 879 L282 879 C272 879 264 871 262 860 L257 826 C256 816 262 808 272 808 L272 808 Z " />
<glyph glyph-name="amacron" unicode="&#x101;" horiz-adv-x="533" d="M330 181 C322 158 280 106 232 106 C178 106 154 153 154 204 C154 294 203 356 264 356 C313 356 341 316 345 292 L330 181 Z M491 440 C494 453 485 462 475 462 L434 462 C424 462 419 455 415 447 L394 411 C377 432 329 472 264 472 C129 472 29 350 29 201 C29 83 98 -11 205 -11 C274 -11 327 38 344 55 L352 20 C355 3 363 0 370 0 L411 0 C421 0 433 10 434 22 L491 440 Z M196 570 L427 570 C437 570 445 578 446 588 L451 622 C453 633 446 641 437 641 L206 641 C196 641 187 633 186 622 L182 588 C181 578 186 570 196 570 L196 570 Z " />
<glyph glyph-name="Abreve" unicode="&#x102;" horiz-adv-x="619" d="M-14 0 L78 0 C94 0 105 10 110 20 L168 131 L417 131 L442 20 C445 5 453 0 468 0 L555 0 C569 0 578 13 574 26 L390 699 C388 705 383 710 376 710 L367 710 C359 710 354 706 350 699 L-26 26 C-33 13 -28 0 -14 0 L-14 0 Z M227 239 L336 457 L338 457 L385 239 L227 239 Z M384 766 C455 766 509 817 528 884 C530 895 525 905 514 905 L473 905 C467 905 460 900 456 891 C445 863 420 838 392 838 C363 838 347 861 342 891 C341 898 339 905 331 905 L294 905 C282 905 274 895 274 884 C274 817 323 766 384 766 L384 766 Z " />
<glyph glyph-name="abreve" unicode="&#x103;" horiz-adv-x="533" d="M330 181 C322 158 280 106 232 106 C178 106 154 153 154 204 C154 294 203 356 264 356 C313 356 341 316 345 292 L330 181 Z M491 440 C494 453 485 462 475 462 L434 462 C424 462 419 455 415 447 L394 411 C377 432 329 472 264 472 C129 472 29 350 29 201 C29 83 98 -11 205 -11 C274 -11 327 38 344 55 L352 20 C355 3 363 0 370 0 L411 0 C421 0 433 10 434 22 L491 440 Z M308 528 C378 528 432 579 452 646 C454 658 449 668 438 668 L397 668 C390 668 382 662 379 654 C368 626 344 601 316 601 C286 601 270 623 266 654 C265 661 260 668 253 668 L217 668 C206 668 197 658 197 646 C197 579 245 528 308 528 L308 528 Z " />
<glyph glyph-name="Aogonek" unicode="&#x104;" horiz-adv-x="619" d="M-14 0 L78 0 C94 0 105 10 110 20 L168 131 L417 131 L444 11 C381 -31 317 -88 317 -158 C317 -211 352 -247 417 -247 C449 -247 484 -238 501 -227 C514 -218 519 -208 520 -196 L526 -144 C527 -133 517 -129 507 -137 C498 -144 469 -165 442 -165 C421 -165 408 -155 408 -132 C408 -74 476 -26 520 0 L555 0 C569 0 578 13 574 26 L390 699 C388 705 383 710 376 710 L367 710 C359 710 354 706 350 699 L-26 26 C-33 13 -28 0 -14 0 L-14 0 Z M227 239 L336 457 L338 457 L385 239 L227 239 Z " />
<glyph glyph-name="aogonek" unicode="&#x105;" horiz-adv-x="533" d="M491 440 C494 453 485 462 475 462 L434 462 C424 462 419 455 415 447 L394 411 C377 432 329 472 264 472 C129 472 29 350 29 201 C29 83 98 -11 205 -11 C274 -11 327 38 344 55 L352 19 C289 -24 211 -91 211 -158 C211 -211 246 -247 311 -247 C343 -247 378 -238 395 -227 C408 -218 413 -208 414 -196 L420 -144 C421 -133 411 -129 401 -137 C392 -144 363 -165 336 -165 C315 -165 302 -155 302 -132 C302 -74 370 -25 416 0 C424 4 433 12 434 22 L491 440 Z M330 181 C322 158 280 106 232 106 C178 106 154 153 154 204 C154 294 203 356 264 356 C313 356 341 316 345 292 L330 181 Z " />
<glyph glyph-name="Cacute" unicode="&#x106;" horiz-adv-x="628" d="M53 301 C53 129 165 -10 338 -10 C418 -10 494 20 564 87 C571 94 574 107 569 114 L517 179 C509 189 498 191 485 180 C451 150 406 121 348 121 C252 121 195 212 195 318 C195 461 299 585 419 585 C474 585 517 560 543 535 C552 526 565 525 576 535 L630 587 C639 595 640 607 634 615 C587 670 516 710 426 710 C219 710 53 536 53 301 L53 301 Z M373 768 L545 845 C554 849 560 860 554 872 L530 924 C525 935 515 935 506 929 L342 832 C334 828 331 821 334 813 L350 774 C354 765 359 762 373 768 L373 768 Z " />
<glyph glyph-name="cacute" unicode="&#x107;" horiz-adv-x="452" d="M30 204 C30 80 107 -11 221 -11 C294 -11 354 29 395 82 C403 93 399 105 390 114 L347 157 C337 167 325 163 318 155 C304 140 275 106 234 106 C190 106 156 140 156 212 C156 303 210 356 273 356 C312 356 339 334 350 321 C357 313 368 308 380 320 L418 359 C428 369 435 381 427 392 C396 435 340 472 270 472 C137 472 30 361 30 204 L30 204 Z M244 528 L416 605 C425 609 431 620 425 632 L401 684 C396 695 386 695 377 689 L213 592 C205 588 202 581 205 573 L221 534 C225 525 230 522 244 528 L244 528 Z " />
<glyph glyph-name="Ccircumflex" unicode="&#x108;" horiz-adv-x="628" d="M53 301 C53 129 165 -10 338 -10 C418 -10 494 20 564 87 C571 94 574 107 569 114 L517 179 C509 189 498 191 485 180 C451 150 406 121 348 121 C252 121 195 212 195 318 C195 461 299 585 419 585 C474 585 517 560 543 535 C552 526 565 525 576 535 L630 587 C639 595 640 607 634 615 C587 670 516 710 426 710 C219 710 53 536 53 301 L53 301 Z M345 765 L445 827 L523 765 C531 758 537 760 543 768 L572 805 C577 812 574 820 569 824 L463 925 C456 931 449 930 442 925 L308 824 C301 819 296 811 303 801 L325 768 C330 761 334 758 345 765 L345 765 Z " />
<glyph glyph-name="ccircumflex" unicode="&#x109;" horiz-adv-x="452" d="M30 204 C30 80 107 -11 221 -11 C294 -11 354 29 395 82 C403 93 399 105 390 114 L347 157 C337 167 325 163 318 155 C304 140 275 106 234 106 C190 106 156 140 156 212 C156 303 210 356 273 356 C312 356 339 334 350 321 C357 313 368 308 380 320 L418 359 C428 369 435 381 427 392 C396 435 340 472 270 472 C137 472 30 361 30 204 L30 204 Z M179 529 C184 522 188 519 199 526 L299 588 L377 526 C385 519 391 521 397 529 L426 566 C431 573 428 581 423 585 L317 686 C310 692 303 691 296 686 L162 585 C155 580 150 572 157 562 L179 529 Z " />
<glyph glyph-name="Cdotaccent" unicode="&#x10a;" horiz-adv-x="628" d="M53 301 C53 129 165 -10 338 -10 C418 -10 494 20 564 87 C571 94 574 107 569 114 L517 179 C509 189 498 191 485 180 C451 150 406 121 348 121 C252 121 195 212 195 318 C195 461 299 585 419 585 C474 585 517 560 543 535 C552 526 565 525 576 535 L630 587 C639 595 640 607 634 615 C587 670 516 710 426 710 C219 710 53 536 53 301 L53 301 Z M436 772 C483 772 526 813 526 861 C526 900 498 931 458 931 C410 931 368 891 368 841 C368 803 396 772 436 772 L436 772 Z " />
<glyph glyph-name="cdotaccent" unicode="&#x10b;" horiz-adv-x="452" d="M30 204 C30 80 107 -11 221 -11 C294 -11 354 29 395 82 C403 93 399 105 390 114 L347 157 C337 167 325 163 318 155 C304 140 275 106 234 106 C190 106 156 140 156 212 C156 303 210 356 273 356 C312 356 339 334 350 321 C357 313 368 308 380 320 L418 359 C428 369 435 381 427 392 C396 435 340 472 270 472 C137 472 30 361 30 204 L30 204 Z M295 541 C342 541 385 582 385 630 C385 669 357 700 317 700 C269 700 227 660 227 610 C227 572 255 541 295 541 L295 541 Z " />
<glyph glyph-name="Ccaron" unicode="&#x10c;" horiz-adv-x="628" d="M53 301 C53 129 165 -10 338 -10 C418 -10 494 20 564 87 C571 94 574 107 569 114 L517 179 C509 189 498 191 485 180 C451 150 406 121 348 121 C252 121 195 212 195 318 C195 461 299 585 419 585 C474 585 517 560 543 535 C552 526 565 525 576 535 L630 587 C639 595 640 607 634 615 C587 670 516 710 426 710 C219 710 53 536 53 301 L53 301 Z M428 764 C435 758 442 759 449 764 L583 865 C590 870 595 878 588 888 L566 921 C561 928 557 931 546 924 L446 862 L368 924 C360 931 354 929 348 921 L319 884 C314 877 317 869 322 865 L428 764 Z " />
<glyph glyph-name="ccaron" unicode="&#x10d;" horiz-adv-x="452" d="M30 204 C30 80 107 -11 221 -11 C294 -11 354 29 395 82 C403 93 399 105 390 114 L347 157 C337 167 325 163 318 155 C304 140 275 106 234 106 C190 106 156 140 156 212 C156 303 210 356 273 356 C312 356 339 334 350 321 C357 313 368 308 380 320 L418 359 C428 369 435 381 427 392 C396 435 340 472 270 472 C137 472 30 361 30 204 L30 204 Z M267 525 C274 519 281 520 288 525 L422 626 C429 631 434 639 427 649 L405 682 C400 689 396 692 385 685 L285 623 L207 685 C199 692 193 690 187 682 L158 645 C153 638 156 630 161 626 L267 525 Z " />
<glyph glyph-name="Dcaron" unicode="&#x10e;" horiz-adv-x="680" d="M46 19 C44 9 50 0 59 0 L276 0 C494 0 645 179 645 396 C645 558 532 700 374 700 L158 700 C149 700 140 691 139 681 L46 19 Z M190 122 L254 579 L348 579 C444 579 506 496 506 387 C506 237 405 122 283 122 L190 122 Z M344 764 C351 758 358 759 365 764 L499 865 C506 870 511 878 504 888 L482 921 C477 928 473 931 462 924 L362 862 L284 924 C276 931 270 929 264 921 L235 884 C230 877 233 869 238 865 L344 764 Z " />
<glyph glyph-name="dcaron" unicode="&#x10f;" horiz-adv-x="534" d="M202 -11 C277 -11 327 38 344 55 L352 20 C355 3 363 0 370 0 L409 0 C419 0 431 10 432 22 L524 678 C525 690 516 700 506 700 L430 700 C413 700 401 697 399 677 L366 448 C350 459 302 472 269 472 C132 472 29 351 29 201 C29 83 104 -11 202 -11 L202 -11 Z M153 204 C153 282 198 356 268 356 C315 356 350 332 350 332 L329 177 C321 154 280 106 232 106 C185 106 153 139 153 204 L153 204 Z M550 630 C550 603 570 582 602 582 C617 582 631 588 637 592 C635 565 620 536 600 513 C593 505 592 499 599 492 L621 472 C627 466 635 468 641 474 C682 520 715 573 715 632 C715 686 683 710 638 710 C590 710 550 676 550 630 L550 630 Z " />
<glyph glyph-name="Dcroat" unicode="&#x110;" horiz-adv-x="681" d="M47 19 C45 9 51 0 60 0 L277 0 C483 0 646 179 646 396 C646 555 533 700 375 700 L159 700 C150 700 141 691 140 681 L96 372 L70 372 C61 372 51 363 50 353 L49 340 C48 330 54 321 63 321 L89 321 L47 19 Z M191 122 L219 321 L356 321 C366 321 374 329 375 339 L377 353 C378 363 373 372 363 372 L226 372 L255 579 L349 579 C445 579 507 496 507 387 C507 237 406 122 284 122 L191 122 Z " />
<glyph glyph-name="dcroat" unicode="&#x111;" horiz-adv-x="532" d="M202 -11 C277 -11 327 38 344 55 L352 20 C356 3 363 0 370 0 L409 0 C419 0 430 10 432 22 L503 533 L532 533 C541 533 549 542 551 552 L553 565 C555 575 548 584 539 584 L510 584 L524 678 C525 690 516 700 506 700 L430 700 C413 700 401 697 399 677 L385 584 L292 584 C282 584 273 575 272 565 L270 551 C269 541 275 533 285 533 L378 533 L366 448 C350 459 302 472 269 472 C132 472 29 351 29 201 C29 83 104 -11 202 -11 L202 -11 Z M153 204 C153 282 198 356 268 356 C315 356 350 332 350 332 L329 177 C321 154 280 106 232 106 C185 106 153 139 153 204 L153 204 Z " />
<glyph glyph-name="Emacron" unicode="&#x112;" horiz-adv-x="535" d="M46 19 C44 9 50 0 60 0 L430 0 C440 0 449 9 450 19 L461 101 C462 111 457 120 447 120 L190 120 L215 295 L427 295 C436 295 445 303 447 314 L459 397 C460 407 453 416 444 416 L232 416 L255 580 L511 580 C521 580 530 589 531 599 L543 681 C544 691 538 700 528 700 L158 700 C149 700 140 691 139 681 L46 19 Z M245 808 L475 808 C485 808 494 816 495 826 L500 860 C502 871 496 879 486 879 L255 879 C245 879 237 871 235 860 L230 826 C229 816 235 808 245 808 L245 808 Z " />
<glyph glyph-name="emacron" unicode="&#x113;" horiz-adv-x="463" d="M28 194 C28 83 93 -11 210 -11 C271 -11 329 15 370 52 C379 61 379 73 373 82 L335 133 C329 143 318 140 309 133 C289 120 251 101 224 101 C168 101 145 140 148 187 C286 188 440 226 440 344 C440 415 378 472 287 472 C125 472 28 334 28 194 L28 194 Z M160 272 C172 315 221 366 268 366 C303 366 316 347 316 330 C316 293 246 272 160 272 L160 272 Z M198 570 L429 570 C439 570 447 578 448 588 L453 622 C455 633 448 641 439 641 L208 641 C198 641 189 633 188 622 L184 588 C183 578 188 570 198 570 L198 570 Z " />
<glyph glyph-name="Ebreve" unicode="&#x114;" horiz-adv-x="535" d="M46 19 C44 9 50 0 60 0 L430 0 C440 0 449 9 450 19 L461 101 C462 111 457 120 447 120 L190 120 L215 295 L427 295 C436 295 445 303 447 314 L459 397 C460 407 453 416 444 416 L232 416 L255 580 L511 580 C521 580 530 589 531 599 L543 681 C544 691 538 700 528 700 L158 700 C149 700 140 691 139 681 L46 19 Z M360 766 C431 766 485 817 504 884 C506 895 501 905 490 905 L449 905 C443 905 436 900 432 891 C421 863 396 838 368 838 C339 838 323 861 318 891 C317 898 315 905 307 905 L270 905 C258 905 250 895 250 884 C250 817 299 766 360 766 L360 766 Z " />
<glyph glyph-name="ebreve" unicode="&#x115;" horiz-adv-x="463" d="M28 194 C28 83 93 -11 210 -11 C271 -11 329 15 370 52 C379 61 379 73 373 82 L335 133 C329 143 318 140 309 133 C289 120 251 101 224 101 C168 101 145 140 148 187 C286 188 440 226 440 344 C440 415 378 472 287 472 C125 472 28 334 28 194 L28 194 Z M160 272 C172 315 221 366 268 366 C303 366 316 347 316 330 C316 293 246 272 160 272 L160 272 Z M305 528 C375 528 429 579 449 646 C451 658 446 668 435 668 L394 668 C387 668 379 662 376 654 C365 626 341 601 313 601 C283 601 267 623 263 654 C262 661 257 668 250 668 L214 668 C203 668 194 658 194 646 C194 579 242 528 305 528 L305 528 Z " />
<glyph glyph-name="Edotaccent" unicode="&#x116;" horiz-adv-x="535" d="M46 19 C44 9 50 0 60 0 L430 0 C440 0 449 9 450 19 L461 101 C462 111 457 120 447 120 L190 120 L215 295 L427 295 C436 295 445 303 447 314 L459 397 C460 407 453 416 444 416 L232 416 L255 580 L511 580 C521 580 530 589 531 599 L543 681 C544 691 538 700 528 700 L158 700 C149 700 140 691 139 681 L46 19 Z M356 772 C403 772 446 813 446 861 C446 900 418 931 378 931 C330 931 288 891 288 841 C288 803 316 772 356 772 L356 772 Z " />
<glyph glyph-name="edotaccent" unicode="&#x117;" horiz-adv-x="463" d="M28 194 C28 83 93 -11 210 -11 C271 -11 329 15 370 52 C379 61 379 73 373 82 L335 133 C329 143 318 140 309 133 C289 120 251 101 224 101 C168 101 145 140 148 187 C286 188 440 226 440 344 C440 415 378 472 287 472 C125 472 28 334 28 194 L28 194 Z M160 272 C172 315 221 366 268 366 C303 366 316 347 316 330 C316 293 246 272 160 272 L160 272 Z M303 541 C350 541 393 582 393 630 C393 669 365 700 325 700 C277 700 235 660 235 610 C235 572 263 541 303 541 L303 541 Z " />
<glyph glyph-name="Eogonek" unicode="&#x118;" horiz-adv-x="535" d="M46 19 C44 9 50 0 60 0 L340 0 C279 -41 230 -90 230 -158 C230 -211 265 -247 330 -247 C362 -247 397 -238 414 -227 C427 -218 432 -208 433 -196 L439 -144 C440 -133 430 -129 420 -137 C411 -144 382 -165 355 -165 C334 -165 321 -155 321 -132 C321 -73 390 -26 435 1 C443 6 449 12 450 21 L461 101 C462 111 457 120 447 120 L190 120 L215 295 L427 295 C436 295 445 303 447 314 L459 397 C460 407 453 416 444 416 L232 416 L255 580 L511 580 C521 580 530 589 531 599 L543 681 C544 691 538 700 528 700 L158 700 C149 700 140 691 139 681 L46 19 Z " />
<glyph glyph-name="eogonek" unicode="&#x119;" horiz-adv-x="463" d="M28 194 C28 94 80 8 175 -8 C120 -48 77 -94 77 -158 C77 -211 112 -247 177 -247 C209 -247 244 -238 261 -227 C274 -218 279 -208 280 -196 L286 -144 C287 -133 277 -129 267 -137 C258 -144 229 -165 202 -165 C181 -165 168 -155 168 -132 C168 -73 238 -25 282 1 C315 12 346 30 370 52 C379 61 379 73 373 82 L335 133 C329 143 318 140 309 133 C289 120 251 101 224 101 C168 101 145 140 148 187 C286 188 440 226 440 344 C440 415 378 472 287 472 C125 472 28 334 28 194 L28 194 Z M160 272 C172 315 221 366 268 366 C303 366 316 347 316 330 C316 293 246 272 160 272 L160 272 Z " />
<glyph glyph-name="Ecaron" unicode="&#x11a;" horiz-adv-x="535" d="M46 19 C44 9 50 0 60 0 L430 0 C440 0 449 9 450 19 L461 101 C462 111 457 120 447 120 L190 120 L215 295 L427 295 C436 295 445 303 447 314 L459 397 C460 407 453 416 444 416 L232 416 L255 580 L511 580 C521 580 530 589 531 599 L543 681 C544 691 538 700 528 700 L158 700 C149 700 140 691 139 681 L46 19 Z M347 764 C354 758 361 759 368 764 L502 865 C509 870 514 878 507 888 L485 921 C480 928 476 931 465 924 L365 862 L287 924 C279 931 273 929 267 921 L238 884 C233 877 236 869 241 865 L347 764 Z " />
<glyph glyph-name="ecaron" unicode="&#x11b;" horiz-adv-x="463" d="M28 194 C28 83 93 -11 210 -11 C271 -11 329 15 370 52 C379 61 379 73 373 82 L335 133 C329 143 318 140 309 133 C289 120 251 101 224 101 C168 101 145 140 148 187 C286 188 440 226 440 344 C440 415 378 472 287 472 C125 472 28 334 28 194 L28 194 Z M160 272 C172 315 221 366 268 366 C303 366 316 347 316 330 C316 293 246 272 160 272 L160 272 Z M291 525 C298 519 305 520 312 525 L446 626 C453 631 458 639 451 649 L429 682 C424 689 420 692 409 685 L309 623 L231 685 C223 692 217 690 211 682 L182 645 C177 638 180 630 185 626 L291 525 Z " />
<glyph glyph-name="Gcircumflex" unicode="&#x11c;" horiz-adv-x="659" d="M53 301 C53 129 171 -10 334 -10 C469 -10 548 49 558 57 C565 63 572 72 574 88 L607 328 C608 338 602 347 593 347 L416 347 C406 347 398 339 396 328 L385 250 C384 240 390 232 400 232 L464 232 L452 144 C433 132 397 120 350 120 C262 120 195 212 195 318 C195 461 299 585 419 585 C481 585 518 560 544 535 C553 526 565 526 577 535 L630 587 C639 595 640 607 634 615 C583 675 516 710 426 710 C217 710 53 536 53 301 L53 301 Z M344 765 L444 827 L522 765 C530 758 536 760 542 768 L571 805 C576 812 573 820 568 824 L462 925 C455 931 448 930 441 925 L307 824 C300 819 295 811 302 801 L324 768 C329 761 333 758 344 765 L344 765 Z " />
<glyph glyph-name="gcircumflex" unicode="&#x11d;" horiz-adv-x="533" d="M345 294 C339 320 321 358 267 358 C189 358 158 269 158 206 C158 151 177 103 237 103 C289 103 322 129 322 129 L345 294 Z M491 440 L429 -5 C405 -179 295 -232 188 -232 C117 -232 58 -192 41 -175 C35 -169 34 -157 40 -149 L75 -86 C80 -77 92 -74 100 -80 C114 -90 151 -115 194 -115 C258 -115 295 -91 308 -5 L310 8 C289 0 251 -11 209 -11 C99 -11 29 73 29 198 C29 337 117 472 268 472 C356 472 394 403 394 403 L410 440 C415 453 423 462 433 462 L474 462 C485 462 493 452 491 440 L491 440 Z M190 529 C195 522 199 519 210 526 L310 588 L388 526 C396 519 402 521 408 529 L437 566 C442 573 439 581 434 585 L328 686 C321 692 314 691 307 686 L173 585 C166 580 161 572 168 562 L190 529 Z " />
<glyph glyph-name="Gbreve" unicode="&#x11e;" horiz-adv-x="659" d="M53 301 C53 129 171 -10 334 -10 C469 -10 548 49 558 57 C565 63 572 72 574 88 L607 328 C608 338 602 347 593 347 L416 347 C406 347 398 339 396 328 L385 250 C384 240 390 232 400 232 L464 232 L452 144 C433 132 397 120 350 120 C262 120 195 212 195 318 C195 461 299 585 419 585 C481 585 518 560 544 535 C553 526 565 526 577 535 L630 587 C639 595 640 607 634 615 C583 675 516 710 426 710 C217 710 53 536 53 301 L53 301 Z M445 766 C516 766 570 817 589 884 C591 895 586 905 575 905 L534 905 C528 905 521 900 517 891 C506 863 481 838 453 838 C424 838 408 861 403 891 C402 898 400 905 392 905 L355 905 C343 905 335 895 335 884 C335 817 384 766 445 766 L445 766 Z " />
<glyph glyph-name="gbreve" unicode="&#x11f;" horiz-adv-x="533" d="M345 294 C339 320 321 358 267 358 C189 358 158 269 158 206 C158 151 177 103 237 103 C289 103 322 129 322 129 L345 294 Z M491 440 L429 -5 C405 -179 295 -232 188 -232 C117 -232 58 -192 41 -175 C35 -169 34 -157 40 -149 L75 -86 C80 -77 92 -74 100 -80 C114 -90 151 -115 194 -115 C258 -115 295 -91 308 -5 L310 8 C289 0 251 -11 209 -11 C99 -11 29 73 29 198 C29 337 117 472 268 472 C356 472 394 403 394 403 L410 440 C415 453 423 462 433 462 L474 462 C485 462 493 452 491 440 L491 440 Z M313 528 C383 528 437 579 457 646 C459 658 454 668 443 668 L402 668 C395 668 387 662 384 654 C373 626 349 601 321 601 C291 601 275 623 271 654 C270 661 265 668 258 668 L222 668 C211 668 202 658 202 646 C202 579 250 528 313 528 L313 528 Z " />
<glyph glyph-name="Gdotaccent" unicode="&#x120;" horiz-adv-x="659" d="M53 301 C53 129 171 -10 334 -10 C469 -10 548 49 558 57 C565 63 572 72 574 88 L607 328 C608 338 602 347 593 347 L416 347 C406 347 398 339 396 328 L385 250 C384 240 390 232 400 232 L464 232 L452 144 C433 132 397 120 350 120 C262 120 195 212 195 318 C195 461 299 585 419 585 C481 585 518 560 544 535 C553 526 565 526 577 535 L630 587 C639 595 640 607 634 615 C583 675 516 710 426 710 C217 710 53 536 53 301 L53 301 Z M437 772 C484 772 527 813 527 861 C527 900 499 931 459 931 C411 931 369 891 369 841 C369 803 397 772 437 772 L437 772 Z " />
<glyph glyph-name="gdotaccent" unicode="&#x121;" horiz-adv-x="533" d="M345 294 C339 320 321 358 267 358 C189 358 158 269 158 206 C158 151 177 103 237 103 C289 103 322 129 322 129 L345 294 Z M491 440 L429 -5 C405 -179 295 -232 188 -232 C117 -232 58 -192 41 -175 C35 -169 34 -157 40 -149 L75 -86 C80 -77 92 -74 100 -80 C114 -90 151 -115 194 -115 C258 -115 295 -91 308 -5 L310 8 C289 0 251 -11 209 -11 C99 -11 29 73 29 198 C29 337 117 472 268 472 C356 472 394 403 394 403 L410 440 C415 453 423 462 433 462 L474 462 C485 462 493 452 491 440 L491 440 Z M307 541 C354 541 397 582 397 630 C397 669 369 700 329 700 C281 700 239 660 239 610 C239 572 267 541 307 541 L307 541 Z " />
<glyph glyph-name="Gcommaaccent" unicode="&#x122;" horiz-adv-x="659" d="M53 301 C53 129 171 -10 334 -10 C469 -10 548 49 558 57 C565 63 572 72 574 88 L607 328 C608 338 602 347 593 347 L416 347 C406 347 398 339 396 328 L385 250 C384 240 390 232 400 232 L464 232 L452 144 C433 132 397 120 350 120 C262 120 195 212 195 318 C195 461 299 585 419 585 C481 585 518 560 544 535 C553 526 565 526 577 535 L630 587 C639 595 640 607 634 615 C583 675 516 710 426 710 C217 710 53 536 53 301 L53 301 Z M211 -144 C211 -171 231 -192 263 -192 C278 -192 292 -186 298 -182 C296 -209 281 -238 261 -261 C254 -269 253 -275 260 -282 L282 -302 C288 -308 296 -306 302 -300 C343 -254 376 -201 376 -142 C376 -88 344 -64 299 -64 C251 -64 211 -98 211 -144 L211 -144 Z " />
<glyph glyph-name="gcommaaccent" unicode="&#x123;" horiz-adv-x="533" d="M345 294 C339 320 321 358 267 358 C189 358 158 269 158 206 C158 151 177 103 237 103 C289 103 322 129 322 129 L345 294 Z M491 440 L429 -5 C405 -179 295 -232 188 -232 C117 -232 58 -192 41 -175 C35 -169 34 -157 40 -149 L75 -86 C80 -77 92 -74 100 -80 C114 -90 151 -115 194 -115 C258 -115 295 -91 308 -5 L310 8 C289 0 251 -11 209 -11 C99 -11 29 73 29 198 C29 337 117 472 268 472 C356 472 394 403 394 403 L410 440 C415 453 423 462 433 462 L474 462 C485 462 493 452 491 440 L491 440 Z M390 600 C390 627 370 648 338 648 C323 648 309 642 303 638 C305 665 320 694 340 717 C347 725 348 731 341 738 L319 758 C313 764 305 762 299 756 C258 710 225 657 225 598 C225 544 257 520 302 520 C350 520 390 554 390 600 L390 600 Z " />
<glyph glyph-name="Hcircumflex" unicode="&#x124;" horiz-adv-x="702" d="M46 19 C44 9 51 0 60 0 L157 0 C167 0 175 9 177 19 L216 295 L489 295 L450 19 C449 9 454 0 464 0 L561 0 C570 0 579 9 581 19 L674 681 C675 691 668 700 659 700 L563 700 C553 700 544 691 543 681 L506 416 L233 416 L270 681 C271 691 265 700 255 700 L159 700 C150 700 140 691 139 681 L46 19 Z M325 765 L425 827 L503 765 C511 758 517 760 523 768 L552 805 C557 812 554 820 549 824 L443 925 C436 931 429 930 422 925 L288 824 C281 819 276 811 283 801 L305 768 C310 761 314 758 325 765 L325 765 Z " />
<glyph glyph-name="hcircumflex" unicode="&#x125;" horiz-adv-x="517" d="M26 22 C25 10 32 0 43 0 L127 0 C144 0 150 9 153 22 L192 299 C192 299 214 356 275 356 C334 356 338 317 329 253 L297 22 C296 10 303 0 314 0 L399 0 C409 0 421 10 422 22 L454 251 C469 367 444 472 313 472 C269 472 236 455 211 436 L245 678 C246 690 238 700 227 700 L141 700 C132 700 120 690 119 678 L26 22 Z M69 746 C74 739 78 736 89 743 L189 805 L267 743 C275 736 281 738 287 746 L316 783 C321 790 318 798 313 802 L207 903 C200 909 193 908 186 903 L52 802 C45 797 40 789 47 779 L69 746 Z " />
<glyph glyph-name="Hbar" unicode="&#x126;" horiz-adv-x="702" d="M47 19 C45 9 52 0 61 0 L158 0 C168 0 176 9 178 19 L217 295 L490 295 L451 19 C450 9 455 0 465 0 L562 0 C571 0 580 9 582 19 L654 533 L678 533 C688 533 697 541 698 551 L700 565 C701 575 695 584 685 584 L661 584 L675 681 C676 691 669 700 660 700 L564 700 C554 700 545 691 544 681 L530 584 L257 584 L271 681 C272 691 266 700 256 700 L160 700 C151 700 141 691 140 681 L126 584 L102 584 C93 584 84 577 83 567 L81 552 C80 542 86 533 95 533 L119 533 L47 19 Z M234 416 L250 533 L523 533 L507 416 L234 416 Z " />
<glyph glyph-name="hbar" unicode="&#x127;" horiz-adv-x="536" d="M26 22 C25 10 32 0 43 0 L127 0 C144 0 150 9 153 22 L192 299 C192 299 224 356 285 356 C344 356 358 317 349 253 L317 22 C316 10 323 0 334 0 L419 0 C429 0 441 10 442 22 L474 251 C489 367 454 472 323 472 C279 472 236 455 211 436 L224 533 L318 533 C328 533 336 541 337 551 L339 565 C340 575 335 584 325 584 L231 584 L245 678 C246 690 238 700 227 700 L141 700 C132 700 120 690 119 678 L105 584 L78 584 C69 584 62 577 60 567 L58 552 C56 542 62 533 71 533 L98 533 L26 22 Z " />
<glyph glyph-name="Itilde" unicode="&#x128;" horiz-adv-x="298" d="M46 19 C44 9 51 0 60 0 L158 0 C167 0 176 9 177 19 L270 681 C272 691 265 700 256 700 L158 700 C149 700 140 691 139 681 L46 19 Z M113 789 C121 782 133 785 137 793 C145 808 156 832 175 832 C201 832 224 776 271 776 C324 776 358 833 367 852 C374 866 376 877 365 885 L342 903 C331 911 318 905 312 893 C305 879 296 862 280 862 C248 862 231 917 186 917 C129 917 94 853 84 833 C80 826 78 818 86 810 L113 789 Z " />
<glyph glyph-name="itilde" unicode="&#x129;" horiz-adv-x="252" d="M26 22 C25 10 34 0 44 0 L129 0 C139 0 151 10 152 22 L212 440 C214 453 204 462 194 462 L108 462 C98 462 87 453 85 440 L26 22 Z M58 562 C66 555 78 558 82 566 C90 581 101 605 120 605 C146 605 169 549 216 549 C269 549 303 606 312 625 C319 639 321 650 310 658 L287 676 C276 684 263 678 257 666 C250 652 241 635 225 635 C193 635 176 690 131 690 C74 690 39 626 29 606 C25 599 23 591 31 583 L58 562 Z " />
<glyph glyph-name="Imacron" unicode="&#x12a;" horiz-adv-x="298" d="M46 19 C44 9 51 0 60 0 L158 0 C167 0 176 9 177 19 L270 681 C272 691 265 700 256 700 L158 700 C149 700 140 691 139 681 L46 19 Z M107 808 L337 808 C347 808 356 816 357 826 L362 860 C364 871 358 879 348 879 L117 879 C107 879 99 871 97 860 L92 826 C91 816 97 808 107 808 L107 808 Z " />
<glyph glyph-name="imacron" unicode="&#x12b;" horiz-adv-x="252" d="M26 22 C25 10 34 0 44 0 L129 0 C139 0 151 10 152 22 L212 440 C214 453 204 462 194 462 L108 462 C98 462 87 453 85 440 L26 22 Z M47 570 L278 570 C288 570 296 578 297 588 L302 622 C304 633 297 641 288 641 L57 641 C47 641 38 633 37 622 L33 588 C32 578 37 570 47 570 L47 570 Z " />
<glyph glyph-name="Ibreve" unicode="&#x12c;" horiz-adv-x="298" d="M46 19 C44 9 51 0 60 0 L158 0 C167 0 176 9 177 19 L270 681 C272 691 265 700 256 700 L158 700 C149 700 140 691 139 681 L46 19 Z M222 766 C293 766 347 817 366 884 C368 895 363 905 352 905 L311 905 C305 905 298 900 294 891 C283 863 258 838 230 838 C201 838 185 861 180 891 C179 898 177 905 169 905 L132 905 C120 905 112 895 112 884 C112 817 161 766 222 766 L222 766 Z " />
<glyph glyph-name="ibreve" unicode="&#x12d;" horiz-adv-x="252" d="M26 22 C25 10 34 0 44 0 L129 0 C139 0 151 10 152 22 L212 440 C214 453 204 462 194 462 L108 462 C98 462 87 453 85 440 L26 22 Z M158 528 C228 528 282 579 302 646 C304 658 299 668 288 668 L247 668 C240 668 232 662 229 654 C218 626 194 601 166 601 C136 601 120 623 116 654 C115 661 110 668 103 668 L67 668 C56 668 47 658 47 646 C47 579 95 528 158 528 L158 528 Z " />
<glyph glyph-name="Iogonek" unicode="&#x12e;" horiz-adv-x="298" d="M46 19 C44 9 50 1 58 0 C-3 -41 -52 -90 -52 -158 C-52 -211 -17 -247 48 -247 C80 -247 115 -238 132 -227 C145 -218 150 -208 151 -196 L157 -144 C158 -133 148 -129 138 -137 C129 -144 100 -165 73 -165 C52 -165 39 -155 39 -132 C39 -74 107 -26 151 0 L158 0 C169 0 176 9 177 19 L270 681 C272 691 265 700 256 700 L158 700 C149 700 140 691 139 681 L46 19 Z " />
<glyph glyph-name="iogonek" unicode="&#x12f;" horiz-adv-x="252" d="M26 22 C25 12 31 4 38 1 C-22 -41 -73 -89 -73 -158 C-73 -211 -38 -247 27 -247 C59 -247 94 -238 111 -227 C124 -218 129 -208 130 -196 L136 -144 C137 -133 127 -129 117 -137 C108 -144 79 -165 52 -165 C31 -165 18 -155 18 -132 C18 -74 86 -26 130 0 C139 4 150 10 152 26 L212 440 C214 453 204 462 194 462 L108 462 C98 462 87 453 85 440 L26 22 Z M161 541 C208 541 251 582 251 630 C251 669 223 700 183 700 C135 700 93 660 93 610 C93 572 121 541 161 541 L161 541 Z " />
<glyph glyph-name="Idotaccent" unicode="&#x130;" horiz-adv-x="298" d="M46 19 C44 9 51 0 60 0 L158 0 C167 0 176 9 177 19 L270 681 C272 691 265 700 256 700 L158 700 C149 700 140 691 139 681 L46 19 Z M217 772 C264 772 307 813 307 861 C307 900 279 931 239 931 C191 931 149 891 149 841 C149 803 177 772 217 772 L217 772 Z " />
<glyph glyph-name="dotlessi" unicode="&#x131;" horiz-adv-x="252" d="M26 22 C25 10 34 0 44 0 L129 0 C139 0 151 10 152 22 L212 440 C214 453 204 462 194 462 L108 462 C98 462 87 453 85 440 L26 22 Z " />
<glyph glyph-name="IJ" unicode="&#x132;" horiz-adv-x="707" d="M46 19 C44 9 51 0 60 0 L158 0 C167 0 176 9 177 19 L270 681 C272 691 265 700 256 700 L158 700 C149 700 140 691 139 681 L46 19 Z M268 63 C282 40 328 -10 407 -10 C536 -10 597 70 614 189 L684 681 C685 691 679 700 669 700 L570 700 C561 700 552 691 551 681 L481 186 C474 140 444 108 404 108 C375 108 356 122 345 132 C337 140 330 143 320 133 L274 88 C267 81 263 71 268 63 L268 63 Z " />
<glyph glyph-name="ij" unicode="&#x133;" horiz-adv-x="484" d="M26 22 C25 10 34 0 44 0 L129 0 C139 0 150 10 152 22 L212 440 C214 453 204 462 194 462 L108 462 C98 462 87 453 85 440 L26 22 Z M161 541 C208 541 251 582 251 630 C251 669 223 700 183 700 C135 700 93 660 93 610 C93 572 121 541 161 541 L161 541 Z M442 440 C444 453 434 462 423 462 L342 462 C331 462 319 453 317 440 L250 -36 C241 -98 196 -118 161 -136 C143 -145 139 -158 143 -176 L164 -235 C169 -253 190 -252 207 -245 C287 -212 359 -156 378 -19 L442 440 Z M391 541 C438 541 481 582 481 630 C481 669 453 700 413 700 C365 700 323 660 323 610 C323 572 351 541 391 541 L391 541 Z " />
<glyph glyph-name="Jcircumflex" unicode="&#x134;" horiz-adv-x="424" d="M-15 63 C-1 40 45 -10 124 -10 C253 -10 314 70 331 189 L401 681 C402 691 396 700 386 700 L287 700 C278 700 269 691 268 681 L198 186 C191 140 161 108 121 108 C92 108 73 122 62 132 C54 140 47 143 37 133 L-9 88 C-16 81 -20 71 -15 63 L-15 63 Z M253 765 L353 827 L431 765 C439 758 445 760 451 768 L480 805 C485 812 482 820 477 824 L371 925 C364 931 357 930 350 925 L216 824 C209 819 204 811 211 801 L233 768 C238 761 242 758 253 765 L253 765 Z " />
<glyph glyph-name="jcircumflex" unicode="&#x135;" horiz-adv-x="252" d="M210 440 C212 453 202 462 191 462 L110 462 C99 462 87 453 85 440 L18 -36 C9 -98 -36 -118 -71 -136 C-89 -145 -93 -158 -89 -176 L-68 -235 C-63 -253 -42 -252 -25 -245 C55 -212 127 -156 146 -19 L210 440 Z M49 529 C54 522 58 519 69 526 L169 588 L247 526 C255 519 261 521 267 529 L296 566 C301 573 298 581 293 585 L187 686 C180 692 173 691 166 686 L32 585 C25 580 20 572 27 562 L49 529 Z " />
<glyph glyph-name="Kcommaaccent" unicode="&#x136;" horiz-adv-x="603" d="M47 24 C46 11 53 0 66 0 L160 0 C171 0 183 11 184 24 L227 329 L405 20 C414 4 422 0 441 0 L532 0 C549 0 559 18 552 31 L350 361 L623 667 C636 682 630 700 613 700 L514 700 C493 700 484 695 473 682 L238 406 L276 676 C278 689 270 700 258 700 L164 700 C151 700 141 689 139 676 L47 24 Z M170 -144 C170 -171 190 -192 222 -192 C237 -192 251 -186 257 -182 C255 -209 240 -238 220 -261 C213 -269 212 -275 219 -282 L241 -302 C247 -308 255 -306 261 -300 C302 -254 335 -201 335 -142 C335 -88 303 -64 258 -64 C210 -64 170 -98 170 -144 L170 -144 Z " />
<glyph glyph-name="kcommaaccent" unicode="&#x137;" horiz-adv-x="495" d="M131 0 C140 0 152 10 154 22 L182 222 L299 13 C304 4 309 0 324 0 L419 0 C438 0 445 16 437 29 L303 241 L482 430 C495 443 492 462 474 462 L367 462 C355 462 347 457 339 448 L190 283 L246 678 C247 690 239 700 228 700 L141 700 C132 700 120 690 119 678 L26 22 C24 10 32 0 43 0 L131 0 Z M115 -144 C115 -171 135 -192 167 -192 C182 -192 196 -186 202 -182 C200 -209 185 -238 165 -261 C158 -269 157 -275 164 -282 L186 -302 C192 -308 200 -306 206 -300 C247 -254 280 -201 280 -142 C280 -88 248 -64 203 -64 C155 -64 115 -98 115 -144 L115 -144 Z " />
<glyph glyph-name="kgreenlandic" unicode="&#x138;" horiz-adv-x="496" d="M26 22 C25 10 34 0 44 0 L130 0 C139 0 151 10 153 22 L176 187 L300 11 C305 4 313 0 321 0 L418 0 C436 0 446 20 437 33 L304 222 L483 428 C494 441 492 462 474 462 L369 462 C358 462 347 457 340 448 L187 256 L212 440 C213 451 206 462 195 462 L109 462 C100 462 86 451 85 440 L26 22 Z " />
<glyph glyph-name="Lacute" unicode="&#x139;" horiz-adv-x="470" d="M46 19 C45 9 51 0 61 0 L395 0 C405 0 414 9 415 19 L426 101 C427 111 422 120 412 120 L191 120 L270 681 C271 691 265 700 256 700 L159 700 C149 700 140 691 139 681 L46 19 Z M153 768 L325 845 C334 849 340 860 334 872 L310 924 C305 935 295 935 286 929 L122 832 C114 828 111 821 114 813 L130 774 C134 765 139 762 153 768 L153 768 Z " />
<glyph glyph-name="lacute" unicode="&#x13a;" horiz-adv-x="255" d="M27 22 C26 10 33 0 44 0 L130 0 C140 0 152 10 153 22 L246 678 C247 690 239 700 228 700 L142 700 C133 700 121 690 120 678 L27 22 Z M139 745 L311 822 C320 826 326 837 320 849 L296 901 C291 912 281 912 272 906 L108 809 C100 805 97 798 100 790 L116 751 C120 742 125 739 139 745 L139 745 Z " />
<glyph glyph-name="Lcommaaccent" unicode="&#x13b;" horiz-adv-x="470" d="M46 19 C45 9 51 0 61 0 L395 0 C405 0 414 9 415 19 L426 101 C427 111 422 120 412 120 L191 120 L270 681 C271 691 265 700 256 700 L159 700 C149 700 140 691 139 681 L46 19 Z M123 -144 C123 -171 143 -192 175 -192 C190 -192 204 -186 210 -182 C208 -209 193 -238 173 -261 C166 -269 165 -275 172 -282 L194 -302 C200 -308 208 -306 214 -300 C255 -254 288 -201 288 -142 C288 -88 256 -64 211 -64 C163 -64 123 -98 123 -144 L123 -144 Z " />
<glyph glyph-name="lcommaaccent" unicode="&#x13c;" horiz-adv-x="255" d="M27 22 C26 10 33 0 44 0 L130 0 C140 0 152 10 153 22 L246 678 C247 690 239 700 228 700 L142 700 C133 700 121 690 120 678 L27 22 Z M-19 -144 C-19 -171 1 -192 33 -192 C48 -192 62 -186 68 -182 C66 -209 51 -238 31 -261 C24 -269 23 -275 30 -282 L52 -302 C58 -308 66 -306 72 -300 C113 -254 146 -201 146 -142 C146 -88 114 -64 69 -64 C21 -64 -19 -98 -19 -144 L-19 -144 Z " />
<glyph glyph-name="Lcaron" unicode="&#x13d;" horiz-adv-x="483" d="M46 19 C45 9 51 0 61 0 L395 0 C405 0 414 9 415 19 L426 101 C427 111 422 120 412 120 L191 120 L270 681 C271 691 265 700 256 700 L159 700 C149 700 140 691 139 681 L46 19 Z M340 629 C340 602 360 581 392 581 C407 581 421 587 427 591 C425 564 410 535 390 512 C383 504 382 498 389 491 L411 471 C417 465 425 467 431 473 C472 519 505 572 505 631 C505 685 473 709 428 709 C380 709 340 675 340 629 L340 629 Z " />
<glyph glyph-name="lcaron" unicode="&#x13e;" horiz-adv-x="255" d="M27 22 C26 10 33 0 44 0 L130 0 C140 0 152 10 153 22 L246 678 C247 690 239 700 228 700 L142 700 C133 700 121 690 120 678 L27 22 Z M271 630 C271 603 291 582 323 582 C338 582 352 588 358 592 C356 565 341 536 321 513 C314 505 313 499 320 492 L342 472 C348 466 356 468 362 474 C403 520 436 573 436 632 C436 686 404 710 359 710 C311 710 271 676 271 630 L271 630 Z " />
<glyph glyph-name="Ldot" unicode="&#x13f;" horiz-adv-x="500" d="M46 19 C45 9 51 0 61 0 L395 0 C405 0 414 9 415 19 L426 101 C427 111 422 120 412 120 L191 120 L270 681 C271 691 265 700 256 700 L159 700 C149 700 140 691 139 681 L46 19 Z M410 281 C457 281 500 322 500 370 C500 409 472 440 432 440 C384 440 342 400 342 350 C342 312 370 281 410 281 L410 281 Z " />
<glyph glyph-name="ldot" unicode="&#x140;" horiz-adv-x="400" d="M27 22 C26 10 33 0 44 0 L130 0 C140 0 152 10 153 22 L246 678 C247 690 239 700 228 700 L142 700 C133 700 121 690 120 678 L27 22 Z M324 263 C371 263 414 304 414 352 C414 391 386 422 346 422 C298 422 256 382 256 332 C256 294 284 263 324 263 L324 263 Z " />
<glyph glyph-name="Lslash" unicode="&#x141;" horiz-adv-x="471" d="M47 19 C46 9 52 0 62 0 L396 0 C406 0 415 9 416 19 L427 101 C429 111 423 120 413 120 L192 120 L229 381 L335 447 C344 453 349 464 345 472 L339 485 C335 493 326 498 317 492 L237 441 L271 681 C272 691 266 700 257 700 L160 700 C150 700 142 691 140 681 L96 365 L47 338 C38 333 35 321 38 313 L43 301 C47 292 57 290 65 294 L88 306 L47 19 Z " />
<glyph glyph-name="lslash" unicode="&#x142;" horiz-adv-x="278" d="M38 22 C37 10 44 0 55 0 L141 0 C151 0 163 10 164 22 L216 388 L295 434 C304 440 307 451 304 459 L299 472 C296 481 285 485 276 479 L224 449 L257 678 C258 690 250 700 239 700 L153 700 C144 700 132 690 131 678 L87 368 L32 336 C24 331 20 319 23 311 L28 299 C32 290 42 286 51 292 L78 308 L38 22 Z " />
<glyph glyph-name="Nacute" unicode="&#x143;" horiz-adv-x="705" d="M47 17 C46 8 53 0 61 0 L157 0 C167 0 176 9 177 19 L231 435 C231 435 232 435 232 435 L524 8 C534 -7 538 -10 553 -10 L563 -10 C572 -10 581 -2 582 8 L677 681 C678 691 671 700 662 700 L565 700 C555 700 547 691 546 681 L492 278 C492 278 491 278 491 278 L197 694 C186 710 182 710 171 710 L160 710 C151 710 142 702 141 692 L47 17 Z M354 768 L526 845 C535 849 541 860 535 872 L511 924 C506 935 496 935 487 929 L323 832 C315 828 312 821 315 813 L331 774 C335 765 340 762 354 768 L354 768 Z " />
<glyph glyph-name="nacute" unicode="&#x144;" horiz-adv-x="515" d="M26 22 C24 10 32 0 43 0 L125 0 C140 0 147 5 149 22 L189 292 C189 292 220 356 280 356 C332 356 338 318 330 258 L294 22 C293 10 299 0 310 0 L398 0 C408 0 419 10 420 22 L453 251 C470 370 441 472 314 472 C236 472 193 425 171 405 L161 448 C160 457 153 462 145 462 L107 462 C97 462 86 453 85 440 L26 22 Z M250 528 L422 605 C431 609 437 620 431 632 L407 684 C402 695 392 695 383 689 L219 592 C211 588 208 581 211 573 L227 534 C231 525 236 522 250 528 L250 528 Z " />
<glyph glyph-name="Ncommaaccent" unicode="&#x145;" horiz-adv-x="705" d="M47 17 C46 8 53 0 61 0 L157 0 C167 0 176 9 177 19 L231 435 C231 435 232 435 232 435 L524 8 C534 -7 538 -10 553 -10 L563 -10 C572 -10 581 -2 582 8 L677 681 C678 691 671 700 662 700 L565 700 C555 700 547 691 546 681 L492 278 C492 278 491 278 491 278 L197 694 C186 710 182 710 171 710 L160 710 C151 710 142 702 141 692 L47 17 Z M229 -144 C229 -171 249 -192 281 -192 C296 -192 310 -186 316 -182 C314 -209 299 -238 279 -261 C272 -269 271 -275 278 -282 L300 -302 C306 -308 314 -306 320 -300 C361 -254 394 -201 394 -142 C394 -88 362 -64 317 -64 C269 -64 229 -98 229 -144 L229 -144 Z " />
<glyph glyph-name="ncommaaccent" unicode="&#x146;" horiz-adv-x="515" d="M26 22 C24 10 32 0 43 0 L125 0 C140 0 147 5 149 22 L189 292 C189 292 220 356 280 356 C332 356 338 318 330 258 L294 22 C293 10 299 0 310 0 L398 0 C408 0 419 10 420 22 L453 251 C470 370 441 472 314 472 C236 472 193 425 171 405 L161 448 C160 457 153 462 145 462 L107 462 C97 462 86 453 85 440 L26 22 Z M112 -144 C112 -171 132 -192 164 -192 C179 -192 193 -186 199 -182 C197 -209 182 -238 162 -261 C155 -269 154 -275 161 -282 L183 -302 C189 -308 197 -306 203 -300 C244 -254 277 -201 277 -142 C277 -88 245 -64 200 -64 C152 -64 112 -98 112 -144 L112 -144 Z " />
<glyph glyph-name="Ncaron" unicode="&#x147;" horiz-adv-x="705" d="M47 17 C46 8 53 0 61 0 L157 0 C167 0 176 9 177 19 L231 435 C231 435 232 435 232 435 L524 8 C534 -7 538 -10 553 -10 L563 -10 C572 -10 581 -2 582 8 L677 681 C678 691 671 700 662 700 L565 700 C555 700 547 691 546 681 L492 278 C492 278 491 278 491 278 L197 694 C186 710 182 710 171 710 L160 710 C151 710 142 702 141 692 L47 17 Z M404 764 C411 758 418 759 425 764 L559 865 C566 870 571 878 564 888 L542 921 C537 928 533 931 522 924 L422 862 L344 924 C336 931 330 929 324 921 L295 884 C290 877 293 869 298 865 L404 764 Z " />
<glyph glyph-name="ncaron" unicode="&#x148;" horiz-adv-x="515" d="M26 22 C24 10 32 0 43 0 L125 0 C140 0 147 5 149 22 L189 292 C189 292 220 356 280 356 C332 356 338 318 330 258 L294 22 C293 10 299 0 310 0 L398 0 C408 0 419 10 420 22 L453 251 C470 370 441 472 314 472 C236 472 193 425 171 405 L161 448 C160 457 153 462 145 462 L107 462 C97 462 86 453 85 440 L26 22 Z M294 525 C301 519 308 520 315 525 L449 626 C456 631 461 639 454 649 L432 682 C427 689 423 692 412 685 L312 623 L234 685 C226 692 220 690 214 682 L185 645 C180 638 183 630 188 626 L294 525 Z " />
<glyph glyph-name="napostrophe" unicode="&#x149;" horiz-adv-x="515" d="M-49 630 C-49 603 -29 582 3 582 C18 582 32 588 38 592 C36 565 21 536 1 513 C-6 505 -7 499 0 492 L22 472 C28 466 36 468 42 474 C83 520 116 573 116 632 C116 686 84 710 39 710 C-9 710 -49 676 -49 630 L-49 630 Z M26 22 C24 10 32 0 43 0 L125 0 C140 0 147 5 149 22 L189 292 C189 292 220 356 280 356 C332 356 338 318 330 258 L294 22 C293 10 299 0 310 0 L398 0 C408 0 419 10 420 22 L453 251 C470 370 441 472 314 472 C236 472 193 425 171 405 L161 448 C160 457 153 462 145 462 L107 462 C97 462 86 453 85 440 L26 22 Z " />
<glyph glyph-name="Eng" unicode="&#x14a;" horiz-adv-x="705" d="M47 17 C46 8 53 0 61 0 L157 0 C167 0 176 9 177 19 L231 435 L232 435 L466 86 L449 -36 C440 -98 395 -118 360 -136 C342 -145 338 -158 342 -176 L363 -235 C368 -253 389 -252 406 -245 C480 -214 558 -166 575 -47 L677 681 C678 691 671 700 662 700 L565 700 C555 700 547 691 546 681 L492 278 L491 278 L192 702 C188 708 183 710 176 710 L160 710 C151 710 142 702 141 692 L47 17 Z " />
<glyph glyph-name="eng" unicode="&#x14b;" horiz-adv-x="516" d="M287 -36 C278 -98 233 -118 198 -136 C180 -145 176 -158 180 -176 L201 -235 C206 -253 227 -252 244 -245 C324 -212 396 -156 415 -19 L453 251 C470 370 441 472 314 472 C236 472 193 425 171 405 L161 448 C160 457 153 462 145 462 L107 462 C97 462 86 453 85 440 L26 22 C24 10 32 0 43 0 L125 0 C140 0 147 5 149 22 L189 292 C189 292 220 356 280 356 C332 356 339 318 330 258 L287 -36 Z " />
<glyph glyph-name="Omacron" unicode="&#x14c;" horiz-adv-x="743" d="M53 300 C53 134 171 -10 334 -10 C545 -10 708 172 708 397 C708 567 589 710 427 710 C214 710 53 526 53 300 L53 300 Z M348 120 C249 120 188 209 188 317 C188 459 292 580 412 580 C511 580 573 489 573 381 C573 238 470 120 348 120 L348 120 Z M321 808 L551 808 C561 808 570 816 571 826 L576 860 C578 871 572 879 562 879 L331 879 C321 879 313 871 311 860 L306 826 C305 816 311 808 321 808 L321 808 Z " />
<glyph glyph-name="omacron" unicode="&#x14d;" horiz-adv-x="506" d="M28 199 C28 89 104 -11 212 -11 C347 -11 464 114 464 264 C464 377 386 472 280 472 C141 472 28 348 28 199 L28 199 Z M229 106 C174 106 149 155 149 212 C149 292 198 356 264 356 C315 356 341 308 341 253 C341 171 291 106 229 106 L229 106 Z M181 570 L412 570 C422 570 430 578 431 588 L436 622 C438 633 431 641 422 641 L191 641 C181 641 172 633 171 622 L167 588 C166 578 171 570 181 570 L181 570 Z " />
<glyph glyph-name="Obreve" unicode="&#x14e;" horiz-adv-x="743" d="M53 300 C53 134 171 -10 334 -10 C545 -10 708 172 708 397 C708 567 589 710 427 710 C214 710 53 526 53 300 L53 300 Z M348 120 C249 120 188 209 188 317 C188 459 292 580 412 580 C511 580 573 489 573 381 C573 238 470 120 348 120 L348 120 Z M431 766 C502 766 556 817 575 884 C577 895 572 905 561 905 L520 905 C514 905 507 900 503 891 C492 863 467 838 439 838 C410 838 394 861 389 891 C388 898 386 905 378 905 L341 905 C329 905 321 895 321 884 C321 817 370 766 431 766 L431 766 Z " />
<glyph glyph-name="obreve" unicode="&#x14f;" horiz-adv-x="506" d="M28 199 C28 89 104 -11 212 -11 C347 -11 464 114 464 264 C464 377 386 472 280 472 C141 472 28 348 28 199 L28 199 Z M229 106 C174 106 149 155 149 212 C149 292 198 356 264 356 C315 356 341 308 341 253 C341 171 291 106 229 106 L229 106 Z M297 528 C367 528 421 579 441 646 C443 658 438 668 427 668 L386 668 C379 668 371 662 368 654 C357 626 333 601 305 601 C275 601 259 623 255 654 C254 661 249 668 242 668 L206 668 C195 668 186 658 186 646 C186 579 234 528 297 528 L297 528 Z " />
<glyph glyph-name="Ohungarumlaut" unicode="&#x150;" horiz-adv-x="743" d="M53 300 C53 134 171 -10 334 -10 C545 -10 708 172 708 397 C708 567 589 710 427 710 C214 710 53 526 53 300 L53 300 Z M348 120 C249 120 188 209 188 317 C188 459 292 580 412 580 C511 580 573 489 573 381 C573 238 470 120 348 120 L348 120 Z M488 768 L522 768 C533 768 539 775 544 783 L633 922 C642 935 638 947 621 947 L546 947 C534 947 527 939 523 928 L474 787 C470 777 479 768 488 768 L488 768 Z M339 768 L373 768 C384 768 390 775 395 783 L484 922 C493 935 489 947 472 947 L397 947 C385 947 378 939 374 928 L325 787 C321 777 330 768 339 768 L339 768 Z " />
<glyph glyph-name="ohungarumlaut" unicode="&#x151;" horiz-adv-x="506" d="M28 199 C28 89 104 -11 212 -11 C347 -11 464 114 464 264 C464 377 386 472 280 472 C141 472 28 348 28 199 L28 199 Z M229 106 C174 106 149 155 149 212 C149 292 198 356 264 356 C315 356 341 308 341 253 C341 171 291 106 229 106 L229 106 Z M351 521 L385 521 C396 521 402 528 407 536 L496 675 C505 688 501 700 484 700 L409 700 C397 700 390 692 386 681 L337 540 C333 530 342 521 351 521 L351 521 Z M202 521 L236 521 C247 521 253 528 258 536 L347 675 C356 688 352 700 335 700 L260 700 C248 700 241 692 237 681 L188 540 C184 530 193 521 202 521 L202 521 Z " />
<glyph glyph-name="OE" unicode="&#x152;" horiz-adv-x="895" d="M52 300 C52 128 178 -10 329 -10 C370 -10 420 0 420 0 L790 0 C800 0 809 9 810 19 L821 101 C822 111 817 120 807 120 L550 120 L575 295 L788 295 C797 295 805 303 807 314 L819 397 C820 407 814 416 805 416 L592 416 L615 580 L872 580 C882 580 890 589 891 599 L903 681 C904 691 898 700 889 700 L519 700 C519 700 477 710 430 710 C219 710 52 526 52 300 L52 300 Z M347 118 C253 118 185 209 185 317 C185 459 296 582 412 582 C438 582 461 577 483 568 L422 131 C397 121 372 118 347 118 L347 118 Z " />
<glyph glyph-name="oe" unicode="&#x153;" horiz-adv-x="755" d="M28 202 C28 89 103 -11 212 -11 C276 -11 329 17 367 50 C399 12 443 -11 503 -11 C562 -11 622 15 662 52 C672 61 671 73 665 82 L627 133 C621 143 611 140 600 133 C581 120 543 101 516 101 C458 101 437 143 440 187 C566 187 732 222 732 343 C732 414 672 472 578 472 C515 472 452 448 412 409 C381 446 332 472 279 472 C135 472 28 344 28 202 L28 202 Z M452 272 C464 315 513 366 560 366 C595 366 608 347 608 330 C608 293 538 272 452 272 L452 272 Z M228 106 C173 106 148 155 148 212 C148 292 197 356 263 356 C314 356 340 308 340 253 C340 171 290 106 228 106 L228 106 Z " />
<glyph glyph-name="Racute" unicode="&#x154;" horiz-adv-x="618" d="M46 19 C44 9 50 0 60 0 L157 0 C166 0 175 9 176 19 L212 274 L307 274 L380 16 C383 4 392 0 402 0 L497 0 C512 0 518 13 514 26 L432 282 C527 312 591 391 591 513 C591 616 520 700 422 700 L158 700 C149 700 140 691 139 681 L46 19 Z M228 381 L256 580 L393 580 C430 580 458 552 458 497 C458 434 416 381 353 381 L228 381 Z M298 768 L470 845 C479 849 485 860 479 872 L455 924 C450 935 440 935 431 929 L267 832 C259 828 256 821 259 813 L275 774 C279 765 284 762 298 768 L298 768 Z " />
<glyph glyph-name="racute" unicode="&#x155;" horiz-adv-x="371" d="M26 22 C24 10 32 0 43 0 L124 0 C140 0 149 5 151 22 L191 301 C204 327 224 356 267 356 C288 356 305 351 316 346 C326 341 335 345 340 355 L376 425 C383 438 378 447 371 453 C359 461 331 472 297 472 C239 472 192 431 172 402 L163 447 C161 455 155 462 145 462 L107 462 C97 462 86 453 85 440 L26 22 Z M169 528 L341 605 C350 609 356 620 350 632 L326 684 C321 695 311 695 302 689 L138 592 C130 588 127 581 130 573 L146 534 C150 525 155 522 169 528 L169 528 Z " />
<glyph glyph-name="Rcommaaccent" unicode="&#x156;" horiz-adv-x="618" d="M46 19 C44 9 50 0 60 0 L157 0 C166 0 175 9 176 19 L212 274 L307 274 L380 16 C383 4 392 0 402 0 L497 0 C512 0 518 13 514 26 L432 282 C527 312 591 391 591 513 C591 616 520 700 422 700 L158 700 C149 700 140 691 139 681 L46 19 Z M228 381 L256 580 L393 580 C430 580 458 552 458 497 C458 434 416 381 353 381 L228 381 Z M162 -144 C162 -171 182 -192 214 -192 C229 -192 243 -186 249 -182 C247 -209 232 -238 212 -261 C205 -269 204 -275 211 -282 L233 -302 C239 -308 247 -306 253 -300 C294 -254 327 -201 327 -142 C327 -88 295 -64 250 -64 C202 -64 162 -98 162 -144 L162 -144 Z " />
<glyph glyph-name="rcommaaccent" unicode="&#x157;" horiz-adv-x="371" d="M26 22 C24 10 32 0 43 0 L124 0 C140 0 149 5 151 22 L191 301 C204 327 224 356 267 356 C288 356 305 351 316 346 C326 341 335 345 340 355 L376 425 C383 438 378 447 371 453 C359 461 331 472 297 472 C239 472 192 431 172 402 L163 447 C161 455 155 462 145 462 L107 462 C97 462 86 453 85 440 L26 22 Z M-17 -144 C-17 -171 3 -192 35 -192 C50 -192 64 -186 70 -182 C68 -209 53 -238 33 -261 C26 -269 25 -275 32 -282 L54 -302 C60 -308 68 -306 74 -300 C115 -254 148 -201 148 -142 C148 -88 116 -64 71 -64 C23 -64 -17 -98 -17 -144 L-17 -144 Z " />
<glyph glyph-name="Rcaron" unicode="&#x158;" horiz-adv-x="618" d="M46 19 C44 9 50 0 60 0 L157 0 C166 0 175 9 176 19 L212 274 L307 274 L380 16 C383 4 392 0 402 0 L497 0 C512 0 518 13 514 26 L432 282 C527 312 591 391 591 513 C591 616 520 700 422 700 L158 700 C149 700 140 691 139 681 L46 19 Z M228 381 L256 580 L393 580 C430 580 458 552 458 497 C458 434 416 381 353 381 L228 381 Z M347 764 C354 758 361 759 368 764 L502 865 C509 870 514 878 507 888 L485 921 C480 928 476 931 465 924 L365 862 L287 924 C279 931 273 929 267 921 L238 884 C233 877 236 869 241 865 L347 764 Z " />
<glyph glyph-name="rcaron" unicode="&#x159;" horiz-adv-x="371" d="M26 22 C24 10 32 0 43 0 L124 0 C140 0 149 5 151 22 L191 301 C204 327 224 356 267 356 C288 356 305 351 316 346 C326 341 335 345 340 355 L376 425 C383 438 378 447 371 453 C359 461 331 472 297 472 C239 472 192 431 172 402 L163 447 C161 455 155 462 145 462 L107 462 C97 462 86 453 85 440 L26 22 Z M211 525 C218 519 225 520 232 525 L366 626 C373 631 378 639 371 649 L349 682 C344 689 340 692 329 685 L229 623 L151 685 C143 692 137 690 131 682 L102 645 C97 638 100 630 105 626 L211 525 Z " />
<glyph glyph-name="Sacute" unicode="&#x15a;" horiz-adv-x="511" d="M28 68 C59 39 124 -10 218 -10 C366 -10 457 88 457 205 C457 315 369 370 303 414 C243 454 216 474 216 514 C216 553 250 592 301 592 C352 592 383 573 414 548 C428 537 441 538 449 550 L488 605 C498 619 497 633 485 645 C468 662 400 710 307 710 C150 710 81 602 81 502 C81 402 159 345 225 302 C281 265 311 236 311 192 C311 142 267 107 222 107 C161 107 123 138 98 159 C90 166 76 169 67 155 L28 98 C17 83 22 74 28 68 L28 68 Z M265 768 L437 845 C446 849 452 860 446 872 L422 924 C417 935 407 935 398 929 L234 832 C226 828 223 821 226 813 L242 774 C246 765 251 762 265 768 L265 768 Z " />
<glyph glyph-name="sacute" unicode="&#x15b;" horiz-adv-x="385" d="M153 -11 C264 -11 327 57 327 137 C327 203 279 246 218 278 C177 300 163 314 163 332 C163 349 176 366 212 366 C242 366 274 353 297 343 C309 338 319 341 324 349 L351 401 C357 413 354 428 345 435 C326 450 274 472 216 472 C104 472 46 404 46 330 C46 265 84 231 141 197 C181 173 203 155 203 132 C203 108 183 97 154 97 C119 97 90 110 68 123 C59 129 45 126 40 117 L12 63 C7 53 5 43 14 36 C35 20 90 -11 153 -11 L153 -11 Z M187 528 L359 605 C368 609 374 620 368 632 L344 684 C339 695 329 695 320 689 L156 592 C148 588 145 581 148 573 L164 534 C168 525 173 522 187 528 L187 528 Z " />
<glyph glyph-name="Scircumflex" unicode="&#x15c;" horiz-adv-x="511" d="M28 68 C59 39 124 -10 218 -10 C366 -10 457 88 457 205 C457 315 369 370 303 414 C243 454 216 474 216 514 C216 553 250 592 301 592 C352 592 383 573 414 548 C428 537 441 538 449 550 L488 605 C498 619 497 633 485 645 C468 662 400 710 307 710 C150 710 81 602 81 502 C81 402 159 345 225 302 C281 265 311 236 311 192 C311 142 267 107 222 107 C161 107 123 138 98 159 C90 166 76 169 67 155 L28 98 C17 83 22 74 28 68 L28 68 Z M234 765 L334 827 L412 765 C420 758 426 760 432 768 L461 805 C466 812 463 820 458 824 L352 925 C345 931 338 930 331 925 L197 824 C190 819 185 811 192 801 L214 768 C219 761 223 758 234 765 L234 765 Z " />
<glyph glyph-name="scircumflex" unicode="&#x15d;" horiz-adv-x="385" d="M153 -11 C264 -11 327 57 327 137 C327 203 279 246 218 278 C177 300 163 314 163 332 C163 349 176 366 212 366 C242 366 274 353 297 343 C309 338 319 341 324 349 L351 401 C357 413 354 428 345 435 C326 450 274 472 216 472 C104 472 46 404 46 330 C46 265 84 231 141 197 C181 173 203 155 203 132 C203 108 183 97 154 97 C119 97 90 110 68 123 C59 129 45 126 40 117 L12 63 C7 53 5 43 14 36 C35 20 90 -11 153 -11 L153 -11 Z M124 529 C129 522 133 519 144 526 L244 588 L322 526 C330 519 336 521 342 529 L371 566 C376 573 373 581 368 585 L262 686 C255 692 248 691 241 686 L107 585 C100 580 95 572 102 562 L124 529 Z " />
<glyph glyph-name="Scedilla" unicode="&#x15e;" horiz-adv-x="511" d="M28 68 C42 52 98 4 180 -7 L127 -96 C121 -105 131 -118 142 -114 C151 -111 163 -103 181 -103 C206 -103 222 -114 222 -135 C222 -168 191 -180 169 -180 C150 -180 135 -170 129 -164 C119 -155 108 -159 100 -173 L88 -193 C81 -204 78 -213 85 -221 C99 -236 134 -246 173 -246 C244 -246 300 -201 300 -132 C300 -86 267 -59 226 -59 C219 -59 212 -60 205 -62 L246 -9 C377 2 457 95 457 205 C457 315 369 370 303 414 C243 454 216 474 216 514 C216 553 250 592 301 592 C352 592 398 561 414 548 C428 537 441 538 449 550 L488 605 C498 619 497 633 485 645 C468 662 400 710 307 710 C150 710 81 602 81 502 C81 402 159 345 225 302 C281 265 311 236 311 192 C311 142 267 107 222 107 C161 107 112 147 98 159 C90 166 76 169 67 155 L28 98 C17 83 22 74 28 68 L28 68 Z " />
<glyph glyph-name="scedilla" unicode="&#x15f;" horiz-adv-x="385" d="M327 137 C327 203 279 246 218 278 C177 300 163 314 163 332 C163 349 176 366 212 366 C242 366 274 353 297 343 C309 338 319 341 324 349 L351 401 C357 413 354 428 345 435 C326 450 274 472 216 472 C104 472 46 404 46 330 C46 265 84 231 141 197 C181 173 203 155 203 132 C203 108 183 97 150 97 C116 97 88 111 68 123 C59 129 45 126 40 117 L12 63 C7 53 5 43 14 36 C30 23 65 2 111 -7 L57 -96 C51 -105 61 -118 72 -114 C81 -111 93 -103 111 -103 C136 -103 152 -114 152 -135 C152 -168 121 -180 99 -180 C80 -180 65 -170 59 -164 C49 -155 38 -159 30 -173 L18 -193 C11 -204 8 -213 15 -221 C29 -236 64 -246 103 -246 C174 -246 230 -201 230 -132 C230 -86 197 -59 156 -59 C149 -59 142 -60 135 -62 L175 -10 C272 -1 327 62 327 137 L327 137 Z " />
<glyph glyph-name="Scaron" unicode="&#x160;" horiz-adv-x="511" d="M28 68 C59 39 124 -10 218 -10 C366 -10 457 88 457 205 C457 315 369 370 303 414 C243 454 216 474 216 514 C216 553 250 592 301 592 C352 592 383 573 414 548 C428 537 441 538 449 550 L488 605 C498 619 497 633 485 645 C468 662 400 710 307 710 C150 710 81 602 81 502 C81 402 159 345 225 302 C281 265 311 236 311 192 C311 142 267 107 222 107 C161 107 123 138 98 159 C90 166 76 169 67 155 L28 98 C17 83 22 74 28 68 L28 68 Z M315 764 C322 758 329 759 336 764 L470 865 C477 870 482 878 475 888 L453 921 C448 928 444 931 433 924 L333 862 L255 924 C247 931 241 929 235 921 L206 884 C201 877 204 869 209 865 L315 764 Z " />
<glyph glyph-name="scaron" unicode="&#x161;" horiz-adv-x="385" d="M153 -11 C264 -11 327 57 327 137 C327 203 279 246 218 278 C177 300 163 314 163 332 C163 349 176 366 212 366 C242 366 274 353 297 343 C309 338 319 341 324 349 L351 401 C357 413 354 428 345 435 C326 450 274 472 216 472 C104 472 46 404 46 330 C46 265 84 231 141 197 C181 173 203 155 203 132 C203 108 183 97 154 97 C119 97 90 110 68 123 C59 129 45 126 40 117 L12 63 C7 53 5 43 14 36 C35 20 90 -11 153 -11 L153 -11 Z M220 525 C227 519 234 520 241 525 L375 626 C382 631 387 639 380 649 L358 682 C353 689 349 692 338 685 L238 623 L160 685 C152 692 146 690 140 682 L111 645 C106 638 109 630 114 626 L220 525 Z " />
<glyph glyph-name="Tcommaaccent" unicode="&#x162;" horiz-adv-x="492" d="M142 19 C141 9 148 0 157 0 L169 0 L111 -96 C105 -105 115 -118 126 -114 C135 -111 147 -103 165 -103 C190 -103 206 -114 206 -135 C206 -168 175 -180 153 -180 C134 -180 119 -170 113 -164 C103 -155 92 -159 84 -173 L72 -193 C65 -204 62 -213 69 -221 C83 -236 118 -246 157 -246 C228 -246 284 -201 284 -132 C284 -86 251 -59 210 -59 C203 -59 196 -60 189 -62 L236 0 L254 0 C263 0 273 9 274 19 L353 580 L485 580 C495 580 504 589 505 599 L517 681 C518 691 512 700 502 700 L105 700 C96 700 87 691 86 681 L74 599 C73 589 79 580 89 580 L221 580 L142 19 Z " />
<glyph glyph-name="tcommaaccent" unicode="&#x163;" horiz-adv-x="368" d="M296 19 C308 26 315 35 313 46 L302 116 C300 127 291 133 279 128 C268 123 245 113 225 113 C213 113 198 118 203 148 L231 351 L320 351 C332 351 342 362 343 373 L351 440 C353 453 347 462 335 462 L247 462 L264 590 C266 602 260 612 249 612 L161 612 C151 612 141 602 138 590 L121 462 L70 462 C60 462 50 453 48 440 L40 373 C39 362 46 351 57 351 L106 351 L75 138 C63 61 89 10 138 -5 L83 -96 C77 -105 87 -118 98 -114 C107 -111 119 -103 137 -103 C162 -103 178 -114 178 -135 C178 -168 147 -180 125 -180 C106 -180 91 -170 85 -164 C75 -155 64 -159 56 -173 L44 -193 C37 -204 34 -213 41 -221 C55 -236 90 -246 129 -246 C200 -246 256 -201 256 -132 C256 -86 223 -59 182 -59 C175 -59 168 -60 161 -62 L201 -9 C249 -4 288 15 296 19 L296 19 Z " />
<glyph glyph-name="Tcaron" unicode="&#x164;" horiz-adv-x="492" d="M142 19 C141 9 148 0 157 0 L254 0 C263 0 273 9 274 19 L353 580 L485 580 C495 580 504 589 505 599 L517 681 C518 691 512 700 502 700 L105 700 C96 700 87 691 86 681 L74 599 C73 589 79 580 89 580 L221 580 L142 19 Z M303 764 C310 758 317 759 324 764 L458 865 C465 870 470 878 463 888 L441 921 C436 928 432 931 421 924 L321 862 L243 924 C235 931 229 929 223 921 L194 884 C189 877 192 869 197 865 L303 764 Z " />
<glyph glyph-name="tcaron" unicode="&#x165;" horiz-adv-x="366" d="M172 -11 C232 -11 285 14 294 19 C306 26 313 35 311 46 L300 116 C298 127 289 133 277 128 C266 123 243 113 223 113 C211 113 197 118 201 148 L229 351 L318 351 C330 351 340 362 341 373 L349 440 C351 453 345 462 333 462 L245 462 L262 590 C264 602 258 612 247 612 L159 612 C149 612 138 602 136 590 L119 462 L68 462 C58 462 48 453 46 440 L38 373 C37 362 44 351 55 351 L104 351 L73 138 C59 44 101 -11 172 -11 L172 -11 Z M334 630 C334 603 354 582 386 582 C401 582 415 588 421 592 C419 565 404 536 384 513 C377 505 376 499 383 492 L405 472 C411 466 419 468 425 474 C466 520 499 573 499 632 C499 686 467 710 422 710 C374 710 334 676 334 630 L334 630 Z " />
<glyph glyph-name="Tbar" unicode="&#x166;" horiz-adv-x="492" d="M143 19 C142 9 149 0 158 0 L255 0 C264 0 274 9 275 19 L313 291 L394 291 C404 291 413 299 414 309 L416 323 C417 333 411 342 401 342 L320 342 L354 580 L486 580 C496 580 505 589 506 599 L518 681 C519 691 513 700 503 700 L106 700 C97 700 88 691 87 681 L75 599 C74 589 80 580 90 580 L222 580 L188 342 L110 342 C101 342 94 333 92 323 L90 310 C88 300 94 291 103 291 L181 291 L143 19 Z " />
<glyph glyph-name="tbar" unicode="&#x167;" horiz-adv-x="366" d="M172 -11 C232 -11 285 14 294 19 C306 26 313 35 311 46 L300 116 C298 127 289 133 277 128 C266 123 243 113 223 113 C211 113 197 118 201 148 L208 201 L282 201 C292 201 301 210 302 220 L304 235 C305 246 300 255 289 255 L215 255 L229 351 L318 351 C330 351 340 362 341 373 L349 440 C351 453 345 462 333 462 L245 462 L262 591 C265 603 258 612 247 612 L159 612 C149 612 139 602 136 590 L119 462 L68 462 C58 462 48 453 46 440 L38 373 C37 362 44 351 55 351 L104 351 L90 255 L63 255 C54 255 46 248 44 237 L42 221 C41 211 47 201 56 201 L82 201 L73 138 C59 44 101 -11 172 -11 L172 -11 Z " />
<glyph glyph-name="Utilde" unicode="&#x168;" horiz-adv-x="662" d="M72 253 C70 239 69 226 69 213 C69 82 163 -10 297 -10 C453 -10 559 101 580 253 L641 681 C642 691 635 700 626 700 L527 700 C517 700 508 691 507 681 L447 259 C435 175 389 122 307 122 C239 122 205 162 205 228 C205 238 205 249 207 260 L267 681 C268 691 262 700 252 700 L153 700 C144 700 134 691 133 681 L72 253 Z M292 789 C300 782 312 785 316 793 C324 808 335 832 354 832 C380 832 403 776 450 776 C503 776 537 833 546 852 C553 866 555 877 544 885 L521 903 C510 911 497 905 491 893 C484 879 475 862 459 862 C427 862 410 917 365 917 C308 917 273 853 263 833 C259 826 257 818 265 810 L292 789 Z " />
<glyph glyph-name="utilde" unicode="&#x169;" horiz-adv-x="499" d="M176 -11 C258 -11 289 29 313 56 L321 17 C323 8 329 0 339 0 L377 0 C387 0 399 10 400 22 L458 440 C460 453 451 462 441 462 L357 462 C345 462 335 458 332 440 L294 169 C294 169 272 106 215 106 C176 106 162 130 171 191 L207 440 C209 453 201 462 190 462 L104 462 C93 462 84 453 82 440 L46 195 C29 78 50 -11 176 -11 L176 -11 Z M183 562 C191 555 203 558 207 566 C215 581 226 605 245 605 C271 605 294 549 341 549 C394 549 428 606 437 625 C444 639 446 650 435 658 L412 676 C401 684 388 678 382 666 C375 652 366 635 350 635 C318 635 301 690 256 690 C199 690 164 626 154 606 C150 599 148 591 156 583 L183 562 Z " />
<glyph glyph-name="Umacron" unicode="&#x16a;" horiz-adv-x="662" d="M72 253 C70 239 69 226 69 213 C69 82 163 -10 297 -10 C453 -10 559 101 580 253 L641 681 C642 691 635 700 626 700 L527 700 C517 700 508 691 507 681 L447 259 C435 175 389 122 307 122 C239 122 205 162 205 228 C205 238 205 249 207 260 L267 681 C268 691 262 700 252 700 L153 700 C144 700 134 691 133 681 L72 253 Z M286 808 L516 808 C526 808 535 816 536 826 L541 860 C543 871 537 879 527 879 L296 879 C286 879 278 871 276 860 L271 826 C270 816 276 808 286 808 L286 808 Z " />
<glyph glyph-name="umacron" unicode="&#x16b;" horiz-adv-x="499" d="M176 -11 C258 -11 289 29 313 56 L321 17 C323 8 329 0 339 0 L377 0 C387 0 399 10 400 22 L458 440 C460 453 451 462 441 462 L357 462 C345 462 335 458 332 440 L294 169 C294 169 272 106 215 106 C176 106 162 130 171 191 L207 440 C209 453 201 462 190 462 L104 462 C93 462 84 453 82 440 L46 195 C29 78 50 -11 176 -11 L176 -11 Z M170 570 L401 570 C411 570 419 578 420 588 L425 622 C427 633 420 641 411 641 L180 641 C170 641 161 633 160 622 L156 588 C155 578 160 570 170 570 L170 570 Z " />
<glyph glyph-name="Ubreve" unicode="&#x16c;" horiz-adv-x="662" d="M72 253 C70 239 69 226 69 213 C69 82 163 -10 297 -10 C453 -10 559 101 580 253 L641 681 C642 691 635 700 626 700 L527 700 C517 700 508 691 507 681 L447 259 C435 175 389 122 307 122 C239 122 205 162 205 228 C205 238 205 249 207 260 L267 681 C268 691 262 700 252 700 L153 700 C144 700 134 691 133 681 L72 253 Z M387 766 C458 766 512 817 531 884 C533 895 528 905 517 905 L476 905 C470 905 463 900 459 891 C448 863 423 838 395 838 C366 838 350 861 345 891 C344 898 342 905 334 905 L297 905 C285 905 277 895 277 884 C277 817 326 766 387 766 L387 766 Z " />
<glyph glyph-name="ubreve" unicode="&#x16d;" horiz-adv-x="499" d="M176 -11 C258 -11 289 29 313 56 L321 17 C323 8 329 0 339 0 L377 0 C387 0 399 10 400 22 L458 440 C460 453 451 462 441 462 L357 462 C345 462 335 458 332 440 L294 169 C294 169 272 106 215 106 C176 106 162 130 171 191 L207 440 C209 453 201 462 190 462 L104 462 C93 462 84 453 82 440 L46 195 C29 78 50 -11 176 -11 L176 -11 Z M283 528 C353 528 407 579 427 646 C429 658 424 668 413 668 L372 668 C365 668 357 662 354 654 C343 626 319 601 291 601 C261 601 245 623 241 654 C240 661 235 668 228 668 L192 668 C181 668 172 658 172 646 C172 579 220 528 283 528 L283 528 Z " />
<glyph glyph-name="Uring" unicode="&#x16e;" horiz-adv-x="662" d="M72 253 C70 239 69 226 69 213 C69 82 163 -10 297 -10 C453 -10 559 101 580 253 L641 681 C642 691 635 700 626 700 L527 700 C517 700 508 691 507 681 L447 259 C435 175 389 122 307 122 C239 122 205 162 205 228 C205 238 205 249 207 260 L267 681 C268 691 262 700 252 700 L153 700 C144 700 134 691 133 681 L72 253 Z M395 754 C460 754 514 811 514 882 C514 936 477 980 426 980 C359 980 306 923 306 852 C306 798 343 754 395 754 L395 754 Z M403 817 C384 817 369 838 369 861 C369 890 393 915 417 915 C437 915 451 896 451 873 C451 844 427 817 403 817 L403 817 Z " />
<glyph glyph-name="uring" unicode="&#x16f;" horiz-adv-x="499" d="M176 -11 C258 -11 289 29 313 56 L321 17 C323 8 329 0 339 0 L377 0 C387 0 399 10 400 22 L458 440 C460 453 451 462 441 462 L357 462 C345 462 335 458 332 440 L294 169 C294 169 272 106 215 106 C176 106 162 130 171 191 L207 440 C209 453 201 462 190 462 L104 462 C93 462 84 453 82 440 L46 195 C29 78 50 -11 176 -11 L176 -11 Z M280 510 C345 510 399 567 399 638 C399 692 362 736 311 736 C244 736 191 679 191 608 C191 554 228 510 280 510 L280 510 Z M288 573 C269 573 254 594 254 617 C254 646 278 671 302 671 C322 671 336 652 336 629 C336 600 312 573 288 573 L288 573 Z " />
<glyph glyph-name="Uhungarumlaut" unicode="&#x170;" horiz-adv-x="662" d="M72 253 C70 239 69 226 69 213 C69 82 163 -10 297 -10 C453 -10 559 101 580 253 L641 681 C642 691 635 700 626 700 L527 700 C517 700 508 691 507 681 L447 259 C435 175 389 122 307 122 C239 122 205 162 205 228 C205 238 205 249 207 260 L267 681 C268 691 262 700 252 700 L153 700 C144 700 134 691 133 681 L72 253 Z M451 768 L485 768 C496 768 502 775 507 783 L596 922 C605 935 601 947 584 947 L509 947 C497 947 490 939 486 928 L437 787 C433 777 442 768 451 768 L451 768 Z M302 768 L336 768 C347 768 353 775 358 783 L447 922 C456 935 452 947 435 947 L360 947 C348 947 341 939 337 928 L288 787 C284 777 293 768 302 768 L302 768 Z " />
<glyph glyph-name="uhungarumlaut" unicode="&#x171;" horiz-adv-x="499" d="M176 -11 C258 -11 289 29 313 56 L321 17 C323 8 329 0 339 0 L377 0 C387 0 399 10 400 22 L458 440 C460 453 451 462 441 462 L357 462 C345 462 335 458 332 440 L294 169 C294 169 272 106 215 106 C176 106 162 130 171 191 L207 440 C209 453 201 462 190 462 L104 462 C93 462 84 453 82 440 L46 195 C29 78 50 -11 176 -11 L176 -11 Z M340 521 L374 521 C385 521 391 528 396 536 L485 675 C494 688 490 700 473 700 L398 700 C386 700 379 692 375 681 L326 540 C322 530 331 521 340 521 L340 521 Z M191 521 L225 521 C236 521 242 528 247 536 L336 675 C345 688 341 700 324 700 L249 700 C237 700 230 692 226 681 L177 540 C173 530 182 521 191 521 L191 521 Z " />
<glyph glyph-name="Uogonek" unicode="&#x172;" horiz-adv-x="662" d="M73 265 C53 123 136 7 259 -8 C204 -48 161 -94 161 -158 C161 -211 196 -247 261 -247 C293 -247 328 -238 345 -227 C358 -218 363 -208 364 -196 L370 -144 C371 -133 361 -129 351 -137 C342 -144 313 -165 286 -165 C265 -165 252 -155 252 -132 C252 -73 322 -25 366 1 C482 34 563 139 581 265 L640 681 C641 691 634 700 625 700 L526 700 C516 700 507 691 506 681 L448 271 C436 187 377 122 306 122 C236 122 196 187 208 272 L266 681 C267 691 261 700 251 700 L152 700 C143 700 133 691 132 681 L73 265 Z " />
<glyph glyph-name="uogonek" unicode="&#x173;" horiz-adv-x="498" d="M176 -11 C258 -11 289 29 313 56 L321 17 C257 -26 176 -88 176 -158 C176 -211 211 -247 276 -247 C308 -247 343 -238 360 -227 C373 -218 378 -208 379 -196 L385 -144 C386 -133 376 -129 366 -137 C357 -144 328 -165 301 -165 C280 -165 267 -155 267 -132 C267 -74 335 -26 379 0 C391 7 399 14 401 29 L458 440 C460 453 451 462 441 462 L357 462 C345 462 335 458 332 440 L294 169 C294 169 272 106 215 106 C176 106 164 144 173 205 L207 440 C209 453 201 462 190 462 L104 462 C93 462 84 453 82 440 L48 209 C31 92 50 -11 176 -11 L176 -11 Z " />
<glyph glyph-name="Wcircumflex" unicode="&#x174;" horiz-adv-x="815" d="M157 4 C158 -4 164 -10 172 -10 L186 -10 C195 -10 200 -5 203 1 L425 434 L429 434 L531 1 C532 -5 537 -10 545 -10 L560 -10 C567 -10 575 -4 578 4 L842 676 C848 690 842 700 829 700 L734 700 C727 700 719 693 716 686 L574 307 L570 307 L489 699 C488 705 483 710 475 710 L459 710 C451 710 445 705 442 699 L240 307 L236 307 L202 686 C201 693 195 700 188 700 L101 700 C89 700 80 690 82 676 L157 4 Z M382 765 L482 827 L560 765 C568 758 574 760 580 768 L609 805 C614 812 611 820 606 824 L500 925 C493 931 486 930 479 925 L345 824 C338 819 333 811 340 801 L362 768 C367 761 371 758 382 765 L382 765 Z " />
<glyph glyph-name="wcircumflex" unicode="&#x175;" horiz-adv-x="657" d="M116 2 C117 -5 123 -11 132 -11 L136 -11 C145 -11 152 -6 155 0 L326 270 C326 270 327 270 327 270 L420 0 C422 -6 427 -11 434 -11 L440 -11 C450 -11 456 -5 460 2 L651 436 C658 450 654 462 638 462 L562 462 C551 462 541 461 536 448 L446 243 C446 243 445 243 445 243 L373 463 C370 469 365 474 358 474 L348 474 C338 474 335 470 330 463 L194 243 C194 243 193 243 193 243 L162 448 C161 457 152 462 146 462 L67 462 C53 462 45 453 47 438 L116 2 Z M254 529 C259 522 263 519 274 526 L374 588 L452 526 C460 519 466 521 472 529 L501 566 C506 573 503 581 498 585 L392 686 C385 692 378 691 371 686 L237 585 C230 580 225 572 232 562 L254 529 Z " />
<glyph glyph-name="Ycircumflex" unicode="&#x176;" horiz-adv-x="555" d="M295 458 L191 686 C187 696 183 700 172 700 L78 700 C64 700 55 689 61 676 L217 337 L172 19 C171 9 176 0 186 0 L283 0 C292 0 302 9 303 19 L347 338 L599 674 C608 687 605 700 590 700 L480 700 C472 700 467 695 464 691 L297 458 L295 458 Z M245 765 L345 827 L423 765 C431 758 437 760 443 768 L472 805 C477 812 474 820 469 824 L363 925 C356 931 349 930 342 925 L208 824 C201 819 196 811 203 801 L225 768 C230 761 234 758 245 765 L245 765 Z " />
<glyph glyph-name="ycircumflex" unicode="&#x177;" horiz-adv-x="472" d="M132 33 L3 -210 C-6 -227 -1 -238 13 -238 L108 -238 C118 -238 125 -230 128 -224 L472 432 C480 447 475 462 459 462 L368 462 C359 462 350 460 345 449 L215 167 C215 167 212 167 212 167 L167 449 C166 457 156 462 150 462 L61 462 C44 462 40 447 43 432 L132 33 Z M165 529 C170 522 174 519 185 526 L285 588 L363 526 C371 519 377 521 383 529 L412 566 C417 573 414 581 409 585 L303 686 C296 692 289 691 282 686 L148 585 C141 580 136 572 143 562 L165 529 Z " />
<glyph glyph-name="Ydieresis" unicode="&#x178;" horiz-adv-x="555" d="M295 458 L191 686 C187 696 183 700 172 700 L78 700 C64 700 55 689 61 676 L217 337 L172 19 C171 9 176 0 186 0 L283 0 C292 0 302 9 303 19 L347 338 L599 674 C608 687 605 700 590 700 L480 700 C472 700 467 695 464 691 L297 458 L295 458 Z M450 766 C484 766 520 798 525 839 C529 880 504 911 467 911 C432 911 397 880 393 839 C388 798 412 766 450 766 L450 766 Z M227 766 C262 766 298 798 303 839 C307 880 282 911 244 911 C210 911 175 880 171 839 C166 798 190 766 227 766 L227 766 Z " />
<glyph glyph-name="Zacute" unicode="&#x179;" horiz-adv-x="501" d="M6 0 L394 0 C404 0 413 9 414 19 L425 102 C426 112 421 121 411 121 L197 121 L197 124 L518 660 C523 668 525 678 525 685 C525 696 519 700 510 700 L131 700 C122 700 112 691 111 681 L99 598 C98 588 105 579 114 579 L326 579 L326 576 L2 50 C-6 37 -8 30 -8 16 C-8 6 -3 0 6 0 L6 0 Z M262 768 L434 845 C443 849 449 860 443 872 L419 924 C414 935 404 935 395 929 L231 832 C223 828 220 821 223 813 L239 774 C243 765 248 762 262 768 L262 768 Z " />
<glyph glyph-name="zacute" unicode="&#x17a;" horiz-adv-x="388" d="M13 0 L279 0 C291 0 301 10 302 22 L313 91 C314 103 309 113 297 113 L178 113 L178 116 L379 430 C382 435 383 440 383 444 C383 455 376 462 364 462 L86 462 C76 462 66 453 65 440 L55 370 C53 359 59 348 69 348 L194 348 L194 345 L4 44 C-2 34 -5 28 -5 18 C-5 10 0 0 13 0 L13 0 Z M201 528 L373 605 C382 609 388 620 382 632 L358 684 C353 695 343 695 334 689 L170 592 C162 588 159 581 162 573 L178 534 C182 525 187 522 201 528 L201 528 Z " />
<glyph glyph-name="Zdotaccent" unicode="&#x17b;" horiz-adv-x="501" d="M6 0 L394 0 C404 0 413 9 414 19 L425 102 C426 112 421 121 411 121 L197 121 L197 124 L518 660 C523 668 525 678 525 685 C525 696 519 700 510 700 L131 700 C122 700 112 691 111 681 L99 598 C98 588 105 579 114 579 L326 579 L326 576 L2 50 C-6 37 -8 30 -8 16 C-8 6 -3 0 6 0 L6 0 Z M332 772 C379 772 422 813 422 861 C422 900 394 931 354 931 C306 931 264 891 264 841 C264 803 292 772 332 772 L332 772 Z " />
<glyph glyph-name="zdotaccent" unicode="&#x17c;" horiz-adv-x="388" d="M13 0 L279 0 C291 0 301 10 302 22 L313 91 C314 103 309 113 297 113 L178 113 L178 116 L379 430 C382 435 383 440 383 444 C383 455 376 462 364 462 L86 462 C76 462 66 453 65 440 L55 370 C53 359 59 348 69 348 L194 348 L194 345 L4 44 C-2 34 -5 28 -5 18 C-5 10 0 0 13 0 L13 0 Z M232 541 C279 541 322 582 322 630 C322 669 294 700 254 700 C206 700 164 660 164 610 C164 572 192 541 232 541 L232 541 Z " />
<glyph glyph-name="Zcaron" unicode="&#x17d;" horiz-adv-x="501" d="M6 0 L394 0 C404 0 413 9 414 19 L425 102 C426 112 421 121 411 121 L197 121 L197 124 L518 660 C523 668 525 678 525 685 C525 696 519 700 510 700 L131 700 C122 700 112 691 111 681 L99 598 C98 588 105 579 114 579 L326 579 L326 576 L2 50 C-6 37 -8 30 -8 16 C-8 6 -3 0 6 0 L6 0 Z M319 764 C326 758 333 759 340 764 L474 865 C481 870 486 878 479 888 L457 921 C452 928 448 931 437 924 L337 862 L259 924 C251 931 245 929 239 921 L210 884 C205 877 208 869 213 865 L319 764 Z " />
<glyph glyph-name="zcaron" unicode="&#x17e;" horiz-adv-x="388" d="M13 0 L279 0 C291 0 301 10 302 22 L313 91 C314 103 309 113 297 113 L178 113 L178 116 L379 430 C382 435 383 440 383 444 C383 455 376 462 364 462 L86 462 C76 462 66 453 65 440 L55 370 C53 359 59 348 69 348 L194 348 L194 345 L4 44 C-2 34 -5 28 -5 18 C-5 10 0 0 13 0 L13 0 Z M216 525 C223 519 230 520 237 525 L371 626 C378 631 383 639 376 649 L354 682 C349 689 345 692 334 685 L234 623 L156 685 C148 692 142 690 136 682 L107 645 C102 638 105 630 110 626 L216 525 Z " />
<glyph glyph-name="florin" unicode="&#x192;" horiz-adv-x="366" d="M67 -48 C59 -110 25 -136 -5 -136 C-26 -136 -44 -127 -52 -121 C-59 -116 -68 -118 -73 -126 L-114 -186 C-119 -194 -119 -204 -114 -210 C-101 -224 -65 -249 -13 -249 C97 -249 175 -179 193 -49 L240 296 L326 296 C336 296 344 305 346 315 L355 381 C357 392 350 400 341 400 L255 400 L270 508 C279 570 312 597 341 597 C362 597 376 591 386 584 C393 579 402 581 408 589 L451 647 C456 654 456 665 450 671 C438 682 402 710 350 710 C230 710 162 639 143 509 L128 400 L57 400 C47 400 39 392 38 381 L28 315 C27 305 33 296 43 296 L113 296 L67 -48 Z " />
<glyph glyph-name="Aringacute" unicode="&#x1fa;" horiz-adv-x="620" d="M311 892 C315 883 320 880 334 886 L506 963 C515 967 521 978 515 990 L491 1042 C486 1053 476 1053 467 1047 L303 950 C295 946 292 939 295 931 L311 892 Z M-14 0 L78 0 C94 0 105 10 110 20 L168 131 L417 131 L442 20 C445 5 453 0 468 0 L555 0 C569 0 578 13 574 26 L401 657 C450 673 486 722 486 780 C486 834 449 878 398 878 C331 878 278 821 278 750 C278 710 297 676 328 661 L-26 26 C-33 13 -28 0 -14 0 L-14 0 Z M375 715 C356 715 341 736 341 759 C341 788 365 813 389 813 C409 813 423 794 423 771 C423 742 399 715 375 715 L375 715 Z M227 239 L336 457 L338 457 L385 239 L227 239 Z " />
<glyph glyph-name="aringacute" unicode="&#x1fb;" horiz-adv-x="533" d="M296 510 C361 510 415 567 415 638 C415 692 378 736 327 736 C260 736 207 679 207 608 C207 554 244 510 296 510 L296 510 Z M304 573 C285 573 270 594 270 617 C270 646 294 671 318 671 C338 671 352 652 352 629 C352 600 328 573 304 573 L304 573 Z M267 749 L439 826 C448 830 454 841 448 853 L424 905 C419 916 409 916 400 910 L236 813 C228 809 225 802 228 794 L244 755 C248 746 253 743 267 749 L267 749 Z M330 181 C322 158 280 106 232 106 C178 106 154 153 154 204 C154 294 203 356 264 356 C313 356 341 316 345 292 L330 181 Z M491 440 C494 453 485 462 475 462 L434 462 C424 462 419 455 415 447 L394 411 C377 432 329 472 264 472 C129 472 29 350 29 201 C29 83 98 -11 205 -11 C274 -11 327 38 344 55 L352 20 C355 3 363 0 370 0 L411 0 C421 0 433 10 434 22 L491 440 Z " />
<glyph glyph-name="AEacute" unicode="&#x1fc;" horiz-adv-x="822" d="M-31 0 L72 0 C84 0 92 5 99 15 L173 128 L348 128 L332 19 C331 9 337 0 347 0 L717 0 C727 0 736 9 737 19 L748 101 C749 111 744 120 734 120 L476 120 L501 295 L714 295 C723 295 732 303 734 314 L746 397 C747 407 740 416 731 416 L518 416 L541 580 L799 580 C809 580 817 589 818 599 L830 681 C831 691 825 700 816 700 L457 700 C434 700 428 689 413 669 L-38 26 C-47 13 -45 0 -31 0 L-31 0 Z M253 239 L394 461 L363 239 L253 239 Z M600 769 L772 846 C781 850 787 861 781 873 L757 925 C752 936 742 936 733 930 L569 833 C561 829 558 822 561 814 L577 775 C581 766 586 763 600 769 L600 769 Z " />
<glyph glyph-name="aeacute" unicode="&#x1fd;" horiz-adv-x="706" d="M13 122 C13 40 68 -11 144 -11 C240 -11 289 38 306 64 L307 64 C339 17 386 -11 449 -11 C517 -11 572 14 613 51 C622 60 622 72 617 81 L578 133 C571 143 561 140 550 133 C532 120 496 101 468 101 C412 101 387 140 391 187 C527 187 683 226 683 344 C683 415 621 472 530 472 C472 472 406 451 374 415 C355 445 321 472 257 472 C197 472 115 451 115 451 C104 448 94 439 94 427 L96 365 C96 354 107 346 117 347 C144 354 195 365 228 365 C272 365 279 342 273 282 C273 282 240 292 200 292 C88 292 13 220 13 122 L13 122 Z M134 140 C134 184 173 211 205 211 C229 211 258 205 263 204 C260 153 249 88 185 88 C159 88 134 108 134 140 L134 140 Z M403 272 C415 315 464 366 511 366 C546 366 559 347 559 330 C559 293 489 272 403 272 L403 272 Z M397 528 L569 605 C578 609 584 620 578 632 L554 684 C549 695 539 695 530 689 L366 592 C358 588 355 581 358 573 L374 534 C378 525 383 522 397 528 L397 528 Z " />
<glyph glyph-name="Oslashacute" unicode="&#x1fe;" horiz-adv-x="743" d="M29 23 L38 13 C44 7 54 5 61 12 L133 81 C183 25 253 -10 334 -10 C545 -10 708 172 708 397 C708 465 688 529 655 581 L730 653 C738 661 740 672 734 679 L725 689 C719 695 709 696 702 689 L628 618 C578 674 507 710 427 710 C214 710 53 526 53 300 C53 233 72 170 105 119 L32 49 C23 40 23 29 29 23 L29 23 Z M208 218 C195 247 188 281 188 317 C188 459 297 580 412 580 C459 580 499 557 527 522 L208 218 Z M233 177 L552 482 C565 452 573 417 573 381 C573 238 464 120 348 120 C301 120 261 142 233 177 L233 177 Z M376 768 L548 845 C557 849 563 860 557 872 L533 924 C528 935 518 935 509 929 L345 832 C337 828 334 821 337 813 L353 774 C357 765 362 762 376 768 L376 768 Z " />
<glyph glyph-name="oslashacute" unicode="&#x1ff;" horiz-adv-x="506" d="M28 199 C28 159 38 120 56 87 L26 58 C17 49 15 35 22 27 L32 16 C40 9 51 7 59 15 L88 43 C120 10 162 -11 212 -11 C347 -11 464 114 464 264 C464 305 453 344 435 376 L468 408 C477 418 479 430 472 439 L462 450 C455 458 445 459 435 450 L403 419 C371 452 328 472 280 472 C141 472 28 348 28 199 L28 199 Z M149 212 C149 292 198 356 264 356 C285 356 302 348 314 334 L152 179 C150 189 149 200 149 212 L149 212 Z M229 106 C206 106 189 114 176 128 L338 283 C340 274 341 263 341 253 C341 171 291 106 229 106 L229 106 Z M240 528 L412 605 C421 609 427 620 421 632 L397 684 C392 695 382 695 373 689 L209 592 C201 588 198 581 201 573 L217 534 C221 525 226 522 240 528 L240 528 Z " />
<glyph glyph-name="Scommaaccent" unicode="&#x218;" horiz-adv-x="511" d="M28 68 C59 39 124 -10 218 -10 C366 -10 457 88 457 205 C457 315 369 370 303 414 C243 454 216 474 216 514 C216 553 250 592 301 592 C352 592 383 573 414 548 C428 537 441 538 449 550 L488 605 C498 619 497 633 485 645 C468 662 400 710 307 710 C150 710 81 602 81 502 C81 402 159 345 225 302 C281 265 311 236 311 192 C311 142 267 107 222 107 C161 107 123 138 98 159 C90 166 76 169 67 155 L28 98 C17 83 22 74 28 68 L28 68 Z M112 -144 C112 -171 132 -192 164 -192 C179 -192 193 -186 199 -182 C197 -209 182 -238 162 -261 C155 -269 154 -275 161 -282 L183 -302 C189 -308 197 -306 203 -300 C244 -254 277 -201 277 -142 C277 -88 245 -64 200 -64 C152 -64 112 -98 112 -144 L112 -144 Z " />
<glyph glyph-name="scommaaccent" unicode="&#x219;" horiz-adv-x="385" d="M153 -11 C264 -11 327 57 327 137 C327 203 279 246 218 278 C177 300 163 314 163 332 C163 349 176 366 212 366 C242 366 274 353 297 343 C309 338 319 341 324 349 L351 401 C357 413 354 428 345 435 C326 450 274 472 216 472 C104 472 46 404 46 330 C46 265 84 231 141 197 C181 173 203 155 203 132 C203 108 183 97 154 97 C119 97 90 110 68 123 C59 129 45 126 40 117 L12 63 C7 53 5 43 14 36 C35 20 90 -11 153 -11 L153 -11 Z M48 -144 C48 -171 68 -192 100 -192 C115 -192 129 -186 135 -182 C133 -209 118 -238 98 -261 C91 -269 90 -275 97 -282 L119 -302 C125 -308 133 -306 139 -300 C180 -254 213 -201 213 -142 C213 -88 181 -64 136 -64 C88 -64 48 -98 48 -144 L48 -144 Z " />
<glyph glyph-name="uni021A" unicode="&#x21a;" horiz-adv-x="492" d="M142 19 C141 9 148 0 157 0 L254 0 C263 0 273 9 274 19 L353 580 L485 580 C495 580 504 589 505 599 L517 681 C518 691 512 700 502 700 L105 700 C96 700 87 691 86 681 L74 599 C73 589 79 580 89 580 L221 580 L142 19 Z M102 -144 C102 -171 122 -192 154 -192 C169 -192 183 -186 189 -182 C187 -209 172 -238 152 -261 C145 -269 144 -275 151 -282 L173 -302 C179 -308 187 -306 193 -300 C234 -254 267 -201 267 -142 C267 -88 235 -64 190 -64 C142 -64 102 -98 102 -144 L102 -144 Z " />
<glyph glyph-name="uni021B" unicode="&#x21b;" horiz-adv-x="366" d="M172 -11 C232 -11 285 14 294 19 C306 26 313 35 311 46 L300 116 C298 127 289 133 277 128 C266 123 243 113 223 113 C211 113 197 118 201 148 L229 351 L318 351 C330 351 340 362 341 373 L349 440 C351 453 345 462 333 462 L245 462 L262 590 C264 602 258 612 247 612 L159 612 C149 612 138 602 136 590 L119 462 L68 462 C58 462 48 453 46 440 L38 373 C37 362 44 351 55 351 L104 351 L73 138 C59 44 101 -11 172 -11 L172 -11 Z M65 -144 C65 -171 85 -192 117 -192 C132 -192 146 -186 152 -182 C150 -209 135 -238 115 -261 C108 -269 107 -275 114 -282 L136 -302 C142 -308 150 -306 156 -300 C197 -254 230 -201 230 -142 C230 -88 198 -64 153 -64 C105 -64 65 -98 65 -144 L65 -144 Z " />
<glyph glyph-name="dotlessj" unicode="&#x237;" horiz-adv-x="252" d="M210 440 C212 453 202 462 191 462 L110 462 C99 462 87 453 85 440 L18 -36 C9 -98 -36 -118 -71 -136 C-89 -145 -93 -158 -89 -176 L-68 -235 C-63 -253 -42 -252 -25 -245 C55 -212 127 -156 146 -19 L210 440 Z " />
<glyph glyph-name="circumflex" unicode="&#x2c6;" horiz-adv-x="336" d="M75 529 C80 522 84 519 95 526 L195 588 L273 526 C281 519 287 521 293 529 L322 566 C327 573 324 581 319 585 L213 686 C206 692 199 691 192 686 L58 585 C51 580 46 572 53 562 L75 529 Z " />
<glyph glyph-name="caron" unicode="&#x2c7;" horiz-adv-x="336" d="M171 525 C178 519 185 520 192 525 L326 626 C333 631 338 639 331 649 L309 682 C304 689 300 692 289 685 L189 623 L111 685 C103 692 97 690 91 682 L62 645 C57 638 60 630 65 626 L171 525 Z " />
<glyph glyph-name="uni02C9" unicode="&#x2c9;" horiz-adv-x="373" d="M91 570 L322 570 C332 570 340 578 341 588 L346 622 C348 633 341 641 332 641 L101 641 C91 641 82 633 81 622 L77 588 C76 578 81 570 91 570 L91 570 Z " />
<glyph glyph-name="breve" unicode="&#x2d8;" horiz-adv-x="311" d="M170 528 C240 528 294 579 314 646 C316 658 311 668 300 668 L259 668 C252 668 244 662 241 654 C230 626 206 601 178 601 C148 601 132 623 128 654 C127 661 122 668 115 668 L79 668 C68 668 59 658 59 646 C59 579 107 528 170 528 L170 528 Z " />
<glyph glyph-name="dotaccent" unicode="&#x2d9;" horiz-adv-x="197" d="M112 528 C159 528 202 569 202 617 C202 656 174 687 134 687 C86 687 44 647 44 597 C44 559 72 528 112 528 L112 528 Z " />
<glyph glyph-name="ring" unicode="&#x2da;" horiz-adv-x="261" d="M139 484 C204 484 258 541 258 612 C258 666 221 710 170 710 C103 710 50 653 50 582 C50 528 87 484 139 484 L139 484 Z M147 547 C128 547 113 568 113 591 C113 620 137 645 161 645 C181 645 195 626 195 603 C195 574 171 547 147 547 L147 547 Z " />
<glyph glyph-name="ogonek" unicode="&#x2db;" horiz-adv-x="276" d="M227 3 L136 5 C72 -38 18 -87 18 -158 C18 -211 53 -247 118 -247 C150 -247 185 -238 202 -227 C215 -218 220 -208 221 -196 L227 -144 C228 -133 218 -129 208 -137 C199 -144 170 -165 143 -165 C122 -165 109 -155 109 -132 C109 -72 183 -23 227 3 L227 3 Z " />
<glyph glyph-name="tilde" unicode="&#x2dc;" horiz-adv-x="342" d="M84 562 C92 555 104 558 108 566 C116 581 127 605 146 605 C172 605 195 549 242 549 C295 549 329 606 338 625 C345 639 347 650 336 658 L313 676 C302 684 289 678 283 666 C276 652 267 635 251 635 C219 635 202 690 157 690 C100 690 65 626 55 606 C51 599 49 591 57 583 L84 562 Z " />
<glyph glyph-name="hungarumlaut" unicode="&#x2dd;" horiz-adv-x="353" d="M210 521 L244 521 C255 521 261 528 266 536 L355 675 C364 688 360 700 343 700 L268 700 C256 700 249 692 245 681 L196 540 C192 530 201 521 210 521 L210 521 Z M61 521 L95 521 C106 521 112 528 117 536 L206 675 C215 688 211 700 194 700 L119 700 C107 700 100 692 96 681 L47 540 C43 530 52 521 61 521 L61 521 Z " />
<glyph glyph-name="uni0394" unicode="&#x394;" horiz-adv-x="652" d="M20 0 L560 0 C583 0 589 21 583 41 L405 700 C403 706 397 710 391 710 L383 710 C378 710 371 706 368 700 L3 43 C-13 14 -3 0 20 0 L20 0 Z M179 119 L352 449 L353 449 L433 119 L179 119 Z " />
<glyph glyph-name="uni03A9" unicode="&#x3a9;" horiz-adv-x="765" d="M36 0 L283 0 C293 0 300 8 301 18 L309 72 C312 91 309 100 292 110 C225 150 193 226 193 307 C193 448 295 579 422 579 C522 579 585 494 585 386 C585 282 524 164 419 110 C403 102 397 97 393 72 L385 18 C383 7 389 0 398 0 L646 0 C655 0 663 8 664 18 L677 106 C678 115 672 124 663 124 L587 124 C667 178 719 309 719 412 C719 584 597 710 440 710 C241 710 64 533 64 313 C64 237 92 160 135 124 L53 124 C44 124 36 115 35 106 L22 18 C21 8 26 0 36 0 L36 0 Z " />
<glyph glyph-name="uni03BC" unicode="&#x3bc;" horiz-adv-x="519" d="M9 -216 C8 -228 15 -238 26 -238 L112 -238 C122 -238 134 -228 135 -216 L164 -8 C174 -10 185 -11 197 -11 C279 -11 310 29 334 56 L342 17 C344 8 350 0 360 0 L398 0 C408 0 420 10 421 22 L479 440 C481 453 472 462 462 462 L378 462 C366 462 356 458 353 440 L315 169 C315 169 293 106 236 106 C201 106 185 137 192 188 L228 440 C230 453 222 462 211 462 L125 462 C114 462 105 453 103 440 L9 -216 Z " />
<glyph glyph-name="pi" unicode="&#x3c0;" horiz-adv-x="627" d="M78 21 C77 9 82 0 93 0 L183 0 C191 0 203 9 204 21 L251 356 L392 356 L345 21 C344 9 351 0 360 0 L448 0 C459 0 470 9 471 21 L518 356 L597 356 C608 356 617 366 618 377 L628 442 C630 454 622 462 613 462 L68 462 C57 462 45 453 44 441 L35 377 C34 367 42 356 53 356 L125 356 L78 21 Z " />
<glyph glyph-name="Wgrave" unicode="&#x1e80;" horiz-adv-x="815" d="M157 4 C158 -4 164 -10 172 -10 L186 -10 C195 -10 200 -5 203 1 L425 434 L429 434 L531 1 C532 -5 537 -10 545 -10 L560 -10 C567 -10 575 -4 578 4 L842 676 C848 690 842 700 829 700 L734 700 C727 700 719 693 716 686 L574 307 L570 307 L489 699 C488 705 483 710 475 710 L459 710 C451 710 445 705 442 699 L240 307 L236 307 L202 686 C201 693 195 700 188 700 L101 700 C89 700 80 690 82 676 L157 4 Z M540 769 C551 763 558 766 564 775 L584 808 C589 816 586 824 581 827 L444 924 C439 928 426 930 417 916 L388 873 C379 860 383 850 390 846 L540 769 Z " />
<glyph glyph-name="wgrave" unicode="&#x1e81;" horiz-adv-x="657" d="M116 2 C117 -5 123 -11 132 -11 L136 -11 C145 -11 152 -6 155 0 L326 270 C326 270 327 270 327 270 L420 0 C422 -6 427 -11 434 -11 L440 -11 C450 -11 456 -5 460 2 L651 436 C658 450 654 462 638 462 L562 462 C551 462 541 461 536 448 L446 243 C446 243 445 243 445 243 L373 463 C370 469 365 474 358 474 L348 474 C338 474 335 470 330 463 L194 243 C194 243 193 243 193 243 L162 448 C161 457 152 462 146 462 L67 462 C53 462 45 453 47 438 L116 2 Z M416 531 C427 525 434 528 440 537 L460 570 C465 578 462 586 457 589 L320 686 C315 690 302 692 293 678 L264 635 C255 622 259 612 266 608 L416 531 Z " />
<glyph glyph-name="Wacute" unicode="&#x1e82;" horiz-adv-x="815" d="M157 4 C158 -4 164 -10 172 -10 L186 -10 C195 -10 200 -5 203 1 L425 434 L429 434 L531 1 C532 -5 537 -10 545 -10 L560 -10 C567 -10 575 -4 578 4 L842 676 C848 690 842 700 829 700 L734 700 C727 700 719 693 716 686 L574 307 L570 307 L489 699 C488 705 483 710 475 710 L459 710 C451 710 445 705 442 699 L240 307 L236 307 L202 686 C201 693 195 700 188 700 L101 700 C89 700 80 690 82 676 L157 4 Z M412 768 L584 845 C593 849 599 860 593 872 L569 924 C564 935 554 935 545 929 L381 832 C373 828 370 821 373 813 L389 774 C393 765 398 762 412 768 L412 768 Z " />
<glyph glyph-name="wacute" unicode="&#x1e83;" horiz-adv-x="657" d="M116 2 C117 -5 123 -11 132 -11 L136 -11 C145 -11 152 -6 155 0 L326 270 C326 270 327 270 327 270 L420 0 C422 -6 427 -11 434 -11 L440 -11 C450 -11 456 -5 460 2 L651 436 C658 450 654 462 638 462 L562 462 C551 462 541 461 536 448 L446 243 C446 243 445 243 445 243 L373 463 C370 469 365 474 358 474 L348 474 C338 474 335 470 330 463 L194 243 C194 243 193 243 193 243 L162 448 C161 457 152 462 146 462 L67 462 C53 462 45 453 47 438 L116 2 Z M309 528 L481 605 C490 609 496 620 490 632 L466 684 C461 695 451 695 442 689 L278 592 C270 588 267 581 270 573 L286 534 C290 525 295 522 309 528 L309 528 Z " />
<glyph glyph-name="Wdieresis" unicode="&#x1e84;" horiz-adv-x="815" d="M157 4 C158 -4 164 -10 172 -10 L186 -10 C195 -10 200 -5 203 1 L425 434 L429 434 L531 1 C532 -5 537 -10 545 -10 L560 -10 C567 -10 575 -4 578 4 L842 676 C848 690 842 700 829 700 L734 700 C727 700 719 693 716 686 L574 307 L570 307 L489 699 C488 705 483 710 475 710 L459 710 C451 710 445 705 442 699 L240 307 L236 307 L202 686 C201 693 195 700 188 700 L101 700 C89 700 80 690 82 676 L157 4 Z M586 766 C620 766 656 798 661 839 C665 880 640 911 603 911 C568 911 533 880 529 839 C524 798 548 766 586 766 L586 766 Z M363 766 C398 766 434 798 439 839 C443 880 418 911 380 911 C346 911 311 880 307 839 C302 798 326 766 363 766 L363 766 Z " />
<glyph glyph-name="wdieresis" unicode="&#x1e85;" horiz-adv-x="657" d="M116 2 C117 -5 123 -11 132 -11 L136 -11 C145 -11 152 -6 155 0 L326 270 C326 270 327 270 327 270 L420 0 C422 -6 427 -11 434 -11 L440 -11 C450 -11 456 -5 460 2 L651 436 C658 450 654 462 638 462 L562 462 C551 462 541 461 536 448 L446 243 C446 243 445 243 445 243 L373 463 C370 469 365 474 358 474 L348 474 C338 474 335 470 330 463 L194 243 C194 243 193 243 193 243 L162 448 C161 457 152 462 146 462 L67 462 C53 462 45 453 47 438 L116 2 Z M455 542 C489 542 526 574 531 615 C535 656 509 687 472 687 C437 687 402 656 398 615 C393 574 417 542 455 542 L455 542 Z M266 542 C301 542 337 574 342 615 C346 656 321 687 283 687 C249 687 213 656 209 615 C204 574 229 542 266 542 L266 542 Z " />
<glyph glyph-name="Ygrave" unicode="&#x1ef2;" horiz-adv-x="555" d="M295 458 L191 686 C187 696 183 700 172 700 L78 700 C64 700 55 689 61 676 L217 337 L172 19 C171 9 176 0 186 0 L283 0 C292 0 302 9 303 19 L347 338 L599 674 C608 687 605 700 590 700 L480 700 C472 700 467 695 464 691 L297 458 L295 458 Z M405 769 C416 763 423 766 429 775 L449 808 C454 816 451 824 446 827 L309 924 C304 928 291 930 282 916 L253 873 C244 860 248 850 255 846 L405 769 Z " />
<glyph glyph-name="ygrave" unicode="&#x1ef3;" horiz-adv-x="472" d="M132 33 L3 -210 C-6 -227 -1 -238 13 -238 L108 -238 C118 -238 125 -230 128 -224 L472 432 C480 447 475 462 459 462 L368 462 C359 462 350 460 345 449 L215 167 C215 167 212 167 212 167 L167 449 C166 457 156 462 150 462 L61 462 C44 462 40 447 43 432 L132 33 Z M295 531 C306 525 313 528 319 537 L339 570 C344 578 341 586 336 589 L199 686 C194 690 181 692 172 678 L143 635 C134 622 138 612 145 608 L295 531 Z " />
<glyph glyph-name="endash" unicode="&#x2013;" horiz-adv-x="508" d="M62 210 L424 210 C434 210 443 218 444 228 L449 265 C450 276 445 284 435 284 L72 284 C62 284 53 276 52 265 L47 228 C46 218 52 210 62 210 L62 210 Z " />
<glyph glyph-name="emdash" unicode="&#x2014;" horiz-adv-x="706" d="M62 210 L622 210 C632 210 641 218 642 228 L647 265 C648 276 643 284 633 284 L72 284 C62 284 53 276 52 265 L47 228 C46 218 52 210 62 210 L62 210 Z " />
<glyph glyph-name="quoteleft" unicode="&#x2018;" horiz-adv-x="239" d="M233 474 C233 506 215 530 180 530 C167 530 154 526 144 520 C146 577 179 625 212 661 C219 669 224 678 217 684 L191 704 C185 710 177 710 170 703 C106 643 69 561 69 480 C69 419 101 387 144 387 C195 387 233 428 233 474 L233 474 Z " />
<glyph glyph-name="quoteright" unicode="&#x2019;" horiz-adv-x="236" d="M78 623 C78 591 96 567 131 567 C144 567 157 571 167 577 C165 520 132 472 99 436 C92 428 87 419 94 413 L120 393 C126 387 134 387 141 394 C205 454 242 536 242 617 C242 678 210 710 167 710 C116 710 78 669 78 623 L78 623 Z " />
<glyph glyph-name="quotesinglbase" unicode="&#x201a;" horiz-adv-x="247" d="M10 68 C10 36 28 12 63 12 C76 12 89 16 99 22 C97 -35 64 -83 31 -119 C24 -127 19 -136 26 -142 L52 -162 C58 -168 66 -168 73 -161 C137 -101 174 -19 174 62 C174 123 142 155 99 155 C48 155 10 114 10 68 L10 68 Z " />
<glyph glyph-name="quotedblleft" unicode="&#x201c;" horiz-adv-x="443" d="M233 474 C233 506 215 530 180 530 C167 530 154 526 144 520 C146 577 179 625 212 661 C219 669 224 678 217 684 L191 704 C185 710 177 710 170 703 C106 643 69 561 69 480 C69 419 101 387 144 387 C195 387 233 428 233 474 L233 474 Z M437 474 C437 506 419 530 384 530 C371 530 358 526 348 520 C350 577 383 625 416 661 C423 669 428 678 421 684 L395 704 C389 710 381 710 374 703 C310 643 273 561 273 480 C273 419 305 387 348 387 C399 387 437 428 437 474 L437 474 Z " />
<glyph glyph-name="quotedblright" unicode="&#x201d;" horiz-adv-x="440" d="M78 623 C78 591 96 567 131 567 C144 567 157 571 167 577 C165 520 132 472 99 436 C92 428 87 419 94 413 L120 393 C126 387 134 387 141 394 C205 454 242 536 242 617 C242 678 210 710 167 710 C116 710 78 669 78 623 L78 623 Z M282 623 C282 591 300 567 335 567 C348 567 361 571 371 577 C369 520 336 472 303 436 C296 428 291 419 298 413 L324 393 C330 387 338 387 345 394 C409 454 446 536 446 617 C446 678 414 710 371 710 C320 710 282 669 282 623 L282 623 Z " />
<glyph glyph-name="quotedblbase" unicode="&#x201e;" horiz-adv-x="450" d="M10 68 C10 36 28 12 63 12 C76 12 89 16 99 22 C97 -35 64 -83 31 -119 C24 -127 19 -136 26 -142 L52 -162 C58 -168 66 -168 73 -161 C137 -101 174 -19 174 62 C174 123 142 155 99 155 C48 155 10 114 10 68 L10 68 Z M213 68 C213 36 231 12 266 12 C279 12 292 16 302 22 C300 -35 267 -83 234 -119 C227 -127 222 -136 229 -142 L255 -162 C261 -168 269 -168 276 -161 C340 -101 377 -19 377 62 C377 123 345 155 302 155 C251 155 213 114 213 68 L213 68 Z " />
<glyph glyph-name="dagger" unicode="&#x2020;" horiz-adv-x="528" d="M48 286 L203 286 L164 -222 C163 -230 171 -238 179 -238 L197 -238 C205 -238 214 -230 216 -222 L320 286 L481 286 C490 286 499 295 500 305 L511 381 C512 391 506 400 497 400 L344 400 L383 681 C384 691 378 700 369 700 L270 700 C261 700 252 691 250 681 L211 400 L64 400 C55 400 46 391 45 381 L34 305 C33 295 39 286 48 286 L48 286 Z " />
<glyph glyph-name="daggerdbl" unicode="&#x2021;" horiz-adv-x="549" d="M31 20 C30 10 36 1 45 1 L187 1 L174 -222 C173 -230 181 -238 189 -238 L207 -238 C215 -238 224 -230 226 -222 L274 1 L424 1 C433 1 442 10 443 20 L454 95 C455 105 449 114 440 114 L298 114 L353 399 L507 399 C516 399 525 408 526 418 L537 494 C538 504 532 513 523 513 L369 513 L393 681 C394 691 388 700 379 700 L280 700 C271 700 262 691 260 681 L237 513 L90 513 C81 513 71 504 70 494 L60 418 C59 408 65 399 74 399 L221 399 L220 398 L196 114 L61 114 C52 114 42 105 41 95 L31 20 Z " />
<glyph glyph-name="bullet" unicode="&#x2022;" horiz-adv-x="373" d="M162 125 C237 125 307 191 307 270 C307 334 262 387 199 387 C127 387 57 319 57 239 C57 177 102 125 162 125 L162 125 Z " />
<glyph glyph-name="ellipsis" unicode="&#x2026;" horiz-adv-x="615" d="M406 53 C406 19 431 -10 465 -10 C507 -10 545 27 545 71 C545 106 520 134 486 134 C444 134 406 98 406 53 L406 53 Z M210 53 C210 19 234 -10 269 -10 C310 -10 349 27 349 71 C349 106 324 134 289 134 C248 134 210 98 210 53 L210 53 Z M9 53 C9 19 33 -10 67 -10 C109 -10 147 27 147 71 C147 106 122 134 88 134 C46 134 9 98 9 53 L9 53 Z " />
<glyph glyph-name="perthousand" unicode="&#x2030;" horiz-adv-x="886" d="M190 440 C265 440 326 508 326 593 C326 658 279 710 217 710 C135 710 80 641 80 557 C80 492 127 440 190 440 L190 440 Z M76 27 C68 14 74 0 88 0 L139 0 C146 0 152 6 155 10 L559 673 C567 686 561 700 548 700 L496 700 C488 700 483 696 479 690 L76 27 Z M196 526 C178 526 166 545 166 567 C166 598 187 623 209 623 C227 623 238 604 238 582 C238 552 217 526 196 526 L196 526 Z M587 107 C587 42 634 -10 697 -10 C772 -10 833 58 833 143 C833 208 786 260 724 260 C642 260 587 191 587 107 L587 107 Z M316 107 C316 42 363 -10 426 -10 C501 -10 562 58 562 143 C562 208 515 260 453 260 C371 260 316 191 316 107 L316 107 Z M673 117 C673 148 694 173 716 173 C734 173 745 154 745 132 C745 102 724 76 703 76 C685 76 673 95 673 117 L673 117 Z M402 117 C402 148 423 173 445 173 C463 173 474 154 474 132 C474 102 453 76 432 76 C414 76 402 95 402 117 L402 117 Z " />
<glyph glyph-name="guilsinglleft" unicode="&#x2039;" horiz-adv-x="277" d="M104 69 C106 65 110 61 116 61 L178 61 C193 61 200 75 196 91 L164 228 L244 377 C253 393 250 408 234 408 L170 408 C160 408 153 401 149 396 L35 248 C30 242 28 232 32 224 L104 69 Z " />
<glyph glyph-name="guilsinglright" unicode="&#x203a;" horiz-adv-x="277" d="M29 61 L93 61 C103 61 110 68 114 73 L228 221 C233 227 235 237 231 245 L159 400 C157 404 153 408 147 408 L85 408 C70 408 63 394 67 378 L99 241 L19 92 C10 76 13 61 29 61 L29 61 Z " />
<glyph glyph-name="fraction" unicode="&#x2044;" horiz-adv-x="140" d="M-83 10 L321 673 C329 686 323 700 310 700 L258 700 C250 700 245 696 241 690 L-162 27 C-170 14 -164 0 -150 0 L-99 0 C-92 0 -86 6 -83 10 L-83 10 Z " />
<glyph glyph-name="zerosuperior" unicode="&#x2070;" horiz-adv-x="306" d="M183 494 C271 494 325 571 325 687 C325 762 288 810 227 810 C138 810 85 734 85 617 C85 543 123 494 183 494 L183 494 Z M193 568 C179 568 169 588 169 620 C169 682 188 736 217 736 C231 736 241 716 241 684 C241 620 221 568 193 568 L193 568 Z " />
<glyph glyph-name="foursuperior" unicode="&#x2074;" horiz-adv-x="300" d="M192 504 L248 504 C253 504 257 508 258 513 L264 561 L300 561 C304 561 309 565 309 570 L315 613 C316 617 313 621 308 621 L273 621 L297 791 C298 796 294 800 290 800 L251 800 C246 800 243 800 238 795 L71 620 L64 569 C64 565 67 561 71 561 L191 561 L184 513 C183 508 187 504 192 504 L192 504 Z M141 620 L212 692 L200 620 L141 620 Z " />
<glyph glyph-name="fivesuperior" unicode="&#x2075;" horiz-adv-x="271" d="M158 494 C241 494 284 546 284 612 C284 663 252 699 194 699 L166 699 L171 738 L260 738 C265 738 270 742 270 747 L276 791 C277 796 274 800 269 800 L125 800 C120 800 116 796 115 791 L95 652 C94 644 98 636 107 636 L173 636 C193 636 206 623 206 604 C206 579 185 561 163 561 C137 561 124 572 115 581 C111 585 107 586 101 579 L74 547 C69 541 70 537 73 532 C82 518 119 494 158 494 L158 494 Z " />
<glyph glyph-name="sixsuperior" unicode="&#x2076;" horiz-adv-x="279" d="M175 494 C243 494 293 547 293 614 C293 667 258 695 222 695 C192 695 174 683 173 682 C192 722 251 749 273 756 C283 759 284 766 284 772 L270 806 C268 813 263 817 253 814 C217 802 79 746 79 598 C79 540 118 494 175 494 L175 494 Z M182 563 C163 563 151 587 154 610 C160 622 176 640 193 640 C208 640 218 626 218 607 C218 583 200 563 182 563 L182 563 Z " />
<glyph glyph-name="sevensuperior" unicode="&#x2077;" horiz-adv-x="249" d="M75 504 L132 504 C138 504 142 506 147 513 L300 777 L302 791 C303 796 299 800 295 800 L116 800 C112 800 107 796 106 791 L99 744 C98 740 103 736 107 736 L197 736 L66 518 L65 512 C64 506 68 504 75 504 L75 504 Z " />
<glyph glyph-name="eightsuperior" unicode="&#x2078;" horiz-adv-x="292" d="M174 494 C251 494 300 535 300 590 C300 628 274 650 254 656 L254 657 C275 666 312 692 312 736 C312 781 272 810 219 810 C155 810 104 774 104 718 C104 685 126 664 141 657 L141 656 C135 653 75 625 75 571 C75 527 113 494 174 494 L174 494 Z M202 687 C191 690 182 698 182 713 C182 731 196 743 210 743 C221 743 230 736 230 722 C230 704 217 690 202 687 L202 687 Z M185 558 C171 558 160 568 160 583 C160 603 176 621 193 623 C209 621 218 607 218 593 C218 570 200 558 185 558 L185 558 Z " />
<glyph glyph-name="ninesuperior" unicode="&#x2079;" horiz-adv-x="279" d="M129 488 C165 500 303 556 303 704 C303 762 264 808 207 808 C139 808 89 755 89 688 C89 635 124 607 160 607 C190 607 208 619 209 620 C190 580 131 553 109 546 C99 543 98 536 98 530 L112 496 C114 489 119 485 129 488 L129 488 Z M189 662 C174 662 164 676 164 695 C164 719 182 739 200 739 C219 739 231 715 228 692 C222 680 206 662 189 662 L189 662 Z " />
<glyph glyph-name="zeroinferior" unicode="&#x2080;" horiz-adv-x="307" d="M-7 -37 C-7 -111 31 -160 91 -160 C179 -160 233 -83 233 33 C233 108 196 156 135 156 C46 156 -7 80 -7 -37 L-7 -37 Z M77 -34 C77 28 96 82 125 82 C139 82 149 62 149 30 C149 -34 129 -86 101 -86 C87 -86 77 -66 77 -34 L77 -34 Z " />
<glyph glyph-name="oneinferior" unicode="&#x2081;" horiz-adv-x="204" d="M-1 48 L46 52 L19 -141 C19 -146 22 -150 27 -150 L89 -150 C94 -150 98 -146 99 -141 L138 137 C139 142 136 146 131 146 L79 146 L5 101 C0 98 -3 95 -4 87 L-7 57 C-8 51 -5 48 -1 48 L-1 48 Z " />
<glyph glyph-name="twoinferior" unicode="&#x2082;" horiz-adv-x="264" d="M30 73 C35 64 40 64 46 68 C60 78 75 87 90 87 C106 87 114 74 114 59 C114 42 104 24 85 2 L-27 -124 L-30 -141 C-31 -147 -27 -150 -22 -150 L154 -150 C158 -150 163 -146 163 -141 L170 -95 C171 -90 167 -86 162 -86 L96 -86 L153 -22 C181 10 195 41 195 77 C195 124 156 156 107 156 C58 156 26 132 19 127 C6 118 8 114 12 106 L30 73 Z " />
<glyph glyph-name="threeinferior" unicode="&#x2083;" horiz-adv-x="260" d="M24 -16 C22 -27 26 -30 34 -30 L62 -30 C83 -30 93 -42 93 -58 C93 -80 81 -94 55 -94 C36 -94 24 -87 18 -81 C12 -75 7 -77 1 -83 L-21 -109 C-27 -116 -27 -121 -21 -127 C-14 -135 13 -160 60 -160 C123 -160 176 -125 176 -64 C176 -26 149 -5 132 3 C157 14 189 41 189 84 C189 128 150 156 96 156 C48 156 16 126 16 126 C10 122 8 113 12 108 L33 77 C38 69 41 71 47 74 C56 82 68 90 80 90 C96 90 106 80 106 65 C106 44 90 29 71 29 L45 29 C36 29 29 25 28 15 L24 -16 Z " />
<glyph glyph-name="fourinferior" unicode="&#x2084;" horiz-adv-x="301" d="M-21 -34 L-28 -85 C-28 -89 -25 -93 -21 -93 L99 -93 L92 -141 C91 -146 95 -150 100 -150 L156 -150 C161 -150 165 -146 166 -141 L172 -93 L208 -93 C212 -93 217 -89 217 -84 L223 -41 C224 -37 221 -33 216 -33 L181 -33 L205 137 C206 142 202 146 198 146 L159 146 C154 146 151 146 146 141 L-21 -34 Z M49 -34 L120 38 L108 -34 L49 -34 Z " />
<glyph glyph-name="fiveinferior" unicode="&#x2085;" horiz-adv-x="273" d="M4 -2 C3 -10 7 -18 16 -18 L82 -18 C102 -18 115 -31 115 -50 C115 -75 94 -93 72 -93 C46 -93 33 -82 24 -73 C20 -69 16 -68 10 -75 L-17 -107 C-22 -113 -21 -117 -18 -122 C-9 -136 28 -160 67 -160 C150 -160 193 -108 193 -42 C193 9 161 45 103 45 L75 45 L80 84 L169 84 C174 84 179 88 179 93 L185 137 C186 142 183 146 178 146 L34 146 C29 146 25 142 24 137 L4 -2 Z " />
<glyph glyph-name="sixinferior" unicode="&#x2086;" horiz-adv-x="279" d="M-13 -56 C-13 -114 26 -160 83 -160 C151 -160 201 -107 201 -40 C201 13 166 41 130 41 C100 41 82 29 81 28 C100 68 159 95 181 102 C191 105 192 112 192 118 L178 152 C176 159 171 163 161 160 C125 148 -13 92 -13 -56 L-13 -56 Z M62 -44 C68 -32 84 -14 101 -14 C116 -14 126 -28 126 -47 C126 -71 108 -91 90 -91 C71 -91 59 -67 62 -44 L62 -44 Z " />
<glyph glyph-name="seveninferior" unicode="&#x2087;" horiz-adv-x="249" d="M15 82 L105 82 L-26 -136 L-27 -142 C-28 -148 -24 -150 -17 -150 L40 -150 C46 -150 50 -148 55 -141 L208 123 L210 137 C211 142 207 146 203 146 L24 146 C20 146 15 142 14 137 L7 90 C6 86 11 82 15 82 L15 82 Z " />
<glyph glyph-name="eightinferior" unicode="&#x2088;" horiz-adv-x="292" d="M12 64 C12 31 34 10 49 3 L49 2 C43 -1 -17 -29 -17 -83 C-17 -127 21 -160 82 -160 C159 -160 208 -119 208 -64 C208 -26 182 -4 162 2 L162 3 C183 12 220 38 220 82 C220 127 180 156 127 156 C63 156 12 120 12 64 L12 64 Z M90 59 C90 77 104 89 118 89 C129 89 138 82 138 68 C138 50 125 36 110 33 C99 36 90 44 90 59 L90 59 Z M68 -71 C68 -51 84 -33 101 -31 C117 -33 126 -47 126 -61 C126 -84 108 -96 93 -96 C79 -96 68 -86 68 -71 L68 -71 Z " />
<glyph glyph-name="nineinferior" unicode="&#x2089;" horiz-adv-x="280" d="M-2 34 C-2 -19 33 -47 69 -47 C99 -47 117 -35 118 -34 C99 -74 40 -101 18 -108 C8 -111 7 -118 7 -124 L21 -158 C23 -165 28 -169 38 -166 C74 -154 212 -98 212 50 C212 108 173 154 116 154 C48 154 -2 101 -2 34 L-2 34 Z M73 41 C73 65 91 85 109 85 C128 85 140 61 137 38 C131 26 115 8 98 8 C83 8 73 22 73 41 L73 41 Z " />
<glyph glyph-name="Euro" unicode="&#x20ac;" horiz-adv-x="600" d="M336 -11 C403 -11 457 10 524 67 C532 74 535 85 530 94 L485 169 C481 176 470 178 461 171 C432 149 402 121 351 121 C280 121 244 174 237 250 L389 250 C400 250 409 258 410 268 L412 282 C413 292 407 301 396 301 L235 301 C235 317 237 339 242 369 L445 369 C456 369 466 377 467 387 L469 402 C470 412 464 421 453 421 L255 421 C283 520 347 585 416 585 C451 585 489 576 526 531 C533 523 545 522 553 531 L609 597 C617 606 618 619 611 627 C568 675 506 710 421 710 C261 710 153 581 112 421 L73 421 C63 421 53 412 52 402 L50 388 C49 378 55 369 65 369 L101 369 C96 342 94 316 94 301 L56 301 C46 301 37 292 35 282 L33 269 C31 259 39 250 49 250 L94 250 C100 96 188 -11 336 -11 L336 -11 Z " />
<glyph glyph-name="afii61289" unicode="&#x2113;" horiz-adv-x="429" d="M174 -10 C261 -10 337 40 348 49 C361 60 360 63 354 76 L344 97 C340 105 336 111 322 102 C283 78 236 58 183 58 C133 58 127 106 134 156 C138 183 143 205 150 230 C300 289 427 407 451 571 C463 655 429 710 365 710 C264 710 197 586 127 368 C118 339 111 312 103 283 C84 276 65 272 44 268 C29 265 28 256 28 248 L27 215 C27 206 31 203 39 204 C50 206 67 211 80 215 C76 196 72 173 69 154 C56 70 82 -10 174 -10 L174 -10 Z M173 304 L189 357 C243 534 297 641 355 641 C382 641 390 614 384 571 C366 451 275 350 173 304 L173 304 Z " />
<glyph glyph-name="uni2117" unicode="&#x2117;" horiz-adv-x="765" d="M64 303 C64 131 180 -9 341 -9 C545 -9 719 174 719 397 C719 569 603 710 442 710 C236 710 64 525 64 303 L64 303 Z M140 312 C140 488 280 631 431 631 C555 631 643 522 643 388 C643 213 503 69 352 69 C228 69 140 179 140 312 L140 312 Z M356 290 L423 290 C502 290 559 356 559 427 C559 497 520 534 455 534 L324 534 C314 534 306 525 305 515 L259 187 C258 177 263 168 273 168 L322 168 C332 168 341 177 342 187 L356 290 Z M365 368 L376 450 L442 450 C464 450 474 436 474 415 C474 388 455 368 431 368 L365 368 Z " />
<glyph glyph-name="trademark" unicode="&#x2122;" horiz-adv-x="712" d="M349 385 L388 385 C398 385 406 393 408 401 L443 527 L480 392 C482 385 487 382 494 382 L499 382 C507 382 512 386 515 391 L589 527 L589 402 C589 393 595 385 603 385 L643 385 C654 385 663 395 663 407 L655 690 C655 698 648 705 640 705 L637 705 C628 705 623 699 620 694 L512 509 L458 694 C456 700 452 705 444 705 L441 705 C428 705 423 698 421 690 L335 408 C331 396 337 385 349 385 L349 385 Z M169 385 L211 385 C220 385 230 394 231 404 L262 626 L318 626 C328 626 336 634 338 645 L343 681 C344 691 338 700 328 700 L141 700 C132 700 122 691 121 681 L116 645 C114 634 121 626 130 626 L186 626 L155 404 C153 394 159 385 169 385 L169 385 Z " />
<glyph glyph-name="Omega" unicode="&#x2126;" horiz-adv-x="765" d="M36 0 L283 0 C293 0 300 8 301 18 L309 72 C312 91 309 100 292 110 C225 150 193 226 193 307 C193 448 295 579 422 579 C522 579 585 494 585 386 C585 282 524 164 419 110 C403 102 397 97 393 72 L385 18 C383 7 389 0 398 0 L646 0 C655 0 663 8 664 18 L677 106 C678 115 672 124 663 124 L587 124 C667 178 719 309 719 412 C719 584 597 710 440 710 C241 710 64 533 64 313 C64 237 92 160 135 124 L53 124 C44 124 36 115 35 106 L22 18 C21 8 26 0 36 0 L36 0 Z " />
<glyph glyph-name="estimated" unicode="&#x212e;" horiz-adv-x="750" d="M162 168 L183 317 L694 317 C709 317 717 324 720 346 C722 364 724 382 724 400 C724 577 608 710 443 710 C218 710 61 488 61 292 C61 118 177 -10 342 -10 C423 -10 508 18 577 87 C588 97 592 108 586 116 L570 138 C562 149 554 145 544 136 C484 85 414 55 351 55 C267 55 197 97 162 168 L162 168 Z M192 380 L213 532 C271 603 345 644 434 644 C522 644 587 600 625 530 L604 380 L192 380 Z " />
<glyph glyph-name="onethird" unicode="&#x2153;" horiz-adv-x="606" d="M52 27 C44 14 50 0 64 0 L115 0 C122 0 128 6 131 10 L535 673 C543 686 537 700 524 700 L472 700 C464 700 459 696 455 690 L52 27 Z M118 404 L180 404 C185 404 189 408 190 413 L229 691 C230 696 227 700 222 700 L170 700 L96 655 C91 652 88 649 87 641 L84 611 C83 605 86 602 90 602 L137 606 L110 413 C110 408 113 404 118 404 L118 404 Z M338 23 C345 15 372 -10 419 -10 C482 -10 535 25 535 86 C535 124 508 145 491 153 C516 164 548 191 548 234 C548 278 509 306 455 306 C407 306 375 276 375 276 C369 272 367 263 371 258 L392 227 C397 219 400 221 406 224 C415 232 427 240 439 240 C455 240 465 230 465 215 C465 194 449 179 430 179 L404 179 C395 179 388 175 387 165 L383 134 C381 123 385 120 393 120 L421 120 C442 120 452 108 452 92 C452 70 440 56 414 56 C395 56 383 63 377 69 C371 75 366 73 360 67 L338 41 C332 34 332 29 338 23 L338 23 Z " />
<glyph glyph-name="twothirds" unicode="&#x2154;" horiz-adv-x="658" d="M68 404 L244 404 C248 404 253 408 253 413 L260 459 C261 464 257 468 252 468 L186 468 L243 532 C271 564 285 595 285 631 C285 678 246 710 197 710 C148 710 116 686 109 681 C96 672 98 668 102 660 L120 627 C125 618 130 618 136 622 C150 632 165 641 180 641 C196 641 204 628 204 613 C204 596 194 578 175 556 L63 430 L60 413 C59 407 63 404 68 404 L68 404 Z M104 27 C96 14 102 0 116 0 L167 0 C174 0 180 6 183 10 L587 673 C595 686 589 700 576 700 L524 700 C516 700 511 696 507 690 L104 27 Z M390 23 C397 15 424 -10 471 -10 C534 -10 587 25 587 86 C587 124 560 145 543 153 C568 164 600 191 600 234 C600 278 561 306 507 306 C459 306 427 276 427 276 C421 272 419 263 423 258 L444 227 C449 219 452 221 458 224 C467 232 479 240 491 240 C507 240 517 230 517 215 C517 194 501 179 482 179 L456 179 C447 179 440 175 439 165 L435 134 C433 123 437 120 445 120 L473 120 C494 120 504 108 504 92 C504 70 492 56 466 56 C447 56 435 63 429 69 C423 75 418 73 412 67 L390 41 C384 34 384 29 390 23 L390 23 Z " />
<glyph glyph-name="oneeighth" unicode="&#x215b;" horiz-adv-x="631" d="M52 27 C44 14 50 0 64 0 L115 0 C122 0 128 6 131 10 L535 673 C543 686 537 700 524 700 L472 700 C464 700 459 696 455 690 L52 27 Z M118 404 L180 404 C185 404 189 408 190 413 L229 691 C230 696 227 700 222 700 L170 700 L96 655 C91 652 88 649 87 641 L84 611 C83 605 86 602 90 602 L137 606 L110 413 C110 408 113 404 118 404 L118 404 Z M338 67 C338 23 376 -10 437 -10 C514 -10 563 31 563 86 C563 124 537 146 517 152 L517 153 C538 162 575 188 575 232 C575 277 535 306 482 306 C418 306 367 270 367 214 C367 181 389 160 404 153 L404 152 C398 149 338 121 338 67 L338 67 Z M445 209 C445 227 459 239 473 239 C484 239 493 232 493 218 C493 200 480 186 465 183 C454 186 445 194 445 209 L445 209 Z M423 79 C423 99 439 117 456 119 C472 117 481 103 481 89 C481 66 463 54 448 54 C434 54 423 64 423 79 L423 79 Z " />
<glyph glyph-name="threeeighths" unicode="&#x215c;" horiz-adv-x="681" d="M148 394 C211 394 264 429 264 490 C264 528 237 549 220 557 C245 568 277 595 277 638 C277 682 238 710 184 710 C136 710 104 680 104 680 C98 676 96 667 100 662 L121 631 C126 623 129 625 135 628 C144 636 156 644 168 644 C184 644 194 634 194 619 C194 598 178 583 159 583 L133 583 C124 583 117 579 116 569 L112 538 C110 527 114 524 122 524 L150 524 C171 524 181 512 181 496 C181 474 169 460 143 460 C124 460 112 467 106 473 C100 479 95 477 89 471 L67 445 C61 438 61 433 67 427 C74 419 101 394 148 394 L148 394 Z M103 27 C95 14 101 0 115 0 L166 0 C173 0 179 6 182 10 L586 673 C594 686 588 700 575 700 L523 700 C515 700 510 696 506 690 L103 27 Z M389 67 C389 23 427 -10 488 -10 C565 -10 614 31 614 86 C614 124 588 146 568 152 L568 153 C589 162 626 188 626 232 C626 277 586 306 533 306 C469 306 418 270 418 214 C418 181 440 160 455 153 L455 152 C449 149 389 121 389 67 L389 67 Z M496 209 C496 227 510 239 524 239 C535 239 544 232 544 218 C544 200 531 186 516 183 C505 186 496 194 496 209 L496 209 Z M474 79 C474 99 490 117 507 119 C523 117 532 103 532 89 C532 66 514 54 499 54 C485 54 474 64 474 79 L474 79 Z " />
<glyph glyph-name="fiveeighths" unicode="&#x215d;" horiz-adv-x="690" d="M111 27 C103 14 109 0 123 0 L174 0 C181 0 187 6 190 10 L594 673 C602 686 596 700 583 700 L531 700 C523 700 518 696 514 690 L111 27 Z M152 394 C235 394 278 446 278 512 C278 563 246 599 188 599 L160 599 L165 638 L254 638 C259 638 264 642 264 647 L270 691 C271 696 268 700 263 700 L119 700 C114 700 110 696 109 691 L89 552 C88 544 92 536 101 536 L167 536 C187 536 200 523 200 504 C200 479 179 461 157 461 C131 461 118 472 109 481 C105 485 101 486 95 479 L68 447 C63 441 64 437 67 432 C76 418 113 394 152 394 L152 394 Z M397 67 C397 23 435 -10 496 -10 C573 -10 622 31 622 86 C622 124 596 146 576 152 L576 153 C597 162 634 188 634 232 C634 277 594 306 541 306 C477 306 426 270 426 214 C426 181 448 160 463 153 L463 152 C457 149 397 121 397 67 L397 67 Z M504 209 C504 227 518 239 532 239 C543 239 552 232 552 218 C552 200 539 186 524 183 C513 186 504 194 504 209 L504 209 Z M482 79 C482 99 498 117 515 119 C531 117 540 103 540 89 C540 66 522 54 507 54 C493 54 482 64 482 79 L482 79 Z " />
<glyph glyph-name="seveneighths" unicode="&#x215e;" horiz-adv-x="663" d="M84 27 C76 14 82 0 96 0 L147 0 C154 0 160 6 163 10 L567 673 C575 686 569 700 556 700 L504 700 C496 700 491 696 487 690 L84 27 Z M75 404 L132 404 C138 404 142 406 147 413 L300 677 L302 691 C303 696 299 700 295 700 L116 700 C112 700 107 696 106 691 L99 644 C98 640 103 636 107 636 L197 636 L66 418 L65 412 C64 406 68 404 75 404 L75 404 Z M370 67 C370 23 408 -10 469 -10 C546 -10 595 31 595 86 C595 124 569 146 549 152 L549 153 C570 162 607 188 607 232 C607 277 567 306 514 306 C450 306 399 270 399 214 C399 181 421 160 436 153 L436 152 C430 149 370 121 370 67 L370 67 Z M477 209 C477 227 491 239 505 239 C516 239 525 232 525 218 C525 200 512 186 497 183 C486 186 477 194 477 209 L477 209 Z M455 79 C455 99 471 117 488 119 C504 117 513 103 513 89 C513 66 495 54 480 54 C466 54 455 64 455 79 L455 79 Z " />
<glyph glyph-name="partialdiff" unicode="&#x2202;" horiz-adv-x="540" d="M44 226 C26 96 107 -10 221 -10 C366 -10 460 119 481 274 C524 575 310 694 235 723 C223 727 214 722 207 709 L179 650 C172 638 175 626 191 620 C233 605 348 534 361 420 C347 431 308 449 265 449 C172 449 64 373 44 226 L44 226 Z M237 107 C180 107 148 163 157 228 C166 294 214 348 272 348 C334 348 356 296 361 259 C351 188 313 107 237 107 L237 107 Z " />
<glyph glyph-name="Delta" unicode="&#x2206;" horiz-adv-x="652" d="M20 0 L560 0 C583 0 589 21 583 41 L405 700 C403 706 397 710 391 710 L383 710 C378 710 371 706 368 700 L3 43 C-13 14 -3 0 20 0 L20 0 Z M179 119 L352 449 L353 449 L433 119 L179 119 Z " />
<glyph glyph-name="product" unicode="&#x220f;" horiz-adv-x="718" d="M57 18 C55 8 62 0 71 0 L170 0 C179 0 187 8 189 18 L267 576 L533 576 L455 18 C453 8 458 0 467 0 L567 0 C575 0 584 8 586 18 L679 682 C681 692 674 700 666 700 L170 700 C161 700 152 692 150 682 L57 18 Z " />
<glyph glyph-name="summation" unicode="&#x2211;" horiz-adv-x="513" d="M10 18 C8 8 14 0 23 0 L392 0 C401 0 410 8 412 18 L424 106 C426 116 419 124 410 124 L229 124 L389 293 C396 301 408 310 412 335 L419 380 C422 399 412 412 407 419 L292 576 L473 576 C482 576 491 584 493 594 L505 682 C507 692 500 700 491 700 L122 700 C113 700 105 692 103 682 L98 648 L297 366 L15 58 L10 18 Z " />
<glyph glyph-name="minus" unicode="&#x2212;" horiz-adv-x="600" d="M122 300 L480 300 C489 300 498 309 499 319 L507 375 C508 385 503 394 494 394 L135 394 C126 394 117 385 116 375 L108 319 C107 309 113 300 122 300 L122 300 Z " />
<glyph glyph-name="uni2215" unicode="&#x2215;" horiz-adv-x="140" d="M-150 0 L-99 0 C-92 0 -86 6 -83 10 L321 673 C329 686 323 700 310 700 L258 700 C250 700 245 696 241 690 L-162 27 C-170 14 -164 0 -150 0 L-150 0 Z " />
<glyph glyph-name="uni2219" unicode="&#x2219;" horiz-adv-x="262" d="M113 167 C167 167 218 213 218 267 C218 312 184 348 138 348 C86 348 36 302 36 246 C36 203 69 167 113 167 L113 167 Z " />
<glyph glyph-name="radical" unicode="&#x221a;" horiz-adv-x="605" d="M142 1 C143 -5 148 -10 155 -10 L163 -10 C169 -10 175 -5 178 1 L507 592 L614 592 C623 592 631 600 633 610 L643 682 C644 692 638 700 629 700 L454 700 C445 700 441 694 438 689 L190 237 L186 237 L147 390 C146 394 141 400 135 400 L56 400 C44 400 36 389 40 377 L142 1 Z " />
<glyph glyph-name="infinity" unicode="&#x221e;" horiz-adv-x="565" d="M168 156 C209 156 244 180 270 211 C289 180 321 156 358 156 C441 156 506 230 506 316 C506 384 459 436 397 436 C360 436 319 412 293 381 C277 411 244 436 207 436 C126 436 60 362 60 274 C60 207 106 156 168 156 L168 156 Z M328 296 C332 325 356 348 382 348 C406 348 423 329 423 304 C423 271 394 244 367 244 C344 244 327 262 327 286 C327 289 327 293 328 296 L328 296 Z M182 244 C160 244 143 262 143 286 C143 320 169 348 197 348 C221 348 238 329 238 304 C238 271 209 244 182 244 L182 244 Z " />
<glyph glyph-name="integral" unicode="&#x222b;" horiz-adv-x="470" d="M125 -47 C116 -109 83 -136 53 -136 C32 -136 14 -127 6 -121 C-1 -116 -10 -118 -15 -126 L-56 -186 C-61 -194 -61 -204 -56 -210 C-43 -224 -7 -249 45 -249 C155 -249 233 -178 251 -48 L329 508 C338 570 371 597 400 597 C421 597 435 591 445 584 C452 579 461 581 467 589 L510 647 C515 654 515 665 509 671 C497 682 461 710 409 710 C289 710 221 639 202 509 L125 -47 Z " />
</font>
</svg>
