<?xml version="1.0" encoding="UTF-8"?>
<svg xmlns="http://www.w3.org/2000/svg" xmlns:xlink="http://www.w3.org/1999/xlink" version="1.2" >
<font id="Brandon Text Bold">
<font-face  font-family="Brandon Text" units-per-em="1000" ascent="700" descent="-300" font-style="normal" font-weight="700" font-stretch="normal" cap-height="700" x-height="462" underline-position="-75" underline-thickness="50" />
<missing-glyph  horiz-adv-x="599" d="M50 30 C50 9 59 0 80 0 L519 0 C540 0 549 9 549 30 L549 670 C549 691 540 700 519 700 L80 700 C59 700 50 691 50 670 L50 30 Z M262 314 L262 343 C262 418 361 427 361 490 C361 517 340 542 300 542 C252 542 229 513 216 501 C210 497 205 497 199 501 L177 523 C171 528 173 535 177 541 C177 541 220 602 307 602 C378 602 432 556 432 491 C432 404 327 389 327 341 L327 315 C327 306 321 302 312 302 L276 302 C269 302 262 307 262 314 L262 314 Z M245 156 C245 182 267 204 293 204 C320 204 342 182 342 156 C342 130 320 108 293 108 C267 108 245 130 245 156 L245 156 Z " />
<glyph glyph-name=".null" d="" />
<glyph glyph-name="&amp;#x0;" d="" />
<glyph glyph-name="&amp;#xd;" unicode="&#xd;" d="" />
<glyph glyph-name="space" unicode="&#x20;" horiz-adv-x="240" d="" />
<glyph glyph-name="exclam" unicode="&#x21;" horiz-adv-x="266" d="M117 272 L149 272 C158 272 167 280 168 288 L207 569 L207 681 C207 691 198 700 188 700 L78 700 C68 700 59 691 59 681 L59 567 L98 288 C99 280 108 272 117 272 L117 272 Z M51 72 C51 27 88 -10 132 -10 C178 -10 215 27 215 72 C215 117 178 155 132 155 C88 155 51 117 51 72 L51 72 Z " />
<glyph glyph-name="quotedbl" unicode="&#x22;" horiz-adv-x="372" d="M241 501 L280 501 C287 501 296 508 298 516 L339 675 C343 689 334 700 321 700 L241 700 C231 700 222 691 222 681 L222 520 C222 510 231 501 241 501 L241 501 Z M70 501 L109 501 C116 501 125 508 127 516 L168 675 C172 689 163 700 150 700 L70 700 C60 700 51 691 51 681 L51 520 C51 510 60 501 70 501 L70 501 Z " />
<glyph glyph-name="numbersign" unicode="&#x23;" horiz-adv-x="573" d="M117 22 C115 10 123 0 136 0 L148 0 C157 0 166 7 167 16 L190 188 L349 188 L327 22 C326 10 334 0 346 0 L359 0 C369 0 377 7 378 16 L400 188 L473 188 C483 188 492 197 492 207 L492 221 C492 232 483 240 473 240 L408 240 L431 404 L502 404 C513 404 521 413 521 423 L521 437 C521 447 513 456 502 456 L438 456 L470 678 C472 690 463 700 451 700 L439 700 C430 700 421 692 420 684 L387 456 L229 456 L259 678 C261 690 252 700 241 700 L227 700 C218 700 210 692 209 684 L177 456 L98 456 C88 456 79 447 79 437 L79 423 C79 413 88 404 98 404 L170 404 L147 240 L69 240 C58 240 50 232 50 221 L50 207 C50 197 58 188 69 188 L140 188 L117 22 Z M198 240 L221 404 L379 404 L357 240 L198 240 Z " />
<glyph glyph-name="dollar" unicode="&#x24;" horiz-adv-x="600" d="M272 -9 L272 -113 C272 -130 291 -131 303 -131 C314 -131 323 -124 323 -113 L323 -9 C457 -1 531 79 531 188 C531 319 410 379 323 415 C323 475 323 538 323 598 C370 588 409 563 437 544 C446 538 457 541 465 552 L505 610 C512 621 509 637 499 643 C481 656 412 701 323 708 L323 741 C323 752 314 760 304 760 L291 760 C281 760 272 752 272 741 L272 709 C135 698 74 614 74 519 C74 387 179 334 272 297 L272 102 C228 109 186 131 156 156 C136 173 124 171 116 158 L77 98 C68 83 73 77 82 68 C100 51 164 -1 272 -9 L272 -9 Z M272 435 C221 462 196 484 196 524 C196 563 222 592 272 598 L272 435 Z M323 100 L323 276 C377 248 400 213 400 174 C400 129 368 105 323 100 L323 100 Z " />
<glyph glyph-name="percent" unicode="&#x25;" horiz-adv-x="693" d="M182 440 C256 440 317 500 317 575 C317 650 256 710 182 710 C107 710 47 650 47 575 C47 500 107 440 182 440 L182 440 Z M129 27 C122 14 131 0 146 0 L194 0 C202 0 209 6 211 10 L556 673 C563 686 554 700 539 700 L489 700 C481 700 475 696 472 690 L129 27 Z M182 526 C155 526 133 548 133 575 C133 601 155 623 182 623 C208 623 230 601 230 575 C230 548 208 526 182 526 L182 526 Z M376 125 C376 50 437 -10 511 -10 C586 -10 647 50 647 125 C647 200 586 260 511 260 C437 260 376 200 376 125 L376 125 Z M462 125 C462 151 484 173 511 173 C537 173 560 151 560 125 C560 98 537 76 511 76 C484 76 462 98 462 125 L462 125 Z " />
<glyph glyph-name="ampersand" unicode="&#x26;" horiz-adv-x="678" d="M52 178 C52 76 136 -10 263 -10 C393 -10 463 54 481 75 L553 2 C569 -14 585 -12 597 -1 L638 41 C662 64 652 75 640 87 L551 171 C564 195 596 258 613 330 C615 340 622 362 596 369 L541 385 C518 392 512 381 508 360 C501 322 488 281 472 249 L357 365 C377 383 479 444 479 547 C479 637 402 710 290 710 C164 710 101 624 101 548 C101 489 129 446 169 404 L190 381 L190 379 C172 368 52 310 52 178 L52 178 Z M286 436 L264 458 C233 489 212 513 212 548 C212 585 240 616 286 616 C338 616 371 579 371 541 C371 479 301 445 286 436 L286 436 Z M171 191 C171 271 240 304 256 314 L405 156 C390 139 351 97 276 97 C217 97 171 136 171 191 L171 191 Z " />
<glyph glyph-name="quotesingle" unicode="&#x27;" horiz-adv-x="201" d="M70 501 L109 501 C116 501 125 508 127 516 L168 675 C172 689 163 700 150 700 L70 700 C60 700 51 691 51 681 L51 520 C51 510 60 501 70 501 L70 501 Z " />
<glyph glyph-name="parenleft" unicode="&#x28;" horiz-adv-x="339" d="M289 -79 C300 -79 307 -73 308 -63 L311 2 C312 10 308 19 299 21 C201 47 164 148 164 315 C164 481 201 584 299 610 C306 611 312 620 311 628 L308 694 C308 703 300 710 289 709 C175 703 41 629 41 315 C41 1 175 -71 289 -79 L289 -79 Z " />
<glyph glyph-name="parenright" unicode="&#x29;" horiz-adv-x="339" d="M28 2 L31 -63 C32 -73 39 -79 50 -79 C164 -71 298 1 298 315 C298 629 164 703 50 709 C39 710 31 703 31 694 L28 628 C27 620 33 611 40 610 C138 584 175 481 175 315 C175 148 138 47 40 21 C31 19 27 10 28 2 L28 2 Z " />
<glyph glyph-name="asterisk" unicode="&#x2a;" horiz-adv-x="432" d="M200 370 L232 370 C242 370 251 379 251 389 L249 475 L321 425 C329 420 341 422 346 431 L365 458 C370 466 369 478 359 484 L276 535 L359 585 C369 591 370 603 364 612 L347 639 C342 647 329 649 321 644 L249 593 L251 681 C251 691 242 700 232 700 L200 700 C190 700 181 691 181 681 L183 593 L111 643 C103 649 91 646 86 639 C79 630 75 623 67 612 C62 603 64 591 73 585 L156 535 L73 485 C64 479 62 467 68 458 L85 431 C90 423 103 420 111 426 L183 476 L181 389 C181 379 190 370 200 370 L200 370 Z " />
<glyph glyph-name="plus" unicode="&#x2b;" horiz-adv-x="600" d="M253 150 C253 140 262 132 272 132 L328 132 C338 132 347 140 347 150 L347 299 L498 299 C508 299 516 308 516 318 L516 374 C516 384 508 393 498 393 L347 393 L347 544 C347 554 338 562 328 562 L272 562 C262 562 253 554 253 544 L253 393 L103 393 C93 393 84 384 84 374 L84 318 C84 308 93 299 103 299 L253 299 L253 150 Z " />
<glyph glyph-name="comma" unicode="&#x2c;" horiz-adv-x="267" d="M40 90 C40 47 64 12 109 12 C123 12 136 16 146 23 C148 17 149 11 149 2 C149 -45 123 -95 93 -134 C86 -142 84 -151 92 -159 L123 -181 C131 -188 139 -187 146 -180 C186 -127 226 -57 226 39 C226 125 181 171 126 171 C76 171 40 136 40 90 L40 90 Z " />
<glyph glyph-name="hyphen" unicode="&#x2d;" horiz-adv-x="371" d="M74 192 L297 192 C308 192 316 200 316 210 L316 277 C316 288 308 296 297 296 L74 296 C63 296 55 288 55 277 L55 210 C55 200 63 192 74 192 L74 192 Z " />
<glyph glyph-name="period" unicode="&#x2e;" horiz-adv-x="269" d="M39 84 C39 33 82 -11 134 -11 C186 -11 230 33 230 84 C230 136 186 180 134 180 C82 180 39 136 39 84 L39 84 Z " />
<glyph glyph-name="slash" unicode="&#x2f;" horiz-adv-x="414" d="M55 25 C51 11 60 0 73 0 L146 0 C153 0 162 6 164 13 L359 675 C363 689 355 700 341 700 L269 700 C261 700 253 694 251 687 L55 25 Z " />
<glyph glyph-name="zero" unicode="0" horiz-adv-x="641" d="M320 -10 C485 -10 580 125 580 350 C580 576 485 710 320 710 C156 710 61 576 61 350 C61 125 156 -10 320 -10 L320 -10 Z M320 108 C241 108 191 197 191 350 C191 503 241 591 320 591 C400 591 450 503 450 350 C450 197 400 108 320 108 L320 108 Z " />
<glyph glyph-name="one" unicode="1" horiz-adv-x="373" d="M151 20 C151 9 159 0 171 0 L259 0 C270 0 278 9 278 20 L278 681 C278 691 270 700 259 700 L207 700 C193 700 182 696 172 687 L44 579 C35 572 33 568 34 557 L40 507 C41 497 51 491 61 493 L151 513 L151 20 Z " />
<glyph glyph-name="two" unicode="2" horiz-adv-x="553" d="M247 112 C301 181 379 277 422 339 C462 397 491 438 491 505 C491 616 409 710 261 710 C139 710 58 609 58 609 C51 601 53 588 59 582 L109 533 C117 524 128 524 137 533 C160 558 203 593 252 593 C326 593 361 546 361 500 C361 465 341 425 309 386 C243 299 120 139 50 53 C47 49 42 41 42 30 L42 20 C42 9 50 0 61 0 L467 0 C478 0 487 9 487 20 L487 91 C487 101 478 110 467 110 L247 110 L247 112 Z " />
<glyph glyph-name="three" unicode="3" horiz-adv-x="558" d="M48 81 C71 55 134 -10 262 -10 C404 -10 499 74 499 191 C499 282 430 337 375 358 L375 362 C421 383 481 432 481 521 C481 637 381 710 261 710 C162 710 98 657 68 619 C61 611 59 599 68 592 L118 545 C127 537 139 538 146 546 C163 567 196 595 250 595 C302 595 350 557 350 501 C350 448 307 407 222 407 L164 407 C152 407 145 400 145 386 L145 321 C145 309 153 301 164 301 L222 301 C315 301 364 261 364 195 C364 142 318 102 255 102 C192 102 156 130 128 158 C120 166 111 166 102 158 L49 107 C43 100 42 89 48 81 L48 81 Z " />
<glyph glyph-name="four" unicode="4" horiz-adv-x="638" d="M49 149 L367 149 L367 20 C367 9 377 0 387 0 L472 0 C483 0 492 9 492 20 L491 149 L573 149 C585 149 593 159 593 169 L593 238 C593 248 585 256 573 256 L491 256 L491 690 C491 701 482 710 471 710 L422 710 C409 710 403 707 396 699 L42 269 C33 259 29 248 29 234 L29 169 C29 159 38 149 49 149 L49 149 Z M167 255 L369 502 L371 502 L371 253 L167 253 L167 255 Z " />
<glyph glyph-name="five" unicode="5" horiz-adv-x="565" d="M70 75 C95 44 162 -10 273 -10 C415 -10 522 97 522 226 C522 360 432 454 286 454 L197 454 L197 591 L426 591 C437 591 446 600 446 611 L446 681 C446 691 437 700 426 700 L101 700 C89 700 81 691 81 681 L81 377 C81 360 92 341 113 341 L272 341 C353 341 396 289 396 226 C396 161 347 104 277 104 C215 104 173 138 144 162 C136 169 126 167 119 161 L68 110 C55 98 56 91 70 75 L70 75 Z " />
<glyph glyph-name="six" unicode="6" horiz-adv-x="581" d="M55 274 C55 119 139 -10 300 -10 C427 -10 533 96 533 226 C533 373 426 449 323 449 C275 449 223 431 206 420 C238 534 384 598 432 613 C452 619 456 631 451 643 L427 704 C423 717 413 722 398 718 C310 689 55 575 55 274 L55 274 Z M299 105 C216 105 179 188 179 259 C190 296 230 349 298 349 C364 349 417 297 417 228 C417 155 364 105 299 105 L299 105 Z " />
<glyph glyph-name="seven" unicode="7" horiz-adv-x="517" d="M332 587 L71 41 C67 33 66 28 66 20 C66 3 79 0 91 0 L168 0 C185 0 195 11 203 28 L506 666 C510 674 510 677 510 681 C510 691 500 700 490 700 L61 700 C51 700 42 691 42 681 L42 609 C42 598 51 589 61 589 L332 589 L332 587 Z " />
<glyph glyph-name="eight" unicode="8" horiz-adv-x="607" d="M59 187 C59 75 154 -10 301 -10 C453 -10 548 75 548 187 C548 276 485 333 423 359 L423 364 C470 386 529 443 529 521 C529 636 430 710 301 710 C177 710 78 636 78 521 C78 441 135 384 184 363 L184 359 C126 333 59 277 59 187 L59 187 Z M304 419 C239 435 210 470 210 516 C210 565 247 604 301 604 C359 604 397 565 397 516 C397 472 367 434 304 419 L304 419 Z M196 190 C196 236 235 283 304 299 C373 283 411 236 411 190 C411 133 368 95 304 95 C239 95 196 133 196 190 L196 190 Z " />
<glyph glyph-name="nine" unicode="9" horiz-adv-x="581" d="M130 57 L154 -4 C158 -17 168 -23 183 -18 C271 10 526 125 526 426 C526 580 442 710 281 710 C154 710 48 604 48 474 C48 327 155 250 258 250 C306 250 358 269 375 279 C344 166 197 102 149 87 C129 80 125 69 130 57 L130 57 Z M283 351 C217 351 164 406 164 472 C164 537 217 594 282 594 C365 594 402 511 402 441 C391 404 351 351 283 351 L283 351 Z " />
<glyph glyph-name="colon" unicode="&#x3a;" horiz-adv-x="283" d="M141 307 C188 307 225 343 225 390 C225 436 188 472 141 472 C95 472 58 436 58 390 C58 343 95 307 141 307 L141 307 Z M58 72 C58 26 95 -11 141 -11 C188 -11 225 26 225 72 C225 119 188 155 141 155 C95 155 58 119 58 72 L58 72 Z " />
<glyph glyph-name="semicolon" unicode="&#x3b;" horiz-adv-x="271" d="M138 307 C184 307 220 343 220 390 C220 436 184 472 138 472 C91 472 55 436 55 390 C55 343 91 307 138 307 L138 307 Z M52 70 C52 31 74 0 114 0 C127 0 139 4 148 10 C149 4 150 -1 150 -9 C150 -51 127 -96 100 -131 C94 -139 92 -147 99 -154 L127 -174 C134 -180 141 -179 148 -173 C184 -125 220 -62 220 24 C220 102 179 143 130 143 C85 143 52 112 52 70 L52 70 Z " />
<glyph glyph-name="less" unicode="&#x3c;" horiz-adv-x="600" d="M103 210 L450 5 C463 -3 478 5 478 21 L478 91 C478 100 473 104 469 107 L254 231 L469 359 C473 362 478 366 478 375 L478 445 C478 461 463 469 450 461 L103 249 C98 246 93 238 93 232 L93 227 C93 221 98 213 103 210 L103 210 Z " />
<glyph glyph-name="equal" unicode="&#x3d;" horiz-adv-x="600" d="M137 338 L463 338 C474 338 482 347 482 357 L482 413 C482 423 474 432 463 432 L137 432 C126 432 118 423 118 413 L118 357 C118 347 126 338 137 338 L137 338 Z M137 127 L463 127 C474 127 482 136 482 146 L482 203 C482 213 474 222 463 222 L137 222 C126 222 118 213 118 203 L118 146 C118 136 126 127 137 127 L137 127 Z " />
<glyph glyph-name="greater" unicode="&#x3e;" horiz-adv-x="600" d="M122 21 C122 5 137 -3 150 5 L497 210 C502 213 507 221 507 227 L507 232 C507 238 502 246 497 249 L150 461 C137 469 122 461 122 445 L122 375 C122 366 126 362 131 359 L345 231 L131 107 C126 104 122 100 122 91 L122 21 Z " />
<glyph glyph-name="question" unicode="&#x3f;" horiz-adv-x="498" d="M189 272 L270 272 C283 272 290 281 290 293 L290 326 C290 386 442 421 442 542 C442 640 353 710 248 710 C120 710 52 622 52 622 C45 615 44 603 52 596 L99 550 C106 544 113 544 121 549 C141 562 168 601 229 601 C279 601 309 570 309 534 C309 464 170 428 170 333 L170 291 C170 280 179 272 189 272 L189 272 Z M147 72 C147 27 184 -10 229 -10 C274 -10 312 27 312 72 C312 117 274 155 229 155 C184 155 147 117 147 72 L147 72 Z " />
<glyph glyph-name="at" unicode="&#x40;" horiz-adv-x="1015" d="M57 223 C57 13 191 -161 372 -227 C382 -231 390 -226 394 -216 L418 -153 C422 -142 418 -134 407 -129 C266 -70 166 60 166 223 C166 460 308 607 529 607 C748 607 857 466 857 283 C857 195 819 122 754 122 C721 122 692 138 692 228 L692 411 C692 422 683 430 673 430 L656 430 C619 430 621 414 609 381 C593 398 552 440 488 440 C381 440 304 351 304 231 C304 116 380 20 485 20 C548 20 594 56 615 98 L623 98 C639 56 673 20 742 20 C888 20 969 156 969 288 C969 529 810 710 533 710 C249 710 57 507 57 223 L57 223 Z M408 238 C411 298 446 339 494 339 C542 339 575 297 580 273 L580 236 C578 181 559 127 495 127 C447 127 404 174 408 238 L408 238 Z " />
<glyph glyph-name="A" unicode="A" horiz-adv-x="668" d="M19 0 L106 0 C122 0 131 10 135 20 L184 128 L483 128 L532 20 C539 6 546 0 561 0 L648 0 C663 0 671 13 665 26 L357 699 C354 705 350 710 340 710 L330 710 C321 710 316 705 313 699 L2 26 C-4 13 4 0 19 0 L19 0 Z M233 239 L331 459 L334 459 L434 239 L233 239 Z " />
<glyph glyph-name="B" unicode="B" horiz-adv-x="616" d="M444 359 C496 385 544 440 544 515 C544 620 452 700 333 700 L104 700 C93 700 85 691 85 681 L85 19 C85 9 93 0 104 0 L346 0 C468 0 564 81 564 193 C564 287 502 334 444 354 L444 359 Z M214 406 L214 581 L323 581 C374 581 407 546 407 496 C407 446 374 406 323 406 L214 406 Z M214 118 L214 296 L337 296 C387 296 425 259 425 209 C425 157 387 118 337 118 L214 118 Z " />
<glyph glyph-name="C" unicode="C" horiz-adv-x="688" d="M44 349 C44 149 205 -10 405 -10 C494 -10 580 21 648 87 C655 94 657 107 649 114 L587 178 C581 184 570 185 562 178 C520 144 469 121 409 121 C281 121 185 227 185 352 C185 478 280 585 408 585 C464 585 520 563 562 526 C570 518 580 518 587 526 L648 589 C656 597 656 609 647 617 C579 678 506 710 405 710 C205 710 44 549 44 349 L44 349 Z " />
<glyph glyph-name="D" unicode="D" horiz-adv-x="735" d="M85 19 C85 9 93 0 103 0 L340 0 C533 0 691 157 691 351 C691 543 533 700 340 700 L103 700 C93 700 85 691 85 681 L85 19 Z M214 122 L214 579 L328 579 C458 579 553 487 553 351 C553 214 458 122 328 122 L214 122 Z " />
<glyph glyph-name="E" unicode="E" horiz-adv-x="576" d="M85 19 C85 9 93 0 104 0 L511 0 C522 0 530 9 530 19 L530 101 C530 111 522 120 511 120 L215 120 L215 295 L462 295 C472 295 481 303 481 314 L481 397 C481 407 472 416 462 416 L215 416 L215 580 L511 580 C522 580 530 589 530 599 L530 681 C530 691 522 700 511 700 L104 700 C93 700 85 691 85 681 L85 19 Z " />
<glyph glyph-name="F" unicode="F" horiz-adv-x="557" d="M85 19 C85 9 93 0 104 0 L196 0 C206 0 215 9 215 19 L215 272 L462 272 C472 272 481 281 481 291 L481 373 C481 383 472 392 462 392 L215 392 L215 580 L511 580 C522 580 530 589 530 599 L530 681 C530 691 522 700 511 700 L104 700 C93 700 85 691 85 681 L85 19 Z " />
<glyph glyph-name="G" unicode="G" horiz-adv-x="718" d="M44 349 C44 149 204 -9 403 -9 C548 -9 651 56 651 56 C655 59 659 64 659 72 L659 328 C659 338 651 347 641 347 L449 347 C438 347 430 339 430 328 L430 249 C430 239 438 231 449 231 L529 231 L529 146 C509 138 466 121 410 121 C284 121 185 226 185 350 C185 475 284 582 409 582 C464 582 517 562 560 524 C569 516 578 516 586 524 L648 589 C656 597 655 609 647 617 C579 675 493 710 403 710 C204 710 44 549 44 349 L44 349 Z " />
<glyph glyph-name="H" unicode="H" horiz-adv-x="757" d="M85 19 C85 9 94 0 104 0 L197 0 C208 0 216 9 216 19 L216 295 L542 295 L542 19 C542 9 550 0 561 0 L653 0 C663 0 672 9 672 19 L672 681 C672 691 663 700 653 700 L561 700 C550 700 542 691 542 681 L542 416 L216 416 L216 681 C216 691 208 700 197 700 L104 700 C94 700 85 691 85 681 L85 19 Z " />
<glyph glyph-name="I" unicode="I" horiz-adv-x="301" d="M85 19 C85 9 94 0 104 0 L197 0 C207 0 216 9 216 19 L216 681 C216 691 207 700 197 700 L104 700 C94 700 85 691 85 681 L85 19 Z " />
<glyph glyph-name="J" unicode="J" horiz-adv-x="456" d="M14 63 C31 42 79 -10 166 -10 C283 -10 376 60 376 199 L376 681 C376 691 368 700 357 700 L263 700 C252 700 244 691 244 681 L244 199 C244 130 205 108 164 108 C131 108 111 126 98 140 C89 149 79 151 68 141 L16 88 C10 81 9 71 14 63 L14 63 Z " />
<glyph glyph-name="K" unicode="K" horiz-adv-x="642" d="M85 24 C85 11 95 0 109 0 L197 0 C210 0 221 11 221 24 L221 329 L482 7 C484 4 490 0 500 0 L609 0 C629 0 637 22 627 35 L347 370 L608 664 C621 679 611 700 592 700 L492 700 C483 700 477 695 473 690 L221 406 L221 676 C221 689 210 700 197 700 L109 700 C95 700 85 689 85 676 L85 24 Z " />
<glyph glyph-name="L" unicode="L" horiz-adv-x="505" d="M85 19 C85 9 93 0 104 0 L470 0 C481 0 489 9 489 19 L489 101 C489 111 481 120 470 120 L215 120 L215 681 C215 691 206 700 196 700 L104 700 C93 700 85 691 85 681 L85 19 Z " />
<glyph glyph-name="M" unicode="M" horiz-adv-x="876" d="M47 23 C45 9 53 0 66 0 L156 0 C165 0 173 8 174 15 L232 394 C233 394 235 394 235 394 L412 1 C415 -5 420 -10 429 -10 L447 -10 C456 -10 462 -5 464 1 L639 394 C639 394 641 394 642 394 L701 15 C703 8 711 0 720 0 L811 0 C824 0 832 9 829 23 L711 695 C710 703 704 710 693 710 L677 710 C668 710 663 706 660 700 L440 228 C439 228 439 228 437 228 L217 700 C214 706 208 710 200 710 L184 710 C173 710 167 703 166 695 L47 23 Z " />
<glyph glyph-name="N" unicode="N" horiz-adv-x="761" d="M85 19 C85 9 94 0 104 0 L195 0 C206 0 214 9 214 19 L214 449 L216 449 L626 -3 C631 -8 636 -10 643 -10 L657 -10 C667 -10 676 -2 676 8 L676 681 C676 691 667 700 657 700 L565 700 C554 700 546 691 546 681 L546 268 L544 268 L136 703 C131 708 126 710 119 710 L104 710 C94 710 85 702 85 692 L85 19 Z " />
<glyph glyph-name="O" unicode="O" horiz-adv-x="807" d="M44 349 C44 149 203 -10 403 -10 C603 -10 763 149 763 349 C763 549 603 710 403 710 C203 710 44 549 44 349 L44 349 Z M174 349 C174 475 277 580 403 580 C529 580 633 475 633 349 C633 223 529 120 403 120 C277 120 174 223 174 349 L174 349 Z " />
<glyph glyph-name="P" unicode="P" horiz-adv-x="589" d="M85 19 C85 9 93 0 104 0 L196 0 C206 0 215 9 215 19 L215 254 L340 254 C462 254 563 355 563 479 C563 600 462 700 339 700 L104 700 C93 700 85 691 85 681 L85 19 Z M215 376 L215 577 L335 577 C391 577 434 535 434 480 C434 421 391 376 335 376 L215 376 Z " />
<glyph glyph-name="Q" unicode="Q" horiz-adv-x="807" d="M44 349 C44 149 203 -10 403 -10 C415 -10 432 -9 448 -7 L555 -188 C558 -194 567 -198 571 -198 L677 -198 C693 -198 702 -182 693 -168 L568 29 C684 93 763 213 763 349 C763 549 603 710 403 710 C203 710 44 549 44 349 L44 349 Z M174 349 C174 475 277 580 403 580 C529 580 633 475 633 349 C633 223 529 120 403 120 C277 120 174 223 174 349 L174 349 Z " />
<glyph glyph-name="R" unicode="R" horiz-adv-x="660" d="M85 19 C85 9 93 0 104 0 L196 0 C206 0 215 9 215 19 L215 274 L326 274 L459 9 C461 5 466 0 475 0 L580 0 C597 0 604 16 597 29 L460 283 C547 318 608 393 608 485 C608 604 510 700 390 700 L104 700 C93 700 85 691 85 681 L85 19 Z M216 381 L216 580 L379 580 C432 580 478 536 478 483 C478 427 432 381 379 381 L216 381 Z " />
<glyph glyph-name="S" unicode="S" horiz-adv-x="545" d="M276 -10 C417 -10 506 85 506 188 C506 317 394 375 297 414 C216 447 179 479 179 526 C179 564 210 596 267 596 C322 596 363 568 406 541 C418 533 433 541 441 553 L479 610 C486 620 483 637 473 643 C453 658 375 710 273 710 C114 710 48 607 48 518 C48 400 142 340 236 302 C320 268 363 233 363 182 C363 139 324 105 272 105 C207 105 162 136 121 167 C112 174 95 174 87 160 L51 98 C42 82 46 76 56 68 C85 43 150 -10 276 -10 L276 -10 Z " />
<glyph glyph-name="T" unicode="T" horiz-adv-x="527" d="M198 19 C198 9 207 0 217 0 L310 0 C320 0 329 9 329 19 L329 580 L482 580 C493 580 501 589 501 599 L501 681 C501 691 493 700 482 700 L45 700 C34 700 26 691 26 681 L26 599 C26 589 34 580 45 580 L198 580 L198 19 Z " />
<glyph glyph-name="U" unicode="U" horiz-adv-x="713" d="M78 257 C78 105 199 -10 356 -10 C514 -10 635 105 635 257 L635 681 C635 691 626 700 616 700 L521 700 C510 700 502 691 502 681 L502 263 C502 179 443 120 356 120 C269 120 211 179 211 264 L211 681 C211 691 203 700 192 700 L97 700 C87 700 78 691 78 681 L78 257 Z " />
<glyph glyph-name="V" unicode="V" horiz-adv-x="665" d="M310 1 C313 -5 318 -10 327 -10 L337 -10 C346 -10 351 -5 354 1 L664 674 C670 687 662 700 647 700 L545 700 C536 700 530 694 528 689 L335 259 L330 259 L137 689 C135 694 129 700 120 700 L18 700 C3 700 -5 687 1 674 L310 1 Z " />
<glyph glyph-name="W" unicode="W" horiz-adv-x="885" d="M211 4 C213 -4 221 -10 229 -10 L245 -10 C255 -10 259 -5 262 1 L439 454 L444 454 L623 1 C625 -5 631 -10 640 -10 L656 -10 C664 -10 672 -4 674 4 L863 676 C867 690 859 700 845 700 L753 700 C745 700 737 693 735 686 L633 287 L629 287 L469 699 C467 705 462 710 452 710 L434 710 C424 710 419 705 417 699 L258 287 L254 287 L150 686 C148 693 140 700 132 700 L40 700 C26 700 18 690 22 676 L211 4 Z " />
<glyph glyph-name="X" unicode="X" horiz-adv-x="622" d="M25 28 C17 15 25 0 43 0 L151 0 C159 0 165 5 168 9 L308 238 L312 238 L455 9 C457 5 464 0 472 0 L580 0 C597 0 605 14 597 28 L389 359 L590 672 C598 685 590 700 573 700 L457 700 C449 700 443 695 441 691 L312 479 L308 479 L182 691 C179 695 174 700 166 700 L50 700 C33 700 25 685 33 672 L233 359 L25 28 Z " />
<glyph glyph-name="Y" unicode="Y" horiz-adv-x="593" d="M231 19 C231 9 239 0 250 0 L342 0 C352 0 361 9 361 19 L361 338 L592 671 C600 684 592 700 576 700 L473 700 C465 700 460 695 457 691 L297 461 L137 691 C134 695 129 700 121 700 L19 700 C3 700 -5 684 3 671 L231 337 L231 19 Z " />
<glyph glyph-name="Z" unicode="Z" horiz-adv-x="538" d="M216 123 L501 652 C510 668 510 675 510 681 C510 691 501 700 491 700 L73 700 C63 700 54 691 54 681 L54 598 C54 588 63 579 73 579 L323 579 L323 575 L32 50 C25 37 25 30 25 19 C25 9 34 0 44 0 L471 0 C482 0 490 9 490 19 L490 102 C490 112 482 121 471 121 L216 121 L216 123 Z " />
<glyph glyph-name="bracketleft" unicode="&#x5b;" horiz-adv-x="353" d="M180 -138 L180 600 L310 600 C320 600 329 608 329 619 L329 681 C329 691 320 700 310 700 L84 700 C74 700 65 691 65 681 L65 -219 C65 -229 74 -238 84 -238 L310 -238 C320 -238 329 -229 329 -219 L329 -156 C329 -146 320 -138 310 -138 L180 -138 Z " />
<glyph glyph-name="backslash" unicode="&#x5c;" horiz-adv-x="416" d="M249 13 C251 6 260 0 267 0 L344 0 C357 0 366 11 362 25 L166 687 C164 694 156 700 148 700 L72 700 C58 700 50 689 54 675 L249 13 Z " />
<glyph glyph-name="bracketright" unicode="&#x5d;" horiz-adv-x="353" d="M43 -138 C33 -138 24 -146 24 -156 L24 -219 C24 -229 33 -238 43 -238 L269 -238 C279 -238 288 -229 288 -219 L288 681 C288 691 279 700 269 700 L43 700 C33 700 24 691 24 681 L24 619 C24 608 33 600 43 600 L173 600 L173 -138 L43 -138 Z " />
<glyph glyph-name="asciicircum" unicode="&#x5e;" horiz-adv-x="524" d="M53 385 L122 385 C129 385 135 390 138 394 L263 563 L386 394 C389 390 395 385 402 385 L471 385 C487 385 495 400 487 413 L284 704 C281 709 275 714 267 714 L262 714 C254 714 248 709 245 704 L37 413 C29 400 37 385 53 385 L53 385 Z " />
<glyph glyph-name="underscore" unicode="&#x5f;" horiz-adv-x="603" d="M113 -29 L113 -68 C113 -78 121 -86 132 -86 L471 -86 C482 -86 490 -78 490 -68 L490 -29 C490 -18 482 -10 471 -10 L132 -10 C121 -10 113 -18 113 -29 L113 -29 Z " />
<glyph glyph-name="grave" unicode="&#x60;" horiz-adv-x="302" d="M234 528 C248 522 255 525 259 534 L277 570 C281 578 277 586 271 589 L107 686 C98 692 86 692 81 683 L53 632 C46 619 51 609 59 605 L234 528 Z " />
<glyph glyph-name="a" unicode="a" horiz-adv-x="482" d="M32 147 C32 48 96 -11 188 -11 C260 -11 306 21 333 47 L346 16 C352 3 358 0 366 0 L400 0 C412 0 422 10 422 22 L422 271 C422 397 392 472 248 472 C173 472 100 453 90 449 C80 446 71 438 75 421 L85 369 C87 355 96 344 111 349 C138 357 199 366 241 366 C290 366 307 338 305 279 C305 279 263 292 216 292 C99 292 32 229 32 147 L32 147 Z M152 147 C152 188 181 213 234 213 C271 213 302 199 302 199 L302 131 C296 114 260 82 219 82 C176 82 152 108 152 147 L152 147 Z " />
<glyph glyph-name="b" unicode="b" horiz-adv-x="563" d="M64 22 C64 10 75 0 86 0 L121 0 C132 0 139 9 144 22 L155 58 C155 58 208 -11 309 -11 C435 -11 526 99 526 231 C526 366 439 472 302 472 C256 472 210 461 189 452 L189 678 C189 689 179 700 167 700 L86 700 C75 700 64 689 64 678 L64 22 Z M189 167 L189 332 C189 332 227 358 285 358 C361 358 400 296 400 231 C400 166 363 103 291 103 C231 103 199 141 189 167 L189 167 Z " />
<glyph glyph-name="c" unicode="c" horiz-adv-x="492" d="M36 231 C36 92 145 -11 280 -11 C362 -11 424 25 463 86 C471 98 466 109 455 119 L410 157 C402 164 388 162 381 154 C361 131 334 103 283 103 C211 103 162 159 162 231 C162 302 212 358 284 358 C327 358 354 339 376 318 C385 309 396 304 406 315 L448 361 C458 371 463 384 453 394 C409 441 353 472 281 472 C144 472 36 367 36 231 L36 231 Z " />
<glyph glyph-name="d" unicode="d" horiz-adv-x="565" d="M36 231 C36 91 131 -11 257 -11 C355 -11 408 58 408 58 L420 22 C424 9 431 0 442 0 L479 0 C491 0 501 10 501 22 L501 678 C501 689 491 700 479 700 L398 700 C387 700 376 689 376 678 L376 453 C355 461 311 472 265 472 C127 472 36 366 36 231 L36 231 Z M376 167 C366 141 334 103 274 103 C202 103 165 166 165 231 C165 296 204 358 280 358 C338 358 376 332 376 332 L376 167 Z " />
<glyph glyph-name="e" unicode="e" horiz-adv-x="511" d="M36 231 C36 99 132 -11 270 -11 C345 -11 402 18 442 52 C453 62 452 73 444 82 L405 134 C398 144 386 143 375 134 C354 117 322 100 276 100 C209 100 162 150 161 207 L457 207 C467 207 478 216 479 228 C480 235 481 251 481 258 C481 383 389 472 269 472 C132 472 36 361 36 231 L36 231 Z M168 289 C174 335 210 369 266 369 C317 369 353 334 355 289 L168 289 Z " />
<glyph glyph-name="f" unicode="f" horiz-adv-x="394" d="M102 22 C102 10 112 0 124 0 L205 0 C217 0 227 10 227 22 L227 350 L353 350 C366 350 375 361 375 372 L375 440 C375 453 366 462 353 462 L227 462 L227 517 C227 565 237 596 295 596 C320 596 352 582 367 572 C377 566 390 569 395 578 L430 639 C435 647 433 660 425 665 C404 684 350 710 289 710 C167 710 102 640 102 517 L102 462 L54 462 C41 462 32 453 32 440 L32 372 C32 361 41 350 54 350 L102 350 L102 22 Z " />
<glyph glyph-name="g" unicode="g" horiz-adv-x="565" d="M376 129 C376 129 338 103 280 103 C204 103 165 165 165 230 C165 295 202 358 274 358 C334 358 366 320 376 294 L376 129 Z M501 440 C501 452 491 462 479 462 L442 462 C431 462 424 453 420 440 L408 403 C408 403 355 472 257 472 C131 472 36 370 36 230 C36 95 127 -11 265 -11 C311 -11 355 0 376 8 L376 -5 C376 -91 338 -115 267 -115 C219 -115 174 -90 157 -80 C147 -74 134 -77 130 -86 L100 -151 C95 -159 98 -171 105 -177 C127 -194 195 -229 271 -229 C397 -229 501 -154 501 -5 L501 440 Z " />
<glyph glyph-name="h" unicode="h" horiz-adv-x="552" d="M64 22 C64 10 75 0 86 0 L165 0 C183 0 189 9 189 22 L189 277 C201 324 231 358 285 358 C340 358 369 319 369 255 L369 22 C369 10 379 0 391 0 L472 0 C483 0 494 10 494 22 L494 254 C494 370 454 472 307 472 C252 472 212 453 189 433 L189 678 C189 689 179 700 167 700 L86 700 C75 700 64 689 64 678 L64 22 Z " />
<glyph glyph-name="i" unicode="i" horiz-adv-x="253" d="M64 22 C64 10 75 0 86 0 L167 0 C178 0 189 10 189 22 L189 440 C189 453 178 462 167 462 L86 462 C75 462 64 453 64 440 L64 22 Z M125 541 C170 541 205 577 205 621 C205 665 170 700 125 700 C80 700 46 665 46 621 C46 577 80 541 125 541 L125 541 Z " />
<glyph glyph-name="j" unicode="j" horiz-adv-x="253" d="M189 440 C189 453 178 462 167 462 L86 462 C75 462 64 453 64 440 L64 -36 C64 -98 26 -121 -7 -139 C-24 -148 -26 -161 -19 -179 L5 -235 C12 -253 33 -252 49 -245 C125 -212 189 -156 189 -19 L189 440 Z M125 541 C170 541 205 577 205 621 C205 665 170 700 125 700 C80 700 46 665 46 621 C46 577 80 541 125 541 L125 541 Z " />
<glyph glyph-name="k" unicode="k" horiz-adv-x="517" d="M64 22 C64 10 75 0 86 0 L167 0 C179 0 189 10 189 22 L189 217 L363 9 C366 4 375 0 383 0 L481 0 C500 0 507 20 495 33 L303 248 L486 428 C497 441 490 462 471 462 L377 462 C364 462 356 455 348 448 L189 287 L189 678 C189 689 179 700 167 700 L86 700 C75 700 64 689 64 678 L64 22 Z " />
<glyph glyph-name="l" unicode="l" horiz-adv-x="255" d="M65 22 C65 10 76 0 87 0 L168 0 C179 0 190 10 190 22 L190 678 C190 689 179 700 168 700 L87 700 C76 700 65 689 65 678 L65 22 Z " />
<glyph glyph-name="m" unicode="m" horiz-adv-x="828" d="M64 22 C64 10 75 0 86 0 L167 0 C178 0 189 10 189 22 L189 286 C200 318 221 358 278 358 C337 358 354 321 354 261 L354 22 C354 10 363 0 376 0 L458 0 C469 0 480 10 480 22 L480 266 C480 287 478 310 478 310 C478 310 497 358 564 358 C622 358 644 321 644 261 L644 22 C644 10 654 0 666 0 L746 0 C759 0 769 10 769 22 L769 258 C769 378 734 472 586 472 C503 472 457 423 437 402 C399 448 366 472 299 472 C218 472 177 427 158 405 L141 449 C139 457 132 462 122 462 L86 462 C75 462 64 453 64 440 L64 22 Z " />
<glyph glyph-name="n" unicode="n" horiz-adv-x="553" d="M64 22 C64 10 75 0 86 0 L160 0 C182 0 189 5 189 22 L189 286 C200 318 229 358 289 358 C345 358 369 321 369 261 L369 22 C369 10 379 0 391 0 L472 0 C483 0 494 10 494 22 L494 261 C494 373 456 472 309 472 C220 472 177 424 160 405 L143 448 C140 457 135 462 124 462 L86 462 C75 462 64 453 64 440 L64 22 Z " />
<glyph glyph-name="o" unicode="o" horiz-adv-x="544" d="M36 232 C36 100 142 -11 272 -11 C403 -11 509 100 509 232 C509 362 403 472 272 472 C142 472 36 362 36 232 L36 232 Z M152 232 C152 302 205 358 272 358 C339 358 393 302 393 232 C393 161 339 103 272 103 C205 103 152 161 152 232 L152 232 Z " />
<glyph glyph-name="p" unicode="p" horiz-adv-x="566" d="M529 230 C529 370 434 472 308 472 C210 472 157 403 157 403 L145 440 C141 453 134 462 123 462 L86 462 C74 462 64 452 64 440 L64 -216 C64 -227 74 -238 86 -238 L167 -238 C178 -238 189 -227 189 -216 L189 8 C210 0 254 -11 300 -11 C438 -11 529 95 529 230 L529 230 Z M189 294 C199 320 231 358 291 358 C363 358 400 295 400 230 C400 165 361 103 285 103 C227 103 189 129 189 129 L189 294 Z " />
<glyph glyph-name="q" unicode="q" horiz-adv-x="565" d="M36 230 C36 95 127 -11 265 -11 C311 -11 355 0 376 8 L376 -216 C376 -227 387 -238 398 -238 L479 -238 C491 -238 501 -227 501 -216 L501 440 C501 452 491 462 479 462 L442 462 C431 462 424 453 420 440 L408 403 C408 403 355 472 257 472 C131 472 36 370 36 230 L36 230 Z M376 129 C376 129 338 103 280 103 C204 103 165 165 165 230 C165 295 202 358 274 358 C334 358 366 320 376 294 L376 129 Z " />
<glyph glyph-name="r" unicode="r" horiz-adv-x="387" d="M64 22 C64 10 75 0 86 0 L163 0 C178 0 189 5 189 22 L189 310 C197 326 227 358 277 358 C298 358 309 354 320 349 C331 344 342 348 347 359 L377 427 C390 457 345 472 290 472 C219 472 176 425 160 402 L143 447 C139 457 134 462 123 462 L86 462 C75 462 64 453 64 440 L64 22 Z " />
<glyph glyph-name="s" unicode="s" horiz-adv-x="413" d="M201 -11 C317 -11 379 54 379 127 C379 219 315 251 226 287 C183 305 160 316 160 337 C160 352 173 367 204 367 C242 367 274 354 296 344 C306 340 318 342 325 353 L351 406 C357 418 351 430 341 438 C316 454 272 472 204 472 C91 472 38 407 38 337 C38 267 78 225 167 191 C228 167 254 148 254 127 C254 107 238 94 203 94 C155 94 122 111 101 124 C90 131 79 127 74 116 L44 56 C39 46 44 35 50 31 C76 13 124 -11 201 -11 L201 -11 Z " />
<glyph glyph-name="t" unicode="t" horiz-adv-x="390" d="M95 138 C95 58 121 -11 224 -11 C272 -11 338 10 354 19 C365 25 370 34 367 46 L354 107 C352 118 341 124 328 119 C316 115 278 104 258 104 C235 104 220 111 220 142 L220 350 L328 350 C340 350 350 361 350 372 L350 440 C350 453 340 462 328 462 L220 462 L220 590 C220 602 211 612 199 612 L117 612 C106 612 95 602 95 590 L95 462 L50 462 C38 462 29 453 29 440 L29 372 C29 361 38 350 50 350 L95 350 L95 138 Z " />
<glyph glyph-name="u" unicode="u" horiz-adv-x="533" d="M59 195 C59 78 90 -11 233 -11 C304 -11 352 31 376 56 L389 17 C392 8 400 0 411 0 L447 0 C459 0 469 10 469 22 L469 440 C469 453 459 462 447 462 L369 462 C350 462 344 458 344 440 L344 189 C337 149 313 103 262 103 C205 103 184 134 184 195 L184 440 C184 453 174 462 162 462 L81 462 C69 462 59 453 59 440 L59 195 Z " />
<glyph glyph-name="v" unicode="v" horiz-adv-x="491" d="M222 1 C226 -5 232 -11 242 -11 L248 -11 C258 -11 264 -5 268 1 L476 435 C484 449 477 462 460 462 L376 462 C363 462 353 461 347 449 L245 221 C245 221 244 221 243 221 L147 449 C143 457 137 462 126 462 L31 462 C14 462 8 449 15 435 L222 1 Z " />
<glyph glyph-name="w" unicode="w" horiz-adv-x="713" d="M167 2 C169 -5 176 -11 187 -11 L193 -11 C201 -11 208 -6 211 0 L356 278 C356 278 357 278 357 278 L502 0 C506 -6 511 -11 521 -11 L525 -11 C536 -11 544 -5 546 2 L688 436 C693 450 683 462 667 462 L597 462 C585 462 575 461 571 448 L502 228 C502 228 501 228 501 228 L381 462 C378 468 373 472 362 472 L353 472 C342 472 337 467 335 462 L214 228 C214 228 213 228 213 228 L143 448 C141 457 129 462 123 462 L45 462 C29 462 19 450 26 436 L167 2 Z " />
<glyph glyph-name="x" unicode="x" horiz-adv-x="513" d="M41 0 L145 0 C152 0 160 4 164 9 L254 146 L256 146 L341 19 C349 7 358 0 373 0 L469 0 C488 0 493 19 482 34 L339 237 L481 428 C493 443 488 462 468 462 L370 462 C354 462 344 459 335 446 L256 325 L254 325 L177 446 C166 461 154 462 139 462 L48 462 C29 462 20 443 32 428 L173 235 L26 34 C16 19 21 0 41 0 L41 0 Z " />
<glyph glyph-name="y" unicode="y" horiz-adv-x="499" d="M165 27 L72 -207 C65 -223 74 -238 92 -238 L188 -238 C197 -238 205 -231 208 -224 L480 432 C487 447 478 462 460 462 L375 462 C361 462 353 461 346 449 L241 173 L239 173 L156 449 C154 457 147 462 137 462 L41 462 C23 462 15 448 21 432 L165 27 Z " />
<glyph glyph-name="z" unicode="z" horiz-adv-x="408" d="M207 113 L207 115 L381 430 C383 434 384 437 384 441 C384 453 375 462 361 462 L63 462 C52 462 42 453 42 440 L42 370 C42 359 52 348 63 348 L202 348 L202 346 L37 43 C32 34 32 30 32 22 C32 10 42 0 54 0 L339 0 C351 0 361 10 361 22 L361 91 C361 103 351 113 339 113 L207 113 Z " />
<glyph glyph-name="braceleft" unicode="&#x7b;" horiz-adv-x="396" d="M103 4 C103 -216 248 -244 351 -248 C361 -249 370 -241 371 -231 L375 -168 C376 -157 368 -151 361 -149 C283 -133 227 -98 227 4 L227 101 C227 182 171 215 144 226 L144 230 C153 234 227 274 227 360 L227 455 C227 557 283 595 361 612 C368 613 376 619 375 630 L371 693 C370 705 362 711 351 710 C248 706 103 675 103 455 L103 338 C103 295 42 271 33 269 C26 267 19 262 19 252 L19 203 C19 193 26 186 34 185 C58 181 103 162 103 117 L103 4 Z " />
<glyph glyph-name="bar" unicode="&#x7c;" horiz-adv-x="178" d="M64 -220 C64 -230 73 -238 83 -238 L95 -238 C105 -238 114 -230 114 -220 L114 741 C114 752 106 760 96 760 L83 760 C73 760 64 752 64 741 L64 -220 Z " />
<glyph glyph-name="braceright" unicode="&#x7d;" horiz-adv-x="396" d="M169 4 C169 -98 113 -134 35 -150 C28 -152 20 -158 21 -169 L25 -232 C26 -242 33 -249 45 -249 C148 -245 293 -216 293 4 L293 117 C293 162 338 181 362 185 C370 186 377 193 377 203 L377 252 C377 262 370 267 363 269 C354 271 293 295 293 338 L293 455 C293 675 148 706 45 710 C34 711 26 705 25 693 L21 630 C20 619 28 613 35 612 C113 595 169 557 169 455 L169 360 C169 274 243 234 252 230 L252 226 C225 215 169 182 169 101 L169 4 Z " />
<glyph glyph-name="asciitilde" unicode="&#x7e;" horiz-adv-x="544" d="M84 194 C92 185 105 186 112 196 C125 216 152 247 186 247 C212 247 232 232 251 219 C282 199 313 176 361 176 C438 176 508 274 508 274 C514 281 513 292 506 298 L464 342 C455 350 443 350 435 340 C422 320 395 288 361 288 C333 288 308 307 288 320 C260 339 230 361 187 361 C109 361 37 262 37 262 C31 255 33 245 39 238 C56 222 68 210 84 194 L84 194 Z " />
<glyph glyph-name="uni00A0" unicode="&#xa0;" horiz-adv-x="240" d="" />
<glyph glyph-name="exclamdown" unicode="&#xa1;" horiz-adv-x="248" d="M125 307 C169 307 206 345 206 390 C206 435 169 472 125 472 C79 472 42 435 42 390 C42 345 79 307 125 307 L125 307 Z M89 174 L50 -107 L50 -219 C50 -229 59 -238 69 -238 L179 -238 C189 -238 198 -229 198 -219 L198 -105 L159 174 C158 182 149 190 140 190 L108 190 C99 190 90 182 89 174 L89 174 Z " />
<glyph glyph-name="cent" unicode="&#xa2;" horiz-adv-x="543" d="M61 231 C61 128 120 45 206 9 L175 -106 C173 -118 179 -129 191 -131 L203 -135 C215 -138 228 -131 231 -120 L261 -7 C275 -10 290 -11 305 -11 C387 -11 449 25 488 86 C496 98 491 109 480 119 L435 157 C427 164 413 162 406 154 C386 131 359 103 308 103 C302 103 297 103 291 104 L357 348 C375 341 388 330 401 318 C410 309 421 304 431 315 L473 361 C483 371 488 384 478 394 C452 421 422 444 387 457 L399 503 C403 516 396 527 384 529 L370 532 C359 537 346 529 343 518 L330 470 C322 471 314 472 306 472 C169 472 61 367 61 231 L61 231 Z M187 231 C187 299 232 353 299 357 L237 125 C205 148 187 186 187 231 L187 231 Z " />
<glyph glyph-name="sterling" unicode="&#xa3;" horiz-adv-x="600" d="M122 19 C122 9 131 0 141 0 L472 0 C482 0 490 9 490 19 L490 92 C490 103 482 111 472 111 L276 111 C295 172 296 243 290 291 L396 291 C407 291 415 299 415 309 L415 323 C415 333 407 342 396 342 L280 342 C269 396 242 453 242 503 C242 561 284 597 330 597 C374 597 426 551 426 551 C434 545 446 544 453 554 L502 613 C509 621 508 633 500 639 C475 661 422 710 329 710 C212 710 117 631 117 498 C117 441 136 387 147 342 L116 342 C106 342 98 333 98 323 L98 310 C98 300 106 291 116 291 L159 291 C173 216 172 131 122 37 L122 19 Z " />
<glyph glyph-name="currency" unicode="&#xa4;" horiz-adv-x="493" d="M115 161 C122 154 135 154 142 161 L190 209 C208 200 227 196 247 196 C266 196 286 200 304 209 L352 161 C359 154 371 155 378 162 L418 201 C425 209 425 221 418 228 L371 275 C379 292 383 311 383 330 C383 350 378 370 370 389 L417 436 C424 443 423 455 416 462 L377 502 C369 509 357 509 350 502 L303 455 C285 463 266 468 247 468 C228 468 208 463 191 455 L144 502 C137 509 124 509 117 502 L77 463 C70 456 70 443 77 436 L125 388 C116 370 112 351 112 332 C112 313 116 294 124 276 L76 228 C69 221 69 208 76 201 L115 161 Z M246 281 C217 281 195 303 195 332 C195 362 217 384 246 384 C276 384 298 362 298 332 C298 303 276 281 246 281 L246 281 Z " />
<glyph glyph-name="yen" unicode="&#xa5;" horiz-adv-x="600" d="M123 120 L234 120 L234 19 C234 9 242 0 253 0 L345 0 C355 0 364 9 364 19 L364 120 L473 120 C484 120 492 128 492 138 L492 152 C492 162 484 171 473 171 L364 171 L364 240 L473 240 C484 240 492 248 492 258 L492 272 C492 282 484 291 473 291 L364 291 L364 338 L575 671 C583 684 575 700 559 700 L457 700 C448 700 444 695 441 691 L301 461 L161 691 C158 695 152 700 145 700 L42 700 C26 700 18 684 26 671 L234 337 L234 291 L123 291 C113 291 105 282 105 272 L105 259 C105 249 113 240 123 240 L234 240 L234 171 L123 171 C113 171 105 162 105 152 L105 139 C105 129 113 120 123 120 L123 120 Z " />
<glyph glyph-name="brokenbar" unicode="&#xa6;" horiz-adv-x="186" d="M87 392 L99 392 C109 392 118 400 118 410 L118 741 C118 752 110 760 100 760 L87 760 C77 760 68 752 68 741 L68 410 C68 400 77 392 87 392 L87 392 Z M68 111 L68 -220 C68 -230 77 -238 87 -238 L99 -238 C109 -238 118 -230 118 -220 L118 111 C118 122 110 130 100 130 L87 130 C77 130 68 122 68 111 L68 111 Z " />
<glyph glyph-name="section" unicode="&#xa7;" horiz-adv-x="561" d="M99 -88 L68 -141 C57 -157 63 -165 73 -175 C90 -191 160 -249 282 -249 C417 -249 502 -161 502 -63 C502 12 454 60 429 83 C457 108 502 159 502 222 C502 340 395 394 300 432 C223 463 187 494 187 537 C187 568 216 601 273 601 C325 601 389 560 402 551 C417 541 427 544 435 556 L476 615 C483 626 478 641 469 646 C451 659 376 710 278 710 C125 710 63 615 63 529 C63 458 109 411 135 387 C104 361 63 316 63 251 C63 145 153 84 243 47 C300 23 363 -12 363 -70 C363 -117 319 -138 278 -138 C214 -138 141 -83 134 -80 C119 -69 107 -75 99 -88 L99 -88 Z M183 260 C183 306 213 329 219 335 C306 308 370 272 370 218 C370 163 330 138 330 138 C243 178 183 200 183 260 L183 260 Z " />
<glyph glyph-name="dieresis" unicode="&#xa8;" horiz-adv-x="414" d="M313 542 C354 542 386 574 386 615 C386 656 354 687 313 687 C272 687 241 656 241 615 C241 574 272 542 313 542 L313 542 Z M112 542 C153 542 185 574 185 615 C185 656 153 687 112 687 C71 687 40 656 40 615 C40 574 71 542 112 542 L112 542 Z " />
<glyph glyph-name="copyright" unicode="&#xa9;" horiz-adv-x="829" d="M55 350 C55 152 216 -9 414 -9 C612 -9 774 152 774 350 C774 548 612 710 414 710 C216 710 55 548 55 350 L55 350 Z M133 350 C133 506 259 631 414 631 C570 631 695 506 695 350 C695 195 570 69 414 69 C259 69 133 195 133 350 L133 350 Z M236 348 C236 245 320 161 423 161 C466 161 502 173 537 203 C545 211 545 223 538 231 L502 271 C496 278 485 279 477 273 C460 262 443 257 424 257 C371 257 332 298 332 351 C332 402 371 445 424 445 C443 445 461 441 478 429 C486 424 497 423 503 431 L537 469 C545 478 544 490 535 498 C502 524 463 536 423 536 C320 536 236 453 236 348 L236 348 Z " />
<glyph glyph-name="ordfeminine" unicode="&#xaa;" horiz-adv-x="341" d="M136 398 C183 398 208 420 226 437 C228 430 232 423 234 416 C238 408 242 406 248 406 L275 406 C282 406 289 412 289 420 L289 581 C289 666 264 710 175 710 C128 710 80 698 74 695 C67 692 63 686 65 676 L71 643 C73 631 79 626 88 628 C105 632 139 640 166 640 C201 640 208 623 208 586 C208 586 185 594 154 594 C79 594 36 553 36 500 C36 438 78 398 136 398 L136 398 Z M156 462 C133 462 118 479 118 501 C118 524 137 541 162 541 C178 541 200 536 207 530 L207 497 C201 480 179 462 156 462 L156 462 Z " />
<glyph glyph-name="guillemotleft" unicode="&#xab;" horiz-adv-x="487" d="M239 224 L343 69 C346 65 351 61 358 61 L420 61 C437 61 442 75 435 91 L370 238 L438 377 C446 393 440 408 423 408 L366 408 C358 408 351 401 348 396 L239 248 C235 242 233 232 239 224 L239 224 Z M143 69 C146 65 151 61 158 61 L220 61 C237 61 242 75 235 91 L170 238 L238 377 C246 393 240 408 223 408 L166 408 C158 408 151 401 148 396 L39 248 C35 242 33 232 39 224 L143 69 Z " />
<glyph glyph-name="logicalnot" unicode="&#xac;" horiz-adv-x="577" d="M85 300 L403 300 L403 149 C403 139 412 131 422 131 L478 131 C488 131 497 139 497 149 L497 375 C497 384 489 394 478 394 L85 394 C75 394 66 385 66 375 L66 319 C66 309 75 300 85 300 L85 300 Z " />
<glyph glyph-name="uni00AD" unicode="&#xad;" horiz-adv-x="371" d="M74 192 L297 192 C308 192 316 200 316 210 L316 277 C316 288 308 296 297 296 L74 296 C63 296 55 288 55 277 L55 210 C55 200 63 192 74 192 L74 192 Z " />
<glyph glyph-name="registered" unicode="&#xae;" horiz-adv-x="829" d="M55 350 C55 152 216 -9 414 -9 C612 -9 774 152 774 350 C774 548 612 710 414 710 C216 710 55 548 55 350 L55 350 Z M133 350 C133 506 259 631 414 631 C570 631 695 506 695 350 C695 195 570 69 414 69 C259 69 133 195 133 350 L133 350 Z M280 187 C280 177 288 168 299 168 L348 168 C359 168 367 177 367 187 L367 294 L419 294 L463 182 C466 175 473 168 481 168 L535 168 C549 168 558 181 552 195 L506 299 C537 314 577 344 577 410 C577 488 516 534 454 534 L299 534 C288 534 280 525 280 515 L280 187 Z M364 368 L364 450 L443 450 C467 450 484 433 484 409 C484 386 467 368 443 368 L364 368 Z " />
<glyph glyph-name="macron" unicode="&#xaf;" horiz-adv-x="414" d="M79 570 L335 570 C346 570 354 578 354 588 L354 622 C354 633 346 641 335 641 L79 641 C68 641 60 633 60 622 L60 588 C60 578 68 570 79 570 L79 570 Z " />
<glyph glyph-name="degree" unicode="&#xb0;" horiz-adv-x="338" d="M169 440 C243 440 304 500 304 575 C304 650 243 710 169 710 C94 710 34 650 34 575 C34 500 94 440 169 440 L169 440 Z M169 524 C142 524 118 548 118 575 C118 601 142 624 169 624 C195 624 218 601 218 575 C218 548 195 524 169 524 L169 524 Z " />
<glyph glyph-name="plusminus" unicode="&#xb1;" horiz-adv-x="600" d="M253 260 C253 250 262 242 272 242 L328 242 C338 242 347 250 347 260 L347 363 L497 363 C507 363 515 372 515 382 L515 438 C515 448 507 457 497 457 L347 457 L347 605 C347 615 338 623 328 623 L272 623 C262 623 253 615 253 605 L253 457 L103 457 C93 457 84 448 84 438 L84 382 C84 372 93 363 103 363 L253 363 L253 260 Z M84 66 C84 56 93 47 103 47 L497 47 C507 47 515 56 515 66 L515 122 C515 132 507 141 497 141 L103 141 C93 141 84 132 84 122 L84 66 Z " />
<glyph glyph-name="twosuperior" unicode="&#xb2;" horiz-adv-x="280" d="M37 504 L232 504 C238 504 241 508 241 513 L241 559 C241 564 237 568 232 568 L152 568 L206 632 C229 660 243 688 243 718 C243 773 200 810 137 810 C85 810 49 781 43 776 C32 768 34 763 40 755 L62 724 C67 717 72 717 78 721 C86 730 104 741 122 741 C146 741 162 726 162 706 C162 692 154 675 137 656 L27 530 L27 513 C27 507 31 504 37 504 L37 504 Z " />
<glyph glyph-name="threesuperior" unicode="&#xb3;" horiz-adv-x="278" d="M127 494 C191 494 244 525 244 580 C244 624 207 647 184 656 L184 657 C207 667 235 691 235 727 C235 778 191 810 127 810 C71 810 38 778 38 778 C31 774 32 765 37 760 L61 731 C67 723 70 725 76 728 C85 736 100 744 115 744 C137 744 153 732 153 714 C153 696 137 683 112 683 L83 683 C74 683 68 679 68 669 L68 638 C68 627 73 624 83 624 L112 624 C143 624 159 610 159 591 C159 572 143 560 117 560 C91 560 71 576 70 576 C64 580 58 581 53 574 L31 545 C26 538 26 533 32 527 C41 519 70 494 127 494 L127 494 Z " />
<glyph glyph-name="acute" unicode="&#xb4;" horiz-adv-x="302" d="M89 528 L264 605 C272 609 276 619 270 632 L241 683 C236 692 224 692 215 686 L52 589 C46 585 42 578 46 570 L63 534 C68 525 74 522 89 528 L89 528 Z " />
<glyph glyph-name="mu" unicode="&#xb5;" horiz-adv-x="548" d="M79 205 L79 -216 C79 -228 90 -238 101 -238 L182 -238 C193 -238 204 -228 204 -216 L204 -6 C218 -9 235 -11 253 -11 C345 -11 375 37 396 56 L409 17 C412 8 420 0 431 0 L467 0 C479 0 489 10 489 22 L489 440 C489 453 479 462 467 462 L389 462 C370 462 364 458 364 440 L364 189 C357 149 333 103 282 103 C225 103 204 144 204 205 L204 440 C204 453 194 462 182 462 L101 462 C89 462 79 453 79 440 L79 205 Z " />
<glyph glyph-name="paragraph" unicode="&#xb6;" horiz-adv-x="763" d="M249 281 L293 281 L293 -219 C293 -229 302 -238 312 -238 L366 -238 C376 -238 385 -229 385 -219 L385 615 L521 615 L521 -219 C521 -229 530 -238 540 -238 L594 -238 C605 -238 613 -229 613 -219 L613 615 L691 615 C701 615 710 623 710 634 L710 680 C710 690 701 699 691 699 L235 700 C126 700 41 605 41 491 C41 373 136 281 249 281 L249 281 Z " />
<glyph glyph-name="periodcentered" unicode="&#xb7;" horiz-adv-x="265" d="M131 167 C182 167 223 208 223 256 C223 307 182 348 131 348 C83 348 42 307 42 256 C42 208 83 167 131 167 L131 167 Z " />
<glyph glyph-name="cedilla" unicode="&#xb8;" horiz-adv-x="247" d="M110 3 L61 -96 C56 -105 68 -118 78 -114 C87 -111 98 -103 116 -103 C143 -103 162 -116 162 -141 C162 -167 143 -180 115 -180 C96 -180 79 -170 72 -164 C60 -156 51 -159 45 -173 L36 -193 C30 -204 28 -213 36 -221 C53 -235 81 -246 120 -246 C188 -246 240 -209 240 -146 C240 -90 200 -59 155 -59 C148 -59 141 -60 134 -62 L175 3 L110 3 Z " />
<glyph glyph-name="onesuperior" unicode="&#xb9;" horiz-adv-x="207" d="M92 504 L154 504 C159 504 163 508 163 513 L163 791 C163 796 159 800 154 800 L103 800 L29 753 C24 749 22 747 22 742 L24 711 C24 705 28 702 33 702 L82 706 L82 513 C82 508 86 504 92 504 L92 504 Z " />
<glyph glyph-name="ordmasculine" unicode="&#xba;" horiz-adv-x="330" d="M166 394 C248 394 291 454 291 552 C291 651 248 710 166 710 C83 710 39 651 39 552 C39 454 83 394 166 394 L166 394 Z M166 464 C138 464 122 495 122 552 C122 609 138 640 166 640 C193 640 210 609 210 552 C210 495 193 464 166 464 L166 464 Z " />
<glyph glyph-name="guillemotright" unicode="&#xbb;" horiz-adv-x="487" d="M251 91 C244 75 249 61 266 61 L328 61 C335 61 340 65 343 69 L447 224 C453 232 451 242 447 248 L338 396 C335 401 328 408 320 408 L263 408 C246 408 240 393 248 377 L316 238 L251 91 Z M66 61 L128 61 C135 61 140 65 143 69 L247 224 C253 232 251 242 247 248 L138 396 C135 401 128 408 120 408 L63 408 C46 408 40 393 48 377 L116 238 L51 91 C44 75 49 61 66 61 L66 61 Z " />
<glyph glyph-name="onequarter" unicode="&#xbc;" horiz-adv-x="694" d="M114 27 C107 14 116 0 131 0 L179 0 C187 0 194 6 196 10 L541 673 C548 686 539 700 524 700 L474 700 C466 700 460 696 457 690 L114 27 Z M116 404 L178 404 C183 404 187 408 187 413 L187 691 C187 696 183 700 178 700 L127 700 L53 653 C48 649 46 647 46 642 L48 611 C48 605 52 602 57 602 L106 606 L106 413 C106 408 110 404 116 404 L116 404 Z M376 65 C376 61 380 57 385 57 L522 57 L522 9 C522 4 527 0 532 0 L588 0 C593 0 597 4 597 9 L597 57 L637 57 C642 57 646 61 646 66 L646 109 C646 113 642 117 637 117 L597 117 L597 287 C597 292 593 296 588 296 L547 296 C545 296 541 295 539 293 L376 116 L376 65 Z M449 116 L523 199 L523 116 L449 116 Z " />
<glyph glyph-name="onehalf" unicode="&#xbd;" horiz-adv-x="686" d="M114 27 C107 14 116 0 131 0 L179 0 C187 0 194 6 196 10 L541 673 C548 686 539 700 524 700 L474 700 C466 700 460 696 457 690 L114 27 Z M116 404 L178 404 C183 404 187 408 187 413 L187 691 C187 696 183 700 178 700 L127 700 L53 653 C48 649 46 647 46 642 L48 611 C48 605 52 602 57 602 L106 606 L106 413 C106 408 110 404 116 404 L116 404 Z M416 9 C416 3 420 0 426 0 L621 0 C627 0 630 4 630 9 L630 55 C630 60 626 64 621 64 L541 64 L595 128 C618 156 632 184 632 214 C632 269 589 306 526 306 C474 306 438 277 432 272 C421 264 423 259 429 251 L451 220 C456 213 461 213 467 217 C475 226 493 237 511 237 C535 237 551 222 551 202 C551 188 543 171 526 152 L416 26 L416 9 Z " />
<glyph glyph-name="threequarters" unicode="&#xbe;" horiz-adv-x="727" d="M150 394 C214 394 267 425 267 480 C267 524 230 547 207 556 L207 557 C230 567 258 591 258 627 C258 678 214 710 150 710 C94 710 61 678 61 678 C54 674 55 665 60 660 L84 631 C90 623 93 625 99 628 C108 636 123 644 138 644 C160 644 176 632 176 614 C176 596 160 583 135 583 L106 583 C97 583 91 579 91 569 L91 538 C91 527 96 524 106 524 L135 524 C166 524 182 510 182 491 C182 472 166 460 140 460 C114 460 94 476 93 476 C87 480 81 481 76 474 L54 445 C49 438 49 433 55 427 C64 419 93 394 150 394 L150 394 Z M148 27 C141 14 150 0 165 0 L213 0 C221 0 228 6 230 10 L575 673 C582 686 573 700 558 700 L508 700 C500 700 494 696 491 690 L148 27 Z M410 65 C410 61 414 57 419 57 L556 57 L556 9 C556 4 561 0 566 0 L622 0 C627 0 631 4 631 9 L631 57 L671 57 C676 57 680 61 680 66 L680 109 C680 113 676 117 671 117 L631 117 L631 287 C631 292 627 296 622 296 L581 296 C579 296 575 295 573 293 L410 116 L410 65 Z M483 116 L557 199 L557 116 L483 116 Z " />
<glyph glyph-name="questiondown" unicode="&#xbf;" horiz-adv-x="483" d="M261 307 C306 307 343 345 343 390 C343 435 306 472 261 472 C216 472 178 435 178 390 C178 345 216 307 261 307 L261 307 Z M48 -81 C48 -179 137 -249 242 -249 C370 -249 438 -161 438 -161 C445 -154 446 -142 438 -135 L391 -89 C384 -83 377 -83 369 -88 C349 -101 322 -140 261 -140 C211 -140 181 -109 181 -73 C181 -3 320 33 320 128 L320 170 C320 181 311 189 301 189 L220 189 C207 189 200 180 200 168 L200 135 C200 75 48 40 48 -81 L48 -81 Z " />
<glyph glyph-name="Agrave" unicode="&#xc0;" horiz-adv-x="668" d="M19 0 L106 0 C122 0 131 10 135 20 L184 128 L483 128 L532 20 C539 6 546 0 561 0 L648 0 C663 0 671 13 665 26 L357 699 C354 705 350 710 340 710 L330 710 C321 710 316 705 313 699 L2 26 C-4 13 4 0 19 0 L19 0 Z M233 239 L331 459 L334 459 L434 239 L233 239 Z M404 768 C418 762 425 766 429 775 L447 810 C451 818 446 826 441 829 L277 927 C269 932 256 933 251 924 L223 872 C216 860 220 849 229 845 L404 768 Z " />
<glyph glyph-name="Aacute" unicode="&#xc1;" horiz-adv-x="668" d="M19 0 L106 0 C122 0 131 10 135 20 L184 128 L483 128 L532 20 C539 6 546 0 561 0 L648 0 C663 0 671 13 665 26 L357 699 C354 705 350 710 340 710 L330 710 C321 710 316 705 313 699 L2 26 C-4 13 4 0 19 0 L19 0 Z M233 239 L331 459 L334 459 L434 239 L233 239 Z M263 768 L438 845 C447 849 451 860 444 872 L416 924 C411 933 401 934 390 927 L226 829 C221 826 216 818 220 810 L238 775 C242 766 249 762 263 768 L263 768 Z " />
<glyph glyph-name="Acircumflex" unicode="&#xc2;" horiz-adv-x="668" d="M19 0 L106 0 C122 0 131 10 135 20 L184 128 L483 128 L532 20 C539 6 546 0 561 0 L648 0 C663 0 671 13 665 26 L357 699 C354 705 350 710 340 710 L330 710 C321 710 316 705 313 699 L2 26 C-4 13 4 0 19 0 L19 0 Z M233 239 L331 459 L334 459 L434 239 L233 239 Z M236 766 L334 827 L431 766 C443 759 448 761 454 769 L480 806 C485 813 480 821 474 825 L344 926 C337 931 329 931 323 926 L193 825 C187 821 182 813 187 806 L213 769 C219 761 224 759 236 766 L236 766 Z " />
<glyph glyph-name="Atilde" unicode="&#xc3;" horiz-adv-x="668" d="M19 0 L106 0 C122 0 131 10 135 20 L184 128 L483 128 L532 20 C539 6 546 0 561 0 L648 0 C663 0 671 13 665 26 L357 699 C354 705 350 710 340 710 L330 710 C321 710 316 705 313 699 L2 26 C-4 13 4 0 19 0 L19 0 Z M233 239 L331 459 L334 459 L434 239 L233 239 Z M213 789 C243 770 241 832 277 832 C310 832 334 776 386 776 C443 776 472 833 483 852 C490 864 491 876 482 883 L454 903 C425 924 424 862 389 862 C351 862 334 917 282 917 C221 917 188 851 178 833 C175 826 177 815 184 810 L213 789 Z " />
<glyph glyph-name="Adieresis" unicode="&#xc4;" horiz-adv-x="668" d="M19 0 L106 0 C122 0 131 10 135 20 L184 128 L483 128 L532 20 C539 6 546 0 561 0 L648 0 C663 0 671 13 665 26 L357 699 C354 705 350 710 340 710 L330 710 C321 710 316 705 313 699 L2 26 C-4 13 4 0 19 0 L19 0 Z M233 239 L331 459 L334 459 L434 239 L233 239 Z M456 766 C497 766 529 798 529 839 C529 880 497 911 456 911 C415 911 384 880 384 839 C384 798 415 766 456 766 L456 766 Z M209 766 C250 766 282 798 282 839 C282 880 250 911 209 911 C168 911 137 880 137 839 C137 798 168 766 209 766 L209 766 Z " />
<glyph glyph-name="Aring" unicode="&#xc5;" horiz-adv-x="668" d="M19 0 L106 0 C122 0 131 10 135 20 L184 128 L483 128 L532 20 C539 6 546 0 561 0 L648 0 C663 0 671 13 665 26 L357 699 C354 705 350 710 340 710 L330 710 C321 710 316 705 313 699 L2 26 C-4 13 4 0 19 0 L19 0 Z M233 239 L331 459 L334 459 L434 239 L233 239 Z M333 754 C395 754 446 804 446 867 C446 930 395 980 333 980 C270 980 220 930 220 867 C220 804 270 754 333 754 L333 754 Z M333 817 C307 817 283 841 283 867 C283 893 307 915 333 915 C359 915 381 893 381 867 C381 841 359 817 333 817 L333 817 Z " />
<glyph glyph-name="AE" unicode="&#xc6;" horiz-adv-x="896" d="M3 0 L98 0 C110 0 117 6 123 15 L194 128 L404 128 L404 19 C404 9 412 0 423 0 L831 0 C842 0 850 9 850 19 L850 101 C850 111 842 120 831 120 L532 120 L532 295 L782 295 C792 295 801 303 801 314 L801 397 C801 407 792 416 782 416 L532 416 L532 580 L831 580 C842 580 850 589 850 599 L850 681 C850 691 842 700 831 700 L436 700 C410 700 405 689 392 669 L-9 26 C-17 13 -12 0 3 0 L3 0 Z M264 239 L404 465 L404 239 L264 239 Z " />
<glyph glyph-name="Ccedilla" unicode="&#xc7;" horiz-adv-x="688" d="M44 349 C44 168 175 20 348 -6 L304 -96 C299 -105 311 -118 321 -114 C330 -111 341 -103 359 -103 C386 -103 405 -116 405 -141 C405 -167 386 -180 358 -180 C339 -180 322 -170 315 -164 C303 -156 294 -159 288 -173 L279 -193 C273 -204 271 -213 279 -221 C296 -235 324 -246 363 -246 C431 -246 483 -209 483 -146 C483 -90 443 -59 398 -59 C391 -59 384 -60 377 -62 L410 -10 C497 -9 581 22 648 87 C655 94 657 107 649 114 L587 178 C581 184 570 185 562 178 C520 144 469 121 409 121 C281 121 185 227 185 352 C185 478 280 585 408 585 C464 585 520 563 562 526 C570 518 580 518 587 526 L648 589 C656 597 656 609 647 617 C579 678 506 710 405 710 C205 710 44 549 44 349 L44 349 Z " />
<glyph glyph-name="Egrave" unicode="&#xc8;" horiz-adv-x="576" d="M85 19 C85 9 93 0 104 0 L511 0 C522 0 530 9 530 19 L530 101 C530 111 522 120 511 120 L215 120 L215 295 L462 295 C472 295 481 303 481 314 L481 397 C481 407 472 416 462 416 L215 416 L215 580 L511 580 C522 580 530 589 530 599 L530 681 C530 691 522 700 511 700 L104 700 C93 700 85 691 85 681 L85 19 Z M384 768 C398 762 405 766 409 775 L427 810 C431 818 426 826 421 829 L257 927 C249 932 236 933 231 924 L203 872 C196 860 200 849 209 845 L384 768 Z " />
<glyph glyph-name="Eacute" unicode="&#xc9;" horiz-adv-x="576" d="M85 19 C85 9 93 0 104 0 L511 0 C522 0 530 9 530 19 L530 101 C530 111 522 120 511 120 L215 120 L215 295 L462 295 C472 295 481 303 481 314 L481 397 C481 407 472 416 462 416 L215 416 L215 580 L511 580 C522 580 530 589 530 599 L530 681 C530 691 522 700 511 700 L104 700 C93 700 85 691 85 681 L85 19 Z M244 768 L419 845 C428 849 432 860 425 872 L397 924 C392 933 382 934 371 927 L207 829 C202 826 197 818 201 810 L219 775 C223 766 230 762 244 768 L244 768 Z " />
<glyph glyph-name="Ecircumflex" unicode="&#xca;" horiz-adv-x="576" d="M85 19 C85 9 93 0 104 0 L511 0 C522 0 530 9 530 19 L530 101 C530 111 522 120 511 120 L215 120 L215 295 L462 295 C472 295 481 303 481 314 L481 397 C481 407 472 416 462 416 L215 416 L215 580 L511 580 C522 580 530 589 530 599 L530 681 C530 691 522 700 511 700 L104 700 C93 700 85 691 85 681 L85 19 Z M211 766 L309 827 L406 766 C418 759 423 761 429 769 L455 806 C460 813 455 821 449 825 L319 926 C312 931 304 931 298 926 L168 825 C162 821 157 813 162 806 L188 769 C194 761 199 759 211 766 L211 766 Z " />
<glyph glyph-name="Edieresis" unicode="&#xcb;" horiz-adv-x="576" d="M85 19 C85 9 93 0 104 0 L511 0 C522 0 530 9 530 19 L530 101 C530 111 522 120 511 120 L215 120 L215 295 L462 295 C472 295 481 303 481 314 L481 397 C481 407 472 416 462 416 L215 416 L215 580 L511 580 C522 580 530 589 530 599 L530 681 C530 691 522 700 511 700 L104 700 C93 700 85 691 85 681 L85 19 Z M436 766 C477 766 509 798 509 839 C509 880 477 911 436 911 C395 911 364 880 364 839 C364 798 395 766 436 766 L436 766 Z M189 766 C230 766 262 798 262 839 C262 880 230 911 189 911 C148 911 117 880 117 839 C117 798 148 766 189 766 L189 766 Z " />
<glyph glyph-name="Igrave" unicode="&#xcc;" horiz-adv-x="301" d="M85 19 C85 9 94 0 104 0 L197 0 C207 0 216 9 216 19 L216 681 C216 691 207 700 197 700 L104 700 C94 700 85 691 85 681 L85 19 Z M220 768 C234 762 241 766 245 775 L263 810 C267 818 262 826 257 829 L93 927 C85 932 72 933 67 924 L39 872 C32 860 36 849 45 845 L220 768 Z " />
<glyph glyph-name="Iacute" unicode="&#xcd;" horiz-adv-x="301" d="M85 19 C85 9 94 0 104 0 L197 0 C207 0 216 9 216 19 L216 681 C216 691 207 700 197 700 L104 700 C94 700 85 691 85 681 L85 19 Z M80 768 L255 845 C264 849 268 860 261 872 L233 924 C228 933 218 934 207 927 L43 829 C38 826 33 818 37 810 L55 775 C59 766 66 762 80 768 L80 768 Z " />
<glyph glyph-name="Icircumflex" unicode="&#xce;" horiz-adv-x="301" d="M85 19 C85 9 94 0 104 0 L197 0 C207 0 216 9 216 19 L216 681 C216 691 207 700 197 700 L104 700 C94 700 85 691 85 681 L85 19 Z M51 766 L149 827 L246 766 C258 759 263 761 269 769 L295 806 C300 813 295 821 289 825 L159 926 C152 931 144 931 138 926 L8 825 C2 821 -3 813 2 806 L28 769 C34 761 39 759 51 766 L51 766 Z " />
<glyph glyph-name="Idieresis" unicode="&#xcf;" horiz-adv-x="301" d="M85 19 C85 9 94 0 104 0 L197 0 C207 0 216 9 216 19 L216 681 C216 691 207 700 197 700 L104 700 C94 700 85 691 85 681 L85 19 Z M273 766 C314 766 346 798 346 839 C346 880 314 911 273 911 C232 911 201 880 201 839 C201 798 232 766 273 766 L273 766 Z M26 766 C67 766 99 798 99 839 C99 880 67 911 26 911 C-15 911 -46 880 -46 839 C-46 798 -15 766 26 766 L26 766 Z " />
<glyph glyph-name="Eth" unicode="&#xd0;" horiz-adv-x="735" d="M85 19 C85 9 93 0 103 0 L340 0 C533 0 691 157 691 351 C691 543 533 700 340 700 L103 700 C93 700 85 691 85 681 L85 372 L56 372 C46 372 38 363 38 353 L38 340 C38 330 46 321 56 321 L85 321 L85 19 Z M214 122 L214 321 L379 321 C390 321 398 329 398 339 L398 353 C398 363 390 372 379 372 L214 372 L214 579 L328 579 C458 579 553 481 553 351 C553 220 458 122 328 122 L214 122 Z " />
<glyph glyph-name="Ntilde" unicode="&#xd1;" horiz-adv-x="761" d="M85 19 C85 9 94 0 104 0 L195 0 C206 0 214 9 214 19 L214 449 L216 449 L626 -3 C631 -8 636 -10 643 -10 L657 -10 C667 -10 676 -2 676 8 L676 681 C676 691 667 700 657 700 L565 700 C554 700 546 691 546 681 L546 268 L544 268 L136 703 C131 708 126 710 119 710 L104 710 C94 710 85 702 85 692 L85 19 Z M260 789 C290 770 288 832 324 832 C357 832 381 776 433 776 C490 776 519 833 530 852 C537 864 538 876 529 883 L501 903 C472 924 471 862 436 862 C398 862 381 917 329 917 C268 917 235 851 225 833 C222 826 224 815 231 810 L260 789 Z " />
<glyph glyph-name="Ograve" unicode="&#xd2;" horiz-adv-x="807" d="M44 349 C44 149 203 -10 403 -10 C603 -10 763 149 763 349 C763 549 603 710 403 710 C203 710 44 549 44 349 L44 349 Z M174 349 C174 475 277 580 403 580 C529 580 633 475 633 349 C633 223 529 120 403 120 C277 120 174 223 174 349 L174 349 Z M476 768 C490 762 497 766 501 775 L519 810 C523 818 518 826 513 829 L349 927 C341 932 328 933 323 924 L295 872 C288 860 292 849 301 845 L476 768 Z " />
<glyph glyph-name="Oacute" unicode="&#xd3;" horiz-adv-x="807" d="M44 349 C44 149 203 -10 403 -10 C603 -10 763 149 763 349 C763 549 603 710 403 710 C203 710 44 549 44 349 L44 349 Z M174 349 C174 475 277 580 403 580 C529 580 633 475 633 349 C633 223 529 120 403 120 C277 120 174 223 174 349 L174 349 Z M334 768 L509 845 C518 849 522 860 515 872 L487 924 C482 933 472 934 461 927 L297 829 C292 826 287 818 291 810 L309 775 C313 766 320 762 334 768 L334 768 Z " />
<glyph glyph-name="Ocircumflex" unicode="&#xd4;" horiz-adv-x="807" d="M44 349 C44 149 203 -10 403 -10 C603 -10 763 149 763 349 C763 549 603 710 403 710 C203 710 44 549 44 349 L44 349 Z M174 349 C174 475 277 580 403 580 C529 580 633 475 633 349 C633 223 529 120 403 120 C277 120 174 223 174 349 L174 349 Z M305 766 L403 827 L500 766 C512 759 517 761 523 769 L549 806 C554 813 549 821 543 825 L413 926 C406 931 398 931 392 926 L262 825 C256 821 251 813 256 806 L282 769 C288 761 293 759 305 766 L305 766 Z " />
<glyph glyph-name="Otilde" unicode="&#xd5;" horiz-adv-x="807" d="M44 349 C44 149 203 -10 403 -10 C603 -10 763 149 763 349 C763 549 603 710 403 710 C203 710 44 549 44 349 L44 349 Z M174 349 C174 475 277 580 403 580 C529 580 633 475 633 349 C633 223 529 120 403 120 C277 120 174 223 174 349 L174 349 Z M284 789 C314 770 312 832 348 832 C381 832 405 776 457 776 C514 776 543 833 554 852 C561 864 562 876 553 883 L525 903 C496 924 495 862 460 862 C422 862 405 917 353 917 C292 917 259 851 249 833 C246 826 248 815 255 810 L284 789 Z " />
<glyph glyph-name="Odieresis" unicode="&#xd6;" horiz-adv-x="807" d="M44 349 C44 149 203 -10 403 -10 C603 -10 763 149 763 349 C763 549 603 710 403 710 C203 710 44 549 44 349 L44 349 Z M174 349 C174 475 277 580 403 580 C529 580 633 475 633 349 C633 223 529 120 403 120 C277 120 174 223 174 349 L174 349 Z M526 766 C567 766 599 798 599 839 C599 880 567 911 526 911 C485 911 454 880 454 839 C454 798 485 766 526 766 L526 766 Z M279 766 C320 766 352 798 352 839 C352 880 320 911 279 911 C238 911 207 880 207 839 C207 798 238 766 279 766 L279 766 Z " />
<glyph glyph-name="multiply" unicode="&#xd7;" horiz-adv-x="600" d="M168 175 C175 168 187 168 194 175 L300 281 L406 174 C413 167 425 168 432 175 L472 214 C479 221 480 233 473 241 L367 347 L473 454 C480 461 479 473 472 480 L432 520 C425 527 413 528 406 521 L300 414 L194 520 C187 527 174 527 167 520 L128 480 C121 473 121 460 128 453 L234 347 L128 241 C121 234 121 222 128 215 L168 175 Z " />
<glyph glyph-name="Oslash" unicode="&#xd8;" horiz-adv-x="806" d="M66 23 L76 13 C83 6 95 5 102 12 L167 77 C229 22 311 -10 403 -10 C603 -10 763 150 763 350 C763 440 729 522 675 585 L743 653 C750 661 750 672 743 679 L733 689 C726 696 714 696 707 689 L639 622 C576 676 493 710 403 710 C203 710 44 549 44 349 C44 258 76 176 130 113 L65 49 C58 42 59 30 66 23 L66 23 Z M224 207 C193 246 174 295 174 349 C174 475 277 580 403 580 C457 580 507 560 547 529 L224 207 Z M260 170 L582 492 C614 454 633 404 633 350 C633 224 529 120 403 120 C349 120 299 139 260 170 L260 170 Z " />
<glyph glyph-name="Ugrave" unicode="&#xd9;" horiz-adv-x="713" d="M78 257 C78 105 199 -10 356 -10 C514 -10 635 105 635 257 L635 681 C635 691 626 700 616 700 L521 700 C510 700 502 691 502 681 L502 263 C502 179 443 120 356 120 C269 120 211 179 211 264 L211 681 C211 691 203 700 192 700 L97 700 C87 700 78 691 78 681 L78 257 Z M427 768 C441 762 448 766 452 775 L470 810 C474 818 469 826 464 829 L300 927 C292 932 279 933 274 924 L246 872 C239 860 243 849 252 845 L427 768 Z " />
<glyph glyph-name="Uacute" unicode="&#xda;" horiz-adv-x="713" d="M78 257 C78 105 199 -10 356 -10 C514 -10 635 105 635 257 L635 681 C635 691 626 700 616 700 L521 700 C510 700 502 691 502 681 L502 263 C502 179 443 120 356 120 C269 120 211 179 211 264 L211 681 C211 691 203 700 192 700 L97 700 C87 700 78 691 78 681 L78 257 Z M289 768 L464 845 C473 849 477 860 470 872 L442 924 C437 933 427 934 416 927 L252 829 C247 826 242 818 246 810 L264 775 C268 766 275 762 289 768 L289 768 Z " />
<glyph glyph-name="Ucircumflex" unicode="&#xdb;" horiz-adv-x="713" d="M78 257 C78 105 199 -10 356 -10 C514 -10 635 105 635 257 L635 681 C635 691 626 700 616 700 L521 700 C510 700 502 691 502 681 L502 263 C502 179 443 120 356 120 C269 120 211 179 211 264 L211 681 C211 691 203 700 192 700 L97 700 C87 700 78 691 78 681 L78 257 Z M260 766 L358 827 L455 766 C467 759 472 761 478 769 L504 806 C509 813 504 821 498 825 L368 926 C361 931 353 931 347 926 L217 825 C211 821 206 813 211 806 L237 769 C243 761 248 759 260 766 L260 766 Z " />
<glyph glyph-name="Udieresis" unicode="&#xdc;" horiz-adv-x="713" d="M78 257 C78 105 199 -10 356 -10 C514 -10 635 105 635 257 L635 681 C635 691 626 700 616 700 L521 700 C510 700 502 691 502 681 L502 263 C502 179 443 120 356 120 C269 120 211 179 211 264 L211 681 C211 691 203 700 192 700 L97 700 C87 700 78 691 78 681 L78 257 Z M480 766 C521 766 553 798 553 839 C553 880 521 911 480 911 C439 911 408 880 408 839 C408 798 439 766 480 766 L480 766 Z M233 766 C274 766 306 798 306 839 C306 880 274 911 233 911 C192 911 161 880 161 839 C161 798 192 766 233 766 L233 766 Z " />
<glyph glyph-name="Yacute" unicode="&#xdd;" horiz-adv-x="593" d="M231 19 C231 9 239 0 250 0 L342 0 C352 0 361 9 361 19 L361 338 L592 671 C600 684 592 700 576 700 L473 700 C465 700 460 695 457 691 L297 461 L137 691 C134 695 129 700 121 700 L19 700 C3 700 -5 684 3 671 L231 337 L231 19 Z M227 768 L402 845 C411 849 415 860 408 872 L380 924 C375 933 365 934 354 927 L190 829 C185 826 180 818 184 810 L202 775 C206 766 213 762 227 768 L227 768 Z " />
<glyph glyph-name="Thorn" unicode="&#xde;" horiz-adv-x="589" d="M85 19 C85 9 93 0 104 0 L196 0 C206 0 215 9 215 19 L215 127 L340 127 C462 127 563 228 563 352 C563 473 462 574 339 573 L215 573 L215 681 C215 691 206 700 196 700 L104 700 C93 700 85 691 85 681 L85 19 Z M215 249 L215 450 L331 450 C387 450 434 408 434 353 C434 294 387 249 331 249 L215 249 Z " />
<glyph glyph-name="germandbls" unicode="&#xdf;" horiz-adv-x="567" d="M64 21 C64 10 74 0 85 0 L168 0 C179 0 189 10 189 21 L189 408 C189 570 249 596 300 596 C335 596 364 566 364 531 C364 444 289 408 289 332 C289 247 399 229 399 159 C399 118 354 100 315 103 C303 104 295 92 296 82 L306 11 C309 -11 338 -11 354 -11 C441 -11 532 37 532 158 C532 276 420 305 420 352 C420 402 492 449 492 533 C492 640 404 710 314 710 C156 710 64 606 64 410 L64 21 Z " />
<glyph glyph-name="agrave" unicode="&#xe0;" horiz-adv-x="482" d="M32 147 C32 48 96 -11 188 -11 C260 -11 306 21 333 47 L346 16 C352 3 358 0 366 0 L400 0 C412 0 422 10 422 22 L422 271 C422 397 392 472 248 472 C173 472 100 453 90 449 C80 446 71 438 75 421 L85 369 C87 355 96 344 111 349 C138 357 199 366 241 366 C290 366 307 338 305 279 C305 279 263 292 216 292 C99 292 32 229 32 147 L32 147 Z M152 147 C152 188 181 213 234 213 C271 213 302 199 302 199 L302 131 C296 114 260 82 219 82 C176 82 152 108 152 147 L152 147 Z M333 528 C347 522 354 525 358 534 L376 570 C380 578 376 586 370 589 L206 686 C197 692 185 692 180 683 L152 632 C145 619 150 609 158 605 L333 528 Z " />
<glyph glyph-name="aacute" unicode="&#xe1;" horiz-adv-x="482" d="M32 147 C32 48 96 -11 188 -11 C260 -11 306 21 333 47 L346 16 C352 3 358 0 366 0 L400 0 C412 0 422 10 422 22 L422 271 C422 397 392 472 248 472 C173 472 100 453 90 449 C80 446 71 438 75 421 L85 369 C87 355 96 344 111 349 C138 357 199 366 241 366 C290 366 307 338 305 279 C305 279 263 292 216 292 C99 292 32 229 32 147 L32 147 Z M152 147 C152 188 181 213 234 213 C271 213 302 199 302 199 L302 131 C296 114 260 82 219 82 C176 82 152 108 152 147 L152 147 Z M205 528 L380 605 C388 609 392 619 386 632 L357 683 C352 692 340 692 331 686 L168 589 C162 585 158 578 162 570 L179 534 C184 525 190 522 205 528 L205 528 Z " />
<glyph glyph-name="acircumflex" unicode="&#xe2;" horiz-adv-x="482" d="M32 147 C32 48 96 -11 188 -11 C260 -11 306 21 333 47 L346 16 C352 3 358 0 366 0 L400 0 C412 0 422 10 422 22 L422 271 C422 397 392 472 248 472 C173 472 100 453 90 449 C80 446 71 438 75 421 L85 369 C87 355 96 344 111 349 C138 357 199 366 241 366 C290 366 307 338 305 279 C305 279 263 292 216 292 C99 292 32 229 32 147 L32 147 Z M152 147 C152 188 181 213 234 213 C271 213 302 199 302 199 L302 131 C296 114 260 82 219 82 C176 82 152 108 152 147 L152 147 Z M125 529 C131 521 136 519 148 526 L246 587 L343 526 C355 519 360 521 366 529 L392 566 C397 573 392 581 386 585 L256 686 C249 691 241 691 235 686 L105 585 C99 581 94 573 99 566 L125 529 Z " />
<glyph glyph-name="atilde" unicode="&#xe3;" horiz-adv-x="482" d="M32 147 C32 48 96 -11 188 -11 C260 -11 306 21 333 47 L346 16 C352 3 358 0 366 0 L400 0 C412 0 422 10 422 22 L422 271 C422 397 392 472 248 472 C173 472 100 453 90 449 C80 446 71 438 75 421 L85 369 C87 355 96 344 111 349 C138 357 199 366 241 366 C290 366 307 338 305 279 C305 279 263 292 216 292 C99 292 32 229 32 147 L32 147 Z M152 147 C152 188 181 213 234 213 C271 213 302 199 302 199 L302 131 C296 114 260 82 219 82 C176 82 152 108 152 147 L152 147 Z M128 562 C158 543 156 605 192 605 C225 605 249 549 301 549 C358 549 387 606 398 625 C405 637 406 649 397 656 L369 676 C340 697 339 635 304 635 C266 635 249 690 197 690 C136 690 103 624 93 606 C90 599 92 588 99 583 L128 562 Z " />
<glyph glyph-name="adieresis" unicode="&#xe4;" horiz-adv-x="482" d="M32 147 C32 48 96 -11 188 -11 C260 -11 306 21 333 47 L346 16 C352 3 358 0 366 0 L400 0 C412 0 422 10 422 22 L422 271 C422 397 392 472 248 472 C173 472 100 453 90 449 C80 446 71 438 75 421 L85 369 C87 355 96 344 111 349 C138 357 199 366 241 366 C290 366 307 338 305 279 C305 279 263 292 216 292 C99 292 32 229 32 147 L32 147 Z M152 147 C152 188 181 213 234 213 C271 213 302 199 302 199 L302 131 C296 114 260 82 219 82 C176 82 152 108 152 147 L152 147 Z M348 542 C389 542 421 574 421 615 C421 656 389 687 348 687 C307 687 276 656 276 615 C276 574 307 542 348 542 L348 542 Z M147 542 C188 542 220 574 220 615 C220 656 188 687 147 687 C106 687 75 656 75 615 C75 574 106 542 147 542 L147 542 Z " />
<glyph glyph-name="aring" unicode="&#xe5;" horiz-adv-x="482" d="M32 147 C32 48 96 -11 188 -11 C260 -11 306 21 333 47 L346 16 C352 3 358 0 366 0 L400 0 C412 0 422 10 422 22 L422 271 C422 397 392 472 248 472 C173 472 100 453 90 449 C80 446 71 438 75 421 L85 369 C87 355 96 344 111 349 C138 357 199 366 241 366 C290 366 307 338 305 279 C305 279 263 292 216 292 C99 292 32 229 32 147 L32 147 Z M152 147 C152 188 181 213 234 213 C271 213 302 199 302 199 L302 131 C296 114 260 82 219 82 C176 82 152 108 152 147 L152 147 Z M250 508 C312 508 363 558 363 621 C363 684 312 734 250 734 C187 734 137 684 137 621 C137 558 187 508 250 508 L250 508 Z M250 571 C224 571 200 595 200 621 C200 647 224 669 250 669 C276 669 298 647 298 621 C298 595 276 571 250 571 L250 571 Z " />
<glyph glyph-name="ae" unicode="&#xe6;" horiz-adv-x="773" d="M33 147 C33 49 97 -11 191 -11 C276 -11 336 42 356 70 C398 20 458 -11 528 -11 C603 -11 668 17 705 53 C717 62 714 73 707 83 L668 134 C660 145 648 142 641 136 C613 113 575 100 540 100 C466 100 424 158 424 207 L718 207 C744 207 744 237 744 258 C744 385 645 472 527 472 C474 472 425 453 388 422 C363 454 321 472 249 472 C178 472 93 450 93 450 C83 447 73 439 75 427 L87 365 C89 354 100 345 113 349 C139 357 193 366 238 366 C289 366 300 340 302 280 C302 280 259 292 212 292 C99 292 33 228 33 147 L33 147 Z M153 147 C153 188 182 213 235 213 C272 213 303 199 303 199 L303 131 C297 114 261 82 220 82 C177 82 153 108 153 147 L153 147 Z M431 289 C437 335 473 369 529 369 C580 369 616 334 618 289 L431 289 Z " />
<glyph glyph-name="ccedilla" unicode="&#xe7;" horiz-adv-x="492" d="M36 231 C36 105 126 8 243 -8 L200 -96 C195 -105 207 -118 217 -114 C226 -111 237 -103 255 -103 C282 -103 301 -116 301 -141 C301 -167 282 -180 254 -180 C235 -180 218 -170 211 -164 C199 -156 190 -159 184 -173 L175 -193 C169 -204 167 -213 175 -221 C192 -235 220 -246 259 -246 C327 -246 379 -209 379 -146 C379 -90 339 -59 294 -59 C287 -59 280 -60 273 -62 L306 -10 C375 -3 428 31 463 86 C471 98 466 109 455 119 L410 157 C402 164 388 162 381 154 C361 131 334 103 283 103 C211 103 162 159 162 231 C162 302 212 358 284 358 C327 358 354 339 376 318 C385 309 396 304 406 315 L448 361 C458 371 463 384 453 394 C409 441 353 472 281 472 C144 472 36 367 36 231 L36 231 Z " />
<glyph glyph-name="egrave" unicode="&#xe8;" horiz-adv-x="511" d="M36 231 C36 99 132 -11 270 -11 C345 -11 402 18 442 52 C453 62 452 73 444 82 L405 134 C398 144 386 143 375 134 C354 117 322 100 276 100 C209 100 162 150 161 207 L457 207 C467 207 478 216 479 228 C480 235 481 251 481 258 C481 383 389 472 269 472 C132 472 36 361 36 231 L36 231 Z M168 289 C174 335 210 369 266 369 C317 369 353 334 355 289 L168 289 Z M361 528 C375 522 382 525 386 534 L404 570 C408 578 404 586 398 589 L234 686 C225 692 213 692 208 683 L180 632 C173 619 178 609 186 605 L361 528 Z " />
<glyph glyph-name="eacute" unicode="&#xe9;" horiz-adv-x="511" d="M36 231 C36 99 132 -11 270 -11 C345 -11 402 18 442 52 C453 62 452 73 444 82 L405 134 C398 144 386 143 375 134 C354 117 322 100 276 100 C209 100 162 150 161 207 L457 207 C467 207 478 216 479 228 C480 235 481 251 481 258 C481 383 389 472 269 472 C132 472 36 361 36 231 L36 231 Z M168 289 C174 335 210 369 266 369 C317 369 353 334 355 289 L168 289 Z M210 528 L385 605 C393 609 397 619 391 632 L362 683 C357 692 345 692 336 686 L173 589 C167 585 163 578 167 570 L184 534 C189 525 195 522 210 528 L210 528 Z " />
<glyph glyph-name="ecircumflex" unicode="&#xea;" horiz-adv-x="511" d="M36 231 C36 99 132 -11 270 -11 C345 -11 402 18 442 52 C453 62 452 73 444 82 L405 134 C398 144 386 143 375 134 C354 117 322 100 276 100 C209 100 162 150 161 207 L457 207 C467 207 478 216 479 228 C480 235 481 251 481 258 C481 383 389 472 269 472 C132 472 36 361 36 231 L36 231 Z M168 289 C174 335 210 369 266 369 C317 369 353 334 355 289 L168 289 Z M149 529 C155 521 160 519 172 526 L270 587 L367 526 C379 519 384 521 390 529 L416 566 C421 573 416 581 410 585 L280 686 C273 691 265 691 259 686 L129 585 C123 581 118 573 123 566 L149 529 Z " />
<glyph glyph-name="edieresis" unicode="&#xeb;" horiz-adv-x="511" d="M36 231 C36 99 132 -11 270 -11 C345 -11 402 18 442 52 C453 62 452 73 444 82 L405 134 C398 144 386 143 375 134 C354 117 322 100 276 100 C209 100 162 150 161 207 L457 207 C467 207 478 216 479 228 C480 235 481 251 481 258 C481 383 389 472 269 472 C132 472 36 361 36 231 L36 231 Z M168 289 C174 335 210 369 266 369 C317 369 353 334 355 289 L168 289 Z M372 542 C413 542 445 574 445 615 C445 656 413 687 372 687 C331 687 300 656 300 615 C300 574 331 542 372 542 L372 542 Z M171 542 C212 542 244 574 244 615 C244 656 212 687 171 687 C130 687 99 656 99 615 C99 574 130 542 171 542 L171 542 Z " />
<glyph glyph-name="igrave" unicode="&#xec;" horiz-adv-x="253" d="M64 22 C64 10 75 0 86 0 L167 0 C178 0 189 10 189 22 L189 440 C189 453 178 462 167 462 L86 462 C75 462 64 453 64 440 L64 22 Z M208 528 C222 522 229 525 233 534 L251 570 C255 578 251 586 245 589 L81 686 C72 692 60 692 55 683 L27 632 C20 619 25 609 33 605 L208 528 Z " />
<glyph glyph-name="iacute" unicode="&#xed;" horiz-adv-x="253" d="M64 22 C64 10 75 0 86 0 L167 0 C178 0 189 10 189 22 L189 440 C189 453 178 462 167 462 L86 462 C75 462 64 453 64 440 L64 22 Z M66 528 L241 605 C249 609 253 619 247 632 L218 683 C213 692 201 692 192 686 L29 589 C23 585 19 578 23 570 L40 534 C45 525 51 522 66 528 L66 528 Z " />
<glyph glyph-name="icircumflex" unicode="&#xee;" horiz-adv-x="253" d="M64 22 C64 10 75 0 86 0 L167 0 C178 0 189 10 189 22 L189 440 C189 453 178 462 167 462 L86 462 C75 462 64 453 64 440 L64 22 Z M13 529 C19 521 24 519 36 526 L134 587 L231 526 C243 519 248 521 254 529 L280 566 C285 573 280 581 274 585 L144 686 C137 691 129 691 123 686 L-7 585 C-13 581 -18 573 -13 566 L13 529 Z " />
<glyph glyph-name="idieresis" unicode="&#xef;" horiz-adv-x="253" d="M64 22 C64 10 75 0 86 0 L167 0 C178 0 189 10 189 22 L189 440 C189 453 178 462 167 462 L86 462 C75 462 64 453 64 440 L64 22 Z M232 542 C273 542 305 574 305 615 C305 656 273 687 232 687 C191 687 160 656 160 615 C160 574 191 542 232 542 L232 542 Z M31 542 C72 542 104 574 104 615 C104 656 72 687 31 687 C-10 687 -41 656 -41 615 C-41 574 -10 542 31 542 L31 542 Z " />
<glyph glyph-name="eth" unicode="&#xf0;" horiz-adv-x="559" d="M37 226 C37 96 143 -10 270 -10 C431 -10 515 119 515 274 C515 435 441 544 358 614 L412 645 C421 650 423 662 418 672 L411 683 C406 692 394 696 384 691 L313 650 C256 688 203 711 172 723 C157 727 147 722 143 709 L119 648 C114 636 118 624 138 618 C152 613 178 603 206 587 L146 553 C137 548 135 536 140 527 L147 514 C152 506 164 503 173 508 L256 556 C304 522 348 477 364 420 C347 431 295 449 247 449 C144 449 37 373 37 226 L37 226 Z M153 228 C153 294 206 348 272 348 C340 348 380 296 391 259 C391 188 354 107 271 107 C206 107 153 163 153 228 L153 228 Z " />
<glyph glyph-name="ntilde" unicode="&#xf1;" horiz-adv-x="553" d="M64 22 C64 10 75 0 86 0 L160 0 C182 0 189 5 189 22 L189 286 C200 318 229 358 289 358 C345 358 369 321 369 261 L369 22 C369 10 379 0 391 0 L472 0 C483 0 494 10 494 22 L494 261 C494 373 456 472 309 472 C220 472 177 424 160 405 L143 448 C140 457 135 462 124 462 L86 462 C75 462 64 453 64 440 L64 22 Z M173 562 C203 543 201 605 237 605 C270 605 294 549 346 549 C403 549 432 606 443 625 C450 637 451 649 442 656 L414 676 C385 697 384 635 349 635 C311 635 294 690 242 690 C181 690 148 624 138 606 C135 599 137 588 144 583 L173 562 Z " />
<glyph glyph-name="ograve" unicode="&#xf2;" horiz-adv-x="544" d="M36 232 C36 100 142 -11 272 -11 C403 -11 509 100 509 232 C509 362 403 472 272 472 C142 472 36 362 36 232 L36 232 Z M152 232 C152 302 205 358 272 358 C339 358 393 302 393 232 C393 161 339 103 272 103 C205 103 152 161 152 232 L152 232 Z M345 528 C359 522 366 525 370 534 L388 570 C392 578 388 586 382 589 L218 686 C209 692 197 692 192 683 L164 632 C157 619 162 609 170 605 L345 528 Z " />
<glyph glyph-name="oacute" unicode="&#xf3;" horiz-adv-x="544" d="M36 232 C36 100 142 -11 272 -11 C403 -11 509 100 509 232 C509 362 403 472 272 472 C142 472 36 362 36 232 L36 232 Z M152 232 C152 302 205 358 272 358 C339 358 393 302 393 232 C393 161 339 103 272 103 C205 103 152 161 152 232 L152 232 Z M204 528 L379 605 C387 609 391 619 385 632 L356 683 C351 692 339 692 330 686 L167 589 C161 585 157 578 161 570 L178 534 C183 525 189 522 204 528 L204 528 Z " />
<glyph glyph-name="ocircumflex" unicode="&#xf4;" horiz-adv-x="544" d="M36 232 C36 100 142 -11 272 -11 C403 -11 509 100 509 232 C509 362 403 472 272 472 C142 472 36 362 36 232 L36 232 Z M152 232 C152 302 205 358 272 358 C339 358 393 302 393 232 C393 161 339 103 272 103 C205 103 152 161 152 232 L152 232 Z M152 529 C158 521 163 519 175 526 L273 587 L370 526 C382 519 387 521 393 529 L419 566 C424 573 419 581 413 585 L283 686 C276 691 268 691 262 686 L132 585 C126 581 121 573 126 566 L152 529 Z " />
<glyph glyph-name="otilde" unicode="&#xf5;" horiz-adv-x="544" d="M36 232 C36 100 142 -11 272 -11 C403 -11 509 100 509 232 C509 362 403 472 272 472 C142 472 36 362 36 232 L36 232 Z M152 232 C152 302 205 358 272 358 C339 358 393 302 393 232 C393 161 339 103 272 103 C205 103 152 161 152 232 L152 232 Z M153 562 C183 543 181 605 217 605 C250 605 274 549 326 549 C383 549 412 606 423 625 C430 637 431 649 422 656 L394 676 C365 697 364 635 329 635 C291 635 274 690 222 690 C161 690 128 624 118 606 C115 599 117 588 124 583 L153 562 Z " />
<glyph glyph-name="odieresis" unicode="&#xf6;" horiz-adv-x="544" d="M36 232 C36 100 142 -11 272 -11 C403 -11 509 100 509 232 C509 362 403 472 272 472 C142 472 36 362 36 232 L36 232 Z M152 232 C152 302 205 358 272 358 C339 358 393 302 393 232 C393 161 339 103 272 103 C205 103 152 161 152 232 L152 232 Z M373 542 C414 542 446 574 446 615 C446 656 414 687 373 687 C332 687 301 656 301 615 C301 574 332 542 373 542 L373 542 Z M172 542 C213 542 245 574 245 615 C245 656 213 687 172 687 C131 687 100 656 100 615 C100 574 131 542 172 542 L172 542 Z " />
<glyph glyph-name="divide" unicode="&#xf7;" horiz-adv-x="600" d="M297 471 C335 471 366 503 366 540 C366 578 335 609 297 609 C259 609 228 578 228 540 C228 503 259 471 297 471 L297 471 Z M103 299 L497 299 C507 299 515 308 515 318 L515 374 C515 384 507 393 497 393 L103 393 C93 393 84 384 84 374 L84 318 C84 308 93 299 103 299 L103 299 Z M228 160 C228 122 258 91 296 91 C334 91 365 122 365 160 C365 198 334 228 296 228 C258 228 228 198 228 160 L228 160 Z " />
<glyph glyph-name="oslash" unicode="&#xf8;" horiz-adv-x="544" d="M36 232 C36 173 57 119 91 76 L70 55 C62 47 63 34 71 26 L81 15 C89 7 103 7 111 14 L133 36 C172 7 220 -11 272 -11 C403 -11 509 100 509 232 C509 284 492 332 463 372 L480 389 C489 398 489 410 480 418 L469 429 C462 437 448 438 441 429 L426 414 C384 450 330 472 272 472 C142 472 36 362 36 232 L36 232 Z M152 232 C152 302 205 358 272 358 C299 358 325 348 345 332 L173 159 C160 180 152 205 152 232 L152 232 Z M393 232 C393 161 339 103 272 103 C251 103 231 109 214 119 L380 288 C388 271 393 252 393 232 L393 232 Z " />
<glyph glyph-name="ugrave" unicode="&#xf9;" horiz-adv-x="533" d="M59 195 C59 78 90 -11 233 -11 C304 -11 352 31 376 56 L389 17 C392 8 400 0 411 0 L447 0 C459 0 469 10 469 22 L469 440 C469 453 459 462 447 462 L369 462 C350 462 344 458 344 440 L344 189 C337 149 313 103 262 103 C205 103 184 134 184 195 L184 440 C184 453 174 462 162 462 L81 462 C69 462 59 453 59 440 L59 195 Z M334 528 C348 522 355 525 359 534 L377 570 C381 578 377 586 371 589 L207 686 C198 692 186 692 181 683 L153 632 C146 619 151 609 159 605 L334 528 Z " />
<glyph glyph-name="uacute" unicode="&#xfa;" horiz-adv-x="533" d="M59 195 C59 78 90 -11 233 -11 C304 -11 352 31 376 56 L389 17 C392 8 400 0 411 0 L447 0 C459 0 469 10 469 22 L469 440 C469 453 459 462 447 462 L369 462 C350 462 344 458 344 440 L344 189 C337 149 313 103 262 103 C205 103 184 134 184 195 L184 440 C184 453 174 462 162 462 L81 462 C69 462 59 453 59 440 L59 195 Z M193 528 L368 605 C376 609 380 619 374 632 L345 683 C340 692 328 692 319 686 L156 589 C150 585 146 578 150 570 L167 534 C172 525 178 522 193 528 L193 528 Z " />
<glyph glyph-name="ucircumflex" unicode="&#xfb;" horiz-adv-x="533" d="M59 195 C59 78 90 -11 233 -11 C304 -11 352 31 376 56 L389 17 C392 8 400 0 411 0 L447 0 C459 0 469 10 469 22 L469 440 C469 453 459 462 447 462 L369 462 C350 462 344 458 344 440 L344 189 C337 149 313 103 262 103 C205 103 184 134 184 195 L184 440 C184 453 174 462 162 462 L81 462 C69 462 59 453 59 440 L59 195 Z M145 529 C151 521 156 519 168 526 L266 587 L363 526 C375 519 380 521 386 529 L412 566 C417 573 412 581 406 585 L276 686 C269 691 261 691 255 686 L125 585 C119 581 114 573 119 566 L145 529 Z " />
<glyph glyph-name="udieresis" unicode="&#xfc;" horiz-adv-x="533" d="M59 195 C59 78 90 -11 233 -11 C304 -11 352 31 376 56 L389 17 C392 8 400 0 411 0 L447 0 C459 0 469 10 469 22 L469 440 C469 453 459 462 447 462 L369 462 C350 462 344 458 344 440 L344 189 C337 149 313 103 262 103 C205 103 184 134 184 195 L184 440 C184 453 174 462 162 462 L81 462 C69 462 59 453 59 440 L59 195 Z M364 542 C405 542 437 574 437 615 C437 656 405 687 364 687 C323 687 292 656 292 615 C292 574 323 542 364 542 L364 542 Z M163 542 C204 542 236 574 236 615 C236 656 204 687 163 687 C122 687 91 656 91 615 C91 574 122 542 163 542 L163 542 Z " />
<glyph glyph-name="yacute" unicode="&#xfd;" horiz-adv-x="499" d="M165 27 L72 -207 C65 -223 74 -238 92 -238 L188 -238 C197 -238 205 -231 208 -224 L480 432 C487 447 478 462 460 462 L375 462 C361 462 353 461 346 449 L241 173 L239 173 L156 449 C154 457 147 462 137 462 L41 462 C23 462 15 448 21 432 L165 27 Z M202 528 L377 605 C385 609 389 619 383 632 L354 683 C349 692 337 692 328 686 L165 589 C159 585 155 578 159 570 L176 534 C181 525 187 522 202 528 L202 528 Z " />
<glyph glyph-name="thorn" unicode="&#xfe;" horiz-adv-x="566" d="M189 15 C208 3 259 -11 299 -11 C429 -11 530 93 530 231 C530 362 437 472 310 472 C257 472 208 454 189 440 L189 678 C189 689 179 700 167 700 L86 700 C75 700 64 689 64 678 L64 -216 C64 -228 75 -238 86 -238 L167 -238 C179 -238 189 -228 189 -216 L189 15 Z M189 300 C201 323 241 358 291 358 C363 358 400 295 400 230 C400 165 361 103 285 103 C227 103 189 129 189 129 L189 300 Z " />
<glyph glyph-name="ydieresis" unicode="&#xff;" horiz-adv-x="499" d="M165 27 L72 -207 C65 -223 74 -238 92 -238 L188 -238 C197 -238 205 -231 208 -224 L480 432 C487 447 478 462 460 462 L375 462 C361 462 353 461 346 449 L241 173 L239 173 L156 449 C154 457 147 462 137 462 L41 462 C23 462 15 448 21 432 L165 27 Z M358 542 C399 542 431 574 431 615 C431 656 399 687 358 687 C317 687 286 656 286 615 C286 574 317 542 358 542 L358 542 Z M157 542 C198 542 230 574 230 615 C230 656 198 687 157 687 C116 687 85 656 85 615 C85 574 116 542 157 542 L157 542 Z " />
<glyph glyph-name="Amacron" unicode="&#x100;" horiz-adv-x="668" d="M19 0 L106 0 C122 0 131 10 135 20 L184 128 L483 128 L532 20 C539 6 546 0 561 0 L648 0 C663 0 671 13 665 26 L357 699 C354 705 350 710 340 710 L330 710 C321 710 316 705 313 699 L2 26 C-4 13 4 0 19 0 L19 0 Z M233 239 L331 459 L334 459 L434 239 L233 239 Z M205 808 L461 808 C472 808 480 816 480 826 L480 860 C480 871 472 879 461 879 L205 879 C194 879 186 871 186 860 L186 826 C186 816 194 808 205 808 L205 808 Z " />
<glyph glyph-name="amacron" unicode="&#x101;" horiz-adv-x="482" d="M119 563 L375 563 C386 563 394 571 394 581 L394 622 C394 633 386 641 375 641 L119 641 C108 641 100 633 100 622 L100 581 C100 571 108 563 119 563 L119 563 Z M32 147 C32 48 96 -11 188 -11 C260 -11 306 21 333 47 L346 16 C352 3 358 0 366 0 L400 0 C412 0 422 10 422 22 L422 271 C422 397 392 472 248 472 C173 472 100 453 90 449 C80 446 71 438 75 421 L85 369 C87 355 96 344 111 349 C138 357 199 366 241 366 C290 366 307 338 305 279 C305 279 263 292 216 292 C99 292 32 229 32 147 L32 147 Z M152 147 C152 188 181 213 234 213 C271 213 302 199 302 199 L302 131 C296 114 260 82 219 82 C176 82 152 108 152 147 L152 147 Z " />
<glyph glyph-name="Abreve" unicode="&#x102;" horiz-adv-x="668" d="M19 0 L106 0 C122 0 131 10 135 20 L184 128 L483 128 L532 20 C539 6 546 0 561 0 L648 0 C663 0 671 13 665 26 L357 699 C354 705 350 710 340 710 L330 710 C321 710 316 705 313 699 L2 26 C-4 13 4 0 19 0 L19 0 Z M233 239 L331 459 L334 459 L434 239 L233 239 Z M334 766 C406 766 463 817 474 884 C475 895 468 905 456 905 L417 905 C410 905 402 900 400 891 C390 864 364 838 334 838 C301 838 276 861 266 891 C264 898 258 905 249 905 L212 905 C199 905 192 895 194 884 C204 817 261 766 334 766 L334 766 Z " />
<glyph glyph-name="abreve" unicode="&#x103;" horiz-adv-x="482" d="M32 147 C32 48 96 -11 188 -11 C260 -11 306 21 333 47 L346 16 C352 3 358 0 366 0 L400 0 C412 0 422 10 422 22 L422 271 C422 397 392 472 248 472 C173 472 100 453 90 449 C80 446 71 438 75 421 L85 369 C87 355 96 344 111 349 C138 357 199 366 241 366 C290 366 307 338 305 279 C305 279 263 292 216 292 C99 292 32 229 32 147 L32 147 Z M152 147 C152 188 181 213 234 213 C271 213 302 199 302 199 L302 131 C296 114 260 82 219 82 C176 82 152 108 152 147 L152 147 Z M252 528 C324 528 381 579 392 646 C393 658 386 668 374 668 L335 668 C328 668 320 662 318 654 C308 626 282 601 252 601 C219 601 194 623 184 654 C182 661 176 668 167 668 L130 668 C117 668 110 658 112 646 C122 579 179 528 252 528 L252 528 Z " />
<glyph glyph-name="Aogonek" unicode="&#x104;" horiz-adv-x="668" d="M19 0 L106 0 C122 0 131 10 135 20 L184 128 L483 128 L538 5 C502 -21 442 -68 442 -143 C442 -201 477 -247 547 -247 C586 -247 620 -234 636 -224 C648 -215 651 -205 651 -193 L650 -144 C650 -133 639 -129 630 -137 C622 -144 596 -165 569 -165 C545 -165 530 -152 530 -122 C530 -72 591 -22 624 0 L648 0 C663 0 671 13 665 26 L357 699 C354 705 350 710 340 710 L330 710 C321 710 316 705 313 699 L2 26 C-4 13 4 0 19 0 L19 0 Z M233 239 L331 459 L334 459 L434 239 L233 239 Z " />
<glyph glyph-name="aogonek" unicode="&#x105;" horiz-adv-x="482" d="M32 147 C32 48 96 -11 188 -11 C260 -11 306 21 333 47 L343 23 C306 -3 223 -69 223 -143 C223 -201 258 -247 328 -247 C367 -247 401 -234 417 -224 C429 -215 432 -205 432 -193 L431 -144 C431 -133 420 -129 411 -137 C403 -144 377 -165 350 -165 C326 -165 311 -152 311 -122 C311 -72 373 -21 406 0 C413 4 422 12 422 27 L422 271 C422 397 392 472 248 472 C173 472 100 453 90 449 C80 446 71 438 75 421 L85 369 C87 355 96 344 111 349 C138 357 199 366 241 366 C290 366 307 338 305 279 C305 279 263 292 216 292 C99 292 32 229 32 147 L32 147 Z M152 147 C152 188 181 213 234 213 C271 213 302 199 302 199 L302 131 C296 114 260 82 219 82 C176 82 152 108 152 147 L152 147 Z " />
<glyph glyph-name="Cacute" unicode="&#x106;" horiz-adv-x="688" d="M44 349 C44 149 205 -10 405 -10 C494 -10 580 21 648 87 C655 94 657 107 649 114 L587 178 C581 184 570 185 562 178 C520 144 469 121 409 121 C281 121 185 227 185 352 C185 478 280 585 408 585 C464 585 520 563 562 526 C570 518 580 518 587 526 L648 589 C656 597 656 609 647 617 C579 678 506 710 405 710 C205 710 44 549 44 349 L44 349 Z M339 768 L514 845 C523 849 527 860 520 872 L492 924 C487 933 477 934 466 927 L302 829 C297 826 292 818 296 810 L314 775 C318 766 325 762 339 768 L339 768 Z " />
<glyph glyph-name="cacute" unicode="&#x107;" horiz-adv-x="492" d="M36 231 C36 92 145 -11 280 -11 C362 -11 424 25 463 86 C471 98 466 109 455 119 L410 157 C402 164 388 162 381 154 C361 131 334 103 283 103 C211 103 162 159 162 231 C162 302 212 358 284 358 C327 358 354 339 376 318 C385 309 396 304 406 315 L448 361 C458 371 463 384 453 394 C409 441 353 472 281 472 C144 472 36 367 36 231 L36 231 Z M209 528 L384 605 C392 609 396 619 390 632 L361 683 C356 692 344 692 335 686 L172 589 C166 585 162 578 166 570 L183 534 C188 525 194 522 209 528 L209 528 Z " />
<glyph glyph-name="Ccircumflex" unicode="&#x108;" horiz-adv-x="688" d="M44 349 C44 149 205 -10 405 -10 C494 -10 580 21 648 87 C655 94 657 107 649 114 L587 178 C581 184 570 185 562 178 C520 144 469 121 409 121 C281 121 185 227 185 352 C185 478 280 585 408 585 C464 585 520 563 562 526 C570 518 580 518 587 526 L648 589 C656 597 656 609 647 617 C579 678 506 710 405 710 C205 710 44 549 44 349 L44 349 Z M307 766 L405 827 L502 766 C514 759 519 761 525 769 L551 806 C556 813 551 821 545 825 L415 926 C408 931 400 931 394 926 L264 825 C258 821 253 813 258 806 L284 769 C290 761 295 759 307 766 L307 766 Z " />
<glyph glyph-name="ccircumflex" unicode="&#x109;" horiz-adv-x="492" d="M36 231 C36 92 145 -11 280 -11 C362 -11 424 25 463 86 C471 98 466 109 455 119 L410 157 C402 164 388 162 381 154 C361 131 334 103 283 103 C211 103 162 159 162 231 C162 302 212 358 284 358 C327 358 354 339 376 318 C385 309 396 304 406 315 L448 361 C458 371 463 384 453 394 C409 441 353 472 281 472 C144 472 36 367 36 231 L36 231 Z M160 529 C166 521 171 519 183 526 L281 587 L378 526 C390 519 395 521 401 529 L427 566 C432 573 427 581 421 585 L291 686 C284 691 276 691 270 686 L140 585 C134 581 129 573 134 566 L160 529 Z " />
<glyph glyph-name="Cdotaccent" unicode="&#x10a;" horiz-adv-x="688" d="M44 349 C44 149 205 -10 405 -10 C494 -10 580 21 648 87 C655 94 657 107 649 114 L587 178 C581 184 570 185 562 178 C520 144 469 121 409 121 C281 121 185 227 185 352 C185 478 280 585 408 585 C464 585 520 563 562 526 C570 518 580 518 587 526 L648 589 C656 597 656 609 647 617 C579 678 506 710 405 710 C205 710 44 549 44 349 L44 349 Z M406 773 C451 773 486 809 486 853 C486 897 451 932 406 932 C361 932 327 897 327 853 C327 809 361 773 406 773 L406 773 Z " />
<glyph glyph-name="cdotaccent" unicode="&#x10b;" horiz-adv-x="492" d="M36 231 C36 92 145 -11 280 -11 C362 -11 424 25 463 86 C471 98 466 109 455 119 L410 157 C402 164 388 162 381 154 C361 131 334 103 283 103 C211 103 162 159 162 231 C162 302 212 358 284 358 C327 358 354 339 376 318 C385 309 396 304 406 315 L448 361 C458 371 463 384 453 394 C409 441 353 472 281 472 C144 472 36 367 36 231 L36 231 Z M280 541 C325 541 360 577 360 621 C360 665 325 700 280 700 C235 700 201 665 201 621 C201 577 235 541 280 541 L280 541 Z " />
<glyph glyph-name="Ccaron" unicode="&#x10c;" horiz-adv-x="688" d="M44 349 C44 149 205 -10 405 -10 C494 -10 580 21 648 87 C655 94 657 107 649 114 L587 178 C581 184 570 185 562 178 C520 144 469 121 409 121 C281 121 185 227 185 352 C185 478 280 585 408 585 C464 585 520 563 562 526 C570 518 580 518 587 526 L648 589 C656 597 656 609 647 617 C579 678 506 710 405 710 C205 710 44 549 44 349 L44 349 Z M394 764 C401 759 409 759 415 764 L545 865 C551 869 556 877 551 884 L525 921 C519 929 514 931 502 924 L404 863 L307 924 C295 931 290 929 284 921 L258 884 C253 877 258 869 264 865 L394 764 Z " />
<glyph glyph-name="ccaron" unicode="&#x10d;" horiz-adv-x="492" d="M36 231 C36 92 145 -11 280 -11 C362 -11 424 25 463 86 C471 98 466 109 455 119 L410 157 C402 164 388 162 381 154 C361 131 334 103 283 103 C211 103 162 159 162 231 C162 302 212 358 284 358 C327 358 354 339 376 318 C385 309 396 304 406 315 L448 361 C458 371 463 384 453 394 C409 441 353 472 281 472 C144 472 36 367 36 231 L36 231 Z M270 524 C277 519 285 519 291 524 L421 625 C427 629 432 637 427 644 L401 681 C395 689 390 691 378 684 L280 623 L183 684 C171 691 166 689 160 681 L134 644 C129 637 134 629 140 625 L270 524 Z " />
<glyph glyph-name="Dcaron" unicode="&#x10e;" horiz-adv-x="735" d="M85 19 C85 9 93 0 103 0 L340 0 C533 0 691 157 691 351 C691 543 533 700 340 700 L103 700 C93 700 85 691 85 681 L85 19 Z M214 122 L214 579 L328 579 C458 579 553 487 553 351 C553 214 458 122 328 122 L214 122 Z M333 764 C340 759 348 759 354 764 L484 865 C490 869 495 877 490 884 L464 921 C458 929 453 931 441 924 L343 863 L246 924 C234 931 229 929 223 921 L197 884 C192 877 197 869 203 865 L333 764 Z " />
<glyph glyph-name="dcaron" unicode="&#x10f;" horiz-adv-x="567" d="M36 231 C36 91 131 -11 257 -11 C355 -11 408 58 408 58 L420 22 C424 9 431 0 442 0 L479 0 C491 0 501 10 501 22 L501 678 C501 689 491 700 479 700 L398 700 C387 700 376 689 376 678 L376 453 C355 461 311 472 265 472 C127 472 36 366 36 231 L36 231 Z M376 167 C366 141 334 103 274 103 C202 103 165 166 165 231 C165 296 204 358 280 358 C338 358 376 332 376 332 L376 167 Z M537 640 C537 608 560 582 597 582 C614 582 628 591 630 592 C630 587 630 583 630 579 C630 556 619 529 604 513 C597 506 596 498 605 492 L631 472 C639 467 647 467 651 474 C678 503 704 548 704 611 C704 680 664 710 614 710 C570 710 537 684 537 640 L537 640 Z " />
<glyph glyph-name="Dcroat" unicode="&#x110;" horiz-adv-x="735" d="M85 19 C85 9 93 0 103 0 L340 0 C533 0 691 157 691 351 C691 543 533 700 340 700 L103 700 C93 700 85 691 85 681 L85 372 L56 372 C46 372 38 363 38 353 L38 340 C38 330 46 321 56 321 L85 321 L85 19 Z M214 122 L214 321 L379 321 C390 321 398 329 398 339 L398 353 C398 363 390 372 379 372 L214 372 L214 579 L328 579 C458 579 553 481 553 351 C553 220 458 122 328 122 L214 122 Z " />
<glyph glyph-name="dcroat" unicode="&#x111;" horiz-adv-x="565" d="M36 231 C36 91 131 -11 257 -11 C355 -11 408 58 408 58 L420 22 C424 9 431 0 442 0 L479 0 C491 0 501 10 501 22 L501 533 L539 533 C549 533 557 542 557 552 L557 565 C557 575 549 584 539 584 L501 584 L501 678 C501 689 491 700 479 700 L398 700 C387 700 376 689 376 678 L376 584 L268 584 C257 584 249 575 249 565 L249 551 C249 541 257 533 268 533 L376 533 L376 453 C355 461 311 472 265 472 C127 472 36 366 36 231 L36 231 Z M376 167 C366 141 334 103 274 103 C202 103 165 166 165 231 C165 296 204 358 280 358 C338 358 376 332 376 332 L376 167 Z " />
<glyph glyph-name="Emacron" unicode="&#x112;" horiz-adv-x="576" d="M85 19 C85 9 93 0 104 0 L511 0 C522 0 530 9 530 19 L530 101 C530 111 522 120 511 120 L215 120 L215 295 L462 295 C472 295 481 303 481 314 L481 397 C481 407 472 416 462 416 L215 416 L215 580 L511 580 C522 580 530 589 530 599 L530 681 C530 691 522 700 511 700 L104 700 C93 700 85 691 85 681 L85 19 Z M183 808 L439 808 C450 808 458 816 458 826 L458 860 C458 871 450 879 439 879 L183 879 C172 879 164 871 164 860 L164 826 C164 816 172 808 183 808 L183 808 Z " />
<glyph glyph-name="emacron" unicode="&#x113;" horiz-adv-x="511" d="M36 231 C36 99 132 -11 270 -11 C345 -11 402 18 442 52 C453 62 452 73 444 82 L405 134 C398 144 386 143 375 134 C354 117 322 100 276 100 C209 100 162 150 161 207 L457 207 C467 207 478 216 479 228 C480 235 481 251 481 258 C481 383 389 472 269 472 C132 472 36 361 36 231 L36 231 Z M168 289 C174 335 210 369 266 369 C317 369 353 334 355 289 L168 289 Z M138 570 L394 570 C405 570 413 578 413 588 L413 622 C413 633 405 641 394 641 L138 641 C127 641 119 633 119 622 L119 588 C119 578 127 570 138 570 L138 570 Z " />
<glyph glyph-name="Ebreve" unicode="&#x114;" horiz-adv-x="576" d="M85 19 C85 9 93 0 104 0 L511 0 C522 0 530 9 530 19 L530 101 C530 111 522 120 511 120 L215 120 L215 295 L462 295 C472 295 481 303 481 314 L481 397 C481 407 472 416 462 416 L215 416 L215 580 L511 580 C522 580 530 589 530 599 L530 681 C530 691 522 700 511 700 L104 700 C93 700 85 691 85 681 L85 19 Z M316 766 C388 766 445 817 456 884 C457 895 450 905 438 905 L399 905 C392 905 384 900 382 891 C372 864 346 838 316 838 C283 838 258 861 248 891 C246 898 240 905 231 905 L194 905 C181 905 174 895 176 884 C186 817 243 766 316 766 L316 766 Z " />
<glyph glyph-name="ebreve" unicode="&#x115;" horiz-adv-x="511" d="M36 231 C36 99 132 -11 270 -11 C345 -11 402 18 442 52 C453 62 452 73 444 82 L405 134 C398 144 386 143 375 134 C354 117 322 100 276 100 C209 100 162 150 161 207 L457 207 C467 207 478 216 479 228 C480 235 481 251 481 258 C481 383 389 472 269 472 C132 472 36 361 36 231 L36 231 Z M168 289 C174 335 210 369 266 369 C317 369 353 334 355 289 L168 289 Z M271 528 C343 528 400 579 411 646 C412 658 405 668 393 668 L354 668 C347 668 339 662 337 654 C327 626 301 601 271 601 C238 601 213 623 203 654 C201 661 195 668 186 668 L149 668 C136 668 129 658 131 646 C141 579 198 528 271 528 L271 528 Z " />
<glyph glyph-name="Edotaccent" unicode="&#x116;" horiz-adv-x="576" d="M85 19 C85 9 93 0 104 0 L511 0 C522 0 530 9 530 19 L530 101 C530 111 522 120 511 120 L215 120 L215 295 L462 295 C472 295 481 303 481 314 L481 397 C481 407 472 416 462 416 L215 416 L215 580 L511 580 C522 580 530 589 530 599 L530 681 C530 691 522 700 511 700 L104 700 C93 700 85 691 85 681 L85 19 Z M316 773 C361 773 396 809 396 853 C396 897 361 932 316 932 C271 932 237 897 237 853 C237 809 271 773 316 773 L316 773 Z " />
<glyph glyph-name="edotaccent" unicode="&#x117;" horiz-adv-x="511" d="M36 231 C36 99 132 -11 270 -11 C345 -11 402 18 442 52 C453 62 452 73 444 82 L405 134 C398 144 386 143 375 134 C354 117 322 100 276 100 C209 100 162 150 161 207 L457 207 C467 207 478 216 479 228 C480 235 481 251 481 258 C481 383 389 472 269 472 C132 472 36 361 36 231 L36 231 Z M168 289 C174 335 210 369 266 369 C317 369 353 334 355 289 L168 289 Z M270 541 C315 541 350 577 350 621 C350 665 315 700 270 700 C225 700 191 665 191 621 C191 577 225 541 270 541 L270 541 Z " />
<glyph glyph-name="Eogonek" unicode="&#x118;" horiz-adv-x="576" d="M85 19 C85 9 93 0 104 0 L422 0 C385 -27 330 -72 330 -143 C330 -201 365 -247 435 -247 C474 -247 508 -234 524 -224 C536 -215 539 -205 539 -193 L538 -144 C538 -133 527 -129 518 -137 C510 -144 484 -165 457 -165 C433 -165 418 -152 418 -122 C418 -72 480 -24 512 0 C518 5 530 9 530 27 L530 101 C530 111 522 120 511 120 L215 120 L215 295 L462 295 C472 295 481 303 481 314 L481 397 C481 407 472 416 462 416 L215 416 L215 580 L511 580 C522 580 530 589 530 599 L530 681 C530 691 522 700 511 700 L104 700 C93 700 85 691 85 681 L85 19 Z " />
<glyph glyph-name="eogonek" unicode="&#x119;" horiz-adv-x="511" d="M36 231 C36 108 119 5 241 -9 C206 -36 162 -80 162 -143 C162 -201 197 -247 267 -247 C306 -247 340 -234 356 -224 C368 -215 371 -205 371 -193 L370 -144 C370 -133 359 -129 350 -137 C342 -144 316 -165 289 -165 C265 -165 250 -152 250 -122 C250 -73 309 -24 342 -1 C382 10 416 30 442 52 C453 62 452 73 444 82 L405 134 C398 144 386 143 375 134 C354 117 322 100 276 100 C209 100 162 150 161 207 L457 207 C467 207 478 216 479 228 C480 235 481 251 481 258 C481 383 389 472 269 472 C132 472 36 361 36 231 L36 231 Z M168 289 C174 335 210 369 266 369 C317 369 353 334 355 289 L168 289 Z " />
<glyph glyph-name="Ecaron" unicode="&#x11a;" horiz-adv-x="576" d="M85 19 C85 9 93 0 104 0 L511 0 C522 0 530 9 530 19 L530 101 C530 111 522 120 511 120 L215 120 L215 295 L462 295 C472 295 481 303 481 314 L481 397 C481 407 472 416 462 416 L215 416 L215 580 L511 580 C522 580 530 589 530 599 L530 681 C530 691 522 700 511 700 L104 700 C93 700 85 691 85 681 L85 19 Z M299 764 C306 759 314 759 320 764 L450 865 C456 869 461 877 456 884 L430 921 C424 929 419 931 407 924 L309 863 L212 924 C200 931 195 929 189 921 L163 884 C158 877 163 869 169 865 L299 764 Z " />
<glyph glyph-name="ecaron" unicode="&#x11b;" horiz-adv-x="511" d="M36 231 C36 99 132 -11 270 -11 C345 -11 402 18 442 52 C453 62 452 73 444 82 L405 134 C398 144 386 143 375 134 C354 117 322 100 276 100 C209 100 162 150 161 207 L457 207 C467 207 478 216 479 228 C480 235 481 251 481 258 C481 383 389 472 269 472 C132 472 36 361 36 231 L36 231 Z M168 289 C174 335 210 369 266 369 C317 369 353 334 355 289 L168 289 Z M258 524 C265 519 273 519 279 524 L409 625 C415 629 420 637 415 644 L389 681 C383 689 378 691 366 684 L268 623 L171 684 C159 691 154 689 148 681 L122 644 C117 637 122 629 128 625 L258 524 Z " />
<glyph glyph-name="Gcircumflex" unicode="&#x11c;" horiz-adv-x="718" d="M44 349 C44 149 204 -9 403 -9 C548 -9 651 56 651 56 C655 59 659 64 659 72 L659 328 C659 338 651 347 641 347 L449 347 C438 347 430 339 430 328 L430 249 C430 239 438 231 449 231 L529 231 L529 146 C509 138 466 121 410 121 C284 121 185 226 185 350 C185 475 284 582 409 582 C464 582 517 562 560 524 C569 516 578 516 586 524 L648 589 C656 597 655 609 647 617 C579 675 493 710 403 710 C204 710 44 549 44 349 L44 349 Z M304 766 L402 827 L499 766 C511 759 516 761 522 769 L548 806 C553 813 548 821 542 825 L412 926 C405 931 397 931 391 926 L261 825 C255 821 250 813 255 806 L281 769 C287 761 292 759 304 766 L304 766 Z " />
<glyph glyph-name="gcircumflex" unicode="&#x11d;" horiz-adv-x="565" d="M170 529 C176 521 181 519 193 526 L291 587 L388 526 C400 519 405 521 411 529 L437 566 C442 573 437 581 431 585 L301 686 C294 691 286 691 280 686 L150 585 C144 581 139 573 144 566 L170 529 Z M376 294 C366 320 334 358 274 358 C202 358 165 295 165 230 C165 165 204 103 280 103 C338 103 376 129 376 129 L376 294 Z M501 -5 C501 -154 397 -229 271 -229 C195 -229 127 -194 105 -177 C98 -171 95 -159 100 -151 L130 -86 C134 -77 147 -74 157 -80 C174 -90 219 -115 267 -115 C338 -115 376 -91 376 -5 L376 8 C355 0 311 -11 265 -11 C127 -11 36 95 36 230 C36 370 131 472 257 472 C355 472 408 403 408 403 L420 440 C424 453 431 462 442 462 L479 462 C491 462 501 452 501 440 L501 -5 Z " />
<glyph glyph-name="Gbreve" unicode="&#x11e;" horiz-adv-x="718" d="M44 349 C44 149 204 -9 403 -9 C548 -9 651 56 651 56 C655 59 659 64 659 72 L659 328 C659 338 651 347 641 347 L449 347 C438 347 430 339 430 328 L430 249 C430 239 438 231 449 231 L529 231 L529 146 C509 138 466 121 410 121 C284 121 185 226 185 350 C185 475 284 582 409 582 C464 582 517 562 560 524 C569 516 578 516 586 524 L648 589 C656 597 655 609 647 617 C579 675 493 710 403 710 C204 710 44 549 44 349 L44 349 Z M404 766 C476 766 533 817 544 884 C545 895 538 905 526 905 L487 905 C480 905 472 900 470 891 C460 864 434 838 404 838 C371 838 346 861 336 891 C334 898 328 905 319 905 L282 905 C269 905 262 895 264 884 C274 817 331 766 404 766 L404 766 Z " />
<glyph glyph-name="gbreve" unicode="&#x11f;" horiz-adv-x="565" d="M290 528 C362 528 419 579 430 646 C431 658 424 668 412 668 L373 668 C366 668 358 662 356 654 C346 626 320 601 290 601 C257 601 232 623 222 654 C220 661 214 668 205 668 L168 668 C155 668 148 658 150 646 C160 579 217 528 290 528 L290 528 Z M376 294 C366 320 334 358 274 358 C202 358 165 295 165 230 C165 165 204 103 280 103 C338 103 376 129 376 129 L376 294 Z M501 -5 C501 -154 397 -229 271 -229 C195 -229 127 -194 105 -177 C98 -171 95 -159 100 -151 L130 -86 C134 -77 147 -74 157 -80 C174 -90 219 -115 267 -115 C338 -115 376 -91 376 -5 L376 8 C355 0 311 -11 265 -11 C127 -11 36 95 36 230 C36 370 131 472 257 472 C355 472 408 403 408 403 L420 440 C424 453 431 462 442 462 L479 462 C491 462 501 452 501 440 L501 -5 Z " />
<glyph glyph-name="Gdotaccent" unicode="&#x120;" horiz-adv-x="718" d="M44 349 C44 149 204 -9 403 -9 C548 -9 651 56 651 56 C655 59 659 64 659 72 L659 328 C659 338 651 347 641 347 L449 347 C438 347 430 339 430 328 L430 249 C430 239 438 231 449 231 L529 231 L529 146 C509 138 466 121 410 121 C284 121 185 226 185 350 C185 475 284 582 409 582 C464 582 517 562 560 524 C569 516 578 516 586 524 L648 589 C656 597 655 609 647 617 C579 675 493 710 403 710 C204 710 44 549 44 349 L44 349 Z M404 773 C449 773 484 809 484 853 C484 897 449 932 404 932 C359 932 325 897 325 853 C325 809 359 773 404 773 L404 773 Z " />
<glyph glyph-name="gdotaccent" unicode="&#x121;" horiz-adv-x="565" d="M287 541 C332 541 367 577 367 621 C367 665 332 700 287 700 C242 700 208 665 208 621 C208 577 242 541 287 541 L287 541 Z M376 294 C366 320 334 358 274 358 C202 358 165 295 165 230 C165 165 204 103 280 103 C338 103 376 129 376 129 L376 294 Z M501 -5 C501 -154 397 -229 271 -229 C195 -229 127 -194 105 -177 C98 -171 95 -159 100 -151 L130 -86 C134 -77 147 -74 157 -80 C174 -90 219 -115 267 -115 C338 -115 376 -91 376 -5 L376 8 C355 0 311 -11 265 -11 C127 -11 36 95 36 230 C36 370 131 472 257 472 C355 472 408 403 408 403 L420 440 C424 453 431 462 442 462 L479 462 C491 462 501 452 501 440 L501 -5 Z " />
<glyph glyph-name="Gcommaaccent" unicode="&#x122;" horiz-adv-x="718" d="M44 349 C44 149 204 -9 403 -9 C548 -9 651 56 651 56 C655 59 659 64 659 72 L659 328 C659 338 651 347 641 347 L449 347 C438 347 430 339 430 328 L430 249 C430 239 438 231 449 231 L529 231 L529 146 C509 138 466 121 410 121 C284 121 185 226 185 350 C185 475 284 582 409 582 C464 582 517 562 560 524 C569 516 578 516 586 524 L648 589 C656 597 655 609 647 617 C579 675 493 710 403 710 C204 710 44 549 44 349 L44 349 Z M323 -134 C323 -166 346 -192 383 -192 C400 -192 414 -183 416 -182 C416 -187 416 -191 416 -195 C416 -218 405 -245 390 -261 C383 -268 382 -276 391 -282 L417 -302 C425 -307 433 -307 437 -300 C464 -271 490 -226 490 -163 C490 -94 450 -64 400 -64 C356 -64 323 -90 323 -134 L323 -134 Z " />
<glyph glyph-name="gcommaaccent" unicode="&#x123;" horiz-adv-x="565" d="M376 294 C366 320 334 358 274 358 C202 358 165 295 165 230 C165 165 204 103 280 103 C338 103 376 129 376 129 L376 294 Z M501 -5 C501 -154 397 -229 271 -229 C195 -229 127 -194 105 -177 C98 -171 95 -159 100 -151 L130 -86 C134 -77 147 -74 157 -80 C174 -90 219 -115 267 -115 C338 -115 376 -91 376 -5 L376 8 C355 0 311 -11 265 -11 C127 -11 36 95 36 230 C36 370 131 472 257 472 C355 472 408 403 408 403 L420 440 C424 453 431 462 442 462 L479 462 C491 462 501 452 501 440 L501 -5 Z M387 590 C387 622 364 648 327 648 C310 648 296 639 294 638 C294 643 294 647 294 651 C294 674 305 701 320 717 C327 724 328 732 319 738 L293 758 C285 763 277 763 273 756 C246 727 220 682 220 619 C220 550 260 520 310 520 C354 520 387 546 387 590 L387 590 Z " />
<glyph glyph-name="Hcircumflex" unicode="&#x124;" horiz-adv-x="757" d="M85 19 C85 9 94 0 104 0 L197 0 C208 0 216 9 216 19 L216 295 L542 295 L542 19 C542 9 550 0 561 0 L653 0 C663 0 672 9 672 19 L672 681 C672 691 663 700 653 700 L561 700 C550 700 542 691 542 681 L542 416 L216 416 L216 681 C216 691 208 700 197 700 L104 700 C94 700 85 691 85 681 L85 19 Z M285 766 L383 827 L480 766 C492 759 497 761 503 769 L529 806 C534 813 529 821 523 825 L393 926 C386 931 378 931 372 926 L242 825 C236 821 231 813 236 806 L262 769 C268 761 273 759 285 766 L285 766 Z " />
<glyph glyph-name="hcircumflex" unicode="&#x125;" horiz-adv-x="552" d="M64 22 C64 10 75 0 86 0 L165 0 C183 0 189 9 189 22 L189 277 C201 324 231 358 285 358 C340 358 369 319 369 255 L369 22 C369 10 379 0 391 0 L472 0 C483 0 494 10 494 22 L494 254 C494 370 454 472 307 472 C252 472 212 453 189 433 L189 678 C189 689 179 700 167 700 L86 700 C75 700 64 689 64 678 L64 22 Z M2 746 C8 738 13 736 25 743 L123 804 L220 743 C232 736 237 738 243 746 L269 783 C274 790 269 798 263 802 L133 903 C126 908 118 908 112 903 L-18 802 C-24 798 -29 790 -24 783 L2 746 Z " />
<glyph glyph-name="Hbar" unicode="&#x126;" horiz-adv-x="757" d="M85 19 C85 9 94 0 104 0 L197 0 C208 0 216 9 216 19 L216 295 L542 295 L542 19 C542 9 550 0 561 0 L653 0 C663 0 672 9 672 19 L672 533 L698 533 C709 533 717 541 717 551 L717 565 C717 575 709 584 698 584 L672 584 L672 681 C672 691 663 700 653 700 L561 700 C550 700 542 691 542 681 L542 584 L216 584 L216 681 C216 691 208 700 197 700 L104 700 C94 700 85 691 85 681 L85 584 L59 584 C49 584 41 575 41 565 L41 552 C41 542 49 533 59 533 L85 533 L85 19 Z M216 416 L216 533 L542 533 L542 416 L216 416 Z " />
<glyph glyph-name="hbar" unicode="&#x127;" horiz-adv-x="572" d="M64 22 C64 10 75 0 86 0 L165 0 C183 0 189 9 189 22 L189 277 C201 324 241 358 295 358 C350 358 389 319 389 255 L389 22 C389 10 399 0 411 0 L492 0 C503 0 514 10 514 22 L514 254 C514 370 464 472 317 472 C262 472 212 453 189 433 L189 533 L299 533 C310 533 318 541 318 551 L318 565 C318 575 310 584 299 584 L189 584 L189 678 C189 689 179 700 167 700 L86 700 C75 700 64 689 64 678 L64 584 L29 584 C19 584 11 575 11 565 L11 552 C11 542 19 533 29 533 L64 533 L64 22 Z " />
<glyph glyph-name="Itilde" unicode="&#x128;" horiz-adv-x="301" d="M85 19 C85 9 94 0 104 0 L197 0 C207 0 216 9 216 19 L216 681 C216 691 207 700 197 700 L104 700 C94 700 85 691 85 681 L85 19 Z M31 789 C61 770 59 832 95 832 C128 832 152 776 204 776 C261 776 290 833 301 852 C308 864 309 876 300 883 L272 903 C243 924 242 862 207 862 C169 862 152 917 100 917 C39 917 6 851 -4 833 C-7 826 -5 815 2 810 L31 789 Z " />
<glyph glyph-name="itilde" unicode="&#x129;" horiz-adv-x="253" d="M64 22 C64 10 75 0 86 0 L167 0 C178 0 189 10 189 22 L189 440 C189 453 178 462 167 462 L86 462 C75 462 64 453 64 440 L64 22 Z M14 562 C44 543 42 605 78 605 C111 605 135 549 187 549 C244 549 273 606 284 625 C291 637 292 649 283 656 L255 676 C226 697 225 635 190 635 C152 635 135 690 83 690 C22 690 -11 624 -21 606 C-24 599 -22 588 -15 583 L14 562 Z " />
<glyph glyph-name="Imacron" unicode="&#x12a;" horiz-adv-x="301" d="M85 19 C85 9 94 0 104 0 L197 0 C207 0 216 9 216 19 L216 681 C216 691 207 700 197 700 L104 700 C94 700 85 691 85 681 L85 19 Z M23 808 L279 808 C290 808 298 816 298 826 L298 860 C298 871 290 879 279 879 L23 879 C12 879 4 871 4 860 L4 826 C4 816 12 808 23 808 L23 808 Z " />
<glyph glyph-name="imacron" unicode="&#x12b;" horiz-adv-x="253" d="M64 22 C64 10 75 0 86 0 L167 0 C178 0 189 10 189 22 L189 440 C189 453 178 462 167 462 L86 462 C75 462 64 453 64 440 L64 22 Z M7 570 L263 570 C274 570 282 578 282 588 L282 622 C282 633 274 641 263 641 L7 641 C-4 641 -12 633 -12 622 L-12 588 C-12 578 -4 570 7 570 L7 570 Z " />
<glyph glyph-name="Ibreve" unicode="&#x12c;" horiz-adv-x="301" d="M85 19 C85 9 94 0 104 0 L197 0 C207 0 216 9 216 19 L216 681 C216 691 207 700 197 700 L104 700 C94 700 85 691 85 681 L85 19 Z M151 766 C223 766 280 817 291 884 C292 895 285 905 273 905 L234 905 C227 905 219 900 217 891 C207 864 181 838 151 838 C118 838 93 861 83 891 C81 898 75 905 66 905 L29 905 C16 905 9 895 11 884 C21 817 78 766 151 766 L151 766 Z " />
<glyph glyph-name="ibreve" unicode="&#x12d;" horiz-adv-x="253" d="M64 22 C64 10 75 0 86 0 L167 0 C178 0 189 10 189 22 L189 440 C189 453 178 462 167 462 L86 462 C75 462 64 453 64 440 L64 22 Z M135 528 C207 528 264 579 275 646 C276 658 269 668 257 668 L218 668 C211 668 203 662 201 654 C191 626 165 601 135 601 C102 601 77 623 67 654 C65 661 59 668 50 668 L13 668 C0 668 -7 658 -5 646 C5 579 62 528 135 528 L135 528 Z " />
<glyph glyph-name="Iogonek" unicode="&#x12e;" horiz-adv-x="301" d="M85 19 C85 9 94 0 104 0 L109 0 C72 -27 17 -72 17 -143 C17 -201 52 -247 122 -247 C161 -247 195 -235 211 -224 C223 -216 226 -205 226 -193 L225 -144 C225 -133 214 -129 205 -137 C197 -144 171 -165 144 -165 C120 -165 105 -152 105 -122 C105 -72 166 -22 199 0 C208 5 216 13 216 28 L216 681 C216 691 207 700 197 700 L104 700 C94 700 85 691 85 681 L85 19 Z " />
<glyph glyph-name="iogonek" unicode="&#x12f;" horiz-adv-x="253" d="M64 22 C64 12 71 4 79 1 C43 -25 -14 -71 -14 -143 C-14 -201 21 -247 91 -247 C130 -247 164 -234 180 -224 C192 -215 195 -205 195 -193 L194 -144 C194 -133 183 -129 174 -137 C166 -144 140 -165 113 -165 C89 -165 74 -152 74 -122 C74 -72 135 -22 168 0 C177 7 189 16 189 37 L189 440 C189 453 178 462 167 462 L86 462 C75 462 64 453 64 440 L64 22 Z M125 541 C170 541 205 577 205 621 C205 665 170 700 125 700 C80 700 46 665 46 621 C46 577 80 541 125 541 L125 541 Z " />
<glyph glyph-name="Idotaccent" unicode="&#x130;" horiz-adv-x="301" d="M85 19 C85 9 94 0 104 0 L197 0 C207 0 216 9 216 19 L216 681 C216 691 207 700 197 700 L104 700 C94 700 85 691 85 681 L85 19 Z M151 773 C196 773 231 809 231 853 C231 897 196 932 151 932 C106 932 72 897 72 853 C72 809 106 773 151 773 L151 773 Z " />
<glyph glyph-name="dotlessi" unicode="&#x131;" horiz-adv-x="253" d="M64 22 C64 10 75 0 86 0 L167 0 C178 0 189 10 189 22 L189 440 C189 453 178 462 167 462 L86 462 C75 462 64 453 64 440 L64 22 Z " />
<glyph glyph-name="IJ" unicode="&#x132;" horiz-adv-x="752" d="M85 19 C85 9 94 0 104 0 L197 0 C207 0 216 9 216 19 L216 681 C216 691 207 700 197 700 L104 700 C94 700 85 691 85 681 L85 19 Z M310 63 C327 42 375 -10 462 -10 C579 -10 672 60 672 199 L672 681 C672 691 664 700 653 700 L559 700 C548 700 540 691 540 681 L540 199 C540 130 501 108 460 108 C427 108 407 126 394 140 C385 149 375 151 364 141 L312 88 C306 81 305 71 310 63 L310 63 Z " />
<glyph glyph-name="ij" unicode="&#x133;" horiz-adv-x="511" d="M64 22 C64 10 75 0 86 0 L167 0 C178 0 189 10 189 22 L189 440 C189 453 178 462 167 462 L86 462 C75 462 64 453 64 440 L64 22 Z M125 541 C170 541 205 577 205 621 C205 665 170 700 125 700 C80 700 46 665 46 621 C46 577 80 541 125 541 L125 541 Z M447 440 C447 453 436 462 425 462 L344 462 C333 462 322 453 322 440 L322 -36 C322 -98 284 -121 251 -139 C234 -148 232 -161 239 -179 L263 -235 C270 -253 291 -252 307 -245 C383 -212 447 -156 447 -19 L447 440 Z M383 541 C428 541 463 577 463 621 C463 665 428 700 383 700 C338 700 304 665 304 621 C304 577 338 541 383 541 L383 541 Z " />
<glyph glyph-name="Jcircumflex" unicode="&#x134;" horiz-adv-x="456" d="M14 63 C31 42 79 -10 166 -10 C283 -10 376 60 376 199 L376 681 C376 691 368 700 357 700 L263 700 C252 700 244 691 244 681 L244 199 C244 130 205 108 164 108 C131 108 111 126 98 140 C89 149 79 151 68 141 L16 88 C10 81 9 71 14 63 L14 63 Z M214 766 L312 827 L409 766 C421 759 426 761 432 769 L458 806 C463 813 458 821 452 825 L322 926 C315 931 307 931 301 926 L171 825 C165 821 160 813 165 806 L191 769 C197 761 202 759 214 766 L214 766 Z " />
<glyph glyph-name="jcircumflex" unicode="&#x135;" horiz-adv-x="253" d="M189 440 C189 453 178 462 167 462 L86 462 C75 462 64 453 64 440 L64 -36 C64 -98 26 -121 -7 -139 C-24 -148 -26 -161 -19 -179 L5 -235 C12 -253 33 -252 49 -245 C125 -212 189 -156 189 -19 L189 440 Z M6 529 C12 521 17 519 29 526 L127 587 L224 526 C236 519 241 521 247 529 L273 566 C278 573 273 581 267 585 L137 686 C130 691 122 691 116 686 L-14 585 C-20 581 -25 573 -20 566 L6 529 Z " />
<glyph glyph-name="Kcommaaccent" unicode="&#x136;" horiz-adv-x="642" d="M85 24 C85 11 95 0 109 0 L197 0 C210 0 221 11 221 24 L221 329 L482 7 C484 4 490 0 500 0 L609 0 C629 0 637 22 627 35 L347 370 L608 664 C621 679 611 700 592 700 L492 700 C483 700 477 695 473 690 L221 406 L221 676 C221 689 210 700 197 700 L109 700 C95 700 85 689 85 676 L85 24 Z M267 -134 C267 -166 290 -192 327 -192 C344 -192 358 -183 360 -182 C360 -187 360 -191 360 -195 C360 -218 349 -245 334 -261 C327 -268 326 -276 335 -282 L361 -302 C369 -307 377 -307 381 -300 C408 -271 434 -226 434 -163 C434 -94 394 -64 344 -64 C300 -64 267 -90 267 -134 L267 -134 Z " />
<glyph glyph-name="kcommaaccent" unicode="&#x137;" horiz-adv-x="517" d="M64 22 C64 10 75 0 86 0 L167 0 C179 0 189 10 189 22 L189 217 L363 9 C366 4 375 0 383 0 L481 0 C500 0 507 20 495 33 L303 248 L486 428 C497 441 490 462 471 462 L377 462 C364 462 356 455 348 448 L189 287 L189 678 C189 689 179 700 167 700 L86 700 C75 700 64 689 64 678 L64 22 Z M191 -134 C191 -166 214 -192 251 -192 C268 -192 282 -183 284 -182 C284 -187 284 -191 284 -195 C284 -218 273 -245 258 -261 C251 -268 250 -276 259 -282 L285 -302 C293 -307 301 -307 305 -300 C332 -271 358 -226 358 -163 C358 -94 318 -64 268 -64 C224 -64 191 -90 191 -134 L191 -134 Z " />
<glyph glyph-name="kgreenlandic" unicode="&#x138;" horiz-adv-x="536" d="M64 22 C64 10 75 0 86 0 L167 0 C179 0 189 10 189 22 L189 187 L371 9 C376 5 383 0 391 0 L504 0 C523 0 530 20 518 33 L308 226 L499 428 C511 441 505 462 485 462 L393 462 C380 462 371 457 363 448 L189 256 L189 440 C189 451 179 462 167 462 L86 462 C75 462 64 451 64 440 L64 22 Z " />
<glyph glyph-name="Lacute" unicode="&#x139;" horiz-adv-x="505" d="M85 19 C85 9 93 0 104 0 L470 0 C481 0 489 9 489 19 L489 101 C489 111 481 120 470 120 L215 120 L215 681 C215 691 206 700 196 700 L104 700 C93 700 85 691 85 681 L85 19 Z M79 768 L254 845 C263 849 267 860 260 872 L232 924 C227 933 217 934 206 927 L42 829 C37 826 32 818 36 810 L54 775 C58 766 65 762 79 768 L79 768 Z " />
<glyph glyph-name="lacute" unicode="&#x13a;" horiz-adv-x="255" d="M65 22 C65 10 76 0 87 0 L168 0 C179 0 190 10 190 22 L190 678 C190 689 179 700 168 700 L87 700 C76 700 65 689 65 678 L65 22 Z M64 745 L239 822 C247 826 251 836 245 849 L216 900 C211 909 199 909 190 903 L27 806 C21 802 17 795 21 787 L38 751 C43 742 49 739 64 745 L64 745 Z " />
<glyph glyph-name="Lcommaaccent" unicode="&#x13b;" horiz-adv-x="505" d="M85 19 C85 9 93 0 104 0 L470 0 C481 0 489 9 489 19 L489 101 C489 111 481 120 470 120 L215 120 L215 681 C215 691 206 700 196 700 L104 700 C93 700 85 691 85 681 L85 19 Z M210 -134 C210 -166 233 -192 270 -192 C287 -192 301 -183 303 -182 C303 -187 303 -191 303 -195 C303 -218 292 -245 277 -261 C270 -268 269 -276 278 -282 L304 -302 C312 -307 320 -307 324 -300 C351 -271 377 -226 377 -163 C377 -94 337 -64 287 -64 C243 -64 210 -90 210 -134 L210 -134 Z " />
<glyph glyph-name="lcommaaccent" unicode="&#x13c;" horiz-adv-x="255" d="M65 22 C65 10 76 0 87 0 L168 0 C179 0 190 10 190 22 L190 678 C190 689 179 700 168 700 L87 700 C76 700 65 689 65 678 L65 22 Z M45 -134 C45 -166 68 -192 105 -192 C122 -192 136 -183 138 -182 C138 -187 138 -191 138 -195 C138 -218 127 -245 112 -261 C105 -268 104 -276 113 -282 L139 -302 C147 -307 155 -307 159 -300 C186 -271 212 -226 212 -163 C212 -94 172 -64 122 -64 C78 -64 45 -90 45 -134 L45 -134 Z " />
<glyph glyph-name="Lcaron" unicode="&#x13d;" horiz-adv-x="513" d="M85 19 C85 9 93 0 104 0 L470 0 C481 0 489 9 489 19 L489 101 C489 111 481 120 470 120 L215 120 L215 681 C215 691 206 700 196 700 L104 700 C93 700 85 691 85 681 L85 19 Z M311 640 C311 608 334 582 371 582 C388 582 402 591 404 592 C404 587 404 583 404 579 C404 556 393 529 378 513 C371 506 370 498 379 492 L405 472 C413 467 421 467 425 474 C452 503 478 548 478 611 C478 680 438 710 388 710 C344 710 311 684 311 640 L311 640 Z " />
<glyph glyph-name="lcaron" unicode="&#x13e;" horiz-adv-x="256" d="M65 22 C65 10 76 0 87 0 L168 0 C179 0 190 10 190 22 L190 678 C190 689 179 700 168 700 L87 700 C76 700 65 689 65 678 L65 22 Z M226 640 C226 608 249 582 286 582 C303 582 317 591 319 592 C319 587 319 583 319 579 C319 556 308 529 293 513 C286 506 285 498 294 492 L320 472 C328 467 336 467 340 474 C367 503 393 548 393 611 C393 680 353 710 303 710 C259 710 226 684 226 640 L226 640 Z " />
<glyph glyph-name="Ldot" unicode="&#x13f;" horiz-adv-x="536" d="M85 19 C85 9 93 0 104 0 L470 0 C481 0 489 9 489 19 L489 101 C489 111 481 120 470 120 L215 120 L215 681 C215 691 206 700 196 700 L104 700 C93 700 85 691 85 681 L85 19 Z M447 295 C492 295 527 331 527 375 C527 419 492 454 447 454 C402 454 368 419 368 375 C368 331 402 295 447 295 L447 295 Z " />
<glyph glyph-name="ldot" unicode="&#x140;" horiz-adv-x="408" d="M65 22 C65 10 76 0 87 0 L168 0 C179 0 190 10 190 22 L190 678 C190 689 179 700 168 700 L87 700 C76 700 65 689 65 678 L65 22 Z M331 264 C376 264 411 300 411 344 C411 388 376 423 331 423 C286 423 252 388 252 344 C252 300 286 264 331 264 L331 264 Z " />
<glyph glyph-name="Lslash" unicode="&#x141;" horiz-adv-x="505" d="M85 19 C85 9 93 0 104 0 L470 0 C481 0 489 9 489 19 L489 101 C489 111 481 120 470 120 L215 120 L215 381 L328 447 C337 453 340 464 335 472 L328 485 C323 493 312 497 302 492 L215 441 L215 681 C215 691 206 700 196 700 L104 700 C93 700 85 691 85 681 L85 365 L36 338 C27 333 25 321 30 313 L37 301 C42 292 54 289 62 294 L85 306 L85 19 Z " />
<glyph glyph-name="lslash" unicode="&#x142;" horiz-adv-x="287" d="M78 22 C78 10 89 0 100 0 L181 0 C192 0 203 10 203 22 L203 382 L293 434 C302 439 305 451 300 459 L293 472 C288 481 277 485 267 479 L203 441 L203 678 C203 689 192 700 181 700 L100 700 C89 700 78 689 78 678 L78 368 L22 336 C13 331 11 319 16 311 L22 299 C27 290 36 285 48 292 L78 309 L78 22 Z " />
<glyph glyph-name="Nacute" unicode="&#x143;" horiz-adv-x="761" d="M85 19 C85 9 94 0 104 0 L195 0 C206 0 214 9 214 19 L214 449 L216 449 L626 -3 C631 -8 636 -10 643 -10 L657 -10 C667 -10 676 -2 676 8 L676 681 C676 691 667 700 657 700 L565 700 C554 700 546 691 546 681 L546 268 L544 268 L136 703 C131 708 126 710 119 710 L104 710 C94 710 85 702 85 692 L85 19 Z M313 768 L488 845 C497 849 501 860 494 872 L466 924 C461 933 451 934 440 927 L276 829 C271 826 266 818 270 810 L288 775 C292 766 299 762 313 768 L313 768 Z " />
<glyph glyph-name="nacute" unicode="&#x144;" horiz-adv-x="553" d="M64 22 C64 10 75 0 86 0 L160 0 C182 0 189 5 189 22 L189 286 C200 318 229 358 289 358 C345 358 369 321 369 261 L369 22 C369 10 379 0 391 0 L472 0 C483 0 494 10 494 22 L494 261 C494 373 456 472 309 472 C220 472 177 424 160 405 L143 448 C140 457 135 462 124 462 L86 462 C75 462 64 453 64 440 L64 22 Z M218 528 L393 605 C401 609 405 619 399 632 L370 683 C365 692 353 692 344 686 L181 589 C175 585 171 578 175 570 L192 534 C197 525 203 522 218 528 L218 528 Z " />
<glyph glyph-name="Ncommaaccent" unicode="&#x145;" horiz-adv-x="761" d="M85 19 C85 9 94 0 104 0 L195 0 C206 0 214 9 214 19 L214 449 L216 449 L626 -3 C631 -8 636 -10 643 -10 L657 -10 C667 -10 676 -2 676 8 L676 681 C676 691 667 700 657 700 L565 700 C554 700 546 691 546 681 L546 268 L544 268 L136 703 C131 708 126 710 119 710 L104 710 C94 710 85 702 85 692 L85 19 Z M317 -134 C317 -166 340 -192 377 -192 C394 -192 408 -183 410 -182 C410 -187 410 -191 410 -195 C410 -218 399 -245 384 -261 C377 -268 376 -276 385 -282 L411 -302 C419 -307 427 -307 431 -300 C458 -271 484 -226 484 -163 C484 -94 444 -64 394 -64 C350 -64 317 -90 317 -134 L317 -134 Z " />
<glyph glyph-name="ncommaaccent" unicode="&#x146;" horiz-adv-x="553" d="M64 22 C64 10 75 0 86 0 L160 0 C182 0 189 5 189 22 L189 286 C200 318 229 358 289 358 C345 358 369 321 369 261 L369 22 C369 10 379 0 391 0 L472 0 C483 0 494 10 494 22 L494 261 C494 373 456 472 309 472 C220 472 177 424 160 405 L143 448 C140 457 135 462 124 462 L86 462 C75 462 64 453 64 440 L64 22 Z M207 -134 C207 -166 230 -192 267 -192 C284 -192 298 -183 300 -182 C300 -187 300 -191 300 -195 C300 -218 289 -245 274 -261 C267 -268 266 -276 275 -282 L301 -302 C309 -307 317 -307 321 -300 C348 -271 374 -226 374 -163 C374 -94 334 -64 284 -64 C240 -64 207 -90 207 -134 L207 -134 Z " />
<glyph glyph-name="Ncaron" unicode="&#x147;" horiz-adv-x="761" d="M85 19 C85 9 94 0 104 0 L195 0 C206 0 214 9 214 19 L214 449 L216 449 L626 -3 C631 -8 636 -10 643 -10 L657 -10 C667 -10 676 -2 676 8 L676 681 C676 691 667 700 657 700 L565 700 C554 700 546 691 546 681 L546 268 L544 268 L136 703 C131 708 126 710 119 710 L104 710 C94 710 85 702 85 692 L85 19 Z M368 764 C375 759 383 759 389 764 L519 865 C525 869 530 877 525 884 L499 921 C493 929 488 931 476 924 L378 863 L281 924 C269 931 264 929 258 921 L232 884 C227 877 232 869 238 865 L368 764 Z " />
<glyph glyph-name="ncaron" unicode="&#x148;" horiz-adv-x="553" d="M64 22 C64 10 75 0 86 0 L160 0 C182 0 189 5 189 22 L189 286 C200 318 229 358 289 358 C345 358 369 321 369 261 L369 22 C369 10 379 0 391 0 L472 0 C483 0 494 10 494 22 L494 261 C494 373 456 472 309 472 C220 472 177 424 160 405 L143 448 C140 457 135 462 124 462 L86 462 C75 462 64 453 64 440 L64 22 Z M282 524 C289 519 297 519 303 524 L433 625 C439 629 444 637 439 644 L413 681 C407 689 402 691 390 684 L292 623 L195 684 C183 691 178 689 172 681 L146 644 C141 637 146 629 152 625 L282 524 Z " />
<glyph glyph-name="napostrophe" unicode="&#x149;" horiz-adv-x="553" d="M-90 640 C-90 608 -67 582 -30 582 C-13 582 1 591 3 592 C3 587 3 583 3 579 C3 556 -8 529 -23 513 C-30 506 -31 498 -22 492 L4 472 C12 467 20 467 24 474 C51 503 77 548 77 611 C77 680 37 710 -13 710 C-57 710 -90 684 -90 640 L-90 640 Z M64 22 C64 10 75 0 86 0 L160 0 C182 0 189 5 189 22 L189 286 C200 318 229 358 289 358 C345 358 369 321 369 261 L369 22 C369 10 379 0 391 0 L472 0 C483 0 494 10 494 22 L494 261 C494 373 456 472 309 472 C220 472 177 424 160 405 L143 448 C140 457 135 462 124 462 L86 462 C75 462 64 453 64 440 L64 22 Z " />
<glyph glyph-name="Eng" unicode="&#x14a;" horiz-adv-x="761" d="M676 681 C676 691 667 700 657 700 L565 700 C554 700 546 691 546 681 L546 268 L545 268 L136 703 C131 708 126 710 119 710 L104 710 C94 710 85 702 85 692 L85 19 C85 9 94 0 104 0 L195 0 C206 0 214 9 214 19 L214 449 L215 449 L551 79 L551 -36 C551 -98 513 -120 480 -138 C463 -147 461 -160 468 -178 L492 -234 C499 -252 520 -251 536 -244 C612 -211 676 -156 676 -19 L676 681 Z " />
<glyph glyph-name="eng" unicode="&#x14b;" horiz-adv-x="553" d="M494 261 C494 373 456 472 309 472 C220 472 177 424 160 405 L143 448 C140 457 135 462 124 462 L86 462 C75 462 64 453 64 440 L64 22 C64 10 75 0 86 0 L160 0 C182 0 189 5 189 22 L189 286 C200 318 229 358 289 358 C345 358 369 321 369 261 L369 -36 C369 -98 331 -121 298 -139 C281 -148 279 -161 286 -179 L310 -235 C317 -253 338 -252 354 -245 C430 -212 494 -156 494 -19 L494 261 Z " />
<glyph glyph-name="Omacron" unicode="&#x14c;" horiz-adv-x="807" d="M44 349 C44 149 203 -10 403 -10 C603 -10 763 149 763 349 C763 549 603 710 403 710 C203 710 44 549 44 349 L44 349 Z M174 349 C174 475 277 580 403 580 C529 580 633 475 633 349 C633 223 529 120 403 120 C277 120 174 223 174 349 L174 349 Z M275 808 L531 808 C542 808 550 816 550 826 L550 860 C550 871 542 879 531 879 L275 879 C264 879 256 871 256 860 L256 826 C256 816 264 808 275 808 L275 808 Z " />
<glyph glyph-name="omacron" unicode="&#x14d;" horiz-adv-x="544" d="M36 232 C36 100 142 -11 272 -11 C403 -11 509 100 509 232 C509 362 403 472 272 472 C142 472 36 362 36 232 L36 232 Z M152 232 C152 302 205 358 272 358 C339 358 393 302 393 232 C393 161 339 103 272 103 C205 103 152 161 152 232 L152 232 Z M146 570 L402 570 C413 570 421 578 421 588 L421 622 C421 633 413 641 402 641 L146 641 C135 641 127 633 127 622 L127 588 C127 578 135 570 146 570 L146 570 Z " />
<glyph glyph-name="Obreve" unicode="&#x14e;" horiz-adv-x="807" d="M44 349 C44 149 203 -10 403 -10 C603 -10 763 149 763 349 C763 549 603 710 403 710 C203 710 44 549 44 349 L44 349 Z M174 349 C174 475 277 580 403 580 C529 580 633 475 633 349 C633 223 529 120 403 120 C277 120 174 223 174 349 L174 349 Z M403 766 C475 766 532 817 543 884 C544 895 537 905 525 905 L486 905 C479 905 471 900 469 891 C459 864 433 838 403 838 C370 838 345 861 335 891 C333 898 327 905 318 905 L281 905 C268 905 261 895 263 884 C273 817 330 766 403 766 L403 766 Z " />
<glyph glyph-name="obreve" unicode="&#x14f;" horiz-adv-x="544" d="M36 232 C36 100 142 -11 272 -11 C403 -11 509 100 509 232 C509 362 403 472 272 472 C142 472 36 362 36 232 L36 232 Z M152 232 C152 302 205 358 272 358 C339 358 393 302 393 232 C393 161 339 103 272 103 C205 103 152 161 152 232 L152 232 Z M274 528 C346 528 403 579 414 646 C415 658 408 668 396 668 L357 668 C350 668 342 662 340 654 C330 626 304 601 274 601 C241 601 216 623 206 654 C204 661 198 668 189 668 L152 668 C139 668 132 658 134 646 C144 579 201 528 274 528 L274 528 Z " />
<glyph glyph-name="Ohungarumlaut" unicode="&#x150;" horiz-adv-x="807" d="M44 349 C44 149 203 -10 403 -10 C603 -10 763 149 763 349 C763 549 603 710 403 710 C203 710 44 549 44 349 L44 349 Z M174 349 C174 475 277 580 403 580 C529 580 633 475 633 349 C633 223 529 120 403 120 C277 120 174 223 174 349 L174 349 Z M482 768 L517 768 C524 768 531 775 535 783 L613 922 C620 934 614 947 595 947 L519 947 C509 947 503 938 500 928 L463 787 C460 777 466 768 482 768 L482 768 Z M316 768 L351 768 C358 768 365 775 369 783 L447 922 C454 935 448 947 429 947 L353 947 C343 947 337 938 334 928 L297 787 C294 777 300 768 316 768 L316 768 Z " />
<glyph glyph-name="ohungarumlaut" unicode="&#x151;" horiz-adv-x="544" d="M36 232 C36 100 142 -11 272 -11 C403 -11 509 100 509 232 C509 362 403 472 272 472 C142 472 36 362 36 232 L36 232 Z M152 232 C152 302 205 358 272 358 C339 358 393 302 393 232 C393 161 339 103 272 103 C205 103 152 161 152 232 L152 232 Z M346 521 L381 521 C388 521 395 528 399 536 L477 675 C484 687 478 700 459 700 L383 700 C373 700 367 691 364 681 L327 540 C324 530 330 521 346 521 L346 521 Z M180 521 L215 521 C222 521 229 528 233 536 L311 675 C318 688 312 700 293 700 L217 700 C207 700 201 691 198 681 L161 540 C158 530 164 521 180 521 L180 521 Z " />
<glyph glyph-name="OE" unicode="&#x152;" horiz-adv-x="972" d="M44 349 C44 149 203 -10 403 -10 C444 -10 500 0 500 0 L907 0 C918 0 926 9 926 19 L926 101 C926 111 918 120 907 120 L611 120 L611 295 L858 295 C868 295 877 303 877 314 L877 397 C877 407 868 416 858 416 L611 416 L611 580 L907 580 C918 580 926 589 926 599 L926 681 C926 691 918 700 907 700 L500 700 C500 700 457 710 403 710 C203 710 44 549 44 349 L44 349 Z M174 349 C174 475 277 582 403 582 C430 582 456 577 481 568 L481 131 C456 121 430 118 403 118 C277 118 174 223 174 349 L174 349 Z " />
<glyph glyph-name="oe" unicode="&#x153;" horiz-adv-x="849" d="M507 289 C513 335 549 369 605 369 C656 369 692 334 694 289 L507 289 Z M152 232 C152 302 205 358 272 358 C339 358 393 302 393 232 C393 161 339 103 272 103 C205 103 152 161 152 232 L152 232 Z M605 -11 C681 -12 745 18 782 53 C793 62 790 73 783 83 L744 134 C735 145 723 142 714 134 C693 114 651 100 615 100 C550 100 503 147 500 207 L795 207 C805 207 816 215 817 227 C818 234 819 250 819 257 C819 384 720 472 604 472 C535 472 480 445 440 400 C398 444 337 472 272 472 C142 472 36 363 36 233 C36 101 142 -11 272 -11 C337 -11 396 16 438 61 C479 16 536 -10 605 -11 L605 -11 Z " />
<glyph glyph-name="Racute" unicode="&#x154;" horiz-adv-x="660" d="M85 19 C85 9 93 0 104 0 L196 0 C206 0 215 9 215 19 L215 274 L326 274 L459 9 C461 5 466 0 475 0 L580 0 C597 0 604 16 597 29 L460 283 C547 318 608 393 608 485 C608 604 510 700 390 700 L104 700 C93 700 85 691 85 681 L85 19 Z M216 381 L216 580 L379 580 C432 580 478 536 478 483 C478 427 432 381 379 381 L216 381 Z M252 768 L427 845 C436 849 440 860 433 872 L405 924 C400 933 390 934 379 927 L215 829 C210 826 205 818 209 810 L227 775 C231 766 238 762 252 768 L252 768 Z " />
<glyph glyph-name="racute" unicode="&#x155;" horiz-adv-x="387" d="M64 22 C64 10 75 0 86 0 L163 0 C178 0 189 5 189 22 L189 310 C197 326 227 358 277 358 C298 358 309 354 320 349 C331 344 342 348 347 359 L377 427 C390 457 345 472 290 472 C219 472 176 425 160 402 L143 447 C139 457 134 462 123 462 L86 462 C75 462 64 453 64 440 L64 22 Z M137 528 L312 605 C320 609 324 619 318 632 L289 683 C284 692 272 692 263 686 L100 589 C94 585 90 578 94 570 L111 534 C116 525 122 522 137 528 L137 528 Z " />
<glyph glyph-name="Rcommaaccent" unicode="&#x156;" horiz-adv-x="660" d="M85 19 C85 9 93 0 104 0 L196 0 C206 0 215 9 215 19 L215 274 L326 274 L459 9 C461 5 466 0 475 0 L580 0 C597 0 604 16 597 29 L460 283 C547 318 608 393 608 485 C608 604 510 700 390 700 L104 700 C93 700 85 691 85 681 L85 19 Z M216 381 L216 580 L379 580 C432 580 478 536 478 483 C478 427 432 381 379 381 L216 381 Z M256 -134 C256 -166 279 -192 316 -192 C333 -192 347 -183 349 -182 C349 -187 349 -191 349 -195 C349 -218 338 -245 323 -261 C316 -268 315 -276 324 -282 L350 -302 C358 -307 366 -307 370 -300 C397 -271 423 -226 423 -163 C423 -94 383 -64 333 -64 C289 -64 256 -90 256 -134 L256 -134 Z " />
<glyph glyph-name="rcommaaccent" unicode="&#x157;" horiz-adv-x="387" d="M64 22 C64 10 75 0 86 0 L163 0 C178 0 189 5 189 22 L189 310 C197 326 227 358 277 358 C298 358 309 354 320 349 C331 344 342 348 347 359 L377 427 C390 457 345 472 290 472 C219 472 176 425 160 402 L143 447 C139 457 134 462 123 462 L86 462 C75 462 64 453 64 440 L64 22 Z M54 -134 C54 -166 77 -192 114 -192 C131 -192 145 -183 147 -182 C147 -187 147 -191 147 -195 C147 -218 136 -245 121 -261 C114 -268 113 -276 122 -282 L148 -302 C156 -307 164 -307 168 -300 C195 -271 221 -226 221 -163 C221 -94 181 -64 131 -64 C87 -64 54 -90 54 -134 L54 -134 Z " />
<glyph glyph-name="Rcaron" unicode="&#x158;" horiz-adv-x="660" d="M85 19 C85 9 93 0 104 0 L196 0 C206 0 215 9 215 19 L215 274 L326 274 L459 9 C461 5 466 0 475 0 L580 0 C597 0 604 16 597 29 L460 283 C547 318 608 393 608 485 C608 604 510 700 390 700 L104 700 C93 700 85 691 85 681 L85 19 Z M216 381 L216 580 L379 580 C432 580 478 536 478 483 C478 427 432 381 379 381 L216 381 Z M307 764 C314 759 322 759 328 764 L458 865 C464 869 469 877 464 884 L438 921 C432 929 427 931 415 924 L317 863 L220 924 C208 931 203 929 197 921 L171 884 C166 877 171 869 177 865 L307 764 Z " />
<glyph glyph-name="rcaron" unicode="&#x159;" horiz-adv-x="387" d="M64 22 C64 10 75 0 86 0 L163 0 C178 0 189 5 189 22 L189 310 C197 326 227 358 277 358 C298 358 309 354 320 349 C331 344 342 348 347 359 L377 427 C390 457 345 472 290 472 C219 472 176 425 160 402 L143 447 C139 457 134 462 123 462 L86 462 C75 462 64 453 64 440 L64 22 Z M188 524 C195 519 203 519 209 524 L339 625 C345 629 350 637 345 644 L319 681 C313 689 308 691 296 684 L198 623 L101 684 C89 691 84 689 78 681 L52 644 C47 637 52 629 58 625 L188 524 Z " />
<glyph glyph-name="Sacute" unicode="&#x15a;" horiz-adv-x="545" d="M276 -10 C417 -10 506 85 506 188 C506 317 394 375 297 414 C216 447 179 479 179 526 C179 564 210 596 267 596 C322 596 363 568 406 541 C418 533 433 541 441 553 L479 610 C486 620 483 637 473 643 C453 658 375 710 273 710 C114 710 48 607 48 518 C48 400 142 340 236 302 C320 268 363 233 363 182 C363 139 324 105 272 105 C207 105 162 136 121 167 C112 174 95 174 87 160 L51 98 C42 82 46 76 56 68 C85 43 150 -10 276 -10 L276 -10 Z M204 768 L379 845 C388 849 392 860 385 872 L357 924 C352 933 342 934 331 927 L167 829 C162 826 157 818 161 810 L179 775 C183 766 190 762 204 768 L204 768 Z " />
<glyph glyph-name="sacute" unicode="&#x15b;" horiz-adv-x="413" d="M201 -11 C317 -11 379 54 379 127 C379 219 315 251 226 287 C183 305 160 316 160 337 C160 352 173 367 204 367 C242 367 274 354 296 344 C306 340 318 342 325 353 L351 406 C357 418 351 430 341 438 C316 454 272 472 204 472 C91 472 38 407 38 337 C38 267 78 225 167 191 C228 167 254 148 254 127 C254 107 238 94 203 94 C155 94 122 111 101 124 C90 131 79 127 74 116 L44 56 C39 46 44 35 50 31 C76 13 124 -11 201 -11 L201 -11 Z M147 528 L322 605 C330 609 334 619 328 632 L299 683 C294 692 282 692 273 686 L110 589 C104 585 100 578 104 570 L121 534 C126 525 132 522 147 528 L147 528 Z " />
<glyph glyph-name="Scircumflex" unicode="&#x15c;" horiz-adv-x="545" d="M276 -10 C417 -10 506 85 506 188 C506 317 394 375 297 414 C216 447 179 479 179 526 C179 564 210 596 267 596 C322 596 363 568 406 541 C418 533 433 541 441 553 L479 610 C486 620 483 637 473 643 C453 658 375 710 273 710 C114 710 48 607 48 518 C48 400 142 340 236 302 C320 268 363 233 363 182 C363 139 324 105 272 105 C207 105 162 136 121 167 C112 174 95 174 87 160 L51 98 C42 82 46 76 56 68 C85 43 150 -10 276 -10 L276 -10 Z M174 766 L272 827 L369 766 C381 759 386 761 392 769 L418 806 C423 813 418 821 412 825 L282 926 C275 931 267 931 261 926 L131 825 C125 821 120 813 125 806 L151 769 C157 761 162 759 174 766 L174 766 Z " />
<glyph glyph-name="scircumflex" unicode="&#x15d;" horiz-adv-x="413" d="M201 -11 C317 -11 379 54 379 127 C379 219 315 251 226 287 C183 305 160 316 160 337 C160 352 173 367 204 367 C242 367 274 354 296 344 C306 340 318 342 325 353 L351 406 C357 418 351 430 341 438 C316 454 272 472 204 472 C91 472 38 407 38 337 C38 267 78 225 167 191 C228 167 254 148 254 127 C254 107 238 94 203 94 C155 94 122 111 101 124 C90 131 79 127 74 116 L44 56 C39 46 44 35 50 31 C76 13 124 -11 201 -11 L201 -11 Z M90 529 C96 521 101 519 113 526 L211 587 L308 526 C320 519 325 521 331 529 L357 566 C362 573 357 581 351 585 L221 686 C214 691 206 691 200 686 L70 585 C64 581 59 573 64 566 L90 529 Z " />
<glyph glyph-name="Scedilla" unicode="&#x15e;" horiz-adv-x="545" d="M56 68 C73 51 133 4 232 -7 L189 -96 C184 -105 196 -118 206 -114 C215 -111 226 -103 244 -103 C271 -103 290 -116 290 -141 C290 -167 271 -180 243 -180 C224 -180 207 -170 200 -164 C188 -156 179 -159 173 -173 L164 -193 C158 -204 156 -213 164 -221 C181 -235 209 -246 248 -246 C316 -246 368 -209 368 -146 C368 -90 328 -59 283 -59 C276 -59 269 -60 262 -62 L295 -9 C425 -1 506 89 506 188 C506 317 394 375 297 414 C216 447 179 479 179 526 C179 558 210 596 267 596 C322 596 398 546 406 541 C418 533 433 541 441 553 L479 610 C486 620 483 637 473 643 C453 658 375 710 273 710 C114 710 48 607 48 518 C48 400 142 340 236 302 C320 268 363 233 363 182 C363 139 324 105 272 105 C207 105 126 164 121 167 C112 174 95 174 87 160 L51 98 C42 82 47 77 56 68 L56 68 Z " />
<glyph glyph-name="scedilla" unicode="&#x15f;" horiz-adv-x="413" d="M379 127 C379 219 315 251 226 287 C183 305 160 316 160 337 C160 352 173 367 204 367 C242 367 274 354 296 344 C306 340 318 342 325 353 L351 406 C357 418 351 430 341 438 C316 454 272 472 204 472 C91 472 38 407 38 337 C38 267 78 225 167 191 C228 167 254 148 254 127 C254 107 233 94 203 94 C155 94 122 111 101 124 C90 131 79 127 74 116 L44 56 C39 46 44 35 50 31 C72 15 110 -4 169 -9 L126 -96 C121 -105 133 -118 143 -114 C152 -111 163 -103 181 -103 C208 -103 227 -116 227 -141 C227 -167 208 -180 180 -180 C161 -180 144 -170 137 -164 C125 -156 116 -159 110 -173 L101 -193 C95 -204 93 -213 101 -221 C118 -235 146 -246 185 -246 C253 -246 305 -209 305 -146 C305 -90 265 -59 220 -59 C213 -59 206 -60 199 -62 L232 -9 C328 1 379 61 379 127 L379 127 Z " />
<glyph glyph-name="Scaron" unicode="&#x160;" horiz-adv-x="545" d="M276 -10 C417 -10 506 85 506 188 C506 317 394 375 297 414 C216 447 179 479 179 526 C179 564 210 596 267 596 C322 596 363 568 406 541 C418 533 433 541 441 553 L479 610 C486 620 483 637 473 643 C453 658 375 710 273 710 C114 710 48 607 48 518 C48 400 142 340 236 302 C320 268 363 233 363 182 C363 139 324 105 272 105 C207 105 162 136 121 167 C112 174 95 174 87 160 L51 98 C42 82 46 76 56 68 C85 43 150 -10 276 -10 L276 -10 Z M262 764 C269 759 277 759 283 764 L413 865 C419 869 424 877 419 884 L393 921 C387 929 382 931 370 924 L272 863 L175 924 C163 931 158 929 152 921 L126 884 C121 877 126 869 132 865 L262 764 Z " />
<glyph glyph-name="scaron" unicode="&#x161;" horiz-adv-x="413" d="M201 -11 C317 -11 379 54 379 127 C379 219 315 251 226 287 C183 305 160 316 160 337 C160 352 173 367 204 367 C242 367 274 354 296 344 C306 340 318 342 325 353 L351 406 C357 418 351 430 341 438 C316 454 272 472 204 472 C91 472 38 407 38 337 C38 267 78 225 167 191 C228 167 254 148 254 127 C254 107 238 94 203 94 C155 94 122 111 101 124 C90 131 79 127 74 116 L44 56 C39 46 44 35 50 31 C76 13 124 -11 201 -11 L201 -11 Z M204 524 C211 519 219 519 225 524 L355 625 C361 629 366 637 361 644 L335 681 C329 689 324 691 312 684 L214 623 L117 684 C105 691 100 689 94 681 L68 644 C63 637 68 629 74 625 L204 524 Z " />
<glyph glyph-name="Tcommaaccent" unicode="&#x162;" horiz-adv-x="527" d="M198 19 C198 9 207 0 217 0 L228 0 L181 -96 C176 -105 188 -118 198 -114 C207 -111 218 -103 236 -103 C263 -103 282 -116 282 -141 C282 -167 263 -180 235 -180 C216 -180 199 -170 192 -164 C180 -156 171 -159 165 -173 L156 -193 C150 -204 148 -213 156 -221 C173 -235 201 -246 240 -246 C308 -246 360 -209 360 -146 C360 -90 320 -59 275 -59 C268 -59 261 -60 254 -62 L293 0 L310 0 C320 0 329 9 329 19 L329 580 L482 580 C493 580 501 589 501 599 L501 681 C501 691 493 700 482 700 L45 700 C34 700 26 691 26 681 L26 599 C26 589 34 580 45 580 L198 580 L198 19 Z " />
<glyph glyph-name="tcommaaccent" unicode="&#x163;" horiz-adv-x="392" d="M97 138 C97 69 116 9 186 -7 L142 -96 C137 -105 149 -118 159 -114 C168 -111 179 -103 197 -103 C224 -103 243 -116 243 -141 C243 -167 224 -180 196 -180 C177 -180 160 -170 153 -164 C141 -156 132 -159 126 -173 L117 -193 C111 -204 109 -213 117 -221 C134 -235 162 -246 201 -246 C269 -246 321 -209 321 -146 C321 -90 281 -59 236 -59 C229 -59 222 -60 215 -62 L248 -9 C292 -5 342 11 356 19 C367 25 372 34 369 46 L356 107 C354 118 343 124 330 119 C318 115 280 104 260 104 C237 104 222 111 222 142 L222 350 L330 350 C342 350 352 361 352 372 L352 440 C352 453 342 462 330 462 L222 462 L222 590 C222 602 213 612 201 612 L119 612 C108 612 97 602 97 590 L97 462 L52 462 C40 462 31 453 31 440 L31 372 C31 361 40 350 52 350 L97 350 L97 138 Z " />
<glyph glyph-name="Tcaron" unicode="&#x164;" horiz-adv-x="527" d="M198 19 C198 9 207 0 217 0 L310 0 C320 0 329 9 329 19 L329 580 L482 580 C493 580 501 589 501 599 L501 681 C501 691 493 700 482 700 L45 700 C34 700 26 691 26 681 L26 599 C26 589 34 580 45 580 L198 580 L198 19 Z M252 764 C259 759 267 759 273 764 L403 865 C409 869 414 877 409 884 L383 921 C377 929 372 931 360 924 L262 863 L165 924 C153 931 148 929 142 921 L116 884 C111 877 116 869 122 865 L252 764 Z " />
<glyph glyph-name="tcaron" unicode="&#x165;" horiz-adv-x="390" d="M95 138 C95 58 121 -11 224 -11 C272 -11 338 10 354 19 C365 25 370 34 367 46 L354 107 C352 118 341 124 328 119 C316 115 278 104 258 104 C235 104 220 111 220 142 L220 350 L328 350 C340 350 350 361 350 372 L350 440 C350 453 340 462 328 462 L220 462 L220 590 C220 602 211 612 199 612 L117 612 C106 612 95 602 95 590 L95 462 L50 462 C38 462 29 453 29 440 L29 372 C29 361 38 350 50 350 L95 350 L95 138 Z M320 640 C320 608 343 582 380 582 C397 582 411 591 413 592 C413 587 413 583 413 579 C413 556 402 529 387 513 C380 506 379 498 388 492 L414 472 C422 467 430 467 434 474 C461 503 487 548 487 611 C487 680 447 710 397 710 C353 710 320 684 320 640 L320 640 Z " />
<glyph glyph-name="Tbar" unicode="&#x166;" horiz-adv-x="527" d="M198 19 C198 9 207 0 217 0 L310 0 C320 0 329 9 329 19 L329 291 L427 291 C438 291 446 299 446 309 L446 323 C446 333 438 342 427 342 L329 342 L329 580 L482 580 C493 580 501 589 501 599 L501 681 C501 691 493 700 482 700 L45 700 C34 700 26 691 26 681 L26 599 C26 589 34 580 45 580 L198 580 L198 342 L104 342 C94 342 86 333 86 323 L86 310 C86 300 94 291 104 291 L198 291 L198 19 Z " />
<glyph glyph-name="tbar" unicode="&#x167;" horiz-adv-x="390" d="M95 138 C95 58 121 -11 224 -11 C272 -11 338 10 354 19 C365 25 370 34 367 46 L354 107 C352 118 341 124 328 119 C316 115 278 104 258 104 C235 104 220 111 220 142 L220 196 L319 196 C332 196 341 206 341 217 L341 233 C341 245 332 255 319 255 L220 255 L220 350 L328 350 C340 350 350 361 350 372 L350 440 C350 453 340 462 328 462 L220 462 L220 590 C220 602 211 612 199 612 L117 612 C106 612 95 602 95 590 L95 462 L50 462 C38 462 29 453 29 440 L29 372 C29 361 38 350 50 350 L95 350 L95 255 L53 255 C41 255 32 245 32 233 L32 218 C32 207 41 196 53 196 L95 196 L95 138 Z " />
<glyph glyph-name="Utilde" unicode="&#x168;" horiz-adv-x="713" d="M78 257 C78 105 199 -10 356 -10 C514 -10 635 105 635 257 L635 681 C635 691 626 700 616 700 L521 700 C510 700 502 691 502 681 L502 263 C502 179 443 120 356 120 C269 120 211 179 211 264 L211 681 C211 691 203 700 192 700 L97 700 C87 700 78 691 78 681 L78 257 Z M238 789 C268 770 266 832 302 832 C335 832 359 776 411 776 C468 776 497 833 508 852 C515 864 516 876 507 883 L479 903 C450 924 449 862 414 862 C376 862 359 917 307 917 C246 917 213 851 203 833 C200 826 202 815 209 810 L238 789 Z " />
<glyph glyph-name="utilde" unicode="&#x169;" horiz-adv-x="533" d="M59 195 C59 78 90 -11 233 -11 C304 -11 352 31 376 56 L389 17 C392 8 400 0 411 0 L447 0 C459 0 469 10 469 22 L469 440 C469 453 459 462 447 462 L369 462 C350 462 344 458 344 440 L344 189 C337 149 313 103 262 103 C205 103 184 134 184 195 L184 440 C184 453 174 462 162 462 L81 462 C69 462 59 453 59 440 L59 195 Z M145 562 C175 543 173 605 209 605 C242 605 266 549 318 549 C375 549 404 606 415 625 C422 637 423 649 414 656 L386 676 C357 697 356 635 321 635 C283 635 266 690 214 690 C153 690 120 624 110 606 C107 599 109 588 116 583 L145 562 Z " />
<glyph glyph-name="Umacron" unicode="&#x16a;" horiz-adv-x="713" d="M78 257 C78 105 199 -10 356 -10 C514 -10 635 105 635 257 L635 681 C635 691 626 700 616 700 L521 700 C510 700 502 691 502 681 L502 263 C502 179 443 120 356 120 C269 120 211 179 211 264 L211 681 C211 691 203 700 192 700 L97 700 C87 700 78 691 78 681 L78 257 Z M230 808 L486 808 C497 808 505 816 505 826 L505 860 C505 871 497 879 486 879 L230 879 C219 879 211 871 211 860 L211 826 C211 816 219 808 230 808 L230 808 Z " />
<glyph glyph-name="umacron" unicode="&#x16b;" horiz-adv-x="533" d="M59 195 C59 78 90 -11 233 -11 C304 -11 352 31 376 56 L389 17 C392 8 400 0 411 0 L447 0 C459 0 469 10 469 22 L469 440 C469 453 459 462 447 462 L369 462 C350 462 344 458 344 440 L344 189 C337 149 313 103 262 103 C205 103 184 134 184 195 L184 440 C184 453 174 462 162 462 L81 462 C69 462 59 453 59 440 L59 195 Z M137 570 L393 570 C404 570 412 578 412 588 L412 622 C412 633 404 641 393 641 L137 641 C126 641 118 633 118 622 L118 588 C118 578 126 570 137 570 L137 570 Z " />
<glyph glyph-name="Ubreve" unicode="&#x16c;" horiz-adv-x="713" d="M78 257 C78 105 199 -10 356 -10 C514 -10 635 105 635 257 L635 681 C635 691 626 700 616 700 L521 700 C510 700 502 691 502 681 L502 263 C502 179 443 120 356 120 C269 120 211 179 211 264 L211 681 C211 691 203 700 192 700 L97 700 C87 700 78 691 78 681 L78 257 Z M359 766 C431 766 488 817 499 884 C500 895 493 905 481 905 L442 905 C435 905 427 900 425 891 C415 864 389 838 359 838 C326 838 301 861 291 891 C289 898 283 905 274 905 L237 905 C224 905 217 895 219 884 C229 817 286 766 359 766 L359 766 Z " />
<glyph glyph-name="ubreve" unicode="&#x16d;" horiz-adv-x="533" d="M59 195 C59 78 90 -11 233 -11 C304 -11 352 31 376 56 L389 17 C392 8 400 0 411 0 L447 0 C459 0 469 10 469 22 L469 440 C469 453 459 462 447 462 L369 462 C350 462 344 458 344 440 L344 189 C337 149 313 103 262 103 C205 103 184 134 184 195 L184 440 C184 453 174 462 162 462 L81 462 C69 462 59 453 59 440 L59 195 Z M266 528 C338 528 395 579 406 646 C407 658 400 668 388 668 L349 668 C342 668 334 662 332 654 C322 626 296 601 266 601 C233 601 208 623 198 654 C196 661 190 668 181 668 L144 668 C131 668 124 658 126 646 C136 579 193 528 266 528 L266 528 Z " />
<glyph glyph-name="Uring" unicode="&#x16e;" horiz-adv-x="713" d="M78 257 C78 105 199 -10 356 -10 C514 -10 635 105 635 257 L635 681 C635 691 626 700 616 700 L521 700 C510 700 502 691 502 681 L502 263 C502 179 443 120 356 120 C269 120 211 179 211 264 L211 681 C211 691 203 700 192 700 L97 700 C87 700 78 691 78 681 L78 257 Z M359 754 C421 754 472 804 472 867 C472 930 421 980 359 980 C296 980 246 930 246 867 C246 804 296 754 359 754 L359 754 Z M359 817 C333 817 309 841 309 867 C309 893 333 915 359 915 C385 915 407 893 407 867 C407 841 385 817 359 817 L359 817 Z " />
<glyph glyph-name="uring" unicode="&#x16f;" horiz-adv-x="533" d="M59 195 C59 78 90 -11 233 -11 C304 -11 352 31 376 56 L389 17 C392 8 400 0 411 0 L447 0 C459 0 469 10 469 22 L469 440 C469 453 459 462 447 462 L369 462 C350 462 344 458 344 440 L344 189 C337 149 313 103 262 103 C205 103 184 134 184 195 L184 440 C184 453 174 462 162 462 L81 462 C69 462 59 453 59 440 L59 195 Z M263 503 C325 503 376 553 376 616 C376 679 325 729 263 729 C200 729 150 679 150 616 C150 553 200 503 263 503 L263 503 Z M263 566 C237 566 213 590 213 616 C213 642 237 664 263 664 C289 664 311 642 311 616 C311 590 289 566 263 566 L263 566 Z " />
<glyph glyph-name="Uhungarumlaut" unicode="&#x170;" horiz-adv-x="713" d="M78 257 C78 105 199 -10 356 -10 C514 -10 635 105 635 257 L635 681 C635 691 626 700 616 700 L521 700 C510 700 502 691 502 681 L502 263 C502 179 443 120 356 120 C269 120 211 179 211 264 L211 681 C211 691 203 700 192 700 L97 700 C87 700 78 691 78 681 L78 257 Z M429 768 L464 768 C471 768 478 775 482 783 L560 922 C567 934 561 947 542 947 L466 947 C456 947 450 938 447 928 L410 787 C407 777 413 768 429 768 L429 768 Z M263 768 L298 768 C305 768 312 775 316 783 L394 922 C401 935 395 947 376 947 L300 947 C290 947 284 938 281 928 L244 787 C241 777 247 768 263 768 L263 768 Z " />
<glyph glyph-name="uhungarumlaut" unicode="&#x171;" horiz-adv-x="533" d="M59 195 C59 78 90 -11 233 -11 C304 -11 352 31 376 56 L389 17 C392 8 400 0 411 0 L447 0 C459 0 469 10 469 22 L469 440 C469 453 459 462 447 462 L369 462 C350 462 344 458 344 440 L344 189 C337 149 313 103 262 103 C205 103 184 134 184 195 L184 440 C184 453 174 462 162 462 L81 462 C69 462 59 453 59 440 L59 195 Z M338 521 L373 521 C380 521 387 528 391 536 L469 675 C476 687 470 700 451 700 L375 700 C365 700 359 691 356 681 L319 540 C316 530 322 521 338 521 L338 521 Z M172 521 L207 521 C214 521 221 528 225 536 L303 675 C310 688 304 700 285 700 L209 700 C199 700 193 691 190 681 L153 540 C150 530 156 521 172 521 L172 521 Z " />
<glyph glyph-name="Uogonek" unicode="&#x172;" horiz-adv-x="713" d="M78 265 C78 126 179 11 316 -7 C280 -35 234 -79 234 -143 C234 -201 269 -247 339 -247 C378 -247 412 -234 428 -224 C440 -215 443 -205 443 -193 L442 -144 C442 -133 431 -129 422 -137 C414 -144 388 -165 361 -165 C337 -165 322 -152 322 -122 C322 -76 374 -29 408 -5 C540 18 635 130 635 265 L635 681 C635 691 626 700 616 700 L521 700 C510 700 502 691 502 681 L502 271 C502 187 443 120 356 120 C269 120 211 187 211 272 L211 681 C211 691 203 700 192 700 L97 700 C87 700 78 691 78 681 L78 265 Z " />
<glyph glyph-name="uogonek" unicode="&#x173;" horiz-adv-x="533" d="M59 205 C59 88 90 -11 233 -11 C325 -11 355 37 376 56 L388 18 C343 -10 270 -69 270 -143 C270 -201 305 -247 375 -247 C414 -247 448 -234 464 -224 C476 -215 479 -205 479 -193 L478 -144 C478 -133 467 -129 458 -137 C450 -144 424 -165 397 -165 C373 -165 358 -152 358 -122 C358 -72 421 -22 453 0 C461 6 469 17 469 29 L469 440 C469 453 459 462 447 462 L369 462 C350 462 344 458 344 440 L344 189 C337 149 313 103 262 103 C205 103 184 144 184 205 L184 440 C184 453 174 462 162 462 L81 462 C69 462 59 453 59 440 L59 205 Z " />
<glyph glyph-name="Wcircumflex" unicode="&#x174;" horiz-adv-x="885" d="M211 4 C213 -4 221 -10 229 -10 L245 -10 C255 -10 259 -5 262 1 L439 454 L444 454 L623 1 C625 -5 631 -10 640 -10 L656 -10 C664 -10 672 -4 674 4 L863 676 C867 690 859 700 845 700 L753 700 C745 700 737 693 735 686 L633 287 L629 287 L469 699 C467 705 462 710 452 710 L434 710 C424 710 419 705 417 699 L258 287 L254 287 L150 686 C148 693 140 700 132 700 L40 700 C26 700 18 690 22 676 L211 4 Z M345 766 L443 827 L540 766 C552 759 557 761 563 769 L589 806 C594 813 589 821 583 825 L453 926 C446 931 438 931 432 926 L302 825 C296 821 291 813 296 806 L322 769 C328 761 333 759 345 766 L345 766 Z " />
<glyph glyph-name="wcircumflex" unicode="&#x175;" horiz-adv-x="713" d="M167 2 C169 -5 176 -11 187 -11 L193 -11 C201 -11 208 -6 211 0 L356 278 C356 278 357 278 357 278 L502 0 C506 -6 511 -11 521 -11 L525 -11 C536 -11 544 -5 546 2 L688 436 C693 450 683 462 667 462 L597 462 C585 462 575 461 571 448 L502 228 C502 228 501 228 501 228 L381 462 C378 468 373 472 362 472 L353 472 C342 472 337 467 335 462 L214 228 C214 228 213 228 213 228 L143 448 C141 457 129 462 123 462 L45 462 C29 462 19 450 26 436 L167 2 Z M239 529 C245 521 250 519 262 526 L360 587 L457 526 C469 519 474 521 480 529 L506 566 C511 573 506 581 500 585 L370 686 C363 691 355 691 349 686 L219 585 C213 581 208 573 213 566 L239 529 Z " />
<glyph glyph-name="Ycircumflex" unicode="&#x176;" horiz-adv-x="593" d="M231 19 C231 9 239 0 250 0 L342 0 C352 0 361 9 361 19 L361 338 L592 671 C600 684 592 700 576 700 L473 700 C465 700 460 695 457 691 L297 461 L137 691 C134 695 129 700 121 700 L19 700 C3 700 -5 684 3 671 L231 337 L231 19 Z M200 766 L298 827 L395 766 C407 759 412 761 418 769 L444 806 C449 813 444 821 438 825 L308 926 C301 931 293 931 287 926 L157 825 C151 821 146 813 151 806 L177 769 C183 761 188 759 200 766 L200 766 Z " />
<glyph glyph-name="ycircumflex" unicode="&#x177;" horiz-adv-x="499" d="M165 27 L72 -207 C65 -223 74 -238 92 -238 L188 -238 C197 -238 205 -231 208 -224 L480 432 C487 447 478 462 460 462 L375 462 C361 462 353 461 346 449 L241 173 L239 173 L156 449 C154 457 147 462 137 462 L41 462 C23 462 15 448 21 432 L165 27 Z M131 529 C137 521 142 519 154 526 L252 587 L349 526 C361 519 366 521 372 529 L398 566 C403 573 398 581 392 585 L262 686 C255 691 247 691 241 686 L111 585 C105 581 100 573 105 566 L131 529 Z " />
<glyph glyph-name="Ydieresis" unicode="&#x178;" horiz-adv-x="593" d="M231 19 C231 9 239 0 250 0 L342 0 C352 0 361 9 361 19 L361 338 L592 671 C600 684 592 700 576 700 L473 700 C465 700 460 695 457 691 L297 461 L137 691 C134 695 129 700 121 700 L19 700 C3 700 -5 684 3 671 L231 337 L231 19 Z M420 766 C461 766 493 798 493 839 C493 880 461 911 420 911 C379 911 348 880 348 839 C348 798 379 766 420 766 L420 766 Z M173 766 C214 766 246 798 246 839 C246 880 214 911 173 911 C132 911 101 880 101 839 C101 798 132 766 173 766 L173 766 Z " />
<glyph glyph-name="Zacute" unicode="&#x179;" horiz-adv-x="538" d="M216 123 L501 652 C510 668 510 675 510 681 C510 691 501 700 491 700 L73 700 C63 700 54 691 54 681 L54 598 C54 588 63 579 73 579 L323 579 L323 575 L32 50 C25 37 25 30 25 19 C25 9 34 0 44 0 L471 0 C482 0 490 9 490 19 L490 102 C490 112 482 121 471 121 L216 121 L216 123 Z M214 768 L389 845 C398 849 402 860 395 872 L367 924 C362 933 352 934 341 927 L177 829 C172 826 167 818 171 810 L189 775 C193 766 200 762 214 768 L214 768 Z " />
<glyph glyph-name="zacute" unicode="&#x17a;" horiz-adv-x="408" d="M207 113 L207 115 L381 430 C383 434 384 437 384 441 C384 453 375 462 361 462 L63 462 C52 462 42 453 42 440 L42 370 C42 359 52 348 63 348 L202 348 L202 346 L37 43 C32 34 32 30 32 22 C32 10 42 0 54 0 L339 0 C351 0 361 10 361 22 L361 91 C361 103 351 113 339 113 L207 113 Z M139 528 L314 605 C322 609 326 619 320 632 L291 683 C286 692 274 692 265 686 L102 589 C96 585 92 578 96 570 L113 534 C118 525 124 522 139 528 L139 528 Z " />
<glyph glyph-name="Zdotaccent" unicode="&#x17b;" horiz-adv-x="538" d="M216 123 L501 652 C510 668 510 675 510 681 C510 691 501 700 491 700 L73 700 C63 700 54 691 54 681 L54 598 C54 588 63 579 73 579 L323 579 L323 575 L32 50 C25 37 25 30 25 19 C25 9 34 0 44 0 L471 0 C482 0 490 9 490 19 L490 102 C490 112 482 121 471 121 L216 121 L216 123 Z M281 773 C326 773 361 809 361 853 C361 897 326 932 281 932 C236 932 202 897 202 853 C202 809 236 773 281 773 L281 773 Z " />
<glyph glyph-name="zdotaccent" unicode="&#x17c;" horiz-adv-x="408" d="M207 113 L207 115 L381 430 C383 434 384 437 384 441 C384 453 375 462 361 462 L63 462 C52 462 42 453 42 440 L42 370 C42 359 52 348 63 348 L202 348 L202 346 L37 43 C32 34 32 30 32 22 C32 10 42 0 54 0 L339 0 C351 0 361 10 361 22 L361 91 C361 103 351 113 339 113 L207 113 Z M224 541 C269 541 304 577 304 621 C304 665 269 700 224 700 C179 700 145 665 145 621 C145 577 179 541 224 541 L224 541 Z " />
<glyph glyph-name="Zcaron" unicode="&#x17d;" horiz-adv-x="538" d="M216 123 L501 652 C510 668 510 675 510 681 C510 691 501 700 491 700 L73 700 C63 700 54 691 54 681 L54 598 C54 588 63 579 73 579 L323 579 L323 575 L32 50 C25 37 25 30 25 19 C25 9 34 0 44 0 L471 0 C482 0 490 9 490 19 L490 102 C490 112 482 121 471 121 L216 121 L216 123 Z M269 764 C276 759 284 759 290 764 L420 865 C426 869 431 877 426 884 L400 921 C394 929 389 931 377 924 L279 863 L182 924 C170 931 165 929 159 921 L133 884 C128 877 133 869 139 865 L269 764 Z " />
<glyph glyph-name="zcaron" unicode="&#x17e;" horiz-adv-x="408" d="M207 113 L207 115 L381 430 C383 434 384 437 384 441 C384 453 375 462 361 462 L63 462 C52 462 42 453 42 440 L42 370 C42 359 52 348 63 348 L202 348 L202 346 L37 43 C32 34 32 30 32 22 C32 10 42 0 54 0 L339 0 C351 0 361 10 361 22 L361 91 C361 103 351 113 339 113 L207 113 Z M205 524 C212 519 220 519 226 524 L356 625 C362 629 367 637 362 644 L336 681 C330 689 325 691 313 684 L215 623 L118 684 C106 691 101 689 95 681 L69 644 C64 637 69 629 75 625 L205 524 Z " />
<glyph glyph-name="florin" unicode="&#x192;" horiz-adv-x="385" d="M118 -47 C118 -109 84 -136 48 -136 C28 -136 0 -123 -4 -119 C-13 -114 -23 -116 -28 -124 L-66 -186 C-70 -193 -68 -204 -62 -210 C-45 -224 -8 -249 49 -249 C160 -249 243 -178 243 -48 L243 296 L343 296 C354 296 362 305 362 315 L362 381 C362 392 354 400 343 400 L243 400 L243 508 C243 570 276 597 312 597 C332 597 360 584 365 580 C373 575 383 577 389 585 L426 647 C431 654 428 665 422 671 C405 685 368 710 311 710 C199 710 118 639 118 509 L118 400 L43 400 C32 400 24 392 24 381 L24 315 C24 305 32 296 43 296 L118 296 L118 -47 Z " />
<glyph glyph-name="Aringacute" unicode="&#x1fa;" horiz-adv-x="670" d="M243 886 C247 877 254 873 268 879 L443 956 C452 960 456 971 449 983 L421 1035 C416 1044 406 1045 395 1038 L231 940 C226 937 221 929 225 921 L243 886 Z M20 0 L107 0 C123 0 132 10 136 20 L185 128 L484 128 L533 20 C540 6 547 0 562 0 L649 0 C664 0 672 13 666 26 L376 658 C419 674 451 716 451 765 C451 828 400 878 338 878 C275 878 225 828 225 765 C225 717 254 676 296 660 L3 26 C-3 13 5 0 20 0 L20 0 Z M338 715 C312 715 288 739 288 765 C288 791 312 813 338 813 C364 813 386 791 386 765 C386 739 364 715 338 715 L338 715 Z M234 239 L332 459 L335 459 L435 239 L234 239 Z " />
<glyph glyph-name="aringacute" unicode="&#x1fb;" horiz-adv-x="482" d="M249 499 C311 499 362 539 362 602 C362 665 311 705 249 705 C186 705 136 665 136 602 C136 539 186 499 249 499 L249 499 Z M249 562 C223 562 199 576 199 602 C199 628 223 640 249 640 C275 640 297 628 297 602 C297 576 275 562 249 562 L249 562 Z M178 714 L353 771 C361 775 365 786 359 798 L333 849 C328 858 314 857 304 852 L143 775 C136 772 133 764 137 756 L152 720 C157 711 163 708 178 714 L178 714 Z M32 147 C32 48 96 -11 188 -11 C260 -11 306 21 333 47 L346 16 C352 3 358 0 366 0 L400 0 C412 0 422 10 422 22 L422 271 C422 397 392 472 248 472 C173 472 100 453 90 449 C80 446 71 438 75 421 L85 369 C87 355 96 344 111 349 C138 357 199 366 241 366 C290 366 307 338 305 279 C305 279 263 292 216 292 C99 292 32 229 32 147 L32 147 Z M152 147 C152 188 181 213 234 213 C271 213 302 199 302 199 L302 131 C296 114 260 82 219 82 C176 82 152 108 152 147 L152 147 Z " />
<glyph glyph-name="AEacute" unicode="&#x1fc;" horiz-adv-x="896" d="M3 0 L98 0 C110 0 117 6 123 15 L194 128 L404 128 L404 19 C404 9 412 0 423 0 L831 0 C842 0 850 9 850 19 L850 101 C850 111 842 120 831 120 L532 120 L532 295 L782 295 C792 295 801 303 801 314 L801 397 C801 407 792 416 782 416 L532 416 L532 580 L831 580 C842 580 850 589 850 599 L850 681 C850 691 842 700 831 700 L436 700 C410 700 405 689 392 669 L-9 26 C-17 13 -12 0 3 0 L3 0 Z M264 239 L404 465 L404 239 L264 239 Z M553 769 L728 846 C737 850 741 861 734 873 L706 925 C701 934 691 935 680 928 L516 830 C511 827 506 819 510 811 L528 776 C532 767 539 763 553 769 L553 769 Z " />
<glyph glyph-name="aeacute" unicode="&#x1fd;" horiz-adv-x="773" d="M33 147 C33 49 97 -11 191 -11 C276 -11 336 42 356 70 C398 20 458 -11 528 -11 C603 -11 668 17 705 53 C717 62 714 73 707 83 L668 134 C660 145 648 142 641 136 C613 113 575 100 540 100 C466 100 424 158 424 207 L718 207 C744 207 744 237 744 258 C744 385 645 472 527 472 C474 472 425 453 388 422 C363 454 321 472 249 472 C178 472 93 450 93 450 C83 447 73 439 75 427 L87 365 C89 354 100 345 113 349 C139 357 193 366 238 366 C289 366 300 340 302 280 C302 280 259 292 212 292 C99 292 33 228 33 147 L33 147 Z M153 147 C153 188 182 213 235 213 C272 213 303 199 303 199 L303 131 C297 114 261 82 220 82 C177 82 153 108 153 147 L153 147 Z M431 289 C437 335 473 369 529 369 C580 369 616 334 618 289 L431 289 Z M365 528 L540 605 C548 609 552 619 546 632 L517 683 C512 692 500 692 491 686 L328 589 C322 585 318 578 322 570 L339 534 C344 525 350 522 365 528 L365 528 Z " />
<glyph glyph-name="Oslashacute" unicode="&#x1fe;" horiz-adv-x="806" d="M66 23 L76 13 C83 6 95 5 102 12 L167 77 C229 22 311 -10 403 -10 C603 -10 763 150 763 350 C763 440 729 522 675 585 L743 653 C750 661 750 672 743 679 L733 689 C726 696 714 696 707 689 L639 622 C576 676 493 710 403 710 C203 710 44 549 44 349 C44 258 76 176 130 113 L65 49 C58 42 59 30 66 23 L66 23 Z M224 207 C193 246 174 295 174 349 C174 475 277 580 403 580 C457 580 507 560 547 529 L224 207 Z M260 170 L582 492 C614 454 633 404 633 350 C633 224 529 120 403 120 C349 120 299 139 260 170 L260 170 Z M333 768 L508 845 C517 849 521 860 514 872 L486 924 C481 933 471 934 460 927 L296 829 C291 826 286 818 290 810 L308 775 C312 766 319 762 333 768 L333 768 Z " />
<glyph glyph-name="oslashacute" unicode="&#x1ff;" horiz-adv-x="544" d="M36 232 C36 173 57 119 91 76 L70 55 C62 47 63 34 71 26 L81 15 C89 7 103 7 111 14 L133 36 C172 7 220 -11 272 -11 C403 -11 509 100 509 232 C509 284 492 332 463 372 L480 389 C489 398 489 410 480 418 L469 429 C462 437 448 438 441 429 L426 414 C384 450 330 472 272 472 C142 472 36 362 36 232 L36 232 Z M152 232 C152 302 205 358 272 358 C299 358 325 348 345 332 L173 159 C160 180 152 205 152 232 L152 232 Z M393 232 C393 161 339 103 272 103 C251 103 231 109 214 119 L380 288 C388 271 393 252 393 232 L393 232 Z M203 528 L378 605 C386 609 390 619 384 632 L355 683 C350 692 338 692 329 686 L166 589 C160 585 156 578 160 570 L177 534 C182 525 188 522 203 528 L203 528 Z " />
<glyph glyph-name="Scommaaccent" unicode="&#x218;" horiz-adv-x="545" d="M276 -10 C417 -10 506 85 506 188 C506 317 394 375 297 414 C216 447 179 479 179 526 C179 564 210 596 267 596 C322 596 363 568 406 541 C418 533 433 541 441 553 L479 610 C486 620 483 637 473 643 C453 658 375 710 273 710 C114 710 48 607 48 518 C48 400 142 340 236 302 C320 268 363 233 363 182 C363 139 324 105 272 105 C207 105 162 136 121 167 C112 174 95 174 87 160 L51 98 C42 82 46 76 56 68 C85 43 150 -10 276 -10 L276 -10 Z M200 -134 C200 -166 223 -192 260 -192 C277 -192 291 -183 293 -182 C293 -187 293 -191 293 -195 C293 -218 282 -245 267 -261 C260 -268 259 -276 268 -282 L294 -302 C302 -307 310 -307 314 -300 C341 -271 367 -226 367 -163 C367 -94 327 -64 277 -64 C233 -64 200 -90 200 -134 L200 -134 Z " />
<glyph glyph-name="scommaaccent" unicode="&#x219;" horiz-adv-x="413" d="M201 -11 C317 -11 379 54 379 127 C379 219 315 251 226 287 C183 305 160 316 160 337 C160 352 173 367 204 367 C242 367 274 354 296 344 C306 340 318 342 325 353 L351 406 C357 418 351 430 341 438 C316 454 272 472 204 472 C91 472 38 407 38 337 C38 267 78 225 167 191 C228 167 254 148 254 127 C254 107 238 94 203 94 C155 94 122 111 101 124 C90 131 79 127 74 116 L44 56 C39 46 44 35 50 31 C76 13 124 -11 201 -11 L201 -11 Z M121 -134 C121 -166 144 -192 181 -192 C198 -192 212 -183 214 -182 C214 -187 214 -191 214 -195 C214 -218 203 -245 188 -261 C181 -268 180 -276 189 -282 L215 -302 C223 -307 231 -307 235 -300 C262 -271 288 -226 288 -163 C288 -94 248 -64 198 -64 C154 -64 121 -90 121 -134 L121 -134 Z " />
<glyph glyph-name="uni021A" unicode="&#x21a;" horiz-adv-x="527" d="M198 19 C198 9 207 0 217 0 L310 0 C320 0 329 9 329 19 L329 580 L482 580 C493 580 501 589 501 599 L501 681 C501 691 493 700 482 700 L45 700 C34 700 26 691 26 681 L26 599 C26 589 34 580 45 580 L198 580 L198 19 Z M183 -134 C183 -166 206 -192 243 -192 C260 -192 274 -183 276 -182 C276 -187 276 -191 276 -195 C276 -218 265 -245 250 -261 C243 -268 242 -276 251 -282 L277 -302 C285 -307 293 -307 297 -300 C324 -271 350 -226 350 -163 C350 -94 310 -64 260 -64 C216 -64 183 -90 183 -134 L183 -134 Z " />
<glyph glyph-name="uni021B" unicode="&#x21b;" horiz-adv-x="390" d="M95 138 C95 58 121 -11 224 -11 C272 -11 338 10 354 19 C365 25 370 34 367 46 L354 107 C352 118 341 124 328 119 C316 115 278 104 258 104 C235 104 220 111 220 142 L220 350 L328 350 C340 350 350 361 350 372 L350 440 C350 453 340 462 328 462 L220 462 L220 590 C220 602 211 612 199 612 L117 612 C106 612 95 602 95 590 L95 462 L50 462 C38 462 29 453 29 440 L29 372 C29 361 38 350 50 350 L95 350 L95 138 Z M130 -134 C130 -166 153 -192 190 -192 C207 -192 221 -183 223 -182 C223 -187 223 -191 223 -195 C223 -218 212 -245 197 -261 C190 -268 189 -276 198 -282 L224 -302 C232 -307 240 -307 244 -300 C271 -271 297 -226 297 -163 C297 -94 257 -64 207 -64 C163 -64 130 -90 130 -134 L130 -134 Z " />
<glyph glyph-name="dotlessj" unicode="&#x237;" horiz-adv-x="253" d="M189 440 C189 453 178 462 167 462 L86 462 C75 462 64 453 64 440 L64 -36 C64 -98 26 -121 -7 -139 C-24 -148 -26 -161 -19 -179 L5 -235 C12 -253 33 -252 49 -245 C125 -212 189 -156 189 -19 L189 440 Z " />
<glyph glyph-name="circumflex" unicode="&#x2c6;" horiz-adv-x="373" d="M63 529 C69 521 74 519 86 526 L184 587 L281 526 C293 519 298 521 304 529 L330 566 C335 573 330 581 324 585 L194 686 C187 691 179 691 173 686 L43 585 C37 581 32 573 37 566 L63 529 Z " />
<glyph glyph-name="caron" unicode="&#x2c7;" horiz-adv-x="373" d="M174 524 C181 519 189 519 195 524 L325 625 C331 629 336 637 331 644 L305 681 C299 689 294 691 282 684 L184 623 L87 684 C75 691 70 689 64 681 L38 644 C33 637 38 629 44 625 L174 524 Z " />
<glyph glyph-name="uni02C9" unicode="&#x2c9;" horiz-adv-x="414" d="M79 570 L335 570 C346 570 354 578 354 588 L354 622 C354 633 346 641 335 641 L79 641 C68 641 60 633 60 622 L60 588 C60 578 68 570 79 570 L79 570 Z " />
<glyph glyph-name="breve" unicode="&#x2d8;" horiz-adv-x="346" d="M173 528 C245 528 302 579 313 646 C314 658 307 668 295 668 L256 668 C249 668 241 662 239 654 C229 626 203 601 173 601 C140 601 115 623 105 654 C103 661 97 668 88 668 L51 668 C38 668 31 658 33 646 C43 579 100 528 173 528 L173 528 Z " />
<glyph glyph-name="dotaccent" unicode="&#x2d9;" horiz-adv-x="219" d="M110 528 C155 528 190 564 190 608 C190 652 155 687 110 687 C65 687 31 652 31 608 C31 564 65 528 110 528 L110 528 Z " />
<glyph glyph-name="ring" unicode="&#x2da;" horiz-adv-x="290" d="M145 484 C207 484 258 534 258 597 C258 660 207 710 145 710 C82 710 32 660 32 597 C32 534 82 484 145 484 L145 484 Z M145 547 C119 547 95 571 95 597 C95 623 119 645 145 645 C171 645 193 623 193 597 C193 571 171 547 145 547 L145 547 Z " />
<glyph glyph-name="ogonek" unicode="&#x2db;" horiz-adv-x="276" d="M210 3 L122 5 C86 -21 23 -68 23 -143 C23 -201 58 -247 128 -247 C167 -247 201 -234 217 -224 C229 -215 232 -205 232 -193 L231 -144 C231 -133 220 -129 211 -137 C203 -144 177 -165 150 -165 C126 -165 111 -152 111 -122 C111 -70 179 -17 210 3 L210 3 Z " />
<glyph glyph-name="tilde" unicode="&#x2dc;" horiz-adv-x="380" d="M70 562 C100 543 98 605 134 605 C167 605 191 549 243 549 C300 549 329 606 340 625 C347 637 348 649 339 656 L311 676 C282 697 281 635 246 635 C208 635 191 690 139 690 C78 690 45 624 35 606 C32 599 34 588 41 583 L70 562 Z " />
<glyph glyph-name="hungarumlaut" unicode="&#x2dd;" horiz-adv-x="392" d="M224 521 L259 521 C266 521 273 528 277 536 L355 675 C362 687 356 700 337 700 L261 700 C251 700 245 691 242 681 L205 540 C202 530 208 521 224 521 L224 521 Z M58 521 L93 521 C100 521 107 528 111 536 L189 675 C196 688 190 700 171 700 L95 700 C85 700 79 691 76 681 L39 540 C36 530 42 521 58 521 L58 521 Z " />
<glyph glyph-name="uni0394" unicode="&#x394;" horiz-adv-x="731" d="M43 43 C30 14 43 0 69 0 L669 0 C694 0 698 21 689 41 L387 700 C384 706 377 710 371 710 L362 710 C356 710 349 706 346 700 L43 43 Z M214 119 L364 459 L365 459 L518 119 L214 119 Z " />
<glyph glyph-name="uni03A9" unicode="&#x3a9;" horiz-adv-x="834" d="M60 18 C60 8 68 0 78 0 L347 0 C358 0 365 8 365 18 L365 72 C365 98 357 101 340 110 C245 157 188 255 188 349 C188 473 292 579 417 579 C541 579 645 473 645 349 C645 255 589 157 493 110 C477 101 469 98 469 72 L469 18 C469 8 476 0 486 0 L756 0 C766 0 774 8 774 18 L774 106 C774 115 766 124 756 124 L668 124 C733 167 777 267 777 356 C777 556 617 710 417 710 C217 710 57 556 57 356 C57 267 100 167 164 124 L78 124 C68 124 60 115 60 106 L60 18 Z " />
<glyph glyph-name="uni03BC" unicode="&#x3bc;" horiz-adv-x="548" d="M79 205 L79 -216 C79 -228 90 -238 101 -238 L182 -238 C193 -238 204 -228 204 -216 L204 -6 C218 -9 235 -11 253 -11 C345 -11 375 37 396 56 L409 17 C412 8 420 0 431 0 L467 0 C479 0 489 10 489 22 L489 440 C489 453 479 462 467 462 L389 462 C370 462 364 458 364 440 L364 189 C357 149 333 103 282 103 C225 103 204 144 204 205 L204 440 C204 453 194 462 182 462 L101 462 C89 462 79 453 79 440 L79 205 Z " />
<glyph glyph-name="pi" unicode="&#x3c0;" horiz-adv-x="678" d="M130 20 C130 9 139 0 150 0 L235 0 C245 0 255 9 255 20 L255 350 L417 350 L417 20 C417 9 427 0 437 0 L523 0 C534 0 542 9 542 20 L542 350 L640 350 C651 350 658 359 658 370 L658 443 C658 454 651 462 640 462 L39 462 C28 462 20 453 20 442 L20 370 C20 360 28 350 39 350 L130 350 L130 20 Z " />
<glyph glyph-name="Wgrave" unicode="&#x1e80;" horiz-adv-x="885" d="M211 4 C213 -4 221 -10 229 -10 L245 -10 C255 -10 259 -5 262 1 L439 454 L444 454 L623 1 C625 -5 631 -10 640 -10 L656 -10 C664 -10 672 -4 674 4 L863 676 C867 690 859 700 845 700 L753 700 C745 700 737 693 735 686 L633 287 L629 287 L469 699 C467 705 462 710 452 710 L434 710 C424 710 419 705 417 699 L258 287 L254 287 L150 686 C148 693 140 700 132 700 L40 700 C26 700 18 690 22 676 L211 4 Z M513 768 C527 762 534 766 538 775 L556 810 C560 818 555 826 550 829 L386 927 C378 932 365 933 360 924 L332 872 C325 860 329 849 338 845 L513 768 Z " />
<glyph glyph-name="wgrave" unicode="&#x1e81;" horiz-adv-x="713" d="M167 2 C169 -5 176 -11 187 -11 L193 -11 C201 -11 208 -6 211 0 L356 278 C356 278 357 278 357 278 L502 0 C506 -6 511 -11 521 -11 L525 -11 C536 -11 544 -5 546 2 L688 436 C693 450 683 462 667 462 L597 462 C585 462 575 461 571 448 L502 228 C502 228 501 228 501 228 L381 462 C378 468 373 472 362 472 L353 472 C342 472 337 467 335 462 L214 228 C214 228 213 228 213 228 L143 448 C141 457 129 462 123 462 L45 462 C29 462 19 450 26 436 L167 2 Z M430 528 C444 522 451 525 455 534 L473 570 C477 578 473 586 467 589 L303 686 C294 692 282 692 277 683 L249 632 C242 619 247 609 255 605 L430 528 Z " />
<glyph glyph-name="Wacute" unicode="&#x1e82;" horiz-adv-x="885" d="M211 4 C213 -4 221 -10 229 -10 L245 -10 C255 -10 259 -5 262 1 L439 454 L444 454 L623 1 C625 -5 631 -10 640 -10 L656 -10 C664 -10 672 -4 674 4 L863 676 C867 690 859 700 845 700 L753 700 C745 700 737 693 735 686 L633 287 L629 287 L469 699 C467 705 462 710 452 710 L434 710 C424 710 419 705 417 699 L258 287 L254 287 L150 686 C148 693 140 700 132 700 L40 700 C26 700 18 690 22 676 L211 4 Z M372 768 L547 845 C556 849 560 860 553 872 L525 924 C520 933 510 934 499 927 L335 829 C330 826 325 818 329 810 L347 775 C351 766 358 762 372 768 L372 768 Z " />
<glyph glyph-name="wacute" unicode="&#x1e83;" horiz-adv-x="713" d="M167 2 C169 -5 176 -11 187 -11 L193 -11 C201 -11 208 -6 211 0 L356 278 C356 278 357 278 357 278 L502 0 C506 -6 511 -11 521 -11 L525 -11 C536 -11 544 -5 546 2 L688 436 C693 450 683 462 667 462 L597 462 C585 462 575 461 571 448 L502 228 C502 228 501 228 501 228 L381 462 C378 468 373 472 362 472 L353 472 C342 472 337 467 335 462 L214 228 C214 228 213 228 213 228 L143 448 C141 457 129 462 123 462 L45 462 C29 462 19 450 26 436 L167 2 Z M289 528 L464 605 C472 609 476 619 470 632 L441 683 C436 692 424 692 415 686 L252 589 C246 585 242 578 246 570 L263 534 C268 525 274 522 289 528 L289 528 Z " />
<glyph glyph-name="Wdieresis" unicode="&#x1e84;" horiz-adv-x="885" d="M211 4 C213 -4 221 -10 229 -10 L245 -10 C255 -10 259 -5 262 1 L439 454 L444 454 L623 1 C625 -5 631 -10 640 -10 L656 -10 C664 -10 672 -4 674 4 L863 676 C867 690 859 700 845 700 L753 700 C745 700 737 693 735 686 L633 287 L629 287 L469 699 C467 705 462 710 452 710 L434 710 C424 710 419 705 417 699 L258 287 L254 287 L150 686 C148 693 140 700 132 700 L40 700 C26 700 18 690 22 676 L211 4 Z M565 766 C606 766 638 798 638 839 C638 880 606 911 565 911 C524 911 493 880 493 839 C493 798 524 766 565 766 L565 766 Z M318 766 C359 766 391 798 391 839 C391 880 359 911 318 911 C277 911 246 880 246 839 C246 798 277 766 318 766 L318 766 Z " />
<glyph glyph-name="wdieresis" unicode="&#x1e85;" horiz-adv-x="713" d="M167 2 C169 -5 176 -11 187 -11 L193 -11 C201 -11 208 -6 211 0 L356 278 C356 278 357 278 357 278 L502 0 C506 -6 511 -11 521 -11 L525 -11 C536 -11 544 -5 546 2 L688 436 C693 450 683 462 667 462 L597 462 C585 462 575 461 571 448 L502 228 C502 228 501 228 501 228 L381 462 C378 468 373 472 362 472 L353 472 C342 472 337 467 335 462 L214 228 C214 228 213 228 213 228 L143 448 C141 457 129 462 123 462 L45 462 C29 462 19 450 26 436 L167 2 Z M459 542 C500 542 532 574 532 615 C532 656 500 687 459 687 C418 687 387 656 387 615 C387 574 418 542 459 542 L459 542 Z M258 542 C299 542 331 574 331 615 C331 656 299 687 258 687 C217 687 186 656 186 615 C186 574 217 542 258 542 L258 542 Z " />
<glyph glyph-name="Ygrave" unicode="&#x1ef2;" horiz-adv-x="593" d="M231 19 C231 9 239 0 250 0 L342 0 C352 0 361 9 361 19 L361 338 L592 671 C600 684 592 700 576 700 L473 700 C465 700 460 695 457 691 L297 461 L137 691 C134 695 129 700 121 700 L19 700 C3 700 -5 684 3 671 L231 337 L231 19 Z M368 768 C382 762 389 766 393 775 L411 810 C415 818 410 826 405 829 L241 927 C233 932 220 933 215 924 L187 872 C180 860 184 849 193 845 L368 768 Z " />
<glyph glyph-name="ygrave" unicode="&#x1ef3;" horiz-adv-x="499" d="M165 27 L72 -207 C65 -223 74 -238 92 -238 L188 -238 C197 -238 205 -231 208 -224 L480 432 C487 447 478 462 460 462 L375 462 C361 462 353 461 346 449 L241 173 L239 173 L156 449 C154 457 147 462 137 462 L41 462 C23 462 15 448 21 432 L165 27 Z M301 528 C315 522 322 525 326 534 L344 570 C348 578 344 586 338 589 L174 686 C165 692 153 692 148 683 L120 632 C113 619 118 609 126 605 L301 528 Z " />
<glyph glyph-name="endash" unicode="&#x2013;" horiz-adv-x="547" d="M76 210 L471 210 C482 210 490 218 490 228 L490 265 C490 276 482 284 471 284 L76 284 C65 284 57 276 57 265 L57 228 C57 218 65 210 76 210 L76 210 Z " />
<glyph glyph-name="emdash" unicode="&#x2014;" horiz-adv-x="767" d="M76 210 L691 210 C702 210 710 218 710 228 L710 265 C710 276 702 284 691 284 L76 284 C65 284 57 276 57 265 L57 228 C57 218 65 210 76 210 L76 210 Z " />
<glyph glyph-name="quoteleft" unicode="&#x2018;" horiz-adv-x="241" d="M208 460 C208 499 186 530 146 530 C133 530 121 526 112 520 C111 526 110 531 110 539 C110 581 133 626 160 661 C166 669 169 678 161 684 L133 704 C126 710 117 710 112 703 C76 655 40 592 40 506 C40 428 81 387 130 387 C175 387 208 418 208 460 L208 460 Z " />
<glyph glyph-name="quoteright" unicode="&#x2019;" horiz-adv-x="237" d="M31 637 C31 598 53 567 93 567 C106 567 118 571 127 577 C128 571 129 566 129 558 C129 516 106 471 79 436 C73 428 70 419 78 413 L106 393 C114 388 121 386 127 394 C163 442 199 505 199 591 C199 669 158 710 109 710 C64 710 31 679 31 637 L31 637 Z " />
<glyph glyph-name="quotesinglbase" unicode="&#x201a;" horiz-adv-x="250" d="M41 70 C41 31 63 0 103 0 C116 0 128 4 137 10 C138 4 139 -1 139 -9 C139 -51 116 -96 89 -131 C83 -139 80 -148 88 -154 L116 -174 C124 -179 131 -181 137 -173 C173 -125 209 -62 209 24 C209 102 168 143 119 143 C74 143 41 112 41 70 L41 70 Z " />
<glyph glyph-name="quotedblleft" unicode="&#x201c;" horiz-adv-x="454" d="M208 460 C208 499 186 530 146 530 C133 530 121 526 112 520 C111 526 110 531 110 539 C110 581 133 626 160 661 C166 669 169 678 161 684 L133 704 C126 710 117 710 112 703 C76 655 40 592 40 506 C40 428 81 387 130 387 C175 387 208 418 208 460 L208 460 Z M421 460 C421 499 399 530 359 530 C346 530 334 526 325 520 C324 526 323 531 323 539 C323 581 346 626 373 661 C379 669 382 678 374 684 L346 704 C339 710 330 710 325 703 C289 655 253 592 253 506 C253 428 294 387 343 387 C388 387 421 418 421 460 L421 460 Z " />
<glyph glyph-name="quotedblright" unicode="&#x201d;" horiz-adv-x="450" d="M31 637 C31 598 53 567 93 567 C106 567 118 571 127 577 C128 571 129 566 129 558 C129 516 106 471 79 436 C73 428 70 419 78 413 L106 393 C114 388 121 386 127 394 C163 442 199 505 199 591 C199 669 158 710 109 710 C64 710 31 679 31 637 L31 637 Z M244 637 C244 598 266 567 306 567 C319 567 331 571 340 577 C341 571 342 566 342 558 C342 516 319 471 292 436 C286 428 283 419 291 413 L319 393 C327 388 334 386 340 394 C376 442 412 505 412 591 C412 669 371 710 322 710 C277 710 244 679 244 637 L244 637 Z " />
<glyph glyph-name="quotedblbase" unicode="&#x201e;" horiz-adv-x="463" d="M41 70 C41 31 63 0 103 0 C116 0 128 4 137 10 C138 4 139 -1 139 -9 C139 -51 116 -96 89 -131 C83 -139 80 -148 88 -154 L116 -174 C124 -179 131 -181 137 -173 C173 -125 209 -62 209 24 C209 102 168 143 119 143 C74 143 41 112 41 70 L41 70 Z M254 70 C254 31 276 0 316 0 C329 0 341 4 350 10 C351 4 352 -1 352 -9 C352 -51 329 -96 302 -131 C296 -139 293 -148 301 -154 L329 -174 C337 -179 344 -181 350 -173 C386 -125 422 -62 422 24 C422 102 381 143 332 143 C287 143 254 112 254 70 L254 70 Z " />
<glyph glyph-name="dagger" unicode="&#x2020;" horiz-adv-x="600" d="M60 286 L237 286 L269 -222 C269 -230 279 -238 288 -238 L306 -238 C315 -238 325 -230 325 -222 L357 286 L541 286 C551 286 559 295 559 305 L559 381 C559 391 551 400 541 400 L364 400 L364 681 C364 691 355 700 345 700 L249 700 C239 700 230 691 230 681 L230 400 L60 400 C50 400 41 391 41 381 L41 305 C41 295 50 286 60 286 L60 286 Z " />
<glyph glyph-name="daggerdbl" unicode="&#x2021;" horiz-adv-x="616" d="M79 20 C79 10 88 1 98 1 L260 1 L277 -222 C277 -230 287 -238 296 -238 L314 -238 C323 -238 333 -230 333 -222 L349 1 L519 1 C529 1 537 10 537 20 L537 95 C537 105 529 114 519 114 L357 114 L372 399 L549 399 C559 399 567 408 567 418 L567 494 C567 504 559 513 549 513 L372 513 L372 681 C372 691 363 700 353 700 L257 700 C247 700 238 691 238 681 L238 513 L68 513 C58 513 49 504 49 494 L49 418 C49 408 58 399 68 399 L238 399 L238 398 L253 114 L98 114 C88 114 79 105 79 95 L79 20 Z " />
<glyph glyph-name="bullet" unicode="&#x2022;" horiz-adv-x="390" d="M193 125 C266 125 326 184 326 254 C326 327 266 387 193 387 C124 387 64 327 64 254 C64 184 124 125 193 125 L193 125 Z " />
<glyph glyph-name="ellipsis" unicode="&#x2026;" horiz-adv-x="656" d="M471 62 C471 23 503 -10 543 -10 C583 -10 615 23 615 62 C615 102 583 134 543 134 C503 134 471 102 471 62 L471 62 Z M258 62 C258 23 290 -10 329 -10 C369 -10 402 23 402 62 C402 102 369 134 329 134 C290 134 258 102 258 62 L258 62 Z M41 62 C41 23 73 -10 112 -10 C152 -10 185 23 185 62 C185 102 152 134 112 134 C73 134 41 102 41 62 L41 62 Z " />
<glyph glyph-name="perthousand" unicode="&#x2030;" horiz-adv-x="995" d="M184 440 C258 440 319 500 319 575 C319 650 258 710 184 710 C109 710 49 650 49 575 C49 500 109 440 184 440 L184 440 Z M131 27 C124 14 133 0 148 0 L196 0 C204 0 211 6 213 10 L558 673 C565 686 556 700 541 700 L491 700 C483 700 477 696 474 690 L131 27 Z M184 526 C157 526 135 548 135 575 C135 601 157 623 184 623 C210 623 232 601 232 575 C232 548 210 526 184 526 L184 526 Z M681 125 C681 50 742 -10 816 -10 C891 -10 952 50 952 125 C952 200 891 260 816 260 C742 260 681 200 681 125 L681 125 Z M378 125 C378 50 439 -10 513 -10 C588 -10 649 50 649 125 C649 200 588 260 513 260 C439 260 378 200 378 125 L378 125 Z M768 125 C768 151 790 173 816 173 C843 173 865 151 865 125 C865 98 843 76 816 76 C790 76 768 98 768 125 L768 125 Z M464 125 C464 151 486 173 513 173 C539 173 562 151 562 125 C562 98 539 76 513 76 C486 76 464 98 464 125 L464 125 Z " />
<glyph glyph-name="guilsinglleft" unicode="&#x2039;" horiz-adv-x="287" d="M143 69 C146 65 151 61 158 61 L220 61 C237 61 242 75 235 91 L170 238 L238 377 C246 393 240 408 223 408 L166 408 C158 408 151 401 148 396 L39 248 C35 242 33 232 39 224 L143 69 Z " />
<glyph glyph-name="guilsinglright" unicode="&#x203a;" horiz-adv-x="287" d="M66 61 L128 61 C135 61 140 65 143 69 L247 224 C253 232 251 242 247 248 L138 396 C135 401 128 408 120 408 L63 408 C46 408 40 393 48 377 L116 238 L51 91 C44 75 49 61 66 61 L66 61 Z " />
<glyph glyph-name="fraction" unicode="&#x2044;" horiz-adv-x="120" d="M-71 10 L274 673 C281 686 272 700 257 700 L207 700 C199 700 193 696 190 690 L-153 27 C-160 14 -151 0 -136 0 L-88 0 C-80 0 -73 6 -71 10 L-71 10 Z " />
<glyph glyph-name="zerosuperior" unicode="&#x2070;" horiz-adv-x="320" d="M161 494 C243 494 286 554 286 652 C286 751 243 810 161 810 C78 810 34 751 34 652 C34 554 78 494 161 494 L161 494 Z M161 564 C133 564 117 595 117 652 C117 709 133 740 161 740 C188 740 205 709 205 652 C205 595 188 564 161 564 L161 564 Z " />
<glyph glyph-name="foursuperior" unicode="&#x2074;" horiz-adv-x="322" d="M179 504 L235 504 C240 504 244 508 244 513 L244 561 L284 561 C289 561 293 565 293 570 L293 613 C293 617 289 621 284 621 L244 621 L244 791 C244 796 240 800 235 800 L194 800 C192 800 188 799 186 797 L23 620 L23 569 C23 565 27 561 32 561 L169 561 L169 513 C169 508 174 504 179 504 L179 504 Z M96 620 L170 703 L170 620 L96 620 Z " />
<glyph glyph-name="fivesuperior" unicode="&#x2075;" horiz-adv-x="288" d="M134 494 C209 494 259 539 259 600 C259 662 217 699 145 699 L110 699 L110 738 L213 738 C218 738 222 742 222 747 L222 791 C222 796 218 800 213 800 L53 800 C48 800 44 796 44 791 L44 652 C44 644 49 636 59 636 L133 636 C163 636 181 621 181 599 C181 577 159 561 136 561 C102 561 80 581 79 582 C74 587 69 587 64 580 L37 547 C32 541 33 537 38 532 C50 518 83 494 134 494 L134 494 Z " />
<glyph glyph-name="sixsuperior" unicode="&#x2076;" horiz-adv-x="296" d="M152 494 C214 494 266 541 266 598 C266 663 218 695 171 695 C139 695 118 683 116 682 C132 722 196 749 220 756 C230 759 231 766 229 772 L216 806 C213 813 207 817 198 814 C162 803 32 749 32 618 C32 548 76 494 152 494 L152 494 Z M152 563 C126 563 108 587 107 610 C112 622 130 640 152 640 C174 640 192 623 192 601 C192 580 174 563 152 563 L152 563 Z " />
<glyph glyph-name="sevensuperior" unicode="&#x2077;" horiz-adv-x="266" d="M46 504 L103 504 C110 504 114 506 118 513 L250 777 L250 791 C250 796 246 800 241 800 L42 800 C37 800 32 796 32 791 L32 744 C32 740 37 736 42 736 L151 736 L35 518 L35 512 C35 506 39 504 46 504 L46 504 Z " />
<glyph glyph-name="eightsuperior" unicode="&#x2078;" horiz-adv-x="310" d="M154 494 C228 494 276 531 276 580 C276 625 239 649 215 656 L215 657 C235 665 267 689 267 727 C267 778 217 810 154 810 C93 810 43 778 43 727 C43 688 74 665 94 657 L94 656 C86 653 34 627 34 580 C34 531 82 494 154 494 L154 494 Z M155 686 C134 688 122 700 122 717 C122 733 136 748 154 748 C173 748 187 733 187 717 C187 702 175 688 155 686 L155 686 Z M155 556 C135 556 116 569 116 588 C116 605 132 622 155 624 C179 622 193 605 193 588 C193 568 175 556 155 556 L155 556 Z " />
<glyph glyph-name="ninesuperior" unicode="&#x2079;" horiz-adv-x="296" d="M98 488 C134 499 264 553 264 684 C264 754 220 808 144 808 C82 808 30 761 30 704 C30 639 78 607 125 607 C157 607 178 619 180 620 C164 580 100 553 76 546 C66 543 65 536 67 530 L80 496 C83 489 89 485 98 488 L98 488 Z M144 662 C122 662 104 679 104 701 C104 722 122 739 144 739 C170 739 188 715 189 692 C184 680 166 662 144 662 L144 662 Z " />
<glyph glyph-name="zeroinferior" unicode="&#x2080;" horiz-adv-x="322" d="M35 -2 C35 -100 79 -160 162 -160 C244 -160 287 -100 287 -2 C287 97 244 156 162 156 C79 156 35 97 35 -2 L35 -2 Z M118 -2 C118 55 134 86 162 86 C189 86 206 55 206 -2 C206 -59 189 -90 162 -90 C134 -90 118 -59 118 -2 L118 -2 Z " />
<glyph glyph-name="oneinferior" unicode="&#x2081;" horiz-adv-x="208" d="M24 57 C24 51 28 48 33 48 L82 52 L82 -141 C82 -146 86 -150 92 -150 L154 -150 C159 -150 163 -146 163 -141 L163 137 C163 142 159 146 154 146 L103 146 L29 99 C24 95 22 93 22 88 L24 57 Z " />
<glyph glyph-name="twoinferior" unicode="&#x2082;" horiz-adv-x="281" d="M62 70 C67 63 72 63 78 67 C86 76 104 87 122 87 C146 87 162 72 162 52 C162 38 154 21 137 2 L27 -124 L27 -141 C27 -147 31 -150 37 -150 L232 -150 C238 -150 241 -146 241 -141 L241 -95 C241 -90 237 -86 232 -86 L152 -86 L206 -22 C229 6 243 34 243 64 C243 119 200 156 137 156 C85 156 49 127 43 122 C32 114 34 109 40 101 L62 70 Z " />
<glyph glyph-name="threeinferior" unicode="&#x2083;" horiz-adv-x="279" d="M69 15 L69 -16 C69 -27 74 -30 84 -30 L113 -30 C144 -30 160 -44 160 -63 C160 -82 144 -94 118 -94 C92 -94 72 -78 71 -78 C65 -74 59 -73 54 -80 L32 -109 C27 -116 27 -121 33 -127 C42 -135 71 -160 128 -160 C192 -160 245 -129 245 -74 C245 -30 208 -7 185 2 L185 3 C208 13 236 37 236 73 C236 124 192 156 128 156 C72 156 39 124 39 124 C32 120 33 111 38 106 L62 77 C68 69 71 71 77 74 C86 82 101 90 116 90 C138 90 154 78 154 60 C154 42 138 29 113 29 L84 29 C75 29 69 25 69 15 L69 15 Z " />
<glyph glyph-name="fourinferior" unicode="&#x2084;" horiz-adv-x="323" d="M23 -34 L23 -85 C23 -89 27 -93 32 -93 L169 -93 L169 -141 C169 -146 174 -150 179 -150 L235 -150 C240 -150 244 -146 244 -141 L244 -93 L284 -93 C289 -93 293 -89 293 -84 L293 -41 C293 -37 289 -33 284 -33 L244 -33 L244 137 C244 142 240 146 235 146 L194 146 C192 146 188 145 186 143 L23 -34 Z M96 -34 L170 49 L170 -34 L96 -34 Z " />
<glyph glyph-name="fiveinferior" unicode="&#x2085;" horiz-adv-x="290" d="M45 -2 C45 -10 50 -18 60 -18 L134 -18 C164 -18 182 -33 182 -55 C182 -77 160 -93 137 -93 C103 -93 81 -73 80 -72 C75 -67 70 -67 65 -74 L38 -107 C33 -113 34 -117 39 -122 C51 -136 84 -160 135 -160 C210 -160 260 -115 260 -54 C260 8 218 45 146 45 L111 45 L111 84 L214 84 C219 84 223 88 223 93 L223 137 C223 142 219 146 214 146 L54 146 C49 146 45 142 45 137 L45 -2 Z " />
<glyph glyph-name="sixinferior" unicode="&#x2086;" horiz-adv-x="297" d="M32 -36 C32 -106 76 -160 152 -160 C214 -160 266 -113 266 -56 C266 9 218 41 171 41 C139 41 118 29 116 28 C132 68 196 95 220 102 C230 105 231 112 229 118 L216 152 C213 159 207 163 198 160 C162 149 32 95 32 -36 L32 -36 Z M107 -44 C112 -32 130 -14 152 -14 C174 -14 192 -31 192 -53 C192 -74 174 -91 152 -91 C126 -91 108 -67 107 -44 L107 -44 Z " />
<glyph glyph-name="seveninferior" unicode="&#x2087;" horiz-adv-x="267" d="M43 82 L152 82 L36 -136 L36 -142 C36 -148 40 -150 47 -150 L104 -150 C111 -150 115 -148 119 -141 L251 123 L251 137 C251 142 247 146 242 146 L43 146 C38 146 33 142 33 137 L33 90 C33 86 38 82 43 82 L43 82 Z " />
<glyph glyph-name="eightinferior" unicode="&#x2088;" horiz-adv-x="310" d="M34 -74 C34 -123 82 -160 154 -160 C228 -160 276 -123 276 -74 C276 -29 239 -5 215 2 L215 3 C235 11 267 35 267 73 C267 124 217 156 154 156 C93 156 43 124 43 73 C43 34 74 11 94 3 L94 2 C86 -1 34 -27 34 -74 L34 -74 Z M122 63 C122 79 136 94 154 94 C173 94 187 79 187 63 C187 48 175 34 155 32 C134 34 122 46 122 63 L122 63 Z M116 -66 C116 -49 132 -32 155 -30 C179 -32 193 -49 193 -66 C193 -86 175 -98 155 -98 C135 -98 116 -85 116 -66 L116 -66 Z " />
<glyph glyph-name="nineinferior" unicode="&#x2089;" horiz-adv-x="296" d="M30 50 C30 -15 78 -47 125 -47 C157 -47 178 -35 180 -34 C164 -74 100 -101 76 -108 C66 -111 65 -118 67 -124 L80 -158 C83 -165 89 -169 98 -166 C134 -155 264 -101 264 30 C264 100 220 154 144 154 C82 154 30 107 30 50 L30 50 Z M104 47 C104 68 122 85 144 85 C170 85 188 61 189 38 C184 26 166 8 144 8 C122 8 104 25 104 47 L104 47 Z " />
<glyph glyph-name="Euro" unicode="&#x20ac;" horiz-adv-x="600" d="M369 -11 C436 -11 492 16 553 72 C560 79 562 92 554 99 L501 166 C495 172 484 173 476 166 C450 145 424 121 373 121 C302 121 259 174 240 250 L392 250 C403 250 411 258 411 268 L411 282 C411 292 403 301 392 301 L231 301 C229 317 229 334 229 352 L229 369 L432 369 C443 369 451 377 451 387 L451 402 C451 412 443 421 432 421 L234 421 C251 520 303 585 372 585 C407 585 445 574 484 528 C491 519 504 520 511 528 L562 599 C570 607 569 618 561 627 C515 676 454 710 369 710 C209 710 115 578 93 421 L52 421 C42 421 34 412 34 402 L34 388 C34 378 42 369 52 369 L88 369 L88 349 C88 332 88 316 90 301 L52 301 C42 301 34 292 34 282 L34 269 C34 259 42 250 52 250 L97 250 C125 96 221 -11 369 -11 L369 -11 Z " />
<glyph glyph-name="afii61289" unicode="&#x2113;" horiz-adv-x="476" d="M98 154 C98 69 138 -10 240 -10 C337 -10 414 40 425 49 C437 60 436 63 427 76 L413 97 C406 108 402 111 387 102 C348 78 299 58 240 58 C185 58 165 106 165 156 C165 183 169 209 174 234 C319 289 455 397 455 571 C455 655 413 710 340 710 C236 710 176 586 133 368 C127 339 122 312 117 283 C97 276 75 272 53 268 C36 265 37 256 38 248 L43 210 C44 201 49 198 58 199 C69 201 88 206 102 210 C100 191 98 173 98 154 L98 154 Z M187 304 L197 357 C230 534 276 641 340 641 C370 641 388 614 388 571 C388 441 299 353 187 304 L187 304 Z " />
<glyph glyph-name="uni2117" unicode="&#x2117;" horiz-adv-x="829" d="M55 350 C55 152 216 -9 414 -9 C612 -9 774 152 774 350 C774 548 612 710 414 710 C216 710 55 548 55 350 L55 350 Z M133 350 C133 506 259 631 414 631 C570 631 695 506 695 350 C695 195 570 69 414 69 C259 69 133 195 133 350 L133 350 Z M293 187 C293 177 301 168 312 168 L361 168 C372 168 380 177 380 187 L380 290 L456 290 C541 290 590 344 590 410 C590 488 529 534 467 534 L312 534 C301 534 293 525 293 515 L293 187 Z M377 368 L377 450 L456 450 C480 450 497 433 497 409 C497 386 480 368 456 368 L377 368 Z " />
<glyph glyph-name="trademark" unicode="&#x2122;" horiz-adv-x="780" d="M367 385 L403 385 C411 385 421 393 422 401 L446 527 L507 392 C510 386 515 382 524 382 L530 382 C538 382 544 386 546 391 L610 527 L632 402 C634 393 642 385 651 385 L690 385 C702 385 711 395 709 407 L656 690 C655 698 647 705 637 705 L633 705 C625 705 619 701 616 694 L527 509 L440 694 C438 699 432 705 423 705 L419 705 C407 705 401 698 400 690 L348 408 C346 396 354 385 367 385 L367 385 Z M174 385 L213 385 C223 385 232 394 232 404 L232 626 L296 626 C307 626 315 634 315 645 L315 681 C315 691 307 700 296 700 L91 700 C81 700 72 691 72 681 L72 645 C72 634 81 626 91 626 L155 626 L155 404 C155 394 163 385 174 385 L174 385 Z " />
<glyph glyph-name="Omega" unicode="&#x2126;" horiz-adv-x="834" d="M60 18 C60 8 68 0 78 0 L347 0 C358 0 365 8 365 18 L365 72 C365 98 357 101 340 110 C245 157 188 255 188 349 C188 473 292 579 417 579 C541 579 645 473 645 349 C645 255 589 157 493 110 C477 101 469 98 469 72 L469 18 C469 8 476 0 486 0 L756 0 C766 0 774 8 774 18 L774 106 C774 115 766 124 756 124 L668 124 C733 167 777 267 777 356 C777 556 617 710 417 710 C217 710 57 556 57 356 C57 267 100 167 164 124 L78 124 C68 124 60 115 60 106 L60 18 Z " />
<glyph glyph-name="estimated" unicode="&#x212e;" horiz-adv-x="836" d="M187 168 L187 317 L764 317 C781 317 788 324 788 346 C786 549 626 710 424 710 C221 710 61 552 61 349 C61 147 221 -10 424 -10 C514 -10 599 22 669 87 C680 98 683 107 675 116 L654 138 C643 149 635 145 626 136 C567 85 494 55 424 55 C331 55 237 97 187 168 L187 168 Z M187 380 L187 532 C241 603 325 644 424 644 C522 644 609 600 663 530 L663 380 L187 380 Z " />
<glyph glyph-name="onethird" unicode="&#x2153;" horiz-adv-x="692" d="M114 27 C107 14 116 0 131 0 L179 0 C187 0 194 6 196 10 L541 673 C548 686 539 700 524 700 L474 700 C466 700 460 696 457 690 L114 27 Z M116 404 L178 404 C183 404 187 408 187 413 L187 691 C187 696 183 700 178 700 L127 700 L53 653 C48 649 46 647 46 642 L48 611 C48 605 52 602 57 602 L106 606 L106 413 C106 408 110 404 116 404 L116 404 Z M428 23 C437 15 466 -10 523 -10 C587 -10 640 21 640 76 C640 120 603 143 580 152 L580 153 C603 163 631 187 631 223 C631 274 587 306 523 306 C467 306 434 274 434 274 C427 270 428 261 433 256 L457 227 C463 219 466 221 472 224 C481 232 496 240 511 240 C533 240 549 228 549 210 C549 192 533 179 508 179 L479 179 C470 179 464 175 464 165 L464 134 C464 123 469 120 479 120 L508 120 C539 120 555 106 555 87 C555 68 539 56 513 56 C487 56 467 72 466 72 C460 76 454 77 449 70 L427 41 C422 34 422 29 428 23 L428 23 Z " />
<glyph glyph-name="twothirds" unicode="&#x2154;" horiz-adv-x="736" d="M60 404 L255 404 C261 404 264 408 264 413 L264 459 C264 464 260 468 255 468 L175 468 L229 532 C252 560 266 588 266 618 C266 673 223 710 160 710 C108 710 72 681 66 676 C55 668 57 663 63 655 L85 624 C90 617 95 617 101 621 C109 630 127 641 145 641 C169 641 185 626 185 606 C185 592 177 575 160 556 L50 430 L50 413 C50 407 54 404 60 404 L60 404 Z M161 27 C154 14 163 0 178 0 L226 0 C234 0 241 6 243 10 L588 673 C595 686 586 700 571 700 L521 700 C513 700 507 696 504 690 L161 27 Z M475 23 C484 15 513 -10 570 -10 C634 -10 687 21 687 76 C687 120 650 143 627 152 L627 153 C650 163 678 187 678 223 C678 274 634 306 570 306 C514 306 481 274 481 274 C474 270 475 261 480 256 L504 227 C510 219 513 221 519 224 C528 232 543 240 558 240 C580 240 596 228 596 210 C596 192 580 179 555 179 L526 179 C517 179 511 175 511 165 L511 134 C511 123 516 120 526 120 L555 120 C586 120 602 106 602 87 C602 68 586 56 560 56 C534 56 514 72 513 72 C507 76 501 77 496 70 L474 41 C469 34 469 29 475 23 L475 23 Z " />
<glyph glyph-name="oneeighth" unicode="&#x215b;" horiz-adv-x="718" d="M114 27 C107 14 116 0 131 0 L179 0 C187 0 194 6 196 10 L541 673 C548 686 539 700 524 700 L474 700 C466 700 460 696 457 690 L114 27 Z M116 404 L178 404 C183 404 187 408 187 413 L187 691 C187 696 183 700 178 700 L127 700 L53 653 C48 649 46 647 46 642 L48 611 C48 605 52 602 57 602 L106 606 L106 413 C106 408 110 404 116 404 L116 404 Z M426 76 C426 27 474 -10 546 -10 C620 -10 668 27 668 76 C668 121 631 145 607 152 L607 153 C627 161 659 185 659 223 C659 274 609 306 546 306 C485 306 435 274 435 223 C435 184 466 161 486 153 L486 152 C478 149 426 123 426 76 L426 76 Z M514 213 C514 229 528 244 546 244 C565 244 579 229 579 213 C579 198 567 184 547 182 C526 184 514 196 514 213 L514 213 Z M508 84 C508 101 524 118 547 120 C571 118 585 101 585 84 C585 64 567 52 547 52 C527 52 508 65 508 84 L508 84 Z " />
<glyph glyph-name="threeeighths" unicode="&#x215c;" horiz-adv-x="749" d="M149 394 C213 394 266 425 266 480 C266 524 229 547 206 556 L206 557 C229 567 257 591 257 627 C257 678 213 710 149 710 C93 710 60 678 60 678 C53 674 54 665 59 660 L83 631 C89 623 92 625 98 628 C107 636 122 644 137 644 C159 644 175 632 175 614 C175 596 159 583 134 583 L105 583 C96 583 90 579 90 569 L90 538 C90 527 95 524 105 524 L134 524 C165 524 181 510 181 491 C181 472 165 460 139 460 C113 460 93 476 92 476 C86 480 80 481 75 474 L53 445 C48 438 48 433 54 427 C63 419 92 394 149 394 L149 394 Z M147 27 C140 14 149 0 164 0 L212 0 C220 0 227 6 229 10 L574 673 C581 686 572 700 557 700 L507 700 C499 700 493 696 490 690 L147 27 Z M459 76 C459 27 507 -10 579 -10 C653 -10 701 27 701 76 C701 121 664 145 640 152 L640 153 C660 161 692 185 692 223 C692 274 642 306 579 306 C518 306 468 274 468 223 C468 184 499 161 519 153 L519 152 C511 149 459 123 459 76 L459 76 Z M547 213 C547 229 561 244 579 244 C598 244 612 229 612 213 C612 198 600 184 580 182 C559 184 547 196 547 213 L547 213 Z M541 84 C541 101 557 118 580 120 C604 118 618 101 618 84 C618 64 600 52 580 52 C560 52 541 65 541 84 L541 84 Z " />
<glyph glyph-name="fiveeighths" unicode="&#x215d;" horiz-adv-x="752" d="M151 27 C144 14 153 0 168 0 L216 0 C224 0 231 6 233 10 L578 673 C585 686 576 700 561 700 L511 700 C503 700 497 696 494 690 L151 27 Z M153 394 C228 394 278 439 278 500 C278 562 236 599 164 599 L129 599 L129 638 L232 638 C237 638 241 642 241 647 L241 691 C241 696 237 700 232 700 L72 700 C67 700 63 696 63 691 L63 552 C63 544 68 536 78 536 L152 536 C182 536 200 521 200 499 C200 477 178 461 155 461 C121 461 99 481 98 482 C93 487 88 487 83 480 L56 447 C51 441 52 437 57 432 C69 418 102 394 153 394 L153 394 Z M463 76 C463 27 511 -10 583 -10 C657 -10 705 27 705 76 C705 121 668 145 644 152 L644 153 C664 161 696 185 696 223 C696 274 646 306 583 306 C522 306 472 274 472 223 C472 184 503 161 523 153 L523 152 C515 149 463 123 463 76 L463 76 Z M551 213 C551 229 565 244 583 244 C602 244 616 229 616 213 C616 198 604 184 584 182 C563 184 551 196 551 213 L551 213 Z M545 84 C545 101 561 118 584 120 C608 118 622 101 622 84 C622 64 604 52 584 52 C564 52 545 65 545 84 L545 84 Z " />
<glyph glyph-name="seveneighths" unicode="&#x215e;" horiz-adv-x="715" d="M113 27 C106 14 115 0 130 0 L178 0 C186 0 193 6 195 10 L540 673 C547 686 538 700 523 700 L473 700 C465 700 459 696 456 690 L113 27 Z M70 404 L127 404 C134 404 138 406 142 413 L274 677 L274 691 C274 696 270 700 265 700 L66 700 C61 700 56 696 56 691 L56 644 C56 640 61 636 66 636 L175 636 L59 418 L59 412 C59 406 63 404 70 404 L70 404 Z M425 76 C425 27 473 -10 545 -10 C619 -10 667 27 667 76 C667 121 630 145 606 152 L606 153 C626 161 658 185 658 223 C658 274 608 306 545 306 C484 306 434 274 434 223 C434 184 465 161 485 153 L485 152 C477 149 425 123 425 76 L425 76 Z M513 213 C513 229 527 244 545 244 C564 244 578 229 578 213 C578 198 566 184 546 182 C525 184 513 196 513 213 L513 213 Z M507 84 C507 101 523 118 546 120 C570 118 584 101 584 84 C584 64 566 52 546 52 C526 52 507 65 507 84 L507 84 Z " />
<glyph glyph-name="partialdiff" unicode="&#x2202;" horiz-adv-x="587" d="M52 226 C52 96 158 -10 284 -10 C446 -10 530 119 530 274 C530 575 275 694 187 723 C172 727 162 722 158 709 L134 648 C129 636 133 624 153 618 C201 603 347 534 379 420 C362 431 310 449 262 449 C159 449 52 373 52 226 L52 226 Z M168 225 C168 291 221 348 286 348 C354 348 397 296 408 259 C408 188 369 104 285 104 C221 104 168 160 168 225 L168 225 Z " />
<glyph glyph-name="Delta" unicode="&#x2206;" horiz-adv-x="731" d="M43 43 C30 14 43 0 69 0 L669 0 C694 0 698 21 689 41 L387 700 C384 706 377 710 371 710 L362 710 C356 710 349 706 346 700 L43 43 Z M214 119 L364 459 L365 459 L518 119 L214 119 Z " />
<glyph glyph-name="product" unicode="&#x220f;" horiz-adv-x="777" d="M95 18 C95 8 103 0 113 0 L210 0 C220 0 228 8 228 18 L228 576 L550 576 L550 18 C550 8 557 0 567 0 L665 0 C674 0 682 8 682 18 L682 682 C682 692 674 700 665 700 L113 700 C103 700 95 692 95 682 L95 18 Z " />
<glyph glyph-name="summation" unicode="&#x2211;" horiz-adv-x="562" d="M51 18 C51 8 58 0 68 0 L479 0 C489 0 497 8 497 18 L497 106 C497 116 489 124 479 124 L263 124 L430 293 C437 300 448 310 448 327 L448 383 C448 402 437 413 430 419 L263 576 L479 576 C489 576 497 584 497 594 L497 682 C497 692 489 700 479 700 L68 700 C58 700 51 692 51 682 L51 648 L329 354 L51 58 L51 18 Z " />
<glyph glyph-name="minus" unicode="&#x2212;" horiz-adv-x="600" d="M103 300 L497 300 C507 300 515 309 515 319 L515 375 C515 385 507 394 497 394 L103 394 C93 394 84 385 84 375 L84 319 C84 309 93 300 103 300 L103 300 Z " />
<glyph glyph-name="uni2215" unicode="&#x2215;" horiz-adv-x="120" d="M-71 10 L274 673 C281 686 272 700 257 700 L207 700 C199 700 193 696 190 690 L-153 27 C-160 14 -151 0 -136 0 L-88 0 C-80 0 -73 6 -71 10 L-71 10 Z " />
<glyph glyph-name="uni2219" unicode="&#x2219;" horiz-adv-x="265" d="M131 167 C182 167 223 208 223 256 C223 307 182 348 131 348 C83 348 42 307 42 256 C42 208 83 167 131 167 L131 167 Z " />
<glyph glyph-name="radical" unicode="&#x221a;" horiz-adv-x="660" d="M196 1 C199 -5 207 -10 212 -10 L221 -10 C226 -10 234 -5 237 1 L510 592 L629 592 C639 592 646 600 646 610 L646 682 C646 692 639 700 629 700 L441 700 C433 700 426 694 424 689 L220 237 L215 237 L148 390 C147 394 140 400 133 400 L39 400 C25 400 18 389 24 377 L196 1 Z " />
<glyph glyph-name="infinity" unicode="&#x221e;" horiz-adv-x="615" d="M201 156 C243 156 282 180 306 211 C332 180 371 156 413 156 C491 156 554 219 554 296 C554 374 491 436 413 436 C371 436 332 411 306 381 C282 411 243 436 201 436 C124 436 61 374 61 296 C61 219 124 156 201 156 L201 156 Z M357 296 C357 325 380 348 409 348 C438 348 462 325 462 296 C462 267 438 244 409 244 C380 244 357 267 357 296 L357 296 Z M204 244 C176 244 153 267 153 296 C153 325 176 348 204 348 C233 348 257 325 257 296 C257 267 233 244 204 244 L204 244 Z " />
<glyph glyph-name="integral" unicode="&#x222b;" horiz-adv-x="497" d="M186 -47 C186 -109 152 -136 116 -136 C96 -136 68 -123 64 -119 C55 -114 45 -116 40 -124 L2 -186 C-2 -193 0 -204 6 -210 C23 -224 60 -249 117 -249 C228 -249 311 -178 311 -48 L311 508 C311 570 344 597 380 597 C400 597 428 584 433 580 C441 575 451 577 457 585 L494 647 C499 654 496 665 490 671 C473 685 436 710 379 710 C267 710 186 639 186 509 L186 -47 Z " />
</font>
</svg>
