<?xml version="1.0" encoding="UTF-8"?>
<svg xmlns="http://www.w3.org/2000/svg" xmlns:xlink="http://www.w3.org/1999/xlink" version="1.2" >
<font id="Brandon Text Regular">
<font-face  font-family="Brandon Text" units-per-em="1000" ascent="700" descent="-300" font-style="normal" font-weight="400" font-stretch="normal" cap-height="700" x-height="462" underline-position="-75" underline-thickness="50" />
<missing-glyph  horiz-adv-x="599" d="M50 30 C50 9 59 0 80 0 L519 0 C540 0 549 9 549 30 L549 670 C549 691 540 700 519 700 L80 700 C59 700 50 691 50 670 L50 30 Z M262 314 L262 343 C262 418 361 427 361 490 C361 517 340 542 300 542 C252 542 229 513 216 501 C210 497 205 497 199 501 L177 523 C171 528 173 535 177 541 C177 541 220 602 307 602 C378 602 432 556 432 491 C432 404 327 389 327 341 L327 315 C327 306 321 302 312 302 L276 302 C269 302 262 307 262 314 L262 314 Z M245 156 C245 182 267 204 293 204 C320 204 342 182 342 156 C342 130 320 108 293 108 C267 108 245 130 245 156 L245 156 Z " />
<glyph glyph-name=".null" d="" />
<glyph glyph-name="&amp;#x0;" d="" />
<glyph glyph-name="&amp;#xd;" unicode="&#xd;" d="" />
<glyph glyph-name="space" unicode="&#x20;" horiz-adv-x="240" d="" />
<glyph glyph-name="exclam" unicode="&#x21;" horiz-adv-x="260" d="M124 272 L136 272 C145 272 154 280 155 288 L174 569 L174 681 C174 691 165 700 155 700 L105 700 C95 700 86 691 86 681 L86 567 L105 288 C106 280 115 272 124 272 L124 272 Z M73 47 C73 16 99 -10 130 -10 C162 -10 187 16 187 47 C187 79 162 104 130 104 C99 104 73 79 73 47 L73 47 Z " />
<glyph glyph-name="quotedbl" unicode="&#x22;" horiz-adv-x="337" d="M234 501 L240 501 C247 501 256 508 258 516 L286 675 C290 689 281 700 268 700 L234 700 C224 700 215 691 215 681 L215 520 C215 510 224 501 234 501 L234 501 Z M83 501 L89 501 C96 501 105 508 107 516 L135 675 C139 689 130 700 117 700 L83 700 C73 700 64 691 64 681 L64 520 C64 510 73 501 83 501 L83 501 Z " />
<glyph glyph-name="numbersign" unicode="&#x23;" horiz-adv-x="557" d="M113 22 C111 10 119 0 132 0 L138 0 C147 0 156 7 157 16 L182 195 L335 195 L309 22 C308 10 316 0 328 0 L334 0 C344 0 352 7 353 16 L379 195 L459 195 C469 195 476 204 476 214 L476 221 C476 232 467 240 457 240 L386 240 L410 411 L488 411 C499 411 505 420 505 430 L505 437 C505 447 497 456 486 456 L416 456 L446 678 C448 690 439 700 427 700 L421 700 C412 700 403 692 402 684 L371 456 L220 456 L250 678 C252 690 243 700 232 700 L225 700 C216 700 208 692 207 684 L175 456 L97 456 C87 456 78 447 78 437 L78 430 C78 420 87 411 97 411 L169 411 L145 240 L68 240 C57 240 49 232 49 221 L49 214 C49 204 57 195 68 195 L138 195 L113 22 Z M189 240 L214 411 L365 411 L342 240 L189 240 Z " />
<glyph glyph-name="dollar" unicode="&#x24;" horiz-adv-x="600" d="M96 71 C108 60 177 0 282 -9 L282 -113 C282 -125 293 -131 303 -131 C314 -131 325 -125 325 -113 L325 -9 C431 -2 523 71 523 170 C523 279 446 330 325 382 L325 641 C378 633 429 600 435 597 C453 587 460 593 470 607 L482 625 C494 644 482 656 476 659 C476 659 412 702 325 709 L325 741 C325 752 318 760 308 760 L301 760 C291 760 282 752 282 741 L282 709 C145 698 92 596 92 532 C92 402 183 358 282 318 L282 60 C205 71 146 127 140 133 C127 144 116 139 108 128 L90 105 C76 87 88 78 96 71 L96 71 Z M282 400 C209 433 166 471 166 533 C166 572 197 633 282 642 L282 400 Z M325 59 L325 299 C403 261 443 223 443 167 C443 112 392 65 325 59 L325 59 Z " />
<glyph glyph-name="percent" unicode="&#x25;" horiz-adv-x="677" d="M181 441 C255 441 316 501 316 576 C316 651 255 711 181 711 C106 711 46 651 46 576 C46 501 106 441 181 441 L181 441 Z M139 27 C132 14 141 0 156 0 L170 0 C179 0 185 6 187 10 L532 673 C539 686 530 700 515 700 L499 700 C491 700 486 697 482 690 L139 27 Z M181 498 C137 498 103 532 103 576 C103 617 137 652 181 652 C222 652 257 617 257 576 C257 532 222 498 181 498 L181 498 Z M362 124 C362 49 422 -11 497 -11 C571 -11 632 49 632 124 C632 199 571 259 497 259 C422 259 362 199 362 124 L362 124 Z M419 124 C419 165 453 200 497 200 C538 200 573 165 573 124 C573 80 538 46 497 46 C453 46 419 80 419 124 L419 124 Z " />
<glyph glyph-name="ampersand" unicode="&#x26;" horiz-adv-x="665" d="M71 174 C71 76 138 -10 264 -10 C354 -10 428 29 482 90 L567 2 C582 -14 597 -12 609 -1 L621 10 C642 33 634 43 622 56 L526 152 C563 218 585 300 585 377 C585 385 587 400 566 400 L542 400 C527 400 519 399 519 377 C519 313 505 252 479 199 L314 364 C372 400 462 467 462 556 C462 639 401 710 293 710 C172 710 116 624 116 548 C116 488 147 443 186 402 L210 376 L210 374 C156 342 71 282 71 174 L71 174 Z M269 410 L247 432 C209 469 183 503 183 546 C183 604 221 651 287 651 C355 651 392 602 392 554 C392 482 314 437 269 410 L269 410 Z M141 173 C141 252 207 303 253 331 L438 137 C395 85 336 52 267 52 C197 52 141 103 141 173 L141 173 Z " />
<glyph glyph-name="quotesingle" unicode="&#x27;" horiz-adv-x="186" d="M83 501 L89 501 C96 501 105 508 107 516 L135 675 C139 689 130 700 117 700 L83 700 C73 700 64 691 64 681 L64 520 C64 510 73 501 83 501 L83 501 Z " />
<glyph glyph-name="parenleft" unicode="&#x28;" horiz-adv-x="339" d="M289 -78 C300 -79 306 -76 307 -68 L309 -41 C311 -32 306 -25 299 -24 C173 1 123 119 123 315 C123 511 173 629 299 654 C306 655 311 662 309 671 L307 698 C306 706 300 709 289 708 C175 702 53 609 53 315 C53 21 175 -72 289 -78 L289 -78 Z " />
<glyph glyph-name="parenright" unicode="&#x29;" horiz-adv-x="339" d="M40 -24 C33 -25 28 -32 30 -41 L32 -68 C33 -76 39 -79 50 -78 C164 -72 286 21 286 315 C286 609 164 702 50 708 C39 709 33 706 32 698 L30 671 C28 662 33 655 40 654 C166 629 216 511 216 315 C216 119 166 1 40 -24 L40 -24 Z " />
<glyph glyph-name="asterisk" unicode="&#x2a;" horiz-adv-x="414" d="M200 407 L213 407 C223 407 233 416 233 426 L231 510 L301 459 C310 454 322 456 329 465 L336 477 C341 485 339 497 330 504 L249 554 L329 604 C338 611 339 622 334 631 L326 643 C320 651 309 654 300 649 L231 597 L233 682 C233 692 223 700 213 700 L200 700 C190 700 180 692 180 682 L182 596 L111 647 C103 653 91 649 85 641 C82 636 80 633 77 629 C72 621 74 609 82 602 L162 554 L84 506 C76 499 73 487 79 478 L87 467 C92 458 105 455 113 461 L182 511 L180 426 C180 416 190 407 200 407 L200 407 Z " />
<glyph glyph-name="plus" unicode="&#x2b;" horiz-adv-x="600" d="M267 157 C267 147 276 139 286 139 L314 139 C324 139 333 147 333 157 L333 314 L491 314 C501 314 509 323 509 333 L509 361 C509 371 501 380 491 380 L333 380 L333 538 C333 548 324 556 314 556 L286 556 C276 556 267 548 267 538 L267 380 L110 380 C100 380 91 371 91 361 L91 333 C91 323 100 314 110 314 L267 314 L267 157 Z " />
<glyph glyph-name="comma" unicode="&#x2c;" horiz-adv-x="241" d="M57 49 C57 27 73 0 105 0 C115 0 131 4 138 9 C141 1 142 -7 142 -14 C142 -66 114 -103 86 -133 C81 -138 78 -144 85 -151 L104 -168 C109 -172 114 -173 120 -167 C155 -129 188 -76 188 0 C188 61 162 110 113 110 C77 110 57 84 57 49 L57 49 Z " />
<glyph glyph-name="hyphen" unicode="&#x2d;" horiz-adv-x="383" d="M87 220 L296 220 C307 220 315 228 315 238 L315 257 C315 268 307 276 296 276 L87 276 C76 276 68 268 68 257 L68 238 C68 228 76 220 87 220 L87 220 Z " />
<glyph glyph-name="period" unicode="&#x2e;" horiz-adv-x="243" d="M56 56 C56 20 85 -11 121 -11 C158 -11 187 20 187 56 C187 92 158 121 121 121 C85 121 56 92 56 56 L56 56 Z " />
<glyph glyph-name="slash" unicode="&#x2f;" horiz-adv-x="377" d="M61 25 C57 11 66 0 79 0 L102 0 C109 0 118 6 120 13 L315 675 C319 689 311 700 297 700 L275 700 C267 700 259 694 257 687 L61 25 Z " />
<glyph glyph-name="zero" unicode="0" horiz-adv-x="642" d="M320 -10 C480 -10 571 125 571 350 C571 576 480 710 320 710 C161 710 70 576 70 350 C70 125 161 -10 320 -10 L320 -10 Z M320 60 C207 60 148 162 148 350 C148 537 207 640 320 640 C434 640 493 537 493 350 C493 162 434 60 320 60 L320 60 Z " />
<glyph glyph-name="one" unicode="1" horiz-adv-x="337" d="M155 572 L155 20 C155 9 164 0 175 0 L212 0 C222 0 231 9 231 20 L231 681 C231 691 222 700 212 700 L194 700 C187 700 182 698 177 693 L40 560 C35 555 31 546 38 538 L58 516 C65 508 73 509 81 515 L154 572 L155 572 Z " />
<glyph glyph-name="two" unicode="2" horiz-adv-x="553" d="M162 69 L358 278 C429 354 487 421 487 512 C487 617 412 710 264 710 C142 710 69 609 69 609 C62 601 64 589 70 582 L90 562 C99 554 110 554 118 562 C150 596 201 640 264 640 C371 640 409 569 409 510 C409 461 375 400 305 323 C224 238 145 150 65 64 C52 50 52 45 52 34 L52 20 C52 9 60 0 72 0 L463 0 C474 0 483 9 483 20 L483 47 C483 58 474 67 463 67 L162 67 L162 69 Z " />
<glyph glyph-name="three" unicode="3" horiz-adv-x="563" d="M58 81 C81 56 139 -10 265 -10 C408 -10 494 75 494 192 C494 284 419 336 370 356 L370 359 C417 381 477 443 477 522 C477 638 389 710 264 710 C152 710 78 619 78 619 C71 612 70 599 78 592 L103 573 C113 563 123 568 129 575 C152 601 194 642 264 642 C338 642 399 593 399 512 C399 444 346 387 236 387 L179 387 C162 387 157 381 157 365 L157 340 C157 323 166 317 177 317 L235 317 C362 317 417 261 417 184 C417 100 347 54 269 54 C180 54 124 113 115 125 C107 136 99 138 87 130 L59 106 C51 100 52 89 58 81 L58 81 Z " />
<glyph glyph-name="four" unicode="4" horiz-adv-x="626" d="M50 159 L405 159 L405 20 C405 9 415 0 425 0 L458 0 C468 0 477 9 477 20 L477 159 L561 159 C572 159 580 168 580 178 L580 204 C580 214 572 222 561 222 L477 222 L477 690 C477 701 468 710 458 710 L441 710 C427 710 424 707 417 698 L36 224 C32 218 30 213 30 206 L30 178 C30 168 39 159 50 159 L50 159 Z M405 581 L405 222 L116 222 L116 227 L403 581 L405 581 Z " />
<glyph glyph-name="five" unicode="5" horiz-adv-x="566" d="M77 75 C103 44 161 -10 276 -10 C415 -10 515 97 515 226 C515 360 432 442 277 442 L157 442 L157 631 L419 631 C430 631 439 641 439 651 L439 681 C439 691 430 700 419 700 L108 700 C97 700 88 691 88 681 L88 409 C88 392 100 373 120 373 L277 373 C387 373 439 305 439 225 C439 143 376 56 277 56 C189 56 146 106 124 132 C116 143 108 141 99 133 C90 126 83 117 75 110 C63 98 64 91 77 75 L77 75 Z " />
<glyph glyph-name="six" unicode="6" horiz-adv-x="578" d="M64 283 C64 119 137 -10 304 -10 C427 -10 531 96 531 226 C531 363 426 449 310 449 C221 449 153 403 153 403 C189 542 356 626 418 652 C436 660 442 670 436 682 L425 707 C421 716 413 721 402 717 C298 676 64 557 64 283 L64 283 Z M304 58 C183 58 136 170 136 267 C136 284 137 300 140 315 C140 315 207 382 303 382 C389 382 458 311 458 221 C458 133 390 58 304 58 L304 58 Z " />
<glyph glyph-name="seven" unicode="7" horiz-adv-x="502" d="M388 629 L109 45 C104 35 102 28 102 20 C102 9 111 0 121 0 L151 0 C171 0 181 18 185 27 L481 664 C486 674 486 678 486 681 C486 694 477 700 466 700 L52 700 C42 700 33 691 33 681 L33 651 C33 641 42 631 52 631 L388 631 L388 629 Z " />
<glyph glyph-name="eight" unicode="8" horiz-adv-x="599" d="M68 189 C68 77 151 -10 298 -10 C449 -10 531 77 531 189 C531 278 455 340 407 360 L407 364 C453 385 513 444 513 523 C513 637 423 710 299 710 C176 710 86 637 86 523 C86 444 146 385 192 364 L192 360 C144 340 68 278 68 189 L68 189 Z M300 397 C204 406 163 456 163 520 C163 597 221 648 300 648 C377 648 437 597 437 520 C437 456 394 406 300 397 L300 397 Z M145 182 C145 246 201 310 300 320 C397 310 454 246 454 182 C454 101 390 51 298 51 C205 51 145 103 145 182 L145 182 Z " />
<glyph glyph-name="nine" unicode="9" horiz-adv-x="579" d="M141 20 L153 -7 C157 -16 166 -22 176 -18 C280 24 515 142 515 416 C515 580 442 710 275 710 C151 710 47 604 47 474 C47 337 152 250 269 250 C357 250 425 297 425 297 C389 158 206 65 159 49 C140 43 136 32 141 20 L141 20 Z M276 317 C189 317 120 389 120 478 C120 567 188 642 275 642 C395 642 442 529 442 432 C442 415 441 399 438 384 C438 384 372 317 276 317 L276 317 Z " />
<glyph glyph-name="colon" unicode="&#x3a;" horiz-adv-x="268" d="M134 340 C171 340 200 370 200 405 C200 443 171 472 134 472 C98 472 68 443 68 405 C68 370 98 340 134 340 L134 340 Z M68 56 C68 20 98 -11 134 -11 C171 -11 200 20 200 56 C200 92 171 121 134 121 C98 121 68 92 68 56 L68 56 Z " />
<glyph glyph-name="semicolon" unicode="&#x3b;" horiz-adv-x="272" d="M135 340 C172 340 200 370 200 405 C200 443 172 472 135 472 C99 472 69 443 69 405 C69 370 99 340 135 340 L135 340 Z M72 49 C72 27 88 0 120 0 C130 0 146 4 153 9 C156 1 157 -7 157 -14 C157 -66 129 -103 101 -133 C96 -138 93 -144 100 -151 L119 -168 C124 -172 129 -173 135 -167 C170 -129 203 -76 203 0 C203 61 177 110 128 110 C92 110 72 84 72 49 L72 49 Z " />
<glyph glyph-name="less" unicode="&#x3c;" horiz-adv-x="600" d="M107 210 L447 5 C460 -3 475 5 475 21 C475 39 475 8 475 57 C475 63 474 70 464 76 L203 230 L464 390 C472 395 475 403 475 409 C475 459 475 427 475 445 C475 461 460 469 447 461 L107 249 C102 246 97 238 97 232 L97 227 C97 221 102 213 107 210 L107 210 Z " />
<glyph glyph-name="equal" unicode="&#x3d;" horiz-adv-x="600" d="M150 351 L449 351 C460 351 468 360 468 370 L468 400 C468 410 460 419 449 419 L150 419 C139 419 131 410 131 400 L131 370 C131 360 139 351 150 351 L150 351 Z M150 140 L449 140 C460 140 468 149 468 159 L468 190 C468 200 460 209 449 209 L150 209 C139 209 131 200 131 190 L131 159 C131 149 139 140 150 140 L150 140 Z " />
<glyph glyph-name="greater" unicode="&#x3e;" horiz-adv-x="600" d="M124 21 C124 5 139 -3 152 5 L492 210 C497 213 502 221 502 227 L502 232 C502 238 497 246 492 249 L152 461 C139 469 124 461 124 445 C124 427 124 459 124 409 C124 403 126 396 135 390 L396 230 L135 76 C127 72 124 63 124 57 C124 8 124 39 124 21 L124 21 Z " />
<glyph glyph-name="question" unicode="&#x3f;" horiz-adv-x="467" d="M205 272 L232 272 C242 272 253 278 253 292 L253 333 C253 415 411 426 411 557 C411 649 341 710 237 710 C111 710 54 622 54 622 C48 614 46 603 54 596 L73 579 C82 571 90 571 99 580 C119 601 156 648 237 648 C302 648 336 607 336 560 C336 447 186 457 186 333 L186 291 C186 280 195 272 205 272 L205 272 Z M160 47 C160 16 186 -10 217 -10 C249 -10 274 16 274 47 C274 79 249 104 217 104 C186 104 160 79 160 47 L160 47 Z " />
<glyph glyph-name="at" unicode="&#x40;" horiz-adv-x="987" d="M59 223 C59 6 186 -152 364 -227 C373 -231 380 -228 384 -219 L395 -192 C401 -178 401 -174 386 -167 C232 -101 122 33 122 223 C122 490 277 654 517 654 C756 654 879 493 879 288 C879 153 813 76 736 76 C691 76 664 101 664 198 L664 411 C664 421 655 430 645 430 L635 430 C607 430 608 415 601 387 C601 387 566 440 486 440 C383 440 308 364 308 231 C308 103 382 20 483 20 C544 20 588 56 609 98 L617 98 C628 56 663 20 732 20 C872 20 941 156 941 288 C941 529 787 710 519 710 C238 710 59 507 59 223 L59 223 Z M372 230 C372 326 423 378 490 378 C564 378 597 322 597 322 L597 180 C586 134 555 86 489 86 C427 86 372 136 372 230 L372 230 Z " />
<glyph glyph-name="A" unicode="A" horiz-adv-x="665" d="M24 0 L64 0 C73 0 79 6 81 11 L154 176 L509 176 L583 11 C585 6 591 0 600 0 L640 0 C655 0 663 13 657 26 L355 699 C352 705 347 710 338 710 L328 710 C319 710 314 705 311 699 L7 26 C1 13 9 0 24 0 L24 0 Z M182 238 L328 566 L336 566 C385 457 433 347 482 238 L182 238 Z " />
<glyph glyph-name="B" unicode="B" horiz-adv-x="623" d="M171 386 L171 631 L323 631 C405 631 454 583 454 511 C454 441 405 386 323 386 L171 386 Z M169 67 L169 317 L341 317 C417 317 477 265 477 194 C477 122 426 67 345 67 L169 67 Z M442 357 C488 385 539 435 539 516 C539 621 458 700 336 700 L115 700 C104 700 96 691 96 681 L96 19 C96 9 104 0 115 0 L350 0 C474 0 561 81 561 193 C561 284 495 333 442 355 L442 357 Z " />
<glyph glyph-name="C" unicode="C" horiz-adv-x="706" d="M52 349 C52 149 213 -10 413 -10 C502 -10 585 27 651 87 C658 94 660 108 652 114 L629 137 C621 145 613 146 603 138 C550 93 499 63 412 63 C254 63 133 196 133 350 C133 505 254 638 412 638 C485 638 551 608 603 563 C613 553 621 552 629 562 L656 589 C664 597 663 609 655 617 C587 675 514 710 413 710 C213 710 52 549 52 349 L52 349 Z " />
<glyph glyph-name="D" unicode="D" horiz-adv-x="742" d="M96 19 C96 9 104 0 114 0 L338 0 C531 0 689 157 689 351 C689 543 531 700 338 700 L114 700 C104 700 96 691 96 681 L96 19 Z M172 69 L172 632 L329 632 C493 632 608 515 608 351 C608 186 493 69 329 69 L172 69 Z " />
<glyph glyph-name="E" unicode="E" horiz-adv-x="576" d="M96 19 C96 9 104 0 115 0 L509 0 C520 0 528 9 528 19 L528 48 C528 58 520 67 509 67 L173 67 L173 322 L460 322 C470 322 479 330 479 341 L479 370 C479 380 470 389 460 389 L173 389 L173 633 L509 633 C520 633 528 642 528 652 L528 681 C528 691 520 700 509 700 L115 700 C104 700 96 691 96 681 L96 19 Z " />
<glyph glyph-name="F" unicode="F" horiz-adv-x="558" d="M96 19 C96 9 104 0 115 0 L154 0 C164 0 173 9 173 19 L173 292 L460 292 C470 292 479 301 479 311 L479 340 C479 350 470 359 460 359 L173 359 L173 633 L509 633 C520 633 528 642 528 652 L528 681 C528 691 520 700 509 700 L115 700 C104 700 96 691 96 681 L96 19 Z " />
<glyph glyph-name="G" unicode="G" horiz-adv-x="734" d="M52 349 C52 149 213 -10 413 -10 C558 -10 660 56 660 56 C664 59 668 67 668 72 L668 301 C668 311 660 320 650 320 L477 320 C466 320 458 312 458 301 L458 264 C458 254 466 246 477 246 L592 246 L592 106 C592 106 522 64 412 64 C254 64 134 199 134 353 C134 508 254 640 412 640 C479 640 551 607 602 562 C613 552 619 551 628 561 C636 570 647 580 656 589 C664 597 663 609 655 617 C587 675 514 710 413 710 C213 710 52 549 52 349 L52 349 Z " />
<glyph glyph-name="H" unicode="H" horiz-adv-x="752" d="M96 19 C96 9 105 0 115 0 L154 0 C165 0 173 9 173 19 L173 322 L579 322 L579 19 C579 9 587 0 598 0 L637 0 C647 0 656 9 656 19 L656 681 C656 691 647 700 637 700 L598 700 C587 700 579 691 579 681 L579 389 L173 389 L173 681 C173 691 165 700 154 700 L115 700 C105 700 96 691 96 681 L96 19 Z " />
<glyph glyph-name="I" unicode="I" horiz-adv-x="270" d="M96 19 C96 9 105 0 115 0 L155 0 C165 0 174 9 174 19 L174 681 C174 691 165 700 155 700 L115 700 C105 700 96 691 96 681 L96 19 Z " />
<glyph glyph-name="J" unicode="J" horiz-adv-x="464" d="M21 64 C38 43 86 -10 182 -10 C290 -10 374 60 374 199 L374 681 C374 691 366 700 355 700 L316 700 C305 700 297 691 297 681 L297 197 C297 91 235 57 182 57 C131 57 93 90 76 109 C66 120 56 129 42 112 L22 89 C16 82 16 72 21 64 L21 64 Z " />
<glyph glyph-name="K" unicode="K" horiz-adv-x="601" d="M96 24 C96 11 106 0 120 0 L149 0 C162 0 173 11 173 24 L173 336 L494 7 C496 4 505 0 512 0 L563 0 C585 0 587 24 580 31 L249 364 L565 665 C581 680 571 700 553 700 L504 700 C498 700 489 695 485 690 L173 387 L173 676 C173 689 162 700 149 700 L120 700 C106 700 96 689 96 676 L96 24 Z " />
<glyph glyph-name="L" unicode="L" horiz-adv-x="494" d="M96 19 C96 9 104 0 115 0 L461 0 C472 0 480 9 480 19 L480 48 C480 58 472 67 461 67 L173 67 L173 681 C173 691 164 700 154 700 L115 700 C104 700 96 691 96 681 L96 19 Z " />
<glyph glyph-name="M" unicode="M" horiz-adv-x="862" d="M52 24 C49 10 55 0 70 0 L110 0 C118 0 127 7 128 14 L215 529 C216 529 218 529 219 529 L405 1 C407 -5 416 -10 422 -10 L440 -10 C446 -10 455 -5 457 1 L641 529 C642 529 644 529 645 529 L734 14 C736 7 744 0 752 0 L792 0 C807 0 813 10 810 24 L681 696 C679 704 671 710 663 710 L647 710 C640 710 632 705 630 699 L435 148 C433 148 432 148 430 148 L232 699 C230 705 222 710 215 710 L199 710 C191 710 183 704 181 696 L52 24 Z " />
<glyph glyph-name="N" unicode="N" horiz-adv-x="762" d="M96 19 C96 9 105 0 115 0 L150 0 C161 0 169 9 169 19 L169 563 C169 563 170 563 170 563 L623 -2 C627 -8 632 -10 639 -10 L647 -10 C657 -10 666 -2 666 8 L666 681 C666 691 657 700 647 700 L612 700 C601 700 593 691 593 681 L593 148 C592 148 592 148 591 148 L146 702 C142 708 137 710 130 710 L115 710 C105 710 96 702 96 692 L96 19 Z " />
<glyph glyph-name="O" unicode="O" horiz-adv-x="823" d="M52 349 C52 149 211 -10 411 -10 C611 -10 771 149 771 349 C771 549 611 710 411 710 C211 710 52 549 52 349 L52 349 Z M122 349 C122 508 252 640 411 640 C570 640 701 508 701 349 C701 190 570 60 411 60 C252 60 122 190 122 349 L122 349 Z " />
<glyph glyph-name="P" unicode="P" horiz-adv-x="593" d="M96 19 C96 9 104 0 115 0 L153 0 C163 0 172 9 172 19 L172 254 L337 254 C459 254 560 355 560 479 C560 600 459 700 336 700 L115 700 C104 700 96 691 96 681 L96 19 Z M172 328 L172 624 L331 624 C413 624 483 570 483 481 C483 389 413 328 331 328 L172 328 Z " />
<glyph glyph-name="Q" unicode="Q" horiz-adv-x="823" d="M52 349 C52 149 211 -10 411 -10 C434 -10 462 -8 484 -4 L593 -188 C597 -195 605 -198 609 -198 L659 -198 C675 -198 684 -182 675 -168 L558 20 C684 76 771 201 771 349 C771 549 611 710 411 710 C211 710 52 549 52 349 L52 349 Z M122 349 C122 508 252 640 411 640 C570 640 701 508 701 349 C701 190 570 60 411 60 C252 60 122 190 122 349 L122 349 Z " />
<glyph glyph-name="R" unicode="R" horiz-adv-x="650" d="M96 19 C96 9 104 0 115 0 L154 0 C164 0 173 9 173 19 L173 274 L364 274 L494 15 C499 5 504 0 516 0 L564 0 C581 0 588 16 581 29 L444 283 C531 318 592 395 592 487 C592 606 494 700 374 700 L115 700 C104 700 96 691 96 681 L96 19 Z M175 340 L175 627 L369 627 C446 627 513 562 513 486 C513 404 446 340 369 340 L175 340 Z " />
<glyph glyph-name="S" unicode="S" horiz-adv-x="532" d="M63 71 C76 59 156 -10 274 -10 C391 -10 490 70 490 174 C490 290 403 341 268 396 C184 431 133 462 133 533 C133 575 165 643 271 643 C327 643 362 628 404 603 C420 594 431 594 439 608 L449 625 C460 644 449 656 443 659 C443 659 370 710 272 710 C113 710 59 600 59 532 C59 418 125 376 235 329 C350 280 410 240 410 171 C410 108 357 57 276 57 C187 57 111 124 104 130 C90 142 82 137 72 124 L57 105 C43 87 55 78 63 71 L63 71 Z " />
<glyph glyph-name="T" unicode="T" horiz-adv-x="514" d="M219 19 C219 9 228 0 238 0 L276 0 C286 0 295 9 295 19 L295 633 L469 633 C480 633 488 642 488 652 L488 681 C488 691 480 700 469 700 L45 700 C34 700 26 691 26 681 L26 652 C26 642 34 633 45 633 L219 633 L219 19 Z " />
<glyph glyph-name="U" unicode="U" horiz-adv-x="708" d="M89 254 C89 102 196 -10 353 -10 C511 -10 619 102 619 254 L619 681 C619 691 610 700 600 700 L562 700 C551 700 543 691 543 681 L543 258 C543 144 471 61 353 61 C236 61 165 146 165 260 L165 681 C165 691 157 700 146 700 L108 700 C98 700 89 691 89 681 L89 254 Z " />
<glyph glyph-name="V" unicode="V" horiz-adv-x="663" d="M309 1 C312 -5 319 -10 326 -10 L336 -10 C344 -10 350 -5 353 1 L657 674 C663 687 655 700 640 700 L600 700 C592 700 585 694 583 689 L334 129 L330 129 L81 689 C79 694 73 700 64 700 L24 700 C9 700 1 687 7 674 L309 1 Z " />
<glyph glyph-name="W" unicode="W" horiz-adv-x="886" d="M218 4 C220 -4 228 -10 236 -10 L252 -10 C259 -10 266 -5 269 1 L439 542 L444 542 L617 1 C620 -5 627 -10 634 -10 L650 -10 C658 -10 666 -4 668 4 L857 676 C861 690 853 700 839 700 L797 700 C789 700 781 693 779 686 L643 168 L639 168 L469 699 C467 705 460 710 452 710 L434 710 C425 710 419 705 417 699 L250 168 L246 168 L107 686 C105 693 97 700 89 700 L47 700 C33 700 25 690 29 676 L218 4 Z " />
<glyph glyph-name="X" unicode="X" horiz-adv-x="572" d="M35 28 C27 15 35 0 53 0 L99 0 C107 0 113 4 116 9 L285 292 L286 292 L457 9 C459 5 466 0 474 0 L520 0 C537 0 545 14 537 28 L335 359 L530 672 C538 685 530 700 513 700 L459 700 C451 700 445 696 442 691 L286 426 L285 426 L131 691 C128 696 121 700 114 700 L60 700 C43 700 35 685 43 672 L238 359 L35 28 Z " />
<glyph glyph-name="Y" unicode="Y" horiz-adv-x="574" d="M248 19 C248 9 256 0 267 0 L306 0 C316 0 325 9 325 19 L325 338 L569 671 C577 684 569 700 553 700 L506 700 C499 700 493 695 490 691 L288 412 L86 691 C83 695 77 700 70 700 L23 700 C7 700 -1 684 7 671 L248 337 L248 19 Z " />
<glyph glyph-name="Z" unicode="Z" horiz-adv-x="528" d="M27 19 C27 9 36 0 46 0 L460 0 C471 0 479 9 479 19 L479 51 C479 61 471 70 460 70 L130 70 L130 71 L494 659 C497 665 499 671 499 678 L499 681 C499 691 490 700 480 700 L75 700 C65 700 56 691 56 681 L56 649 C56 639 65 630 75 630 L390 630 L390 627 L32 46 C29 40 27 34 27 27 L27 19 Z " />
<glyph glyph-name="bracketleft" unicode="&#x5b;" horiz-adv-x="331" d="M148 -175 L148 637 L285 637 C295 637 304 645 304 656 L304 681 C304 691 295 700 285 700 L99 700 C89 700 80 691 80 681 L80 -219 C80 -229 89 -238 99 -238 L285 -238 C295 -238 304 -229 304 -219 L304 -193 C304 -183 295 -175 285 -175 L148 -175 Z " />
<glyph glyph-name="backslash" unicode="&#x5c;" horiz-adv-x="386" d="M256 13 C258 6 267 0 274 0 L307 0 C320 0 329 11 325 25 L129 687 C127 694 119 700 111 700 L79 700 C65 700 57 689 61 675 L256 13 Z " />
<glyph glyph-name="bracketright" unicode="&#x5d;" horiz-adv-x="331" d="M46 -175 C36 -175 27 -183 27 -193 L27 -219 C27 -229 36 -238 46 -238 L232 -238 C242 -238 251 -229 251 -219 L251 681 C251 691 242 700 232 700 L46 700 C36 700 27 691 27 681 L27 656 C27 645 36 637 46 637 L183 637 L183 -175 L46 -175 Z " />
<glyph glyph-name="asciicircum" unicode="&#x5e;" horiz-adv-x="524" d="M60 398 L93 398 C101 398 107 402 112 409 L263 620 L412 409 C415 404 421 398 431 398 L464 398 C480 398 488 413 480 426 L284 704 C281 709 273 714 267 714 L262 714 C256 714 248 709 245 704 L44 426 C36 413 44 398 60 398 L60 398 Z " />
<glyph glyph-name="underscore" unicode="&#x5f;" horiz-adv-x="453" d="M58 -29 L58 -45 C58 -55 66 -63 77 -63 L376 -63 C387 -63 395 -55 395 -45 L395 -29 C395 -18 387 -10 376 -10 L77 -10 C66 -10 58 -18 58 -29 L58 -29 Z " />
<glyph glyph-name="grave" unicode="&#x60;" horiz-adv-x="302" d="M237 559 C251 553 256 553 260 561 L270 583 C274 591 270 599 264 602 L114 686 C108 690 93 692 88 683 L70 647 C66 639 68 629 76 626 L237 559 Z " />
<glyph glyph-name="a" unicode="a" horiz-adv-x="471" d="M42 140 C42 47 104 -11 185 -11 C256 -11 304 24 328 48 L337 17 C340 7 344 0 356 0 L375 0 C387 0 397 10 397 22 L397 278 C397 414 372 472 254 472 C178 472 118 452 95 442 C84 437 77 431 81 417 L91 390 C95 379 101 373 113 378 C134 385 187 405 250 405 C316 405 327 363 326 278 C326 278 276 293 227 293 C108 293 42 228 42 140 L42 140 Z M115 140 C115 199 163 230 227 230 C273 230 310 220 325 212 L325 118 C305 88 255 56 198 56 C147 56 115 93 115 140 L115 140 Z " />
<glyph glyph-name="b" unicode="b" horiz-adv-x="546" d="M78 22 C78 10 88 0 100 0 L118 0 C129 0 136 8 138 19 L144 49 C144 49 196 -11 290 -11 C408 -11 497 100 497 232 C497 367 417 472 279 472 C202 472 151 443 151 443 L151 678 C151 689 140 700 129 700 L99 700 C87 700 78 689 78 678 L78 22 Z M151 132 L151 376 C151 376 204 405 268 405 C369 405 422 323 422 231 C422 141 366 56 282 56 C199 56 151 132 151 132 L151 132 Z " />
<glyph glyph-name="c" unicode="c" horiz-adv-x="500" d="M48 230 C48 91 144 -11 281 -11 C358 -11 420 31 455 82 C463 94 459 104 449 114 L443 120 C430 133 417 137 404 122 C378 92 348 56 278 56 C192 56 123 133 123 231 C123 327 193 405 281 405 C328 405 365 391 397 355 C406 345 415 335 430 348 L446 363 C457 372 459 385 450 396 C407 445 351 472 282 472 C148 472 48 366 48 230 L48 230 Z " />
<glyph glyph-name="d" unicode="d" horiz-adv-x="547" d="M49 232 C49 100 139 -11 256 -11 C343 -11 402 49 402 49 L408 19 C412 8 418 0 428 0 L446 0 C458 0 469 10 469 22 L469 678 C469 689 458 700 446 700 L418 700 C406 700 396 689 396 678 L396 443 C396 443 344 472 268 472 C129 472 49 367 49 232 L49 232 Z M124 231 C124 323 179 405 278 405 C342 405 396 379 396 379 L396 130 C396 130 348 56 265 56 C181 56 124 141 124 231 L124 231 Z " />
<glyph glyph-name="e" unicode="e" horiz-adv-x="525" d="M49 231 C49 99 133 -11 273 -11 C353 -11 414 20 442 42 C459 55 455 60 446 74 L434 91 C422 109 415 105 399 94 C373 77 335 56 274 56 C190 56 125 137 123 214 L459 214 C469 214 479 222 480 234 C481 242 482 254 482 262 C482 383 394 472 273 472 C133 472 49 361 49 231 L49 231 Z M124 273 C133 345 195 405 273 405 C352 405 406 341 408 273 L124 273 Z " />
<glyph glyph-name="f" unicode="f" horiz-adv-x="374" d="M120 22 C120 10 130 0 142 0 L172 0 C184 0 194 10 194 22 L194 398 L331 398 C343 398 353 408 353 420 L353 440 C353 453 343 462 331 462 L194 462 L194 535 C194 604 219 643 272 643 C311 643 332 629 357 611 C370 602 378 601 386 612 L405 636 C410 643 408 655 401 662 C380 682 337 710 274 710 C174 710 120 650 120 535 L120 462 L46 462 C34 462 24 453 24 440 L24 420 C24 408 34 398 46 398 L120 398 L120 22 Z " />
<glyph glyph-name="g" unicode="g" horiz-adv-x="547" d="M124 232 C124 322 181 404 273 404 C348 404 395 348 395 348 L395 95 C395 95 342 57 278 57 C190 57 124 132 124 232 L124 232 Z M469 440 C469 451 458 462 446 462 L432 462 C420 462 415 455 410 446 L403 425 C403 425 348 472 265 472 C139 472 49 363 49 231 C49 96 141 -11 268 -11 C344 -11 396 30 396 30 L396 -3 C396 -111 340 -151 267 -151 C216 -151 176 -123 151 -102 C140 -92 128 -92 121 -103 L101 -132 C96 -139 98 -152 106 -159 C130 -181 194 -219 267 -219 C372 -219 469 -161 469 -3 L469 440 Z " />
<glyph glyph-name="h" unicode="h" horiz-adv-x="539" d="M78 22 C78 10 88 0 100 0 L130 0 C141 0 152 10 152 22 L152 339 C152 339 206 405 294 405 C365 405 391 354 391 266 L391 22 C391 10 401 0 413 0 L444 0 C455 0 466 10 466 22 L466 266 C466 401 414 472 299 472 C206 472 152 413 152 413 L152 678 C152 689 141 700 130 700 L100 700 C88 700 78 689 78 678 L78 22 Z " />
<glyph glyph-name="i" unicode="i" horiz-adv-x="230" d="M113 581 C144 581 168 606 168 635 C168 667 144 691 113 691 C83 691 59 667 59 635 C59 606 83 581 113 581 L113 581 Z M78 22 C78 10 88 0 100 0 L130 0 C141 0 152 10 152 22 L152 440 C152 451 141 462 130 462 L100 462 C88 462 78 451 78 440 L78 22 Z " />
<glyph glyph-name="j" unicode="j" horiz-adv-x="230" d="M114 581 C144 581 168 606 168 635 C168 667 144 691 114 691 C83 691 59 667 59 635 C59 606 83 581 114 581 L114 581 Z M152 440 C152 453 141 462 130 462 L100 462 C88 462 78 453 78 440 L78 -57 C78 -137 51 -162 4 -179 C-7 -183 -15 -192 -10 -206 L0 -236 C3 -246 10 -250 21 -248 C97 -232 152 -175 152 -50 L152 440 Z " />
<glyph glyph-name="k" unicode="k" horiz-adv-x="484" d="M78 22 C78 10 88 0 100 0 L130 0 C141 0 152 10 152 22 L152 232 L363 9 C368 5 377 0 386 0 L443 0 C463 0 464 21 455 29 L226 257 L439 434 C447 440 448 462 428 462 L372 462 C363 462 354 457 344 448 L152 287 L152 678 C152 689 141 700 130 700 L100 700 C88 700 78 689 78 678 L78 22 Z " />
<glyph glyph-name="l" unicode="l" horiz-adv-x="240" d="M83 22 C83 10 93 0 105 0 L135 0 C146 0 157 10 157 22 L157 678 C157 689 146 700 135 700 L105 700 C93 700 83 689 83 678 L83 22 Z " />
<glyph glyph-name="m" unicode="m" horiz-adv-x="827" d="M78 22 C78 10 88 0 100 0 L130 0 C141 0 152 10 152 22 L152 341 C152 341 194 405 276 405 C351 405 380 354 380 266 L380 22 C380 10 391 0 402 0 L432 0 C444 0 454 10 454 22 L454 266 C454 290 452 322 448 342 C465 356 507 405 582 405 C652 405 680 352 680 266 L680 22 C680 10 690 0 702 0 L732 0 C744 0 754 10 754 22 L754 266 C754 385 722 472 588 472 C495 472 429 403 423 399 C393 447 356 472 287 472 C192 472 144 413 144 413 L134 448 C132 458 126 462 116 462 L100 462 C88 462 78 451 78 440 L78 22 Z " />
<glyph glyph-name="n" unicode="n" horiz-adv-x="539" d="M78 22 C78 10 88 0 100 0 L130 0 C141 0 152 10 152 22 L152 341 C152 341 207 405 294 405 C362 405 392 364 392 276 L392 22 C392 10 402 0 414 0 L444 0 C455 0 466 10 466 22 L466 266 C466 385 433 472 299 472 C203 472 144 413 144 413 L134 448 C132 458 126 462 116 462 L100 462 C88 462 78 451 78 440 L78 22 Z " />
<glyph glyph-name="o" unicode="o" horiz-adv-x="560" d="M48 232 C48 100 152 -11 280 -11 C408 -11 512 100 512 232 C512 362 408 472 280 472 C152 472 48 362 48 232 L48 232 Z M121 232 C121 326 189 405 280 405 C371 405 438 326 438 232 C438 136 371 56 280 56 C189 56 121 136 121 232 L121 232 Z " />
<glyph glyph-name="p" unicode="p" horiz-adv-x="546" d="M151 27 C151 27 202 -11 279 -11 C406 -11 497 96 497 231 C497 363 408 472 282 472 C199 472 143 425 143 425 L136 447 C131 459 128 462 117 462 L100 462 C88 462 78 451 78 440 L78 -216 C78 -228 88 -238 100 -238 L129 -238 C140 -238 151 -228 151 -216 L151 27 Z M151 96 L151 349 C151 349 199 405 273 405 C366 405 422 322 422 232 C422 131 357 56 268 56 C204 56 151 96 151 96 L151 96 Z " />
<glyph glyph-name="q" unicode="q" horiz-adv-x="547" d="M49 231 C49 96 141 -11 268 -11 C344 -11 396 30 396 30 L396 -216 C396 -228 406 -238 418 -238 L446 -238 C458 -238 469 -228 469 -216 L469 440 C469 451 458 462 446 462 L432 462 C420 462 415 455 410 446 L403 425 C403 425 348 472 265 472 C139 472 49 363 49 231 L49 231 Z M124 232 C124 322 181 404 273 404 C348 404 396 348 396 348 L396 95 C396 95 342 57 278 57 C190 57 124 132 124 232 L124 232 Z " />
<glyph glyph-name="r" unicode="r" horiz-adv-x="386" d="M78 22 C78 10 88 0 100 0 L130 0 C141 0 152 10 152 22 L152 342 C152 342 188 401 277 401 C299 401 316 393 327 388 C338 383 349 384 354 399 L367 435 C378 467 321 472 286 472 C190 472 144 413 144 413 L136 446 C133 457 125 462 116 462 L100 462 C88 462 78 451 78 440 L78 22 Z " />
<glyph glyph-name="s" unicode="s" horiz-adv-x="406" d="M207 -11 C301 -11 364 48 364 121 C364 205 295 235 215 272 C159 298 127 313 127 354 C127 376 144 405 195 405 C238 405 270 390 290 378 C300 372 315 373 322 386 L332 405 C339 418 337 428 327 436 C305 452 255 472 195 472 C88 472 52 399 52 351 C52 272 122 239 183 209 C250 176 286 158 286 114 C286 78 254 56 207 56 C148 56 108 85 92 97 C79 106 71 102 65 91 L51 65 C47 57 49 50 54 45 C78 23 130 -11 207 -11 L207 -11 Z " />
<glyph glyph-name="t" unicode="t" horiz-adv-x="379" d="M108 398 L108 117 C108 45 126 -11 214 -11 C276 -11 324 12 344 26 C356 34 358 41 352 56 L343 77 C338 88 332 97 314 86 C295 74 266 56 223 56 C197 56 182 74 182 122 L182 398 L318 398 C331 398 341 408 341 420 L341 440 C341 453 331 462 318 462 L182 462 L182 592 C182 604 173 615 161 614 L130 612 C119 611 108 602 108 590 L108 462 L47 462 C33 462 24 453 24 440 L24 420 C24 408 33 398 47 398 L108 398 Z " />
<glyph glyph-name="u" unicode="u" horiz-adv-x="526" d="M73 191 C73 69 105 -11 238 -11 C321 -11 364 31 381 49 L390 20 C393 8 398 0 411 0 L427 0 C438 0 448 10 448 22 L448 440 C448 451 438 462 427 462 L396 462 C384 462 375 451 375 440 L375 123 C354 99 313 56 244 56 C177 56 147 98 147 190 L147 440 C147 451 137 462 125 462 L95 462 C82 462 73 451 73 440 L73 191 Z " />
<glyph glyph-name="v" unicode="v" horiz-adv-x="490" d="M221 1 C223 -5 230 -11 240 -11 L246 -11 C257 -11 263 -5 265 1 L464 436 C470 450 464 462 446 462 L414 462 C406 462 399 457 396 449 L244 109 L242 109 L99 449 C96 457 89 462 78 462 L43 462 C26 462 19 450 26 436 L221 1 Z " />
<glyph glyph-name="w" unicode="w" horiz-adv-x="702" d="M351 348 L490 1 C493 -5 500 -11 510 -11 L516 -11 C525 -11 533 -6 535 1 L661 436 C666 451 661 462 645 462 L610 462 C601 462 593 457 591 449 L506 134 L504 134 L375 461 C373 467 365 472 356 472 L350 472 C339 472 332 467 330 461 L200 135 L198 135 L113 449 C111 457 103 462 92 462 L58 462 C40 462 36 451 40 436 L168 1 C171 -6 177 -11 188 -11 L194 -11 C205 -11 211 -5 213 1 L349 348 L351 348 Z " />
<glyph glyph-name="x" unicode="x" horiz-adv-x="476" d="M55 0 L93 0 C100 0 107 4 111 9 L236 184 L238 184 L364 10 C368 5 375 0 382 0 L420 0 C438 0 446 15 435 30 L284 237 L434 432 C445 447 438 462 419 462 L376 462 C368 462 362 458 358 453 L238 293 L236 293 L120 453 C117 458 110 462 102 462 L59 462 C40 462 33 447 44 432 L194 235 L40 30 C29 16 35 0 55 0 L55 0 Z " />
<glyph glyph-name="y" unicode="y" horiz-adv-x="500" d="M198 1 L109 -210 C102 -226 110 -238 128 -238 L164 -238 C172 -238 181 -231 184 -224 L473 436 C480 451 473 462 455 462 L418 462 C409 462 401 457 398 449 L242 82 L240 82 L109 449 C106 457 98 462 89 462 L47 462 C29 462 23 452 29 437 L198 1 Z " />
<glyph glyph-name="z" unicode="z" horiz-adv-x="414" d="M38 22 C38 10 48 0 60 0 L336 0 C350 0 358 10 358 22 L358 41 C358 55 350 63 336 63 L143 63 L143 66 L379 430 C382 434 383 438 383 442 C383 454 377 462 362 462 L69 462 C58 462 50 453 50 440 L50 421 C50 409 58 399 69 399 L278 399 L278 396 L44 42 C40 36 38 31 38 24 L38 22 Z " />
<glyph glyph-name="braceleft" unicode="&#x7b;" horiz-adv-x="403" d="M115 -26 C115 -208 257 -250 360 -250 C370 -250 380 -243 380 -233 L380 -213 C380 -202 375 -197 367 -196 C272 -182 184 -134 184 -26 L184 92 C184 192 134 214 105 226 L105 233 C134 245 184 267 184 367 L184 485 C184 593 272 642 367 656 C375 657 380 665 380 674 L380 693 C380 705 370 710 360 710 C257 710 115 667 115 485 L115 339 C115 294 70 265 46 261 C38 260 31 254 31 246 L31 215 C31 207 38 199 46 198 C70 194 115 165 115 120 L115 -26 Z " />
<glyph glyph-name="bar" unicode="&#x7c;" horiz-adv-x="202" d="M79 -220 C79 -230 88 -238 98 -238 L104 -238 C114 -238 123 -230 123 -220 L123 741 C123 752 115 760 105 760 L98 760 C88 760 79 752 79 741 L79 -220 Z " />
<glyph glyph-name="braceright" unicode="&#x7d;" horiz-adv-x="403" d="M219 92 L219 -26 C219 -134 131 -182 36 -196 C28 -197 23 -202 23 -213 L23 -233 C23 -243 33 -250 43 -250 C146 -250 288 -208 288 -26 L288 120 C288 165 333 194 357 198 C365 199 372 207 372 215 L372 246 C372 254 365 260 357 261 C333 265 288 294 288 339 L288 485 C288 667 146 710 43 710 C33 710 23 705 23 693 L23 674 C23 665 28 657 36 656 C131 642 219 593 219 485 L219 367 C219 267 269 245 298 233 L298 226 C269 214 219 192 219 92 L219 92 Z " />
<glyph glyph-name="asciitilde" unicode="&#x7e;" horiz-adv-x="564" d="M82 228 C91 220 102 222 109 232 C122 251 148 298 193 298 C224 298 250 275 269 262 C295 244 329 219 373 219 C454 219 508 311 508 311 C514 318 513 329 506 335 L485 352 C476 360 465 358 458 348 C445 329 419 282 373 282 C347 282 314 306 300 316 C272 336 238 361 192 361 C113 361 59 269 59 269 C53 262 54 251 61 245 C68 239 75 234 82 228 L82 228 Z " />
<glyph glyph-name="uni00A0" unicode="&#xa0;" horiz-adv-x="240" d="" />
<glyph glyph-name="exclamdown" unicode="&#xa1;" horiz-adv-x="236" d="M118 358 C149 358 175 383 175 415 C175 446 149 472 118 472 C86 472 61 446 61 415 C61 383 86 358 118 358 L118 358 Z M93 174 L74 -107 L74 -219 C74 -229 83 -238 93 -238 L143 -238 C153 -238 162 -229 162 -219 L162 -105 L143 174 C142 182 133 190 124 190 L112 190 C103 190 94 182 93 174 L93 174 Z " />
<glyph glyph-name="cent" unicode="&#xa2;" horiz-adv-x="537" d="M67 230 C67 132 118 52 194 14 L162 -106 C159 -118 165 -127 176 -131 L185 -134 C196 -138 208 -130 211 -119 L242 -4 C260 -8 280 -11 300 -11 C377 -11 439 31 474 82 C482 94 478 104 468 114 L462 120 C449 133 436 137 423 122 C397 92 367 56 297 56 C284 56 271 57 259 61 L351 397 C378 389 402 375 420 356 C429 346 434 336 453 352 L465 363 C476 372 478 385 469 396 C441 428 407 450 368 462 L380 505 C384 518 376 529 365 531 L357 533 C346 538 333 530 330 519 L317 471 C312 472 306 472 301 472 C175 472 67 366 67 230 L67 230 Z M142 231 C142 323 211 404 299 405 L213 84 C170 116 142 172 142 231 L142 231 Z " />
<glyph glyph-name="sterling" unicode="&#xa3;" horiz-adv-x="600" d="M129 19 C129 9 138 0 148 0 L466 0 C476 0 484 9 484 19 L484 45 C484 56 476 64 466 64 L216 64 C236 108 244 171 244 223 C244 251 241 276 238 294 L391 294 C402 294 410 302 410 312 L410 320 C410 330 402 339 391 339 L227 339 C224 358 194 427 194 504 C194 588 252 644 329 644 C396 644 452 586 452 586 C460 576 470 573 481 587 L502 613 C509 621 508 633 500 639 C475 661 419 710 333 710 C216 710 124 631 124 505 C124 430 151 364 156 339 L124 339 C114 339 106 330 106 320 L106 313 C106 303 114 294 124 294 L168 294 C172 270 175 245 175 218 C175 162 163 101 129 37 L129 19 Z " />
<glyph glyph-name="currency" unicode="&#xa4;" horiz-adv-x="486" d="M106 176 C113 169 126 169 133 176 L174 217 C195 204 219 197 243 197 C267 197 291 204 312 216 L354 174 C361 167 373 168 380 175 L400 195 C407 202 407 214 400 221 L359 262 C372 283 378 308 378 332 C378 356 372 381 359 402 L400 443 C407 450 407 462 400 469 L380 489 C373 496 361 497 354 490 L312 448 C291 461 267 467 244 467 C220 467 195 460 174 447 L133 488 C126 495 113 495 106 488 L86 469 C79 462 79 449 86 442 L127 401 C114 379 108 356 108 332 C108 308 114 284 127 263 L86 222 C79 215 79 202 86 195 L106 176 Z M243 260 C203 260 171 292 171 332 C171 372 203 404 243 404 C283 404 315 372 315 332 C315 292 283 260 243 260 L243 260 Z " />
<glyph glyph-name="yen" unicode="&#xa5;" horiz-adv-x="600" d="M129 123 L260 123 L260 19 C260 9 268 0 279 0 L318 0 C328 0 337 9 337 19 L337 123 L466 123 C477 123 485 131 485 141 L485 149 C485 159 477 168 466 168 L337 168 L337 243 L466 243 C477 243 485 251 485 261 L485 269 C485 279 477 288 466 288 L337 288 L337 338 L581 671 C589 684 581 700 565 700 L518 700 C511 700 505 695 502 691 L300 412 L98 691 C95 695 89 700 82 700 L35 700 C19 700 11 684 19 671 L260 337 L260 288 L129 288 C119 288 111 279 111 269 L111 262 C111 252 119 243 129 243 L260 243 L260 168 L129 168 C119 168 111 159 111 149 L111 142 C111 132 119 123 129 123 L129 123 Z " />
<glyph glyph-name="brokenbar" unicode="&#xa6;" horiz-adv-x="210" d="M102 393 L108 393 C118 393 127 401 127 411 L127 741 C127 752 119 760 109 760 L102 760 C92 760 83 752 83 741 L83 411 C83 401 92 393 102 393 L102 393 Z M83 111 L83 -220 C83 -230 92 -238 102 -238 L108 -238 C118 -238 127 -230 127 -220 L127 111 C127 122 119 130 109 130 L102 130 C92 130 83 122 83 111 L83 111 Z " />
<glyph glyph-name="section" unicode="&#xa7;" horiz-adv-x="568" d="M92 -110 L72 -135 C58 -153 70 -162 78 -169 C91 -181 171 -249 289 -249 C412 -249 505 -184 505 -80 C505 17 420 72 420 72 C420 72 505 126 505 210 C505 309 418 356 283 412 C199 446 148 487 148 543 C148 585 178 643 286 643 C347 643 410 601 417 597 C433 588 442 592 450 603 L465 626 C476 644 464 656 458 659 C458 659 385 710 287 710 C128 710 74 610 74 542 C74 449 154 398 154 398 C154 398 74 355 74 270 C74 179 143 120 250 75 C365 26 425 -20 425 -83 C425 -151 362 -182 291 -182 C203 -182 128 -113 122 -107 C111 -96 100 -100 92 -110 L92 -110 Z M148 273 C148 339 208 364 208 364 C220 358 236 351 250 345 C365 297 425 264 425 204 C425 136 360 106 360 106 C234 171 148 190 148 273 L148 273 Z " />
<glyph glyph-name="dieresis" unicode="&#xa8;" horiz-adv-x="414" d="M320 581 C349 581 372 604 372 632 C372 661 349 684 320 684 C292 684 269 661 269 632 C269 604 292 581 320 581 L320 581 Z M127 581 C156 581 179 604 179 632 C179 661 156 684 127 684 C99 684 76 661 76 632 C76 604 99 581 127 581 L127 581 Z " />
<glyph glyph-name="copyright" unicode="&#xa9;" horiz-adv-x="845" d="M63 350 C63 152 224 -9 422 -9 C620 -9 782 152 782 350 C782 548 620 710 422 710 C224 710 63 548 63 350 L63 350 Z M123 350 C123 516 257 649 422 649 C588 649 721 516 721 350 C721 185 588 51 422 51 C257 51 123 185 123 350 L123 350 Z M244 348 C244 245 328 161 431 161 C474 161 513 173 548 203 C556 211 556 223 549 231 L533 250 C525 260 515 258 504 251 C483 237 458 229 433 229 C364 229 314 282 314 351 C314 417 364 473 433 473 C458 473 483 466 507 450 C515 445 526 440 534 451 L548 469 C556 478 555 490 546 498 C513 524 471 536 431 536 C328 536 244 453 244 348 L244 348 Z " />
<glyph glyph-name="ordfeminine" unicode="&#xaa;" horiz-adv-x="340" d="M138 404 C184 404 209 428 225 443 L231 422 C233 416 235 412 243 412 L261 412 C268 412 274 418 274 426 L274 578 C274 643 278 710 184 710 C123 710 85 693 81 690 C75 687 72 683 74 675 L79 657 C81 650 87 644 94 646 C108 651 139 664 180 664 C220 664 225 641 225 587 C225 587 196 597 165 597 C90 597 49 556 49 501 C49 442 87 404 138 404 L138 404 Z M144 451 C115 451 94 473 94 502 C94 535 124 558 162 558 C192 558 213 550 223 545 L223 489 C210 473 178 451 144 451 L144 451 Z " />
<glyph glyph-name="guillemotleft" unicode="&#xab;" horiz-adv-x="433" d="M215 224 L319 69 C322 65 327 61 334 61 L353 61 C370 61 376 75 368 91 L297 238 L371 377 C379 393 373 408 356 408 L342 408 C334 408 327 401 324 396 L215 248 C211 242 209 232 215 224 L215 224 Z M156 69 C159 65 164 61 171 61 L190 61 C207 61 213 75 205 91 L134 238 L208 377 C216 393 210 408 193 408 L179 408 C171 408 164 401 161 396 L52 248 C48 242 46 232 52 224 L156 69 Z " />
<glyph glyph-name="logicalnot" unicode="&#xac;" horiz-adv-x="590" d="M101 314 L434 314 L434 157 C434 147 443 139 453 139 L481 139 C491 139 500 147 500 157 L500 361 C500 370 492 380 481 380 L101 380 C91 380 82 371 82 361 L82 333 C82 323 91 314 101 314 L101 314 Z " />
<glyph glyph-name="uni00AD" unicode="&#xad;" horiz-adv-x="383" d="M87 220 L296 220 C307 220 315 228 315 238 L315 257 C315 268 307 276 296 276 L87 276 C76 276 68 268 68 257 L68 238 C68 228 76 220 87 220 L87 220 Z " />
<glyph glyph-name="registered" unicode="&#xae;" horiz-adv-x="845" d="M63 350 C63 152 224 -9 422 -9 C620 -9 782 152 782 350 C782 548 620 710 422 710 C224 710 63 548 63 350 L63 350 Z M123 350 C123 516 257 649 422 649 C588 649 721 516 721 350 C721 185 588 51 422 51 C257 51 123 185 123 350 L123 350 Z M297 187 C297 177 305 168 316 168 L342 168 C353 168 361 177 361 187 L361 307 L435 307 L491 182 C494 176 501 168 509 168 L543 168 C557 168 567 183 560 195 C540 234 520 274 500 313 C528 320 581 347 581 422 C581 497 520 534 458 534 L316 534 C305 534 297 525 297 515 L297 187 Z M361 365 L361 479 L458 479 C495 479 518 456 518 422 C518 391 495 365 458 365 L361 365 Z " />
<glyph glyph-name="macron" unicode="&#xaf;" horiz-adv-x="414" d="M79 583 L335 583 C346 583 354 591 354 601 L354 622 C354 633 346 641 335 641 L79 641 C68 641 60 633 60 622 L60 601 C60 591 68 583 79 583 L79 583 Z " />
<glyph glyph-name="degree" unicode="&#xb0;" horiz-adv-x="364" d="M182 440 C256 440 317 500 317 575 C317 650 256 710 182 710 C107 710 47 650 47 575 C47 500 107 440 182 440 L182 440 Z M182 493 C139 493 100 532 100 575 C100 616 139 655 182 655 C223 655 262 616 262 575 C262 532 223 493 182 493 L182 493 Z " />
<glyph glyph-name="plusminus" unicode="&#xb1;" horiz-adv-x="600" d="M267 267 C267 257 276 249 286 249 L314 249 C324 249 333 257 333 267 L333 384 L491 384 C501 384 509 393 509 403 L509 431 C509 441 501 450 491 450 L333 450 L333 598 C333 608 324 616 314 616 L286 616 C276 616 267 608 267 598 L267 450 L110 450 C100 450 91 441 91 431 L91 403 C91 393 100 384 110 384 L267 384 L267 267 Z M90 80 C90 70 99 61 109 61 L490 61 C500 61 508 70 508 80 L508 108 C508 118 500 127 490 127 L109 127 C99 127 90 118 90 108 L90 80 Z " />
<glyph glyph-name="twosuperior" unicode="&#xb2;" horiz-adv-x="286" d="M43 504 L237 504 C245 504 246 509 246 513 L246 538 C246 544 243 548 237 548 L116 548 L197 631 C226 661 246 689 246 721 C246 770 210 810 138 810 C79 810 41 765 41 765 C37 762 38 757 41 754 L61 733 C63 731 68 728 73 733 C89 749 113 763 135 763 C176 763 192 737 192 716 C192 698 180 682 160 660 L33 527 L33 513 C33 506 38 504 43 504 L43 504 Z " />
<glyph glyph-name="threesuperior" unicode="&#xb3;" horiz-adv-x="289" d="M137 494 C206 494 251 531 251 580 C251 619 220 646 196 655 L196 657 C219 666 242 693 242 727 C242 778 195 810 137 810 C82 810 44 770 44 770 C40 767 40 761 44 758 L64 740 C69 736 74 737 77 740 C87 750 104 764 133 764 C161 764 187 746 187 719 C187 695 167 675 122 675 L91 675 C85 675 81 672 81 666 L81 641 C81 635 86 632 91 632 L122 632 C173 632 195 609 195 584 C195 557 166 539 135 539 C101 539 72 563 69 565 C65 569 61 569 56 566 L35 546 C31 543 31 538 34 535 C45 523 75 494 137 494 L137 494 Z " />
<glyph glyph-name="acute" unicode="&#xb4;" horiz-adv-x="302" d="M83 561 C87 553 92 553 106 559 L267 626 C275 629 277 639 273 647 L255 683 C250 692 235 690 229 686 L79 602 C73 599 69 591 73 583 L83 561 Z " />
<glyph glyph-name="mu" unicode="&#xb5;" horiz-adv-x="531" d="M90 -216 C90 -228 100 -238 112 -238 L142 -238 C153 -238 164 -228 164 -216 L164 9 C187 -4 217 -11 255 -11 C351 -11 398 49 398 49 L407 20 C410 8 415 0 428 0 L444 0 C455 0 465 10 465 22 L465 440 C465 451 455 462 444 462 L413 462 C401 462 392 451 392 440 L392 123 C392 123 349 56 261 56 C194 56 164 104 164 196 L164 440 C164 451 154 462 142 462 L112 462 C99 462 90 451 90 440 L90 -216 Z " />
<glyph glyph-name="paragraph" unicode="&#xb6;" horiz-adv-x="739" d="M251 282 L295 282 L295 -219 C295 -229 304 -238 314 -238 L334 -238 C344 -238 353 -229 353 -219 L353 642 L509 642 L509 -219 C509 -229 518 -238 528 -238 L549 -238 C560 -238 568 -229 568 -219 L568 642 L679 642 C689 642 698 650 698 661 L698 681 C698 691 689 700 679 700 L237 700 C128 700 43 606 43 492 C43 374 138 282 251 282 L251 282 Z " />
<glyph glyph-name="periodcentered" unicode="&#xb7;" horiz-adv-x="240" d="M120 204 C152 204 177 230 177 261 C177 293 152 318 120 318 C89 318 63 293 63 261 C63 230 89 204 120 204 L120 204 Z " />
<glyph glyph-name="cedilla" unicode="&#xb8;" horiz-adv-x="247" d="M114 3 L65 -98 C62 -105 70 -114 77 -111 C87 -106 103 -101 121 -101 C152 -101 174 -115 174 -146 C174 -173 152 -191 118 -191 C95 -191 78 -181 68 -171 C59 -165 52 -166 47 -176 L39 -191 C35 -199 33 -206 39 -212 C56 -228 84 -240 121 -240 C180 -240 230 -203 230 -146 C230 -86 188 -63 146 -63 C136 -63 127 -65 121 -67 L166 3 L114 3 Z " />
<glyph glyph-name="onesuperior" unicode="&#xb9;" horiz-adv-x="184" d="M91 504 L126 504 C131 504 135 508 135 513 L135 791 C135 796 132 800 126 800 L98 800 L28 744 C24 740 24 738 25 733 L30 716 C31 712 35 711 40 712 L81 723 L81 513 C81 508 85 504 91 504 L91 504 Z " />
<glyph glyph-name="ordmasculine" unicode="&#xba;" horiz-adv-x="352" d="M176 394 C255 394 300 453 300 551 C300 650 255 709 176 709 C97 709 52 650 52 551 C52 453 97 394 176 394 L176 394 Z M176 442 C132 442 107 481 107 551 C107 621 132 661 176 661 C220 661 245 621 245 551 C245 481 220 442 176 442 L176 442 Z " />
<glyph glyph-name="guillemotright" unicode="&#xbb;" horiz-adv-x="433" d="M227 91 C219 75 225 61 242 61 L261 61 C268 61 273 65 276 69 L380 224 C386 232 384 242 380 248 L271 396 C268 401 261 408 253 408 L239 408 C222 408 216 393 224 377 L298 238 L227 91 Z M79 61 L98 61 C105 61 110 65 113 69 L217 224 C223 232 221 242 217 248 L108 396 C105 401 98 408 90 408 L76 408 C59 408 53 393 61 377 L135 238 L64 91 C56 75 62 61 79 61 L79 61 Z " />
<glyph glyph-name="onequarter" unicode="&#xbc;" horiz-adv-x="634" d="M99 27 C92 14 101 0 116 0 L130 0 C139 0 145 6 147 10 L492 673 C499 686 490 700 475 700 L459 700 C451 700 446 697 442 690 L99 27 Z M113 404 L148 404 C153 404 157 408 157 413 L157 691 C157 696 154 700 148 700 L120 700 L50 644 C46 640 46 638 47 633 L52 616 C53 612 57 611 62 612 L103 623 L103 413 C103 408 107 404 113 404 L113 404 Z M326 68 C326 63 330 59 335 59 L485 59 L485 9 C485 4 490 0 495 0 L527 0 C532 0 537 4 537 9 L537 60 L578 60 C583 60 587 64 587 68 L587 94 C587 98 583 102 578 102 L537 102 L537 287 C537 292 532 296 527 296 L503 296 C501 296 497 295 495 293 L326 100 L326 68 Z M381 103 L487 221 L487 103 L381 103 Z " />
<glyph glyph-name="onehalf" unicode="&#xbd;" horiz-adv-x="624" d="M99 27 C92 14 101 0 116 0 L130 0 C139 0 145 6 147 10 L492 673 C499 686 490 700 475 700 L459 700 C451 700 446 697 442 690 L99 27 Z M113 404 L148 404 C153 404 157 408 157 413 L157 691 C157 696 154 700 148 700 L120 700 L50 644 C46 640 46 638 47 633 L52 616 C53 612 57 611 62 612 L103 623 L103 413 C103 408 107 404 113 404 L113 404 Z M356 9 C356 2 361 0 366 0 L560 0 C568 0 569 5 569 9 L569 34 C569 40 566 44 560 44 C520 44 479 44 439 44 L520 127 C549 157 569 185 569 217 C569 266 533 306 461 306 C402 306 364 261 364 261 C360 258 361 253 364 250 L384 229 C386 227 391 224 396 229 C412 245 436 259 458 259 C499 259 515 233 515 212 C515 194 503 178 483 156 L356 23 L356 9 Z " />
<glyph glyph-name="threequarters" unicode="&#xbe;" horiz-adv-x="678" d="M156 394 C225 394 270 431 270 480 C270 519 237 545 213 554 L213 556 C236 565 261 593 261 627 C261 678 214 710 156 710 C101 710 63 670 63 670 C59 667 59 661 63 658 L83 640 C88 636 93 637 96 640 C106 650 123 664 152 664 C180 664 206 646 206 619 C206 595 186 575 141 575 L110 575 C104 575 100 572 100 566 L100 541 C100 535 105 532 110 532 L141 532 C192 532 214 509 214 484 C214 457 185 439 154 439 C120 439 91 463 88 465 C84 469 80 469 75 466 L54 446 C50 443 50 438 53 435 C64 423 94 394 156 394 L156 394 Z M143 27 C136 14 145 0 160 0 L174 0 C183 0 189 6 191 10 L536 673 C543 686 534 700 519 700 L503 700 C495 700 490 697 486 690 L143 27 Z M370 68 C370 63 374 59 379 59 L529 59 L529 9 C529 4 534 0 539 0 L571 0 C576 0 581 4 581 9 L581 60 L622 60 C627 60 631 64 631 68 L631 94 C631 98 627 102 622 102 L581 102 L581 287 C581 292 576 296 571 296 L547 296 C545 296 541 295 539 293 L370 100 L370 68 Z M425 103 L531 221 L531 103 L425 103 Z " />
<glyph glyph-name="questiondown" unicode="&#xbf;" horiz-adv-x="456" d="M250 358 C281 358 307 383 307 415 C307 446 281 472 250 472 C218 472 193 446 193 415 C193 383 218 358 250 358 L250 358 Z M214 128 C214 46 56 35 56 -96 C56 -188 126 -249 230 -249 C356 -249 413 -161 413 -161 C419 -153 421 -142 413 -135 L394 -118 C385 -110 377 -110 368 -119 C348 -140 311 -187 230 -187 C165 -187 131 -146 131 -99 C131 14 281 4 281 128 L281 170 C281 181 272 189 262 189 L235 189 C225 189 214 183 214 169 L214 128 Z " />
<glyph glyph-name="Agrave" unicode="&#xc0;" horiz-adv-x="665" d="M24 0 L64 0 C73 0 79 6 81 11 L154 176 L509 176 L583 11 C585 6 591 0 600 0 L640 0 C655 0 663 13 657 26 L355 699 C352 705 347 710 338 710 L328 710 C319 710 314 705 311 699 L7 26 C1 13 9 0 24 0 L24 0 Z M182 238 L328 566 L336 566 C385 457 433 347 482 238 L182 238 Z M400 781 C414 775 419 775 423 783 L433 805 C437 813 433 821 427 824 L277 908 C271 912 256 914 251 905 L233 869 C229 861 231 851 239 848 L400 781 Z " />
<glyph glyph-name="Aacute" unicode="&#xc1;" horiz-adv-x="665" d="M24 0 L64 0 C73 0 79 6 81 11 L154 176 L509 176 L583 11 C585 6 591 0 600 0 L640 0 C655 0 663 13 657 26 L355 699 C352 705 347 710 338 710 L328 710 C319 710 314 705 311 699 L7 26 C1 13 9 0 24 0 L24 0 Z M182 238 L328 566 L336 566 C385 457 433 347 482 238 L182 238 Z M242 783 C246 775 251 775 265 781 L426 848 C434 851 436 861 432 869 L414 905 C409 914 394 912 388 908 L238 824 C232 821 228 813 232 805 L242 783 Z " />
<glyph glyph-name="Acircumflex" unicode="&#xc2;" horiz-adv-x="665" d="M24 0 L64 0 C73 0 79 6 81 11 L154 176 L509 176 L583 11 C585 6 591 0 600 0 L640 0 C655 0 663 13 657 26 L355 699 C352 705 347 710 338 710 L328 710 C319 710 314 705 311 699 L7 26 C1 13 9 0 24 0 L24 0 Z M182 238 L328 566 L336 566 C385 457 433 347 482 238 L182 238 Z M208 775 C213 768 219 765 231 773 L333 841 L435 771 C455 757 463 781 472 793 C477 800 472 808 466 812 L346 906 C342 909 339 910 333 910 C329 910 324 909 320 906 L200 812 C194 808 189 800 194 793 L208 775 Z " />
<glyph glyph-name="Atilde" unicode="&#xc3;" horiz-adv-x="665" d="M24 0 L64 0 C73 0 79 6 81 11 L154 176 L509 176 L583 11 C585 6 591 0 600 0 L640 0 C655 0 663 13 657 26 L355 699 C352 705 347 710 338 710 L328 710 C319 710 314 705 311 699 L7 26 C1 13 9 0 24 0 L24 0 Z M182 238 L328 566 L336 566 C385 457 433 347 482 238 L182 238 Z M208 795 C221 788 230 795 233 805 C240 826 250 855 277 855 C305 855 332 780 387 780 C442 780 466 832 476 861 C478 868 484 881 472 887 L456 895 C445 900 436 897 433 887 C428 870 416 836 388 836 C357 836 338 910 278 910 C212 910 195 844 186 826 C183 819 182 808 190 804 L208 795 Z " />
<glyph glyph-name="Adieresis" unicode="&#xc4;" horiz-adv-x="665" d="M24 0 L64 0 C73 0 79 6 81 11 L154 176 L509 176 L583 11 C585 6 591 0 600 0 L640 0 C655 0 663 13 657 26 L355 699 C352 705 347 710 338 710 L328 710 C319 710 314 705 311 699 L7 26 C1 13 9 0 24 0 L24 0 Z M182 238 L328 566 L336 566 C385 457 433 347 482 238 L182 238 Z M437 788 C466 788 489 811 489 839 C489 868 466 891 437 891 C409 891 386 868 386 839 C386 811 409 788 437 788 L437 788 Z M226 788 C255 788 278 811 278 839 C278 868 255 891 226 891 C198 891 175 868 175 839 C175 811 198 788 226 788 L226 788 Z " />
<glyph glyph-name="Aring" unicode="&#xc5;" horiz-adv-x="665" d="M24 0 L64 0 C73 0 79 6 81 11 L154 176 L509 176 L583 11 C585 6 591 0 600 0 L640 0 C655 0 663 13 657 26 L355 699 C352 705 347 710 338 710 L328 710 C319 710 314 705 311 699 L7 26 C1 13 9 0 24 0 L24 0 Z M182 238 L328 566 L336 566 C385 457 433 347 482 238 L182 238 Z M332 758 C392 758 441 806 441 867 C441 928 392 976 332 976 C271 976 223 928 223 867 C223 806 271 758 332 758 L332 758 Z M332 806 C300 806 271 835 271 867 C271 899 300 926 332 926 C364 926 391 899 391 867 C391 835 364 806 332 806 L332 806 Z " />
<glyph glyph-name="AE" unicode="&#xc6;" horiz-adv-x="889" d="M8 0 L49 0 C56 0 64 6 68 11 L172 176 L409 176 L409 19 C409 9 417 0 428 0 L822 0 C833 0 841 9 841 19 L841 48 C841 58 833 67 822 67 L480 67 L480 322 L773 322 C783 322 792 330 792 341 L792 370 C792 380 783 389 773 389 L480 389 L480 633 L822 633 C833 633 841 642 841 652 L841 681 C841 691 833 700 822 700 L444 700 C418 700 410 689 397 669 L-4 26 C-12 13 -7 0 8 0 L8 0 Z M208 238 L409 566 L409 238 L208 238 Z " />
<glyph glyph-name="Ccedilla" unicode="&#xc7;" horiz-adv-x="706" d="M52 349 C52 162 192 11 373 -8 L326 -106 C323 -113 331 -122 338 -119 C348 -114 368 -109 386 -109 C417 -109 439 -119 439 -150 C439 -177 417 -191 383 -191 C360 -191 343 -181 333 -171 C324 -165 317 -166 312 -176 L304 -191 C300 -199 298 -206 304 -212 C321 -228 349 -240 386 -240 C445 -240 498 -203 498 -146 C498 -86 453 -63 411 -63 C401 -63 392 -65 386 -67 L422 -10 C508 -8 590 23 656 87 C663 94 665 108 657 114 L627 141 C621 145 613 146 603 138 C550 98 499 63 412 63 C254 63 133 196 133 350 C133 505 254 638 412 638 C480 638 551 608 603 563 C613 553 621 552 629 562 L656 589 C664 597 663 609 655 617 C587 675 514 710 413 710 C213 710 52 549 52 349 L52 349 Z " />
<glyph glyph-name="Egrave" unicode="&#xc8;" horiz-adv-x="576" d="M96 19 C96 9 104 0 115 0 L509 0 C520 0 528 9 528 19 L528 48 C528 58 520 67 509 67 L173 67 L173 322 L460 322 C470 322 479 330 479 341 L479 370 C479 380 470 389 460 389 L173 389 L173 633 L509 633 C520 633 528 642 528 652 L528 681 C528 691 520 700 509 700 L115 700 C104 700 96 691 96 681 L96 19 Z M388 781 C402 775 407 775 411 783 L421 805 C425 813 421 821 415 824 L265 908 C259 912 244 914 239 905 L221 869 C217 861 219 851 227 848 L388 781 Z " />
<glyph glyph-name="Eacute" unicode="&#xc9;" horiz-adv-x="576" d="M96 19 C96 9 104 0 115 0 L509 0 C520 0 528 9 528 19 L528 48 C528 58 520 67 509 67 L173 67 L173 322 L460 322 C470 322 479 330 479 341 L479 370 C479 380 470 389 460 389 L173 389 L173 633 L509 633 C520 633 528 642 528 652 L528 681 C528 691 520 700 509 700 L115 700 C104 700 96 691 96 681 L96 19 Z M231 783 C235 775 240 775 254 781 L415 848 C423 851 425 861 421 869 L403 905 C398 914 383 912 377 908 L227 824 C221 821 217 813 221 805 L231 783 Z " />
<glyph glyph-name="Ecircumflex" unicode="&#xca;" horiz-adv-x="576" d="M96 19 C96 9 104 0 115 0 L509 0 C520 0 528 9 528 19 L528 48 C528 58 520 67 509 67 L173 67 L173 322 L460 322 C470 322 479 330 479 341 L479 370 C479 380 470 389 460 389 L173 389 L173 633 L509 633 C520 633 528 642 528 652 L528 681 C528 691 520 700 509 700 L115 700 C104 700 96 691 96 681 L96 19 Z M186 775 C191 768 197 765 209 773 L311 841 L413 771 C433 757 441 781 450 793 C455 800 450 808 444 812 L324 906 C320 909 317 910 311 910 C307 910 302 909 298 906 L178 812 C172 808 167 800 172 793 L186 775 Z " />
<glyph glyph-name="Edieresis" unicode="&#xcb;" horiz-adv-x="576" d="M96 19 C96 9 104 0 115 0 L509 0 C520 0 528 9 528 19 L528 48 C528 58 520 67 509 67 L173 67 L173 322 L460 322 C470 322 479 330 479 341 L479 370 C479 380 470 389 460 389 L173 389 L173 633 L509 633 C520 633 528 642 528 652 L528 681 C528 691 520 700 509 700 L115 700 C104 700 96 691 96 681 L96 19 Z M417 788 C446 788 469 811 469 839 C469 868 446 891 417 891 C389 891 366 868 366 839 C366 811 389 788 417 788 L417 788 Z M206 788 C235 788 258 811 258 839 C258 868 235 891 206 891 C178 891 155 868 155 839 C155 811 178 788 206 788 L206 788 Z " />
<glyph glyph-name="Igrave" unicode="&#xcc;" horiz-adv-x="270" d="M96 19 C96 9 105 0 115 0 L155 0 C165 0 174 9 174 19 L174 681 C174 691 165 700 155 700 L115 700 C105 700 96 691 96 681 L96 19 Z M202 781 C216 775 221 775 225 783 L235 805 C239 813 235 821 229 824 L79 908 C73 912 58 914 53 905 L35 869 C31 861 33 851 41 848 L202 781 Z " />
<glyph glyph-name="Iacute" unicode="&#xcd;" horiz-adv-x="270" d="M96 19 C96 9 105 0 115 0 L155 0 C165 0 174 9 174 19 L174 681 C174 691 165 700 155 700 L115 700 C105 700 96 691 96 681 L96 19 Z M45 783 C49 775 54 775 68 781 L229 848 C237 851 239 861 235 869 L217 905 C212 914 197 912 191 908 L41 824 C35 821 31 813 35 805 L45 783 Z " />
<glyph glyph-name="Icircumflex" unicode="&#xce;" horiz-adv-x="270" d="M96 19 C96 9 105 0 115 0 L155 0 C165 0 174 9 174 19 L174 681 C174 691 165 700 155 700 L115 700 C105 700 96 691 96 681 L96 19 Z M10 775 C15 768 21 765 33 773 L135 841 L237 771 C257 757 265 781 274 793 C279 800 274 808 268 812 L148 906 C144 909 141 910 135 910 C131 910 126 909 122 906 L2 812 C-4 808 -9 800 -4 793 L10 775 Z " />
<glyph glyph-name="Idieresis" unicode="&#xcf;" horiz-adv-x="270" d="M96 19 C96 9 105 0 115 0 L155 0 C165 0 174 9 174 19 L174 681 C174 691 165 700 155 700 L115 700 C105 700 96 691 96 681 L96 19 Z M241 788 C270 788 293 811 293 839 C293 868 270 891 241 891 C213 891 190 868 190 839 C190 811 213 788 241 788 L241 788 Z M30 788 C59 788 82 811 82 839 C82 868 59 891 30 891 C2 891 -21 868 -21 839 C-21 811 2 788 30 788 L30 788 Z " />
<glyph glyph-name="Eth" unicode="&#xd0;" horiz-adv-x="742" d="M96 19 C96 9 104 0 114 0 L338 0 C531 0 689 157 689 351 C689 543 531 700 338 700 L114 700 C104 700 96 691 96 681 L96 369 L67 369 C57 369 49 360 49 350 L49 343 C49 333 57 324 67 324 L96 324 L96 19 Z M172 69 L172 324 L383 324 C394 324 402 332 402 342 L402 350 C402 360 394 369 383 369 L172 369 L172 632 L322 632 C486 632 605 515 605 351 C605 186 486 69 322 69 L172 69 Z " />
<glyph glyph-name="Ntilde" unicode="&#xd1;" horiz-adv-x="762" d="M96 19 C96 9 105 0 115 0 L150 0 C161 0 169 9 169 19 L169 563 C169 563 170 563 170 563 L623 -2 C627 -8 632 -10 639 -10 L647 -10 C657 -10 666 -2 666 8 L666 681 C666 691 657 700 647 700 L612 700 C601 700 593 691 593 681 L593 148 C592 148 592 148 591 148 L146 702 C142 708 137 710 130 710 L115 710 C105 710 96 702 96 692 L96 19 Z M268 795 C281 788 290 795 293 805 C300 826 310 855 337 855 C365 855 392 780 447 780 C502 780 526 832 536 861 C538 868 544 881 532 887 L516 895 C505 900 496 897 493 887 C488 870 476 836 448 836 C417 836 398 910 338 910 C272 910 255 844 246 826 C243 819 242 808 250 804 L268 795 Z " />
<glyph glyph-name="Ograve" unicode="&#xd2;" horiz-adv-x="823" d="M52 349 C52 149 211 -10 411 -10 C611 -10 771 149 771 349 C771 549 611 710 411 710 C211 710 52 549 52 349 L52 349 Z M122 349 C122 508 252 640 411 640 C570 640 701 508 701 349 C701 190 570 60 411 60 C252 60 122 190 122 349 L122 349 Z M488 781 C502 775 507 775 511 783 L521 805 C525 813 521 821 515 824 L365 908 C359 912 344 914 339 905 L321 869 C317 861 319 851 327 848 L488 781 Z " />
<glyph glyph-name="Oacute" unicode="&#xd3;" horiz-adv-x="823" d="M52 349 C52 149 211 -10 411 -10 C611 -10 771 149 771 349 C771 549 611 710 411 710 C211 710 52 549 52 349 L52 349 Z M122 349 C122 508 252 640 411 640 C570 640 701 508 701 349 C701 190 570 60 411 60 C252 60 122 190 122 349 L122 349 Z M331 783 C335 775 340 775 354 781 L515 848 C523 851 525 861 521 869 L503 905 C498 914 483 912 477 908 L327 824 C321 821 317 813 321 805 L331 783 Z " />
<glyph glyph-name="Ocircumflex" unicode="&#xd4;" horiz-adv-x="823" d="M52 349 C52 149 211 -10 411 -10 C611 -10 771 149 771 349 C771 549 611 710 411 710 C211 710 52 549 52 349 L52 349 Z M122 349 C122 508 252 640 411 640 C570 640 701 508 701 349 C701 190 570 60 411 60 C252 60 122 190 122 349 L122 349 Z M286 775 C291 768 297 765 309 773 L411 841 L513 771 C533 757 541 781 550 793 C555 800 550 808 544 812 L424 906 C420 909 417 910 411 910 C407 910 402 909 398 906 L278 812 C272 808 267 800 272 793 L286 775 Z " />
<glyph glyph-name="Otilde" unicode="&#xd5;" horiz-adv-x="823" d="M52 349 C52 149 211 -10 411 -10 C611 -10 771 149 771 349 C771 549 611 710 411 710 C211 710 52 549 52 349 L52 349 Z M122 349 C122 508 252 640 411 640 C570 640 701 508 701 349 C701 190 570 60 411 60 C252 60 122 190 122 349 L122 349 Z M286 795 C299 788 308 795 311 805 C318 826 328 855 355 855 C383 855 410 780 465 780 C520 780 544 832 554 861 C556 868 562 881 550 887 L534 895 C523 900 514 897 511 887 C506 870 494 836 466 836 C435 836 416 910 356 910 C290 910 273 844 264 826 C261 819 260 808 268 804 L286 795 Z " />
<glyph glyph-name="Odieresis" unicode="&#xd6;" horiz-adv-x="823" d="M52 349 C52 149 211 -10 411 -10 C611 -10 771 149 771 349 C771 549 611 710 411 710 C211 710 52 549 52 349 L52 349 Z M122 349 C122 508 252 640 411 640 C570 640 701 508 701 349 C701 190 570 60 411 60 C252 60 122 190 122 349 L122 349 Z M517 788 C546 788 569 811 569 839 C569 868 546 891 517 891 C489 891 466 868 466 839 C466 811 489 788 517 788 L517 788 Z M306 788 C335 788 358 811 358 839 C358 868 335 891 306 891 C278 891 255 868 255 839 C255 811 278 788 306 788 L306 788 Z " />
<glyph glyph-name="multiply" unicode="&#xd7;" horiz-adv-x="600" d="M162 190 C169 183 181 183 188 190 L299 301 L411 189 C418 182 430 183 437 190 L457 209 C464 216 465 228 458 236 L346 347 L458 459 C465 466 464 478 457 485 L437 505 C430 512 418 513 411 506 L299 394 L188 505 C181 512 168 512 161 505 L142 485 C135 478 135 465 142 458 L253 347 L142 236 C135 229 135 217 142 210 L162 190 Z " />
<glyph glyph-name="Oslash" unicode="&#xd8;" horiz-adv-x="823" d="M82 22 L86 18 C93 11 105 10 112 17 L173 78 C236 23 319 -10 411 -10 C611 -10 771 149 771 349 C771 440 737 524 682 588 L745 651 C752 658 752 670 745 677 L740 682 C733 689 721 689 714 682 L651 619 C587 675 503 710 411 710 C211 710 52 549 52 349 C52 256 86 173 142 109 L81 48 C74 41 75 29 82 22 L82 22 Z M193 160 C149 211 122 277 122 349 C122 508 252 640 411 640 C483 640 550 613 601 569 L193 160 Z M224 129 L631 537 C675 487 701 420 701 349 C701 190 570 60 411 60 C340 60 274 86 224 129 L224 129 Z " />
<glyph glyph-name="Ugrave" unicode="&#xd9;" horiz-adv-x="708" d="M89 254 C89 102 196 -10 353 -10 C511 -10 619 102 619 254 L619 681 C619 691 610 700 600 700 L562 700 C551 700 543 691 543 681 L543 258 C543 144 471 61 353 61 C236 61 165 146 165 260 L165 681 C165 691 157 700 146 700 L108 700 C98 700 89 691 89 681 L89 254 Z M419 781 C433 775 438 775 442 783 L452 805 C456 813 452 821 446 824 L296 908 C290 912 275 914 270 905 L252 869 C248 861 250 851 258 848 L419 781 Z " />
<glyph glyph-name="Uacute" unicode="&#xda;" horiz-adv-x="708" d="M89 254 C89 102 196 -10 353 -10 C511 -10 619 102 619 254 L619 681 C619 691 610 700 600 700 L562 700 C551 700 543 691 543 681 L543 258 C543 144 471 61 353 61 C236 61 165 146 165 260 L165 681 C165 691 157 700 146 700 L108 700 C98 700 89 691 89 681 L89 254 Z M262 783 C266 775 271 775 285 781 L446 848 C454 851 456 861 452 869 L434 905 C429 914 414 912 408 908 L258 824 C252 821 248 813 252 805 L262 783 Z " />
<glyph glyph-name="Ucircumflex" unicode="&#xdb;" horiz-adv-x="708" d="M89 254 C89 102 196 -10 353 -10 C511 -10 619 102 619 254 L619 681 C619 691 610 700 600 700 L562 700 C551 700 543 691 543 681 L543 258 C543 144 471 61 353 61 C236 61 165 146 165 260 L165 681 C165 691 157 700 146 700 L108 700 C98 700 89 691 89 681 L89 254 Z M224 775 C229 768 235 765 247 773 L349 841 L451 771 C471 757 479 781 488 793 C493 800 488 808 482 812 L362 906 C358 909 355 910 349 910 C345 910 340 909 336 906 L216 812 C210 808 205 800 210 793 L224 775 Z " />
<glyph glyph-name="Udieresis" unicode="&#xdc;" horiz-adv-x="708" d="M89 254 C89 102 196 -10 353 -10 C511 -10 619 102 619 254 L619 681 C619 691 610 700 600 700 L562 700 C551 700 543 691 543 681 L543 258 C543 144 471 61 353 61 C236 61 165 146 165 260 L165 681 C165 691 157 700 146 700 L108 700 C98 700 89 691 89 681 L89 254 Z M458 788 C487 788 510 811 510 839 C510 868 487 891 458 891 C430 891 407 868 407 839 C407 811 430 788 458 788 L458 788 Z M247 788 C276 788 299 811 299 839 C299 868 276 891 247 891 C219 891 196 868 196 839 C196 811 219 788 247 788 L247 788 Z " />
<glyph glyph-name="Yacute" unicode="&#xdd;" horiz-adv-x="574" d="M248 19 C248 9 256 0 267 0 L306 0 C316 0 325 9 325 19 L325 338 L569 671 C577 684 569 700 553 700 L506 700 C499 700 493 695 490 691 L288 412 L86 691 C83 695 77 700 70 700 L23 700 C7 700 -1 684 7 671 L248 337 L248 19 Z M198 783 C202 775 207 775 221 781 L382 848 C390 851 392 861 388 869 L370 905 C365 914 350 912 344 908 L194 824 C188 821 184 813 188 805 L198 783 Z " />
<glyph glyph-name="Thorn" unicode="&#xde;" horiz-adv-x="593" d="M96 19 C96 9 104 0 115 0 L153 0 C163 0 172 9 172 19 L172 128 L337 128 C459 128 560 229 560 353 C560 474 459 574 336 574 L172 574 L172 681 C172 691 163 700 153 700 L115 700 C104 700 96 690 96 680 L96 19 Z M172 202 L172 498 L331 498 C413 498 483 436 483 355 C483 269 413 202 331 202 L172 202 Z " />
<glyph glyph-name="germandbls" unicode="&#xdf;" horiz-adv-x="579" d="M78 21 C78 10 88 0 99 0 L131 0 C142 0 152 10 152 21 L152 421 C152 564 190 643 291 643 C352 643 398 600 398 540 C398 464 318 409 318 354 C318 270 458 244 458 147 C458 94 423 56 368 56 C329 56 304 66 285 75 C272 81 265 76 261 62 L252 29 C248 14 259 9 269 4 C284 -3 318 -11 368 -11 C460 -11 533 44 533 146 C533 282 402 322 402 357 C402 394 472 442 472 544 C472 647 395 710 292 710 C143 710 78 603 78 422 L78 21 Z " />
<glyph glyph-name="agrave" unicode="&#xe0;" horiz-adv-x="471" d="M42 140 C42 47 104 -11 185 -11 C256 -11 304 24 328 48 L337 17 C340 7 344 0 356 0 L375 0 C387 0 397 10 397 22 L397 278 C397 414 372 472 254 472 C178 472 118 452 95 442 C84 437 77 431 81 417 L91 390 C95 379 101 373 113 378 C134 385 187 405 250 405 C316 405 327 363 326 278 C326 278 276 293 227 293 C108 293 42 228 42 140 L42 140 Z M115 140 C115 199 163 230 227 230 C273 230 310 220 325 212 L325 118 C305 88 255 56 198 56 C147 56 115 93 115 140 L115 140 Z M304 559 C318 553 323 553 327 561 L337 583 C341 591 337 599 331 602 L181 686 C175 690 160 692 155 683 L137 647 C133 639 135 629 143 626 L304 559 Z " />
<glyph glyph-name="aacute" unicode="&#xe1;" horiz-adv-x="471" d="M42 140 C42 47 104 -11 185 -11 C256 -11 304 24 328 48 L337 17 C340 7 344 0 356 0 L375 0 C387 0 397 10 397 22 L397 278 C397 414 372 472 254 472 C178 472 118 452 95 442 C84 437 77 431 81 417 L91 390 C95 379 101 373 113 378 C134 385 187 405 250 405 C316 405 327 363 326 278 C326 278 276 293 227 293 C108 293 42 228 42 140 L42 140 Z M115 140 C115 199 163 230 227 230 C273 230 310 220 325 212 L325 118 C305 88 255 56 198 56 C147 56 115 93 115 140 L115 140 Z M148 561 C152 553 157 553 171 559 L332 626 C340 629 342 639 338 647 L320 683 C315 692 300 690 294 686 L144 602 C138 599 134 591 138 583 L148 561 Z " />
<glyph glyph-name="acircumflex" unicode="&#xe2;" horiz-adv-x="471" d="M42 140 C42 47 104 -11 185 -11 C256 -11 304 24 328 48 L337 17 C340 7 344 0 356 0 L375 0 C387 0 397 10 397 22 L397 278 C397 414 372 472 254 472 C178 472 118 452 95 442 C84 437 77 431 81 417 L91 390 C95 379 101 373 113 378 C134 385 187 405 250 405 C316 405 327 363 326 278 C326 278 276 293 227 293 C108 293 42 228 42 140 L42 140 Z M115 140 C115 199 163 230 227 230 C273 230 310 220 325 212 L325 118 C305 88 255 56 198 56 C147 56 115 93 115 140 L115 140 Z M105 555 C110 548 116 545 128 553 L230 621 L332 551 C352 537 360 561 369 573 C374 580 369 588 363 592 L243 686 C239 689 236 690 230 690 C226 690 221 689 217 686 L97 592 C91 588 86 580 91 573 L105 555 Z " />
<glyph glyph-name="atilde" unicode="&#xe3;" horiz-adv-x="471" d="M42 140 C42 47 104 -11 185 -11 C256 -11 304 24 328 48 L337 17 C340 7 344 0 356 0 L375 0 C387 0 397 10 397 22 L397 278 C397 414 372 472 254 472 C178 472 118 452 95 442 C84 437 77 431 81 417 L91 390 C95 379 101 373 113 378 C134 385 187 405 250 405 C316 405 327 363 326 278 C326 278 276 293 227 293 C108 293 42 228 42 140 L42 140 Z M115 140 C115 199 163 230 227 230 C273 230 310 220 325 212 L325 118 C305 88 255 56 198 56 C147 56 115 93 115 140 L115 140 Z M104 575 C117 568 126 575 129 585 C136 606 146 635 173 635 C201 635 228 560 283 560 C338 560 362 612 372 641 C374 648 380 661 368 667 L352 675 C341 680 332 677 329 667 C324 650 312 616 284 616 C253 616 234 690 174 690 C108 690 91 624 82 606 C79 599 78 588 86 584 L104 575 Z " />
<glyph glyph-name="adieresis" unicode="&#xe4;" horiz-adv-x="471" d="M42 140 C42 47 104 -11 185 -11 C256 -11 304 24 328 48 L337 17 C340 7 344 0 356 0 L375 0 C387 0 397 10 397 22 L397 278 C397 414 372 472 254 472 C178 472 118 452 95 442 C84 437 77 431 81 417 L91 390 C95 379 101 373 113 378 C134 385 187 405 250 405 C316 405 327 363 326 278 C326 278 276 293 227 293 C108 293 42 228 42 140 L42 140 Z M115 140 C115 199 163 230 227 230 C273 230 310 220 325 212 L325 118 C305 88 255 56 198 56 C147 56 115 93 115 140 L115 140 Z M337 581 C366 581 389 604 389 632 C389 661 366 684 337 684 C309 684 286 661 286 632 C286 604 309 581 337 581 L337 581 Z M144 581 C173 581 196 604 196 632 C196 661 173 684 144 684 C116 684 93 661 93 632 C93 604 116 581 144 581 L144 581 Z " />
<glyph glyph-name="aring" unicode="&#xe5;" horiz-adv-x="471" d="M42 140 C42 47 104 -11 185 -11 C256 -11 304 24 328 48 L337 17 C340 7 344 0 356 0 L375 0 C387 0 397 10 397 22 L397 278 C397 414 372 472 254 472 C178 472 118 452 95 442 C84 437 77 431 81 417 L91 390 C95 379 101 373 113 378 C134 385 187 405 250 405 C316 405 327 363 326 278 C326 278 276 293 227 293 C108 293 42 228 42 140 L42 140 Z M115 140 C115 199 163 230 227 230 C273 230 310 220 325 212 L325 118 C305 88 255 56 198 56 C147 56 115 93 115 140 L115 140 Z M229 513 C289 513 338 561 338 622 C338 683 289 731 229 731 C168 731 120 683 120 622 C120 561 168 513 229 513 L229 513 Z M229 561 C197 561 168 590 168 622 C168 654 197 681 229 681 C261 681 288 654 288 622 C288 590 261 561 229 561 L229 561 Z " />
<glyph glyph-name="ae" unicode="&#xe6;" horiz-adv-x="790" d="M43 142 C43 48 105 -11 195 -11 C269 -11 332 31 364 71 C405 17 463 -11 538 -11 C618 -11 679 20 708 42 C725 55 721 60 713 71 L697 94 C686 109 679 104 664 94 C637 76 595 56 546 56 C483 56 426 90 397 139 L397 214 L724 214 C746 214 747 239 747 262 C747 390 654 472 539 472 C478 472 423 447 385 409 C368 448 337 472 259 472 C170 472 97 445 97 445 C84 441 76 434 78 422 L84 394 C86 382 97 374 108 378 C129 384 183 405 255 405 C313 405 327 372 325 286 C325 286 270 292 214 292 C107 292 43 229 43 142 L43 142 Z M399 274 L399 327 C425 370 481 405 538 405 C608 405 668 349 668 274 L399 274 Z M117 141 C117 198 168 231 226 231 C288 231 325 222 325 222 L325 116 C306 87 259 56 210 56 C163 56 117 82 117 141 L117 141 Z " />
<glyph glyph-name="ccedilla" unicode="&#xe7;" horiz-adv-x="500" d="M48 230 C48 105 131 10 242 -8 L195 -106 C192 -113 200 -122 207 -119 C217 -114 237 -109 255 -109 C286 -109 308 -119 308 -150 C308 -177 286 -191 252 -191 C229 -191 212 -181 202 -171 C193 -165 186 -166 181 -176 L173 -191 C169 -199 167 -206 173 -212 C190 -228 218 -240 255 -240 C314 -240 367 -203 367 -146 C367 -86 322 -63 280 -63 C270 -63 261 -65 255 -67 L291 -11 C363 -7 421 33 455 82 C463 94 459 104 449 114 L443 120 C430 133 417 137 404 122 C378 92 348 56 278 56 C192 56 123 139 123 231 C123 323 193 405 281 405 C328 405 365 391 397 355 C406 345 415 335 430 348 L446 363 C457 372 459 385 450 396 C407 445 351 472 282 472 C154 472 48 366 48 230 L48 230 Z " />
<glyph glyph-name="egrave" unicode="&#xe8;" horiz-adv-x="525" d="M49 231 C49 99 133 -11 273 -11 C353 -11 414 20 442 42 C459 55 455 60 446 74 L434 91 C422 109 415 105 399 94 C373 77 335 56 274 56 C190 56 125 137 123 214 L459 214 C469 214 479 222 480 234 C481 242 482 254 482 262 C482 383 394 472 273 472 C133 472 49 361 49 231 L49 231 Z M124 273 C133 345 195 405 273 405 C352 405 406 341 408 273 L124 273 Z M325 559 C339 553 344 553 348 561 L358 583 C362 591 358 599 352 602 L202 686 C196 690 181 692 176 683 L158 647 C154 639 156 629 164 626 L325 559 Z " />
<glyph glyph-name="eacute" unicode="&#xe9;" horiz-adv-x="525" d="M49 231 C49 99 133 -11 273 -11 C353 -11 414 20 442 42 C459 55 455 60 446 74 L434 91 C422 109 415 105 399 94 C373 77 335 56 274 56 C190 56 125 137 123 214 L459 214 C469 214 479 222 480 234 C481 242 482 254 482 262 C482 383 394 472 273 472 C133 472 49 361 49 231 L49 231 Z M124 273 C133 345 195 405 273 405 C352 405 406 341 408 273 L124 273 Z M187 561 C191 553 196 553 210 559 L371 626 C379 629 381 639 377 647 L359 683 C354 692 339 690 333 686 L183 602 C177 599 173 591 177 583 L187 561 Z " />
<glyph glyph-name="ecircumflex" unicode="&#xea;" horiz-adv-x="525" d="M49 231 C49 99 133 -11 273 -11 C353 -11 414 20 442 42 C459 55 455 60 446 74 L434 91 C422 109 415 105 399 94 C373 77 335 56 274 56 C190 56 125 137 123 214 L459 214 C469 214 479 222 480 234 C481 242 482 254 482 262 C482 383 394 472 273 472 C133 472 49 361 49 231 L49 231 Z M124 273 C133 345 195 405 273 405 C352 405 406 341 408 273 L124 273 Z M153 555 C158 548 164 545 176 553 L278 621 L380 551 C400 537 408 561 417 573 C422 580 417 588 411 592 L291 686 C287 689 284 690 278 690 C274 690 269 689 265 686 L145 592 C139 588 134 580 139 573 L153 555 Z " />
<glyph glyph-name="edieresis" unicode="&#xeb;" horiz-adv-x="525" d="M49 231 C49 99 133 -11 273 -11 C353 -11 414 20 442 42 C459 55 455 60 446 74 L434 91 C422 109 415 105 399 94 C373 77 335 56 274 56 C190 56 125 137 123 214 L459 214 C469 214 479 222 480 234 C481 242 482 254 482 262 C482 383 394 472 273 472 C133 472 49 361 49 231 L49 231 Z M124 273 C133 345 195 405 273 405 C352 405 406 341 408 273 L124 273 Z M370 581 C399 581 422 604 422 632 C422 661 399 684 370 684 C342 684 319 661 319 632 C319 604 342 581 370 581 L370 581 Z M177 581 C206 581 229 604 229 632 C229 661 206 684 177 684 C149 684 126 661 126 632 C126 604 149 581 177 581 L177 581 Z " />
<glyph glyph-name="igrave" unicode="&#xec;" horiz-adv-x="230" d="M78 22 C78 10 88 0 100 0 L130 0 C141 0 152 10 152 22 L152 440 C152 451 141 462 130 462 L100 462 C88 462 78 451 78 440 L78 22 Z M185 559 C199 553 204 553 208 561 L218 583 C222 591 218 599 212 602 L62 686 C56 690 41 692 36 683 L18 647 C14 639 16 629 24 626 L185 559 Z " />
<glyph glyph-name="iacute" unicode="&#xed;" horiz-adv-x="230" d="M78 22 C78 10 88 0 100 0 L130 0 C141 0 152 10 152 22 L152 440 C152 451 141 462 130 462 L100 462 C88 462 78 451 78 440 L78 22 Z M29 561 C33 553 38 553 52 559 L213 626 C221 629 223 639 219 647 L201 683 C196 692 181 690 175 686 L25 602 C19 599 15 591 19 583 L29 561 Z " />
<glyph glyph-name="icircumflex" unicode="&#xee;" horiz-adv-x="230" d="M78 22 C78 10 88 0 100 0 L130 0 C141 0 152 10 152 22 L152 440 C152 451 141 462 130 462 L100 462 C88 462 78 451 78 440 L78 22 Z M-7 555 C-2 548 4 545 16 553 L118 621 L220 551 C240 537 248 561 257 573 C262 580 257 588 251 592 L131 686 C127 689 124 690 118 690 C114 690 109 689 105 686 L-15 592 C-21 588 -26 580 -21 573 L-7 555 Z " />
<glyph glyph-name="idieresis" unicode="&#xef;" horiz-adv-x="230" d="M78 22 C78 10 88 0 100 0 L130 0 C141 0 152 10 152 22 L152 440 C152 451 141 462 130 462 L100 462 C88 462 78 451 78 440 L78 22 Z M212 581 C241 581 264 604 264 632 C264 661 241 684 212 684 C184 684 161 661 161 632 C161 604 184 581 212 581 L212 581 Z M19 581 C48 581 71 604 71 632 C71 661 48 684 19 684 C-9 684 -32 661 -32 632 C-32 604 -9 581 19 581 L19 581 Z " />
<glyph glyph-name="eth" unicode="&#xf0;" horiz-adv-x="577" d="M50 226 C50 96 144 -10 278 -10 C445 -10 518 119 518 283 C518 439 443 546 361 617 L417 649 C426 655 429 666 424 675 L420 682 C415 691 404 695 393 689 L321 648 C263 689 209 713 179 724 C170 727 161 724 158 717 L145 689 C139 677 141 669 153 664 C171 657 203 643 255 610 L173 562 C164 557 161 545 167 537 L171 529 C175 521 187 517 196 522 L296 580 C354 535 410 473 428 403 C428 403 360 449 272 449 C155 449 50 363 50 226 L50 226 Z M123 221 C123 311 192 382 279 382 C375 382 442 315 442 315 C444 300 446 285 446 269 C446 172 399 58 278 58 C191 58 123 133 123 221 L123 221 Z " />
<glyph glyph-name="ntilde" unicode="&#xf1;" horiz-adv-x="539" d="M78 22 C78 10 88 0 100 0 L130 0 C141 0 152 10 152 22 L152 341 C152 341 207 405 294 405 C362 405 392 364 392 276 L392 22 C392 10 402 0 414 0 L444 0 C455 0 466 10 466 22 L466 266 C466 385 433 472 299 472 C203 472 144 413 144 413 L134 448 C132 458 126 462 116 462 L100 462 C88 462 78 451 78 440 L78 22 Z M149 575 C162 568 171 575 174 585 C181 606 191 635 218 635 C246 635 273 560 328 560 C383 560 407 612 417 641 C419 648 425 661 413 667 L397 675 C386 680 377 677 374 667 C369 650 357 616 329 616 C298 616 279 690 219 690 C153 690 136 624 127 606 C124 599 123 588 131 584 L149 575 Z " />
<glyph glyph-name="ograve" unicode="&#xf2;" horiz-adv-x="560" d="M48 232 C48 100 152 -11 280 -11 C408 -11 512 100 512 232 C512 362 408 472 280 472 C152 472 48 362 48 232 L48 232 Z M121 232 C121 326 189 405 280 405 C371 405 438 326 438 232 C438 136 371 56 280 56 C189 56 121 136 121 232 L121 232 Z M345 559 C359 553 364 553 368 561 L378 583 C382 591 378 599 372 602 L222 686 C216 690 201 692 196 683 L178 647 C174 639 176 629 184 626 L345 559 Z " />
<glyph glyph-name="oacute" unicode="&#xf3;" horiz-adv-x="560" d="M48 232 C48 100 152 -11 280 -11 C408 -11 512 100 512 232 C512 362 408 472 280 472 C152 472 48 362 48 232 L48 232 Z M121 232 C121 326 189 405 280 405 C371 405 438 326 438 232 C438 136 371 56 280 56 C189 56 121 136 121 232 L121 232 Z M189 561 C193 553 198 553 212 559 L373 626 C381 629 383 639 379 647 L361 683 C356 692 341 690 335 686 L185 602 C179 599 175 591 179 583 L189 561 Z " />
<glyph glyph-name="ocircumflex" unicode="&#xf4;" horiz-adv-x="560" d="M48 232 C48 100 152 -11 280 -11 C408 -11 512 100 512 232 C512 362 408 472 280 472 C152 472 48 362 48 232 L48 232 Z M121 232 C121 326 189 405 280 405 C371 405 438 326 438 232 C438 136 371 56 280 56 C189 56 121 136 121 232 L121 232 Z M152 555 C157 548 163 545 175 553 L277 621 L379 551 C399 537 407 561 416 573 C421 580 416 588 410 592 L290 686 C286 689 283 690 277 690 C273 690 268 689 264 686 L144 592 C138 588 133 580 138 573 L152 555 Z " />
<glyph glyph-name="otilde" unicode="&#xf5;" horiz-adv-x="560" d="M48 232 C48 100 152 -11 280 -11 C408 -11 512 100 512 232 C512 362 408 472 280 472 C152 472 48 362 48 232 L48 232 Z M121 232 C121 326 189 405 280 405 C371 405 438 326 438 232 C438 136 371 56 280 56 C189 56 121 136 121 232 L121 232 Z M154 575 C167 568 176 575 179 585 C186 606 196 635 223 635 C251 635 278 560 333 560 C388 560 412 612 422 641 C424 648 430 661 418 667 L402 675 C391 680 382 677 379 667 C374 650 362 616 334 616 C303 616 284 690 224 690 C158 690 141 624 132 606 C129 599 128 588 136 584 L154 575 Z " />
<glyph glyph-name="odieresis" unicode="&#xf6;" horiz-adv-x="560" d="M48 232 C48 100 152 -11 280 -11 C408 -11 512 100 512 232 C512 362 408 472 280 472 C152 472 48 362 48 232 L48 232 Z M121 232 C121 326 189 405 280 405 C371 405 438 326 438 232 C438 136 371 56 280 56 C189 56 121 136 121 232 L121 232 Z M374 581 C403 581 426 604 426 632 C426 661 403 684 374 684 C346 684 323 661 323 632 C323 604 346 581 374 581 L374 581 Z M181 581 C210 581 233 604 233 632 C233 661 210 684 181 684 C153 684 130 661 130 632 C130 604 153 581 181 581 L181 581 Z " />
<glyph glyph-name="divide" unicode="&#xf7;" horiz-adv-x="600" d="M297 472 C329 472 354 498 354 529 C354 561 329 586 297 586 C266 586 240 561 240 529 C240 498 266 472 297 472 L297 472 Z M110 314 L491 314 C501 314 509 323 509 333 L509 361 C509 371 501 380 491 380 L110 380 C100 380 91 371 91 361 L91 333 C91 323 100 314 110 314 L110 314 Z M240 171 C240 140 266 114 297 114 C329 114 354 140 354 171 C354 203 329 228 297 228 C266 228 240 203 240 171 L240 171 Z " />
<glyph glyph-name="oslash" unicode="&#xf8;" horiz-adv-x="559" d="M48 232 C48 176 66 123 98 82 L80 64 C71 56 72 43 81 34 L87 28 C95 20 108 19 116 27 L133 44 C173 10 224 -11 280 -11 C408 -11 512 100 512 232 C512 286 494 337 463 378 L489 404 C499 413 499 426 489 435 L484 440 C476 449 462 449 452 440 L428 416 C388 451 336 472 280 472 C152 472 48 362 48 232 L48 232 Z M120 232 C120 326 189 405 280 405 C318 405 353 390 380 367 L147 132 C130 160 120 195 120 232 L120 232 Z M439 232 C439 136 371 56 280 56 C242 56 208 70 181 93 L413 327 C429 299 439 267 439 232 L439 232 Z " />
<glyph glyph-name="ugrave" unicode="&#xf9;" horiz-adv-x="526" d="M73 191 C73 69 105 -11 238 -11 C321 -11 364 31 381 49 L390 20 C393 8 398 0 411 0 L427 0 C438 0 448 10 448 22 L448 440 C448 451 438 462 427 462 L396 462 C384 462 375 451 375 440 L375 123 C354 99 313 56 244 56 C177 56 147 98 147 190 L147 440 C147 451 137 462 125 462 L95 462 C82 462 73 451 73 440 L73 191 Z M331 559 C345 553 350 553 354 561 L364 583 C368 591 364 599 358 602 L208 686 C202 690 187 692 182 683 L164 647 C160 639 162 629 170 626 L331 559 Z " />
<glyph glyph-name="uacute" unicode="&#xfa;" horiz-adv-x="526" d="M73 191 C73 69 105 -11 238 -11 C321 -11 364 31 381 49 L390 20 C393 8 398 0 411 0 L427 0 C438 0 448 10 448 22 L448 440 C448 451 438 462 427 462 L396 462 C384 462 375 451 375 440 L375 123 C354 99 313 56 244 56 C177 56 147 98 147 190 L147 440 C147 451 137 462 125 462 L95 462 C82 462 73 451 73 440 L73 191 Z M182 561 C186 553 191 553 205 559 L366 626 C374 629 376 639 372 647 L354 683 C349 692 334 690 328 686 L178 602 C172 599 168 591 172 583 L182 561 Z " />
<glyph glyph-name="ucircumflex" unicode="&#xfb;" horiz-adv-x="526" d="M73 191 C73 69 105 -11 238 -11 C321 -11 364 31 381 49 L390 20 C393 8 398 0 411 0 L427 0 C438 0 448 10 448 22 L448 440 C448 451 438 462 427 462 L396 462 C384 462 375 451 375 440 L375 123 C354 99 313 56 244 56 C177 56 147 98 147 190 L147 440 C147 451 137 462 125 462 L95 462 C82 462 73 451 73 440 L73 191 Z M141 555 C146 548 152 545 164 553 L266 621 L368 551 C388 537 396 561 405 573 C410 580 405 588 399 592 L279 686 C275 689 272 690 266 690 C262 690 257 689 253 686 L133 592 C127 588 122 580 127 573 L141 555 Z " />
<glyph glyph-name="udieresis" unicode="&#xfc;" horiz-adv-x="526" d="M73 191 C73 69 105 -11 238 -11 C321 -11 364 31 381 49 L390 20 C393 8 398 0 411 0 L427 0 C438 0 448 10 448 22 L448 440 C448 451 438 462 427 462 L396 462 C384 462 375 451 375 440 L375 123 C354 99 313 56 244 56 C177 56 147 98 147 190 L147 440 C147 451 137 462 125 462 L95 462 C82 462 73 451 73 440 L73 191 Z M361 581 C390 581 413 604 413 632 C413 661 390 684 361 684 C333 684 310 661 310 632 C310 604 333 581 361 581 L361 581 Z M168 581 C197 581 220 604 220 632 C220 661 197 684 168 684 C140 684 117 661 117 632 C117 604 140 581 168 581 L168 581 Z " />
<glyph glyph-name="yacute" unicode="&#xfd;" horiz-adv-x="500" d="M198 1 L109 -210 C102 -226 110 -238 128 -238 L164 -238 C172 -238 181 -231 184 -224 L473 436 C480 451 473 462 455 462 L418 462 C409 462 401 457 398 449 L242 82 L240 82 L109 449 C106 457 98 462 89 462 L47 462 C29 462 23 452 29 437 L198 1 Z M153 561 C157 553 162 553 176 559 L337 626 C345 629 347 639 343 647 L325 683 C320 692 305 690 299 686 L149 602 C143 599 139 591 143 583 L153 561 Z " />
<glyph glyph-name="thorn" unicode="&#xfe;" horiz-adv-x="546" d="M151 27 C151 27 202 -11 279 -11 C406 -11 497 94 497 230 C497 362 415 472 282 472 C199 472 151 428 151 428 L151 678 C151 689 140 700 129 700 L100 700 C88 700 78 689 78 678 L78 -216 C78 -228 88 -238 100 -238 L129 -238 C140 -238 151 -228 151 -216 L151 27 Z M151 348 C151 348 199 405 273 405 C373 405 422 321 422 231 C422 124 357 56 268 56 C204 56 151 98 151 98 L151 348 Z " />
<glyph glyph-name="ydieresis" unicode="&#xff;" horiz-adv-x="500" d="M198 1 L109 -210 C102 -226 110 -238 128 -238 L164 -238 C172 -238 181 -231 184 -224 L473 436 C480 451 473 462 455 462 L418 462 C409 462 401 457 398 449 L242 82 L240 82 L109 449 C106 457 98 462 89 462 L47 462 C29 462 23 452 29 437 L198 1 Z M347 581 C376 581 399 604 399 632 C399 661 376 684 347 684 C319 684 296 661 296 632 C296 604 319 581 347 581 L347 581 Z M154 581 C183 581 206 604 206 632 C206 661 183 684 154 684 C126 684 103 661 103 632 C103 604 126 581 154 581 L154 581 Z " />
<glyph glyph-name="Amacron" unicode="&#x100;" horiz-adv-x="665" d="M24 0 L64 0 C73 0 79 6 81 11 L154 176 L509 176 L583 11 C585 6 591 0 600 0 L640 0 C655 0 663 13 657 26 L355 699 C352 705 347 710 338 710 L328 710 C319 710 314 705 311 699 L7 26 C1 13 9 0 24 0 L24 0 Z M182 238 L328 566 L336 566 C385 457 433 347 482 238 L182 238 Z M204 821 L460 821 C471 821 479 829 479 839 L479 860 C479 871 471 879 460 879 L204 879 C193 879 185 871 185 860 L185 839 C185 829 193 821 204 821 L204 821 Z " />
<glyph glyph-name="amacron" unicode="&#x101;" horiz-adv-x="471" d="M42 140 C42 47 104 -11 185 -11 C256 -11 304 24 328 48 L337 17 C340 7 344 0 356 0 L375 0 C387 0 397 10 397 22 L397 278 C397 414 372 472 254 472 C178 472 118 452 95 442 C84 437 77 431 81 417 L91 390 C95 379 101 373 113 378 C134 385 187 405 250 405 C316 405 327 363 326 278 C326 278 276 293 227 293 C108 293 42 228 42 140 L42 140 Z M115 140 C115 199 163 230 227 230 C273 230 310 220 325 212 L325 118 C305 88 255 56 198 56 C147 56 115 93 115 140 L115 140 Z M99 583 L355 583 C366 583 374 591 374 601 L374 622 C374 633 366 641 355 641 L99 641 C88 641 80 633 80 622 L80 601 C80 591 88 583 99 583 L99 583 Z " />
<glyph glyph-name="Abreve" unicode="&#x102;" horiz-adv-x="665" d="M24 0 L64 0 C73 0 79 6 81 11 L154 176 L509 176 L583 11 C585 6 591 0 600 0 L640 0 C655 0 663 13 657 26 L355 699 C352 705 347 710 338 710 L328 710 C319 710 314 705 311 699 L7 26 C1 13 9 0 24 0 L24 0 Z M182 238 L328 566 L336 566 C385 457 433 347 482 238 L182 238 Z M332 771 C401 771 456 820 467 885 C469 896 464 905 453 905 L430 905 C421 905 415 899 411 888 C400 853 369 824 332 824 C292 824 262 850 251 888 C248 897 243 905 232 905 L211 905 C199 905 195 896 197 885 C206 820 262 771 332 771 L332 771 Z " />
<glyph glyph-name="abreve" unicode="&#x103;" horiz-adv-x="471" d="M42 140 C42 47 104 -11 185 -11 C256 -11 304 24 328 48 L337 17 C340 7 344 0 356 0 L375 0 C387 0 397 10 397 22 L397 278 C397 414 372 472 254 472 C178 472 118 452 95 442 C84 437 77 431 81 417 L91 390 C95 379 101 373 113 378 C134 385 187 405 250 405 C316 405 327 363 326 278 C326 278 276 293 227 293 C108 293 42 228 42 140 L42 140 Z M115 140 C115 199 163 230 227 230 C273 230 310 220 325 212 L325 118 C305 88 255 56 198 56 C147 56 115 93 115 140 L115 140 Z M238 531 C307 531 362 580 373 645 C375 656 370 665 359 665 L336 665 C327 665 321 659 317 648 C306 613 275 584 238 584 C198 584 168 610 157 648 C154 657 149 665 138 665 L117 665 C105 665 101 656 103 645 C112 580 168 531 238 531 L238 531 Z " />
<glyph glyph-name="Aogonek" unicode="&#x104;" horiz-adv-x="665" d="M24 0 L64 0 C73 0 79 6 81 11 L154 176 L509 176 C583 10 582 11 583 10 C542 -15 473 -64 473 -144 C473 -200 507 -244 572 -244 C608 -244 641 -229 655 -221 C665 -214 668 -206 667 -197 L666 -163 C665 -154 657 -152 650 -158 C642 -164 616 -184 587 -184 C555 -184 536 -164 536 -131 C536 -71 597 -19 639 -2 C656 5 663 13 655 31 L355 699 C352 705 347 710 338 710 L328 710 C319 710 314 705 311 699 L7 26 C1 13 9 0 24 0 L24 0 Z M182 238 L328 566 L336 566 L482 238 L182 238 Z " />
<glyph glyph-name="aogonek" unicode="&#x105;" horiz-adv-x="471" d="M42 140 C42 47 104 -11 185 -11 C256 -11 304 24 328 48 L337 15 C295 -11 213 -66 213 -144 C213 -200 247 -244 312 -244 C348 -244 381 -229 395 -221 C405 -214 408 -206 407 -197 L406 -163 C405 -154 397 -152 390 -158 C382 -164 356 -184 327 -184 C295 -184 276 -164 276 -131 C276 -70 341 -22 380 0 C389 5 397 12 397 22 L397 278 C397 414 372 472 254 472 C178 472 118 452 95 442 C84 437 77 431 81 417 L91 390 C95 379 101 373 113 378 C134 385 187 405 250 405 C316 405 327 363 326 278 C326 278 276 293 227 293 C108 293 42 228 42 140 L42 140 Z M115 140 C115 199 163 230 227 230 C273 230 310 220 325 212 L325 118 C305 88 255 56 198 56 C147 56 115 93 115 140 L115 140 Z " />
<glyph glyph-name="Cacute" unicode="&#x106;" horiz-adv-x="706" d="M52 349 C52 149 213 -10 413 -10 C502 -10 585 27 651 87 C658 94 660 108 652 114 L629 137 C621 145 613 146 603 138 C550 93 499 63 412 63 C254 63 133 196 133 350 C133 505 254 638 412 638 C485 638 551 608 603 563 C613 553 621 552 629 562 L656 589 C664 597 663 609 655 617 C587 675 514 710 413 710 C213 710 52 549 52 349 L52 349 Z M332 783 C336 775 341 775 355 781 L516 848 C524 851 526 861 522 869 L504 905 C499 914 484 912 478 908 L328 824 C322 821 318 813 322 805 L332 783 Z " />
<glyph glyph-name="cacute" unicode="&#x107;" horiz-adv-x="500" d="M48 230 C48 91 144 -11 281 -11 C358 -11 420 31 455 82 C463 94 459 104 449 114 L443 120 C430 133 417 137 404 122 C378 92 348 56 278 56 C192 56 123 133 123 231 C123 327 193 405 281 405 C328 405 365 391 397 355 C406 345 415 335 430 348 L446 363 C457 372 459 385 450 396 C407 445 351 472 282 472 C148 472 48 366 48 230 L48 230 Z M197 561 C201 553 206 553 220 559 L381 626 C389 629 391 639 387 647 L369 683 C364 692 349 690 343 686 L193 602 C187 599 183 591 187 583 L197 561 Z " />
<glyph glyph-name="Ccircumflex" unicode="&#x108;" horiz-adv-x="706" d="M52 349 C52 149 213 -10 413 -10 C502 -10 585 27 651 87 C658 94 660 108 652 114 L629 137 C621 145 613 146 603 138 C550 93 499 63 412 63 C254 63 133 196 133 350 C133 505 254 638 412 638 C485 638 551 608 603 563 C613 553 621 552 629 562 L656 589 C664 597 663 609 655 617 C587 675 514 710 413 710 C213 710 52 549 52 349 L52 349 Z M287 775 C292 768 298 765 310 773 L412 841 L514 771 C534 757 542 781 551 793 C556 800 551 808 545 812 L425 906 C421 909 418 910 412 910 C408 910 403 909 399 906 L279 812 C273 808 268 800 273 793 L287 775 Z " />
<glyph glyph-name="ccircumflex" unicode="&#x109;" horiz-adv-x="500" d="M48 230 C48 91 144 -11 281 -11 C358 -11 420 31 455 82 C463 94 459 104 449 114 L443 120 C430 133 417 137 404 122 C378 92 348 56 278 56 C192 56 123 133 123 231 C123 327 193 405 281 405 C328 405 365 391 397 355 C406 345 415 335 430 348 L446 363 C457 372 459 385 450 396 C407 445 351 472 282 472 C148 472 48 366 48 230 L48 230 Z M157 555 C162 548 168 545 180 553 L282 621 L384 551 C404 537 412 561 421 573 C426 580 421 588 415 592 L295 686 C291 689 288 690 282 690 C278 690 273 689 269 686 L149 592 C143 588 138 580 143 573 L157 555 Z " />
<glyph glyph-name="Cdotaccent" unicode="&#x10a;" horiz-adv-x="706" d="M52 349 C52 149 213 -10 413 -10 C502 -10 585 27 651 87 C658 94 660 108 652 114 L629 137 C621 145 613 146 603 138 C550 93 499 63 412 63 C254 63 133 196 133 350 C133 505 254 638 412 638 C485 638 551 608 603 563 C613 553 621 552 629 562 L656 589 C664 597 663 609 655 617 C587 675 514 710 413 710 C213 710 52 549 52 349 L52 349 Z M412 798 C443 798 467 823 467 852 C467 884 443 908 412 908 C382 908 358 884 358 852 C358 823 382 798 412 798 L412 798 Z " />
<glyph glyph-name="cdotaccent" unicode="&#x10b;" horiz-adv-x="500" d="M48 230 C48 91 144 -11 281 -11 C358 -11 420 31 455 82 C463 94 459 104 449 114 L443 120 C430 133 417 137 404 122 C378 92 348 56 278 56 C192 56 123 133 123 231 C123 327 193 405 281 405 C328 405 365 391 397 355 C406 345 415 335 430 348 L446 363 C457 372 459 385 450 396 C407 445 351 472 282 472 C148 472 48 366 48 230 L48 230 Z M285 581 C316 581 340 606 340 635 C340 667 316 691 285 691 C255 691 231 667 231 635 C231 606 255 581 285 581 L285 581 Z " />
<glyph glyph-name="Ccaron" unicode="&#x10c;" horiz-adv-x="706" d="M52 349 C52 149 213 -10 413 -10 C502 -10 585 27 651 87 C658 94 660 108 652 114 L629 137 C621 145 613 146 603 138 C550 93 499 63 412 63 C254 63 133 196 133 350 C133 505 254 638 412 638 C485 638 551 608 603 563 C613 553 621 552 629 562 L656 589 C664 597 663 609 655 617 C587 675 514 710 413 710 C213 710 52 549 52 349 L52 349 Z M412 768 C418 768 421 769 425 772 L532 856 C540 862 560 873 551 885 L537 905 C532 912 526 915 514 907 L412 837 L310 905 C298 913 292 910 287 903 L273 885 C268 878 273 870 279 866 L399 772 C403 769 408 768 412 768 L412 768 Z " />
<glyph glyph-name="ccaron" unicode="&#x10d;" horiz-adv-x="500" d="M48 230 C48 91 144 -11 281 -11 C358 -11 420 31 455 82 C463 94 459 104 449 114 L443 120 C430 133 417 137 404 122 C378 92 348 56 278 56 C192 56 123 133 123 231 C123 327 193 405 281 405 C328 405 365 391 397 355 C406 345 415 335 430 348 L446 363 C457 372 459 385 450 396 C407 445 351 472 282 472 C148 472 48 366 48 230 L48 230 Z M268 546 C272 543 277 542 281 542 C287 542 290 543 294 546 L401 630 C409 636 429 647 420 659 L406 679 C401 686 395 689 383 681 L281 611 L179 679 C167 687 161 684 156 677 L142 659 C137 652 142 644 148 640 L268 546 Z " />
<glyph glyph-name="Dcaron" unicode="&#x10e;" horiz-adv-x="742" d="M96 19 C96 9 104 0 114 0 L338 0 C531 0 689 157 689 351 C689 543 531 700 338 700 L114 700 C104 700 96 691 96 681 L96 19 Z M172 69 L172 632 L329 632 C493 632 608 515 608 351 C608 186 493 69 329 69 L172 69 Z M335 768 C341 768 344 769 348 772 L455 856 C463 862 483 873 474 885 L460 905 C455 912 449 915 437 907 L335 837 L233 905 C221 913 215 910 210 903 L196 885 C191 878 196 870 202 866 L322 772 C326 769 331 768 335 768 L335 768 Z " />
<glyph glyph-name="dcaron" unicode="&#x10f;" horiz-adv-x="552" d="M49 232 C49 100 139 -11 256 -11 C343 -11 402 49 402 49 L408 19 C412 8 418 0 428 0 L446 0 C458 0 469 10 469 22 L469 678 C469 689 458 700 446 700 L418 700 C406 700 396 689 396 678 L396 443 C396 443 344 472 268 472 C129 472 49 367 49 232 L49 232 Z M124 231 C124 323 179 405 278 405 C342 405 396 379 396 379 L396 130 C396 130 348 56 265 56 C181 56 124 141 124 231 L124 231 Z M522 663 C522 640 540 623 567 623 C579 623 589 627 592 630 C595 625 597 618 597 608 C597 582 584 556 568 543 C563 538 561 533 568 526 L584 514 C590 510 594 509 599 514 C622 537 645 576 645 626 C645 681 617 711 576 711 C545 711 522 693 522 663 L522 663 Z " />
<glyph glyph-name="Dcroat" unicode="&#x110;" horiz-adv-x="742" d="M96 19 C96 9 104 0 114 0 L338 0 C531 0 689 157 689 351 C689 543 531 700 338 700 L114 700 C104 700 96 691 96 681 L96 369 L67 369 C57 369 49 360 49 350 L49 343 C49 333 57 324 67 324 L96 324 L96 19 Z M172 69 L172 324 L383 324 C394 324 402 332 402 342 L402 350 C402 360 394 369 383 369 L172 369 L172 632 L322 632 C486 632 605 515 605 351 C605 186 486 69 322 69 L172 69 Z " />
<glyph glyph-name="dcroat" unicode="&#x111;" horiz-adv-x="547" d="M49 232 C49 100 139 -11 256 -11 C343 -11 402 49 402 49 L408 19 C412 8 418 0 428 0 L446 0 C458 0 469 10 469 22 L469 536 L498 536 C508 536 516 545 516 555 L516 562 C516 572 508 581 498 581 L469 581 L469 678 C469 689 458 700 446 700 L418 700 C406 700 396 689 396 678 L396 581 L241 581 C230 581 222 572 222 562 L222 554 C222 544 230 536 241 536 L396 536 L396 443 C396 443 344 472 268 472 C129 472 49 367 49 232 L49 232 Z M124 231 C124 323 179 405 278 405 C342 405 395 379 395 379 L395 130 C395 130 348 56 265 56 C181 56 124 141 124 231 L124 231 Z " />
<glyph glyph-name="Emacron" unicode="&#x112;" horiz-adv-x="576" d="M96 19 C96 9 104 0 115 0 L509 0 C520 0 528 9 528 19 L528 48 C528 58 520 67 509 67 L173 67 L173 322 L460 322 C470 322 479 330 479 341 L479 370 C479 380 470 389 460 389 L173 389 L173 633 L509 633 C520 633 528 642 528 652 L528 681 C528 691 520 700 509 700 L115 700 C104 700 96 691 96 681 L96 19 Z M184 821 L440 821 C451 821 459 829 459 839 L459 860 C459 871 451 879 440 879 L184 879 C173 879 165 871 165 860 L165 839 C165 829 173 821 184 821 L184 821 Z " />
<glyph glyph-name="emacron" unicode="&#x113;" horiz-adv-x="525" d="M49 231 C49 99 133 -11 273 -11 C353 -11 414 20 442 42 C459 55 455 60 446 74 L434 91 C422 109 415 105 399 94 C373 77 335 56 274 56 C190 56 125 137 123 214 L459 214 C469 214 479 222 480 234 C481 242 482 254 482 262 C482 383 394 472 273 472 C133 472 49 361 49 231 L49 231 Z M124 273 C133 345 195 405 273 405 C352 405 406 341 408 273 L124 273 Z M146 583 L402 583 C413 583 421 591 421 601 L421 622 C421 633 413 641 402 641 L146 641 C135 641 127 633 127 622 L127 601 C127 591 135 583 146 583 L146 583 Z " />
<glyph glyph-name="Ebreve" unicode="&#x114;" horiz-adv-x="576" d="M96 19 C96 9 104 0 115 0 L509 0 C520 0 528 9 528 19 L528 48 C528 58 520 67 509 67 L173 67 L173 322 L460 322 C470 322 479 330 479 341 L479 370 C479 380 470 389 460 389 L173 389 L173 633 L509 633 C520 633 528 642 528 652 L528 681 C528 691 520 700 509 700 L115 700 C104 700 96 691 96 681 L96 19 Z M312 771 C381 771 436 820 447 885 C449 896 444 905 433 905 L410 905 C401 905 395 899 391 888 C380 853 349 824 312 824 C272 824 242 850 231 888 C228 897 223 905 212 905 L191 905 C179 905 175 896 177 885 C186 820 242 771 312 771 L312 771 Z " />
<glyph glyph-name="ebreve" unicode="&#x115;" horiz-adv-x="525" d="M49 231 C49 99 133 -11 273 -11 C353 -11 414 20 442 42 C459 55 455 60 446 74 L434 91 C422 109 415 105 399 94 C373 77 335 56 274 56 C190 56 125 137 123 214 L459 214 C469 214 479 222 480 234 C481 242 482 254 482 262 C482 383 394 472 273 472 C133 472 49 361 49 231 L49 231 Z M124 273 C133 345 195 405 273 405 C352 405 406 341 408 273 L124 273 Z M276 531 C345 531 400 580 411 645 C413 656 408 665 397 665 L374 665 C365 665 359 659 355 648 C344 613 313 584 276 584 C236 584 206 610 195 648 C192 657 187 665 176 665 L155 665 C143 665 139 656 141 645 C150 580 206 531 276 531 L276 531 Z " />
<glyph glyph-name="Edotaccent" unicode="&#x116;" horiz-adv-x="576" d="M96 19 C96 9 104 0 115 0 L509 0 C520 0 528 9 528 19 L528 48 C528 58 520 67 509 67 L173 67 L173 322 L460 322 C470 322 479 330 479 341 L479 370 C479 380 470 389 460 389 L173 389 L173 633 L509 633 C520 633 528 642 528 652 L528 681 C528 691 520 700 509 700 L115 700 C104 700 96 691 96 681 L96 19 Z M314 798 C345 798 369 823 369 852 C369 884 345 908 314 908 C284 908 260 884 260 852 C260 823 284 798 314 798 L314 798 Z " />
<glyph glyph-name="edotaccent" unicode="&#x117;" horiz-adv-x="525" d="M49 231 C49 99 133 -11 273 -11 C353 -11 414 20 442 42 C459 55 455 60 446 74 L434 91 C422 109 415 105 399 94 C373 77 335 56 274 56 C190 56 125 137 123 214 L459 214 C469 214 479 222 480 234 C481 242 482 254 482 262 C482 383 394 472 273 472 C133 472 49 361 49 231 L49 231 Z M124 273 C133 345 195 405 273 405 C352 405 406 341 408 273 L124 273 Z M277 581 C308 581 332 606 332 635 C332 667 308 691 277 691 C247 691 223 667 223 635 C223 606 247 581 277 581 L277 581 Z " />
<glyph glyph-name="Eogonek" unicode="&#x118;" horiz-adv-x="576" d="M96 19 C96 9 104 0 115 0 L445 0 C403 -27 347 -72 347 -144 C347 -200 381 -244 446 -244 C482 -244 515 -229 529 -221 C539 -214 542 -206 541 -197 L540 -163 C539 -154 531 -152 524 -158 C516 -164 490 -184 461 -184 C429 -184 410 -164 410 -131 C410 -70 476 -22 515 1 C522 5 528 11 528 23 L528 48 C528 58 520 67 509 67 L173 67 L173 322 L460 322 C470 322 479 330 479 341 L479 370 C479 380 470 389 460 389 L173 389 L173 633 L509 633 C520 633 528 642 528 652 L528 681 C528 691 520 700 509 700 L115 700 C104 700 96 691 96 681 L96 19 Z " />
<glyph glyph-name="eogonek" unicode="&#x119;" horiz-adv-x="525" d="M49 231 C49 100 132 -9 270 -11 C231 -39 188 -81 188 -144 C188 -200 222 -244 287 -244 C323 -244 356 -229 370 -221 C380 -214 383 -206 382 -197 L381 -163 C380 -154 372 -152 365 -158 C357 -164 331 -184 302 -184 C270 -184 251 -164 251 -131 C251 -71 315 -23 354 0 C394 11 424 28 442 42 C459 55 455 60 446 74 L434 91 C422 109 415 105 399 94 C373 77 335 56 274 56 C190 56 125 137 123 214 L459 214 C469 214 479 222 480 234 C481 242 482 254 482 262 C482 383 394 472 273 472 C133 472 49 361 49 231 L49 231 Z M124 273 C133 345 195 405 273 405 C352 405 406 341 408 273 L124 273 Z " />
<glyph glyph-name="Ecaron" unicode="&#x11a;" horiz-adv-x="576" d="M96 19 C96 9 104 0 115 0 L509 0 C520 0 528 9 528 19 L528 48 C528 58 520 67 509 67 L173 67 L173 322 L460 322 C470 322 479 330 479 341 L479 370 C479 380 470 389 460 389 L173 389 L173 633 L509 633 C520 633 528 642 528 652 L528 681 C528 691 520 700 509 700 L115 700 C104 700 96 691 96 681 L96 19 Z M311 768 C317 768 320 769 324 772 L431 856 C439 862 459 873 450 885 L436 905 C431 912 425 915 413 907 L311 837 L209 905 C197 913 191 910 186 903 L172 885 C167 878 172 870 178 866 L298 772 C302 769 307 768 311 768 L311 768 Z " />
<glyph glyph-name="ecaron" unicode="&#x11b;" horiz-adv-x="525" d="M49 231 C49 99 133 -11 273 -11 C353 -11 414 20 442 42 C459 55 455 60 446 74 L434 91 C422 109 415 105 399 94 C373 77 335 56 274 56 C190 56 125 137 123 214 L459 214 C469 214 479 222 480 234 C481 242 482 254 482 262 C482 383 394 472 273 472 C133 472 49 361 49 231 L49 231 Z M124 273 C133 345 195 405 273 405 C352 405 406 341 408 273 L124 273 Z M259 546 C263 543 268 542 272 542 C278 542 281 543 285 546 L392 630 C400 636 420 647 411 659 L397 679 C392 686 386 689 374 681 L272 611 L170 679 C158 687 152 684 147 677 L133 659 C128 652 133 644 139 640 L259 546 Z " />
<glyph glyph-name="Gcircumflex" unicode="&#x11c;" horiz-adv-x="734" d="M52 349 C52 149 213 -10 413 -10 C558 -10 660 56 660 56 C664 59 668 67 668 72 L668 301 C668 311 660 320 650 320 L477 320 C466 320 458 312 458 301 L458 264 C458 254 466 246 477 246 L592 246 L592 106 C592 106 522 64 412 64 C254 64 134 199 134 353 C134 508 254 640 412 640 C479 640 551 607 602 562 C613 552 619 551 628 561 C636 570 647 580 656 589 C664 597 663 609 655 617 C587 675 514 710 413 710 C213 710 52 549 52 349 L52 349 Z M287 775 C292 768 298 765 310 773 L412 841 L514 771 C534 757 542 781 551 793 C556 800 551 808 545 812 L425 906 C421 909 418 910 412 910 C408 910 403 909 399 906 L279 812 C273 808 268 800 273 793 L287 775 Z " />
<glyph glyph-name="gcircumflex" unicode="&#x11d;" horiz-adv-x="547" d="M160 555 C165 548 171 545 183 553 L285 621 L387 551 C407 537 415 561 424 573 C429 580 424 588 418 592 L298 686 C294 689 291 690 285 690 C281 690 276 689 272 686 L152 592 C146 588 141 580 146 573 L160 555 Z M124 232 C124 322 181 404 273 404 C348 404 395 348 395 348 L395 95 C395 95 342 57 278 57 C190 57 124 132 124 232 L124 232 Z M469 440 C469 451 458 462 446 462 L432 462 C420 462 415 455 410 446 L403 425 C403 425 348 472 265 472 C139 472 49 363 49 231 C49 96 141 -11 268 -11 C344 -11 396 30 396 30 L396 -3 C396 -111 340 -151 267 -151 C216 -151 176 -123 151 -102 C140 -92 128 -92 121 -103 L101 -132 C96 -139 98 -152 106 -159 C130 -181 194 -219 267 -219 C372 -219 469 -161 469 -3 L469 440 Z " />
<glyph glyph-name="Gbreve" unicode="&#x11e;" horiz-adv-x="734" d="M52 349 C52 149 213 -10 413 -10 C558 -10 660 56 660 56 C664 59 668 67 668 72 L668 301 C668 311 660 320 650 320 L477 320 C466 320 458 312 458 301 L458 264 C458 254 466 246 477 246 L592 246 L592 106 C592 106 522 64 412 64 C254 64 134 199 134 353 C134 508 254 640 412 640 C479 640 551 607 602 562 C613 552 619 551 628 561 C636 570 647 580 656 589 C664 597 663 609 655 617 C587 675 514 710 413 710 C213 710 52 549 52 349 L52 349 Z M413 771 C482 771 537 820 548 885 C550 896 545 905 534 905 L511 905 C502 905 496 899 492 888 C481 853 450 824 413 824 C373 824 343 850 332 888 C329 897 324 905 313 905 L292 905 C280 905 276 896 278 885 C287 820 343 771 413 771 L413 771 Z " />
<glyph glyph-name="gbreve" unicode="&#x11f;" horiz-adv-x="547" d="M287 531 C356 531 411 580 422 645 C424 656 419 665 408 665 L385 665 C376 665 370 659 366 648 C355 613 324 584 287 584 C247 584 217 610 206 648 C203 657 198 665 187 665 L166 665 C154 665 150 656 152 645 C161 580 217 531 287 531 L287 531 Z M124 232 C124 322 181 404 273 404 C348 404 395 348 395 348 L395 95 C395 95 342 57 278 57 C190 57 124 132 124 232 L124 232 Z M469 440 C469 451 458 462 446 462 L432 462 C420 462 415 455 410 446 L403 425 C403 425 348 472 265 472 C139 472 49 363 49 231 C49 96 141 -11 268 -11 C344 -11 396 30 396 30 L396 -3 C396 -111 340 -151 267 -151 C216 -151 176 -123 151 -102 C140 -92 128 -92 121 -103 L101 -132 C96 -139 98 -152 106 -159 C130 -181 194 -219 267 -219 C372 -219 469 -161 469 -3 L469 440 Z " />
<glyph glyph-name="Gdotaccent" unicode="&#x120;" horiz-adv-x="734" d="M52 349 C52 149 213 -10 413 -10 C558 -10 660 56 660 56 C664 59 668 67 668 72 L668 301 C668 311 660 320 650 320 L477 320 C466 320 458 312 458 301 L458 264 C458 254 466 246 477 246 L592 246 L592 106 C592 106 522 64 412 64 C254 64 134 199 134 353 C134 508 254 640 412 640 C479 640 551 607 602 562 C613 552 619 551 628 561 C636 570 647 580 656 589 C664 597 663 609 655 617 C587 675 514 710 413 710 C213 710 52 549 52 349 L52 349 Z M412 798 C443 798 467 823 467 852 C467 884 443 908 412 908 C382 908 358 884 358 852 C358 823 382 798 412 798 L412 798 Z " />
<glyph glyph-name="gdotaccent" unicode="&#x121;" horiz-adv-x="547" d="M288 581 C319 581 343 606 343 635 C343 667 319 691 288 691 C258 691 234 667 234 635 C234 606 258 581 288 581 L288 581 Z M124 232 C124 322 181 404 273 404 C348 404 395 348 395 348 L395 95 C395 95 342 57 278 57 C190 57 124 132 124 232 L124 232 Z M469 440 C469 451 458 462 446 462 L432 462 C420 462 415 455 410 446 L403 425 C403 425 348 472 265 472 C139 472 49 363 49 231 C49 96 141 -11 268 -11 C344 -11 396 30 396 30 L396 -3 C396 -111 340 -151 267 -151 C216 -151 176 -123 151 -102 C140 -92 128 -92 121 -103 L101 -132 C96 -139 98 -152 106 -159 C130 -181 194 -219 267 -219 C372 -219 469 -161 469 -3 L469 440 Z " />
<glyph glyph-name="Gcommaaccent" unicode="&#x122;" horiz-adv-x="734" d="M52 349 C52 149 213 -10 413 -10 C558 -10 660 56 660 56 C664 59 668 67 668 72 L668 301 C668 311 660 320 650 320 L477 320 C466 320 458 312 458 301 L458 264 C458 254 466 246 477 246 L592 246 L592 106 C592 106 522 64 412 64 C254 64 134 199 134 353 C134 508 254 640 412 640 C479 640 551 607 602 562 C613 552 619 551 628 561 C636 570 647 580 656 589 C664 597 663 609 655 617 C587 675 514 710 413 710 C213 710 52 549 52 349 L52 349 Z M357 -119 C357 -142 375 -159 402 -159 C414 -159 424 -155 427 -152 C430 -157 432 -164 432 -174 C432 -200 419 -226 403 -239 C398 -244 396 -249 403 -256 L419 -268 C425 -272 429 -273 434 -268 C457 -245 480 -206 480 -156 C480 -101 452 -71 411 -71 C380 -71 357 -89 357 -119 L357 -119 Z " />
<glyph glyph-name="gcommaaccent" unicode="&#x123;" horiz-adv-x="547" d="M124 232 C124 322 181 404 273 404 C348 404 395 348 395 348 L395 95 C395 95 342 57 278 57 C190 57 124 132 124 232 L124 232 Z M469 440 C469 451 458 462 446 462 L432 462 C420 462 415 455 410 446 L403 425 C403 425 348 472 265 472 C139 472 49 363 49 231 C49 96 141 -11 268 -11 C344 -11 396 30 396 30 L396 -3 C396 -111 340 -151 267 -151 C216 -151 176 -123 151 -102 C140 -92 128 -92 121 -103 L101 -132 C96 -139 98 -152 106 -159 C130 -181 194 -219 267 -219 C372 -219 469 -161 469 -3 L469 440 Z M348 600 C348 623 330 640 303 640 C291 640 281 636 278 633 C275 638 273 645 273 655 C273 681 286 707 302 720 C307 725 309 730 302 737 L286 749 C280 753 276 754 271 749 C248 726 225 687 225 637 C225 582 253 552 294 552 C325 552 348 570 348 600 L348 600 Z " />
<glyph glyph-name="Hcircumflex" unicode="&#x124;" horiz-adv-x="752" d="M96 19 C96 9 105 0 115 0 L154 0 C165 0 173 9 173 19 L173 322 L579 322 L579 19 C579 9 587 0 598 0 L637 0 C647 0 656 9 656 19 L656 681 C656 691 647 700 637 700 L598 700 C587 700 579 691 579 681 L579 389 L173 389 L173 681 C173 691 165 700 154 700 L115 700 C105 700 96 691 96 681 L96 19 Z M253 775 C258 768 264 765 276 773 L378 841 L480 771 C500 757 508 781 517 793 C522 800 517 808 511 812 L391 906 C387 909 384 910 378 910 C374 910 369 909 365 906 L245 812 C239 808 234 800 239 793 L253 775 Z " />
<glyph glyph-name="hcircumflex" unicode="&#x125;" horiz-adv-x="539" d="M78 22 C78 10 88 0 100 0 L130 0 C141 0 152 10 152 22 L152 339 C152 339 206 405 294 405 C365 405 391 354 391 266 L391 22 C391 10 401 0 413 0 L444 0 C455 0 466 10 466 22 L466 266 C466 401 414 472 299 472 C206 472 152 413 152 413 L152 678 C152 689 141 700 130 700 L100 700 C88 700 78 689 78 678 L78 22 Z M-15 772 C-10 765 -4 762 8 770 L110 838 L212 768 C232 754 240 778 249 790 C254 797 249 805 243 809 L123 903 C119 906 116 907 110 907 C106 907 101 906 97 903 L-23 809 C-29 805 -34 797 -29 790 L-15 772 Z " />
<glyph glyph-name="Hbar" unicode="&#x126;" horiz-adv-x="752" d="M96 19 C96 9 105 0 115 0 L154 0 C165 0 173 9 173 19 L173 322 L579 322 L579 19 C579 9 587 0 598 0 L637 0 C647 0 656 9 656 19 L656 536 L677 536 C688 536 696 544 696 554 L696 562 C696 572 688 581 677 581 L656 581 L656 681 C656 691 647 700 637 700 L598 700 C587 700 579 691 579 681 L579 581 L173 581 L173 681 C173 691 165 700 154 700 L115 700 C105 700 96 691 96 681 L96 581 L74 581 C64 581 56 572 56 562 L56 555 C56 545 64 536 74 536 L96 536 L96 19 Z M173 389 L173 536 L579 536 L579 389 L173 389 Z " />
<glyph glyph-name="hbar" unicode="&#x127;" horiz-adv-x="559" d="M78 22 C78 10 88 0 100 0 L130 0 C141 0 152 10 152 22 L152 339 C152 339 216 405 304 405 C375 405 411 354 411 266 L411 22 C411 10 421 0 433 0 L464 0 C475 0 486 10 486 22 L486 266 C486 401 424 472 309 472 C216 472 152 413 152 413 L152 536 L303 536 C314 536 322 544 322 554 L322 562 C322 572 314 581 303 581 L152 581 L152 678 C152 689 141 700 130 700 L100 700 C88 700 78 689 78 678 L78 581 L46 581 C36 581 28 572 28 562 L28 555 C28 545 36 536 46 536 L78 536 L78 22 Z " />
<glyph glyph-name="Itilde" unicode="&#x128;" horiz-adv-x="270" d="M96 19 C96 9 105 0 115 0 L155 0 C165 0 174 9 174 19 L174 681 C174 691 165 700 155 700 L115 700 C105 700 96 691 96 681 L96 19 Z M10 795 C23 788 32 795 35 805 C42 826 52 855 79 855 C107 855 134 780 189 780 C244 780 268 832 278 861 C280 868 286 881 274 887 L258 895 C247 900 238 897 235 887 C230 870 218 836 190 836 C159 836 140 910 80 910 C14 910 -3 844 -12 826 C-15 819 -16 808 -8 804 L10 795 Z " />
<glyph glyph-name="itilde" unicode="&#x129;" horiz-adv-x="230" d="M78 22 C78 10 88 0 100 0 L130 0 C141 0 152 10 152 22 L152 440 C152 451 141 462 130 462 L100 462 C88 462 78 451 78 440 L78 22 Z M-7 575 C6 568 15 575 18 585 C25 606 35 635 62 635 C90 635 117 560 172 560 C227 560 251 612 261 641 C263 648 269 661 257 667 L241 675 C230 680 221 677 218 667 C213 650 201 616 173 616 C142 616 123 690 63 690 C-3 690 -20 624 -29 606 C-32 599 -33 588 -25 584 L-7 575 Z " />
<glyph glyph-name="Imacron" unicode="&#x12a;" horiz-adv-x="270" d="M96 19 C96 9 105 0 115 0 L155 0 C165 0 174 9 174 19 L174 681 C174 691 165 700 155 700 L115 700 C105 700 96 691 96 681 L96 19 Z M8 821 L264 821 C275 821 283 829 283 839 L283 860 C283 871 275 879 264 879 L8 879 C-3 879 -11 871 -11 860 L-11 839 C-11 829 -3 821 8 821 L8 821 Z " />
<glyph glyph-name="imacron" unicode="&#x12b;" horiz-adv-x="230" d="M78 22 C78 10 88 0 100 0 L130 0 C141 0 152 10 152 22 L152 440 C152 451 141 462 130 462 L100 462 C88 462 78 451 78 440 L78 22 Z M-10 583 L246 583 C257 583 265 591 265 601 L265 622 C265 633 257 641 246 641 L-10 641 C-21 641 -29 633 -29 622 L-29 601 C-29 591 -21 583 -10 583 L-10 583 Z " />
<glyph glyph-name="Ibreve" unicode="&#x12c;" horiz-adv-x="270" d="M96 19 C96 9 105 0 115 0 L155 0 C165 0 174 9 174 19 L174 681 C174 691 165 700 155 700 L115 700 C105 700 96 691 96 681 L96 19 Z M136 771 C205 771 260 820 271 885 C273 896 268 905 257 905 L234 905 C225 905 219 899 215 888 C204 853 173 824 136 824 C96 824 66 850 55 888 C52 897 47 905 36 905 L15 905 C3 905 -1 896 1 885 C10 820 66 771 136 771 L136 771 Z " />
<glyph glyph-name="ibreve" unicode="&#x12d;" horiz-adv-x="230" d="M78 22 C78 10 88 0 100 0 L130 0 C141 0 152 10 152 22 L152 440 C152 451 141 462 130 462 L100 462 C88 462 78 451 78 440 L78 22 Z M118 531 C187 531 242 580 253 645 C255 656 250 665 239 665 L216 665 C207 665 201 659 197 648 C186 613 155 584 118 584 C78 584 48 610 37 648 C34 657 29 665 18 665 L-3 665 C-15 665 -19 656 -17 645 C-8 580 48 531 118 531 L118 531 Z " />
<glyph glyph-name="Iogonek" unicode="&#x12e;" horiz-adv-x="270" d="M96 19 C96 14 97 10 100 7 C59 -19 -8 -66 -8 -144 C-8 -200 26 -244 91 -244 C127 -244 160 -229 174 -221 C184 -214 187 -206 186 -197 L185 -163 C184 -154 176 -152 169 -158 C161 -164 135 -184 106 -184 C74 -184 55 -164 55 -131 C55 -70 119 -20 159 0 C166 3 174 12 174 21 L174 681 C174 691 165 700 155 700 L115 700 C105 700 96 691 96 681 L96 19 Z " />
<glyph glyph-name="iogonek" unicode="&#x12f;" horiz-adv-x="231" d="M79 16 C36 -13 -31 -70 -31 -144 C-31 -200 3 -244 68 -244 C104 -244 137 -229 151 -221 C161 -214 164 -206 163 -197 L162 -163 C161 -154 153 -152 146 -158 C138 -164 112 -184 83 -184 C51 -184 32 -164 32 -131 C32 -70 98 -23 137 1 C145 6 153 15 153 25 L153 440 C153 451 142 462 131 462 L101 462 C89 462 79 451 79 440 L79 16 Z M114 581 C145 581 169 606 169 635 C169 667 145 691 114 691 C84 691 60 667 60 635 C60 606 84 581 114 581 L114 581 Z " />
<glyph glyph-name="Idotaccent" unicode="&#x130;" horiz-adv-x="270" d="M96 19 C96 9 105 0 115 0 L155 0 C165 0 174 9 174 19 L174 681 C174 691 165 700 155 700 L115 700 C105 700 96 691 96 681 L96 19 Z M135 798 C166 798 190 823 190 852 C190 884 166 908 135 908 C105 908 81 884 81 852 C81 823 105 798 135 798 L135 798 Z " />
<glyph glyph-name="dotlessi" unicode="&#x131;" horiz-adv-x="230" d="M78 22 C78 10 88 0 100 0 L130 0 C141 0 152 10 152 22 L152 440 C152 451 141 462 130 462 L100 462 C88 462 78 451 78 440 L78 22 Z " />
<glyph glyph-name="IJ" unicode="&#x132;" horiz-adv-x="711" d="M96 19 C96 9 105 0 115 0 L155 0 C165 0 174 9 174 19 L174 681 C174 691 165 700 155 700 L115 700 C105 700 96 691 96 681 L96 19 Z M268 64 C285 43 333 -10 429 -10 C537 -10 621 60 621 199 L621 681 C621 691 613 700 602 700 L563 700 C552 700 544 691 544 681 L544 197 C544 91 482 57 429 57 C378 57 340 90 323 109 C313 120 303 129 289 112 L269 89 C263 82 263 72 268 64 L268 64 Z " />
<glyph glyph-name="ij" unicode="&#x133;" horiz-adv-x="467" d="M113 581 C144 581 168 606 168 635 C168 667 144 691 113 691 C83 691 59 667 59 635 C59 606 83 581 113 581 L113 581 Z M78 22 C78 10 88 0 100 0 L130 0 C141 0 152 10 152 22 L152 440 C152 451 141 462 130 462 L100 462 C88 462 78 451 78 440 L78 22 Z M351 581 C381 581 405 606 405 635 C405 667 381 691 351 691 C320 691 296 667 296 635 C296 606 320 581 351 581 L351 581 Z M389 440 C389 453 378 462 367 462 L337 462 C325 462 315 453 315 440 L315 -57 C315 -137 288 -162 241 -179 C230 -183 222 -192 227 -206 L237 -236 C240 -246 247 -250 258 -248 C334 -232 389 -175 389 -50 L389 440 Z " />
<glyph glyph-name="Jcircumflex" unicode="&#x134;" horiz-adv-x="464" d="M21 64 C38 43 86 -10 182 -10 C290 -10 374 60 374 199 L374 681 C374 691 366 700 355 700 L316 700 C305 700 297 691 297 681 L297 197 C297 91 235 57 182 57 C131 57 93 90 76 109 C66 120 56 129 42 112 L22 89 C16 82 16 72 21 64 L21 64 Z M210 775 C215 768 221 765 233 773 L335 841 L437 771 C457 757 465 781 474 793 C479 800 474 808 468 812 L348 906 C344 909 341 910 335 910 C331 910 326 909 322 906 L202 812 C196 808 191 800 196 793 L210 775 Z " />
<glyph glyph-name="jcircumflex" unicode="&#x135;" horiz-adv-x="230" d="M152 440 C152 453 141 462 130 462 L100 462 C88 462 78 453 78 440 L78 -57 C78 -137 51 -162 4 -179 C-7 -183 -15 -192 -10 -206 L0 -236 C3 -246 10 -250 21 -248 C97 -232 152 -175 152 -50 L152 440 Z M-10 555 C-5 548 1 545 13 553 L115 621 L217 551 C237 537 245 561 254 573 C259 580 254 588 248 592 L128 686 C124 689 121 690 115 690 C111 690 106 689 102 686 L-18 592 C-24 588 -29 580 -24 573 L-10 555 Z " />
<glyph glyph-name="Kcommaaccent" unicode="&#x136;" horiz-adv-x="601" d="M96 24 C96 11 106 0 120 0 L149 0 C162 0 173 11 173 24 L173 336 L494 7 C496 4 505 0 512 0 L563 0 C585 0 587 24 580 31 L249 364 L565 665 C581 680 571 700 553 700 L504 700 C498 700 489 695 485 690 L173 387 L173 676 C173 689 162 700 149 700 L120 700 C106 700 96 689 96 676 L96 24 Z M253 -119 C253 -142 271 -159 298 -159 C310 -159 320 -155 323 -152 C326 -157 328 -164 328 -174 C328 -200 315 -226 299 -239 C294 -244 292 -249 299 -256 L315 -268 C321 -272 325 -273 330 -268 C353 -245 376 -206 376 -156 C376 -101 348 -71 307 -71 C276 -71 253 -89 253 -119 L253 -119 Z " />
<glyph glyph-name="kcommaaccent" unicode="&#x137;" horiz-adv-x="484" d="M78 22 C78 10 88 0 100 0 L130 0 C141 0 152 10 152 22 L152 232 L363 9 C368 5 377 0 386 0 L443 0 C463 0 464 21 455 29 L226 257 L439 434 C447 440 448 462 428 462 L372 462 C363 462 354 457 344 448 L152 287 L152 678 C152 689 141 700 130 700 L100 700 C88 700 78 689 78 678 L78 22 Z M200 -119 C200 -142 218 -159 245 -159 C257 -159 267 -155 270 -152 C273 -157 275 -164 275 -174 C275 -200 262 -226 246 -239 C241 -244 239 -249 246 -256 L262 -268 C268 -272 272 -273 277 -268 C300 -245 323 -206 323 -156 C323 -101 295 -71 254 -71 C223 -71 200 -89 200 -119 L200 -119 Z " />
<glyph glyph-name="kgreenlandic" unicode="&#x138;" horiz-adv-x="504" d="M78 22 C78 10 88 0 100 0 L130 0 C141 0 152 10 152 22 L152 200 L386 9 C391 5 398 0 409 0 L468 0 C488 0 489 21 480 29 L224 229 L450 434 C459 440 460 462 440 462 L385 462 C375 462 366 456 358 448 L152 249 L152 440 C152 451 141 462 130 462 L100 462 C88 462 78 451 78 440 L78 22 Z " />
<glyph glyph-name="Lacute" unicode="&#x139;" horiz-adv-x="494" d="M96 19 C96 9 104 0 115 0 L461 0 C472 0 480 9 480 19 L480 48 C480 58 472 67 461 67 L173 67 L173 681 C173 691 164 700 154 700 L115 700 C104 700 96 691 96 681 L96 19 Z M45 783 C49 775 54 775 68 781 L229 848 C237 851 239 861 235 869 L217 905 C212 914 197 912 191 908 L41 824 C35 821 31 813 35 805 L45 783 Z " />
<glyph glyph-name="lacute" unicode="&#x13a;" horiz-adv-x="240" d="M83 22 C83 10 93 0 105 0 L135 0 C146 0 157 10 157 22 L157 678 C157 689 146 700 135 700 L105 700 C93 700 83 689 83 678 L83 22 Z M36 778 C40 770 45 770 59 776 L220 843 C228 846 230 856 226 864 L208 900 C203 909 188 907 182 903 L32 819 C26 816 22 808 26 800 L36 778 Z " />
<glyph glyph-name="Lcommaaccent" unicode="&#x13b;" horiz-adv-x="494" d="M96 19 C96 9 104 0 115 0 L461 0 C472 0 480 9 480 19 L480 48 C480 58 472 67 461 67 L173 67 L173 681 C173 691 164 700 154 700 L115 700 C104 700 96 691 96 681 L96 19 Z M235 -119 C235 -142 253 -159 280 -159 C292 -159 302 -155 305 -152 C308 -157 310 -164 310 -174 C310 -200 297 -226 281 -239 C276 -244 274 -249 281 -256 L297 -268 C303 -272 307 -273 312 -268 C335 -245 358 -206 358 -156 C358 -101 330 -71 289 -71 C258 -71 235 -89 235 -119 L235 -119 Z " />
<glyph glyph-name="lcommaaccent" unicode="&#x13c;" horiz-adv-x="240" d="M83 22 C83 10 93 0 105 0 L135 0 C146 0 157 10 157 22 L157 678 C157 689 146 700 135 700 L105 700 C93 700 83 689 83 678 L83 22 Z M64 -119 C64 -142 82 -159 109 -159 C121 -159 131 -155 134 -152 C137 -157 139 -164 139 -174 C139 -200 126 -226 110 -239 C105 -244 103 -249 110 -256 L126 -268 C132 -272 136 -273 141 -268 C164 -245 187 -206 187 -156 C187 -101 159 -71 118 -71 C87 -71 64 -89 64 -119 L64 -119 Z " />
<glyph glyph-name="Lcaron" unicode="&#x13d;" horiz-adv-x="502" d="M96 19 C96 9 104 0 115 0 L461 0 C472 0 480 9 480 19 L480 48 C480 58 472 67 461 67 L173 67 L173 681 C173 691 164 700 154 700 L115 700 C104 700 96 691 96 681 L96 19 Z M334 662 C334 639 352 622 379 622 C391 622 401 626 404 629 C407 624 409 617 409 607 C409 581 396 555 380 542 C375 537 373 532 380 525 L396 513 C402 509 406 508 411 513 C434 536 457 575 457 625 C457 680 429 710 388 710 C357 710 334 692 334 662 L334 662 Z " />
<glyph glyph-name="lcaron" unicode="&#x13e;" horiz-adv-x="240" d="M83 22 C83 10 93 0 105 0 L135 0 C146 0 157 10 157 22 L157 678 C157 689 146 700 135 700 L105 700 C93 700 83 689 83 678 L83 22 Z M210 663 C210 640 228 623 255 623 C267 623 277 627 280 630 C283 625 285 618 285 608 C285 582 272 556 256 543 C251 538 249 533 256 526 L272 514 C278 510 282 509 287 514 C310 537 333 576 333 626 C333 681 305 711 264 711 C233 711 210 693 210 663 L210 663 Z " />
<glyph glyph-name="Ldot" unicode="&#x13f;" horiz-adv-x="516" d="M96 19 C96 9 104 0 115 0 L461 0 C472 0 480 9 480 19 L480 48 C480 58 472 67 461 67 L173 67 L173 681 C173 691 164 700 154 700 L115 700 C104 700 96 691 96 681 L96 19 Z M438 292 C470 292 495 318 495 349 C495 381 470 406 438 406 C407 406 381 381 381 349 C381 318 407 292 438 292 L438 292 Z " />
<glyph glyph-name="ldot" unicode="&#x140;" horiz-adv-x="345" d="M83 22 C83 10 93 0 105 0 L135 0 C146 0 157 10 157 22 L157 678 C157 689 146 700 135 700 L105 700 C93 700 83 689 83 678 L83 22 Z M292 288 C324 288 349 314 349 345 C349 377 324 402 292 402 C261 402 235 377 235 345 C235 314 261 288 292 288 L292 288 Z " />
<glyph glyph-name="Lslash" unicode="&#x141;" horiz-adv-x="494" d="M96 19 C96 9 104 0 115 0 L461 0 C472 0 480 9 480 19 L480 48 C480 58 472 67 461 67 L173 67 L173 356 L306 432 C315 438 318 449 313 458 L310 464 C306 472 294 477 284 471 L173 407 L173 681 C173 691 164 700 154 700 L115 700 C104 700 96 691 96 681 L96 362 L53 338 C44 333 42 322 46 314 L50 306 C55 297 64 292 75 299 L96 311 L96 19 Z " />
<glyph glyph-name="lslash" unicode="&#x142;" horiz-adv-x="290" d="M93 22 C93 10 103 0 115 0 L145 0 C156 0 167 10 167 22 L167 363 L276 426 C285 432 288 443 283 452 L280 458 C275 466 264 471 254 465 L167 415 L167 678 C167 689 156 700 145 700 L115 700 C103 700 93 689 93 678 L93 372 L23 332 C14 326 12 314 17 306 L20 300 C25 291 37 288 45 293 L93 320 L93 22 Z " />
<glyph glyph-name="Nacute" unicode="&#x143;" horiz-adv-x="762" d="M96 19 C96 9 105 0 115 0 L150 0 C161 0 169 9 169 19 L169 563 C169 563 170 563 170 563 L623 -2 C627 -8 632 -10 639 -10 L647 -10 C657 -10 666 -2 666 8 L666 681 C666 691 657 700 647 700 L612 700 C601 700 593 691 593 681 L593 148 C592 148 592 148 591 148 L146 702 C142 708 137 710 130 710 L115 710 C105 710 96 702 96 692 L96 19 Z M303 783 C307 775 312 775 326 781 L487 848 C495 851 497 861 493 869 L475 905 C470 914 455 912 449 908 L299 824 C293 821 289 813 293 805 L303 783 Z " />
<glyph glyph-name="nacute" unicode="&#x144;" horiz-adv-x="539" d="M78 22 C78 10 88 0 100 0 L130 0 C141 0 152 10 152 22 L152 341 C152 341 207 405 294 405 C362 405 392 364 392 276 L392 22 C392 10 402 0 414 0 L444 0 C455 0 466 10 466 22 L466 266 C466 385 433 472 299 472 C203 472 144 413 144 413 L134 448 C132 458 126 462 116 462 L100 462 C88 462 78 451 78 440 L78 22 Z M185 561 C189 553 194 553 208 559 L369 626 C377 629 379 639 375 647 L357 683 C352 692 337 690 331 686 L181 602 C175 599 171 591 175 583 L185 561 Z " />
<glyph glyph-name="Ncommaaccent" unicode="&#x145;" horiz-adv-x="762" d="M96 19 C96 9 105 0 115 0 L150 0 C161 0 169 9 169 19 L169 563 C169 563 170 563 170 563 L623 -2 C627 -8 632 -10 639 -10 L647 -10 C657 -10 666 -2 666 8 L666 681 C666 691 657 700 647 700 L612 700 C601 700 593 691 593 681 L593 148 C592 148 592 148 591 148 L146 702 C142 708 137 710 130 710 L115 710 C105 710 96 702 96 692 L96 19 Z M329 -119 C329 -142 347 -159 374 -159 C386 -159 396 -155 399 -152 C402 -157 404 -164 404 -174 C404 -200 391 -226 375 -239 C370 -244 368 -249 375 -256 L391 -268 C397 -272 401 -273 406 -268 C429 -245 452 -206 452 -156 C452 -101 424 -71 383 -71 C352 -71 329 -89 329 -119 L329 -119 Z " />
<glyph glyph-name="ncommaaccent" unicode="&#x146;" horiz-adv-x="539" d="M78 22 C78 10 88 0 100 0 L130 0 C141 0 152 10 152 22 L152 341 C152 341 207 405 294 405 C362 405 392 364 392 276 L392 22 C392 10 402 0 414 0 L444 0 C455 0 466 10 466 22 L466 266 C466 385 433 472 299 472 C203 472 144 413 144 413 L134 448 C132 458 126 462 116 462 L100 462 C88 462 78 451 78 440 L78 22 Z M217 -119 C217 -142 235 -159 262 -159 C274 -159 284 -155 287 -152 C290 -157 292 -164 292 -174 C292 -200 279 -226 263 -239 C258 -244 256 -249 263 -256 L279 -268 C285 -272 289 -273 294 -268 C317 -245 340 -206 340 -156 C340 -101 312 -71 271 -71 C240 -71 217 -89 217 -119 L217 -119 Z " />
<glyph glyph-name="Ncaron" unicode="&#x147;" horiz-adv-x="762" d="M96 19 C96 9 105 0 115 0 L150 0 C161 0 169 9 169 19 L169 563 C169 563 170 563 170 563 L623 -2 C627 -8 632 -10 639 -10 L647 -10 C657 -10 666 -2 666 8 L666 681 C666 691 657 700 647 700 L612 700 C601 700 593 691 593 681 L593 148 C592 148 592 148 591 148 L146 702 C142 708 137 710 130 710 L115 710 C105 710 96 702 96 692 L96 19 Z M386 768 C392 768 395 769 399 772 L506 856 C514 862 534 873 525 885 L511 905 C506 912 500 915 488 907 L386 837 L284 905 C272 913 266 910 261 903 L247 885 C242 878 247 870 253 866 L373 772 C377 769 382 768 386 768 L386 768 Z " />
<glyph glyph-name="ncaron" unicode="&#x148;" horiz-adv-x="539" d="M78 22 C78 10 88 0 100 0 L130 0 C141 0 152 10 152 22 L152 341 C152 341 207 405 294 405 C362 405 392 364 392 276 L392 22 C392 10 402 0 414 0 L444 0 C455 0 466 10 466 22 L466 266 C466 385 433 472 299 472 C203 472 144 413 144 413 L134 448 C132 458 126 462 116 462 L100 462 C88 462 78 451 78 440 L78 22 Z M261 546 C265 543 270 542 274 542 C280 542 283 543 287 546 L394 630 C402 636 422 647 413 659 L399 679 C394 686 388 689 376 681 L274 611 L172 679 C160 687 154 684 149 677 L135 659 C130 652 135 644 141 640 L261 546 Z " />
<glyph glyph-name="napostrophe" unicode="&#x149;" horiz-adv-x="539" d="M-41 663 C-41 640 -23 623 4 623 C16 623 26 627 29 630 C32 625 34 618 34 608 C34 582 21 556 5 543 C0 538 -2 533 5 526 L21 514 C27 510 31 509 36 514 C59 537 82 576 82 626 C82 681 54 711 13 711 C-18 711 -41 693 -41 663 L-41 663 Z M78 22 C78 10 88 0 100 0 L130 0 C141 0 152 10 152 22 L152 341 C152 341 207 405 294 405 C362 405 392 364 392 276 L392 22 C392 10 402 0 414 0 L444 0 C455 0 466 10 466 22 L466 266 C466 385 433 472 299 472 C203 472 144 413 144 413 L134 448 C132 458 126 462 116 462 L100 462 C88 462 78 451 78 440 L78 22 Z " />
<glyph glyph-name="Eng" unicode="&#x14a;" horiz-adv-x="763" d="M667 681 C667 691 658 700 648 700 L612 700 C601 700 593 691 593 681 L593 148 L591 148 L140 710 L115 710 C105 710 96 702 96 692 L96 19 C96 9 105 0 115 0 L150 0 C161 0 169 9 169 19 L169 563 L170 563 L593 32 L593 -57 C593 -137 566 -162 519 -179 C508 -183 500 -192 505 -206 L515 -236 C518 -246 525 -250 536 -248 C612 -232 667 -175 667 -50 L667 681 Z " />
<glyph glyph-name="eng" unicode="&#x14b;" horiz-adv-x="540" d="M392 276 L392 -57 C392 -137 365 -162 318 -179 C307 -183 299 -192 304 -206 L314 -236 C317 -246 324 -250 335 -248 C411 -232 466 -175 466 -50 L466 266 C466 385 433 472 299 472 C203 472 144 413 144 413 L134 448 C132 458 126 462 116 462 L100 462 C88 462 78 451 78 440 L78 22 C78 10 88 0 100 0 L130 0 C141 0 152 10 152 22 L152 341 C152 341 207 405 294 405 C362 405 392 364 392 276 L392 276 Z " />
<glyph glyph-name="Omacron" unicode="&#x14c;" horiz-adv-x="823" d="M52 349 C52 149 211 -10 411 -10 C611 -10 771 149 771 349 C771 549 611 710 411 710 C211 710 52 549 52 349 L52 349 Z M122 349 C122 508 252 640 411 640 C570 640 701 508 701 349 C701 190 570 60 411 60 C252 60 122 190 122 349 L122 349 Z M284 821 L540 821 C551 821 559 829 559 839 L559 860 C559 871 551 879 540 879 L284 879 C273 879 265 871 265 860 L265 839 C265 829 273 821 284 821 L284 821 Z " />
<glyph glyph-name="omacron" unicode="&#x14d;" horiz-adv-x="560" d="M48 232 C48 100 152 -11 280 -11 C408 -11 512 100 512 232 C512 362 408 472 280 472 C152 472 48 362 48 232 L48 232 Z M121 232 C121 326 189 405 280 405 C371 405 438 326 438 232 C438 136 371 56 280 56 C189 56 121 136 121 232 L121 232 Z M151 583 L407 583 C418 583 426 591 426 601 L426 622 C426 633 418 641 407 641 L151 641 C140 641 132 633 132 622 L132 601 C132 591 140 583 151 583 L151 583 Z " />
<glyph glyph-name="Obreve" unicode="&#x14e;" horiz-adv-x="823" d="M52 349 C52 149 211 -10 411 -10 C611 -10 771 149 771 349 C771 549 611 710 411 710 C211 710 52 549 52 349 L52 349 Z M122 349 C122 508 252 640 411 640 C570 640 701 508 701 349 C701 190 570 60 411 60 C252 60 122 190 122 349 L122 349 Z M412 771 C481 771 536 820 547 885 C549 896 544 905 533 905 L510 905 C501 905 495 899 491 888 C480 853 449 824 412 824 C372 824 342 850 331 888 C328 897 323 905 312 905 L291 905 C279 905 275 896 277 885 C286 820 342 771 412 771 L412 771 Z " />
<glyph glyph-name="obreve" unicode="&#x14f;" horiz-adv-x="560" d="M48 232 C48 100 152 -11 280 -11 C408 -11 512 100 512 232 C512 362 408 472 280 472 C152 472 48 362 48 232 L48 232 Z M121 232 C121 326 189 405 280 405 C371 405 438 326 438 232 C438 136 371 56 280 56 C189 56 121 136 121 232 L121 232 Z M278 531 C347 531 402 580 413 645 C415 656 410 665 399 665 L376 665 C367 665 361 659 357 648 C346 613 315 584 278 584 C238 584 208 610 197 648 C194 657 189 665 178 665 L157 665 C145 665 141 656 143 645 C152 580 208 531 278 531 L278 531 Z " />
<glyph glyph-name="Ohungarumlaut" unicode="&#x150;" horiz-adv-x="823" d="M52 349 C52 149 211 -10 411 -10 C611 -10 771 149 771 349 C771 549 611 710 411 710 C211 710 52 549 52 349 L52 349 Z M122 349 C122 508 252 640 411 640 C570 640 701 508 701 349 C701 190 570 60 411 60 C252 60 122 190 122 349 L122 349 Z M508 769 L519 769 C526 769 533 776 537 784 L615 923 C622 936 616 948 597 948 L558 948 C548 948 542 939 539 929 L489 788 C486 778 498 769 508 769 L508 769 Z M342 769 L353 769 C360 769 367 776 371 784 L449 923 C456 936 450 948 431 948 L392 948 C382 948 376 939 373 929 L323 788 C320 778 332 769 342 769 L342 769 Z " />
<glyph glyph-name="ohungarumlaut" unicode="&#x151;" horiz-adv-x="560" d="M48 232 C48 100 152 -11 280 -11 C408 -11 512 100 512 232 C512 362 408 472 280 472 C152 472 48 362 48 232 L48 232 Z M121 232 C121 326 189 405 280 405 C371 405 438 326 438 232 C438 136 371 56 280 56 C189 56 121 136 121 232 L121 232 Z M359 521 L378 521 C385 521 392 528 396 536 L474 675 C481 688 475 700 456 700 L417 700 C407 700 401 691 398 681 L348 540 C345 530 349 521 359 521 L359 521 Z M193 521 L212 521 C219 521 226 528 230 536 L308 675 C315 688 309 700 290 700 L251 700 C241 700 235 691 232 681 L182 540 C179 530 183 521 193 521 L193 521 Z " />
<glyph glyph-name="OE" unicode="&#x152;" horiz-adv-x="958" d="M52 349 C52 149 211 -10 411 -10 C456 -10 497 0 497 0 L891 0 C902 0 910 9 910 19 L910 48 C910 58 902 67 891 67 L555 67 L555 322 L842 322 C852 322 861 330 861 341 L861 370 C861 380 852 389 842 389 L555 389 L555 633 L891 633 C902 633 910 642 910 652 L910 681 C910 691 902 700 891 700 L497 700 C497 700 456 710 411 710 C211 710 52 549 52 349 L52 349 Z M122 349 C122 508 252 639 411 639 C434 639 456 636 478 631 L478 67 C456 62 434 60 411 60 C252 60 122 190 122 349 L122 349 Z " />
<glyph glyph-name="oe" unicode="&#x153;" horiz-adv-x="900" d="M48 233 C48 101 149 -11 277 -11 C353 -11 424 33 466 94 C506 33 567 -11 648 -11 C728 -11 790 20 818 42 C835 55 829 60 822 71 L809 91 C801 103 786 98 780 94 C743 72 713 56 656 56 C580 56 506 125 502 214 L834 214 C844 214 854 222 855 234 C856 242 857 254 857 262 C857 390 763 472 648 472 C567 472 506 435 466 373 C424 434 353 472 277 472 C149 472 48 363 48 233 L48 233 Z M504 272 C511 343 570 405 648 405 C724 405 780 350 783 272 L504 272 Z M119 232 C119 326 188 405 279 405 C370 405 436 326 436 232 C436 136 370 56 279 56 C188 56 119 136 119 232 L119 232 Z " />
<glyph glyph-name="Racute" unicode="&#x154;" horiz-adv-x="650" d="M96 19 C96 9 104 0 115 0 L154 0 C164 0 173 9 173 19 L173 274 L364 274 L494 15 C499 5 504 0 516 0 L564 0 C581 0 588 16 581 29 L444 283 C531 318 592 395 592 487 C592 606 494 700 374 700 L115 700 C104 700 96 691 96 681 L96 19 Z M175 340 L175 627 L369 627 C446 627 513 562 513 486 C513 404 446 340 369 340 L175 340 Z M220 783 C224 775 229 775 243 781 L404 848 C412 851 414 861 410 869 L392 905 C387 914 372 912 366 908 L216 824 C210 821 206 813 210 805 L220 783 Z " />
<glyph glyph-name="racute" unicode="&#x155;" horiz-adv-x="386" d="M78 22 C78 10 88 0 100 0 L130 0 C141 0 152 10 152 22 L152 342 C152 342 188 401 277 401 C299 401 316 393 327 388 C338 383 349 384 354 399 L367 435 C378 467 321 472 286 472 C190 472 144 413 144 413 L136 446 C133 457 125 462 116 462 L100 462 C88 462 78 451 78 440 L78 22 Z M123 561 C127 553 132 553 146 559 L307 626 C315 629 317 639 313 647 L295 683 C290 692 275 690 269 686 L119 602 C113 599 109 591 113 583 L123 561 Z " />
<glyph glyph-name="Rcommaaccent" unicode="&#x156;" horiz-adv-x="650" d="M96 19 C96 9 104 0 115 0 L154 0 C164 0 173 9 173 19 L173 274 L364 274 L494 15 C499 5 504 0 516 0 L564 0 C581 0 588 16 581 29 L444 283 C531 318 592 395 592 487 C592 606 494 700 374 700 L115 700 C104 700 96 691 96 681 L96 19 Z M175 340 L175 627 L369 627 C446 627 513 562 513 486 C513 404 446 340 369 340 L175 340 Z M256 -119 C256 -142 274 -159 301 -159 C313 -159 323 -155 326 -152 C329 -157 331 -164 331 -174 C331 -200 318 -226 302 -239 C297 -244 295 -249 302 -256 L318 -268 C324 -272 328 -273 333 -268 C356 -245 379 -206 379 -156 C379 -101 351 -71 310 -71 C279 -71 256 -89 256 -119 L256 -119 Z " />
<glyph glyph-name="rcommaaccent" unicode="&#x157;" horiz-adv-x="386" d="M78 22 C78 10 88 0 100 0 L130 0 C141 0 152 10 152 22 L152 342 C152 342 188 401 277 401 C299 401 316 393 327 388 C338 383 349 384 354 399 L367 435 C378 467 321 472 286 472 C190 472 144 413 144 413 L136 446 C133 457 125 462 116 462 L100 462 C88 462 78 451 78 440 L78 22 Z M63 -119 C63 -142 81 -159 108 -159 C120 -159 130 -155 133 -152 C136 -157 138 -164 138 -174 C138 -200 125 -226 109 -239 C104 -244 102 -249 109 -256 L125 -268 C131 -272 135 -273 140 -268 C163 -245 186 -206 186 -156 C186 -101 158 -71 117 -71 C86 -71 63 -89 63 -119 L63 -119 Z " />
<glyph glyph-name="Rcaron" unicode="&#x158;" horiz-adv-x="650" d="M96 19 C96 9 104 0 115 0 L154 0 C164 0 173 9 173 19 L173 274 L364 274 L494 15 C499 5 504 0 516 0 L564 0 C581 0 588 16 581 29 L444 283 C531 318 592 395 592 487 C592 606 494 700 374 700 L115 700 C104 700 96 691 96 681 L96 19 Z M175 340 L175 627 L369 627 C446 627 513 562 513 486 C513 404 446 340 369 340 L175 340 Z M300 768 C306 768 309 769 313 772 L420 856 C428 862 448 873 439 885 L425 905 C420 912 414 915 402 907 L300 837 L198 905 C186 913 180 910 175 903 L161 885 C156 878 161 870 167 866 L287 772 C291 769 296 768 300 768 L300 768 Z " />
<glyph glyph-name="rcaron" unicode="&#x159;" horiz-adv-x="386" d="M78 22 C78 10 88 0 100 0 L130 0 C141 0 152 10 152 22 L152 342 C152 342 188 401 277 401 C299 401 316 393 327 388 C338 383 349 384 354 399 L367 435 C378 467 321 472 286 472 C190 472 144 413 144 413 L136 446 C133 457 125 462 116 462 L100 462 C88 462 78 451 78 440 L78 22 Z M184 546 C188 543 193 542 197 542 C203 542 206 543 210 546 L317 630 C325 636 345 647 336 659 L322 679 C317 686 311 689 299 681 L197 611 L95 679 C83 687 77 684 72 677 L58 659 C53 652 58 644 64 640 L184 546 Z " />
<glyph glyph-name="Sacute" unicode="&#x15a;" horiz-adv-x="532" d="M63 71 C76 59 156 -10 274 -10 C391 -10 490 70 490 174 C490 290 403 341 268 396 C184 431 133 462 133 533 C133 575 165 643 271 643 C327 643 362 628 404 603 C420 594 431 594 439 608 L449 625 C460 644 449 656 443 659 C443 659 370 710 272 710 C113 710 59 600 59 532 C59 418 125 376 235 329 C350 280 410 240 410 171 C410 108 357 57 276 57 C187 57 111 124 104 130 C90 142 82 137 72 124 L57 105 C43 87 55 78 63 71 L63 71 Z M193 783 C197 775 202 775 216 781 L377 848 C385 851 387 861 383 869 L365 905 C360 914 345 912 339 908 L189 824 C183 821 179 813 183 805 L193 783 Z " />
<glyph glyph-name="sacute" unicode="&#x15b;" horiz-adv-x="406" d="M207 -11 C301 -11 364 48 364 121 C364 205 295 235 215 272 C159 298 127 313 127 354 C127 376 144 405 195 405 C238 405 270 390 290 378 C300 372 315 373 322 386 L332 405 C339 418 337 428 327 436 C305 452 255 472 195 472 C88 472 52 399 52 351 C52 272 122 239 183 209 C250 176 286 158 286 114 C286 78 254 56 207 56 C148 56 108 85 92 97 C79 106 71 102 65 91 L51 65 C47 57 49 50 54 45 C78 23 130 -11 207 -11 L207 -11 Z M127 561 C131 553 136 553 150 559 L311 626 C319 629 321 639 317 647 L299 683 C294 692 279 690 273 686 L123 602 C117 599 113 591 117 583 L127 561 Z " />
<glyph glyph-name="Scircumflex" unicode="&#x15c;" horiz-adv-x="532" d="M63 71 C76 59 156 -10 274 -10 C391 -10 490 70 490 174 C490 290 403 341 268 396 C184 431 133 462 133 533 C133 575 165 643 271 643 C327 643 362 628 404 603 C420 594 431 594 439 608 L449 625 C460 644 449 656 443 659 C443 659 370 710 272 710 C113 710 59 600 59 532 C59 418 125 376 235 329 C350 280 410 240 410 171 C410 108 357 57 276 57 C187 57 111 124 104 130 C90 142 82 137 72 124 L57 105 C43 87 55 78 63 71 L63 71 Z M148 775 C153 768 159 765 171 773 L273 841 L375 771 C395 757 403 781 412 793 C417 800 412 808 406 812 L286 906 C282 909 279 910 273 910 C269 910 264 909 260 906 L140 812 C134 808 129 800 134 793 L148 775 Z " />
<glyph glyph-name="scircumflex" unicode="&#x15d;" horiz-adv-x="405" d="M207 -11 C301 -11 364 48 364 121 C364 205 295 235 215 272 C159 298 127 313 127 354 C127 376 144 405 195 405 C238 405 270 390 290 378 C300 372 315 373 322 386 L332 405 C339 418 337 428 327 436 C305 452 255 472 195 472 C88 472 52 399 52 351 C52 272 122 239 183 209 C250 176 286 158 286 114 C286 78 254 56 207 56 C148 56 108 85 92 97 C79 106 71 102 65 91 L51 65 C47 57 49 50 54 45 C78 23 130 -11 207 -11 L207 -11 Z M83 555 C88 548 94 545 106 553 L208 621 L310 551 C330 537 338 561 347 573 C352 580 347 588 341 592 L221 686 C217 689 214 690 208 690 C204 690 199 689 195 686 L75 592 C69 588 64 580 69 573 L83 555 Z " />
<glyph glyph-name="Scedilla" unicode="&#x15e;" horiz-adv-x="532" d="M63 71 C74 60 139 4 237 -7 L189 -106 C186 -113 194 -122 201 -119 C211 -114 231 -109 249 -109 C280 -109 302 -119 302 -150 C302 -177 280 -191 246 -191 C223 -191 206 -181 196 -171 C187 -165 180 -166 175 -176 L167 -191 C163 -199 161 -206 167 -212 C184 -228 212 -240 249 -240 C308 -240 362 -203 362 -146 C362 -86 316 -63 274 -63 C264 -63 255 -65 249 -67 L286 -10 C397 -5 490 69 490 170 C490 286 403 337 268 392 C184 427 133 466 133 533 C133 575 165 643 271 643 C332 643 395 601 402 597 C418 588 428 592 437 606 L449 625 C461 644 449 656 443 659 C443 659 370 710 272 710 C113 710 59 600 59 532 C59 418 125 372 235 325 C350 276 410 236 410 167 C410 108 357 57 276 57 C187 57 114 127 107 133 C93 145 82 137 72 124 L57 105 C45 86 55 78 63 71 L63 71 Z " />
<glyph glyph-name="scedilla" unicode="&#x15f;" horiz-adv-x="406" d="M364 121 C364 205 295 235 215 272 C159 298 127 313 127 357 C127 376 144 405 195 405 C238 405 270 390 290 378 C300 372 315 373 322 386 L332 405 C339 418 334 430 324 438 C302 454 255 472 195 472 C88 472 52 399 52 351 C52 272 122 239 183 209 C250 176 286 158 286 114 C286 78 254 56 207 56 C148 56 113 83 97 95 C84 104 71 102 65 91 L51 65 C47 57 52 45 57 40 C77 23 112 0 166 -8 L119 -106 C116 -113 124 -122 131 -119 C141 -114 161 -109 179 -109 C210 -109 232 -119 232 -150 C232 -177 210 -191 176 -191 C153 -191 136 -181 126 -171 C117 -165 110 -166 105 -176 L97 -191 C93 -199 91 -206 97 -212 C114 -228 142 -240 179 -240 C238 -240 291 -203 291 -146 C291 -86 246 -63 204 -63 C194 -63 185 -65 179 -67 L215 -11 C304 -8 364 50 364 121 L364 121 Z " />
<glyph glyph-name="Scaron" unicode="&#x160;" horiz-adv-x="532" d="M63 71 C76 59 156 -10 274 -10 C391 -10 490 70 490 174 C490 290 403 341 268 396 C184 431 133 462 133 533 C133 575 165 643 271 643 C327 643 362 628 404 603 C420 594 431 594 439 608 L449 625 C460 644 449 656 443 659 C443 659 370 710 272 710 C113 710 59 600 59 532 C59 418 125 376 235 329 C350 280 410 240 410 171 C410 108 357 57 276 57 C187 57 111 124 104 130 C90 142 82 137 72 124 L57 105 C43 87 55 78 63 71 L63 71 Z M273 768 C279 768 282 769 286 772 L393 856 C401 862 421 873 412 885 L398 905 C393 912 387 915 375 907 L273 837 L171 905 C159 913 153 910 148 903 L134 885 C129 878 134 870 140 866 L260 772 C264 769 269 768 273 768 L273 768 Z " />
<glyph glyph-name="scaron" unicode="&#x161;" horiz-adv-x="406" d="M207 -11 C301 -11 364 48 364 121 C364 205 295 235 215 272 C159 298 127 313 127 354 C127 376 144 405 195 405 C238 405 270 390 290 378 C300 372 315 373 322 386 L332 405 C339 418 337 428 327 436 C305 452 255 472 195 472 C88 472 52 399 52 351 C52 272 122 239 183 209 C250 176 286 158 286 114 C286 78 254 56 207 56 C148 56 108 85 92 97 C79 106 71 102 65 91 L51 65 C47 57 49 50 54 45 C78 23 130 -11 207 -11 L207 -11 Z M196 546 C200 543 205 542 209 542 C215 542 218 543 222 546 L329 630 C337 636 357 647 348 659 L334 679 C329 686 323 689 311 681 L209 611 L107 679 C95 687 89 684 84 677 L70 659 C65 652 70 644 76 640 L196 546 Z " />
<glyph glyph-name="Tcommaaccent" unicode="&#x162;" horiz-adv-x="514" d="M219 19 C219 11 224 4 231 1 L183 -98 C180 -105 188 -114 195 -111 C205 -106 221 -101 239 -101 C270 -101 292 -115 292 -146 C292 -173 270 -191 236 -191 C213 -191 196 -181 186 -171 C177 -165 170 -166 165 -176 L157 -191 C153 -199 151 -206 157 -212 C174 -228 202 -240 239 -240 C298 -240 348 -203 348 -146 C348 -86 306 -63 264 -63 C254 -63 245 -65 239 -67 L283 1 C290 4 295 11 295 19 L295 633 L469 633 C480 633 488 642 488 652 L488 681 C488 691 480 700 469 700 L45 700 C34 700 26 691 26 681 L26 652 C26 642 34 633 45 633 L219 633 L219 19 Z " />
<glyph glyph-name="tcommaaccent" unicode="&#x163;" horiz-adv-x="380" d="M109 398 L109 117 C109 51 124 -2 195 -10 L152 -98 C149 -105 157 -114 164 -111 C174 -106 190 -101 208 -101 C239 -101 261 -115 261 -146 C261 -173 239 -191 205 -191 C182 -191 165 -181 155 -171 C146 -165 139 -166 134 -176 L126 -191 C122 -199 120 -206 126 -212 C143 -228 171 -240 208 -240 C267 -240 317 -203 317 -146 C317 -86 275 -63 233 -63 C223 -63 214 -65 208 -67 L245 -9 C292 -3 328 14 345 26 C357 34 359 41 353 56 L343 79 C338 90 332 99 314 88 C295 76 267 56 224 56 C198 56 183 74 183 122 L183 398 L319 398 C332 398 342 408 342 420 L342 440 C342 453 332 462 319 462 L183 462 L183 592 C183 604 174 615 162 614 L131 612 C120 611 109 602 109 590 L109 462 L48 462 C34 462 25 453 25 440 L25 420 C25 408 34 398 48 398 L109 398 Z " />
<glyph glyph-name="Tcaron" unicode="&#x164;" horiz-adv-x="514" d="M219 19 C219 9 228 0 238 0 L276 0 C286 0 295 9 295 19 L295 633 L469 633 C480 633 488 642 488 652 L488 681 C488 691 480 700 469 700 L45 700 C34 700 26 691 26 681 L26 652 C26 642 34 633 45 633 L219 633 L219 19 Z M256 768 C262 768 265 769 269 772 L376 856 C384 862 404 873 395 885 L381 905 C376 912 370 915 358 907 L256 837 L154 905 C142 913 136 910 131 903 L117 885 C112 878 117 870 123 866 L243 772 C247 769 252 768 256 768 L256 768 Z " />
<glyph glyph-name="tcaron" unicode="&#x165;" horiz-adv-x="379" d="M108 398 L108 117 C108 45 126 -11 214 -11 C276 -11 324 12 344 26 C356 34 358 41 352 56 L343 77 C338 88 332 97 314 86 C295 74 266 56 223 56 C197 56 182 74 182 122 L182 398 L318 398 C331 398 341 408 341 420 L341 440 C341 453 331 462 318 462 L182 462 L182 592 C182 604 173 615 161 614 L130 612 C119 611 108 602 108 590 L108 462 L47 462 C33 462 24 453 24 440 L24 420 C24 408 33 398 47 398 L108 398 Z M329 663 C329 640 347 623 374 623 C386 623 396 627 399 630 C402 625 404 618 404 608 C404 582 391 556 375 543 C370 538 368 533 375 526 L391 514 C397 510 401 509 406 514 C429 537 452 576 452 626 C452 681 424 711 383 711 C352 711 329 693 329 663 L329 663 Z " />
<glyph glyph-name="Tbar" unicode="&#x166;" horiz-adv-x="514" d="M219 19 C219 9 228 0 238 0 L276 0 C286 0 295 9 295 19 L295 295 L399 295 C410 295 418 303 418 313 L418 321 C418 331 410 340 399 340 L295 340 L295 633 L469 633 C480 633 488 642 488 652 L488 681 C488 691 480 700 469 700 L45 700 C34 700 26 691 26 681 L26 652 C26 642 34 633 45 633 L219 633 L219 340 L115 340 C105 340 97 331 97 321 L97 314 C97 304 105 295 115 295 L219 295 L219 19 Z " />
<glyph glyph-name="tbar" unicode="&#x167;" horiz-adv-x="381" d="M110 117 C110 45 128 -11 216 -11 C278 -11 326 12 346 26 C358 34 360 41 354 56 L344 79 C339 90 333 99 315 88 C296 76 268 56 225 56 C199 56 184 70 184 116 L184 204 L295 204 C308 204 317 213 317 225 L317 234 C317 246 308 256 295 256 L184 256 L184 398 L320 398 C333 398 343 408 343 420 L343 440 C343 453 333 462 320 462 L184 462 L184 592 C184 604 175 615 163 614 L132 612 C121 611 110 602 110 590 L110 462 L49 462 C35 462 26 453 26 440 L26 420 C26 408 35 398 49 398 L110 398 L110 256 L60 256 C49 256 39 246 39 234 L39 226 C39 214 49 204 60 204 L110 204 L110 117 Z " />
<glyph glyph-name="Utilde" unicode="&#x168;" horiz-adv-x="708" d="M89 254 C89 102 196 -10 353 -10 C511 -10 619 102 619 254 L619 681 C619 691 610 700 600 700 L562 700 C551 700 543 691 543 681 L543 258 C543 144 471 61 353 61 C236 61 165 146 165 260 L165 681 C165 691 157 700 146 700 L108 700 C98 700 89 691 89 681 L89 254 Z M233 795 C246 788 255 795 258 805 C265 826 275 855 302 855 C330 855 357 780 412 780 C467 780 491 832 501 861 C503 868 509 881 497 887 L481 895 C470 900 461 897 458 887 C453 870 441 836 413 836 C382 836 363 910 303 910 C237 910 220 844 211 826 C208 819 207 808 215 804 L233 795 Z " />
<glyph glyph-name="utilde" unicode="&#x169;" horiz-adv-x="526" d="M73 191 C73 69 105 -11 238 -11 C321 -11 364 31 381 49 L390 20 C393 8 398 0 411 0 L427 0 C438 0 448 10 448 22 L448 440 C448 451 438 462 427 462 L396 462 C384 462 375 451 375 440 L375 123 C354 99 313 56 244 56 C177 56 147 98 147 190 L147 440 C147 451 137 462 125 462 L95 462 C82 462 73 451 73 440 L73 191 Z M139 575 C152 568 161 575 164 585 C171 606 181 635 208 635 C236 635 263 560 318 560 C373 560 397 612 407 641 C409 648 415 661 403 667 L387 675 C376 680 367 677 364 667 C359 650 347 616 319 616 C288 616 269 690 209 690 C143 690 126 624 117 606 C114 599 113 588 121 584 L139 575 Z " />
<glyph glyph-name="Umacron" unicode="&#x16a;" horiz-adv-x="708" d="M89 254 C89 102 196 -10 353 -10 C511 -10 619 102 619 254 L619 681 C619 691 610 700 600 700 L562 700 C551 700 543 691 543 681 L543 258 C543 144 471 61 353 61 C236 61 165 146 165 260 L165 681 C165 691 157 700 146 700 L108 700 C98 700 89 691 89 681 L89 254 Z M225 821 L481 821 C492 821 500 829 500 839 L500 860 C500 871 492 879 481 879 L225 879 C214 879 206 871 206 860 L206 839 C206 829 214 821 225 821 L225 821 Z " />
<glyph glyph-name="umacron" unicode="&#x16b;" horiz-adv-x="526" d="M73 191 C73 69 105 -11 238 -11 C321 -11 364 31 381 49 L390 20 C393 8 398 0 411 0 L427 0 C438 0 448 10 448 22 L448 440 C448 451 438 462 427 462 L396 462 C384 462 375 451 375 440 L375 123 C354 99 313 56 244 56 C177 56 147 98 147 190 L147 440 C147 451 137 462 125 462 L95 462 C82 462 73 451 73 440 L73 191 Z M136 583 L392 583 C403 583 411 591 411 601 L411 622 C411 633 403 641 392 641 L136 641 C125 641 117 633 117 622 L117 601 C117 591 125 583 136 583 L136 583 Z " />
<glyph glyph-name="Ubreve" unicode="&#x16c;" horiz-adv-x="708" d="M89 254 C89 102 196 -10 353 -10 C511 -10 619 102 619 254 L619 681 C619 691 610 700 600 700 L562 700 C551 700 543 691 543 681 L543 258 C543 144 471 61 353 61 C236 61 165 146 165 260 L165 681 C165 691 157 700 146 700 L108 700 C98 700 89 691 89 681 L89 254 Z M352 771 C421 771 476 820 487 885 C489 896 484 905 473 905 L450 905 C441 905 435 899 431 888 C420 853 389 824 352 824 C312 824 282 850 271 888 C268 897 263 905 252 905 L231 905 C219 905 215 896 217 885 C226 820 282 771 352 771 L352 771 Z " />
<glyph glyph-name="ubreve" unicode="&#x16d;" horiz-adv-x="526" d="M73 191 C73 69 105 -11 238 -11 C321 -11 364 31 381 49 L390 20 C393 8 398 0 411 0 L427 0 C438 0 448 10 448 22 L448 440 C448 451 438 462 427 462 L396 462 C384 462 375 451 375 440 L375 123 C354 99 313 56 244 56 C177 56 147 98 147 190 L147 440 C147 451 137 462 125 462 L95 462 C82 462 73 451 73 440 L73 191 Z M265 531 C334 531 389 580 400 645 C402 656 397 665 386 665 L363 665 C354 665 348 659 344 648 C333 613 302 584 265 584 C225 584 195 610 184 648 C181 657 176 665 165 665 L144 665 C132 665 128 656 130 645 C139 580 195 531 265 531 L265 531 Z " />
<glyph glyph-name="Uring" unicode="&#x16e;" horiz-adv-x="708" d="M89 254 C89 102 196 -10 353 -10 C511 -10 619 102 619 254 L619 681 C619 691 610 700 600 700 L562 700 C551 700 543 691 543 681 L543 258 C543 144 471 61 353 61 C236 61 165 146 165 260 L165 681 C165 691 157 700 146 700 L108 700 C98 700 89 691 89 681 L89 254 Z M352 758 C412 758 461 806 461 867 C461 928 412 976 352 976 C291 976 243 928 243 867 C243 806 291 758 352 758 L352 758 Z M352 806 C320 806 291 835 291 867 C291 899 320 926 352 926 C384 926 411 899 411 867 C411 835 384 806 352 806 L352 806 Z " />
<glyph glyph-name="uring" unicode="&#x16f;" horiz-adv-x="526" d="M73 191 C73 69 105 -11 238 -11 C321 -11 364 31 381 49 L390 20 C393 8 398 0 411 0 L427 0 C438 0 448 10 448 22 L448 440 C448 451 438 462 427 462 L396 462 C384 462 375 451 375 440 L375 123 C354 99 313 56 244 56 C177 56 147 98 147 190 L147 440 C147 451 137 462 125 462 L95 462 C82 462 73 451 73 440 L73 191 Z M266 513 C326 513 375 561 375 622 C375 683 326 731 266 731 C205 731 157 683 157 622 C157 561 205 513 266 513 L266 513 Z M266 561 C234 561 205 590 205 622 C205 654 234 681 266 681 C298 681 325 654 325 622 C325 590 298 561 266 561 L266 561 Z " />
<glyph glyph-name="Uhungarumlaut" unicode="&#x170;" horiz-adv-x="708" d="M89 254 C89 102 196 -10 353 -10 C511 -10 619 102 619 254 L619 681 C619 691 610 700 600 700 L562 700 C551 700 543 691 543 681 L543 258 C543 144 471 61 353 61 C236 61 165 146 165 260 L165 681 C165 691 157 700 146 700 L108 700 C98 700 89 691 89 681 L89 254 Z M441 769 L452 769 C459 769 466 776 470 784 L548 923 C555 936 549 948 530 948 L491 948 C481 948 475 939 472 929 L422 788 C419 778 431 769 441 769 L441 769 Z M275 769 L286 769 C293 769 300 776 304 784 L382 923 C389 936 383 948 364 948 L325 948 C315 948 309 939 306 929 L256 788 C253 778 265 769 275 769 L275 769 Z " />
<glyph glyph-name="uhungarumlaut" unicode="&#x171;" horiz-adv-x="526" d="M73 191 C73 69 105 -11 238 -11 C321 -11 364 31 381 49 L390 20 C393 8 398 0 411 0 L427 0 C438 0 448 10 448 22 L448 440 C448 451 438 462 427 462 L396 462 C384 462 375 451 375 440 L375 123 C354 99 313 56 244 56 C177 56 147 98 147 190 L147 440 C147 451 137 462 125 462 L95 462 C82 462 73 451 73 440 L73 191 Z M340 521 L359 521 C366 521 373 528 377 536 L455 675 C462 688 456 700 437 700 L398 700 C388 700 382 691 379 681 L329 540 C326 530 330 521 340 521 L340 521 Z M174 521 L193 521 C200 521 207 528 211 536 L289 675 C296 688 290 700 271 700 L232 700 C222 700 216 691 213 681 L163 540 C160 530 164 521 174 521 L174 521 Z " />
<glyph glyph-name="Uogonek" unicode="&#x172;" horiz-adv-x="708" d="M89 258 C89 109 191 -5 343 -10 C304 -38 260 -81 260 -144 C260 -200 294 -244 359 -244 C395 -244 428 -229 442 -221 C452 -214 455 -206 454 -197 L453 -163 C452 -154 444 -152 437 -158 C429 -164 403 -184 374 -184 C342 -184 323 -164 323 -131 C323 -72 385 -25 424 -1 C542 27 619 130 619 258 L619 681 C619 691 610 700 600 700 L562 700 C551 700 543 691 543 681 L543 262 C543 148 471 61 353 61 C236 61 165 150 165 264 L165 681 C165 691 157 700 146 700 L108 700 C98 700 89 691 89 681 L89 258 Z " />
<glyph glyph-name="uogonek" unicode="&#x173;" horiz-adv-x="526" d="M73 197 C73 75 105 -11 238 -11 C334 -11 381 49 381 49 L390 19 C346 -9 264 -68 264 -144 C264 -200 298 -244 363 -244 C399 -244 432 -229 446 -221 C456 -214 459 -206 458 -197 L457 -163 C456 -154 448 -152 441 -158 C433 -164 407 -184 378 -184 C346 -184 327 -164 327 -131 C327 -70 392 -22 431 0 C440 2 448 11 448 22 L448 440 C448 451 438 462 427 462 L396 462 C384 462 375 451 375 440 L375 123 C375 123 332 56 244 56 C177 56 147 104 147 196 L147 440 C147 451 137 462 125 462 L95 462 C82 462 73 451 73 440 L73 197 Z " />
<glyph glyph-name="Wcircumflex" unicode="&#x174;" horiz-adv-x="886" d="M218 4 C220 -4 228 -10 236 -10 L252 -10 C259 -10 266 -5 269 1 L439 542 L444 542 L617 1 C620 -5 627 -10 634 -10 L650 -10 C658 -10 666 -4 668 4 L857 676 C861 690 853 700 839 700 L797 700 C789 700 781 693 779 686 L643 168 L639 168 L469 699 C467 705 460 710 452 710 L434 710 C425 710 419 705 417 699 L250 168 L246 168 L107 686 C105 693 97 700 89 700 L47 700 C33 700 25 690 29 676 L218 4 Z M317 775 C322 768 328 765 340 773 L442 841 L544 771 C564 757 572 781 581 793 C586 800 581 808 575 812 L455 906 C451 909 448 910 442 910 C438 910 433 909 429 906 L309 812 C303 808 298 800 303 793 L317 775 Z " />
<glyph glyph-name="wcircumflex" unicode="&#x175;" horiz-adv-x="702" d="M351 348 L490 1 C493 -5 500 -11 510 -11 L516 -11 C525 -11 533 -6 535 1 L661 436 C666 451 661 462 645 462 L610 462 C601 462 593 457 591 449 L506 134 L504 134 L375 461 C373 467 365 472 356 472 L350 472 C339 472 332 467 330 461 L200 135 L198 135 L113 449 C111 457 103 462 92 462 L58 462 C40 462 36 451 40 436 L168 1 C171 -6 177 -11 188 -11 L194 -11 C205 -11 211 -5 213 1 L349 348 L351 348 Z M225 555 C230 548 236 545 248 553 L350 621 L452 551 C472 537 480 561 489 573 C494 580 489 588 483 592 L363 686 C359 689 356 690 350 690 C346 690 341 689 337 686 L217 592 C211 588 206 580 211 573 L225 555 Z " />
<glyph glyph-name="Ycircumflex" unicode="&#x176;" horiz-adv-x="574" d="M248 19 C248 9 256 0 267 0 L306 0 C316 0 325 9 325 19 L325 338 L569 671 C577 684 569 700 553 700 L506 700 C499 700 493 695 490 691 L288 412 L86 691 C83 695 77 700 70 700 L23 700 C7 700 -1 684 7 671 L248 337 L248 19 Z M163 775 C168 768 174 765 186 773 L288 841 L390 771 C410 757 418 781 427 793 C432 800 427 808 421 812 L301 906 C297 909 294 910 288 910 C284 910 279 909 275 906 L155 812 C149 808 144 800 149 793 L163 775 Z " />
<glyph glyph-name="ycircumflex" unicode="&#x177;" horiz-adv-x="500" d="M198 1 L109 -210 C102 -226 110 -238 128 -238 L164 -238 C172 -238 181 -231 184 -224 L473 436 C480 451 473 462 455 462 L418 462 C409 462 401 457 398 449 L242 82 L240 82 L109 449 C106 457 98 462 89 462 L47 462 C29 462 23 452 29 437 L198 1 Z M125 555 C130 548 136 545 148 553 L250 621 L352 551 C372 537 380 561 389 573 C394 580 389 588 383 592 L263 686 C259 689 256 690 250 690 C246 690 241 689 237 686 L117 592 C111 588 106 580 111 573 L125 555 Z " />
<glyph glyph-name="Ydieresis" unicode="&#x178;" horiz-adv-x="574" d="M248 19 C248 9 256 0 267 0 L306 0 C316 0 325 9 325 19 L325 338 L569 671 C577 684 569 700 553 700 L506 700 C499 700 493 695 490 691 L288 412 L86 691 C83 695 77 700 70 700 L23 700 C7 700 -1 684 7 671 L248 337 L248 19 Z M393 788 C422 788 445 811 445 839 C445 868 422 891 393 891 C365 891 342 868 342 839 C342 811 365 788 393 788 L393 788 Z M182 788 C211 788 234 811 234 839 C234 868 211 891 182 891 C154 891 131 868 131 839 C131 811 154 788 182 788 L182 788 Z " />
<glyph glyph-name="Zacute" unicode="&#x179;" horiz-adv-x="528" d="M27 19 C27 9 36 0 46 0 L460 0 C471 0 479 9 479 19 L479 51 C479 61 471 70 460 70 L130 70 L130 71 L494 659 C497 665 499 671 499 678 L499 681 C499 691 490 700 480 700 L75 700 C65 700 56 691 56 681 L56 649 C56 639 65 630 75 630 L390 630 L390 627 L32 46 C29 40 27 34 27 27 L27 19 Z M202 783 C206 775 211 775 225 781 L386 848 C394 851 396 861 392 869 L374 905 C369 914 354 912 348 908 L198 824 C192 821 188 813 192 805 L202 783 Z " />
<glyph glyph-name="zacute" unicode="&#x17a;" horiz-adv-x="414" d="M38 22 C38 10 48 0 60 0 L336 0 C350 0 358 10 358 22 L358 41 C358 55 350 63 336 63 L143 63 L143 66 L379 430 C382 434 383 438 383 442 C383 454 377 462 362 462 L69 462 C58 462 50 453 50 440 L50 421 C50 409 58 399 69 399 L278 399 L278 396 L44 42 C40 36 38 31 38 24 L38 22 Z M119 561 C123 553 128 553 142 559 L303 626 C311 629 313 639 309 647 L291 683 C286 692 271 690 265 686 L115 602 C109 599 105 591 109 583 L119 561 Z " />
<glyph glyph-name="Zdotaccent" unicode="&#x17b;" horiz-adv-x="528" d="M27 19 C27 9 36 0 46 0 L460 0 C471 0 479 9 479 19 L479 51 C479 61 471 70 460 70 L130 70 L130 71 L494 659 C497 665 499 671 499 678 L499 681 C499 691 490 700 480 700 L75 700 C65 700 56 691 56 681 L56 649 C56 639 65 630 75 630 L390 630 L390 627 L32 46 C29 40 27 34 27 27 L27 19 Z M282 798 C313 798 337 823 337 852 C337 884 313 908 282 908 C252 908 228 884 228 852 C228 823 252 798 282 798 L282 798 Z " />
<glyph glyph-name="zdotaccent" unicode="&#x17c;" horiz-adv-x="414" d="M38 22 C38 10 48 0 60 0 L336 0 C350 0 358 10 358 22 L358 41 C358 55 350 63 336 63 L143 63 L143 66 L379 430 C382 434 383 438 383 442 C383 454 377 462 362 462 L69 462 C58 462 50 453 50 440 L50 421 C50 409 58 399 69 399 L278 399 L278 396 L44 42 C40 36 38 31 38 24 L38 22 Z M216 581 C247 581 271 606 271 635 C271 667 247 691 216 691 C186 691 162 667 162 635 C162 606 186 581 216 581 L216 581 Z " />
<glyph glyph-name="Zcaron" unicode="&#x17d;" horiz-adv-x="528" d="M27 19 C27 9 36 0 46 0 L460 0 C471 0 479 9 479 19 L479 51 C479 61 471 70 460 70 L130 70 L130 71 L494 659 C497 665 499 671 499 678 L499 681 C499 691 490 700 480 700 L75 700 C65 700 56 691 56 681 L56 649 C56 639 65 630 75 630 L390 630 L390 627 L32 46 C29 40 27 34 27 27 L27 19 Z M282 768 C288 768 291 769 295 772 L402 856 C410 862 430 873 421 885 L407 905 C402 912 396 915 384 907 L282 837 L180 905 C168 913 162 910 157 903 L143 885 C138 878 143 870 149 866 L269 772 C273 769 278 768 282 768 L282 768 Z " />
<glyph glyph-name="zcaron" unicode="&#x17e;" horiz-adv-x="414" d="M38 22 C38 10 48 0 60 0 L336 0 C350 0 358 10 358 22 L358 41 C358 55 350 63 336 63 L143 63 L143 66 L379 430 C382 434 383 438 383 442 C383 454 377 462 362 462 L69 462 C58 462 50 453 50 440 L50 421 C50 409 58 399 69 399 L278 399 L278 396 L44 42 C40 36 38 31 38 24 L38 22 Z M201 546 C205 543 210 542 214 542 C220 542 223 543 227 546 L334 630 C342 636 362 647 353 659 L339 679 C334 686 328 689 316 681 L214 611 L112 679 C100 687 94 684 89 677 L75 659 C70 652 75 644 81 640 L201 546 Z " />
<glyph glyph-name="florin" unicode="&#x192;" horiz-adv-x="343" d="M111 -79 C111 -156 74 -187 28 -187 C3 -187 -32 -168 -45 -158 C-55 -150 -65 -149 -71 -159 L-87 -185 C-91 -192 -90 -202 -83 -208 C-65 -225 -28 -249 27 -249 C113 -249 180 -195 180 -79 L180 340 L296 340 C307 340 315 349 315 359 L315 381 C315 392 307 400 296 400 L180 400 L180 540 C180 617 217 648 263 648 C294 648 323 629 336 619 C346 611 356 610 362 620 L378 646 C382 653 381 663 374 669 C356 686 319 710 264 710 C178 710 111 656 111 540 L111 400 L50 400 C39 400 31 392 31 381 L31 359 C31 349 39 340 50 340 L111 340 L111 -79 Z " />
<glyph glyph-name="Aringacute" unicode="&#x1fa;" horiz-adv-x="665" d="M242 903 C246 895 251 895 265 901 L426 968 C434 971 436 981 432 989 L414 1025 C409 1034 394 1032 388 1028 L238 944 C232 941 228 933 232 925 L242 903 Z M24 0 L64 0 C73 0 79 6 81 11 L154 176 L509 176 L583 11 C585 6 591 0 600 0 L640 0 C655 0 663 13 657 26 L368 670 C410 684 441 725 441 773 C441 834 392 882 332 882 C271 882 223 834 223 773 C223 724 254 683 297 669 L7 26 C1 13 9 0 24 0 L24 0 Z M332 712 C300 712 271 741 271 773 C271 805 300 832 332 832 C364 832 391 805 391 773 C391 741 364 712 332 712 L332 712 Z M182 238 L328 566 L336 566 L482 238 L182 238 Z " />
<glyph glyph-name="aringacute" unicode="&#x1fb;" horiz-adv-x="471" d="M227 510 C287 510 336 545 336 606 C336 667 287 702 227 702 C166 702 118 667 118 606 C118 545 166 510 227 510 L227 510 Z M227 558 C195 558 166 574 166 606 C166 638 195 652 227 652 C259 652 286 638 286 606 C286 574 259 558 227 558 L227 558 Z M133 717 C137 709 141 708 156 713 L317 762 C325 764 327 775 323 783 L305 819 C300 828 286 826 279 823 L129 758 C123 755 119 747 123 739 L133 717 Z M42 140 C42 47 104 -11 185 -11 C256 -11 304 24 328 48 L337 17 C340 7 344 0 356 0 L375 0 C387 0 397 10 397 22 L397 278 C397 414 372 472 254 472 C178 472 118 452 95 442 C84 437 77 431 81 417 L91 390 C95 379 101 373 113 378 C134 385 187 405 250 405 C316 405 327 363 326 278 C326 278 276 293 227 293 C108 293 42 228 42 140 L42 140 Z M115 140 C115 199 163 230 227 230 C273 230 310 220 325 212 L325 118 C305 88 255 56 198 56 C147 56 115 93 115 140 L115 140 Z " />
<glyph glyph-name="AEacute" unicode="&#x1fc;" horiz-adv-x="889" d="M8 0 L49 0 C56 0 64 6 68 11 L172 176 L409 176 L409 19 C409 9 417 0 428 0 L822 0 C833 0 841 9 841 19 L841 48 C841 58 833 67 822 67 L480 67 L480 322 L773 322 C783 322 792 330 792 341 L792 370 C792 380 783 389 773 389 L480 389 L480 633 L822 633 C833 633 841 642 841 652 L841 681 C841 691 833 700 822 700 L444 700 C418 700 410 689 397 669 L-4 26 C-12 13 -7 0 8 0 L8 0 Z M208 238 L409 566 L409 238 L208 238 Z M527 784 C531 776 536 776 550 782 L711 849 C719 852 721 862 717 870 L699 906 C694 915 679 913 673 909 L523 825 C517 822 513 814 517 806 L527 784 Z " />
<glyph glyph-name="aeacute" unicode="&#x1fd;" horiz-adv-x="790" d="M43 142 C43 48 105 -11 195 -11 C269 -11 332 31 364 71 C405 17 463 -11 538 -11 C618 -11 679 20 708 42 C725 55 721 60 713 71 L697 94 C686 109 679 104 664 94 C637 76 595 56 546 56 C483 56 426 90 397 139 L397 214 L724 214 C746 214 747 239 747 262 C747 390 654 472 539 472 C478 472 423 447 385 409 C368 448 337 472 259 472 C170 472 97 445 97 445 C84 441 76 434 78 422 L84 394 C86 382 97 374 108 378 C129 384 183 405 255 405 C313 405 327 372 325 286 C325 286 270 292 214 292 C107 292 43 229 43 142 L43 142 Z M399 274 L399 327 C425 370 481 405 538 405 C608 405 668 349 668 274 L399 274 Z M117 141 C117 198 168 231 226 231 C288 231 325 222 325 222 L325 116 C306 87 259 56 210 56 C163 56 117 82 117 141 L117 141 Z M339 561 C343 553 348 553 362 559 L523 626 C531 629 533 639 529 647 L511 683 C506 692 491 690 485 686 L335 602 C329 599 325 591 329 583 L339 561 Z " />
<glyph glyph-name="Oslashacute" unicode="&#x1fe;" horiz-adv-x="823" d="M82 22 L86 18 C93 11 105 10 112 17 L173 78 C236 23 319 -10 411 -10 C611 -10 771 149 771 349 C771 440 737 524 682 588 L745 651 C752 658 752 670 745 677 L740 682 C733 689 721 689 714 682 L651 619 C587 675 503 710 411 710 C211 710 52 549 52 349 C52 256 86 173 142 109 L81 48 C74 41 75 29 82 22 L82 22 Z M193 160 C149 211 122 277 122 349 C122 508 252 640 411 640 C483 640 550 613 601 569 L193 160 Z M224 129 L631 537 C675 487 701 420 701 349 C701 190 570 60 411 60 C340 60 274 86 224 129 L224 129 Z M331 783 C335 775 340 775 354 781 L515 848 C523 851 525 861 521 869 L503 905 C498 914 483 912 477 908 L327 824 C321 821 317 813 321 805 L331 783 Z " />
<glyph glyph-name="oslashacute" unicode="&#x1ff;" horiz-adv-x="559" d="M48 232 C48 176 66 123 98 82 L80 64 C71 56 72 43 81 34 L87 28 C95 20 108 19 116 27 L133 44 C173 10 224 -11 280 -11 C408 -11 512 100 512 232 C512 286 494 337 463 378 L489 404 C499 413 499 426 489 435 L484 440 C476 449 462 449 452 440 L428 416 C388 451 336 472 280 472 C152 472 48 362 48 232 L48 232 Z M120 232 C120 326 189 405 280 405 C318 405 353 390 380 367 L147 132 C130 160 120 195 120 232 L120 232 Z M439 232 C439 136 371 56 280 56 C242 56 208 70 181 93 L413 327 C429 299 439 267 439 232 L439 232 Z M188 561 C192 553 197 553 211 559 L372 626 C380 629 382 639 378 647 L360 683 C355 692 340 690 334 686 L184 602 C178 599 174 591 178 583 L188 561 Z " />
<glyph glyph-name="Scommaaccent" unicode="&#x218;" horiz-adv-x="532" d="M63 71 C76 59 156 -10 274 -10 C391 -10 490 70 490 174 C490 290 403 341 268 396 C184 431 133 462 133 533 C133 575 165 643 271 643 C327 643 362 628 404 603 C420 594 431 594 439 608 L449 625 C460 644 449 656 443 659 C443 659 370 710 272 710 C113 710 59 600 59 532 C59 418 125 376 235 329 C350 280 410 240 410 171 C410 108 357 57 276 57 C187 57 111 124 104 130 C90 142 82 137 72 124 L57 105 C43 87 55 78 63 71 L63 71 Z M222 -119 C222 -142 240 -159 267 -159 C279 -159 289 -155 292 -152 C295 -157 297 -164 297 -174 C297 -200 284 -226 268 -239 C263 -244 261 -249 268 -256 L284 -268 C290 -272 294 -273 299 -268 C322 -245 345 -206 345 -156 C345 -101 317 -71 276 -71 C245 -71 222 -89 222 -119 L222 -119 Z " />
<glyph glyph-name="scommaaccent" unicode="&#x219;" horiz-adv-x="406" d="M207 -11 C301 -11 364 48 364 121 C364 205 295 235 215 272 C159 298 127 313 127 354 C127 376 144 405 195 405 C238 405 270 390 290 378 C300 372 315 373 322 386 L332 405 C339 418 337 428 327 436 C305 452 255 472 195 472 C88 472 52 399 52 351 C52 272 122 239 183 209 C250 176 286 158 286 114 C286 78 254 56 207 56 C148 56 108 85 92 97 C79 106 71 102 65 91 L51 65 C47 57 49 50 54 45 C78 23 130 -11 207 -11 L207 -11 Z M151 -119 C151 -142 169 -159 196 -159 C208 -159 218 -155 221 -152 C224 -157 226 -164 226 -174 C226 -200 213 -226 197 -239 C192 -244 190 -249 197 -256 L213 -268 C219 -272 223 -273 228 -268 C251 -245 274 -206 274 -156 C274 -101 246 -71 205 -71 C174 -71 151 -89 151 -119 L151 -119 Z " />
<glyph glyph-name="uni021A" unicode="&#x21a;" horiz-adv-x="514" d="M219 19 C219 9 228 0 238 0 L276 0 C286 0 295 9 295 19 L295 633 L469 633 C480 633 488 642 488 652 L488 681 C488 691 480 700 469 700 L45 700 C34 700 26 691 26 681 L26 652 C26 642 34 633 45 633 L219 633 L219 19 Z M202 -119 C202 -142 220 -159 247 -159 C259 -159 269 -155 272 -152 C275 -157 277 -164 277 -174 C277 -200 264 -226 248 -239 C243 -244 241 -249 248 -256 L264 -268 C270 -272 274 -273 279 -268 C302 -245 325 -206 325 -156 C325 -101 297 -71 256 -71 C225 -71 202 -89 202 -119 L202 -119 Z " />
<glyph glyph-name="uni021B" unicode="&#x21b;" horiz-adv-x="379" d="M108 398 L108 117 C108 45 126 -11 214 -11 C276 -11 324 12 344 26 C356 34 358 41 352 56 L343 77 C338 88 332 97 314 86 C295 74 266 56 223 56 C197 56 182 74 182 122 L182 398 L318 398 C331 398 341 408 341 420 L341 440 C341 453 331 462 318 462 L182 462 L182 592 C182 604 173 615 161 614 L130 612 C119 611 108 602 108 590 L108 462 L47 462 C33 462 24 453 24 440 L24 420 C24 408 33 398 47 398 L108 398 Z M161 -119 C161 -142 179 -159 206 -159 C218 -159 228 -155 231 -152 C234 -157 236 -164 236 -174 C236 -200 223 -226 207 -239 C202 -244 200 -249 207 -256 L223 -268 C229 -272 233 -273 238 -268 C261 -245 284 -206 284 -156 C284 -101 256 -71 215 -71 C184 -71 161 -89 161 -119 L161 -119 Z " />
<glyph glyph-name="dotlessj" unicode="&#x237;" horiz-adv-x="230" d="M152 440 C152 453 141 462 130 462 L100 462 C88 462 78 453 78 440 L78 -57 C78 -137 51 -162 4 -179 C-7 -183 -15 -192 -10 -206 L0 -236 C3 -246 10 -250 21 -248 C97 -232 152 -175 152 -50 L152 440 Z " />
<glyph glyph-name="circumflex" unicode="&#x2c6;" horiz-adv-x="373" d="M60 555 C65 548 71 545 83 553 L185 621 L287 551 C307 537 315 561 324 573 C329 580 324 588 318 592 L198 686 C194 689 191 690 185 690 C181 690 176 689 172 686 L52 592 C46 588 41 580 46 573 L60 555 Z " />
<glyph glyph-name="caron" unicode="&#x2c7;" horiz-adv-x="373" d="M172 546 C176 543 181 542 185 542 C191 542 194 543 198 546 L305 630 C313 636 333 647 324 659 L310 679 C305 686 299 689 287 681 L185 611 L83 679 C71 687 65 684 60 677 L46 659 C41 652 46 644 52 640 L172 546 Z " />
<glyph glyph-name="uni02C9" unicode="&#x2c9;" horiz-adv-x="414" d="M79 583 L335 583 C346 583 354 591 354 601 L354 622 C354 633 346 641 335 641 L79 641 C68 641 60 633 60 622 L60 601 C60 591 68 583 79 583 L79 583 Z " />
<glyph glyph-name="breve" unicode="&#x2d8;" horiz-adv-x="346" d="M173 531 C242 531 297 580 308 645 C310 656 305 665 294 665 L271 665 C262 665 256 659 252 648 C241 613 210 584 173 584 C133 584 103 610 92 648 C89 657 84 665 73 665 L52 665 C40 665 36 656 38 645 C47 580 103 531 173 531 L173 531 Z " />
<glyph glyph-name="dotaccent" unicode="&#x2d9;" horiz-adv-x="219" d="M108 568 C139 568 163 593 163 622 C163 654 139 678 108 678 C78 678 54 654 54 622 C54 593 78 568 108 568 L108 568 Z " />
<glyph glyph-name="ring" unicode="&#x2da;" horiz-adv-x="290" d="M145 492 C205 492 254 540 254 601 C254 662 205 710 145 710 C84 710 36 662 36 601 C36 540 84 492 145 492 L145 492 Z M145 540 C113 540 84 569 84 601 C84 633 113 660 145 660 C177 660 204 633 204 601 C204 569 177 540 145 540 L145 540 Z " />
<glyph glyph-name="ogonek" unicode="&#x2db;" horiz-adv-x="276" d="M199 3 L139 9 C98 -17 27 -64 27 -144 C27 -200 61 -244 126 -244 C162 -244 195 -229 209 -221 C219 -214 222 -206 221 -197 L220 -163 C219 -154 211 -152 204 -158 C196 -164 170 -184 141 -184 C109 -184 90 -164 90 -131 C90 -68 161 -19 199 3 L199 3 Z " />
<glyph glyph-name="tilde" unicode="&#x2dc;" horiz-adv-x="380" d="M64 575 C77 568 86 575 89 585 C96 606 106 635 133 635 C161 635 188 560 243 560 C298 560 322 612 332 641 C334 648 340 661 328 667 L312 675 C301 680 292 677 289 667 C284 650 272 616 244 616 C213 616 194 690 134 690 C68 690 51 624 42 606 C39 599 38 588 46 584 L64 575 Z " />
<glyph glyph-name="hungarumlaut" unicode="&#x2dd;" horiz-adv-x="392" d="M233 521 L252 521 C259 521 266 528 270 536 L348 675 C355 688 349 700 330 700 L291 700 C281 700 275 691 272 681 L222 540 C219 530 223 521 233 521 L233 521 Z M67 521 L86 521 C93 521 100 528 104 536 L182 675 C189 688 183 700 164 700 L125 700 C115 700 109 691 106 681 L56 540 C53 530 57 521 67 521 L67 521 Z " />
<glyph glyph-name="uni0394" unicode="&#x394;" horiz-adv-x="717" d="M63 0 L655 0 C683 0 680 22 673 37 L376 701 C373 707 367 710 362 710 L357 710 C351 710 346 706 343 701 L45 39 C34 17 37 0 63 0 L63 0 Z M138 71 L358 573 L360 573 L577 71 L138 71 Z " />
<glyph glyph-name="uni03A9" unicode="&#x3a9;" horiz-adv-x="835" d="M77 15 C77 7 84 0 92 0 L340 0 C349 0 354 7 354 15 L354 44 C354 58 348 61 338 66 C216 104 128 220 128 349 C128 506 260 639 417 639 C574 639 707 506 707 349 C707 220 619 104 497 66 C486 61 480 58 480 44 L480 15 C480 7 486 0 494 0 L743 0 C751 0 758 7 758 15 L758 56 C758 64 751 71 743 71 L632 71 C722 125 777 234 777 352 C777 552 617 710 417 710 C217 710 57 552 57 352 C57 234 112 125 203 71 L92 71 C84 71 77 64 77 56 L77 15 Z " />
<glyph glyph-name="uni03BC" unicode="&#x3bc;" horiz-adv-x="531" d="M90 -216 C90 -228 100 -238 112 -238 L142 -238 C153 -238 164 -228 164 -216 L164 9 C187 -4 217 -11 255 -11 C351 -11 398 49 398 49 L407 20 C410 8 415 0 428 0 L444 0 C455 0 465 10 465 22 L465 440 C465 451 455 462 444 462 L413 462 C401 462 392 451 392 440 L392 123 C392 123 349 56 261 56 C194 56 164 104 164 196 L164 440 C164 451 154 462 142 462 L112 462 C99 462 90 451 90 440 L90 -216 Z " />
<glyph glyph-name="pi" unicode="&#x3c0;" horiz-adv-x="680" d="M157 17 C157 8 165 0 173 0 L212 0 C221 0 230 7 230 17 L230 398 L448 398 L448 17 C448 8 456 0 465 0 L506 0 C515 0 522 7 522 17 L522 398 L639 398 C650 398 657 405 657 413 L657 446 C657 455 649 462 639 462 L40 462 C31 462 23 454 23 445 L23 414 C23 407 29 398 40 398 L157 398 L157 17 Z " />
<glyph glyph-name="Wgrave" unicode="&#x1e80;" horiz-adv-x="886" d="M218 4 C220 -4 228 -10 236 -10 L252 -10 C259 -10 266 -5 269 1 L439 542 L444 542 L617 1 C620 -5 627 -10 634 -10 L650 -10 C658 -10 666 -4 668 4 L857 676 C861 690 853 700 839 700 L797 700 C789 700 781 693 779 686 L643 168 L639 168 L469 699 C467 705 460 710 452 710 L434 710 C425 710 419 705 417 699 L250 168 L246 168 L107 686 C105 693 97 700 89 700 L47 700 C33 700 25 690 29 676 L218 4 Z M509 781 C523 775 528 775 532 783 L542 805 C546 813 542 821 536 824 L386 908 C380 912 365 914 360 905 L342 869 C338 861 340 851 348 848 L509 781 Z " />
<glyph glyph-name="wgrave" unicode="&#x1e81;" horiz-adv-x="702" d="M351 348 L490 1 C493 -5 500 -11 510 -11 L516 -11 C525 -11 533 -6 535 1 L661 436 C666 451 661 462 645 462 L610 462 C601 462 593 457 591 449 L506 134 L504 134 L375 461 C373 467 365 472 356 472 L350 472 C339 472 332 467 330 461 L200 135 L198 135 L113 449 C111 457 103 462 92 462 L58 462 C40 462 36 451 40 436 L168 1 C171 -6 177 -11 188 -11 L194 -11 C205 -11 211 -5 213 1 L349 348 L351 348 Z M417 559 C431 553 436 553 440 561 L450 583 C454 591 450 599 444 602 L294 686 C288 690 273 692 268 683 L250 647 C246 639 248 629 256 626 L417 559 Z " />
<glyph glyph-name="Wacute" unicode="&#x1e82;" horiz-adv-x="886" d="M218 4 C220 -4 228 -10 236 -10 L252 -10 C259 -10 266 -5 269 1 L439 542 L444 542 L617 1 C620 -5 627 -10 634 -10 L650 -10 C658 -10 666 -4 668 4 L857 676 C861 690 853 700 839 700 L797 700 C789 700 781 693 779 686 L643 168 L639 168 L469 699 C467 705 460 710 452 710 L434 710 C425 710 419 705 417 699 L250 168 L246 168 L107 686 C105 693 97 700 89 700 L47 700 C33 700 25 690 29 676 L218 4 Z M352 783 C356 775 361 775 375 781 L536 848 C544 851 546 861 542 869 L524 905 C519 914 504 912 498 908 L348 824 C342 821 338 813 342 805 L352 783 Z " />
<glyph glyph-name="wacute" unicode="&#x1e83;" horiz-adv-x="702" d="M351 348 L490 1 C493 -5 500 -11 510 -11 L516 -11 C525 -11 533 -6 535 1 L661 436 C666 451 661 462 645 462 L610 462 C601 462 593 457 591 449 L506 134 L504 134 L375 461 C373 467 365 472 356 472 L350 472 C339 472 332 467 330 461 L200 135 L198 135 L113 449 C111 457 103 462 92 462 L58 462 C40 462 36 451 40 436 L168 1 C171 -6 177 -11 188 -11 L194 -11 C205 -11 211 -5 213 1 L349 348 L351 348 Z M260 561 C264 553 269 553 283 559 L444 626 C452 629 454 639 450 647 L432 683 C427 692 412 690 406 686 L256 602 C250 599 246 591 250 583 L260 561 Z " />
<glyph glyph-name="Wdieresis" unicode="&#x1e84;" horiz-adv-x="886" d="M218 4 C220 -4 228 -10 236 -10 L252 -10 C259 -10 266 -5 269 1 L439 542 L444 542 L617 1 C620 -5 627 -10 634 -10 L650 -10 C658 -10 666 -4 668 4 L857 676 C861 690 853 700 839 700 L797 700 C789 700 781 693 779 686 L643 168 L639 168 L469 699 C467 705 460 710 452 710 L434 710 C425 710 419 705 417 699 L250 168 L246 168 L107 686 C105 693 97 700 89 700 L47 700 C33 700 25 690 29 676 L218 4 Z M547 788 C576 788 599 811 599 839 C599 868 576 891 547 891 C519 891 496 868 496 839 C496 811 519 788 547 788 L547 788 Z M336 788 C365 788 388 811 388 839 C388 868 365 891 336 891 C308 891 285 868 285 839 C285 811 308 788 336 788 L336 788 Z " />
<glyph glyph-name="wdieresis" unicode="&#x1e85;" horiz-adv-x="702" d="M351 348 L490 1 C493 -5 500 -11 510 -11 L516 -11 C525 -11 533 -6 535 1 L661 436 C666 451 661 462 645 462 L610 462 C601 462 593 457 591 449 L506 134 L504 134 L375 461 C373 467 365 472 356 472 L350 472 C339 472 332 467 330 461 L200 135 L198 135 L113 449 C111 457 103 462 92 462 L58 462 C40 462 36 451 40 436 L168 1 C171 -6 177 -11 188 -11 L194 -11 C205 -11 211 -5 213 1 L349 348 L351 348 Z M446 581 C475 581 498 604 498 632 C498 661 475 684 446 684 C418 684 395 661 395 632 C395 604 418 581 446 581 L446 581 Z M253 581 C282 581 305 604 305 632 C305 661 282 684 253 684 C225 684 202 661 202 632 C202 604 225 581 253 581 L253 581 Z " />
<glyph glyph-name="Ygrave" unicode="&#x1ef2;" horiz-adv-x="574" d="M248 19 C248 9 256 0 267 0 L306 0 C316 0 325 9 325 19 L325 338 L569 671 C577 684 569 700 553 700 L506 700 C499 700 493 695 490 691 L288 412 L86 691 C83 695 77 700 70 700 L23 700 C7 700 -1 684 7 671 L248 337 L248 19 Z M355 781 C369 775 374 775 378 783 L388 805 C392 813 388 821 382 824 L232 908 C226 912 211 914 206 905 L188 869 C184 861 186 851 194 848 L355 781 Z " />
<glyph glyph-name="ygrave" unicode="&#x1ef3;" horiz-adv-x="500" d="M198 1 L109 -210 C102 -226 110 -238 128 -238 L164 -238 C172 -238 181 -231 184 -224 L473 436 C480 451 473 462 455 462 L418 462 C409 462 401 457 398 449 L242 82 L240 82 L109 449 C106 457 98 462 89 462 L47 462 C29 462 23 452 29 437 L198 1 Z M310 559 C324 553 329 553 333 561 L343 583 C347 591 343 599 337 602 L187 686 C181 690 166 692 161 683 L143 647 C139 639 141 629 149 626 L310 559 Z " />
<glyph glyph-name="endash" unicode="&#x2013;" horiz-adv-x="540" d="M85 223 L454 223 C465 223 473 231 473 241 L473 252 C473 263 465 271 454 271 L85 271 C74 271 66 263 66 252 L66 241 C66 231 74 223 85 223 L85 223 Z " />
<glyph glyph-name="emdash" unicode="&#x2014;" horiz-adv-x="760" d="M85 223 L674 223 C685 223 693 231 693 241 L693 252 C693 263 685 271 674 271 L85 271 C74 271 66 263 66 252 L66 241 C66 231 74 223 85 223 L85 223 Z " />
<glyph glyph-name="quoteleft" unicode="&#x2018;" horiz-adv-x="233" d="M184 489 C184 511 168 538 136 538 C126 538 110 534 103 529 C100 537 99 545 99 552 C99 604 127 641 155 671 C160 676 163 682 156 689 L137 706 C132 710 127 711 121 705 C86 667 53 614 53 538 C53 477 79 428 128 428 C164 428 184 454 184 489 L184 489 Z " />
<glyph glyph-name="quoteright" unicode="&#x2019;" horiz-adv-x="230" d="M48 650 C48 628 64 601 96 601 C106 601 122 605 129 610 C132 602 133 594 133 587 C133 535 105 498 77 468 C72 463 69 457 76 450 L95 433 C100 429 105 428 111 434 C146 472 179 525 179 601 C179 662 153 711 104 711 C68 711 48 685 48 650 L48 650 Z " />
<glyph glyph-name="quotesinglbase" unicode="&#x201a;" horiz-adv-x="241" d="M57 49 C57 27 73 0 105 0 C115 0 131 4 138 9 C141 1 142 -7 142 -14 C142 -66 114 -103 86 -133 C81 -138 78 -144 85 -151 L104 -168 C109 -172 114 -173 120 -167 C155 -129 188 -76 188 0 C188 61 162 110 113 110 C77 110 57 84 57 49 L57 49 Z " />
<glyph glyph-name="quotedblleft" unicode="&#x201c;" horiz-adv-x="413" d="M184 489 C184 511 168 538 136 538 C126 538 110 534 103 529 C100 537 99 545 99 552 C99 604 127 641 155 671 C160 676 163 682 156 689 L137 706 C132 710 127 711 121 705 C86 667 53 614 53 538 C53 477 79 428 128 428 C164 428 184 454 184 489 L184 489 Z M364 489 C364 511 348 538 316 538 C306 538 290 534 283 529 C280 537 279 545 279 552 C279 604 307 641 335 671 C340 676 343 682 336 689 L317 706 C312 710 307 711 301 705 C266 667 233 614 233 538 C233 477 259 428 308 428 C344 428 364 454 364 489 L364 489 Z " />
<glyph glyph-name="quotedblright" unicode="&#x201d;" horiz-adv-x="410" d="M48 650 C48 628 64 601 96 601 C106 601 122 605 129 610 C132 602 133 594 133 587 C133 535 105 498 77 468 C72 463 69 457 76 450 L95 433 C100 429 105 428 111 434 C146 472 179 525 179 601 C179 662 153 711 104 711 C68 711 48 685 48 650 L48 650 Z M228 650 C228 628 244 601 276 601 C286 601 302 605 309 610 C312 602 313 594 313 587 C313 535 285 498 257 468 C252 463 249 457 256 450 L275 433 C280 429 285 428 291 434 C326 472 359 525 359 601 C359 662 333 711 284 711 C248 711 228 685 228 650 L228 650 Z " />
<glyph glyph-name="quotedblbase" unicode="&#x201e;" horiz-adv-x="420" d="M57 49 C57 27 73 0 105 0 C115 0 131 4 138 9 C141 1 142 -7 142 -14 C142 -66 114 -103 86 -133 C81 -138 78 -144 85 -151 L104 -168 C109 -172 114 -173 120 -167 C155 -129 188 -76 188 0 C188 61 162 110 113 110 C77 110 57 84 57 49 L57 49 Z M236 49 C236 27 252 0 284 0 C294 0 310 4 317 9 C320 1 321 -7 321 -14 C321 -66 293 -103 265 -133 C260 -138 257 -144 264 -151 L283 -168 C288 -172 293 -173 299 -167 C334 -129 367 -76 367 0 C367 61 341 110 292 110 C256 110 236 84 236 49 L236 49 Z " />
<glyph glyph-name="dagger" unicode="&#x2020;" horiz-adv-x="596" d="M58 334 L255 334 L272 -222 C272 -230 282 -238 291 -238 L303 -238 C312 -238 322 -230 322 -222 L339 334 L539 334 C549 334 557 343 557 353 L557 381 C557 391 549 400 539 400 L341 400 L341 681 C341 691 332 700 322 700 L272 700 C262 700 253 691 253 681 L253 400 L58 400 C48 400 39 391 39 381 L39 353 C39 343 48 334 58 334 L58 334 Z " />
<glyph glyph-name="daggerdbl" unicode="&#x2021;" horiz-adv-x="612" d="M77 19 C77 9 86 0 96 0 L272 0 L280 -222 C280 -230 290 -238 299 -238 L311 -238 C320 -238 330 -230 330 -222 L338 0 L517 0 C527 0 535 9 535 19 L535 47 C535 57 527 66 517 66 L340 66 L349 400 L547 400 C557 400 565 409 565 419 L565 447 C565 457 557 466 547 466 L349 466 L349 681 C349 691 340 700 330 700 L280 700 C270 700 261 691 261 681 L261 466 L66 466 C56 466 47 457 47 447 L47 419 C47 409 56 400 66 400 L261 400 L270 66 L96 66 C86 66 77 57 77 47 L77 19 Z " />
<glyph glyph-name="bullet" unicode="&#x2022;" horiz-adv-x="372" d="M184 149 C244 149 293 197 293 254 C293 314 244 363 184 363 C127 363 79 314 79 254 C79 197 127 149 184 149 L184 149 Z " />
<glyph glyph-name="ellipsis" unicode="&#x2026;" horiz-adv-x="618" d="M447 47 C447 16 473 -10 504 -10 C536 -10 561 16 561 47 C561 79 536 104 504 104 C473 104 447 79 447 47 L447 47 Z M250 47 C250 16 276 -10 307 -10 C339 -10 364 16 364 47 C364 79 339 104 307 104 C276 104 250 79 250 47 L250 47 Z M57 47 C57 16 83 -10 114 -10 C146 -10 171 16 171 47 C171 79 146 104 114 104 C83 104 57 79 57 47 L57 47 Z " />
<glyph glyph-name="perthousand" unicode="&#x2030;" horiz-adv-x="988" d="M184 441 C258 441 319 501 319 576 C319 651 258 711 184 711 C109 711 49 651 49 576 C49 501 109 441 184 441 L184 441 Z M142 27 C135 14 144 0 159 0 L173 0 C182 0 188 6 190 10 L535 673 C542 686 533 700 518 700 L502 700 C494 700 489 697 485 690 L142 27 Z M184 498 C140 498 106 532 106 576 C106 617 140 652 184 652 C225 652 260 617 260 576 C260 532 225 498 184 498 L184 498 Z M675 124 C675 49 735 -11 810 -11 C884 -11 945 49 945 124 C945 199 884 259 810 259 C735 259 675 199 675 124 L675 124 Z M365 124 C365 49 425 -11 500 -11 C574 -11 635 49 635 124 C635 199 574 259 500 259 C425 259 365 199 365 124 L365 124 Z M732 124 C732 165 766 200 810 200 C851 200 886 165 886 124 C886 80 851 46 810 46 C766 46 732 80 732 124 L732 124 Z M422 124 C422 165 456 200 500 200 C541 200 576 165 576 124 C576 80 541 46 500 46 C456 46 422 80 422 124 L422 124 Z " />
<glyph glyph-name="guilsinglleft" unicode="&#x2039;" horiz-adv-x="270" d="M156 69 C159 65 164 61 171 61 L190 61 C207 61 212 75 205 91 L134 238 L208 377 C216 393 210 408 193 408 L179 408 C171 408 166 403 161 396 L52 248 C48 242 46 232 52 224 L156 69 Z " />
<glyph glyph-name="guilsinglright" unicode="&#x203a;" horiz-adv-x="270" d="M79 61 L98 61 C105 61 110 65 113 69 L217 224 C223 232 221 242 217 248 L108 396 C104 402 98 408 90 408 L76 408 C59 408 53 393 61 377 L135 238 L64 91 C57 75 62 61 79 61 L79 61 Z " />
<glyph glyph-name="fraction" unicode="&#x2044;" horiz-adv-x="120" d="M-88 10 L257 673 C264 686 255 700 240 700 L224 700 C216 700 211 697 207 690 L-136 27 C-143 14 -134 0 -119 0 L-105 0 C-96 0 -90 6 -88 10 L-88 10 Z " />
<glyph glyph-name="zerosuperior" unicode="&#x2070;" horiz-adv-x="326" d="M163 494 C242 494 287 553 287 651 C287 750 242 809 163 809 C84 809 39 750 39 651 C39 553 84 494 163 494 L163 494 Z M163 542 C119 542 94 581 94 651 C94 721 119 761 163 761 C207 761 232 721 232 651 C232 581 207 542 163 542 L163 542 Z " />
<glyph glyph-name="foursuperior" unicode="&#x2074;" horiz-adv-x="316" d="M194 504 L226 504 C231 504 236 508 236 513 L236 564 L277 564 C282 564 286 568 286 572 L286 598 C286 602 282 606 277 606 L236 606 L236 791 C236 796 231 800 226 800 L202 800 C200 800 196 799 194 797 L25 604 L25 572 C25 567 29 563 34 563 L184 563 L184 513 C184 508 189 504 194 504 L194 504 Z M80 607 L186 725 L186 607 L80 607 Z " />
<glyph glyph-name="fivesuperior" unicode="&#x2075;" horiz-adv-x="290" d="M141 494 C210 494 260 541 260 598 C260 657 218 696 145 696 L97 696 L97 756 L214 756 C219 756 223 760 223 764 L223 791 C223 796 219 800 214 800 L58 800 C53 800 49 796 49 791 L49 667 C49 659 54 651 64 651 L141 651 C185 651 207 627 207 597 C207 568 181 540 143 540 C107 540 78 564 75 567 C71 571 67 570 63 567 L42 547 C36 542 37 539 43 532 C56 518 87 494 141 494 L141 494 Z " />
<glyph glyph-name="sixsuperior" unicode="&#x2076;" horiz-adv-x="291" d="M150 494 C210 494 260 541 260 598 C260 663 209 696 158 696 C128 696 99 682 94 679 C111 732 187 766 210 773 C219 775 222 780 219 786 L209 809 C207 814 202 817 197 815 C159 803 36 749 36 628 C36 556 74 494 150 494 L150 494 Z M151 541 C106 541 84 587 83 620 C91 632 116 654 149 654 C183 654 211 629 211 598 C211 567 185 541 151 541 L151 541 Z " />
<glyph glyph-name="sevensuperior" unicode="&#x2077;" horiz-adv-x="268" d="M59 504 L93 504 C99 504 102 506 106 513 L249 780 L249 791 C249 796 245 800 240 800 L39 800 C34 800 30 796 30 791 L30 764 C30 759 34 755 39 755 L182 755 L50 518 L50 511 C50 505 53 504 59 504 L59 504 Z " />
<glyph glyph-name="eightsuperior" unicode="&#x2078;" horiz-adv-x="297" d="M147 494 C216 494 259 529 259 578 C259 617 223 646 201 656 L201 658 C221 668 251 694 251 728 C251 778 206 810 148 810 C90 810 46 778 46 728 C46 693 75 667 95 658 L95 656 C79 649 38 617 38 578 C38 529 81 494 147 494 L147 494 Z M148 680 C114 686 99 703 99 725 C99 749 120 767 147 767 C176 767 198 749 198 725 C198 704 182 686 148 680 L148 680 Z M148 537 C119 537 92 554 92 581 C92 603 112 625 148 632 C185 625 205 603 205 581 C205 554 179 537 148 537 L148 537 Z " />
<glyph glyph-name="ninesuperior" unicode="&#x2079;" horiz-adv-x="292" d="M94 487 C132 499 255 553 255 674 C255 746 217 808 141 808 C81 808 31 761 31 704 C31 639 82 606 133 606 C163 606 192 620 197 623 C180 570 104 536 81 529 C72 527 69 522 72 516 L82 493 C84 488 89 485 94 487 L94 487 Z M142 648 C108 648 80 673 80 704 C80 735 106 761 140 761 C185 761 207 715 208 682 C200 670 175 648 142 648 L142 648 Z " />
<glyph glyph-name="zeroinferior" unicode="&#x2080;" horiz-adv-x="326" d="M39 -3 C39 -101 84 -160 163 -160 C242 -160 287 -101 287 -3 C287 96 242 155 163 155 C84 155 39 96 39 -3 L39 -3 Z M94 -3 C94 67 119 107 163 107 C207 107 232 67 232 -3 C232 -73 207 -112 163 -112 C119 -112 94 -73 94 -3 L94 -3 Z " />
<glyph glyph-name="oneinferior" unicode="&#x2081;" horiz-adv-x="184" d="M30 62 C31 58 35 57 40 58 L81 69 L81 -141 C81 -146 85 -150 91 -150 L126 -150 C131 -150 135 -146 135 -141 L135 137 C135 142 132 146 126 146 L98 146 L28 90 C24 86 24 84 25 79 L30 62 Z " />
<glyph glyph-name="twoinferior" unicode="&#x2082;" horiz-adv-x="286" d="M61 79 C63 77 68 74 73 79 C89 95 113 109 135 109 C176 109 192 83 192 62 C192 44 180 28 160 6 L33 -127 L33 -141 C33 -148 38 -150 43 -150 L237 -150 C245 -150 246 -145 246 -141 L246 -116 C246 -110 243 -106 237 -106 L116 -106 L197 -23 C226 7 246 35 246 67 C246 116 210 156 138 156 C79 156 41 111 41 111 C37 108 38 103 41 100 L61 79 Z " />
<glyph glyph-name="threeinferior" unicode="&#x2083;" horiz-adv-x="289" d="M81 12 L81 -13 C81 -19 86 -22 91 -22 L122 -22 C173 -22 195 -45 195 -70 C195 -97 166 -115 135 -115 C101 -115 72 -91 69 -89 C65 -85 61 -85 56 -88 L35 -108 C31 -111 31 -116 34 -119 C45 -131 75 -160 137 -160 C206 -160 251 -123 251 -74 C251 -35 219 -8 195 1 L195 3 C218 12 242 39 242 73 C242 124 195 156 137 156 C82 156 44 116 44 116 C40 113 40 107 44 104 L64 86 C69 82 74 83 77 86 C87 96 104 110 133 110 C161 110 187 92 187 65 C187 41 167 21 122 21 L91 21 C85 21 81 18 81 12 L81 12 Z " />
<glyph glyph-name="fourinferior" unicode="&#x2084;" horiz-adv-x="316" d="M25 -50 L25 -82 C25 -87 29 -91 34 -91 L184 -91 L184 -141 C184 -146 189 -150 194 -150 L226 -150 C231 -150 236 -146 236 -141 L236 -90 L277 -90 C282 -90 286 -86 286 -82 L286 -56 C286 -52 282 -48 277 -48 L236 -48 L236 137 C236 142 231 146 226 146 L202 146 C200 146 196 145 194 143 L25 -50 Z M80 -47 L186 71 L186 -47 L80 -47 Z " />
<glyph glyph-name="fiveinferior" unicode="&#x2085;" horiz-adv-x="290" d="M49 13 C49 5 54 -3 64 -3 L141 -3 C185 -3 207 -27 207 -57 C207 -86 181 -114 143 -114 C107 -114 78 -90 75 -87 C71 -83 67 -84 63 -87 L42 -107 C36 -112 37 -115 43 -122 C56 -136 87 -160 141 -160 C210 -160 260 -113 260 -56 C260 3 218 42 145 42 L97 42 L97 102 L214 102 C219 102 223 106 223 110 L223 137 C223 142 219 146 214 146 L58 146 C53 146 49 142 49 137 L49 13 Z " />
<glyph glyph-name="sixinferior" unicode="&#x2086;" horiz-adv-x="292" d="M37 -26 C37 -98 75 -160 151 -160 C211 -160 261 -113 261 -56 C261 9 210 42 159 42 C129 42 100 28 95 25 C112 78 188 112 211 119 C220 121 223 126 220 132 L210 155 C208 160 203 163 198 161 C160 149 37 95 37 -26 L37 -26 Z M84 -34 C92 -22 117 0 150 0 C184 0 212 -25 212 -56 C212 -87 186 -113 152 -113 C107 -113 85 -67 84 -34 L84 -34 Z " />
<glyph glyph-name="seveninferior" unicode="&#x2087;" horiz-adv-x="270" d="M40 101 L183 101 L51 -136 L51 -143 C51 -149 54 -150 60 -150 L94 -150 C100 -150 103 -148 107 -141 L250 126 L250 137 C250 142 246 146 241 146 L40 146 C35 146 31 142 31 137 L31 110 C31 105 35 101 40 101 L40 101 Z " />
<glyph glyph-name="eightinferior" unicode="&#x2088;" horiz-adv-x="299" d="M39 -76 C39 -125 82 -160 148 -160 C217 -160 260 -125 260 -76 C260 -37 224 -8 202 2 L202 4 C222 14 252 40 252 74 C252 124 207 156 149 156 C91 156 47 124 47 74 C47 39 76 13 96 4 L96 2 C80 -5 39 -37 39 -76 L39 -76 Z M100 71 C100 95 121 113 148 113 C177 113 199 95 199 71 C199 50 183 32 149 26 C115 32 100 49 100 71 L100 71 Z M93 -73 C93 -51 113 -29 149 -22 C186 -29 206 -51 206 -73 C206 -100 180 -117 149 -117 C120 -117 93 -100 93 -73 L93 -73 Z " />
<glyph glyph-name="nineinferior" unicode="&#x2089;" horiz-adv-x="291" d="M31 50 C31 -15 82 -48 133 -48 C163 -48 192 -34 197 -31 C180 -84 104 -118 81 -125 C72 -127 69 -132 72 -138 L82 -161 C84 -166 89 -169 94 -167 C132 -155 255 -101 255 20 C255 92 217 154 141 154 C81 154 31 107 31 50 L31 50 Z M80 50 C80 81 106 107 140 107 C185 107 207 61 208 28 C200 16 175 -6 142 -6 C108 -6 80 19 80 50 L80 50 Z " />
<glyph glyph-name="Euro" unicode="&#x20ac;" horiz-adv-x="600" d="M413 253 C424 253 432 261 432 271 L432 279 C432 289 424 298 413 298 L176 298 C175 315 174 332 174 350 L174 373 L453 373 C464 373 472 381 472 391 L472 399 C472 409 464 418 453 418 L179 418 C196 537 260 638 366 638 C435 638 465 614 501 578 C513 566 526 567 534 577 L554 604 C561 613 560 624 552 632 C506 680 455 710 367 710 C208 710 117 575 97 418 L46 418 C36 418 28 409 28 399 L28 392 C28 382 36 373 46 373 L93 373 L93 349 C93 331 94 314 95 298 L46 298 C36 298 28 289 28 279 L28 272 C28 262 36 253 46 253 L101 253 C128 93 226 -10 357 -10 C436 -10 501 15 558 69 C565 76 566 88 559 96 L535 123 C528 131 518 129 511 123 C465 84 431 63 356 63 C268 63 206 140 183 253 L413 253 Z " />
<glyph glyph-name="afii61289" unicode="&#x2113;" horiz-adv-x="474" d="M104 148 C104 66 137 -10 240 -10 C346 -10 417 40 424 46 C433 55 432 57 427 66 L417 82 C413 90 408 92 397 85 C379 74 324 40 240 40 C173 40 153 94 153 150 C153 182 158 212 164 238 C311 293 450 403 450 579 C450 659 410 711 342 711 C242 711 183 585 140 367 C134 335 128 304 122 273 C101 266 75 261 52 257 C40 255 36 248 39 238 L43 216 C45 208 49 206 59 207 C71 209 92 214 111 220 C107 196 104 174 104 148 L104 148 Z M174 289 L188 359 C225 547 269 660 342 660 C379 660 401 629 401 579 C401 437 295 341 174 289 L174 289 Z " />
<glyph glyph-name="uni2117" unicode="&#x2117;" horiz-adv-x="845" d="M63 350 C63 152 224 -9 422 -9 C620 -9 782 152 782 350 C782 548 620 710 422 710 C224 710 63 548 63 350 L63 350 Z M123 350 C123 516 257 649 422 649 C588 649 721 516 721 350 C721 185 588 51 422 51 C257 51 123 185 123 350 L123 350 Z M311 187 C311 177 319 168 330 168 L356 168 C367 168 375 177 375 187 L375 307 L472 307 C543 307 595 347 595 422 C595 497 534 534 472 534 L330 534 C319 534 311 525 311 515 L311 187 Z M375 365 L375 479 L472 479 C509 479 532 456 532 422 C532 391 509 365 472 365 L375 365 Z " />
<glyph glyph-name="trademark" unicode="&#x2122;" horiz-adv-x="758" d="M351 398 L361 398 C369 398 378 406 380 414 L415 580 L485 405 C487 399 497 395 502 395 L508 395 C514 395 522 399 524 404 L596 580 L630 415 C632 406 640 398 649 398 L661 398 C673 398 682 408 680 420 L627 690 C625 698 616 705 608 705 L604 705 C598 705 589 699 587 694 L505 482 L424 694 C422 699 413 705 407 705 L403 705 C394 705 386 698 384 690 L332 421 C330 409 338 398 351 398 L351 398 Z M178 398 L191 398 C201 398 210 407 210 417 L210 651 L280 651 C291 651 299 659 299 670 L299 681 C299 691 291 700 280 700 L89 700 C79 700 70 691 70 681 L70 670 C70 659 79 651 89 651 L159 651 L159 417 C159 407 167 398 178 398 L178 398 Z " />
<glyph glyph-name="Omega" unicode="&#x2126;" horiz-adv-x="835" d="M77 15 C77 7 84 0 92 0 L340 0 C349 0 354 7 354 15 L354 44 C354 58 348 61 338 66 C216 104 128 220 128 349 C128 506 260 639 417 639 C574 639 707 506 707 349 C707 220 619 104 497 66 C486 61 480 58 480 44 L480 15 C480 7 486 0 494 0 L743 0 C751 0 758 7 758 15 L758 56 C758 64 751 71 743 71 L632 71 C722 125 777 234 777 352 C777 552 617 710 417 710 C217 710 57 552 57 352 C57 234 112 125 203 71 L92 71 C84 71 77 64 77 56 L77 15 Z " />
<glyph glyph-name="estimated" unicode="&#x212e;" horiz-adv-x="839" d="M175 158 L175 325 L773 325 C785 325 792 332 792 349 C790 552 630 711 428 711 C225 711 65 552 65 349 C65 146 225 -11 428 -11 C518 -11 603 21 673 87 C681 95 684 101 677 109 L665 123 C656 131 648 128 642 122 C580 68 503 36 428 36 C329 36 228 81 175 158 L175 158 Z M175 371 L175 541 C232 618 323 663 428 663 C534 663 627 616 683 539 L683 371 L175 371 Z " />
<glyph glyph-name="onethird" unicode="&#x2153;" horiz-adv-x="626" d="M98 27 C91 14 100 0 115 0 L129 0 C138 0 144 6 146 10 L491 673 C498 686 489 700 474 700 L458 700 C450 700 445 697 441 690 L98 27 Z M112 404 L147 404 C152 404 156 408 156 413 L156 691 C156 696 153 700 147 700 L119 700 L49 644 C45 640 45 638 46 633 L51 616 C52 612 56 611 61 612 L102 623 L102 413 C102 408 106 404 112 404 L112 404 Z M358 31 C369 19 399 -10 461 -10 C530 -10 575 27 575 76 C575 115 543 142 519 151 L519 153 C542 162 566 189 566 223 C566 274 519 306 461 306 C406 306 368 266 368 266 C364 263 364 257 368 254 L388 236 C393 232 398 233 401 236 C411 246 428 260 457 260 C485 260 511 242 511 215 C511 191 491 171 446 171 L415 171 C409 171 405 168 405 162 L405 137 C405 131 410 128 415 128 L446 128 C497 128 519 105 519 80 C519 53 490 35 459 35 C425 35 396 59 393 61 C389 65 385 65 380 62 L359 42 C355 39 355 34 358 31 L358 31 Z " />
<glyph glyph-name="twothirds" unicode="&#x2154;" horiz-adv-x="680" d="M61 404 L255 404 C263 404 264 409 264 413 L264 438 C264 444 261 448 255 448 L134 448 L215 531 C244 561 264 589 264 621 C264 670 228 710 156 710 C97 710 59 665 59 665 C55 662 56 657 59 654 L79 633 C81 631 86 628 91 633 C107 649 131 663 153 663 C194 663 210 637 210 616 C210 598 198 582 178 560 L51 427 L51 413 C51 406 56 404 61 404 L61 404 Z M154 27 C147 14 156 0 171 0 L185 0 C194 0 200 6 202 10 L547 673 C554 686 545 700 530 700 L514 700 C506 700 501 697 497 690 L154 27 Z M414 31 C425 19 455 -10 517 -10 C586 -10 631 27 631 76 C631 115 599 142 575 151 L575 153 C598 162 622 189 622 223 C622 274 575 306 517 306 C462 306 424 266 424 266 C420 263 420 257 424 254 L444 236 C449 232 454 233 457 236 C467 246 484 260 513 260 C541 260 567 242 567 215 C567 191 547 171 502 171 L471 171 C465 171 461 168 461 162 L461 137 C461 131 466 128 471 128 L502 128 C553 128 575 105 575 80 C575 53 546 35 515 35 C481 35 452 59 449 61 C445 65 441 65 436 62 L415 42 C411 39 411 34 414 31 L414 31 Z " />
<glyph glyph-name="oneeighth" unicode="&#x215b;" horiz-adv-x="644" d="M98 27 C91 14 100 0 115 0 L129 0 C138 0 144 6 146 10 L491 673 C498 686 489 700 474 700 L458 700 C450 700 445 697 441 690 L98 27 Z M112 404 L147 404 C152 404 156 408 156 413 L156 691 C156 696 153 700 147 700 L119 700 L49 644 C45 640 45 638 46 633 L51 616 C52 612 56 611 61 612 L102 623 L102 413 C102 408 106 404 112 404 L112 404 Z M373 74 C373 25 416 -10 482 -10 C551 -10 594 25 594 74 C594 113 558 142 536 152 L536 154 C556 164 586 190 586 224 C586 274 541 306 483 306 C425 306 381 274 381 224 C381 189 410 163 430 154 L430 152 C414 145 373 113 373 74 L373 74 Z M434 221 C434 245 455 263 482 263 C511 263 533 245 533 221 C533 200 517 182 483 176 C449 182 434 199 434 221 L434 221 Z M427 77 C427 99 447 121 483 128 C520 121 540 99 540 77 C540 50 514 33 483 33 C454 33 427 50 427 77 L427 77 Z " />
<glyph glyph-name="threeeighths" unicode="&#x215c;" horiz-adv-x="685" d="M154 394 C223 394 268 431 268 480 C268 519 236 546 212 555 L212 557 C235 566 259 593 259 627 C259 678 212 710 154 710 C99 710 61 670 61 670 C57 667 57 661 61 658 L81 640 C86 636 91 637 94 640 C104 650 121 664 150 664 C178 664 204 646 204 619 C204 595 184 575 139 575 L108 575 C102 575 98 572 98 566 L98 541 C98 535 103 532 108 532 L139 532 C190 532 212 509 212 484 C212 457 183 439 152 439 C118 439 89 463 86 465 C82 469 78 469 73 466 L52 446 C48 443 48 438 51 435 C62 423 92 394 154 394 L154 394 Z M141 27 C134 14 143 0 158 0 L172 0 C181 0 187 6 189 10 L534 673 C541 686 532 700 517 700 L501 700 C493 700 488 697 484 690 L141 27 Z M416 74 C416 25 459 -10 525 -10 C594 -10 637 25 637 74 C637 113 601 142 579 152 L579 154 C599 164 629 190 629 224 C629 274 584 306 526 306 C468 306 424 274 424 224 C424 189 453 163 473 154 L473 152 C457 145 416 113 416 74 L416 74 Z M477 221 C477 245 498 263 525 263 C554 263 576 245 576 221 C576 200 560 182 526 176 C492 182 477 199 477 221 L477 221 Z M470 77 C470 99 490 121 526 128 C563 121 583 99 583 77 C583 50 557 33 526 33 C497 33 470 50 470 77 L470 77 Z " />
<glyph glyph-name="fiveeighths" unicode="&#x215d;" horiz-adv-x="687" d="M144 27 C137 14 146 0 161 0 L175 0 C184 0 190 6 192 10 L537 673 C544 686 535 700 520 700 L504 700 C496 700 491 697 487 690 L144 27 Z M155 394 C224 394 274 441 274 498 C274 557 232 596 159 596 L111 596 L111 656 L228 656 C233 656 237 660 237 664 L237 691 C237 696 233 700 228 700 L72 700 C67 700 63 696 63 691 L63 567 C63 559 68 551 78 551 L155 551 C199 551 221 527 221 497 C221 468 195 440 157 440 C121 440 92 464 89 467 C85 471 81 470 77 467 L56 447 C50 442 51 439 57 432 C70 418 101 394 155 394 L155 394 Z M419 74 C419 25 462 -10 528 -10 C597 -10 640 25 640 74 C640 113 604 142 582 152 L582 154 C602 164 632 190 632 224 C632 274 587 306 529 306 C471 306 427 274 427 224 C427 189 456 163 476 154 L476 152 C460 145 419 113 419 74 L419 74 Z M480 221 C480 245 501 263 528 263 C557 263 579 245 579 221 C579 200 563 182 529 176 C495 182 480 199 480 221 L480 221 Z M473 77 C473 99 493 121 529 128 C566 121 586 99 586 77 C586 50 560 33 529 33 C500 33 473 50 473 77 L473 77 Z " />
<glyph glyph-name="seveneighths" unicode="&#x215e;" horiz-adv-x="655" d="M111 27 C104 14 113 0 128 0 L142 0 C151 0 157 6 159 10 L504 673 C511 686 502 700 487 700 L471 700 C463 700 458 697 454 690 L111 27 Z M77 404 L111 404 C117 404 120 406 124 413 L267 680 L267 691 C267 696 263 700 258 700 L57 700 C52 700 48 696 48 691 L48 664 C48 659 52 655 57 655 L200 655 L68 418 L68 411 C68 405 71 404 77 404 L77 404 Z M386 74 C386 25 429 -10 495 -10 C564 -10 607 25 607 74 C607 113 571 142 549 152 L549 154 C569 164 599 190 599 224 C599 274 554 306 496 306 C438 306 394 274 394 224 C394 189 423 163 443 154 L443 152 C427 145 386 113 386 74 L386 74 Z M447 221 C447 245 468 263 495 263 C524 263 546 245 546 221 C546 200 530 182 496 176 C462 182 447 199 447 221 L447 221 Z M440 77 C440 99 460 121 496 128 C533 121 553 99 553 77 C553 50 527 33 496 33 C467 33 440 50 440 77 L440 77 Z " />
<glyph glyph-name="partialdiff" unicode="&#x2202;" horiz-adv-x="579" d="M48 226 C48 96 152 -10 275 -10 C442 -10 515 119 515 283 C515 557 281 683 176 724 C166 728 158 723 154 714 L142 689 C137 677 141 665 161 659 C207 644 390 542 426 403 C426 403 358 449 269 449 C153 449 48 363 48 226 L48 226 Z M121 221 C121 311 190 382 276 382 C372 382 439 315 439 315 C442 300 443 284 443 268 C443 171 396 58 275 58 C189 58 121 133 121 221 L121 221 Z " />
<glyph glyph-name="Delta" unicode="&#x2206;" horiz-adv-x="717" d="M63 0 L655 0 C683 0 680 22 673 37 L376 701 C373 707 367 710 362 710 L357 710 C351 710 346 706 343 701 L45 39 C34 17 37 0 63 0 L63 0 Z M138 71 L358 573 L360 573 L577 71 L138 71 Z " />
<glyph glyph-name="product" unicode="&#x220f;" horiz-adv-x="771" d="M106 15 C106 7 113 0 121 0 L169 0 C178 0 184 7 184 15 L184 629 L587 629 L587 15 C587 7 594 0 602 0 L650 0 C659 0 665 7 665 15 L665 685 C665 693 659 700 650 700 L121 700 C113 700 106 693 106 685 L106 15 Z " />
<glyph glyph-name="summation" unicode="&#x2211;" horiz-adv-x="547" d="M48 15 C48 7 54 0 62 0 L467 0 C475 0 482 7 482 15 L482 57 C482 65 475 71 467 71 L178 71 L418 319 C423 325 433 334 433 344 L433 371 C433 383 423 392 418 397 L178 628 L467 628 C475 628 482 635 482 643 L482 685 C482 693 475 700 467 700 L62 700 C54 700 48 693 48 685 L48 667 L358 357 L48 35 L48 15 Z " />
<glyph glyph-name="minus" unicode="&#x2212;" horiz-adv-x="600" d="M110 314 L491 314 C501 314 509 323 509 333 L509 361 C509 371 501 380 491 380 L110 380 C100 380 91 371 91 361 L91 333 C91 323 100 314 110 314 L110 314 Z " />
<glyph glyph-name="uni2215" unicode="&#x2215;" horiz-adv-x="120" d="M-88 10 L257 673 C264 686 255 700 240 700 L224 700 C216 700 211 697 207 690 L-136 27 C-143 14 -134 0 -119 0 L-105 0 C-96 0 -90 6 -88 10 L-88 10 Z " />
<glyph glyph-name="uni2219" unicode="&#x2219;" horiz-adv-x="241" d="M120 204 C152 204 177 230 177 261 C177 293 152 318 120 318 C89 318 63 293 63 261 C63 230 89 204 120 204 L120 204 Z " />
<glyph glyph-name="radical" unicode="&#x221a;" horiz-adv-x="660" d="M202 0 C204 -4 209 -10 215 -10 L221 -10 C227 -10 233 -6 235 0 L522 635 L633 635 C641 635 647 642 647 650 L647 685 C647 693 641 700 633 700 L484 700 C476 700 471 695 469 690 L221 131 L218 131 L107 392 C106 395 101 400 94 400 L43 400 C32 400 28 393 33 383 L202 0 Z " />
<glyph glyph-name="infinity" unicode="&#x221e;" horiz-adv-x="650" d="M210 157 C257 157 300 186 324 223 C348 186 391 157 440 157 C516 157 579 220 579 296 C579 373 516 435 440 435 C391 435 348 407 324 369 C300 407 257 435 210 435 C133 435 71 373 71 296 C71 220 133 157 210 157 L210 157 Z M355 296 C355 342 391 379 438 379 C483 379 521 342 521 296 C521 250 483 213 438 213 C391 213 355 250 355 296 L355 296 Z M211 213 C165 213 128 250 128 296 C128 342 165 379 211 379 C256 379 294 342 294 296 C294 250 256 213 211 213 L211 213 Z " />
</font>
</svg>
