<?xml version="1.0" encoding="UTF-8"?>
<svg xmlns="http://www.w3.org/2000/svg" xmlns:xlink="http://www.w3.org/1999/xlink" version="1.2" >
<font id="Brandon Text Thin">
<font-face  font-family="Brandon Text" units-per-em="1000" ascent="700" descent="-300" font-style="normal" font-weight="100" font-stretch="normal" cap-height="700" x-height="462" underline-position="-75" underline-thickness="50" />
<missing-glyph  horiz-adv-x="599" d="M50 30 C50 9 59 0 80 0 L519 0 C540 0 549 9 549 30 L549 670 C549 691 540 700 519 700 L80 700 C59 700 50 691 50 670 L50 30 Z M262 314 L262 343 C262 418 361 427 361 490 C361 517 340 542 300 542 C252 542 229 513 216 501 C210 497 205 497 199 501 L177 523 C171 528 173 535 177 541 C177 541 220 602 307 602 C378 602 432 556 432 491 C432 404 327 389 327 341 L327 315 C327 306 321 302 312 302 L276 302 C269 302 262 307 262 314 L262 314 Z M245 156 C245 182 267 204 293 204 C320 204 342 182 342 156 C342 130 320 108 293 108 C267 108 245 130 245 156 L245 156 Z " />
<glyph glyph-name=".null" d="" />
<glyph glyph-name="&amp;#x0;" d="" />
<glyph glyph-name="&amp;#xd;" unicode="&#xd;" d="" />
<glyph glyph-name="space" unicode="&#x20;" horiz-adv-x="240" d="" />
<glyph glyph-name="exclam" unicode="&#x21;" horiz-adv-x="223" d="M109 267 L113 267 C117 267 120 270 120 274 L120 693 C120 697 117 700 113 700 L109 700 C105 700 102 697 102 693 L102 274 C102 270 105 267 109 267 L109 267 Z M87 14 C87 1 98 -10 111 -10 C125 -10 135 1 135 14 C135 27 125 37 111 37 C98 37 87 27 87 14 L87 14 Z " />
<glyph glyph-name="quotedbl" unicode="&#x22;" horiz-adv-x="311" d="M228 501 L231 501 C235 501 238 504 238 508 L238 693 C238 697 235 700 231 700 L228 700 C224 700 221 697 221 693 L221 508 C221 504 224 501 228 501 L228 501 Z M80 501 L83 501 C87 501 90 504 90 508 L90 693 C90 697 87 700 83 700 L80 700 C76 700 73 697 73 693 L73 508 C73 504 76 501 80 501 L80 501 Z " />
<glyph glyph-name="numbersign" unicode="&#x23;" horiz-adv-x="561" d="M113 8 C112 3 115 0 120 0 L124 0 C127 0 130 3 131 6 L171 217 L346 217 L305 8 C304 3 307 0 312 0 L316 0 C319 0 322 3 323 6 L363 217 L474 217 C478 217 481 220 481 224 L481 227 C481 231 478 234 474 234 L367 234 L404 428 L502 428 C505 428 508 431 508 435 L508 439 C508 443 505 446 502 446 L407 446 L455 692 C456 697 454 700 449 700 L445 700 C442 700 439 697 438 694 L390 446 L215 446 L263 692 C264 697 261 700 256 700 L253 700 C250 700 247 697 246 694 L198 446 L85 446 C81 446 78 443 78 439 L78 435 C78 431 81 428 85 428 L194 428 L156 234 L57 234 C54 234 51 231 51 227 L51 224 C51 220 54 217 57 217 L154 217 L113 8 Z M175 234 L212 428 L386 428 L349 234 L175 234 Z " />
<glyph glyph-name="dollar" unicode="&#x24;" horiz-adv-x="600" d="M94 73 C106 61 185 -7 300 -10 L300 -123 C300 -126 303 -129 307 -129 L311 -129 C315 -129 318 -126 318 -123 L318 -10 C430 -5 528 72 528 165 C528 276 448 324 318 361 L318 690 C403 686 468 642 468 642 C473 639 479 642 479 648 L481 652 C481 654 479 657 478 658 C478 658 411 704 318 708 L318 752 C318 756 315 759 311 759 L307 759 C303 759 300 756 300 752 L300 709 C146 707 87 615 87 535 C87 418 178 380 300 347 L300 8 C191 10 119 74 107 85 C104 88 100 88 97 85 L94 82 C91 79 91 75 94 73 L94 73 Z M300 366 C183 397 105 433 105 535 C105 607 158 689 300 691 L300 366 Z M318 8 L318 342 C432 309 510 267 510 165 C510 81 420 12 318 8 L318 8 Z " />
<glyph glyph-name="percent" unicode="&#x25;" horiz-adv-x="682" d="M187 427 C265 427 328 490 328 569 C328 647 265 710 187 710 C109 710 46 647 46 569 C46 490 109 427 187 427 L187 427 Z M187 445 C118 445 64 500 64 569 C64 637 118 692 187 692 C255 692 311 637 311 569 C311 500 255 445 187 445 L187 445 Z M356 131 C356 53 418 -10 497 -10 C574 -10 638 53 638 131 C638 210 574 273 497 273 C418 273 356 210 356 131 L356 131 Z M373 131 C373 200 428 255 497 255 C565 255 620 200 620 131 C620 63 565 8 497 8 C428 8 373 63 373 131 L373 131 Z M118 12 C116 9 116 6 119 4 L127 -1 C130 -3 132 -1 134 2 L551 688 C554 693 551 695 549 696 L543 699 C540 701 537 701 535 698 L118 12 Z " />
<glyph glyph-name="ampersand" unicode="&#x26;" horiz-adv-x="677" d="M77 173 C77 74 150 -10 263 -10 C364 -10 448 38 507 110 L618 1 C620 -1 622 -3 625 0 L632 6 C635 9 634 11 631 14 L519 125 C573 196 604 285 604 366 C604 377 603 388 602 399 C602 402 599 405 595 405 L591 405 C587 405 584 401 584 397 C585 386 586 375 586 366 C586 289 557 204 506 136 L264 375 C264 375 264 375 265 375 C365 421 445 485 445 562 C445 636 396 710 290 710 C174 710 125 624 125 562 C125 506 162 450 203 409 L233 378 C146 335 77 275 77 173 L77 173 Z M251 387 C238 399 227 411 215 423 C180 460 142 512 142 562 C142 617 185 692 290 692 C384 692 428 627 428 562 C428 490 351 433 251 387 L251 387 Z M94 173 C94 269 162 325 246 367 L495 122 C438 54 359 8 263 8 C160 8 94 83 94 173 L94 173 Z " />
<glyph glyph-name="quotesingle" unicode="&#x27;" horiz-adv-x="164" d="M80 501 L84 501 C88 501 91 504 91 508 L91 693 C91 697 88 700 84 700 L80 700 C76 700 73 697 73 693 L73 508 C73 504 76 501 80 501 L80 501 Z " />
<glyph glyph-name="parenleft" unicode="&#x28;" horiz-adv-x="333" d="M300 -61 C192 -55 77 34 77 316 C77 597 192 686 300 692 C304 692 307 695 307 699 L307 703 C307 707 304 710 300 710 C184 704 59 610 59 316 C59 22 184 -73 300 -78 C304 -78 307 -75 307 -72 L307 -68 C307 -64 304 -61 300 -61 L300 -61 Z " />
<glyph glyph-name="parenright" unicode="&#x29;" horiz-adv-x="333" d="M33 -61 C29 -61 26 -64 26 -68 L26 -72 C26 -75 29 -78 33 -78 C149 -73 274 22 274 316 C274 610 149 704 33 710 C29 710 26 707 26 703 L26 699 C26 695 29 692 33 692 C141 686 256 597 256 316 C256 34 141 -55 33 -61 L33 -61 Z " />
<glyph glyph-name="asterisk" unicode="&#x2a;" horiz-adv-x="418" d="M207 406 L211 406 C215 406 218 409 218 413 L218 537 L326 475 C330 473 332 473 334 476 L338 483 C339 486 337 489 335 490 L228 553 L335 616 C337 617 339 620 337 623 L334 629 C333 631 331 634 326 631 L218 569 L218 693 C218 697 215 700 211 700 L207 700 C203 700 200 697 200 693 L200 569 L92 631 C87 634 85 631 84 629 L81 623 C79 620 81 617 83 616 L190 553 L83 490 C81 489 79 486 80 483 L84 476 C86 473 88 473 92 475 L200 537 L200 413 C200 409 203 406 207 406 L207 406 Z " />
<glyph glyph-name="plus" unicode="&#x2b;" horiz-adv-x="600" d="M292 153 C292 149 295 146 299 146 L303 146 C307 146 310 149 310 153 L310 339 L495 339 C499 339 502 342 502 346 L502 350 C502 354 499 357 495 357 L310 357 L310 542 C310 546 307 549 303 549 L299 549 C295 549 292 546 292 542 L292 357 L106 357 C102 357 99 354 99 350 L99 346 C99 342 102 339 106 339 L292 339 L292 153 Z " />
<glyph glyph-name="comma" unicode="&#x2c;" horiz-adv-x="186" d="M63 13 C63 0 74 -10 87 -10 C97 -10 102 -6 107 0 C114 -11 118 -29 118 -53 C118 -94 97 -126 71 -146 C67 -149 65 -151 69 -157 L73 -163 C75 -167 78 -167 83 -163 C113 -139 138 -103 138 -49 C138 -11 122 38 89 38 C74 38 63 28 63 13 L63 13 Z " />
<glyph glyph-name="hyphen" unicode="&#x2d;" horiz-adv-x="405" d="M81 243 L324 243 C327 243 330 246 330 250 L330 254 C330 258 327 261 324 261 L81 261 C77 261 75 258 75 254 L75 250 C75 246 77 243 81 243 L81 243 Z " />
<glyph glyph-name="period" unicode="&#x2e;" horiz-adv-x="178" d="M64 15 C64 1 75 -11 89 -11 C104 -11 114 1 114 15 C114 28 104 39 89 39 C75 39 64 28 64 15 L64 15 Z " />
<glyph glyph-name="slash" unicode="&#x2f;" horiz-adv-x="369" d="M53 6 C52 3 53 0 56 0 L63 0 C66 0 68 -1 70 4 L316 694 C317 697 316 700 312 700 L305 700 C302 700 299 698 298 695 L53 6 Z " />
<glyph glyph-name="zero" unicode="0" horiz-adv-x="659" d="M330 -10 C492 -10 584 126 584 351 C584 578 492 710 330 710 C168 710 75 578 75 351 C75 126 168 -10 330 -10 L330 -10 Z M330 8 C178 8 93 135 93 351 C93 568 178 692 330 692 C481 692 567 568 567 351 C567 135 481 8 330 8 L330 8 Z " />
<glyph glyph-name="one" unicode="1" horiz-adv-x="345" d="M214 7 C214 3 217 0 221 0 L225 0 C229 0 232 3 232 7 L232 697 C232 703 227 707 221 703 L32 564 C27 561 28 559 29 557 L35 550 C37 547 40 547 43 549 L214 676 L214 7 Z " />
<glyph glyph-name="two" unicode="2" horiz-adv-x="548" d="M45 12 C40 8 43 0 50 0 L468 0 C473 0 476 3 476 7 L476 11 C476 15 473 19 468 19 L78 19 L351 274 C428 346 481 418 481 509 C481 617 404 710 268 710 C128 710 74 610 74 610 C71 605 73 603 76 600 L83 596 C85 595 88 595 90 599 C90 599 138 692 268 692 C391 692 463 607 463 509 C463 423 412 354 339 286 L45 12 Z " />
<glyph glyph-name="three" unicode="3" horiz-adv-x="582" d="M65 82 C88 57 147 -10 275 -10 C419 -10 508 77 508 192 C508 268 451 343 366 365 C435 386 491 450 491 532 C491 635 412 710 293 710 C158 710 88 617 88 617 C86 614 87 611 91 609 L97 605 C100 603 103 604 105 607 C105 607 169 692 293 692 C402 692 473 624 473 532 C473 437 394 373 309 373 L170 373 C166 373 163 370 163 366 L163 362 C163 357 166 354 170 354 L309 354 C419 354 490 274 490 192 C490 87 410 8 275 8 C156 8 102 71 79 95 C77 97 74 99 70 96 L65 92 C62 89 62 87 65 82 L65 82 Z " />
<glyph glyph-name="four" unicode="4" horiz-adv-x="613" d="M34 164 L468 164 L468 7 C468 3 471 0 476 0 L479 0 C483 0 486 3 486 7 L486 164 L559 164 C563 164 566 167 566 171 L566 175 C566 179 563 181 559 181 L486 181 L486 709 C486 716 478 718 474 713 L29 175 C24 170 27 164 34 164 L34 164 Z M57 181 L468 678 L468 181 L57 181 Z " />
<glyph glyph-name="five" unicode="5" horiz-adv-x="577" d="M79 78 C106 46 166 -10 281 -10 C423 -10 525 97 525 229 C525 366 441 440 282 440 L107 440 L107 683 L432 683 C436 683 439 686 439 690 L439 693 C439 697 436 700 432 700 L96 700 C92 700 89 697 89 693 L89 430 C89 425 92 422 96 422 L282 422 C429 422 507 355 507 229 C507 107 413 8 281 8 C173 8 118 61 94 90 C92 92 89 95 84 92 L79 88 C76 84 76 82 79 78 L79 78 Z " />
<glyph glyph-name="six" unicode="6" horiz-adv-x="588" d="M67 284 C67 119 155 -10 309 -10 C435 -10 541 96 541 229 C541 368 434 456 315 456 C194 456 120 379 87 335 C116 574 337 677 409 703 C413 705 414 707 413 711 L411 718 C410 721 406 722 403 721 C324 693 67 570 67 284 L67 284 Z M84 284 L84 299 C91 308 163 438 315 438 C424 438 523 357 523 229 C523 106 425 8 309 8 C166 8 84 129 84 284 L84 284 Z " />
<glyph glyph-name="seven" unicode="7" horiz-adv-x="493" d="M158 9 C156 4 156 2 160 0 L165 -2 C169 -4 171 -3 173 1 L477 691 C479 695 476 700 471 700 L32 700 C28 700 25 697 25 693 L25 690 C25 686 28 683 32 683 L454 683 L158 9 Z " />
<glyph glyph-name="eight" unicode="8" horiz-adv-x="605" d="M73 180 C73 47 174 -10 302 -10 C430 -10 532 47 532 180 C532 277 462 338 348 357 C447 377 514 441 514 526 C514 617 452 710 301 710 C149 710 92 617 92 526 C92 441 160 377 258 357 C144 338 73 272 73 180 L73 180 Z M303 370 C194 376 110 433 110 526 C110 609 164 693 301 693 C438 693 495 609 495 526 C495 433 412 376 303 370 L303 370 Z M91 180 C91 277 174 337 303 346 C432 337 514 270 514 180 C514 60 420 6 302 6 C183 6 91 60 91 180 L91 180 Z " />
<glyph glyph-name="nine" unicode="9" horiz-adv-x="588" d="M175 -9 L177 -16 C178 -20 182 -21 185 -20 C264 8 521 132 521 417 C521 582 433 710 279 710 C153 710 47 606 47 473 C47 334 154 245 273 245 C394 245 468 323 500 367 C472 128 251 25 179 -1 C175 -3 174 -5 175 -9 L175 -9 Z M273 264 C164 264 65 344 65 473 C65 596 163 691 279 691 C422 691 504 573 504 417 L504 403 C497 394 425 264 273 264 L273 264 Z " />
<glyph glyph-name="colon" unicode="&#x3a;" horiz-adv-x="205" d="M102 419 C119 419 130 432 130 446 C130 462 119 474 102 474 C87 474 75 462 75 446 C75 432 87 419 102 419 L102 419 Z M75 16 C75 1 87 -12 102 -12 C119 -12 130 1 130 16 C130 31 119 43 102 43 C87 43 75 31 75 16 L75 16 Z " />
<glyph glyph-name="semicolon" unicode="&#x3b;" horiz-adv-x="245" d="M113 419 C130 419 141 432 141 446 C141 462 130 474 113 474 C99 474 87 462 87 446 C87 432 99 419 113 419 L113 419 Z M89 13 C89 0 100 -10 113 -10 C123 -10 128 -6 133 0 C140 -11 144 -29 144 -53 C144 -94 123 -126 97 -146 C93 -149 91 -151 95 -157 L99 -163 C101 -167 104 -167 109 -163 C139 -139 164 -103 164 -49 C164 -11 148 38 115 38 C100 38 89 28 89 13 L89 13 Z " />
<glyph glyph-name="less" unicode="&#x3c;" horiz-adv-x="600" d="M102 226 L467 -2 C471 -4 474 -4 476 0 L479 5 C481 8 481 12 477 14 L127 232 L477 457 C481 459 481 463 479 466 L476 471 C474 475 471 475 467 473 L102 238 C97 235 97 229 102 226 L102 226 Z " />
<glyph glyph-name="equal" unicode="&#x3d;" horiz-adv-x="600" d="M134 382 L465 382 C469 382 472 385 472 389 L472 393 C472 397 469 400 465 400 L134 400 C130 400 127 397 127 393 L127 389 C127 385 130 382 134 382 L134 382 Z M134 176 L465 176 C469 176 472 179 472 183 L472 187 C472 191 469 194 465 194 L134 194 C130 194 127 191 127 187 L127 183 C127 179 130 176 134 176 L134 176 Z " />
<glyph glyph-name="greater" unicode="&#x3e;" horiz-adv-x="600" d="M120 5 L123 0 C125 -4 128 -4 132 -2 L497 226 C502 229 502 235 497 238 L132 473 C128 475 125 475 123 471 L120 466 C118 463 118 459 122 457 L472 232 L122 14 C118 12 118 8 120 5 L120 5 Z " />
<glyph glyph-name="question" unicode="&#x3f;" horiz-adv-x="467" d="M218 257 L222 257 C226 257 229 260 229 264 L229 324 C229 363 258 378 277 388 C324 415 413 471 413 563 C413 646 341 710 234 710 C105 710 47 620 47 620 C44 615 47 614 49 612 L54 608 C56 606 60 607 62 610 C62 610 115 692 234 692 C331 692 396 636 396 563 C396 481 313 429 269 404 C249 393 211 373 211 324 L211 264 C211 260 214 257 218 257 L218 257 Z M201 14 C201 1 211 -10 224 -10 C238 -10 248 1 248 14 C248 27 238 37 224 37 C211 37 201 27 201 14 L201 14 Z " />
<glyph glyph-name="at" unicode="&#x40;" horiz-adv-x="987" d="M60 225 C60 9 187 -149 364 -224 C368 -226 370 -225 372 -221 L375 -215 C377 -211 374 -209 372 -208 C200 -135 77 17 77 225 C77 499 249 692 520 692 C777 692 925 523 925 291 C925 166 869 38 742 38 C680 38 648 79 648 134 L648 423 C648 427 645 430 641 430 L637 430 C633 430 630 427 630 423 L630 386 C607 407 558 440 484 440 C372 440 289 352 289 234 C289 114 365 20 481 20 C570 20 613 67 633 100 C643 55 679 20 742 20 C885 20 942 158 942 291 C942 532 787 710 520 710 C239 710 60 509 60 225 L60 225 Z M307 234 C307 342 381 422 484 422 C576 422 626 366 630 359 L630 135 C630 135 598 38 481 38 C375 38 307 124 307 234 L307 234 Z " />
<glyph glyph-name="A" unicode="A" horiz-adv-x="633" d="M4 7 C3 4 4 2 7 1 L16 -2 C19 -3 20 -1 21 1 L111 210 L520 210 L609 1 C610 -1 611 -3 614 -2 L623 1 C626 2 627 4 626 7 L324 717 C323 719 321 721 319 721 L317 721 C315 721 313 719 312 717 L4 7 Z M119 227 L318 685 L512 227 L119 227 Z " />
<glyph glyph-name="B" unicode="B" horiz-adv-x="625" d="M108 7 C108 3 111 0 115 0 L330 0 C461 0 553 76 553 188 C553 288 493 344 404 361 C481 384 531 441 531 523 C531 637 446 700 321 700 L115 700 C111 700 108 697 108 693 L108 7 Z M126 367 L126 682 L321 682 C436 682 513 626 513 523 C513 425 434 367 323 367 L126 367 Z M126 18 L126 349 L342 349 C454 349 535 299 535 188 C535 86 452 18 330 18 L126 18 Z " />
<glyph glyph-name="C" unicode="C" horiz-adv-x="724" d="M60 349 C60 148 222 -10 423 -10 C512 -10 598 22 667 88 C669 90 669 93 667 95 L662 101 C660 104 656 103 654 101 C587 40 508 8 423 8 C232 8 78 158 78 349 C78 540 232 692 423 692 C519 692 589 659 654 603 C656 601 659 600 662 603 L667 609 C669 612 668 615 666 617 C598 674 525 710 423 710 C222 710 60 550 60 349 L60 349 Z " />
<glyph glyph-name="D" unicode="D" horiz-adv-x="728" d="M108 7 C108 3 111 0 114 0 L314 0 C509 0 667 156 667 351 C667 544 509 700 314 700 L114 700 C111 700 108 697 108 693 L108 7 Z M125 18 L125 682 L314 682 C499 682 650 534 650 351 C650 166 499 18 314 18 L125 18 Z " />
<glyph glyph-name="E" unicode="E" horiz-adv-x="587" d="M108 7 C108 3 111 0 115 0 L522 0 C526 0 529 3 529 7 L529 11 C529 15 526 18 522 18 L126 18 L126 355 L474 355 C478 355 481 358 481 362 L481 366 C481 370 478 373 474 373 L126 373 L126 682 L522 682 C526 682 529 685 529 689 L529 693 C529 697 526 700 522 700 L115 700 C111 700 108 697 108 693 L108 7 Z " />
<glyph glyph-name="F" unicode="F" horiz-adv-x="561" d="M108 7 C108 3 111 0 115 0 L119 0 C123 0 126 3 126 7 L126 330 L474 330 C478 330 481 333 481 337 L481 341 C481 345 478 348 474 348 L126 348 L126 682 L522 682 C526 682 529 685 529 689 L529 693 C529 697 526 700 522 700 L115 700 C111 700 108 697 108 693 L108 7 Z " />
<glyph glyph-name="G" unicode="G" horiz-adv-x="752" d="M60 349 C60 148 222 -10 423 -10 C581 -10 669 59 676 70 L676 323 C676 326 673 329 669 329 L431 329 C427 329 424 326 424 323 L424 319 C424 315 427 312 431 312 L658 312 L658 77 C638 60 557 8 423 8 C232 8 78 158 78 349 C78 540 232 692 423 692 C519 692 589 659 654 603 C656 601 659 600 662 603 L667 609 C669 612 668 615 666 617 C598 674 525 710 423 710 C222 710 60 550 60 349 L60 349 Z " />
<glyph glyph-name="H" unicode="H" horiz-adv-x="744" d="M108 7 C108 3 111 0 115 0 L119 0 C123 0 126 3 126 7 L126 355 L618 355 L618 7 C618 3 621 0 625 0 L629 0 C633 0 636 3 636 7 L636 693 C636 697 633 700 629 700 L625 700 C621 700 618 697 618 693 L618 373 L126 373 L126 693 C126 697 123 700 119 700 L115 700 C111 700 108 697 108 693 L108 7 Z " />
<glyph glyph-name="I" unicode="I" horiz-adv-x="234" d="M108 7 C108 3 111 0 115 0 L119 0 C123 0 126 3 126 7 L126 693 C126 697 123 700 119 700 L115 700 C111 700 108 697 108 693 L108 7 Z " />
<glyph glyph-name="J" unicode="J" horiz-adv-x="463" d="M21 67 C38 45 87 -10 176 -10 C296 -10 362 68 362 209 L362 693 C362 697 359 700 355 700 L352 700 C348 700 345 697 345 693 L345 209 C345 77 286 8 176 8 C95 8 50 57 34 77 C32 80 29 81 26 79 L22 76 C18 73 19 70 21 67 L21 67 Z " />
<glyph glyph-name="K" unicode="K" horiz-adv-x="541" d="M108 7 C108 3 111 0 115 0 L119 0 C123 0 126 3 126 7 L126 342 L510 -2 C514 -6 517 -6 519 -4 L523 0 C527 4 525 7 521 11 L142 351 L511 686 C514 689 514 693 511 696 L508 699 C505 702 501 702 498 699 L126 360 L126 693 C126 697 123 700 119 700 L115 700 C111 700 108 697 108 693 L108 7 Z " />
<glyph glyph-name="L" unicode="L" horiz-adv-x="496" d="M108 7 C108 3 111 0 115 0 L474 0 C478 0 481 3 481 7 L481 11 C481 15 478 18 474 18 L125 18 L125 693 C125 697 122 700 119 700 L115 700 C111 700 108 697 108 693 L108 7 Z " />
<glyph glyph-name="M" unicode="M" horiz-adv-x="859" d="M52 8 C51 3 51 1 55 0 L63 -2 C66 -3 68 -1 69 4 L208 666 L423 -8 C425 -15 435 -15 437 -8 L648 666 L792 4 C793 -1 795 -3 798 -2 L806 0 C810 1 810 3 809 8 L658 712 C656 719 646 719 644 712 L430 36 L213 712 C211 719 200 719 199 712 L52 8 Z " />
<glyph glyph-name="N" unicode="N" horiz-adv-x="764" d="M108 7 C108 3 111 0 115 0 L119 0 C123 0 126 3 126 7 L126 677 L643 -12 C647 -18 656 -15 656 -8 L656 693 C656 697 653 700 649 700 L645 700 C641 700 638 697 638 693 L638 25 L121 714 C117 720 108 717 108 710 L108 7 Z " />
<glyph glyph-name="O" unicode="O" horiz-adv-x="844" d="M61 349 C61 148 221 -10 422 -10 C623 -10 784 148 784 349 C784 550 623 710 422 710 C221 710 61 550 61 349 L61 349 Z M79 349 C79 540 231 692 422 692 C613 692 766 540 766 349 C766 158 613 8 422 8 C231 8 79 158 79 349 L79 349 Z " />
<glyph glyph-name="P" unicode="P" horiz-adv-x="592" d="M108 7 C108 3 111 0 115 0 L119 0 C123 0 126 3 126 7 L126 245 L324 245 C449 245 552 348 552 474 C552 598 449 700 323 700 L115 700 C111 700 108 697 108 693 L108 7 Z M126 263 L126 682 L323 682 C439 682 534 588 534 474 C534 358 439 263 324 263 L126 263 Z " />
<glyph glyph-name="Q" unicode="Q" horiz-adv-x="844" d="M61 349 C61 148 221 -10 422 -10 C459 -10 496 -4 530 7 L648 -189 C649 -191 651 -193 654 -192 L663 -187 C666 -185 666 -182 664 -179 L547 13 C686 63 784 192 784 349 C784 550 623 710 422 710 C221 710 61 550 61 349 L61 349 Z M79 349 C79 540 231 692 422 692 C613 692 766 540 766 349 C766 158 613 8 422 8 C231 8 79 158 79 349 L79 349 Z " />
<glyph glyph-name="R" unicode="R" horiz-adv-x="641" d="M108 7 C108 3 111 0 115 0 L119 0 C122 0 125 3 125 7 L125 267 L353 267 C362 267 370 267 379 268 L538 0 C539 -2 541 -4 544 -3 L553 2 C556 4 556 7 554 10 L398 271 C501 290 580 375 580 486 C580 610 477 700 352 700 L115 700 C111 700 108 697 108 693 L108 7 Z M125 284 L125 682 L352 682 C468 682 563 600 563 486 C563 370 468 284 353 284 L125 284 Z " />
<glyph glyph-name="S" unicode="S" horiz-adv-x="550" d="M69 73 C82 61 163 -10 282 -10 C408 -10 503 70 503 175 C503 282 416 327 276 366 C159 397 80 433 80 535 C80 608 135 692 280 692 C372 692 443 643 443 643 C447 641 449 642 451 645 L455 651 C457 654 456 657 453 659 C453 659 380 710 280 710 C123 710 62 616 62 535 C62 419 150 381 271 348 C398 314 485 275 485 175 C485 79 394 8 282 8 C169 8 95 74 82 85 C79 88 76 89 73 86 L69 82 C66 79 66 76 69 73 L69 73 Z " />
<glyph glyph-name="T" unicode="T" horiz-adv-x="498" d="M239 7 C239 3 242 0 246 0 L250 0 C254 0 257 3 257 7 L257 682 L467 682 C471 682 474 685 474 689 L474 693 C474 697 471 700 467 700 L31 700 C27 700 24 697 24 693 L24 689 C24 685 27 682 31 682 L239 682 L239 7 Z " />
<glyph glyph-name="U" unicode="U" horiz-adv-x="718" d="M100 252 C100 98 199 -10 358 -10 C518 -10 618 98 618 252 L618 693 C618 697 615 700 611 700 L607 700 C603 700 600 697 600 693 L600 252 C600 108 508 8 358 8 C209 8 118 108 118 252 L118 693 C118 697 115 700 111 700 L107 700 C103 700 100 697 100 693 L100 252 Z " />
<glyph glyph-name="V" unicode="V" horiz-adv-x="628" d="M306 -16 C309 -22 315 -22 318 -16 L626 693 C627 696 626 698 623 699 L614 702 C611 703 610 701 609 699 L312 16 L22 699 C21 701 20 703 17 702 L8 699 C5 698 4 696 5 693 L306 -16 Z " />
<glyph glyph-name="W" unicode="W" horiz-adv-x="868" d="M233 -12 C235 -19 245 -19 247 -12 L431 664 L624 -12 C626 -19 636 -19 638 -12 L835 693 C836 696 835 698 832 699 L824 702 C821 703 819 702 818 699 L631 32 L438 708 C436 715 426 715 424 708 L240 31 L46 699 C45 702 43 703 40 702 L32 699 C29 698 28 696 29 693 L233 -12 Z " />
<glyph glyph-name="X" unicode="X" horiz-adv-x="537" d="M34 3 L40 -1 C44 -3 46 -1 48 2 L268 340 L489 2 C491 -1 493 -3 497 -1 L503 3 C507 6 506 9 504 12 L279 357 L493 688 C495 691 496 694 492 697 L486 701 C482 703 480 701 478 698 L268 373 L58 698 C56 701 54 703 50 701 L44 697 C40 694 41 691 43 688 L256 357 L33 12 C31 9 30 6 34 3 L34 3 Z " />
<glyph glyph-name="Y" unicode="Y" horiz-adv-x="552" d="M267 7 C267 3 270 0 274 0 L278 0 C282 0 285 3 285 7 L285 344 L549 688 C551 691 552 694 548 697 L542 701 C539 703 536 701 534 698 L276 359 L18 698 C16 700 14 703 10 701 L4 697 C0 694 1 691 3 688 L267 343 L267 7 Z " />
<glyph glyph-name="Z" unicode="Z" horiz-adv-x="515" d="M23 11 C20 6 23 0 29 0 L460 0 C464 0 467 3 467 7 L467 11 C467 15 464 18 460 18 L49 18 L488 689 C491 694 488 700 482 700 L63 700 C59 700 56 697 56 693 L56 689 C56 685 59 682 63 682 L462 682 L23 11 Z " />
<glyph glyph-name="bracketleft" unicode="&#x5b;" horiz-adv-x="328" d="M107 -220 L107 682 L299 682 C303 682 306 685 306 689 L306 693 C306 697 303 700 299 700 L96 700 C92 700 89 697 89 693 L89 -231 C89 -235 92 -238 96 -238 L299 -238 C303 -238 306 -235 306 -231 L306 -227 C306 -223 303 -220 299 -220 L107 -220 Z " />
<glyph glyph-name="backslash" unicode="&#x5c;" horiz-adv-x="369" d="M298 4 C300 -1 302 0 305 0 L312 0 C315 0 316 3 315 6 L70 696 C69 699 66 700 63 700 L56 700 C52 699 52 696 53 693 L298 4 Z " />
<glyph glyph-name="bracketright" unicode="&#x5d;" horiz-adv-x="328" d="M29 -220 C25 -220 22 -223 22 -227 L22 -231 C22 -235 25 -238 29 -238 L232 -238 C236 -238 239 -235 239 -231 L239 693 C239 697 236 700 232 700 L29 700 C25 700 22 697 22 693 L22 689 C22 685 25 682 29 682 L221 682 L221 -220 L29 -220 Z " />
<glyph glyph-name="asciicircum" unicode="&#x5e;" horiz-adv-x="524" d="M48 398 C51 396 54 397 56 400 L265 691 L468 400 C470 397 473 396 476 398 L482 402 C485 404 486 407 484 410 L271 715 C268 719 262 719 259 715 L40 410 C38 407 39 404 42 402 L48 398 Z " />
<glyph glyph-name="underscore" unicode="&#x5f;" horiz-adv-x="533" d="M94 -17 L94 -21 C94 -24 97 -27 101 -27 L432 -27 C436 -27 439 -24 439 -21 L439 -17 C439 -13 436 -10 432 -10 L101 -10 C97 -10 94 -13 94 -17 L94 -17 Z " />
<glyph glyph-name="grave" unicode="&#x60;" horiz-adv-x="302" d="M239 560 C244 558 246 559 248 563 L250 568 C251 570 251 573 247 575 L65 666 C62 667 59 668 56 663 L54 659 C52 655 53 652 57 650 L239 560 Z " />
<glyph glyph-name="a" unicode="a" horiz-adv-x="487" d="M44 144 C44 47 114 -11 204 -11 C280 -11 349 29 385 60 L385 8 C385 3 387 0 392 0 L396 0 C402 0 403 3 403 8 L403 319 C403 424 368 472 255 472 C162 472 111 441 102 436 C100 435 97 432 100 426 L102 422 C104 418 107 417 113 420 C122 425 166 454 255 454 C352 454 385 411 385 319 L385 276 C360 286 303 302 246 302 C124 302 44 235 44 144 L44 144 Z M62 144 C62 224 136 284 246 284 C308 284 369 263 385 257 L385 86 C362 57 288 7 204 7 C125 7 62 59 62 144 L62 144 Z " />
<glyph glyph-name="b" unicode="b" horiz-adv-x="557" d="M501 232 C501 371 409 472 273 472 C174 472 106 407 106 407 L106 692 C106 697 103 700 99 700 L95 700 C91 700 88 697 88 692 L88 8 C88 3 91 0 95 0 L99 0 C103 0 106 3 106 8 L106 64 C134 33 189 -11 281 -11 C401 -11 501 96 501 232 L501 232 Z M483 232 C483 107 390 8 281 8 C164 8 111 86 106 93 L106 380 C106 380 169 454 273 454 C397 454 483 359 483 232 L483 232 Z " />
<glyph glyph-name="c" unicode="c" horiz-adv-x="535" d="M55 233 C55 91 170 -11 301 -11 C416 -11 481 63 486 69 C488 71 489 75 486 78 L481 83 C479 85 475 85 472 82 C465 75 404 7 301 7 C182 7 73 103 73 233 C73 361 179 454 301 454 C400 454 451 408 464 397 C468 394 471 392 474 395 L479 401 C481 403 483 407 479 411 C465 423 412 472 301 472 C167 472 55 373 55 233 L55 233 Z " />
<glyph glyph-name="d" unicode="d" horiz-adv-x="557" d="M56 232 C56 96 156 -11 276 -11 C368 -11 423 33 451 64 L451 8 C451 3 454 0 458 0 L462 0 C466 0 469 3 469 8 L469 692 C469 697 466 700 462 700 L458 700 C454 700 451 697 451 692 L451 407 C451 407 383 472 284 472 C148 472 56 371 56 232 L56 232 Z M74 232 C74 359 160 454 284 454 C388 454 451 380 451 380 L451 93 C446 86 393 8 276 8 C167 8 74 107 74 232 L74 232 Z " />
<glyph glyph-name="e" unicode="e" horiz-adv-x="541" d="M74 223 L480 223 C482 223 486 226 487 228 C491 233 492 254 492 262 C492 387 406 472 283 472 C142 472 56 367 56 233 C56 97 142 -11 283 -11 C360 -11 422 21 452 43 C454 45 456 47 454 50 L450 57 C449 59 445 61 441 58 C415 37 355 7 283 7 C157 7 77 103 74 223 L74 223 Z M74 241 C78 359 157 454 283 454 C391 454 474 376 474 262 C474 257 474 249 473 241 L74 241 Z " />
<glyph glyph-name="f" unicode="f" horiz-adv-x="362" d="M108 8 C108 3 110 0 115 0 L119 0 C123 0 126 3 126 8 L126 444 L336 444 C341 444 344 447 344 451 L344 455 C344 460 341 462 336 462 L126 462 L126 527 C126 632 167 692 259 692 C317 692 356 666 376 647 C379 644 384 643 387 647 L390 651 C393 655 394 657 390 661 C368 682 323 710 259 710 C156 710 108 645 108 527 L108 462 L37 462 C32 462 29 460 29 455 L29 451 C29 447 32 444 37 444 L108 444 L108 8 Z " />
<glyph glyph-name="g" unicode="g" horiz-adv-x="556" d="M450 75 C444 66 388 7 293 7 C158 7 74 106 74 233 C74 358 163 454 283 454 C388 454 443 394 450 383 L450 75 Z M450 -15 C450 -140 369 -201 278 -201 C203 -201 157 -167 131 -144 C127 -141 125 -140 122 -143 L118 -148 C114 -153 116 -154 121 -159 C145 -180 198 -219 278 -219 C383 -219 468 -149 468 -15 L468 454 C468 459 465 462 461 462 L457 462 C452 462 450 459 450 454 L450 412 C423 436 369 472 283 472 C151 472 56 370 56 233 C56 94 146 -11 293 -11 C368 -11 424 23 450 46 L450 -15 Z " />
<glyph glyph-name="h" unicode="h" horiz-adv-x="540" d="M88 8 C88 3 90 0 95 0 L99 0 C104 0 106 3 106 8 L106 359 C116 372 175 454 277 454 C388 454 440 384 440 258 L440 8 C440 3 442 0 447 0 L451 0 C456 0 458 3 458 8 L458 258 C458 399 402 472 277 472 C188 472 135 418 106 387 L106 692 C106 697 104 700 99 700 L95 700 C90 700 88 697 88 692 L88 8 Z " />
<glyph glyph-name="i" unicode="i" horiz-adv-x="194" d="M88 8 C88 3 90 0 95 0 L99 0 C104 0 106 3 106 8 L106 454 C106 459 104 462 99 462 L95 462 C90 462 88 459 88 454 L88 8 Z M98 605 C111 605 121 616 121 628 C121 641 111 653 98 653 C84 653 75 641 75 628 C75 616 84 605 98 605 L98 605 Z " />
<glyph glyph-name="j" unicode="j" horiz-adv-x="194" d="M106 454 C106 459 104 462 99 462 L95 462 C90 462 88 459 88 454 L88 -65 C88 -170 50 -213 -29 -232 C-34 -233 -37 -235 -36 -240 L-35 -244 C-34 -249 -30 -250 -24 -249 C65 -230 106 -176 106 -65 L106 454 Z M98 605 C111 605 121 616 121 628 C121 641 111 653 98 653 C84 653 75 641 75 628 C75 616 84 605 98 605 L98 605 Z " />
<glyph glyph-name="k" unicode="k" horiz-adv-x="446" d="M88 8 C88 3 90 0 95 0 L99 0 C104 0 106 3 106 8 L106 247 L406 -4 C409 -6 411 -7 414 -3 L417 1 C420 5 421 9 417 12 L123 256 L409 452 C413 455 413 457 411 461 L408 466 C406 470 402 470 399 468 L106 267 L106 692 C106 697 104 700 99 700 L95 700 C90 700 88 697 88 692 L88 8 Z " />
<glyph glyph-name="l" unicode="l" horiz-adv-x="210" d="M96 8 C96 3 98 0 103 0 L107 0 C112 0 114 3 114 8 L114 692 C114 697 112 700 107 700 L103 700 C98 700 96 697 96 692 L96 8 Z " />
<glyph glyph-name="m" unicode="m" horiz-adv-x="828" d="M88 8 C88 3 90 0 95 0 L99 0 C104 0 106 3 106 8 L106 362 C118 381 161 454 268 454 C368 454 417 384 417 258 L417 8 C417 3 419 0 423 0 L428 0 C433 0 435 3 435 8 L435 258 C435 298 430 333 420 361 C433 382 475 454 575 454 C680 454 728 384 728 258 L728 8 C728 3 730 0 735 0 L739 0 C745 0 746 3 746 8 L746 258 C746 399 694 472 575 472 C479 472 433 413 411 381 C384 441 340 472 268 472 C176 472 132 424 106 391 L106 454 C106 459 104 462 99 462 L95 462 C90 462 88 459 88 454 L88 8 Z " />
<glyph glyph-name="n" unicode="n" horiz-adv-x="539" d="M88 8 C88 3 90 0 95 0 L99 0 C104 0 106 3 106 8 L106 365 C116 378 175 454 277 454 C388 454 439 384 439 258 L439 8 C439 3 442 0 447 0 L451 0 C456 0 457 3 457 8 L457 258 C457 399 402 472 277 472 C188 472 135 422 106 391 L106 454 C106 459 104 462 99 462 L95 462 C90 462 88 459 88 454 L88 8 Z " />
<glyph glyph-name="o" unicode="o" horiz-adv-x="577" d="M55 232 C55 96 157 -11 288 -11 C420 -11 522 96 522 232 C522 366 420 472 288 472 C157 472 55 366 55 232 L55 232 Z M73 232 C73 355 168 454 288 454 C409 454 504 355 504 232 C504 107 409 7 288 7 C168 7 73 107 73 232 L73 232 Z " />
<glyph glyph-name="p" unicode="p" horiz-adv-x="556" d="M106 46 C132 23 188 -11 263 -11 C410 -11 500 94 500 233 C500 370 405 472 273 472 C187 472 133 436 106 412 L106 454 C106 459 104 462 99 462 L95 462 C91 462 88 459 88 454 L88 -230 C88 -235 91 -238 95 -238 L99 -238 C104 -238 106 -235 106 -230 L106 46 Z M106 75 L106 383 C113 394 168 454 273 454 C393 454 482 358 482 233 C482 106 398 7 263 7 C168 7 112 66 106 75 L106 75 Z " />
<glyph glyph-name="q" unicode="q" horiz-adv-x="556" d="M450 -230 C450 -235 452 -238 457 -238 L461 -238 C465 -238 468 -235 468 -230 L468 454 C468 459 465 462 461 462 L457 462 C452 462 450 459 450 454 L450 412 C423 436 369 472 283 472 C151 472 56 370 56 233 C56 94 146 -11 293 -11 C368 -11 424 23 450 46 L450 -230 Z M450 75 C444 66 388 7 293 7 C158 7 74 106 74 233 C74 358 163 454 283 454 C388 454 443 394 450 383 L450 75 Z " />
<glyph glyph-name="r" unicode="r" horiz-adv-x="366" d="M88 8 C88 3 90 0 95 0 L99 0 C104 0 106 3 106 8 L106 362 C115 376 165 454 258 454 C303 454 326 440 332 436 C337 433 342 436 343 438 L345 442 C347 446 347 450 343 453 C335 458 311 472 258 472 C181 472 129 425 106 393 L106 454 C106 459 104 462 99 462 L95 462 C90 462 88 459 88 454 L88 8 Z " />
<glyph glyph-name="s" unicode="s" horiz-adv-x="425" d="M215 -11 C308 -11 381 44 381 115 C381 199 302 222 209 249 C120 274 72 300 72 355 C72 399 114 454 208 454 C263 454 304 435 329 420 C335 417 337 419 340 423 L342 426 C345 430 343 435 340 437 C316 452 270 472 208 472 C103 472 54 408 54 355 C54 290 102 259 204 231 C291 207 363 182 363 115 C363 56 298 7 215 7 C143 7 98 36 74 56 C70 59 66 58 64 55 L60 50 C57 46 59 43 62 40 C86 19 138 -11 215 -11 L215 -11 Z " />
<glyph glyph-name="t" unicode="t" horiz-adv-x="344" d="M97 124 C97 47 103 -11 200 -11 C256 -11 319 20 334 30 C337 32 338 35 336 38 L333 43 C331 46 329 48 324 45 C309 35 249 7 200 7 C119 7 115 59 115 124 L115 444 L305 444 C309 444 312 446 312 450 L312 455 C312 460 309 462 305 462 L115 462 L115 587 C115 591 113 594 108 594 L103 594 C100 594 97 591 97 587 L97 462 L48 462 C44 462 41 460 41 455 L41 450 C41 446 44 444 48 444 L97 444 L97 124 Z " />
<glyph glyph-name="u" unicode="u" horiz-adv-x="528" d="M82 201 C82 61 137 -11 262 -11 C347 -11 395 37 422 69 L422 8 C422 3 424 0 429 0 L434 0 C438 0 440 3 440 8 L440 454 C440 459 438 462 434 462 L429 462 C424 462 422 459 422 454 L422 99 C415 88 366 8 262 8 C151 8 100 75 100 201 L100 454 C100 459 98 462 94 462 L88 462 C84 462 82 459 82 454 L82 201 Z " />
<glyph glyph-name="v" unicode="v" horiz-adv-x="468" d="M227 -12 C231 -19 237 -19 241 -12 L445 457 C447 461 447 463 444 465 L438 469 C433 471 431 468 430 465 L234 14 L38 465 C37 468 34 471 30 469 L24 466 C20 464 21 462 23 457 L227 -12 Z " />
<glyph glyph-name="w" unicode="w" horiz-adv-x="680" d="M187 -9 C189 -18 201 -18 203 -9 L340 438 L478 -9 C480 -18 492 -18 494 -9 L648 458 C649 462 649 465 645 466 L640 468 C635 470 632 466 631 462 L485 24 L348 474 C346 481 334 481 332 474 L194 24 L49 464 C48 468 44 470 40 468 L35 466 C32 465 31 462 32 458 L187 -9 Z " />
<glyph glyph-name="x" unicode="x" horiz-adv-x="451" d="M225 226 L401 0 C404 -4 408 -2 410 -1 L415 3 C418 5 419 8 416 12 L236 239 L409 455 C411 459 411 459 408 462 L402 467 C400 469 397 468 395 465 L225 251 L57 465 C55 468 51 469 49 467 L44 463 C41 460 40 459 42 455 L215 239 L36 12 C33 8 34 6 37 3 L41 0 C46 -3 48 -1 50 1 L225 226 Z " />
<glyph glyph-name="y" unicode="y" horiz-adv-x="470" d="M227 8 L121 -231 C118 -237 119 -239 123 -241 L127 -243 C132 -246 135 -243 137 -238 L447 457 C449 461 449 463 446 465 L440 468 C436 470 433 467 432 464 L237 26 L37 464 C36 467 33 470 29 468 L23 465 C20 463 20 461 22 457 L227 8 Z " />
<glyph glyph-name="z" unicode="z" horiz-adv-x="420" d="M29 13 C24 7 29 0 36 0 L364 0 C369 0 372 2 372 7 L372 11 C372 15 369 18 364 18 L55 18 L384 449 C388 455 384 462 376 462 L68 462 C63 462 61 460 61 455 L61 450 C61 446 63 444 68 444 L356 444 L29 13 Z " />
<glyph glyph-name="braceleft" unicode="&#x7b;" horiz-adv-x="332" d="M114 -15 C114 -200 198 -249 304 -249 C308 -249 311 -246 311 -242 L311 -238 C311 -234 308 -231 304 -231 C208 -231 132 -186 132 -15 L132 133 C132 185 100 218 72 233 C100 248 132 281 132 333 L132 478 C132 649 208 692 304 692 C308 692 311 695 311 699 L311 703 C311 707 308 710 304 710 C198 710 114 663 114 478 L114 333 C114 271 64 242 41 242 C37 242 34 239 34 235 L34 231 C34 226 37 224 41 224 C67 224 114 193 114 133 L114 -15 Z " />
<glyph glyph-name="bar" unicode="&#x7c;" horiz-adv-x="194" d="M88 -231 C88 -235 91 -238 95 -238 L99 -238 C103 -238 106 -235 106 -231 L106 752 C106 756 103 759 99 759 L95 759 C91 759 88 756 88 752 L88 -231 Z " />
<glyph glyph-name="braceright" unicode="&#x7d;" horiz-adv-x="331" d="M200 -15 C200 -186 124 -231 28 -231 C24 -231 21 -234 21 -238 L21 -242 C21 -246 24 -249 28 -249 C134 -249 218 -200 218 -15 L218 133 C218 193 265 224 291 224 C295 224 298 226 298 231 L298 235 C298 239 295 242 291 242 C268 242 218 271 218 333 L218 478 C218 663 134 710 28 710 C24 710 21 707 21 703 L21 699 C21 695 24 692 28 692 C124 692 200 649 200 478 L200 333 C200 281 232 248 260 233 C232 218 200 185 200 133 L200 -15 Z " />
<glyph glyph-name="asciitilde" unicode="&#x7e;" horiz-adv-x="583" d="M75 250 C79 248 81 249 83 253 C83 253 123 341 200 341 C241 341 268 311 287 286 C309 258 338 223 388 223 C476 223 520 321 520 321 C522 325 521 327 517 329 L512 331 C509 332 507 332 505 328 C505 328 465 240 388 240 C348 240 322 270 302 296 C280 324 249 359 200 359 C112 359 68 261 68 261 C66 256 67 255 70 253 L75 250 Z " />
<glyph glyph-name="uni00A0" unicode="&#xa0;" horiz-adv-x="240" d="" />
<glyph glyph-name="exclamdown" unicode="&#xa1;" horiz-adv-x="198" d="M99 425 C112 425 123 435 123 448 C123 461 112 472 99 472 C85 472 75 461 75 448 C75 435 85 425 99 425 L99 425 Z M90 188 L90 -231 C90 -235 93 -238 97 -238 L101 -238 C105 -238 108 -235 108 -231 L108 188 C108 192 105 195 101 195 L97 195 C93 195 90 192 90 188 L90 188 Z " />
<glyph glyph-name="cent" unicode="&#xa2;" horiz-adv-x="551" d="M59 233 C59 122 129 35 222 3 L197 -93 C196 -99 197 -103 201 -104 L205 -105 C209 -106 214 -104 215 -100 L241 -3 C261 -8 283 -11 305 -11 C420 -11 485 63 490 69 C492 71 493 75 490 78 L485 83 C483 85 479 85 476 82 C469 75 408 7 305 7 C285 7 265 10 246 15 L361 448 C423 436 457 405 468 397 C472 394 475 392 478 395 L483 401 C485 403 487 407 483 411 C472 420 436 454 366 467 L377 508 C378 512 377 518 373 519 L369 520 C364 521 361 519 359 514 L347 469 C334 471 320 472 305 472 C171 472 59 373 59 233 L59 233 Z M77 233 C77 361 183 454 305 454 C318 454 331 453 342 451 L227 21 C142 52 77 132 77 233 L77 233 Z " />
<glyph glyph-name="sterling" unicode="&#xa3;" horiz-adv-x="600" d="M111 10 C109 5 112 0 117 0 L482 0 C486 0 489 3 489 7 L489 11 C489 15 486 18 482 18 L132 18 C168 106 179 170 179 227 C179 258 176 285 172 311 L408 311 C412 311 415 314 415 318 L415 322 C415 325 412 328 408 328 L168 328 C152 390 136 447 136 511 C136 621 223 692 315 692 C414 692 467 645 490 624 C493 621 496 623 498 625 L502 629 C504 631 505 635 502 638 C477 661 421 710 315 710 C213 710 119 630 119 511 C119 442 135 389 150 328 L110 328 C106 328 103 325 103 322 L103 318 C103 314 106 311 110 311 L153 311 C158 284 162 256 162 227 C162 170 149 102 111 10 L111 10 Z " />
<glyph glyph-name="currency" unicode="&#xa4;" horiz-adv-x="494" d="M130 311 C130 375 183 428 247 428 C311 428 363 374 363 312 C363 248 308 195 246 195 C182 195 130 248 130 311 L130 311 Z M87 151 C90 149 94 149 97 151 L158 211 C183 189 215 178 247 178 C279 178 310 188 336 211 L397 151 C400 149 404 149 407 151 L409 153 C411 156 411 160 409 163 L349 224 C370 249 381 280 381 312 C381 343 369 375 347 400 L409 463 C411 466 411 470 409 473 L407 475 C404 477 400 477 397 475 L334 413 C310 434 278 445 247 445 C215 445 184 435 159 413 L97 475 C94 477 90 477 87 475 L85 473 C83 470 83 466 85 463 L146 401 C123 375 113 343 113 310 C113 280 124 249 145 224 L85 163 C83 160 83 156 85 153 L87 151 Z " />
<glyph glyph-name="yen" unicode="&#xa5;" horiz-adv-x="600" d="M122 155 L291 155 L291 7 C291 3 294 0 298 0 L302 0 C306 0 309 3 309 7 L309 155 L479 155 C482 155 485 158 485 161 L485 165 C485 169 482 172 479 172 L309 172 L309 273 L479 273 C482 273 485 276 485 279 L485 283 C485 287 482 290 479 290 L309 290 L309 344 L553 688 C555 691 556 694 552 697 L546 701 C543 703 540 701 538 698 L300 359 L62 698 C60 700 58 703 54 701 L48 697 C44 694 45 691 47 688 L291 343 L291 290 L122 290 C119 291 116 287 116 283 L116 279 C116 276 119 273 122 273 L291 273 L291 172 L122 172 C119 173 116 169 116 165 L116 161 C116 158 119 155 122 155 L122 155 Z " />
<glyph glyph-name="brokenbar" unicode="&#xa6;" horiz-adv-x="200" d="M98 384 L102 384 C106 384 109 387 109 391 L109 752 C109 756 106 759 102 759 L98 759 C94 759 91 756 91 752 L91 391 C91 387 94 384 98 384 L98 384 Z M91 131 L91 -230 C91 -234 94 -237 98 -237 L102 -237 C106 -237 109 -234 109 -230 L109 131 C109 134 106 137 102 137 L98 137 C94 137 91 134 91 131 L91 131 Z " />
<glyph glyph-name="section" unicode="&#xa7;" horiz-adv-x="564" d="M95 -120 L89 -126 C86 -129 87 -132 90 -135 C103 -147 180 -212 291 -212 C400 -212 498 -140 498 -51 C498 4 478 41 444 69 C473 98 500 139 500 177 C500 289 412 331 283 363 C169 391 89 437 89 534 C89 607 144 692 289 692 C381 692 448 642 448 642 C452 639 455 643 456 645 L460 652 C462 655 461 658 459 659 C459 659 389 710 289 710 C133 710 72 615 72 534 C72 484 89 447 119 419 C84 386 70 346 70 307 C70 194 163 149 279 120 C398 90 481 50 481 -51 C481 -130 391 -195 291 -195 C185 -195 115 -133 103 -121 C100 -118 97 -118 95 -120 L95 -120 Z M283 137 C169 164 89 211 89 307 C89 343 102 379 133 408 C170 379 221 360 279 346 C398 316 481 276 481 177 C481 143 456 105 429 80 C392 105 342 122 283 137 L283 137 Z " />
<glyph glyph-name="dieresis" unicode="&#xa8;" horiz-adv-x="414" d="M319 605 C333 605 342 614 342 627 C342 641 333 650 319 650 C305 650 297 641 297 627 C297 614 305 605 319 605 L319 605 Z M130 605 C144 605 152 614 152 627 C152 641 144 650 130 650 C116 650 107 641 107 627 C107 614 116 605 130 605 L130 605 Z " />
<glyph glyph-name="copyright" unicode="&#xa9;" horiz-adv-x="859" d="M68 350 C68 151 230 -10 429 -10 C628 -10 791 151 791 350 C791 549 628 710 429 710 C230 710 68 549 68 350 L68 350 Z M86 350 C86 539 240 692 429 692 C618 692 773 539 773 350 C773 161 618 8 429 8 C240 8 86 161 86 350 L86 350 Z M246 348 C246 242 332 156 438 156 C483 156 523 169 558 199 C560 201 561 203 559 206 L556 211 C553 216 550 216 547 213 C513 184 477 174 438 174 C342 174 263 252 263 348 C263 446 342 524 438 524 C475 524 514 513 546 488 C549 486 551 486 553 489 L557 494 C559 497 558 500 555 502 C521 528 479 541 438 541 C332 541 246 456 246 348 L246 348 Z " />
<glyph glyph-name="ordfeminine" unicode="&#xaa;" horiz-adv-x="355" d="M155 401 C199 401 240 424 262 442 L262 417 C262 413 265 410 269 410 L273 410 C277 410 280 413 280 417 L280 613 C280 677 257 710 187 710 C127 710 92 686 92 686 C89 684 88 680 90 678 L93 672 C94 671 97 670 100 671 C100 671 132 692 187 692 C244 692 262 668 262 613 L262 587 C245 593 213 600 181 600 C104 600 53 558 53 502 C53 440 97 401 155 401 L155 401 Z M155 419 C107 419 71 449 71 502 C71 548 114 584 181 584 C217 584 250 573 262 569 L262 467 C247 448 204 419 155 419 L155 419 Z " />
<glyph glyph-name="guillemotleft" unicode="&#xab;" horiz-adv-x="416" d="M216 234 L338 62 C340 59 343 58 347 60 L352 63 C356 65 356 68 354 71 L237 238 L354 403 C356 406 356 409 352 411 L347 414 C343 416 340 415 338 412 L216 242 C214 239 214 237 216 234 L216 234 Z M178 62 C180 59 183 58 187 60 L192 63 C196 65 196 68 194 71 L77 238 L194 403 C196 406 196 409 192 411 L187 414 C183 416 180 415 178 412 L56 242 C54 239 54 237 56 234 L178 62 Z " />
<glyph glyph-name="logicalnot" unicode="&#xac;" horiz-adv-x="588" d="M104 340 L482 340 L482 154 C482 150 485 147 489 147 L493 147 C497 147 500 150 500 154 L500 351 C500 355 498 358 493 358 L104 358 C100 358 97 355 97 351 L97 347 C97 343 100 340 104 340 L104 340 Z " />
<glyph glyph-name="uni00AD" unicode="&#xad;" horiz-adv-x="405" d="M81 243 L324 243 C327 243 330 246 330 250 L330 254 C330 258 327 261 324 261 L81 261 C77 261 75 258 75 254 L75 250 C75 246 77 243 81 243 L81 243 Z " />
<glyph glyph-name="registered" unicode="&#xae;" horiz-adv-x="859" d="M68 350 C68 151 230 -10 429 -10 C628 -10 791 151 791 350 C791 549 628 710 429 710 C230 710 68 549 68 350 L68 350 Z M86 350 C86 539 240 692 429 692 C618 692 773 539 773 350 C773 161 618 8 429 8 C240 8 86 161 86 350 L86 350 Z M298 173 C298 169 301 166 304 166 L308 166 C312 166 315 169 315 173 L315 309 L454 309 L456 309 L537 169 C539 166 542 164 545 166 L551 169 C554 171 555 173 553 176 L475 310 C530 318 584 355 584 425 C584 505 520 539 454 539 L304 539 C301 539 298 536 298 532 L298 173 Z M315 326 L315 522 L454 522 C510 522 566 493 566 425 C566 358 507 326 454 326 L315 326 Z " />
<glyph glyph-name="macron" unicode="&#xaf;" horiz-adv-x="414" d="M63 607 L351 607 C355 607 358 610 358 614 L358 618 C358 622 355 625 351 625 L63 625 C59 625 56 622 56 618 L56 614 C56 610 59 607 63 607 L63 607 Z " />
<glyph glyph-name="degree" unicode="&#xb0;" horiz-adv-x="390" d="M195 427 C272 427 336 490 336 569 C336 647 272 710 195 710 C117 710 54 647 54 569 C54 490 117 427 195 427 L195 427 Z M195 445 C126 445 72 500 72 569 C72 637 126 692 195 692 C263 692 317 637 317 569 C317 500 263 445 195 445 L195 445 Z " />
<glyph glyph-name="plusminus" unicode="&#xb1;" horiz-adv-x="600" d="M290 225 C290 221 293 218 297 218 L301 218 C305 218 308 221 308 225 L308 381 L493 381 C497 381 500 384 500 388 L500 392 C500 396 497 399 493 399 L308 399 L308 584 C308 588 305 591 301 591 L297 591 C293 591 290 588 290 584 L290 399 L104 399 C100 399 97 396 97 392 L97 388 C97 384 100 381 104 381 L290 381 L290 225 Z M100 92 C100 88 103 85 107 85 L496 85 C500 85 503 88 503 92 L503 96 C503 100 500 103 496 103 L107 103 C103 103 100 100 100 96 L100 92 Z " />
<glyph glyph-name="twosuperior" unicode="&#xb2;" horiz-adv-x="286" d="M42 504 L234 504 C237 504 240 507 240 511 L240 515 C240 519 237 522 234 522 L69 522 L181 615 C217 645 243 679 243 719 C243 766 206 810 139 810 C76 810 49 765 49 765 C46 760 50 758 51 757 L56 753 C59 751 63 752 65 756 C65 756 86 792 139 792 C194 792 225 756 225 719 C225 681 199 651 169 626 L37 516 C32 512 35 504 42 504 L42 504 Z " />
<glyph glyph-name="threesuperior" unicode="&#xb3;" horiz-adv-x="305" d="M147 494 C215 494 261 531 261 581 C261 613 236 644 200 656 C227 668 252 698 252 729 C252 780 212 810 152 810 C85 810 51 768 51 768 C49 765 48 763 53 759 L58 755 C60 753 63 754 65 756 C65 756 93 792 152 792 C202 792 233 768 233 729 C233 693 202 664 159 664 L94 664 C90 664 87 661 87 657 L87 653 C87 649 90 646 94 646 L159 646 C211 646 242 616 242 581 C242 541 206 512 148 512 C89 512 63 540 53 549 C50 552 46 552 43 549 L40 546 C37 543 37 539 40 536 C52 525 86 494 147 494 L147 494 Z " />
<glyph glyph-name="acute" unicode="&#xb4;" horiz-adv-x="302" d="M63 560 L245 650 C249 652 250 655 248 659 L246 663 C243 668 240 667 237 666 L55 575 C51 573 51 570 52 568 L54 563 C56 559 58 558 63 560 L63 560 Z " />
<glyph glyph-name="mu" unicode="&#xb5;" horiz-adv-x="525" d="M96 201 L96 190 L96 -230 C96 -235 98 -238 103 -238 L107 -238 C112 -238 114 -235 114 -230 L114 86 C139 21 191 -11 276 -11 C361 -11 409 37 436 69 L436 8 C436 3 438 0 443 0 L448 0 C452 0 454 3 454 8 L454 454 C454 459 452 462 448 462 L443 462 C438 462 436 459 436 454 L436 99 C429 88 380 8 276 8 C165 8 114 75 114 201 L114 454 C114 459 112 462 108 462 L102 462 C98 462 96 459 96 454 L96 201 Z " />
<glyph glyph-name="paragraph" unicode="&#xb6;" horiz-adv-x="700" d="M251 274 C255 274 258 276 258 280 L258 284 C258 288 255 291 251 291 C145 291 56 377 56 488 C56 595 135 682 237 682 L323 682 L323 -231 C323 -235 325 -238 329 -238 L333 -238 C337 -238 340 -235 340 -231 L340 682 L533 682 L533 -231 C533 -235 536 -238 540 -238 L544 -238 C548 -238 551 -235 551 -231 L551 682 L651 682 C655 682 658 685 658 689 L658 693 C658 697 655 700 651 700 L237 700 C125 700 38 605 38 488 C38 368 135 274 251 274 L251 274 Z " />
<glyph glyph-name="periodcentered" unicode="&#xb7;" horiz-adv-x="198" d="M99 238 C113 238 123 249 123 262 C123 275 113 285 99 285 C86 285 75 275 75 262 C75 249 86 238 99 238 L99 238 Z " />
<glyph glyph-name="cedilla" unicode="&#xb8;" horiz-adv-x="247" d="M128 3 L71 -87 C69 -91 74 -101 80 -98 C94 -92 109 -89 128 -89 C165 -89 195 -111 195 -152 C195 -191 167 -217 123 -217 C93 -217 75 -205 60 -188 C57 -185 54 -185 51 -187 L45 -192 C42 -195 42 -198 45 -201 C62 -219 88 -235 123 -235 C176 -235 214 -200 214 -152 C214 -96 170 -71 129 -71 C115 -71 105 -73 96 -77 L150 3 L128 3 Z " />
<glyph glyph-name="onesuperior" unicode="&#xb9;" horiz-adv-x="167" d="M102 504 L106 504 C110 504 113 507 113 511 L113 798 C113 804 107 808 102 804 L29 751 C25 748 26 746 27 744 L32 737 C34 734 37 734 40 736 L95 777 L95 511 C95 507 98 504 102 504 L102 504 Z " />
<glyph glyph-name="ordmasculine" unicode="&#xba;" horiz-adv-x="360" d="M180 394 C256 394 302 455 302 552 C302 650 256 710 180 710 C104 710 59 650 59 552 C59 455 104 394 180 394 L180 394 Z M180 412 C115 412 76 465 76 552 C76 640 115 693 180 693 C246 693 284 640 284 552 C284 465 246 412 180 412 L180 412 Z " />
<glyph glyph-name="guillemotright" unicode="&#xbb;" horiz-adv-x="417" d="M223 71 C221 68 221 65 225 63 L230 60 C234 58 237 59 239 62 L361 234 C363 237 363 239 361 242 L239 412 C237 415 234 416 230 414 L225 411 C221 409 221 406 223 403 L340 238 L223 71 Z M65 63 L70 60 C74 58 77 59 79 62 L201 234 C203 237 203 239 201 242 L79 412 C77 415 74 416 70 414 L65 411 C61 409 61 406 63 403 L180 238 L63 71 C61 68 61 65 65 63 L65 63 Z " />
<glyph glyph-name="onequarter" unicode="&#xbc;" horiz-adv-x="624" d="M129 404 L133 404 C137 404 140 407 140 411 L140 698 C140 704 134 708 129 704 L56 651 C52 648 53 646 54 644 L59 637 C61 634 64 634 67 636 L122 677 L122 411 C122 407 125 404 129 404 L129 404 Z M65 12 C63 9 63 6 66 4 L74 -1 C77 -3 79 -1 81 2 L498 688 C501 693 498 695 496 696 L490 699 C487 701 484 701 482 698 L65 12 Z M305 79 C301 74 304 68 310 68 L502 68 L502 7 C502 3 505 0 509 0 L513 0 C517 0 520 3 520 7 L520 68 L570 68 C574 68 577 71 577 74 L577 78 C577 82 574 85 570 85 L520 85 L520 297 C520 304 513 306 508 302 L305 79 Z M332 85 L502 270 L502 85 L332 85 Z " />
<glyph glyph-name="onehalf" unicode="&#xbd;" horiz-adv-x="609" d="M129 404 L133 404 C137 404 140 407 140 411 L140 698 C140 704 134 708 129 704 L56 651 C52 648 53 646 54 644 L59 637 C61 634 64 634 67 636 L122 677 L122 411 C122 407 125 404 129 404 L129 404 Z M65 12 C63 9 63 6 66 4 L74 -1 C77 -3 79 -1 81 2 L498 688 C501 693 498 695 496 696 L490 699 C487 701 484 701 482 698 L65 12 Z M346 12 C341 8 344 0 351 0 L543 0 C546 0 549 3 549 7 L549 11 C549 15 546 18 543 18 L378 18 L490 111 C526 141 552 175 552 215 C552 262 515 306 448 306 C385 306 358 261 358 261 C355 256 359 254 360 253 L365 249 C368 247 372 248 374 252 C374 252 395 288 448 288 C503 288 534 252 534 215 C534 177 508 147 478 122 L346 12 Z " />
<glyph glyph-name="threequarters" unicode="&#xbe;" horiz-adv-x="685" d="M164 394 C232 394 278 431 278 481 C278 513 253 544 217 556 C244 568 269 598 269 629 C269 680 229 710 169 710 C102 710 68 668 68 668 C66 665 65 663 70 659 L75 655 C77 653 80 654 82 656 C82 656 110 692 169 692 C219 692 250 668 250 629 C250 593 219 564 176 564 L111 564 C107 564 104 561 104 557 L104 553 C104 549 107 546 111 546 L176 546 C228 546 259 516 259 481 C259 441 223 412 165 412 C106 412 80 440 70 449 C67 452 63 452 60 449 L57 446 C54 443 54 439 57 436 C69 425 103 394 164 394 L164 394 Z M126 12 C124 9 124 6 127 4 L135 -1 C138 -3 140 -1 142 2 L559 688 C562 693 559 695 557 696 L551 699 C548 701 545 701 543 698 L126 12 Z M366 79 C362 74 365 68 371 68 L563 68 L563 7 C563 3 566 0 570 0 L574 0 C578 0 581 3 581 7 L581 68 L631 68 C635 68 638 71 638 74 L638 78 C638 82 635 85 631 85 L581 85 L581 297 C581 304 574 306 569 302 L366 79 Z M393 85 L563 270 L563 85 L393 85 Z " />
<glyph glyph-name="questiondown" unicode="&#xbf;" horiz-adv-x="476" d="M261 425 C274 425 284 435 284 448 C284 461 274 472 261 472 C247 472 237 461 237 448 C237 435 247 425 261 425 L261 425 Z M208 73 C161 46 72 -10 72 -102 C72 -185 144 -249 251 -249 C380 -249 438 -159 438 -159 C441 -154 438 -153 436 -151 L431 -147 C429 -145 425 -146 423 -149 C423 -149 370 -231 251 -231 C154 -231 89 -175 89 -102 C89 -20 172 32 216 57 C236 68 274 88 274 137 L274 197 C274 201 271 204 267 204 L263 204 C259 204 256 201 256 197 L256 137 C256 98 227 83 208 73 L208 73 Z " />
<glyph glyph-name="Agrave" unicode="&#xc0;" horiz-adv-x="633" d="M4 7 C3 4 4 2 7 1 L16 -2 C19 -3 20 -1 21 1 L111 210 L520 210 L609 1 C610 -1 611 -3 614 -2 L623 1 C626 2 627 4 626 7 L324 717 C323 719 321 721 319 721 L317 721 C315 721 313 719 312 717 L4 7 Z M119 227 L318 685 L512 227 L119 227 Z M415 778 C420 776 422 777 424 781 L426 786 C427 788 427 791 423 793 L241 884 C238 885 235 886 232 881 L230 877 C228 873 229 870 233 868 L415 778 Z " />
<glyph glyph-name="Aacute" unicode="&#xc1;" horiz-adv-x="633" d="M4 7 C3 4 4 2 7 1 L16 -2 C19 -3 20 -1 21 1 L111 210 L520 210 L609 1 C610 -1 611 -3 614 -2 L623 1 C626 2 627 4 626 7 L324 717 C323 719 321 721 319 721 L317 721 C315 721 313 719 312 717 L4 7 Z M119 227 L318 685 L512 227 L119 227 Z M237 778 L419 868 C423 870 424 873 422 877 L420 881 C417 886 414 885 411 884 L229 793 C225 791 225 788 226 786 L228 781 C230 777 232 776 237 778 L237 778 Z " />
<glyph glyph-name="Acircumflex" unicode="&#xc2;" horiz-adv-x="633" d="M4 7 C3 4 4 2 7 1 L16 -2 C19 -3 20 -1 21 1 L111 210 L520 210 L609 1 C610 -1 611 -3 614 -2 L623 1 C626 2 627 4 626 7 L324 717 C323 719 321 721 319 721 L317 721 C315 721 313 719 312 717 L4 7 Z M119 227 L318 685 L512 227 L119 227 Z M193 763 L317 864 L441 763 C445 760 447 763 448 764 L452 769 C454 772 453 774 450 777 L321 883 C319 885 315 885 313 883 L184 777 C181 774 180 772 182 769 L186 764 C187 763 189 760 193 763 L193 763 Z " />
<glyph glyph-name="Atilde" unicode="&#xc3;" horiz-adv-x="633" d="M4 7 C3 4 4 2 7 1 L16 -2 C19 -3 20 -1 21 1 L111 210 L520 210 L609 1 C610 -1 611 -3 614 -2 L623 1 C626 2 627 4 626 7 L324 717 C323 719 321 721 319 721 L317 721 C315 721 313 719 312 717 L4 7 Z M119 227 L318 685 L512 227 L119 227 Z M181 802 C184 801 187 803 188 807 C193 824 211 880 256 880 C289 880 300 849 307 832 C316 810 333 772 378 772 C437 772 458 838 464 856 C466 861 465 864 461 865 L453 867 C450 868 447 866 446 862 C441 845 423 790 378 790 C346 790 333 817 325 836 C315 860 301 897 256 897 C197 897 176 832 170 813 C168 808 169 805 173 804 L181 802 Z " />
<glyph glyph-name="Adieresis" unicode="&#xc4;" horiz-adv-x="633" d="M4 7 C3 4 4 2 7 1 L16 -2 C19 -3 20 -1 21 1 L111 210 L520 210 L609 1 C610 -1 611 -3 614 -2 L623 1 C626 2 627 4 626 7 L324 717 C323 719 321 721 319 721 L317 721 C315 721 313 719 312 717 L4 7 Z M119 227 L318 685 L512 227 L119 227 Z M421 808 C435 808 444 817 444 830 C444 844 435 853 421 853 C407 853 398 844 398 830 C398 817 407 808 421 808 L421 808 Z M214 808 C228 808 237 817 237 830 C237 844 228 853 214 853 C200 853 191 844 191 830 C191 817 200 808 214 808 L214 808 Z " />
<glyph glyph-name="Aring" unicode="&#xc5;" horiz-adv-x="633" d="M4 7 C3 4 4 2 7 1 L16 -2 C19 -3 20 -1 21 1 L111 210 L520 210 L609 1 C610 -1 611 -3 614 -2 L623 1 C626 2 627 4 626 7 L324 717 C323 719 321 721 319 721 L317 721 C315 721 313 719 312 717 L4 7 Z M119 227 L318 685 L512 227 L119 227 Z M318 750 C376 750 422 795 422 854 C422 912 376 958 318 958 C259 958 214 912 214 854 C214 795 259 750 318 750 L318 750 Z M318 767 C270 767 232 806 232 854 C232 901 270 941 318 941 C365 941 404 901 404 854 C404 806 365 767 318 767 L318 767 Z " />
<glyph glyph-name="AE" unicode="&#xc6;" horiz-adv-x="916" d="M-2 -1 C1 -3 4 -3 6 0 L143 210 L438 210 L438 7 C438 3 441 0 445 0 L851 0 C855 0 858 3 858 7 L858 11 C858 15 855 18 851 18 L455 18 L455 355 L803 355 C807 355 810 358 810 362 L810 366 C810 370 807 373 803 373 L455 373 L455 682 L851 682 C855 682 858 685 858 689 L858 693 C858 697 855 700 851 700 L453 700 C443 700 440 699 436 692 L-9 10 C-12 5 -10 4 -7 2 L-2 -1 Z M153 227 L438 662 L438 227 L153 227 Z " />
<glyph glyph-name="Ccedilla" unicode="&#xc7;" horiz-adv-x="724" d="M60 349 C60 162 200 12 382 -8 L332 -87 C330 -91 335 -101 341 -98 C355 -92 370 -89 389 -89 C426 -89 456 -111 456 -152 C456 -191 428 -217 384 -217 C354 -217 336 -205 321 -188 C318 -185 315 -185 312 -187 L306 -192 C303 -195 303 -198 306 -201 C323 -219 349 -235 384 -235 C437 -235 475 -200 475 -152 C475 -96 431 -71 390 -71 C376 -71 366 -73 357 -77 L402 -9 C409 -10 416 -10 423 -10 C512 -10 598 22 667 88 C669 90 669 93 667 95 L662 101 C660 104 656 103 654 101 C587 40 508 8 423 8 C232 8 78 158 78 349 C78 540 232 692 423 692 C519 692 589 659 654 603 C656 601 659 600 662 603 L667 609 C669 612 668 615 666 617 C598 674 525 710 423 710 C222 710 60 550 60 349 L60 349 Z " />
<glyph glyph-name="Egrave" unicode="&#xc8;" horiz-adv-x="587" d="M108 7 C108 3 111 0 115 0 L522 0 C526 0 529 3 529 7 L529 11 C529 15 526 18 522 18 L126 18 L126 355 L474 355 C478 355 481 358 481 362 L481 366 C481 370 478 373 474 373 L126 373 L126 682 L522 682 C526 682 529 685 529 689 L529 693 C529 697 526 700 522 700 L115 700 C111 700 108 697 108 693 L108 7 Z M417 778 C422 776 424 777 426 781 L428 786 C429 788 429 791 425 793 L243 884 C240 885 237 886 234 881 L232 877 C230 873 231 870 235 868 L417 778 Z " />
<glyph glyph-name="Eacute" unicode="&#xc9;" horiz-adv-x="587" d="M108 7 C108 3 111 0 115 0 L522 0 C526 0 529 3 529 7 L529 11 C529 15 526 18 522 18 L126 18 L126 355 L474 355 C478 355 481 358 481 362 L481 366 C481 370 478 373 474 373 L126 373 L126 682 L522 682 C526 682 529 685 529 689 L529 693 C529 697 526 700 522 700 L115 700 C111 700 108 697 108 693 L108 7 Z M239 778 L421 868 C425 870 426 873 424 877 L422 881 C419 886 416 885 413 884 L231 793 C227 791 227 788 228 786 L230 781 C232 777 234 776 239 778 L239 778 Z " />
<glyph glyph-name="Ecircumflex" unicode="&#xca;" horiz-adv-x="587" d="M108 7 C108 3 111 0 115 0 L522 0 C526 0 529 3 529 7 L529 11 C529 15 526 18 522 18 L126 18 L126 355 L474 355 C478 355 481 358 481 362 L481 366 C481 370 478 373 474 373 L126 373 L126 682 L522 682 C526 682 529 685 529 689 L529 693 C529 697 526 700 522 700 L115 700 C111 700 108 697 108 693 L108 7 Z M194 763 L318 864 L442 763 C446 760 448 763 449 764 L453 769 C455 772 454 774 451 777 L322 883 C320 885 316 885 314 883 L185 777 C182 774 181 772 183 769 L187 764 C188 763 190 760 194 763 L194 763 Z " />
<glyph glyph-name="Edieresis" unicode="&#xcb;" horiz-adv-x="587" d="M108 7 C108 3 111 0 115 0 L522 0 C526 0 529 3 529 7 L529 11 C529 15 526 18 522 18 L126 18 L126 355 L474 355 C478 355 481 358 481 362 L481 366 C481 370 478 373 474 373 L126 373 L126 682 L522 682 C526 682 529 685 529 689 L529 693 C529 697 526 700 522 700 L115 700 C111 700 108 697 108 693 L108 7 Z M423 808 C437 808 446 817 446 830 C446 844 437 853 423 853 C409 853 400 844 400 830 C400 817 409 808 423 808 L423 808 Z M216 808 C230 808 239 817 239 830 C239 844 230 853 216 853 C202 853 193 844 193 830 C193 817 202 808 216 808 L216 808 Z " />
<glyph glyph-name="Igrave" unicode="&#xcc;" horiz-adv-x="234" d="M108 7 C108 3 111 0 115 0 L119 0 C123 0 126 3 126 7 L126 693 C126 697 123 700 119 700 L115 700 C111 700 108 697 108 693 L108 7 Z M215 778 C220 776 222 777 224 781 L226 786 C227 788 227 791 223 793 L41 884 C38 885 35 886 32 881 L30 877 C28 873 29 870 33 868 L215 778 Z " />
<glyph glyph-name="Iacute" unicode="&#xcd;" horiz-adv-x="234" d="M108 7 C108 3 111 0 115 0 L119 0 C123 0 126 3 126 7 L126 693 C126 697 123 700 119 700 L115 700 C111 700 108 697 108 693 L108 7 Z M36 778 L218 868 C222 870 223 873 221 877 L219 881 C216 886 213 885 210 884 L28 793 C24 791 24 788 25 786 L27 781 C29 777 31 776 36 778 L36 778 Z " />
<glyph glyph-name="Icircumflex" unicode="&#xce;" horiz-adv-x="234" d="M108 7 C108 3 111 0 115 0 L119 0 C123 0 126 3 126 7 L126 693 C126 697 123 700 119 700 L115 700 C111 700 108 697 108 693 L108 7 Z M-7 763 L117 864 L241 763 C245 760 247 763 248 764 L252 769 C254 772 253 774 250 777 L121 883 C119 885 115 885 113 883 L-16 777 C-19 774 -20 772 -18 769 L-14 764 C-13 763 -11 760 -7 763 L-7 763 Z " />
<glyph glyph-name="Idieresis" unicode="&#xcf;" horiz-adv-x="234" d="M108 7 C108 3 111 0 115 0 L119 0 C123 0 126 3 126 7 L126 693 C126 697 123 700 119 700 L115 700 C111 700 108 697 108 693 L108 7 Z M221 808 C235 808 244 817 244 830 C244 844 235 853 221 853 C207 853 198 844 198 830 C198 817 207 808 221 808 L221 808 Z M14 808 C28 808 37 817 37 830 C37 844 28 853 14 853 C0 853 -9 844 -9 830 C-9 817 0 808 14 808 L14 808 Z " />
<glyph glyph-name="Eth" unicode="&#xd0;" horiz-adv-x="749" d="M108 7 C108 3 111 0 115 0 L335 0 C529 0 688 156 688 351 C688 544 529 700 335 700 L115 700 C111 700 108 697 108 693 L108 358 L68 358 C64 358 61 355 61 351 L61 347 C61 343 64 340 68 340 L108 340 L108 7 Z M126 18 L126 340 L415 340 C419 340 422 343 422 347 L422 351 C422 355 419 358 415 358 L126 358 L126 682 L335 682 C519 682 670 534 670 351 C670 166 519 18 335 18 L126 18 Z " />
<glyph glyph-name="Ntilde" unicode="&#xd1;" horiz-adv-x="764" d="M108 7 C108 3 111 0 115 0 L119 0 C123 0 126 3 126 7 L126 677 L643 -12 C647 -18 656 -15 656 -8 L656 693 C656 697 653 700 649 700 L645 700 C641 700 638 697 638 693 L638 25 L121 714 C117 720 108 717 108 710 L108 7 Z M268 802 C271 801 274 803 275 807 C280 824 298 880 343 880 C376 880 387 849 394 832 C403 810 420 772 465 772 C524 772 545 838 551 856 C553 861 552 864 548 865 L540 867 C537 868 534 866 533 862 C528 845 510 790 465 790 C433 790 420 817 412 836 C402 860 388 897 343 897 C284 897 263 832 257 813 C255 808 256 805 260 804 L268 802 Z " />
<glyph glyph-name="Ograve" unicode="&#xd2;" horiz-adv-x="844" d="M61 349 C61 148 221 -10 422 -10 C623 -10 784 148 784 349 C784 550 623 710 422 710 C221 710 61 550 61 349 L61 349 Z M79 349 C79 540 231 692 422 692 C613 692 766 540 766 349 C766 158 613 8 422 8 C231 8 79 158 79 349 L79 349 Z M520 778 C525 776 527 777 529 781 L531 786 C532 788 532 791 528 793 L346 884 C343 885 340 886 337 881 L335 877 C333 873 334 870 338 868 L520 778 Z " />
<glyph glyph-name="Oacute" unicode="&#xd3;" horiz-adv-x="844" d="M61 349 C61 148 221 -10 422 -10 C623 -10 784 148 784 349 C784 550 623 710 422 710 C221 710 61 550 61 349 L61 349 Z M79 349 C79 540 231 692 422 692 C613 692 766 540 766 349 C766 158 613 8 422 8 C231 8 79 158 79 349 L79 349 Z M342 778 L524 868 C528 870 529 873 527 877 L525 881 C522 886 519 885 516 884 L334 793 C330 791 330 788 331 786 L333 781 C335 777 337 776 342 778 L342 778 Z " />
<glyph glyph-name="Ocircumflex" unicode="&#xd4;" horiz-adv-x="844" d="M61 349 C61 148 221 -10 422 -10 C623 -10 784 148 784 349 C784 550 623 710 422 710 C221 710 61 550 61 349 L61 349 Z M79 349 C79 540 231 692 422 692 C613 692 766 540 766 349 C766 158 613 8 422 8 C231 8 79 158 79 349 L79 349 Z M297 763 L421 864 L545 763 C549 760 551 763 552 764 L556 769 C558 772 557 774 554 777 L425 883 C423 885 419 885 417 883 L288 777 C285 774 284 772 286 769 L290 764 C291 763 293 760 297 763 L297 763 Z " />
<glyph glyph-name="Otilde" unicode="&#xd5;" horiz-adv-x="844" d="M61 349 C61 148 221 -10 422 -10 C623 -10 784 148 784 349 C784 550 623 710 422 710 C221 710 61 550 61 349 L61 349 Z M79 349 C79 540 231 692 422 692 C613 692 766 540 766 349 C766 158 613 8 422 8 C231 8 79 158 79 349 L79 349 Z M285 802 C288 801 291 803 292 807 C297 824 315 880 360 880 C393 880 404 849 411 832 C420 810 437 772 482 772 C541 772 562 838 568 856 C570 861 569 864 565 865 L557 867 C554 868 551 866 550 862 C545 845 527 790 482 790 C450 790 437 817 429 836 C419 860 405 897 360 897 C301 897 280 832 274 813 C272 808 273 805 277 804 L285 802 Z " />
<glyph glyph-name="Odieresis" unicode="&#xd6;" horiz-adv-x="844" d="M61 349 C61 148 221 -10 422 -10 C623 -10 784 148 784 349 C784 550 623 710 422 710 C221 710 61 550 61 349 L61 349 Z M79 349 C79 540 231 692 422 692 C613 692 766 540 766 349 C766 158 613 8 422 8 C231 8 79 158 79 349 L79 349 Z M526 808 C540 808 549 817 549 830 C549 844 540 853 526 853 C512 853 503 844 503 830 C503 817 512 808 526 808 L526 808 Z M319 808 C333 808 342 817 342 830 C342 844 333 853 319 853 C305 853 296 844 296 830 C296 817 305 808 319 808 L319 808 Z " />
<glyph glyph-name="multiply" unicode="&#xd7;" horiz-adv-x="600" d="M159 204 C161 201 166 201 168 204 L300 335 L432 204 C434 201 439 201 441 204 L444 207 C447 209 447 214 444 216 L313 348 L444 479 C446 482 446 486 444 489 L441 492 C438 494 434 494 431 492 L300 361 L169 492 C166 494 162 494 159 492 L156 489 C154 486 154 482 156 479 L287 348 L156 216 C153 214 153 209 156 207 L159 204 Z " />
<glyph glyph-name="Oslash" unicode="&#xd8;" horiz-adv-x="844" d="M86 34 L89 31 C92 28 96 28 98 31 L164 94 C230 28 320 -10 422 -10 C623 -10 784 148 784 349 C784 443 747 528 689 593 L757 658 C760 661 760 665 757 668 L754 671 C751 674 747 674 745 671 L677 606 C612 671 522 710 422 710 C221 710 61 550 61 349 C61 256 96 172 152 108 L86 44 C83 41 83 37 86 34 L86 34 Z M165 120 C111 180 79 260 79 349 C79 540 231 692 422 692 C516 692 601 655 664 594 L165 120 Z M178 107 L677 581 C732 520 766 438 766 349 C766 158 613 8 422 8 C326 8 240 44 178 107 L178 107 Z " />
<glyph glyph-name="Ugrave" unicode="&#xd9;" horiz-adv-x="718" d="M100 252 C100 98 199 -10 358 -10 C518 -10 618 98 618 252 L618 693 C618 697 615 700 611 700 L607 700 C603 700 600 697 600 693 L600 252 C600 108 508 8 358 8 C209 8 118 108 118 252 L118 693 C118 697 115 700 111 700 L107 700 C103 700 100 697 100 693 L100 252 Z M457 778 C462 776 464 777 466 781 L468 786 C469 788 469 791 465 793 L283 884 C280 885 277 886 274 881 L272 877 C270 873 271 870 275 868 L457 778 Z " />
<glyph glyph-name="Uacute" unicode="&#xda;" horiz-adv-x="718" d="M100 252 C100 98 199 -10 358 -10 C518 -10 618 98 618 252 L618 693 C618 697 615 700 611 700 L607 700 C603 700 600 697 600 693 L600 252 C600 108 508 8 358 8 C209 8 118 108 118 252 L118 693 C118 697 115 700 111 700 L107 700 C103 700 100 697 100 693 L100 252 Z M279 778 L461 868 C465 870 466 873 464 877 L462 881 C459 886 456 885 453 884 L271 793 C267 791 267 788 268 786 L270 781 C272 777 274 776 279 778 L279 778 Z " />
<glyph glyph-name="Ucircumflex" unicode="&#xdb;" horiz-adv-x="718" d="M100 252 C100 98 199 -10 358 -10 C518 -10 618 98 618 252 L618 693 C618 697 615 700 611 700 L607 700 C603 700 600 697 600 693 L600 252 C600 108 508 8 358 8 C209 8 118 108 118 252 L118 693 C118 697 115 700 111 700 L107 700 C103 700 100 697 100 693 L100 252 Z M234 763 L358 864 L482 763 C486 760 488 763 489 764 L493 769 C495 772 494 774 491 777 L362 883 C360 885 356 885 354 883 L225 777 C222 774 221 772 223 769 L227 764 C228 763 230 760 234 763 L234 763 Z " />
<glyph glyph-name="Udieresis" unicode="&#xdc;" horiz-adv-x="718" d="M100 252 C100 98 199 -10 358 -10 C518 -10 618 98 618 252 L618 693 C618 697 615 700 611 700 L607 700 C603 700 600 697 600 693 L600 252 C600 108 508 8 358 8 C209 8 118 108 118 252 L118 693 C118 697 115 700 111 700 L107 700 C103 700 100 697 100 693 L100 252 Z M463 808 C477 808 486 817 486 830 C486 844 477 853 463 853 C449 853 440 844 440 830 C440 817 449 808 463 808 L463 808 Z M256 808 C270 808 279 817 279 830 C279 844 270 853 256 853 C242 853 233 844 233 830 C233 817 242 808 256 808 L256 808 Z " />
<glyph glyph-name="Yacute" unicode="&#xdd;" horiz-adv-x="552" d="M267 7 C267 3 270 0 274 0 L278 0 C282 0 285 3 285 7 L285 344 L549 688 C551 691 552 694 548 697 L542 701 C539 703 536 701 534 698 L276 359 L18 698 C16 700 14 703 10 701 L4 697 C0 694 1 691 3 688 L267 343 L267 7 Z M190 778 L372 868 C376 870 377 873 375 877 L373 881 C370 886 367 885 364 884 L182 793 C178 791 178 788 179 786 L181 781 C183 777 185 776 190 778 L190 778 Z " />
<glyph glyph-name="Thorn" unicode="&#xde;" horiz-adv-x="592" d="M108 7 C108 3 111 0 115 0 L119 0 C123 0 126 3 126 7 L126 124 L324 124 C449 124 552 226 552 353 C552 476 449 578 323 578 L126 578 L126 693 C126 697 123 700 119 700 L115 700 C111 700 108 697 108 693 L108 7 Z M126 141 L126 561 L323 561 C439 561 534 467 534 353 C534 236 439 141 324 141 L126 141 Z " />
<glyph glyph-name="germandbls" unicode="&#xdf;" horiz-adv-x="553" d="M88 8 C88 3 90 0 95 0 L99 0 C104 0 106 3 106 8 L106 462 C106 600 141 692 271 692 C359 692 418 634 418 538 C418 443 329 402 329 357 C329 336 352 317 379 295 C423 260 484 214 484 146 C484 44 410 7 327 7 C279 7 236 23 226 29 C221 31 219 30 217 25 L214 19 C212 15 214 13 218 11 C231 5 275 -11 327 -11 C421 -11 502 30 502 146 C502 222 439 271 390 308 C364 328 347 345 347 358 C347 393 436 444 436 538 C436 642 369 710 271 710 C128 710 88 606 88 458 L88 8 Z " />
<glyph glyph-name="agrave" unicode="&#xe0;" horiz-adv-x="487" d="M44 144 C44 47 114 -11 204 -11 C280 -11 349 29 385 60 L385 8 C385 3 387 0 392 0 L396 0 C402 0 403 3 403 8 L403 319 C403 424 368 472 255 472 C162 472 111 441 102 436 C100 435 97 432 100 426 L102 422 C104 418 107 417 113 420 C122 425 166 454 255 454 C352 454 385 411 385 319 L385 276 C360 286 303 302 246 302 C124 302 44 235 44 144 L44 144 Z M62 144 C62 224 136 284 246 284 C308 284 369 263 385 257 L385 86 C362 57 288 7 204 7 C125 7 62 59 62 144 L62 144 Z M330 560 C335 558 337 559 339 563 L341 568 C342 570 342 573 338 575 L156 666 C153 667 150 668 147 663 L145 659 C143 655 144 652 148 650 L330 560 Z " />
<glyph glyph-name="aacute" unicode="&#xe1;" horiz-adv-x="487" d="M44 144 C44 47 114 -11 204 -11 C280 -11 349 29 385 60 L385 8 C385 3 387 0 392 0 L396 0 C402 0 403 3 403 8 L403 319 C403 424 368 472 255 472 C162 472 111 441 102 436 C100 435 97 432 100 426 L102 422 C104 418 107 417 113 420 C122 425 166 454 255 454 C352 454 385 411 385 319 L385 276 C360 286 303 302 246 302 C124 302 44 235 44 144 L44 144 Z M62 144 C62 224 136 284 246 284 C308 284 369 263 385 257 L385 86 C362 57 288 7 204 7 C125 7 62 59 62 144 L62 144 Z M167 560 L349 650 C353 652 354 655 352 659 L350 663 C347 668 344 667 341 666 L159 575 C155 573 155 570 156 568 L158 563 C160 559 162 558 167 560 L167 560 Z " />
<glyph glyph-name="acircumflex" unicode="&#xe2;" horiz-adv-x="487" d="M44 144 C44 47 114 -11 204 -11 C280 -11 349 29 385 60 L385 8 C385 3 387 0 392 0 L396 0 C402 0 403 3 403 8 L403 319 C403 424 368 472 255 472 C162 472 111 441 102 436 C100 435 97 432 100 426 L102 422 C104 418 107 417 113 420 C122 425 166 454 255 454 C352 454 385 411 385 319 L385 276 C360 286 303 302 246 302 C124 302 44 235 44 144 L44 144 Z M62 144 C62 224 136 284 246 284 C308 284 369 263 385 257 L385 86 C362 57 288 7 204 7 C125 7 62 59 62 144 L62 144 Z M119 548 L243 649 L367 548 C371 545 373 548 374 549 L378 554 C380 557 379 559 376 562 L247 668 C245 670 241 670 239 668 L110 562 C107 559 106 557 108 554 L112 549 C113 548 115 545 119 548 L119 548 Z " />
<glyph glyph-name="atilde" unicode="&#xe3;" horiz-adv-x="487" d="M44 144 C44 47 114 -11 204 -11 C280 -11 349 29 385 60 L385 8 C385 3 387 0 392 0 L396 0 C402 0 403 3 403 8 L403 319 C403 424 368 472 255 472 C162 472 111 441 102 436 C100 435 97 432 100 426 L102 422 C104 418 107 417 113 420 C122 425 166 454 255 454 C352 454 385 411 385 319 L385 276 C360 286 303 302 246 302 C124 302 44 235 44 144 L44 144 Z M62 144 C62 224 136 284 246 284 C308 284 369 263 385 257 L385 86 C362 57 288 7 204 7 C125 7 62 59 62 144 L62 144 Z M105 583 C108 582 111 584 112 588 C117 605 135 661 180 661 C213 661 224 630 231 613 C240 591 257 553 302 553 C361 553 382 619 388 637 C390 642 389 645 385 646 L377 648 C374 649 371 647 370 643 C365 626 347 571 302 571 C270 571 257 598 249 617 C239 641 225 678 180 678 C121 678 100 613 94 594 C92 589 93 586 97 585 L105 583 Z " />
<glyph glyph-name="adieresis" unicode="&#xe4;" horiz-adv-x="487" d="M44 144 C44 47 114 -11 204 -11 C280 -11 349 29 385 60 L385 8 C385 3 387 0 392 0 L396 0 C402 0 403 3 403 8 L403 319 C403 424 368 472 255 472 C162 472 111 441 102 436 C100 435 97 432 100 426 L102 422 C104 418 107 417 113 420 C122 425 166 454 255 454 C352 454 385 411 385 319 L385 276 C360 286 303 302 246 302 C124 302 44 235 44 144 L44 144 Z M62 144 C62 224 136 284 246 284 C308 284 369 263 385 257 L385 86 C362 57 288 7 204 7 C125 7 62 59 62 144 L62 144 Z M343 605 C357 605 366 614 366 627 C366 641 357 650 343 650 C329 650 321 641 321 627 C321 614 329 605 343 605 L343 605 Z M154 605 C168 605 176 614 176 627 C176 641 168 650 154 650 C140 650 131 641 131 627 C131 614 140 605 154 605 L154 605 Z " />
<glyph glyph-name="aring" unicode="&#xe5;" horiz-adv-x="487" d="M44 144 C44 47 114 -11 204 -11 C280 -11 349 29 385 60 L385 8 C385 3 387 0 392 0 L396 0 C402 0 403 3 403 8 L403 319 C403 424 368 472 255 472 C162 472 111 441 102 436 C100 435 97 432 100 426 L102 422 C104 418 107 417 113 420 C122 425 166 454 255 454 C352 454 385 411 385 319 L385 276 C360 286 303 302 246 302 C124 302 44 235 44 144 L44 144 Z M62 144 C62 224 136 284 246 284 C308 284 369 263 385 257 L385 86 C362 57 288 7 204 7 C125 7 62 59 62 144 L62 144 Z M240 508 C298 508 344 553 344 612 C344 670 298 716 240 716 C181 716 136 670 136 612 C136 553 181 508 240 508 L240 508 Z M240 525 C192 525 154 564 154 612 C154 659 192 699 240 699 C287 699 326 659 326 612 C326 564 287 525 240 525 L240 525 Z " />
<glyph glyph-name="ae" unicode="&#xe6;" horiz-adv-x="824" d="M44 146 C44 46 114 -11 204 -11 C288 -11 365 32 396 65 C434 18 495 -11 568 -11 C643 -11 701 19 735 42 C738 44 740 47 738 50 L734 57 C733 59 729 61 725 58 C698 37 640 7 568 7 C506 7 450 28 406 83 L406 223 L764 223 C768 223 771 225 772 228 C775 235 776 254 776 262 C776 386 691 472 566 472 C498 472 435 445 394 399 C376 448 332 472 256 472 C160 472 102 436 102 436 C100 435 99 430 100 427 L103 421 C106 417 109 417 114 419 C127 425 175 454 256 454 C354 454 387 411 387 319 L387 276 C362 286 303 302 246 302 C124 302 44 235 44 146 L44 146 Z M406 241 L406 319 C406 339 405 359 402 375 C435 424 497 454 566 454 C677 454 757 375 757 262 C757 257 757 249 756 241 L406 241 Z M62 146 C62 223 136 284 246 284 C309 284 371 262 387 257 L387 83 C363 53 287 7 204 7 C125 7 62 58 62 146 L62 146 Z " />
<glyph glyph-name="ccedilla" unicode="&#xe7;" horiz-adv-x="535" d="M55 233 C55 98 158 0 280 -10 L232 -87 C230 -91 235 -101 241 -98 C255 -92 270 -89 289 -89 C326 -89 356 -111 356 -152 C356 -191 328 -217 284 -217 C254 -217 236 -205 221 -188 C218 -185 215 -185 212 -187 L206 -192 C203 -195 203 -198 206 -201 C223 -219 249 -235 284 -235 C337 -235 375 -200 375 -152 C375 -96 331 -71 290 -71 C276 -71 266 -73 257 -77 L301 -11 C416 -11 481 63 486 69 C488 71 489 75 486 78 L481 83 C479 85 475 85 472 82 C465 75 404 7 301 7 C182 7 73 103 73 233 C73 361 179 454 301 454 C400 454 451 408 464 397 C468 394 471 392 474 395 L479 401 C481 403 483 407 479 411 C465 423 412 472 301 472 C167 472 55 373 55 233 L55 233 Z " />
<glyph glyph-name="egrave" unicode="&#xe8;" horiz-adv-x="541" d="M74 223 L480 223 C482 223 486 226 487 228 C491 233 492 254 492 262 C492 387 406 472 283 472 C142 472 56 367 56 233 C56 97 142 -11 283 -11 C360 -11 422 21 452 43 C454 45 456 47 454 50 L450 57 C449 59 445 61 441 58 C415 37 355 7 283 7 C157 7 77 103 74 223 L74 223 Z M74 241 C78 359 157 454 283 454 C391 454 474 376 474 262 C474 257 474 249 473 241 L74 241 Z M370 560 C375 558 377 559 379 563 L381 568 C382 570 382 573 378 575 L196 666 C193 667 190 668 187 663 L185 659 C183 655 184 652 188 650 L370 560 Z " />
<glyph glyph-name="eacute" unicode="&#xe9;" horiz-adv-x="541" d="M74 223 L480 223 C482 223 486 226 487 228 C491 233 492 254 492 262 C492 387 406 472 283 472 C142 472 56 367 56 233 C56 97 142 -11 283 -11 C360 -11 422 21 452 43 C454 45 456 47 454 50 L450 57 C449 59 445 61 441 58 C415 37 355 7 283 7 C157 7 77 103 74 223 L74 223 Z M74 241 C78 359 157 454 283 454 C391 454 474 376 474 262 C474 257 474 249 473 241 L74 241 Z M200 560 L382 650 C386 652 387 655 385 659 L383 663 C380 668 377 667 374 666 L192 575 C188 573 188 570 189 568 L191 563 C193 559 195 558 200 560 L200 560 Z " />
<glyph glyph-name="ecircumflex" unicode="&#xea;" horiz-adv-x="541" d="M74 223 L480 223 C482 223 486 226 487 228 C491 233 492 254 492 262 C492 387 406 472 283 472 C142 472 56 367 56 233 C56 97 142 -11 283 -11 C360 -11 422 21 452 43 C454 45 456 47 454 50 L450 57 C449 59 445 61 441 58 C415 37 355 7 283 7 C157 7 77 103 74 223 L74 223 Z M74 241 C78 359 157 454 283 454 C391 454 474 376 474 262 C474 257 474 249 473 241 L74 241 Z M159 548 L283 649 L407 548 C411 545 413 548 414 549 L418 554 C420 557 419 559 416 562 L287 668 C285 670 281 670 279 668 L150 562 C147 559 146 557 148 554 L152 549 C153 548 155 545 159 548 L159 548 Z " />
<glyph glyph-name="edieresis" unicode="&#xeb;" horiz-adv-x="541" d="M74 223 L480 223 C482 223 486 226 487 228 C491 233 492 254 492 262 C492 387 406 472 283 472 C142 472 56 367 56 233 C56 97 142 -11 283 -11 C360 -11 422 21 452 43 C454 45 456 47 454 50 L450 57 C449 59 445 61 441 58 C415 37 355 7 283 7 C157 7 77 103 74 223 L74 223 Z M74 241 C78 359 157 454 283 454 C391 454 474 376 474 262 C474 257 474 249 473 241 L74 241 Z M385 605 C399 605 408 614 408 627 C408 641 399 650 385 650 C371 650 363 641 363 627 C363 614 371 605 385 605 L385 605 Z M196 605 C210 605 218 614 218 627 C218 641 210 650 196 650 C182 650 173 641 173 627 C173 614 182 605 196 605 L196 605 Z " />
<glyph glyph-name="igrave" unicode="&#xec;" horiz-adv-x="194" d="M89 8 C89 3 91 0 96 0 L100 0 C105 0 107 3 107 8 L107 454 C107 459 105 462 100 462 L96 462 C91 462 89 459 89 454 L89 8 Z M188 560 C193 558 195 559 197 563 L199 568 C200 570 200 573 196 575 L14 666 C11 667 8 668 5 663 L3 659 C1 655 2 652 6 650 L188 560 Z " />
<glyph glyph-name="iacute" unicode="&#xed;" horiz-adv-x="194" d="M88 8 C88 3 90 0 95 0 L99 0 C104 0 106 3 106 8 L106 454 C106 459 104 462 99 462 L95 462 C90 462 88 459 88 454 L88 8 Z M12 560 L194 650 C198 652 199 655 197 659 L195 663 C192 668 189 667 186 666 L4 575 C0 573 0 570 1 568 L3 563 C5 559 7 558 12 560 L12 560 Z " />
<glyph glyph-name="icircumflex" unicode="&#xee;" horiz-adv-x="194" d="M88 8 C88 3 90 0 95 0 L99 0 C104 0 106 3 106 8 L106 454 C106 459 104 462 99 462 L95 462 C90 462 88 459 88 454 L88 8 Z M-25 548 L99 649 L223 548 C227 545 229 548 230 549 L234 554 C236 557 235 559 232 562 L103 668 C101 670 97 670 95 668 L-34 562 C-37 559 -38 557 -36 554 L-32 549 C-31 548 -29 545 -25 548 L-25 548 Z " />
<glyph glyph-name="idieresis" unicode="&#xef;" horiz-adv-x="194" d="M88 8 C88 3 90 0 95 0 L99 0 C104 0 106 3 106 8 L106 454 C106 459 104 462 99 462 L95 462 C90 462 88 459 88 454 L88 8 Z M194 605 C208 605 217 614 217 627 C217 641 208 650 194 650 C180 650 172 641 172 627 C172 614 180 605 194 605 L194 605 Z M5 605 C19 605 27 614 27 627 C27 641 19 650 5 650 C-9 650 -18 641 -18 627 C-18 614 -9 605 5 605 L5 605 Z " />
<glyph glyph-name="eth" unicode="&#xf0;" horiz-adv-x="592" d="M55 229 C55 96 162 -10 287 -10 C441 -10 529 119 529 284 C529 443 449 553 364 624 L428 661 C432 663 433 667 431 672 L429 675 C427 678 423 679 420 677 L350 637 C288 686 225 715 193 726 C190 727 186 726 185 723 L183 716 C182 712 183 710 187 708 C217 696 275 671 333 626 L202 551 C198 549 197 545 199 542 L201 539 C203 535 207 534 210 536 L348 615 C421 554 493 463 509 335 C476 379 403 456 281 456 C163 456 55 368 55 229 L55 229 Z M73 229 C73 357 172 438 281 438 C433 438 506 308 512 299 L512 284 C512 129 430 8 287 8 C171 8 73 106 73 229 L73 229 Z " />
<glyph glyph-name="ntilde" unicode="&#xf1;" horiz-adv-x="539" d="M88 8 C88 3 90 0 95 0 L99 0 C104 0 106 3 106 8 L106 365 C116 378 175 454 277 454 C388 454 439 384 439 258 L439 8 C439 3 442 0 447 0 L451 0 C456 0 457 3 457 8 L457 258 C457 399 402 472 277 472 C188 472 135 422 106 391 L106 454 C106 459 104 462 99 462 L95 462 C90 462 88 459 88 454 L88 8 Z M137 584 C140 583 143 585 144 589 C149 606 167 662 212 662 C245 662 256 631 263 614 C272 592 289 554 334 554 C393 554 414 620 420 638 C422 643 421 646 417 647 L409 649 C406 650 403 648 402 644 C397 627 379 572 334 572 C302 572 289 599 281 618 C271 642 257 679 212 679 C153 679 132 614 126 595 C124 590 125 587 129 586 L137 584 Z " />
<glyph glyph-name="ograve" unicode="&#xf2;" horiz-adv-x="577" d="M55 232 C55 96 157 -11 288 -11 C420 -11 522 96 522 232 C522 366 420 472 288 472 C157 472 55 366 55 232 L55 232 Z M73 232 C73 355 168 454 288 454 C409 454 504 355 504 232 C504 107 409 7 288 7 C168 7 73 107 73 232 L73 232 Z M378 560 C383 558 385 559 387 563 L389 568 C390 570 390 573 386 575 L204 666 C201 667 198 668 195 663 L193 659 C191 655 192 652 196 650 L378 560 Z " />
<glyph glyph-name="oacute" unicode="&#xf3;" horiz-adv-x="577" d="M55 232 C55 96 157 -11 288 -11 C420 -11 522 96 522 232 C522 366 420 472 288 472 C157 472 55 366 55 232 L55 232 Z M73 232 C73 355 168 454 288 454 C409 454 504 355 504 232 C504 107 409 7 288 7 C168 7 73 107 73 232 L73 232 Z M203 560 L385 650 C389 652 390 655 388 659 L386 663 C383 668 380 667 377 666 L195 575 C191 573 191 570 192 568 L194 563 C196 559 198 558 203 560 L203 560 Z " />
<glyph glyph-name="ocircumflex" unicode="&#xf4;" horiz-adv-x="577" d="M55 232 C55 96 157 -11 288 -11 C420 -11 522 96 522 232 C522 366 420 472 288 472 C157 472 55 366 55 232 L55 232 Z M73 232 C73 355 168 454 288 454 C409 454 504 355 504 232 C504 107 409 7 288 7 C168 7 73 107 73 232 L73 232 Z M166 548 L290 649 L414 548 C418 545 420 548 421 549 L425 554 C427 557 426 559 423 562 L294 668 C292 670 288 670 286 668 L157 562 C154 559 153 557 155 554 L159 549 C160 548 162 545 166 548 L166 548 Z " />
<glyph glyph-name="otilde" unicode="&#xf5;" horiz-adv-x="577" d="M55 232 C55 96 157 -11 288 -11 C420 -11 522 96 522 232 C522 366 420 472 288 472 C157 472 55 366 55 232 L55 232 Z M73 232 C73 355 168 454 288 454 C409 454 504 355 504 232 C504 107 409 7 288 7 C168 7 73 107 73 232 L73 232 Z M154 583 C157 582 160 584 161 588 C166 605 184 661 229 661 C262 661 273 630 280 613 C289 591 306 553 351 553 C410 553 431 619 437 637 C439 642 438 645 434 646 L426 648 C423 649 420 647 419 643 C414 626 396 571 351 571 C319 571 306 598 298 617 C288 641 274 678 229 678 C170 678 149 613 143 594 C141 589 142 586 146 585 L154 583 Z " />
<glyph glyph-name="odieresis" unicode="&#xf6;" horiz-adv-x="577" d="M55 232 C55 96 157 -11 288 -11 C420 -11 522 96 522 232 C522 366 420 472 288 472 C157 472 55 366 55 232 L55 232 Z M73 232 C73 355 168 454 288 454 C409 454 504 355 504 232 C504 107 409 7 288 7 C168 7 73 107 73 232 L73 232 Z M385 605 C399 605 408 614 408 627 C408 641 399 650 385 650 C371 650 363 641 363 627 C363 614 371 605 385 605 L385 605 Z M196 605 C210 605 218 614 218 627 C218 641 210 650 196 650 C182 650 173 641 173 627 C173 614 182 605 196 605 L196 605 Z " />
<glyph glyph-name="divide" unicode="&#xf7;" horiz-adv-x="600" d="M296 465 C310 465 320 476 320 489 C320 502 310 512 296 512 C283 512 272 502 272 489 C272 476 283 465 296 465 L296 465 Z M105 340 L494 340 C498 340 501 343 501 347 L501 351 C501 355 498 358 494 358 L105 358 C101 358 98 355 98 351 L98 347 C98 343 101 340 105 340 L105 340 Z M272 209 C272 196 283 185 296 185 C310 185 320 196 320 209 C320 222 310 232 296 232 C283 232 272 222 272 209 L272 209 Z " />
<glyph glyph-name="oslash" unicode="&#xf8;" horiz-adv-x="577" d="M55 232 C55 172 74 118 108 76 L88 58 C85 55 84 51 88 47 L91 44 C95 40 98 41 101 44 L120 61 C162 16 221 -11 288 -11 C420 -11 522 96 522 232 C522 285 505 335 477 374 L494 389 C498 392 497 397 494 400 L491 403 C488 406 483 406 481 404 L465 390 C423 440 360 472 288 472 C157 472 55 366 55 232 L55 232 Z M73 232 C73 355 168 454 288 454 C354 454 412 424 451 378 L122 88 C91 127 73 177 73 232 L73 232 Z M504 232 C504 107 409 7 288 7 C227 7 173 32 134 73 L463 362 C489 326 504 281 504 232 L504 232 Z " />
<glyph glyph-name="ugrave" unicode="&#xf9;" horiz-adv-x="528" d="M82 201 C82 61 137 -11 262 -11 C347 -11 395 37 422 69 L422 8 C422 3 424 0 429 0 L434 0 C438 0 440 3 440 8 L440 454 C440 459 438 462 434 462 L429 462 C424 462 422 459 422 454 L422 99 C415 88 366 8 262 8 C151 8 100 75 100 201 L100 454 C100 459 98 462 94 462 L88 462 C84 462 82 459 82 454 L82 201 Z M348 560 C353 558 355 559 357 563 L359 568 C360 570 360 573 356 575 L174 666 C171 667 168 668 165 663 L163 659 C161 655 162 652 166 650 L348 560 Z " />
<glyph glyph-name="uacute" unicode="&#xfa;" horiz-adv-x="528" d="M82 201 C82 61 137 -11 262 -11 C347 -11 395 37 422 69 L422 8 C422 3 424 0 429 0 L434 0 C438 0 440 3 440 8 L440 454 C440 459 438 462 434 462 L429 462 C424 462 422 459 422 454 L422 99 C415 88 366 8 262 8 C151 8 100 75 100 201 L100 454 C100 459 98 462 94 462 L88 462 C84 462 82 459 82 454 L82 201 Z M173 560 L355 650 C359 652 360 655 358 659 L356 663 C353 668 350 667 347 666 L165 575 C161 573 161 570 162 568 L164 563 C166 559 168 558 173 560 L173 560 Z " />
<glyph glyph-name="ucircumflex" unicode="&#xfb;" horiz-adv-x="528" d="M82 201 C82 61 137 -11 262 -11 C347 -11 395 37 422 69 L422 8 C422 3 424 0 429 0 L434 0 C438 0 440 3 440 8 L440 454 C440 459 438 462 434 462 L429 462 C424 462 422 459 422 454 L422 99 C415 88 366 8 262 8 C151 8 100 75 100 201 L100 454 C100 459 98 462 94 462 L88 462 C84 462 82 459 82 454 L82 201 Z M135 548 L259 649 L383 548 C387 545 389 548 390 549 L394 554 C396 557 395 559 392 562 L263 668 C261 670 257 670 255 668 L126 562 C123 559 122 557 124 554 L128 549 C129 548 131 545 135 548 L135 548 Z " />
<glyph glyph-name="udieresis" unicode="&#xfc;" horiz-adv-x="528" d="M82 201 C82 61 137 -11 262 -11 C347 -11 395 37 422 69 L422 8 C422 3 424 0 429 0 L434 0 C438 0 440 3 440 8 L440 454 C440 459 438 462 434 462 L429 462 C424 462 422 459 422 454 L422 99 C415 88 366 8 262 8 C151 8 100 75 100 201 L100 454 C100 459 98 462 94 462 L88 462 C84 462 82 459 82 454 L82 201 Z M354 605 C368 605 377 614 377 627 C377 641 368 650 354 650 C340 650 332 641 332 627 C332 614 340 605 354 605 L354 605 Z M165 605 C179 605 187 614 187 627 C187 641 179 650 165 650 C151 650 142 641 142 627 C142 614 151 605 165 605 L165 605 Z " />
<glyph glyph-name="yacute" unicode="&#xfd;" horiz-adv-x="470" d="M227 8 L121 -231 C118 -237 119 -239 123 -241 L127 -243 C132 -246 135 -243 137 -238 L447 457 C449 461 449 463 446 465 L440 468 C436 470 433 467 432 464 L237 26 L37 464 C36 467 33 470 29 468 L23 465 C20 463 20 461 22 457 L227 8 Z M150 560 L332 650 C336 652 337 655 335 659 L333 663 C330 668 327 667 324 666 L142 575 C138 573 138 570 139 568 L141 563 C143 559 145 558 150 560 L150 560 Z " />
<glyph glyph-name="thorn" unicode="&#xfe;" horiz-adv-x="556" d="M106 64 C139 27 197 -11 278 -11 C418 -11 501 116 501 231 C501 363 417 472 273 472 C191 472 128 427 106 407 L106 692 C106 697 104 700 99 700 L94 700 C90 700 88 697 88 692 L88 -230 C88 -235 90 -238 94 -238 L99 -238 C104 -238 106 -235 106 -230 L106 64 Z M106 380 C109 386 175 454 273 454 C404 454 484 350 483 231 C482 124 406 8 278 8 C191 8 134 55 106 93 L106 380 Z " />
<glyph glyph-name="ydieresis" unicode="&#xff;" horiz-adv-x="470" d="M227 8 L121 -231 C118 -237 119 -239 123 -241 L127 -243 C132 -246 135 -243 137 -238 L447 457 C449 461 449 463 446 465 L440 468 C436 470 433 467 432 464 L237 26 L37 464 C36 467 33 470 29 468 L23 465 C20 463 20 461 22 457 L227 8 Z M332 605 C346 605 355 614 355 627 C355 641 346 650 332 650 C318 650 310 641 310 627 C310 614 318 605 332 605 L332 605 Z M143 605 C157 605 165 614 165 627 C165 641 157 650 143 650 C129 650 120 641 120 627 C120 614 129 605 143 605 L143 605 Z " />
<glyph glyph-name="Amacron" unicode="&#x100;" horiz-adv-x="633" d="M4 7 C3 4 4 2 7 1 L16 -2 C19 -3 20 -1 21 1 L111 210 L520 210 L609 1 C610 -1 611 -3 614 -2 L623 1 C626 2 627 4 626 7 L324 717 C323 719 321 721 319 721 L317 721 C315 721 313 719 312 717 L4 7 Z M119 227 L318 685 L512 227 L119 227 Z M173 842 L461 842 C465 842 468 845 468 849 L468 853 C468 857 465 860 461 860 L173 860 C169 860 166 857 166 853 L166 849 C166 845 169 842 173 842 L173 842 Z " />
<glyph glyph-name="amacron" unicode="&#x101;" horiz-adv-x="487" d="M44 144 C44 47 114 -11 204 -11 C280 -11 349 29 385 60 L385 8 C385 3 387 0 392 0 L396 0 C402 0 403 3 403 8 L403 319 C403 424 368 472 255 472 C162 472 111 441 102 436 C100 435 97 432 100 426 L102 422 C104 418 107 417 113 420 C122 425 166 454 255 454 C352 454 385 411 385 319 L385 276 C360 286 303 302 246 302 C124 302 44 235 44 144 L44 144 Z M62 144 C62 224 136 284 246 284 C308 284 369 263 385 257 L385 86 C362 57 288 7 204 7 C125 7 62 59 62 144 L62 144 Z M101 607 L389 607 C393 607 396 610 396 614 L396 618 C396 622 393 625 389 625 L101 625 C97 625 94 622 94 618 L94 614 C94 610 97 607 101 607 L101 607 Z " />
<glyph glyph-name="Abreve" unicode="&#x102;" horiz-adv-x="633" d="M4 7 C3 4 4 2 7 1 L16 -2 C19 -3 20 -1 21 1 L111 210 L520 210 L609 1 C610 -1 611 -3 614 -2 L623 1 C626 2 627 4 626 7 L324 717 C323 719 321 721 319 721 L317 721 C315 721 313 719 312 717 L4 7 Z M119 227 L318 685 L512 227 L119 227 Z M317 780 C383 780 434 827 444 888 C445 891 441 895 438 895 L431 895 C428 895 426 892 426 889 C417 836 373 798 317 798 C260 798 216 836 208 889 C208 892 206 895 203 895 L196 895 C193 895 189 891 190 888 C199 827 250 780 317 780 L317 780 Z " />
<glyph glyph-name="abreve" unicode="&#x103;" horiz-adv-x="487" d="M44 144 C44 47 114 -11 204 -11 C280 -11 349 29 385 60 L385 8 C385 3 387 0 392 0 L396 0 C402 0 403 3 403 8 L403 319 C403 424 368 472 255 472 C162 472 111 441 102 436 C100 435 97 432 100 426 L102 422 C104 418 107 417 113 420 C122 425 166 454 255 454 C352 454 385 411 385 319 L385 276 C360 286 303 302 246 302 C124 302 44 235 44 144 L44 144 Z M62 144 C62 224 136 284 246 284 C308 284 369 263 385 257 L385 86 C362 57 288 7 204 7 C125 7 62 59 62 144 L62 144 Z M243 545 C309 545 360 592 370 652 C371 656 367 660 364 660 L357 660 C354 660 352 657 352 654 C343 600 299 563 243 563 C186 563 142 600 134 654 C134 657 132 660 129 660 L122 660 C119 660 115 656 116 652 C125 592 176 545 243 545 L243 545 Z " />
<glyph glyph-name="Aogonek" unicode="&#x104;" horiz-adv-x="633" d="M4 7 C3 4 4 2 7 1 L16 -2 C19 -3 20 -1 21 1 L111 210 L520 210 L605 10 C554 -12 479 -62 479 -147 C479 -199 512 -238 568 -238 C598 -238 628 -221 640 -215 C646 -212 649 -208 647 -204 L644 -198 C642 -194 640 -194 636 -196 C628 -200 601 -220 568 -220 C522 -220 497 -186 497 -147 C497 -69 563 -23 623 1 C626 2 627 4 626 7 L324 717 C323 719 321 721 319 721 L317 721 C315 721 313 719 312 717 L4 7 Z M119 227 L318 685 L512 227 L119 227 Z " />
<glyph glyph-name="aogonek" unicode="&#x105;" horiz-adv-x="486" d="M44 144 C44 47 114 -11 204 -11 C280 -11 349 29 385 60 L385 13 C334 -13 257 -61 257 -147 C257 -199 290 -238 346 -238 C376 -238 406 -221 418 -215 C424 -212 427 -208 425 -204 L422 -198 C420 -194 418 -194 414 -196 C406 -200 379 -220 346 -220 C300 -220 275 -186 275 -147 C275 -67 346 -26 396 0 C400 2 403 5 403 10 L403 319 C403 424 368 472 255 472 C162 472 111 441 102 436 C100 435 97 432 100 426 L102 422 C104 418 107 417 113 420 C122 425 166 454 255 454 C352 454 385 411 385 319 L385 276 C360 286 303 302 246 302 C124 302 44 235 44 144 L44 144 Z M62 144 C62 224 136 284 246 284 C308 284 369 263 385 257 L385 86 C362 57 288 7 204 7 C125 7 62 59 62 144 L62 144 Z " />
<glyph glyph-name="Cacute" unicode="&#x106;" horiz-adv-x="724" d="M60 349 C60 148 222 -10 423 -10 C512 -10 598 22 667 88 C669 90 669 93 667 95 L662 101 C660 104 656 103 654 101 C587 40 508 8 423 8 C232 8 78 158 78 349 C78 540 232 692 423 692 C519 692 589 659 654 603 C656 601 659 600 662 603 L667 609 C669 612 668 615 666 617 C598 674 525 710 423 710 C222 710 60 550 60 349 L60 349 Z M345 778 L527 868 C531 870 532 873 530 877 L528 881 C525 886 522 885 519 884 L337 793 C333 791 333 788 334 786 L336 781 C338 777 340 776 345 778 L345 778 Z " />
<glyph glyph-name="cacute" unicode="&#x107;" horiz-adv-x="535" d="M55 233 C55 91 170 -11 301 -11 C416 -11 481 63 486 69 C488 71 489 75 486 78 L481 83 C479 85 475 85 472 82 C465 75 404 7 301 7 C182 7 73 103 73 233 C73 361 179 454 301 454 C400 454 451 408 464 397 C468 394 471 392 474 395 L479 401 C481 403 483 407 479 411 C465 423 412 472 301 472 C167 472 55 373 55 233 L55 233 Z M217 560 L399 650 C403 652 404 655 402 659 L400 663 C397 668 394 667 391 666 L209 575 C205 573 205 570 206 568 L208 563 C210 559 212 558 217 560 L217 560 Z " />
<glyph glyph-name="Ccircumflex" unicode="&#x108;" horiz-adv-x="724" d="M60 349 C60 148 222 -10 423 -10 C512 -10 598 22 667 88 C669 90 669 93 667 95 L662 101 C660 104 656 103 654 101 C587 40 508 8 423 8 C232 8 78 158 78 349 C78 540 232 692 423 692 C519 692 589 659 654 603 C656 601 659 600 662 603 L667 609 C669 612 668 615 666 617 C598 674 525 710 423 710 C222 710 60 550 60 349 L60 349 Z M300 763 L424 864 L548 763 C552 760 554 763 555 764 L559 769 C561 772 560 774 557 777 L428 883 C426 885 422 885 420 883 L291 777 C288 774 287 772 289 769 L293 764 C294 763 296 760 300 763 L300 763 Z " />
<glyph glyph-name="ccircumflex" unicode="&#x109;" horiz-adv-x="535" d="M55 233 C55 91 170 -11 301 -11 C416 -11 481 63 486 69 C488 71 489 75 486 78 L481 83 C479 85 475 85 472 82 C465 75 404 7 301 7 C182 7 73 103 73 233 C73 361 179 454 301 454 C400 454 451 408 464 397 C468 394 471 392 474 395 L479 401 C481 403 483 407 479 411 C465 423 412 472 301 472 C167 472 55 373 55 233 L55 233 Z M174 548 L298 649 L422 548 C426 545 428 548 429 549 L433 554 C435 557 434 559 431 562 L302 668 C300 670 296 670 294 668 L165 562 C162 559 161 557 163 554 L167 549 C168 548 170 545 174 548 L174 548 Z " />
<glyph glyph-name="Cdotaccent" unicode="&#x10a;" horiz-adv-x="724" d="M60 349 C60 148 222 -10 423 -10 C512 -10 598 22 667 88 C669 90 669 93 667 95 L662 101 C660 104 656 103 654 101 C587 40 508 8 423 8 C232 8 78 158 78 349 C78 540 232 692 423 692 C519 692 589 659 654 603 C656 601 659 600 662 603 L667 609 C669 612 668 615 666 617 C598 674 525 710 423 710 C222 710 60 550 60 349 L60 349 Z M424 819 C437 819 447 830 447 842 C447 855 437 867 424 867 C410 867 401 855 401 842 C401 830 410 819 424 819 L424 819 Z " />
<glyph glyph-name="cdotaccent" unicode="&#x10b;" horiz-adv-x="535" d="M55 233 C55 91 170 -11 301 -11 C416 -11 481 63 486 69 C488 71 489 75 486 78 L481 83 C479 85 475 85 472 82 C465 75 404 7 301 7 C182 7 73 103 73 233 C73 361 179 454 301 454 C400 454 451 408 464 397 C468 394 471 392 474 395 L479 401 C481 403 483 407 479 411 C465 423 412 472 301 472 C167 472 55 373 55 233 L55 233 Z M299 605 C312 605 322 616 322 628 C322 641 312 653 299 653 C285 653 276 641 276 628 C276 616 285 605 299 605 L299 605 Z " />
<glyph glyph-name="Ccaron" unicode="&#x10c;" horiz-adv-x="724" d="M60 349 C60 148 222 -10 423 -10 C512 -10 598 22 667 88 C669 90 669 93 667 95 L662 101 C660 104 656 103 654 101 C587 40 508 8 423 8 C232 8 78 158 78 349 C78 540 232 692 423 692 C519 692 589 659 654 603 C656 601 659 600 662 603 L667 609 C669 612 668 615 666 617 C598 674 525 710 423 710 C222 710 60 550 60 349 L60 349 Z M420 771 C422 769 426 769 428 771 L557 877 C560 880 561 882 559 885 L555 890 C554 891 552 894 548 891 L424 790 L300 891 C296 894 294 891 293 890 L289 885 C287 882 288 880 291 877 L420 771 Z " />
<glyph glyph-name="ccaron" unicode="&#x10d;" horiz-adv-x="535" d="M55 233 C55 91 170 -11 301 -11 C416 -11 481 63 486 69 C488 71 489 75 486 78 L481 83 C479 85 475 85 472 82 C465 75 404 7 301 7 C182 7 73 103 73 233 C73 361 179 454 301 454 C400 454 451 408 464 397 C468 394 471 392 474 395 L479 401 C481 403 483 407 479 411 C465 423 412 472 301 472 C167 472 55 373 55 233 L55 233 Z M294 553 C296 551 300 551 302 553 L431 659 C434 662 435 664 433 667 L429 672 C428 673 426 676 422 673 L298 572 L174 673 C170 676 168 673 167 672 L163 667 C161 664 162 662 165 659 L294 553 Z " />
<glyph glyph-name="Dcaron" unicode="&#x10e;" horiz-adv-x="728" d="M108 7 C108 3 111 0 114 0 L314 0 C509 0 667 156 667 351 C667 544 509 700 314 700 L114 700 C111 700 108 697 108 693 L108 7 Z M125 18 L125 682 L314 682 C499 682 650 534 650 351 C650 166 499 18 314 18 L125 18 Z M299 771 C301 769 305 769 307 771 L436 877 C439 880 440 882 438 885 L434 890 C433 891 431 894 427 891 L303 790 L179 891 C175 894 173 891 172 890 L168 885 C166 882 167 880 170 877 L299 771 Z " />
<glyph glyph-name="dcaron" unicode="&#x10f;" horiz-adv-x="565" d="M531 685 C531 672 542 662 555 662 C562 662 568 663 573 668 C577 662 579 652 579 639 C579 611 566 587 552 576 C548 573 545 571 550 565 L555 559 C558 556 559 555 564 559 C582 574 599 607 599 643 C599 681 586 710 557 710 C542 710 531 700 531 685 L531 685 Z M56 232 C56 96 156 -11 276 -11 C368 -11 423 33 451 64 L451 8 C451 3 454 0 458 0 L462 0 C466 0 469 3 469 8 L469 692 C469 697 466 700 462 700 L458 700 C454 700 451 697 451 692 L451 407 C451 407 383 472 284 472 C148 472 56 371 56 232 L56 232 Z M74 232 C74 359 160 454 284 454 C388 454 451 380 451 380 L451 93 C446 86 393 8 276 8 C167 8 74 107 74 232 L74 232 Z " />
<glyph glyph-name="Dcroat" unicode="&#x110;" horiz-adv-x="749" d="M108 7 C108 3 111 0 115 0 L335 0 C529 0 688 156 688 351 C688 544 529 700 335 700 L115 700 C111 700 108 697 108 693 L108 358 L68 358 C64 358 61 355 61 351 L61 347 C61 343 64 340 68 340 L108 340 L108 7 Z M126 18 L126 340 L415 340 C419 340 422 343 422 347 L422 351 C422 355 419 358 415 358 L126 358 L126 682 L335 682 C519 682 670 534 670 351 C670 166 519 18 335 18 L126 18 Z " />
<glyph glyph-name="dcroat" unicode="&#x111;" horiz-adv-x="557" d="M56 232 C56 96 156 -11 276 -11 C368 -11 423 33 451 64 L451 8 C451 3 454 0 458 0 L462 0 C466 0 469 3 469 8 L469 548 L512 548 C516 548 519 551 519 555 L519 559 C519 563 516 566 512 566 L469 566 L469 692 C469 697 466 700 462 700 L458 700 C454 700 451 697 451 692 L451 566 L223 566 C219 566 216 563 216 559 L216 555 C216 551 219 548 223 548 L451 548 L451 407 C451 407 383 472 284 472 C148 472 56 371 56 232 L56 232 Z M74 232 C74 359 160 454 284 454 C388 454 451 380 451 380 L451 93 C446 86 393 8 276 8 C167 8 74 107 74 232 L74 232 Z " />
<glyph glyph-name="Emacron" unicode="&#x112;" horiz-adv-x="587" d="M108 7 C108 3 111 0 115 0 L522 0 C526 0 529 3 529 7 L529 11 C529 15 526 18 522 18 L126 18 L126 355 L474 355 C478 355 481 358 481 362 L481 366 C481 370 478 373 474 373 L126 373 L126 682 L522 682 C526 682 529 685 529 689 L529 693 C529 697 526 700 522 700 L115 700 C111 700 108 697 108 693 L108 7 Z M175 842 L463 842 C467 842 470 845 470 849 L470 853 C470 857 467 860 463 860 L175 860 C171 860 168 857 168 853 L168 849 C168 845 171 842 175 842 L175 842 Z " />
<glyph glyph-name="emacron" unicode="&#x113;" horiz-adv-x="541" d="M74 223 L480 223 C482 223 486 226 487 228 C491 233 492 254 492 262 C492 387 406 472 283 472 C142 472 56 367 56 233 C56 97 142 -11 283 -11 C360 -11 422 21 452 43 C454 45 456 47 454 50 L450 57 C449 59 445 61 441 58 C415 37 355 7 283 7 C157 7 77 103 74 223 L74 223 Z M74 241 C78 359 157 454 283 454 C391 454 474 376 474 262 C474 257 474 249 473 241 L74 241 Z M135 607 L423 607 C427 607 430 610 430 614 L430 618 C430 622 427 625 423 625 L135 625 C131 625 128 622 128 618 L128 614 C128 610 131 607 135 607 L135 607 Z " />
<glyph glyph-name="Ebreve" unicode="&#x114;" horiz-adv-x="587" d="M108 7 C108 3 111 0 115 0 L522 0 C526 0 529 3 529 7 L529 11 C529 15 526 18 522 18 L126 18 L126 355 L474 355 C478 355 481 358 481 362 L481 366 C481 370 478 373 474 373 L126 373 L126 682 L522 682 C526 682 529 685 529 689 L529 693 C529 697 526 700 522 700 L115 700 C111 700 108 697 108 693 L108 7 Z M319 780 C385 780 436 827 446 888 C447 891 443 895 440 895 L433 895 C430 895 428 892 428 889 C419 836 375 798 319 798 C262 798 218 836 210 889 C210 892 208 895 205 895 L198 895 C195 895 191 891 192 888 C201 827 252 780 319 780 L319 780 Z " />
<glyph glyph-name="ebreve" unicode="&#x115;" horiz-adv-x="541" d="M74 223 L480 223 C482 223 486 226 487 228 C491 233 492 254 492 262 C492 387 406 472 283 472 C142 472 56 367 56 233 C56 97 142 -11 283 -11 C360 -11 422 21 452 43 C454 45 456 47 454 50 L450 57 C449 59 445 61 441 58 C415 37 355 7 283 7 C157 7 77 103 74 223 L74 223 Z M74 241 C78 359 157 454 283 454 C391 454 474 376 474 262 C474 257 474 249 473 241 L74 241 Z M278 545 C344 545 395 592 405 652 C406 656 402 660 399 660 L392 660 C389 660 387 657 387 654 C378 600 334 563 278 563 C221 563 177 600 169 654 C169 657 167 660 164 660 L157 660 C154 660 150 656 151 652 C160 592 211 545 278 545 L278 545 Z " />
<glyph glyph-name="Edotaccent" unicode="&#x116;" horiz-adv-x="587" d="M108 7 C108 3 111 0 115 0 L522 0 C526 0 529 3 529 7 L529 11 C529 15 526 18 522 18 L126 18 L126 355 L474 355 C478 355 481 358 481 362 L481 366 C481 370 478 373 474 373 L126 373 L126 682 L522 682 C526 682 529 685 529 689 L529 693 C529 697 526 700 522 700 L115 700 C111 700 108 697 108 693 L108 7 Z M318 819 C331 819 341 830 341 842 C341 855 331 867 318 867 C304 867 295 855 295 842 C295 830 304 819 318 819 L318 819 Z " />
<glyph glyph-name="edotaccent" unicode="&#x117;" horiz-adv-x="541" d="M74 223 L480 223 C482 223 486 226 487 228 C491 233 492 254 492 262 C492 387 406 472 283 472 C142 472 56 367 56 233 C56 97 142 -11 283 -11 C360 -11 422 21 452 43 C454 45 456 47 454 50 L450 57 C449 59 445 61 441 58 C415 37 355 7 283 7 C157 7 77 103 74 223 L74 223 Z M74 241 C78 359 157 454 283 454 C391 454 474 376 474 262 C474 257 474 249 473 241 L74 241 Z M283 605 C296 605 306 616 306 628 C306 641 296 653 283 653 C269 653 260 641 260 628 C260 616 269 605 283 605 L283 605 Z " />
<glyph glyph-name="Eogonek" unicode="&#x118;" horiz-adv-x="588" d="M108 7 C108 3 111 0 115 0 L488 0 C440 -28 382 -73 382 -147 C382 -199 415 -238 471 -238 C501 -238 531 -221 543 -215 C549 -212 552 -208 550 -204 L547 -198 C545 -194 543 -194 539 -196 C531 -200 504 -220 471 -220 C425 -220 400 -186 400 -147 C400 -67 472 -29 521 0 C524 2 529 5 529 9 L529 11 C529 15 526 18 522 18 L126 18 L126 355 L474 355 C478 355 481 358 481 362 L481 366 C481 370 478 373 474 373 L126 373 L126 682 L522 682 C526 682 529 685 529 689 L529 693 C529 697 526 700 522 700 L115 700 C111 700 108 697 108 693 L108 7 Z " />
<glyph glyph-name="eogonek" unicode="&#x119;" horiz-adv-x="541" d="M76 223 L480 223 C482 223 486 226 487 228 C491 233 492 254 492 262 C492 387 406 472 283 472 C142 472 56 367 56 233 C56 97 142 -11 283 -11 C293 -11 303 -10 313 -9 C269 -38 224 -81 224 -147 C224 -199 257 -238 313 -238 C343 -238 373 -221 385 -215 C391 -212 394 -208 392 -204 L389 -198 C387 -194 385 -194 381 -196 C373 -200 346 -220 313 -220 C267 -220 242 -186 242 -147 C242 -66 315 -25 365 1 C403 12 433 29 452 43 C454 45 456 47 454 50 L450 57 C449 59 445 61 441 58 C415 37 355 7 283 7 C157 7 79 103 76 223 L76 223 Z M76 241 C80 359 157 454 283 454 C391 454 473 376 473 262 C473 257 473 249 472 241 L76 241 Z " />
<glyph glyph-name="Ecaron" unicode="&#x11a;" horiz-adv-x="587" d="M108 7 C108 3 111 0 115 0 L522 0 C526 0 529 3 529 7 L529 11 C529 15 526 18 522 18 L126 18 L126 355 L474 355 C478 355 481 358 481 362 L481 366 C481 370 478 373 474 373 L126 373 L126 682 L522 682 C526 682 529 685 529 689 L529 693 C529 697 526 700 522 700 L115 700 C111 700 108 697 108 693 L108 7 Z M314 771 C316 769 320 769 322 771 L451 877 C454 880 455 882 453 885 L449 890 C448 891 446 894 442 891 L318 790 L194 891 C190 894 188 891 187 890 L183 885 C181 882 182 880 185 877 L314 771 Z " />
<glyph glyph-name="ecaron" unicode="&#x11b;" horiz-adv-x="541" d="M74 223 L480 223 C482 223 486 226 487 228 C491 233 492 254 492 262 C492 387 406 472 283 472 C142 472 56 367 56 233 C56 97 142 -11 283 -11 C360 -11 422 21 452 43 C454 45 456 47 454 50 L450 57 C449 59 445 61 441 58 C415 37 355 7 283 7 C157 7 77 103 74 223 L74 223 Z M74 241 C78 359 157 454 283 454 C391 454 474 376 474 262 C474 257 474 249 473 241 L74 241 Z M279 553 C281 551 285 551 287 553 L416 659 C419 662 420 664 418 667 L414 672 C413 673 411 676 407 673 L283 572 L159 673 C155 676 153 673 152 672 L148 667 C146 664 147 662 150 659 L279 553 Z " />
<glyph glyph-name="Gcircumflex" unicode="&#x11c;" horiz-adv-x="752" d="M60 349 C60 148 222 -10 423 -10 C581 -10 669 59 676 70 L676 323 C676 326 673 329 669 329 L431 329 C427 329 424 326 424 323 L424 319 C424 315 427 312 431 312 L658 312 L658 77 C638 60 557 8 423 8 C232 8 78 158 78 349 C78 540 232 692 423 692 C519 692 589 659 654 603 C656 601 659 600 662 603 L667 609 C669 612 668 615 666 617 C598 674 525 710 423 710 C222 710 60 550 60 349 L60 349 Z M299 763 L423 864 L547 763 C551 760 553 763 554 764 L558 769 C560 772 559 774 556 777 L427 883 C425 885 421 885 419 883 L290 777 C287 774 286 772 288 769 L292 764 C293 763 295 760 299 763 L299 763 Z " />
<glyph glyph-name="gcircumflex" unicode="&#x11d;" horiz-adv-x="556" d="M169 548 L293 649 L417 548 C421 545 423 548 424 549 L428 554 C430 557 429 559 426 562 L297 668 C295 670 291 670 289 668 L160 562 C157 559 156 557 158 554 L162 549 C163 548 165 545 169 548 L169 548 Z M450 75 C444 66 388 7 293 7 C158 7 74 106 74 233 C74 358 163 454 283 454 C388 454 443 394 450 383 L450 75 Z M450 -15 C450 -140 369 -201 278 -201 C203 -201 157 -167 131 -144 C127 -141 125 -140 122 -143 L118 -148 C114 -153 116 -154 121 -159 C145 -180 198 -219 278 -219 C383 -219 468 -149 468 -15 L468 454 C468 459 465 462 461 462 L457 462 C452 462 450 459 450 454 L450 412 C423 436 369 472 283 472 C151 472 56 370 56 233 C56 94 146 -11 293 -11 C368 -11 424 23 450 46 L450 -15 Z " />
<glyph glyph-name="Gbreve" unicode="&#x11e;" horiz-adv-x="752" d="M60 349 C60 148 222 -10 423 -10 C581 -10 669 59 676 70 L676 323 C676 326 673 329 669 329 L431 329 C427 329 424 326 424 323 L424 319 C424 315 427 312 431 312 L658 312 L658 77 C638 60 557 8 423 8 C232 8 78 158 78 349 C78 540 232 692 423 692 C519 692 589 659 654 603 C656 601 659 600 662 603 L667 609 C669 612 668 615 666 617 C598 674 525 710 423 710 C222 710 60 550 60 349 L60 349 Z M424 780 C490 780 541 827 551 888 C552 891 548 895 545 895 L538 895 C535 895 533 892 533 889 C524 836 480 798 424 798 C367 798 323 836 315 889 C315 892 313 895 310 895 L303 895 C300 895 296 891 297 888 C306 827 357 780 424 780 L424 780 Z " />
<glyph glyph-name="gbreve" unicode="&#x11f;" horiz-adv-x="556" d="M294 545 C360 545 411 592 421 652 C422 656 418 660 415 660 L410 660 C407 660 405 657 405 654 C396 600 350 561 294 561 C237 561 191 600 183 654 C183 657 181 660 178 660 L173 660 C170 660 166 656 167 652 C176 592 227 545 294 545 L294 545 Z M450 75 C444 66 388 7 293 7 C158 7 74 106 74 233 C74 358 163 454 283 454 C388 454 443 394 450 383 L450 75 Z M450 -15 C450 -140 369 -201 278 -201 C203 -201 157 -167 131 -144 C127 -141 125 -140 122 -143 L118 -148 C114 -153 116 -154 121 -159 C145 -180 198 -219 278 -219 C383 -219 468 -149 468 -15 L468 454 C468 459 465 462 461 462 L457 462 C452 462 450 459 450 454 L450 412 C423 436 369 472 283 472 C151 472 56 370 56 233 C56 94 146 -11 293 -11 C368 -11 424 23 450 46 L450 -15 Z " />
<glyph glyph-name="Gdotaccent" unicode="&#x120;" horiz-adv-x="752" d="M60 349 C60 148 222 -10 423 -10 C581 -10 669 59 676 70 L676 323 C676 326 673 329 669 329 L431 329 C427 329 424 326 424 323 L424 319 C424 315 427 312 431 312 L658 312 L658 77 C638 60 557 8 423 8 C232 8 78 158 78 349 C78 540 232 692 423 692 C519 692 589 659 654 603 C656 601 659 600 662 603 L667 609 C669 612 668 615 666 617 C598 674 525 710 423 710 C222 710 60 550 60 349 L60 349 Z M423 819 C436 819 446 830 446 842 C446 855 436 867 423 867 C409 867 400 855 400 842 C400 830 409 819 423 819 L423 819 Z " />
<glyph glyph-name="gdotaccent" unicode="&#x121;" horiz-adv-x="556" d="M450 75 C444 66 388 7 293 7 C158 7 74 106 74 233 C74 358 163 454 283 454 C388 454 443 394 450 383 L450 75 Z M450 -15 C450 -140 369 -201 278 -201 C203 -201 157 -167 131 -144 C127 -141 125 -140 122 -143 L118 -148 C114 -153 116 -154 121 -159 C145 -180 198 -219 278 -219 C383 -219 468 -149 468 -15 L468 454 C468 459 465 462 461 462 L457 462 C452 462 450 459 450 454 L450 412 C423 436 369 472 283 472 C151 472 56 370 56 233 C56 94 146 -11 293 -11 C368 -11 424 23 450 46 L450 -15 Z M285 605 C298 605 308 616 308 628 C308 641 298 653 285 653 C271 653 262 641 262 628 C262 616 271 605 285 605 L285 605 Z " />
<glyph glyph-name="Gcommaaccent" unicode="&#x122;" horiz-adv-x="751" d="M60 349 C60 148 222 -10 423 -10 C581 -10 669 59 676 70 L676 323 C676 326 673 329 669 329 L431 329 C427 329 424 326 424 323 L424 319 C424 315 427 312 431 312 L658 312 L658 77 C638 60 557 8 423 8 C232 8 78 158 78 349 C78 540 232 692 423 692 C519 692 589 659 654 603 C656 601 659 600 662 603 L667 609 C669 612 668 615 666 617 C598 674 525 710 423 710 C222 710 60 550 60 349 L60 349 Z M387 -108 C387 -121 398 -131 411 -131 C418 -131 424 -130 429 -125 C433 -131 435 -141 435 -154 C435 -182 422 -206 408 -217 C404 -220 401 -222 406 -228 L411 -234 C414 -237 415 -238 420 -234 C438 -219 455 -186 455 -150 C455 -112 442 -83 413 -83 C398 -83 387 -93 387 -108 L387 -108 Z " />
<glyph glyph-name="gcommaaccent" unicode="&#x123;" horiz-adv-x="556" d="M450 75 C444 66 388 7 293 7 C158 7 74 106 74 233 C74 358 163 454 283 454 C388 454 443 394 450 383 L450 75 Z M450 -15 C450 -140 369 -201 278 -201 C203 -201 157 -167 131 -144 C127 -141 125 -140 122 -143 L118 -148 C114 -153 116 -154 121 -159 C145 -180 198 -219 278 -219 C383 -219 468 -149 468 -15 L468 454 C468 459 465 462 461 462 L457 462 C452 462 450 459 450 454 L450 412 C423 436 369 472 283 472 C151 472 56 370 56 233 C56 94 146 -11 293 -11 C368 -11 424 23 450 46 L450 -15 Z M322 601 C322 614 311 624 298 624 C291 624 285 623 280 618 C276 624 274 634 274 647 C274 675 287 699 301 710 C305 713 308 715 303 721 L298 727 C295 730 294 731 289 727 C271 712 254 679 254 643 C254 605 267 576 296 576 C311 576 322 586 322 601 L322 601 Z " />
<glyph glyph-name="Hcircumflex" unicode="&#x124;" horiz-adv-x="744" d="M108 7 C108 3 111 0 115 0 L119 0 C123 0 126 3 126 7 L126 355 L618 355 L618 7 C618 3 621 0 625 0 L629 0 C633 0 636 3 636 7 L636 693 C636 697 633 700 629 700 L625 700 C621 700 618 697 618 693 L618 373 L126 373 L126 693 C126 697 123 700 119 700 L115 700 C111 700 108 697 108 693 L108 7 Z M247 763 L371 864 L495 763 C499 760 501 763 502 764 L506 769 C508 772 507 774 504 777 L375 883 C373 885 369 885 367 883 L238 777 C235 774 234 772 236 769 L240 764 C241 763 243 760 247 763 L247 763 Z " />
<glyph glyph-name="hcircumflex" unicode="&#x125;" horiz-adv-x="539" d="M89 8 C89 3 91 0 96 0 L100 0 C105 0 107 3 107 8 L107 359 C117 372 176 454 278 454 C389 454 441 384 441 258 L441 8 C441 3 443 0 448 0 L452 0 C457 0 459 3 459 8 L459 258 C459 399 403 472 278 472 C189 472 136 418 107 387 L107 692 C107 697 105 700 100 700 L96 700 C91 700 89 697 89 692 L89 8 Z M-34 765 L90 866 L214 765 C218 762 220 765 221 766 L225 771 C227 774 226 776 223 779 L94 885 C92 887 88 887 86 885 L-43 779 C-46 776 -47 774 -45 771 L-41 766 C-40 765 -38 762 -34 765 L-34 765 Z " />
<glyph glyph-name="Hbar" unicode="&#x126;" horiz-adv-x="744" d="M108 7 C108 3 111 0 115 0 L119 0 C123 0 126 3 126 7 L126 355 L618 355 L618 7 C618 3 621 0 625 0 L629 0 C633 0 636 3 636 7 L636 548 L668 548 C672 548 675 551 675 555 L675 559 C675 563 672 566 668 566 L636 566 L636 693 C636 697 633 700 629 700 L625 700 C621 700 618 697 618 693 L618 566 L126 566 L126 693 C126 697 123 700 119 700 L115 700 C111 700 108 697 108 693 L108 566 L79 566 C75 566 72 563 72 559 L72 555 C72 551 75 548 79 548 L108 548 L108 7 Z M126 373 L126 548 L618 548 L618 373 L126 373 Z " />
<glyph glyph-name="hbar" unicode="&#x127;" horiz-adv-x="560" d="M88 8 C88 3 90 0 95 0 L99 0 C104 0 106 3 106 8 L106 359 C116 372 185 454 287 454 C398 454 460 384 460 258 L460 8 C460 3 462 0 467 0 L471 0 C476 0 478 3 478 8 L478 258 C478 399 412 472 287 472 C198 472 135 418 106 387 L106 548 L333 548 C337 548 340 551 340 555 L340 559 C340 563 337 566 333 566 L106 566 L106 692 C106 697 104 700 99 700 L95 700 C90 700 88 697 88 692 L88 566 L44 566 C40 566 37 563 37 559 L37 555 C37 551 40 548 44 548 L88 548 L88 8 Z " />
<glyph glyph-name="Itilde" unicode="&#x128;" horiz-adv-x="234" d="M108 7 C108 3 111 0 115 0 L119 0 C123 0 126 3 126 7 L126 693 C126 697 123 700 119 700 L115 700 C111 700 108 697 108 693 L108 7 Z M-20 802 C-17 801 -14 803 -13 807 C-8 824 10 880 55 880 C88 880 99 849 106 832 C115 810 132 772 177 772 C236 772 257 838 263 856 C265 861 264 864 260 865 L252 867 C249 868 246 866 245 862 C240 845 222 790 177 790 C145 790 132 817 124 836 C114 860 100 897 55 897 C-4 897 -25 832 -31 813 C-33 808 -32 805 -28 804 L-20 802 Z " />
<glyph glyph-name="itilde" unicode="&#x129;" horiz-adv-x="194" d="M89 8 C89 3 91 0 96 0 L100 0 C105 0 107 3 107 8 L107 454 C107 459 105 462 100 462 L96 462 C91 462 89 459 89 454 L89 8 Z M-36 583 C-33 582 -30 584 -29 588 C-24 605 -6 661 39 661 C72 661 83 630 90 613 C99 591 116 553 161 553 C220 553 241 619 247 637 C249 642 248 645 244 646 L236 648 C233 649 230 647 229 643 C224 626 206 571 161 571 C129 571 116 598 108 617 C98 641 84 678 39 678 C-20 678 -41 613 -47 594 C-49 589 -48 586 -44 585 L-36 583 Z " />
<glyph glyph-name="Imacron" unicode="&#x12a;" horiz-adv-x="234" d="M108 7 C108 3 111 0 115 0 L119 0 C123 0 126 3 126 7 L126 693 C126 697 123 700 119 700 L115 700 C111 700 108 697 108 693 L108 7 Z M-28 842 L260 842 C264 842 267 845 267 849 L267 853 C267 857 264 860 260 860 L-28 860 C-32 860 -35 857 -35 853 L-35 849 C-35 845 -32 842 -28 842 L-28 842 Z " />
<glyph glyph-name="imacron" unicode="&#x12b;" horiz-adv-x="194" d="M88 8 C88 3 90 0 95 0 L99 0 C104 0 106 3 106 8 L106 454 C106 459 104 462 99 462 L95 462 C90 462 88 459 88 454 L88 8 Z M-45 607 L243 607 C247 607 250 610 250 614 L250 618 C250 622 247 625 243 625 L-45 625 C-49 625 -52 622 -52 618 L-52 614 C-52 610 -49 607 -45 607 L-45 607 Z " />
<glyph glyph-name="Ibreve" unicode="&#x12c;" horiz-adv-x="234" d="M108 7 C108 3 111 0 115 0 L119 0 C123 0 126 3 126 7 L126 693 C126 697 123 700 119 700 L115 700 C111 700 108 697 108 693 L108 7 Z M116 780 C182 780 233 827 243 888 C244 891 240 895 237 895 L230 895 C227 895 225 892 225 889 C216 836 172 798 116 798 C59 798 15 836 7 889 C7 892 5 895 2 895 L-5 895 C-8 895 -12 891 -11 888 C-2 827 49 780 116 780 L116 780 Z " />
<glyph glyph-name="ibreve" unicode="&#x12d;" horiz-adv-x="194" d="M88 8 C88 3 90 0 95 0 L99 0 C104 0 106 3 106 8 L106 454 C106 459 104 462 99 462 L95 462 C90 462 88 459 88 454 L88 8 Z M99 545 C165 545 216 592 226 652 C227 656 223 660 220 660 L213 660 C210 660 208 657 208 654 C199 600 155 563 99 563 C42 563 -2 600 -10 654 C-10 657 -12 660 -15 660 L-22 660 C-25 660 -29 656 -28 652 C-19 592 32 545 99 545 L99 545 Z " />
<glyph glyph-name="Iogonek" unicode="&#x12e;" horiz-adv-x="234" d="M119 0 C123 2 126 7 126 11 L126 693 C126 697 123 700 119 700 L115 700 C111 700 108 697 108 693 L108 14 C57 -12 -21 -60 -21 -147 C-21 -199 12 -238 68 -238 C98 -238 128 -221 140 -215 C146 -212 149 -208 147 -204 L144 -198 C142 -194 140 -194 136 -196 C128 -200 101 -220 68 -220 C22 -220 -3 -186 -3 -147 C-3 -67 68 -26 119 0 L119 0 Z " />
<glyph glyph-name="iogonek" unicode="&#x12f;" horiz-adv-x="194" d="M106 11 L106 454 C106 459 104 462 99 462 L95 462 C90 462 88 459 88 454 L88 11 C37 -15 -40 -61 -40 -147 C-40 -199 -7 -238 49 -238 C79 -238 109 -221 121 -215 C127 -212 130 -208 128 -204 L125 -198 C123 -194 121 -194 117 -196 C109 -200 82 -220 49 -220 C3 -220 -22 -186 -22 -147 C-22 -67 50 -28 99 0 C104 3 106 6 106 11 L106 11 Z M98 605 C111 605 121 616 121 628 C121 641 111 653 98 653 C84 653 75 641 75 628 C75 616 84 605 98 605 L98 605 Z " />
<glyph glyph-name="Idotaccent" unicode="&#x130;" horiz-adv-x="234" d="M108 7 C108 3 111 0 115 0 L119 0 C123 0 126 3 126 7 L126 693 C126 697 123 700 119 700 L115 700 C111 700 108 697 108 693 L108 7 Z M116 819 C129 819 139 830 139 842 C139 855 129 867 116 867 C102 867 93 855 93 842 C93 830 102 819 116 819 L116 819 Z " />
<glyph glyph-name="dotlessi" unicode="&#x131;" horiz-adv-x="194" d="M88 8 C88 3 90 0 95 0 L99 0 C104 0 106 3 106 8 L106 454 C106 459 104 462 99 462 L95 462 C90 462 88 459 88 454 L88 8 Z " />
<glyph glyph-name="IJ" unicode="&#x132;" horiz-adv-x="653" d="M108 7 C108 3 111 0 115 0 L119 0 C123 0 126 3 126 7 L126 693 C126 697 123 700 119 700 L115 700 C111 700 108 697 108 693 L108 7 Z M211 67 C228 45 277 -10 366 -10 C486 -10 552 68 552 209 L552 693 C552 697 549 700 545 700 L542 700 C538 700 535 697 535 693 L535 209 C535 77 476 8 366 8 C285 8 240 57 224 77 C222 80 219 81 216 79 L212 76 C208 73 209 70 211 67 L211 67 Z " />
<glyph glyph-name="ij" unicode="&#x133;" horiz-adv-x="431" d="M88 8 C88 3 90 0 95 0 L99 0 C104 0 106 3 106 8 L106 454 C106 459 104 462 99 462 L95 462 C90 462 88 459 88 454 L88 8 Z M98 605 C111 605 121 616 121 628 C121 641 111 653 98 653 C84 653 75 641 75 628 C75 616 84 605 98 605 L98 605 Z M343 454 C343 459 341 462 336 462 L332 462 C327 462 325 459 325 454 L325 -65 C325 -170 287 -213 208 -232 C203 -233 200 -235 201 -240 L202 -244 C203 -249 207 -250 213 -249 C302 -230 343 -176 343 -65 L343 454 Z M335 605 C348 605 358 616 358 628 C358 641 348 653 335 653 C321 653 312 641 312 628 C312 616 321 605 335 605 L335 605 Z " />
<glyph glyph-name="Jcircumflex" unicode="&#x134;" horiz-adv-x="463" d="M21 67 C38 45 87 -10 176 -10 C296 -10 362 68 362 209 L362 693 C362 697 359 700 355 700 L352 700 C348 700 345 697 345 693 L345 209 C345 77 286 8 176 8 C95 8 50 57 34 77 C32 80 29 81 26 79 L22 76 C18 73 19 70 21 67 L21 67 Z M230 763 L354 864 L478 763 C482 760 484 763 485 764 L489 769 C491 772 490 774 487 777 L358 883 C356 885 352 885 350 883 L221 777 C218 774 217 772 219 769 L223 764 C224 763 226 760 230 763 L230 763 Z " />
<glyph glyph-name="jcircumflex" unicode="&#x135;" horiz-adv-x="194" d="M106 454 C106 459 104 462 99 462 L95 462 C90 462 88 459 88 454 L88 -65 C88 -170 50 -213 -29 -232 C-34 -233 -37 -235 -36 -240 L-35 -244 C-34 -249 -30 -250 -24 -249 C65 -230 106 -176 106 -65 L106 454 Z M-27 548 L97 649 L221 548 C225 545 227 548 228 549 L232 554 C234 557 233 559 230 562 L101 668 C99 670 95 670 93 668 L-36 562 C-39 559 -40 557 -38 554 L-34 549 C-33 548 -31 545 -27 548 L-27 548 Z " />
<glyph glyph-name="Kcommaaccent" unicode="&#x136;" horiz-adv-x="541" d="M108 7 C108 3 111 0 115 0 L119 0 C123 0 126 3 126 7 L126 342 L510 -2 C514 -6 517 -6 519 -4 L523 0 C527 4 525 7 521 11 L142 351 L511 686 C514 689 514 693 511 696 L508 699 C505 702 501 702 498 699 L126 360 L126 693 C126 697 123 700 119 700 L115 700 C111 700 108 697 108 693 L108 7 Z M294 -108 C294 -121 305 -131 318 -131 C325 -131 331 -130 336 -125 C340 -131 342 -141 342 -154 C342 -182 329 -206 315 -217 C311 -220 308 -222 313 -228 L318 -234 C321 -237 322 -238 327 -234 C345 -219 362 -186 362 -150 C362 -112 349 -83 320 -83 C305 -83 294 -93 294 -108 L294 -108 Z " />
<glyph glyph-name="kcommaaccent" unicode="&#x137;" horiz-adv-x="446" d="M88 8 C88 3 90 0 95 0 L99 0 C104 0 106 3 106 8 L106 247 L406 -4 C409 -6 411 -7 414 -3 L417 1 C420 5 421 9 417 12 L123 256 L409 452 C413 455 413 457 411 461 L408 466 C406 470 402 470 399 468 L106 267 L106 692 C106 697 104 700 99 700 L95 700 C90 700 88 697 88 692 L88 8 Z M196 -108 C196 -121 207 -131 220 -131 C227 -131 233 -130 238 -125 C242 -131 244 -141 244 -154 C244 -182 231 -206 217 -217 C213 -220 210 -222 215 -228 L220 -234 C223 -237 224 -238 229 -234 C247 -219 264 -186 264 -150 C264 -112 251 -83 222 -83 C207 -83 196 -93 196 -108 L196 -108 Z " />
<glyph glyph-name="kgreenlandic" unicode="&#x138;" horiz-adv-x="452" d="M88 8 C88 3 90 0 95 0 L99 0 C104 0 106 3 106 8 L106 222 L409 -4 C413 -7 416 -6 419 -3 L423 2 C426 6 425 10 422 12 L124 232 L404 451 C407 453 408 456 406 460 L402 466 C400 470 396 470 393 468 L106 241 L106 454 C106 459 104 462 99 462 L95 462 C90 462 88 459 88 454 L88 8 Z " />
<glyph glyph-name="Lacute" unicode="&#x139;" horiz-adv-x="496" d="M108 7 C108 3 111 0 115 0 L474 0 C478 0 481 3 481 7 L481 11 C481 15 478 18 474 18 L125 18 L125 693 C125 697 122 700 119 700 L115 700 C111 700 108 697 108 693 L108 7 Z M85 778 L267 868 C271 870 272 873 270 877 L268 881 C265 886 262 885 259 884 L77 793 C73 791 73 788 74 786 L76 781 C78 777 80 776 85 778 L85 778 Z " />
<glyph glyph-name="lacute" unicode="&#x13a;" horiz-adv-x="210" d="M96 8 C96 3 98 0 103 0 L107 0 C112 0 114 3 114 8 L114 692 C114 697 112 700 107 700 L103 700 C98 700 96 697 96 692 L96 8 Z M19 777 L201 867 C205 869 206 872 204 876 L202 880 C199 885 196 884 193 883 L11 792 C7 790 7 787 8 785 L10 780 C12 776 14 775 19 777 L19 777 Z " />
<glyph glyph-name="Lcommaaccent" unicode="&#x13b;" horiz-adv-x="496" d="M108 7 C108 3 111 0 115 0 L474 0 C478 0 481 3 481 7 L481 11 C481 15 478 18 474 18 L125 18 L125 693 C125 697 122 700 119 700 L115 700 C111 700 108 697 108 693 L108 7 Z M251 -108 C251 -121 262 -131 275 -131 C282 -131 288 -130 293 -125 C297 -131 299 -141 299 -154 C299 -182 286 -206 272 -217 C268 -220 265 -222 270 -228 L275 -234 C278 -237 279 -238 284 -234 C302 -219 319 -186 319 -150 C319 -112 306 -83 277 -83 C262 -83 251 -93 251 -108 L251 -108 Z " />
<glyph glyph-name="lcommaaccent" unicode="&#x13c;" horiz-adv-x="210" d="M96 8 C96 3 98 0 103 0 L107 0 C112 0 114 3 114 8 L114 692 C114 697 112 700 107 700 L103 700 C98 700 96 697 96 692 L96 8 Z M66 -108 C66 -121 77 -131 90 -131 C97 -131 103 -130 108 -125 C112 -131 114 -141 114 -154 C114 -182 101 -206 87 -217 C83 -220 80 -222 85 -228 L90 -234 C93 -237 94 -238 99 -234 C117 -219 134 -186 134 -150 C134 -112 121 -83 92 -83 C77 -83 66 -93 66 -108 L66 -108 Z " />
<glyph glyph-name="Lcaron" unicode="&#x13d;" horiz-adv-x="500" d="M108 7 C108 3 111 0 115 0 L474 0 C478 0 481 3 481 7 L481 11 C481 15 478 18 474 18 L125 18 L125 693 C125 697 122 700 119 700 L115 700 C111 700 108 697 108 693 L108 7 Z M353 684 C353 671 364 661 377 661 C384 661 390 662 395 667 C399 661 401 651 401 638 C401 610 388 586 374 575 C370 572 367 570 372 564 L377 558 C380 555 381 554 386 558 C404 573 421 606 421 642 C421 680 408 709 379 709 C364 709 353 699 353 684 L353 684 Z " />
<glyph glyph-name="lcaron" unicode="&#x13e;" horiz-adv-x="210" d="M96 8 C96 3 98 0 103 0 L107 0 C112 0 114 3 114 8 L114 692 C114 697 112 700 107 700 L103 700 C98 700 96 697 96 692 L96 8 Z M176 685 C176 672 187 662 200 662 C207 662 213 663 218 668 C222 662 224 652 224 639 C224 611 211 587 197 576 C193 573 190 571 195 565 L200 559 C203 556 204 555 209 559 C227 574 244 607 244 643 C244 681 231 710 202 710 C187 710 176 700 176 685 L176 685 Z " />
<glyph glyph-name="Ldot" unicode="&#x13f;" horiz-adv-x="503" d="M108 7 C108 3 111 0 115 0 L474 0 C478 0 481 3 481 7 L481 11 C481 15 478 18 474 18 L125 18 L125 693 C125 697 122 700 119 700 L115 700 C111 700 108 697 108 693 L108 7 Z M419 322 C433 322 443 333 443 346 C443 359 433 369 419 369 C406 369 395 359 395 346 C395 333 406 322 419 322 L419 322 Z " />
<glyph glyph-name="ldot" unicode="&#x140;" horiz-adv-x="328" d="M96 8 C96 3 98 0 103 0 L107 0 C112 0 114 3 114 8 L114 692 C114 697 112 700 107 700 L103 700 C98 700 96 697 96 692 L96 8 Z M246 321 C260 321 270 332 270 345 C270 358 260 368 246 368 C233 368 222 358 222 345 C222 332 233 321 246 321 L246 321 Z " />
<glyph glyph-name="Lslash" unicode="&#x141;" horiz-adv-x="502" d="M108 7 C108 3 111 0 115 0 L495 0 C499 0 502 3 502 7 L502 11 C502 15 499 18 495 18 L126 18 L126 337 L314 426 C316 427 320 430 318 433 L315 439 C313 444 309 443 306 442 L126 357 L126 693 C126 697 123 700 119 700 L115 700 C111 700 108 697 108 693 L108 349 L56 325 C53 324 51 321 52 318 L56 310 C58 307 60 307 64 309 L108 329 L108 7 Z " />
<glyph glyph-name="lslash" unicode="&#x142;" horiz-adv-x="284" d="M107 8 C107 3 109 0 114 0 L118 0 C123 0 125 3 125 8 L125 357 L272 426 C276 428 276 431 275 433 L272 439 C270 443 268 444 265 442 L125 376 L125 692 C125 697 123 700 118 700 L114 700 C109 700 107 697 107 692 L107 368 L15 325 C13 324 10 321 12 317 L15 311 C17 308 19 308 22 309 L107 349 L107 8 Z " />
<glyph glyph-name="Nacute" unicode="&#x143;" horiz-adv-x="764" d="M108 7 C108 3 111 0 115 0 L119 0 C123 0 126 3 126 7 L126 677 L643 -12 C647 -18 656 -15 656 -8 L656 693 C656 697 653 700 649 700 L645 700 C641 700 638 697 638 693 L638 25 L121 714 C117 720 108 717 108 710 L108 7 Z M325 778 L507 868 C511 870 512 873 510 877 L508 881 C505 886 502 885 499 884 L317 793 C313 791 313 788 314 786 L316 781 C318 777 320 776 325 778 L325 778 Z " />
<glyph glyph-name="nacute" unicode="&#x144;" horiz-adv-x="539" d="M88 8 C88 3 90 0 95 0 L99 0 C104 0 106 3 106 8 L106 365 C116 378 175 454 277 454 C388 454 439 384 439 258 L439 8 C439 3 442 0 447 0 L451 0 C456 0 457 3 457 8 L457 258 C457 399 402 472 277 472 C188 472 135 422 106 391 L106 454 C106 459 104 462 99 462 L95 462 C90 462 88 459 88 454 L88 8 Z M187 561 L369 651 C373 653 374 656 372 660 L370 664 C367 669 364 668 361 667 L179 576 C175 574 175 571 176 569 L178 564 C180 560 182 559 187 561 L187 561 Z " />
<glyph glyph-name="Ncommaaccent" unicode="&#x145;" horiz-adv-x="764" d="M108 7 C108 3 111 0 115 0 L119 0 C123 0 126 3 126 7 L126 677 L643 -12 C647 -18 656 -15 656 -8 L656 693 C656 697 653 700 649 700 L645 700 C641 700 638 697 638 693 L638 25 L121 714 C117 720 108 717 108 710 L108 7 Z M358 -108 C358 -121 369 -131 382 -131 C389 -131 395 -130 400 -125 C404 -131 406 -141 406 -154 C406 -182 393 -206 379 -217 C375 -220 372 -222 377 -228 L382 -234 C385 -237 386 -238 391 -234 C409 -219 426 -186 426 -150 C426 -112 413 -83 384 -83 C369 -83 358 -93 358 -108 L358 -108 Z " />
<glyph glyph-name="ncommaaccent" unicode="&#x146;" horiz-adv-x="539" d="M88 8 C88 3 90 0 95 0 L99 0 C104 0 106 3 106 8 L106 365 C116 378 175 454 277 454 C388 454 439 384 439 258 L439 8 C439 3 442 0 447 0 L451 0 C456 0 457 3 457 8 L457 258 C457 399 402 472 277 472 C188 472 135 422 106 391 L106 454 C106 459 104 462 99 462 L95 462 C90 462 88 459 88 454 L88 8 Z M240 -107 C240 -120 251 -130 264 -130 C271 -130 277 -129 282 -124 C286 -130 288 -140 288 -153 C288 -181 275 -205 261 -216 C257 -219 254 -221 259 -227 L264 -233 C267 -236 268 -237 273 -233 C291 -218 308 -185 308 -149 C308 -111 295 -82 266 -82 C251 -82 240 -92 240 -107 L240 -107 Z " />
<glyph glyph-name="Ncaron" unicode="&#x147;" horiz-adv-x="764" d="M108 7 C108 3 111 0 115 0 L119 0 C123 0 126 3 126 7 L126 677 L643 -12 C647 -18 656 -15 656 -8 L656 693 C656 697 653 700 649 700 L645 700 C641 700 638 697 638 693 L638 25 L121 714 C117 720 108 717 108 710 L108 7 Z M400 771 C402 769 406 769 408 771 L537 877 C540 880 541 882 539 885 L535 890 C534 891 532 894 528 891 L404 790 L280 891 C276 894 274 891 273 890 L269 885 C267 882 268 880 271 877 L400 771 Z " />
<glyph glyph-name="ncaron" unicode="&#x148;" horiz-adv-x="539" d="M88 8 C88 3 90 0 95 0 L99 0 C104 0 106 3 106 8 L106 365 C116 378 175 454 277 454 C388 454 439 384 439 258 L439 8 C439 3 442 0 447 0 L451 0 C456 0 457 3 457 8 L457 258 C457 399 402 472 277 472 C188 472 135 422 106 391 L106 454 C106 459 104 462 99 462 L95 462 C90 462 88 459 88 454 L88 8 Z M269 554 C271 552 275 552 277 554 L406 660 C409 663 410 665 408 668 L404 673 C403 674 401 677 397 674 L273 573 L149 674 C145 677 143 674 142 673 L138 668 C136 665 137 663 140 660 L269 554 Z " />
<glyph glyph-name="napostrophe" unicode="&#x149;" horiz-adv-x="539" d="M88 8 C88 3 90 0 95 0 L99 0 C104 0 106 3 106 8 L106 365 C116 378 175 454 277 454 C388 454 439 384 439 258 L439 8 C439 3 442 0 447 0 L451 0 C456 0 457 3 457 8 L457 258 C457 399 402 472 277 472 C188 472 135 422 106 391 L106 454 C106 459 104 462 99 462 L95 462 C90 462 88 459 88 454 L88 8 Z M-14 685 C-14 672 -3 662 10 662 C17 662 23 663 28 668 C32 662 34 652 34 639 C34 611 21 587 7 576 C3 573 0 571 5 565 L10 559 C13 556 14 555 19 559 C37 574 54 607 54 643 C54 681 41 710 12 710 C-3 710 -14 700 -14 685 L-14 685 Z " />
<glyph glyph-name="Eng" unicode="&#x14a;" horiz-adv-x="764" d="M656 -65 L656 693 C656 697 653 700 649 700 L645 700 C641 700 638 697 638 693 L638 25 L121 714 C117 720 108 717 108 710 L108 7 C108 3 111 0 115 0 L119 0 C123 0 126 3 126 7 L126 677 L638 -5 L638 -65 C638 -170 600 -213 521 -232 C516 -233 513 -235 514 -240 L515 -244 C516 -249 520 -250 526 -249 C615 -230 656 -176 656 -65 L656 -65 Z " />
<glyph glyph-name="eng" unicode="&#x14b;" horiz-adv-x="539" d="M88 8 C88 3 90 0 95 0 L99 0 C104 0 106 3 106 8 L106 365 C116 378 175 454 277 454 C388 454 439 384 439 258 L439 -65 C439 -170 401 -213 322 -232 C317 -233 314 -235 315 -240 L316 -244 C317 -249 321 -250 327 -249 C416 -230 457 -176 457 -65 L457 258 C457 399 402 472 277 472 C188 472 135 422 106 391 L106 454 C106 459 104 462 99 462 L95 462 C90 462 88 459 88 454 L88 8 Z " />
<glyph glyph-name="Omacron" unicode="&#x14c;" horiz-adv-x="844" d="M61 349 C61 148 221 -10 422 -10 C623 -10 784 148 784 349 C784 550 623 710 422 710 C221 710 61 550 61 349 L61 349 Z M79 349 C79 540 231 692 422 692 C613 692 766 540 766 349 C766 158 613 8 422 8 C231 8 79 158 79 349 L79 349 Z M278 842 L566 842 C570 842 573 845 573 849 L573 853 C573 857 570 860 566 860 L278 860 C274 860 271 857 271 853 L271 849 C271 845 274 842 278 842 L278 842 Z " />
<glyph glyph-name="omacron" unicode="&#x14d;" horiz-adv-x="577" d="M55 232 C55 96 157 -11 288 -11 C420 -11 522 96 522 232 C522 366 420 472 288 472 C157 472 55 366 55 232 L55 232 Z M73 232 C73 355 168 454 288 454 C409 454 504 355 504 232 C504 107 409 7 288 7 C168 7 73 107 73 232 L73 232 Z M146 607 L434 607 C438 607 441 610 441 614 L441 618 C441 622 438 625 434 625 L146 625 C142 625 139 622 139 618 L139 614 C139 610 142 607 146 607 L146 607 Z " />
<glyph glyph-name="Obreve" unicode="&#x14e;" horiz-adv-x="844" d="M61 349 C61 148 221 -10 422 -10 C623 -10 784 148 784 349 C784 550 623 710 422 710 C221 710 61 550 61 349 L61 349 Z M79 349 C79 540 231 692 422 692 C613 692 766 540 766 349 C766 158 613 8 422 8 C231 8 79 158 79 349 L79 349 Z M422 780 C488 780 539 827 549 888 C550 891 546 895 543 895 L536 895 C533 895 531 892 531 889 C522 836 478 798 422 798 C365 798 321 836 313 889 C313 892 311 895 308 895 L301 895 C298 895 294 891 295 888 C304 827 355 780 422 780 L422 780 Z " />
<glyph glyph-name="obreve" unicode="&#x14f;" horiz-adv-x="577" d="M55 232 C55 96 157 -11 288 -11 C420 -11 522 96 522 232 C522 366 420 472 288 472 C157 472 55 366 55 232 L55 232 Z M73 232 C73 355 168 454 288 454 C409 454 504 355 504 232 C504 107 409 7 288 7 C168 7 73 107 73 232 L73 232 Z M290 545 C356 545 407 592 417 652 C418 656 414 660 411 660 L404 660 C401 660 399 657 399 654 C390 600 346 563 290 563 C233 563 189 600 181 654 C181 657 179 660 176 660 L169 660 C166 660 162 656 163 652 C172 592 223 545 290 545 L290 545 Z " />
<glyph glyph-name="Ohungarumlaut" unicode="&#x150;" horiz-adv-x="844" d="M61 349 C61 148 221 -10 422 -10 C623 -10 784 148 784 349 C784 550 623 710 422 710 C221 710 61 550 61 349 L61 349 Z M79 349 C79 540 231 692 422 692 C613 692 766 540 766 349 C766 158 613 8 422 8 C231 8 79 158 79 349 L79 349 Z M506 757 C510 755 512 755 515 759 L623 932 C626 937 624 939 621 941 L618 943 C614 945 612 945 609 941 L501 768 C498 763 500 761 503 759 L506 757 Z M340 757 C344 755 346 755 349 759 L457 932 C460 937 458 939 455 941 L452 943 C448 945 446 945 443 941 L335 768 C332 763 334 761 337 759 L340 757 Z " />
<glyph glyph-name="ohungarumlaut" unicode="&#x151;" horiz-adv-x="577" d="M55 232 C55 96 157 -11 288 -11 C420 -11 522 96 522 232 C522 366 420 472 288 472 C157 472 55 366 55 232 L55 232 Z M73 232 C73 355 168 454 288 454 C409 454 504 355 504 232 C504 107 409 7 288 7 C168 7 73 107 73 232 L73 232 Z M366 513 C370 511 372 511 375 515 L483 688 C486 693 484 695 481 697 L478 699 C474 701 472 701 469 697 L361 524 C358 519 360 517 363 515 L366 513 Z M200 513 C204 511 206 511 209 515 L317 688 C320 693 318 695 315 697 L312 699 C308 701 306 701 303 697 L195 524 C192 519 194 517 197 515 L200 513 Z " />
<glyph glyph-name="OE" unicode="&#x152;" horiz-adv-x="973" d="M61 349 C61 148 219 -10 420 -10 C449 -10 479 -6 506 0 L908 0 C912 0 914 3 914 7 L914 11 C914 15 912 18 908 18 L512 18 L512 355 L860 355 C863 355 866 358 866 362 L866 366 C866 370 863 373 860 373 L512 373 L512 682 L908 682 C912 682 914 685 914 689 L914 693 C914 697 912 700 908 700 L504 700 C477 706 450 710 421 710 C220 710 61 550 61 349 L61 349 Z M78 349 C78 540 230 692 421 692 C447 692 469 689 494 684 L494 16 C469 10 446 8 420 8 C229 8 78 158 78 349 L78 349 Z " />
<glyph glyph-name="oe" unicode="&#x153;" horiz-adv-x="911" d="M55 231 C55 94 157 -11 288 -11 C367 -11 428 25 471 82 C510 27 573 -11 654 -11 C732 -11 794 21 823 43 C825 45 828 48 824 52 L821 56 C819 59 815 61 812 58 C784 37 726 7 654 7 C577 7 517 43 480 103 L480 223 L853 223 C855 223 859 225 860 228 C863 234 863 253 863 261 C863 386 775 472 652 472 C571 472 508 436 470 380 C427 436 370 472 288 472 C157 472 55 365 55 231 L55 231 Z M480 241 L480 357 C509 409 569 454 652 454 C764 454 844 375 844 261 C844 257 844 248 843 241 L480 241 Z M73 231 C73 354 168 454 288 454 C373 454 432 409 461 357 L461 103 C431 51 369 7 288 7 C168 7 73 106 73 231 L73 231 Z " />
<glyph glyph-name="Racute" unicode="&#x154;" horiz-adv-x="641" d="M108 7 C108 3 111 0 115 0 L119 0 C122 0 125 3 125 7 L125 267 L353 267 C362 267 370 267 379 268 L538 0 C539 -2 541 -4 544 -3 L553 2 C556 4 556 7 554 10 L398 271 C501 290 580 375 580 486 C580 610 477 700 352 700 L115 700 C111 700 108 697 108 693 L108 7 Z M125 284 L125 682 L352 682 C468 682 563 600 563 486 C563 370 468 284 353 284 L125 284 Z M217 778 L399 868 C403 870 404 873 402 877 L400 881 C397 886 394 885 391 884 L209 793 C205 791 205 788 206 786 L208 781 C210 777 212 776 217 778 L217 778 Z " />
<glyph glyph-name="racute" unicode="&#x155;" horiz-adv-x="366" d="M88 8 C88 3 90 0 95 0 L99 0 C104 0 106 3 106 8 L106 362 C115 376 165 454 258 454 C303 454 326 440 332 436 C337 433 342 436 343 438 L345 442 C347 446 347 450 343 453 C335 458 311 472 258 472 C181 472 129 425 106 393 L106 454 C106 459 104 462 99 462 L95 462 C90 462 88 459 88 454 L88 8 Z M112 560 L294 650 C298 652 299 655 297 659 L295 663 C292 668 289 667 286 666 L104 575 C100 573 100 570 101 568 L103 563 C105 559 107 558 112 560 L112 560 Z " />
<glyph glyph-name="Rcommaaccent" unicode="&#x156;" horiz-adv-x="641" d="M108 7 C108 3 111 0 115 0 L119 0 C122 0 125 3 125 7 L125 267 L353 267 C362 267 370 267 379 268 L538 0 C539 -2 541 -4 544 -3 L553 2 C556 4 556 7 554 10 L398 271 C501 290 580 375 580 486 C580 610 477 700 352 700 L115 700 C111 700 108 697 108 693 L108 7 Z M125 284 L125 682 L352 682 C468 682 563 600 563 486 C563 370 468 284 353 284 L125 284 Z M271 -108 C271 -121 282 -131 295 -131 C302 -131 308 -130 313 -125 C317 -131 319 -141 319 -154 C319 -182 306 -206 292 -217 C288 -220 285 -222 290 -228 L295 -234 C298 -237 299 -238 304 -234 C322 -219 339 -186 339 -150 C339 -112 326 -83 297 -83 C282 -83 271 -93 271 -108 L271 -108 Z " />
<glyph glyph-name="rcommaaccent" unicode="&#x157;" horiz-adv-x="366" d="M88 8 C88 3 90 0 95 0 L99 0 C104 0 106 3 106 8 L106 362 C115 376 165 454 258 454 C303 454 326 440 332 436 C337 433 342 436 343 438 L345 442 C347 446 347 450 343 453 C335 458 311 472 258 472 C181 472 129 425 106 393 L106 454 C106 459 104 462 99 462 L95 462 C90 462 88 459 88 454 L88 8 Z M70 -108 C70 -121 81 -131 94 -131 C101 -131 107 -130 112 -125 C116 -131 118 -141 118 -154 C118 -182 105 -206 91 -217 C87 -220 84 -222 89 -228 L94 -234 C97 -237 98 -238 103 -234 C121 -219 138 -186 138 -150 C138 -112 125 -83 96 -83 C81 -83 70 -93 70 -108 L70 -108 Z " />
<glyph glyph-name="Rcaron" unicode="&#x158;" horiz-adv-x="641" d="M108 7 C108 3 111 0 115 0 L119 0 C122 0 125 3 125 7 L125 267 L353 267 C362 267 370 267 379 268 L538 0 C539 -2 541 -4 544 -3 L553 2 C556 4 556 7 554 10 L398 271 C501 290 580 375 580 486 C580 610 477 700 352 700 L115 700 C111 700 108 697 108 693 L108 7 Z M125 284 L125 682 L352 682 C468 682 563 600 563 486 C563 370 468 284 353 284 L125 284 Z M292 771 C294 769 298 769 300 771 L429 877 C432 880 433 882 431 885 L427 890 C426 891 424 894 420 891 L296 790 L172 891 C168 894 166 891 165 890 L161 885 C159 882 160 880 163 877 L292 771 Z " />
<glyph glyph-name="rcaron" unicode="&#x159;" horiz-adv-x="366" d="M89 8 C89 3 91 0 96 0 L100 0 C105 0 107 3 107 8 L107 362 C116 376 166 454 259 454 C304 454 327 440 333 436 C338 433 343 436 344 438 L346 442 C348 446 348 450 344 453 C336 458 312 472 259 472 C182 472 130 425 107 393 L107 454 C107 459 105 462 100 462 L96 462 C91 462 89 459 89 454 L89 8 Z M194 553 C196 551 200 551 202 553 L331 659 C334 662 335 664 333 667 L329 672 C328 673 326 676 322 673 L198 572 L74 673 C70 676 68 673 67 672 L63 667 C61 664 62 662 65 659 L194 553 Z " />
<glyph glyph-name="Sacute" unicode="&#x15a;" horiz-adv-x="550" d="M69 73 C82 61 163 -10 282 -10 C408 -10 503 70 503 175 C503 282 416 327 276 366 C159 397 80 433 80 535 C80 608 135 692 280 692 C372 692 443 643 443 643 C447 641 449 642 451 645 L455 651 C457 654 456 657 453 659 C453 659 380 710 280 710 C123 710 62 616 62 535 C62 419 150 381 271 348 C398 314 485 275 485 175 C485 79 394 8 282 8 C169 8 95 74 82 85 C79 88 76 89 73 86 L69 82 C66 79 66 76 69 73 L69 73 Z M206 763 L388 853 C392 855 393 858 391 862 L389 866 C386 871 383 870 380 869 L198 778 C194 776 194 773 195 771 L197 766 C199 762 201 761 206 763 L206 763 Z " />
<glyph glyph-name="sacute" unicode="&#x15b;" horiz-adv-x="425" d="M215 -11 C308 -11 381 44 381 115 C381 199 302 222 209 249 C120 274 72 300 72 355 C72 399 114 454 208 454 C263 454 304 435 329 420 C335 417 337 419 340 423 L342 426 C345 430 343 435 340 437 C316 452 270 472 208 472 C103 472 54 408 54 355 C54 290 102 259 204 231 C291 207 363 182 363 115 C363 56 298 7 215 7 C143 7 98 36 74 56 C70 59 66 58 64 55 L60 50 C57 46 59 43 62 40 C86 19 138 -11 215 -11 L215 -11 Z M122 563 L304 653 C308 655 309 658 307 662 L305 666 C302 671 299 670 296 669 L114 578 C110 576 110 573 111 571 L113 566 C115 562 117 561 122 563 L122 563 Z " />
<glyph glyph-name="Scircumflex" unicode="&#x15c;" horiz-adv-x="550" d="M69 73 C82 61 163 -10 282 -10 C408 -10 503 70 503 175 C503 282 416 327 276 366 C159 397 80 433 80 535 C80 608 135 692 280 692 C372 692 443 643 443 643 C447 641 449 642 451 645 L455 651 C457 654 456 657 453 659 C453 659 380 710 280 710 C123 710 62 616 62 535 C62 419 150 381 271 348 C398 314 485 275 485 175 C485 79 394 8 282 8 C169 8 95 74 82 85 C79 88 76 89 73 86 L69 82 C66 79 66 76 69 73 L69 73 Z M161 748 L285 849 L409 748 C413 745 415 748 416 749 L420 754 C422 757 421 759 418 762 L289 868 C287 870 283 870 281 868 L152 762 C149 759 148 757 150 754 L154 749 C155 748 157 745 161 748 L161 748 Z " />
<glyph glyph-name="scircumflex" unicode="&#x15d;" horiz-adv-x="425" d="M215 -11 C308 -11 381 44 381 115 C381 199 302 222 209 249 C120 274 72 300 72 355 C72 399 114 454 208 454 C263 454 304 435 329 420 C335 417 337 419 340 423 L342 426 C345 430 343 435 340 437 C316 452 270 472 208 472 C103 472 54 408 54 355 C54 290 102 259 204 231 C291 207 363 182 363 115 C363 56 298 7 215 7 C143 7 98 36 74 56 C70 59 66 58 64 55 L60 50 C57 46 59 43 62 40 C86 19 138 -11 215 -11 L215 -11 Z M84 551 L208 652 L332 551 C336 548 338 551 339 552 L343 557 C345 560 344 562 341 565 L212 671 C210 673 206 673 204 671 L75 565 C72 562 71 560 73 557 L77 552 C78 551 80 548 84 551 L84 551 Z " />
<glyph glyph-name="Scedilla" unicode="&#x15e;" horiz-adv-x="550" d="M69 73 C81 61 156 -4 268 -9 L219 -87 C217 -91 222 -101 228 -98 C242 -92 257 -89 276 -89 C313 -89 343 -111 343 -152 C343 -191 315 -217 271 -217 C241 -217 223 -205 208 -188 C205 -185 202 -185 199 -187 L193 -192 C190 -195 190 -198 193 -201 C210 -219 236 -235 271 -235 C324 -235 362 -200 362 -152 C362 -96 318 -71 277 -71 C263 -71 253 -73 244 -77 L289 -10 C403 -7 503 72 503 166 C503 282 416 327 276 366 C159 397 80 433 80 535 C80 608 135 692 280 692 C372 692 443 643 443 643 C447 641 449 642 451 645 L455 651 C457 654 456 657 453 659 C453 659 380 710 280 710 C123 710 62 616 62 535 C62 419 150 381 271 348 C398 314 485 275 485 166 C485 79 389 8 282 8 C169 8 95 74 82 85 C79 88 76 89 73 86 L69 82 C66 79 66 76 69 73 L69 73 Z " />
<glyph glyph-name="scedilla" unicode="&#x15f;" horiz-adv-x="425" d="M215 -11 C308 -11 381 44 381 115 C381 199 302 222 209 249 C120 274 72 300 72 355 C72 397 114 454 208 454 C263 454 306 433 329 420 C335 417 337 419 340 423 L342 426 C345 430 343 435 340 437 C316 452 270 472 208 472 C103 472 54 406 54 355 C54 290 102 259 204 231 C291 207 363 182 363 115 C363 56 298 7 215 7 C143 7 98 36 74 56 C70 59 66 58 64 55 L60 50 C57 46 59 43 62 40 C83 21 128 -5 193 -10 L145 -87 C143 -91 148 -101 154 -98 C168 -92 183 -89 202 -89 C239 -89 269 -111 269 -152 C269 -191 241 -217 197 -217 C167 -217 149 -205 134 -188 C131 -185 128 -185 125 -187 L119 -192 C116 -195 116 -198 119 -201 C136 -219 162 -235 197 -235 C250 -235 288 -200 288 -152 C288 -96 244 -71 203 -71 C189 -71 179 -73 170 -77 L214 -11 L215 -11 Z " />
<glyph glyph-name="Scaron" unicode="&#x160;" horiz-adv-x="550" d="M69 73 C82 61 163 -10 282 -10 C408 -10 503 70 503 175 C503 282 416 327 276 366 C159 397 80 433 80 535 C80 608 135 692 280 692 C372 692 443 643 443 643 C447 641 449 642 451 645 L455 651 C457 654 456 657 453 659 C453 659 380 710 280 710 C123 710 62 616 62 535 C62 419 150 381 271 348 C398 314 485 275 485 175 C485 79 394 8 282 8 C169 8 95 74 82 85 C79 88 76 89 73 86 L69 82 C66 79 66 76 69 73 L69 73 Z M281 756 C283 754 287 754 289 756 L418 862 C421 865 422 867 420 870 L416 875 C415 876 413 879 409 876 L285 775 L161 876 C157 879 155 876 154 875 L150 870 C148 867 149 865 152 862 L281 756 Z " />
<glyph glyph-name="scaron" unicode="&#x161;" horiz-adv-x="425" d="M215 -11 C308 -11 381 44 381 115 C381 199 302 222 209 249 C120 274 72 300 72 355 C72 399 114 454 208 454 C263 454 304 435 329 420 C335 417 337 419 340 423 L342 426 C345 430 343 435 340 437 C316 452 270 472 208 472 C103 472 54 408 54 355 C54 290 102 259 204 231 C291 207 363 182 363 115 C363 56 298 7 215 7 C143 7 98 36 74 56 C70 59 66 58 64 55 L60 50 C57 46 59 43 62 40 C86 19 138 -11 215 -11 L215 -11 Z M202 556 C204 554 208 554 210 556 L339 662 C342 665 343 667 341 670 L337 675 C336 676 334 679 330 676 L206 575 L82 676 C78 679 76 676 75 675 L71 670 C69 667 70 665 73 662 L202 556 Z " />
<glyph glyph-name="Tcommaaccent" unicode="&#x162;" horiz-adv-x="498" d="M239 4 L179 -87 C177 -91 182 -101 188 -98 C202 -92 217 -89 236 -89 C273 -89 303 -111 303 -152 C303 -191 275 -217 231 -217 C201 -217 183 -205 168 -188 C165 -185 162 -185 159 -187 L153 -192 C150 -195 150 -198 153 -201 C170 -219 196 -235 231 -235 C284 -235 322 -200 322 -152 C322 -96 278 -71 237 -71 C223 -71 213 -73 204 -77 L252 -4 C255 1 257 4 257 11 L257 682 L467 682 C471 682 474 685 474 689 L474 693 C474 697 471 700 467 700 L31 700 C27 700 24 697 24 693 L24 689 C24 685 27 682 31 682 L239 682 L239 4 Z " />
<glyph glyph-name="tcommaaccent" unicode="&#x163;" horiz-adv-x="345" d="M98 124 C98 54 103 0 175 -9 L126 -87 C124 -91 129 -101 135 -98 C149 -92 164 -89 183 -89 C220 -89 250 -111 250 -152 C250 -191 222 -217 178 -217 C148 -217 130 -205 115 -188 C112 -185 109 -185 106 -187 L100 -192 C97 -195 97 -198 100 -201 C117 -219 143 -235 178 -235 C231 -235 269 -200 269 -152 C269 -96 225 -71 184 -71 C170 -71 160 -73 151 -77 L195 -11 L201 -11 C257 -11 320 20 335 30 C338 32 339 35 337 38 L334 43 C332 46 330 48 325 45 C310 35 250 7 201 7 C120 7 116 59 116 124 L116 444 L306 444 C310 444 313 446 313 450 L313 455 C313 460 310 462 306 462 L116 462 L116 587 C116 591 114 594 109 594 L104 594 C101 594 98 591 98 587 L98 462 L49 462 C45 462 42 460 42 455 L42 450 C42 446 45 444 49 444 L98 444 L98 124 Z " />
<glyph glyph-name="Tcaron" unicode="&#x164;" horiz-adv-x="498" d="M239 7 C239 3 242 0 246 0 L250 0 C254 0 257 3 257 7 L257 682 L467 682 C471 682 474 685 474 689 L474 693 C474 697 471 700 467 700 L31 700 C27 700 24 697 24 693 L24 689 C24 685 27 682 31 682 L239 682 L239 7 Z M244 771 C246 769 250 769 252 771 L381 877 C384 880 385 882 383 885 L379 890 C378 891 376 894 372 891 L248 790 L124 891 C120 894 118 891 117 890 L113 885 C111 882 112 880 115 877 L244 771 Z " />
<glyph glyph-name="tcaron" unicode="&#x165;" horiz-adv-x="344" d="M97 124 C97 47 103 -11 200 -11 C256 -11 319 20 334 30 C337 32 338 35 336 38 L333 43 C331 46 329 48 324 45 C309 35 249 7 200 7 C119 7 115 59 115 124 L115 444 L305 444 C309 444 312 446 312 450 L312 455 C312 460 309 462 305 462 L115 462 L115 587 C115 591 113 594 108 594 L103 594 C100 594 97 591 97 587 L97 462 L48 462 C44 462 41 460 41 455 L41 450 C41 446 44 444 48 444 L97 444 L97 124 Z M325 685 C325 672 336 662 349 662 C356 662 362 663 367 668 C371 662 373 652 373 639 C373 611 360 587 346 576 C342 573 339 571 344 565 L349 559 C352 556 353 555 358 559 C376 574 393 607 393 643 C393 681 380 710 351 710 C336 710 325 700 325 685 L325 685 Z " />
<glyph glyph-name="Tbar" unicode="&#x166;" horiz-adv-x="500" d="M240 7 C240 3 243 0 247 0 L251 0 C255 0 258 3 258 7 L258 312 L409 312 C413 312 416 315 416 319 L416 323 C416 326 413 329 409 329 L258 329 L258 682 L468 682 C472 682 475 685 475 689 L475 693 C475 697 472 700 468 700 L32 700 C28 700 25 697 25 693 L25 689 C25 685 28 682 32 682 L240 682 L240 329 L93 329 C89 329 86 326 86 323 L86 319 C86 315 89 312 93 312 L240 312 L240 7 Z " />
<glyph glyph-name="tbar" unicode="&#x167;" horiz-adv-x="344" d="M97 247 L64 247 C60 247 57 244 57 240 L57 237 C57 233 60 230 64 230 L97 230 L97 124 C97 47 103 -11 200 -11 C256 -11 319 20 334 30 C337 32 338 35 336 38 L333 43 C331 46 329 48 324 45 C309 35 249 7 200 7 C119 7 115 59 115 124 L115 230 L265 230 C269 230 272 233 272 237 L272 240 C272 244 269 247 265 247 L115 247 L115 444 L305 444 L306 444 C308 444 310 445 311 447 L311 448 C311 448 312 449 312 450 L312 451 L312 455 C312 456 312 457 311 458 L311 459 C311 460 310 460 310 460 C310 460 309 460 309 461 C308 461 307 462 307 462 L305 462 L115 462 L115 587 C115 591 113 594 108 594 L103 594 C100 594 97 591 97 587 L97 462 L48 462 C45 462 42 461 41 458 L41 455 L41 451 L41 450 L41 448 C41 447 42 447 42 447 C43 445 45 444 48 444 L97 444 L97 247 Z " />
<glyph glyph-name="Utilde" unicode="&#x168;" horiz-adv-x="718" d="M100 252 C100 98 199 -10 358 -10 C518 -10 618 98 618 252 L618 693 C618 697 615 700 611 700 L607 700 C603 700 600 697 600 693 L600 252 C600 108 508 8 358 8 C209 8 118 108 118 252 L118 693 C118 697 115 700 111 700 L107 700 C103 700 100 697 100 693 L100 252 Z M222 802 C225 801 228 803 229 807 C234 824 252 880 297 880 C330 880 341 849 348 832 C357 810 374 772 419 772 C478 772 499 838 505 856 C507 861 506 864 502 865 L494 867 C491 868 488 866 487 862 C482 845 464 790 419 790 C387 790 374 817 366 836 C356 860 342 897 297 897 C238 897 217 832 211 813 C209 808 210 805 214 804 L222 802 Z " />
<glyph glyph-name="utilde" unicode="&#x169;" horiz-adv-x="528" d="M82 201 C82 61 137 -11 262 -11 C347 -11 395 37 422 69 L422 8 C422 3 424 0 429 0 L434 0 C438 0 440 3 440 8 L440 454 C440 459 438 462 434 462 L429 462 C424 462 422 459 422 454 L422 99 C415 88 366 8 262 8 C151 8 100 75 100 201 L100 454 C100 459 98 462 94 462 L88 462 C84 462 82 459 82 454 L82 201 Z M123 583 C126 582 129 584 130 588 C135 605 153 661 198 661 C231 661 242 630 249 613 C258 591 275 553 320 553 C379 553 400 619 406 637 C408 642 407 645 403 646 L395 648 C392 649 389 647 388 643 C383 626 365 571 320 571 C288 571 275 598 267 617 C257 641 243 678 198 678 C139 678 118 613 112 594 C110 589 111 586 115 585 L123 583 Z " />
<glyph glyph-name="Umacron" unicode="&#x16a;" horiz-adv-x="718" d="M100 252 C100 98 199 -10 358 -10 C518 -10 618 98 618 252 L618 693 C618 697 615 700 611 700 L607 700 C603 700 600 697 600 693 L600 252 C600 108 508 8 358 8 C209 8 118 108 118 252 L118 693 C118 697 115 700 111 700 L107 700 C103 700 100 697 100 693 L100 252 Z M215 842 L503 842 C507 842 510 845 510 849 L510 853 C510 857 507 860 503 860 L215 860 C211 860 208 857 208 853 L208 849 C208 845 211 842 215 842 L215 842 Z " />
<glyph glyph-name="umacron" unicode="&#x16b;" horiz-adv-x="528" d="M82 201 C82 61 137 -11 262 -11 C347 -11 395 37 422 69 L422 8 C422 3 424 0 429 0 L434 0 C438 0 440 3 440 8 L440 454 C440 459 438 462 434 462 L429 462 C424 462 422 459 422 454 L422 99 C415 88 366 8 262 8 C151 8 100 75 100 201 L100 454 C100 459 98 462 94 462 L88 462 C84 462 82 459 82 454 L82 201 Z M115 607 L403 607 C407 607 410 610 410 614 L410 618 C410 622 407 625 403 625 L115 625 C111 625 108 622 108 618 L108 614 C108 610 111 607 115 607 L115 607 Z " />
<glyph glyph-name="Ubreve" unicode="&#x16c;" horiz-adv-x="718" d="M100 252 C100 98 199 -10 358 -10 C518 -10 618 98 618 252 L618 693 C618 697 615 700 611 700 L607 700 C603 700 600 697 600 693 L600 252 C600 108 508 8 358 8 C209 8 118 108 118 252 L118 693 C118 697 115 700 111 700 L107 700 C103 700 100 697 100 693 L100 252 Z M359 780 C425 780 476 827 486 888 C487 891 483 895 480 895 L473 895 C470 895 468 892 468 889 C459 836 415 798 359 798 C302 798 258 836 250 889 C250 892 248 895 245 895 L238 895 C235 895 231 891 232 888 C241 827 292 780 359 780 L359 780 Z " />
<glyph glyph-name="ubreve" unicode="&#x16d;" horiz-adv-x="528" d="M82 201 C82 61 137 -11 262 -11 C347 -11 395 37 422 69 L422 8 C422 3 424 0 429 0 L434 0 C438 0 440 3 440 8 L440 454 C440 459 438 462 434 462 L429 462 C424 462 422 459 422 454 L422 99 C415 88 366 8 262 8 C151 8 100 75 100 201 L100 454 C100 459 98 462 94 462 L88 462 C84 462 82 459 82 454 L82 201 Z M259 545 C325 545 376 592 386 652 C387 656 383 660 380 660 L373 660 C370 660 368 657 368 654 C359 600 315 563 259 563 C202 563 158 600 150 654 C150 657 148 660 145 660 L138 660 C135 660 131 656 132 652 C141 592 192 545 259 545 L259 545 Z " />
<glyph glyph-name="Uring" unicode="&#x16e;" horiz-adv-x="718" d="M100 252 C100 98 199 -10 358 -10 C518 -10 618 98 618 252 L618 693 C618 697 615 700 611 700 L607 700 C603 700 600 697 600 693 L600 252 C600 108 508 8 358 8 C209 8 118 108 118 252 L118 693 C118 697 115 700 111 700 L107 700 C103 700 100 697 100 693 L100 252 Z M360 750 C418 750 464 795 464 854 C464 912 418 958 360 958 C301 958 256 912 256 854 C256 795 301 750 360 750 L360 750 Z M360 767 C312 767 274 806 274 854 C274 901 312 941 360 941 C407 941 446 901 446 854 C446 806 407 767 360 767 L360 767 Z " />
<glyph glyph-name="uring" unicode="&#x16f;" horiz-adv-x="528" d="M82 201 C82 61 137 -11 262 -11 C347 -11 395 37 422 69 L422 8 C422 3 424 0 429 0 L434 0 C438 0 440 3 440 8 L440 454 C440 459 438 462 434 462 L429 462 C424 462 422 459 422 454 L422 99 C415 88 366 8 262 8 C151 8 100 75 100 201 L100 454 C100 459 98 462 94 462 L88 462 C84 462 82 459 82 454 L82 201 Z M259 509 C317 509 363 554 363 613 C363 671 317 717 259 717 C200 717 155 671 155 613 C155 554 200 509 259 509 L259 509 Z M259 526 C211 526 173 565 173 613 C173 660 211 700 259 700 C306 700 345 660 345 613 C345 565 306 526 259 526 L259 526 Z " />
<glyph glyph-name="Uhungarumlaut" unicode="&#x170;" horiz-adv-x="718" d="M100 252 C100 98 199 -10 358 -10 C518 -10 618 98 618 252 L618 693 C618 697 615 700 611 700 L607 700 C603 700 600 697 600 693 L600 252 C600 108 508 8 358 8 C209 8 118 108 118 252 L118 693 C118 697 115 700 111 700 L107 700 C103 700 100 697 100 693 L100 252 Z M443 757 C447 755 449 755 452 759 L560 932 C563 937 561 939 558 941 L555 943 C551 945 549 945 546 941 L438 768 C435 763 437 761 440 759 L443 757 Z M277 757 C281 755 283 755 286 759 L394 932 C397 937 395 939 392 941 L389 943 C385 945 383 945 380 941 L272 768 C269 763 271 761 274 759 L277 757 Z " />
<glyph glyph-name="uhungarumlaut" unicode="&#x171;" horiz-adv-x="528" d="M82 201 C82 61 137 -11 262 -11 C347 -11 395 37 422 69 L422 8 C422 3 424 0 429 0 L434 0 C438 0 440 3 440 8 L440 454 C440 459 438 462 434 462 L429 462 C424 462 422 459 422 454 L422 99 C415 88 366 8 262 8 C151 8 100 75 100 201 L100 454 C100 459 98 462 94 462 L88 462 C84 462 82 459 82 454 L82 201 Z M340 513 C344 511 346 511 349 515 L457 688 C460 693 458 695 455 697 L452 699 C448 701 446 701 443 697 L335 524 C332 519 334 517 337 515 L340 513 Z M174 513 C178 511 180 511 183 515 L291 688 C294 693 292 695 289 697 L286 699 C282 701 280 701 277 697 L169 524 C166 519 168 517 171 515 L174 513 Z " />
<glyph glyph-name="Uogonek" unicode="&#x172;" horiz-adv-x="718" d="M100 252 C100 98 199 -10 358 -10 C367 -10 377 -9 386 -8 C341 -36 293 -79 293 -147 C293 -199 326 -238 382 -238 C412 -238 442 -221 454 -215 C460 -212 463 -208 461 -204 L458 -198 C456 -194 454 -194 450 -196 C442 -200 415 -220 382 -220 C336 -220 311 -186 311 -147 C311 -70 377 -29 427 -3 C546 23 618 121 618 252 L618 693 C618 697 615 700 611 700 L607 700 C603 700 600 697 600 693 L600 252 C600 108 508 8 358 8 C209 8 118 108 118 252 L118 693 C118 697 115 700 111 700 L107 700 C103 700 100 697 100 693 L100 252 Z " />
<glyph glyph-name="uogonek" unicode="&#x173;" horiz-adv-x="528" d="M82 201 C82 61 137 -11 262 -11 C347 -11 395 37 422 69 L422 13 C371 -13 294 -61 294 -147 C294 -199 327 -238 383 -238 C413 -238 443 -221 455 -215 C461 -212 464 -208 462 -204 L459 -198 C457 -194 455 -194 451 -196 C443 -200 416 -220 383 -220 C337 -220 312 -186 312 -147 C312 -67 383 -26 434 0 C438 2 440 6 440 11 L440 454 C440 459 438 462 434 462 L429 462 C424 462 422 459 422 454 L422 99 C415 88 366 8 262 8 C151 8 100 75 100 201 L100 454 C100 459 98 462 94 462 L88 462 C84 462 82 459 82 454 L82 201 Z " />
<glyph glyph-name="Wcircumflex" unicode="&#x174;" horiz-adv-x="868" d="M233 -12 C235 -19 245 -19 247 -12 L431 664 L624 -12 C626 -19 636 -19 638 -12 L835 693 C836 696 835 698 832 699 L824 702 C821 703 819 702 818 699 L631 32 L438 708 C436 715 426 715 424 708 L240 31 L46 699 C45 702 43 703 40 702 L32 699 C29 698 28 696 29 693 L233 -12 Z M307 763 L431 864 L555 763 C559 760 561 763 562 764 L566 769 C568 772 567 774 564 777 L435 883 C433 885 429 885 427 883 L298 777 C295 774 294 772 296 769 L300 764 C301 763 303 760 307 763 L307 763 Z " />
<glyph glyph-name="wcircumflex" unicode="&#x175;" horiz-adv-x="680" d="M187 -9 C189 -18 201 -18 203 -9 L340 438 L478 -9 C480 -18 492 -18 494 -9 L648 458 C649 462 649 465 645 466 L640 468 C635 470 632 466 631 462 L485 24 L348 474 C346 481 334 481 332 474 L194 24 L49 464 C48 468 44 470 40 468 L35 466 C32 465 31 462 32 458 L187 -9 Z M216 548 L340 649 L464 548 C468 545 470 548 471 549 L475 554 C477 557 476 559 473 562 L344 668 C342 670 338 670 336 668 L207 562 C204 559 203 557 205 554 L209 549 C210 548 212 545 216 548 L216 548 Z " />
<glyph glyph-name="Ycircumflex" unicode="&#x176;" horiz-adv-x="552" d="M267 7 C267 3 270 0 274 0 L278 0 C282 0 285 3 285 7 L285 344 L549 688 C551 691 552 694 548 697 L542 701 C539 703 536 701 534 698 L276 359 L18 698 C16 700 14 703 10 701 L4 697 C0 694 1 691 3 688 L267 343 L267 7 Z M152 763 L276 864 L400 763 C404 760 406 763 407 764 L411 769 C413 772 412 774 409 777 L280 883 C278 885 274 885 272 883 L143 777 C140 774 139 772 141 769 L145 764 C146 763 148 760 152 763 L152 763 Z " />
<glyph glyph-name="ycircumflex" unicode="&#x177;" horiz-adv-x="470" d="M227 8 L121 -231 C118 -237 119 -239 123 -241 L127 -243 C132 -246 135 -243 137 -238 L447 457 C449 461 449 463 446 465 L440 468 C436 470 433 467 432 464 L237 26 L37 464 C36 467 33 470 29 468 L23 465 C20 463 20 461 22 457 L227 8 Z M113 548 L237 649 L361 548 C365 545 367 548 368 549 L372 554 C374 557 373 559 370 562 L241 668 C239 670 235 670 233 668 L104 562 C101 559 100 557 102 554 L106 549 C107 548 109 545 113 548 L113 548 Z " />
<glyph glyph-name="Ydieresis" unicode="&#x178;" horiz-adv-x="552" d="M267 7 C267 3 270 0 274 0 L278 0 C282 0 285 3 285 7 L285 344 L549 688 C551 691 552 694 548 697 L542 701 C539 703 536 701 534 698 L276 359 L18 698 C16 700 14 703 10 701 L4 697 C0 694 1 691 3 688 L267 343 L267 7 Z M381 808 C395 808 404 817 404 830 C404 844 395 853 381 853 C367 853 358 844 358 830 C358 817 367 808 381 808 L381 808 Z M174 808 C188 808 197 817 197 830 C197 844 188 853 174 853 C160 853 151 844 151 830 C151 817 160 808 174 808 L174 808 Z " />
<glyph glyph-name="Zacute" unicode="&#x179;" horiz-adv-x="515" d="M23 11 C20 6 23 0 29 0 L460 0 C464 0 467 3 467 7 L467 11 C467 15 464 18 460 18 L49 18 L488 689 C491 694 488 700 482 700 L63 700 C59 700 56 697 56 693 L56 689 C56 685 59 682 63 682 L462 682 L23 11 Z M194 778 L376 868 C380 870 381 873 379 877 L377 881 C374 886 371 885 368 884 L186 793 C182 791 182 788 183 786 L185 781 C187 777 189 776 194 778 L194 778 Z " />
<glyph glyph-name="zacute" unicode="&#x17a;" horiz-adv-x="420" d="M29 13 C24 7 29 0 36 0 L364 0 C369 0 372 2 372 7 L372 11 C372 15 369 18 364 18 L55 18 L384 449 C388 455 384 462 376 462 L68 462 C63 462 61 460 61 455 L61 450 C61 446 63 444 68 444 L356 444 L29 13 Z M128 560 L310 650 C314 652 315 655 313 659 L311 663 C308 668 305 667 302 666 L120 575 C116 573 116 570 117 568 L119 563 C121 559 123 558 128 560 L128 560 Z " />
<glyph glyph-name="Zdotaccent" unicode="&#x17b;" horiz-adv-x="515" d="M23 11 C20 6 23 0 29 0 L460 0 C464 0 467 3 467 7 L467 11 C467 15 464 18 460 18 L49 18 L488 689 C491 694 488 700 482 700 L63 700 C59 700 56 697 56 693 L56 689 C56 685 59 682 63 682 L462 682 L23 11 Z M273 819 C286 819 296 830 296 842 C296 855 286 867 273 867 C259 867 250 855 250 842 C250 830 259 819 273 819 L273 819 Z " />
<glyph glyph-name="zdotaccent" unicode="&#x17c;" horiz-adv-x="420" d="M29 13 C24 7 29 0 36 0 L364 0 C369 0 372 2 372 7 L372 11 C372 15 369 18 364 18 L55 18 L384 449 C388 455 384 462 376 462 L68 462 C63 462 61 460 61 455 L61 450 C61 446 63 444 68 444 L356 444 L29 13 Z M213 605 C226 605 236 616 236 628 C236 641 226 653 213 653 C199 653 190 641 190 628 C190 616 199 605 213 605 L213 605 Z " />
<glyph glyph-name="Zcaron" unicode="&#x17d;" horiz-adv-x="515" d="M23 11 C20 6 23 0 29 0 L460 0 C464 0 467 3 467 7 L467 11 C467 15 464 18 460 18 L49 18 L488 689 C491 694 488 700 482 700 L63 700 C59 700 56 697 56 693 L56 689 C56 685 59 682 63 682 L462 682 L23 11 Z M269 771 C271 769 275 769 277 771 L406 877 C409 880 410 882 408 885 L404 890 C403 891 401 894 397 891 L273 790 L149 891 C145 894 143 891 142 890 L138 885 C136 882 137 880 140 877 L269 771 Z " />
<glyph glyph-name="zcaron" unicode="&#x17e;" horiz-adv-x="420" d="M29 13 C24 7 29 0 36 0 L364 0 C369 0 372 2 372 7 L372 11 C372 15 369 18 364 18 L55 18 L384 449 C388 455 384 462 376 462 L68 462 C63 462 61 460 61 455 L61 450 C61 446 63 444 68 444 L356 444 L29 13 Z M205 553 C207 551 211 551 213 553 L342 659 C345 662 346 664 344 667 L340 672 C339 673 337 676 333 673 L209 572 L85 673 C81 676 79 673 78 672 L74 667 C72 664 73 662 76 659 L205 553 Z " />
<glyph glyph-name="florin" unicode="&#x192;" horiz-adv-x="380" d="M144 -73 C144 -181 92 -231 13 -231 C-38 -231 -71 -209 -88 -193 C-91 -190 -95 -190 -98 -193 L-101 -196 C-104 -199 -104 -203 -101 -206 C-82 -224 -43 -249 13 -249 C102 -249 162 -193 162 -73 L162 382 L343 382 C347 382 350 385 350 389 L350 393 C350 397 347 400 343 400 L162 400 L162 534 C162 642 214 692 293 692 C344 692 377 670 394 654 C397 651 401 651 404 654 L407 657 C410 660 410 664 407 667 C388 685 349 710 293 710 C204 710 144 654 144 534 L144 400 L34 400 C30 400 27 397 27 393 L27 389 C27 385 30 382 34 382 L144 382 L144 -73 Z " />
<glyph glyph-name="Aringacute" unicode="&#x1fa;" horiz-adv-x="635" d="M238 919 L420 1009 C424 1011 425 1014 423 1018 L421 1022 C418 1027 415 1026 412 1025 L230 934 C226 932 226 929 227 927 L229 922 C231 918 233 917 238 919 L238 919 Z M5 7 C4 4 5 2 8 1 L17 -2 C20 -3 21 -1 22 1 L112 210 L521 210 L610 1 C611 -1 612 -3 615 -2 L624 1 C627 2 628 4 627 7 L328 708 C382 713 423 756 423 812 C423 870 377 916 319 916 C260 916 215 870 215 812 C215 756 255 713 309 708 L5 7 Z M319 724 C271 724 232 764 232 812 C232 859 271 900 319 900 C366 900 406 859 406 812 C406 764 366 724 319 724 L319 724 Z M120 227 L319 685 L513 227 L120 227 Z " />
<glyph glyph-name="aringacute" unicode="&#x1fb;" horiz-adv-x="487" d="M240 508 C298 508 344 540 344 599 C344 657 298 690 240 690 C181 690 136 657 136 599 C136 540 181 508 240 508 L240 508 Z M240 524 C192 524 153 551 153 599 C153 646 192 674 240 674 C287 674 327 646 327 599 C327 551 287 524 240 524 L240 524 Z M152 703 L334 773 C338 775 339 778 337 782 L335 786 C332 791 329 790 326 789 L144 718 C140 716 140 713 141 711 L143 706 C145 702 147 701 152 703 L152 703 Z M44 144 C44 47 114 -11 204 -11 C280 -11 349 29 385 60 L385 8 C385 3 387 0 392 0 L396 0 C402 0 403 3 403 8 L403 319 C403 424 368 472 255 472 C162 472 111 441 102 436 C100 435 97 432 100 426 L102 422 C104 418 107 417 113 420 C122 425 166 454 255 454 C352 454 385 411 385 319 L385 276 C360 286 303 302 246 302 C124 302 44 235 44 144 L44 144 Z M62 144 C62 224 136 284 246 284 C308 284 369 263 385 257 L385 86 C362 57 288 7 204 7 C125 7 62 59 62 144 L62 144 Z " />
<glyph glyph-name="AEacute" unicode="&#x1fc;" horiz-adv-x="916" d="M-2 -1 C1 -3 4 -3 6 0 L143 210 L438 210 L438 7 C438 3 441 0 445 0 L851 0 C855 0 858 3 858 7 L858 11 C858 15 855 18 851 18 L455 18 L455 355 L803 355 C807 355 810 358 810 362 L810 366 C810 370 807 373 803 373 L455 373 L455 682 L851 682 C855 682 858 685 858 689 L858 693 C858 697 855 700 851 700 L453 700 C443 700 440 699 436 692 L-9 10 C-12 5 -10 4 -7 2 L-2 -1 Z M153 227 L438 662 L438 227 L153 227 Z M547 779 L729 869 C733 871 734 874 732 878 L730 882 C727 887 724 886 721 885 L539 794 C535 792 535 789 536 787 L538 782 C540 778 542 777 547 779 L547 779 Z " />
<glyph glyph-name="aeacute" unicode="&#x1fd;" horiz-adv-x="824" d="M44 146 C44 46 114 -11 204 -11 C288 -11 365 32 396 65 C434 18 495 -11 568 -11 C643 -11 701 19 735 42 C738 44 740 47 738 50 L734 57 C733 59 729 61 725 58 C698 37 640 7 568 7 C506 7 450 28 406 83 L406 223 L764 223 C768 223 771 225 772 228 C775 235 776 254 776 262 C776 386 691 472 566 472 C498 472 435 445 394 399 C376 448 332 472 256 472 C160 472 102 436 102 436 C100 435 99 430 100 427 L103 421 C106 417 109 417 114 419 C127 425 175 454 256 454 C354 454 387 411 387 319 L387 276 C362 286 303 302 246 302 C124 302 44 235 44 146 L44 146 Z M406 241 L406 319 C406 339 405 359 402 375 C435 424 497 454 566 454 C677 454 757 375 757 262 C757 257 757 249 756 241 L406 241 Z M62 146 C62 223 136 284 246 284 C309 284 371 262 387 257 L387 83 C363 53 287 7 204 7 C125 7 62 58 62 146 L62 146 Z M344 560 L526 650 C530 652 531 655 529 659 L527 663 C524 668 521 667 518 666 L336 575 C332 573 332 570 333 568 L335 563 C337 559 339 558 344 560 L344 560 Z " />
<glyph glyph-name="Oslashacute" unicode="&#x1fe;" horiz-adv-x="844" d="M86 34 L89 31 C92 28 96 28 98 31 L164 94 C230 28 320 -10 422 -10 C623 -10 784 148 784 349 C784 443 747 528 689 593 L757 658 C760 661 760 665 757 668 L754 671 C751 674 747 674 745 671 L677 606 C612 671 522 710 422 710 C221 710 61 550 61 349 C61 256 96 172 152 108 L86 44 C83 41 83 37 86 34 L86 34 Z M165 120 C111 180 79 260 79 349 C79 540 231 692 422 692 C516 692 601 655 664 594 L165 120 Z M178 107 L677 581 C732 520 766 438 766 349 C766 158 613 8 422 8 C326 8 240 44 178 107 L178 107 Z M342 778 L524 868 C528 870 529 873 527 877 L525 881 C522 886 519 885 516 884 L334 793 C330 791 330 788 331 786 L333 781 C335 777 337 776 342 778 L342 778 Z " />
<glyph glyph-name="oslashacute" unicode="&#x1ff;" horiz-adv-x="577" d="M55 232 C55 172 74 118 108 76 L88 58 C85 55 84 51 88 47 L91 44 C95 40 98 41 101 44 L120 61 C162 16 221 -11 288 -11 C420 -11 522 96 522 232 C522 285 505 335 477 374 L494 389 C498 392 497 397 494 400 L491 403 C488 406 483 406 481 404 L465 390 C423 440 360 472 288 472 C157 472 55 366 55 232 L55 232 Z M73 232 C73 355 168 454 288 454 C354 454 412 424 451 378 L122 88 C91 127 73 177 73 232 L73 232 Z M504 232 C504 107 409 7 288 7 C227 7 173 32 134 73 L463 362 C489 326 504 281 504 232 L504 232 Z M202 560 L384 650 C388 652 389 655 387 659 L385 663 C382 668 379 667 376 666 L194 575 C190 573 190 570 191 568 L193 563 C195 559 197 558 202 560 L202 560 Z " />
<glyph glyph-name="Scommaaccent" unicode="&#x218;" horiz-adv-x="550" d="M69 73 C82 61 163 -10 282 -10 C408 -10 503 70 503 175 C503 282 416 327 276 366 C159 397 80 433 80 535 C80 608 135 692 280 692 C372 692 443 643 443 643 C447 641 449 642 451 645 L455 651 C457 654 456 657 453 659 C453 659 380 710 280 710 C123 710 62 616 62 535 C62 419 150 381 271 348 C398 314 485 275 485 175 C485 79 394 8 282 8 C169 8 95 74 82 85 C79 88 76 89 73 86 L69 82 C66 79 66 76 69 73 L69 73 Z M249 -123 C249 -136 260 -146 273 -146 C280 -146 286 -145 291 -140 C295 -146 297 -156 297 -169 C297 -197 284 -221 270 -232 C266 -235 263 -237 268 -243 L273 -249 C276 -252 277 -253 282 -249 C300 -234 317 -201 317 -165 C317 -127 304 -98 275 -98 C260 -98 249 -108 249 -123 L249 -123 Z " />
<glyph glyph-name="scommaaccent" unicode="&#x219;" horiz-adv-x="425" d="M215 -11 C308 -11 381 44 381 115 C381 199 302 222 209 249 C120 274 72 300 72 355 C72 399 114 454 208 454 C263 454 304 435 329 420 C335 417 337 419 340 423 L342 426 C345 430 343 435 340 437 C316 452 270 472 208 472 C103 472 54 408 54 355 C54 290 102 259 204 231 C291 207 363 182 363 115 C363 56 298 7 215 7 C143 7 98 36 74 56 C70 59 66 58 64 55 L60 50 C57 46 59 43 62 40 C86 19 138 -11 215 -11 L215 -11 Z M182 -105 C182 -118 193 -128 206 -128 C213 -128 219 -127 224 -122 C228 -128 230 -138 230 -151 C230 -179 217 -203 203 -214 C199 -217 196 -219 201 -225 L206 -231 C209 -234 210 -235 215 -231 C233 -216 250 -183 250 -147 C250 -109 237 -80 208 -80 C193 -80 182 -90 182 -105 L182 -105 Z " />
<glyph glyph-name="uni021A" unicode="&#x21a;" horiz-adv-x="498" d="M239 7 C239 3 242 0 246 0 L250 0 C254 0 257 3 257 7 L257 682 L467 682 C471 682 474 685 474 689 L474 693 C474 697 471 700 467 700 L31 700 C27 700 24 697 24 693 L24 689 C24 685 27 682 31 682 L239 682 L239 7 Z M211 -108 C211 -121 222 -131 235 -131 C242 -131 248 -130 253 -125 C257 -131 259 -141 259 -154 C259 -182 246 -206 232 -217 C228 -220 225 -222 230 -228 L235 -234 C238 -237 239 -238 244 -234 C262 -219 279 -186 279 -150 C279 -112 266 -83 237 -83 C222 -83 211 -93 211 -108 L211 -108 Z " />
<glyph glyph-name="uni021B" unicode="&#x21b;" horiz-adv-x="344" d="M97 124 C97 47 103 -11 200 -11 C256 -11 319 20 334 30 C337 32 338 35 336 38 L333 43 C331 46 329 48 324 45 C309 35 249 7 200 7 C119 7 115 59 115 124 L115 444 L305 444 C309 444 312 446 312 450 L312 455 C312 460 309 462 305 462 L115 462 L115 587 C115 591 113 594 108 594 L103 594 C100 594 97 591 97 587 L97 462 L48 462 C44 462 41 460 41 455 L41 450 C41 446 44 444 48 444 L97 444 L97 124 Z M161 -108 C161 -121 172 -131 185 -131 C192 -131 198 -130 203 -125 C207 -131 209 -141 209 -154 C209 -182 196 -206 182 -217 C178 -220 175 -222 180 -228 L185 -234 C188 -237 189 -238 194 -234 C212 -219 229 -186 229 -150 C229 -112 216 -83 187 -83 C172 -83 161 -93 161 -108 L161 -108 Z " />
<glyph glyph-name="dotlessj" unicode="&#x237;" horiz-adv-x="194" d="M106 454 C106 459 104 462 99 462 L95 462 C90 462 88 459 88 454 L88 -65 C88 -170 50 -213 -29 -232 C-34 -233 -37 -235 -36 -240 L-35 -244 C-34 -249 -30 -250 -24 -249 C65 -230 106 -176 106 -65 L106 454 Z " />
<glyph glyph-name="circumflex" unicode="&#x2c6;" horiz-adv-x="373" d="M62 548 L186 649 L310 548 C314 545 316 548 317 549 L321 554 C323 557 322 559 319 562 L190 668 C188 670 184 670 182 668 L53 562 C50 559 49 557 51 554 L55 549 C56 548 58 545 62 548 L62 548 Z " />
<glyph glyph-name="caron" unicode="&#x2c7;" horiz-adv-x="373" d="M182 553 C184 551 188 551 190 553 L319 659 C322 662 323 664 321 667 L317 672 C316 673 314 676 310 673 L186 572 L62 673 C58 676 56 673 55 672 L51 667 C49 664 50 662 53 659 L182 553 Z " />
<glyph glyph-name="uni02C9" unicode="&#x2c9;" horiz-adv-x="414" d="M63 607 L351 607 C355 607 358 610 358 614 L358 618 C358 622 355 625 351 625 L63 625 C59 625 56 622 56 618 L56 614 C56 610 59 607 63 607 L63 607 Z " />
<glyph glyph-name="breve" unicode="&#x2d8;" horiz-adv-x="346" d="M173 545 C239 545 290 592 300 652 C301 656 297 660 294 660 L287 660 C284 660 282 657 282 654 C273 600 229 563 173 563 C116 563 72 600 64 654 C64 657 62 660 59 660 L52 660 C49 660 45 656 46 652 C55 592 106 545 173 545 L173 545 Z " />
<glyph glyph-name="dotaccent" unicode="&#x2d9;" horiz-adv-x="219" d="M108 594 C121 594 131 605 131 617 C131 630 121 642 108 642 C94 642 85 630 85 617 C85 605 94 594 108 594 L108 594 Z " />
<glyph glyph-name="ring" unicode="&#x2da;" horiz-adv-x="290" d="M145 500 C203 500 249 545 249 604 C249 662 203 708 145 708 C86 708 41 662 41 604 C41 545 86 500 145 500 L145 500 Z M145 517 C97 517 59 556 59 604 C59 651 97 691 145 691 C192 691 231 651 231 604 C231 556 192 517 145 517 L145 517 Z " />
<glyph glyph-name="ogonek" unicode="&#x2db;" horiz-adv-x="276" d="M179 3 L169 17 C119 -9 34 -57 34 -147 C34 -199 67 -238 123 -238 C153 -238 183 -221 195 -215 C201 -212 204 -208 202 -204 L199 -198 C197 -194 195 -194 191 -196 C183 -200 156 -220 123 -220 C77 -220 52 -186 52 -147 C52 -64 129 -23 179 3 L179 3 Z " />
<glyph glyph-name="tilde" unicode="&#x2dc;" horiz-adv-x="380" d="M44 583 C47 582 50 584 51 588 C56 605 74 661 119 661 C152 661 163 630 170 613 C179 591 196 553 241 553 C300 553 321 619 327 637 C329 642 328 645 324 646 L316 648 C313 649 310 647 309 643 C304 626 286 571 241 571 C209 571 196 598 188 617 C178 641 164 678 119 678 C60 678 39 613 33 594 C31 589 32 586 36 585 L44 583 Z " />
<glyph glyph-name="hungarumlaut" unicode="&#x2dd;" horiz-adv-x="392" d="M234 513 C238 511 240 511 243 515 L351 688 C354 693 352 695 349 697 L346 699 C342 701 340 701 337 697 L229 524 C226 519 228 517 231 515 L234 513 Z M68 513 C72 511 74 511 77 515 L185 688 C188 693 186 695 183 697 L180 699 C176 701 174 701 171 697 L63 524 C60 519 62 517 65 515 L68 513 Z " />
<glyph glyph-name="uni0394" unicode="&#x394;" horiz-adv-x="687" d="M38 19 C29 -1 42 0 49 0 L637 0 C643 0 657 0 650 17 L352 717 C351 719 349 721 347 721 L345 721 C343 721 341 719 340 717 L38 19 Z M55 18 L346 685 L630 18 L55 18 Z " />
<glyph glyph-name="uni03A9" unicode="&#x3a9;" horiz-adv-x="848" d="M91 7 C91 3 94 0 98 0 L336 0 C340 0 343 3 343 7 L343 11 C343 15 340 18 336 18 C187 55 80 188 80 349 C80 540 232 692 423 692 C614 692 767 540 767 349 C767 190 660 57 514 18 C510 18 507 15 507 11 L507 7 C507 3 510 0 514 0 L752 0 C756 0 759 3 759 7 L759 11 C759 15 756 18 752 18 L567 18 C695 73 785 200 785 349 C785 550 624 710 423 710 C222 710 62 550 62 349 C62 198 153 72 284 18 L98 18 C94 18 91 15 91 11 L91 7 Z " />
<glyph glyph-name="uni03BC" unicode="&#x3bc;" horiz-adv-x="525" d="M96 201 L96 190 L96 -230 C96 -235 98 -238 103 -238 L107 -238 C112 -238 114 -235 114 -230 L114 86 C139 21 191 -11 276 -11 C361 -11 409 37 436 69 L436 8 C436 3 438 0 443 0 L448 0 C452 0 454 3 454 8 L454 454 C454 459 452 462 448 462 L443 462 C438 462 436 459 436 454 L436 99 C429 88 380 8 276 8 C165 8 114 75 114 201 L114 454 C114 459 112 462 108 462 L102 462 C98 462 96 459 96 454 L96 201 Z " />
<glyph glyph-name="pi" unicode="&#x3c0;" horiz-adv-x="634" d="M153 8 C153 3 155 0 159 0 L164 0 C168 0 171 3 171 8 L171 444 L462 444 L462 8 C462 3 465 0 469 0 L472 0 C478 0 480 3 480 8 L480 444 L607 444 C611 444 615 447 615 451 L615 456 C615 461 611 462 607 462 L27 462 C22 462 19 461 19 456 L19 451 C19 447 22 444 27 444 L153 444 L153 8 Z " />
<glyph glyph-name="Wgrave" unicode="&#x1e80;" horiz-adv-x="868" d="M233 -12 C235 -19 245 -19 247 -12 L431 664 L624 -12 C626 -19 636 -19 638 -12 L835 693 C836 696 835 698 832 699 L824 702 C821 703 819 702 818 699 L631 32 L438 708 C436 715 426 715 424 708 L240 31 L46 699 C45 702 43 703 40 702 L32 699 C29 698 28 696 29 693 L233 -12 Z M519 778 C524 776 526 777 528 781 L530 786 C531 788 531 791 527 793 L345 884 C342 885 339 886 336 881 L334 877 C332 873 333 870 337 868 L519 778 Z " />
<glyph glyph-name="wgrave" unicode="&#x1e81;" horiz-adv-x="680" d="M187 -9 C189 -18 201 -18 203 -9 L340 438 L478 -9 C480 -18 492 -18 494 -9 L648 458 C649 462 649 465 645 466 L640 468 C635 470 632 466 631 462 L485 24 L348 474 C346 481 334 481 332 474 L194 24 L49 464 C48 468 44 470 40 468 L35 466 C32 465 31 462 32 458 L187 -9 Z M428 560 C433 558 435 559 437 563 L439 568 C440 570 440 573 436 575 L254 666 C251 667 248 668 245 663 L243 659 C241 655 242 652 246 650 L428 560 Z " />
<glyph glyph-name="Wacute" unicode="&#x1e82;" horiz-adv-x="868" d="M233 -12 C235 -19 245 -19 247 -12 L431 664 L624 -12 C626 -19 636 -19 638 -12 L835 693 C836 696 835 698 832 699 L824 702 C821 703 819 702 818 699 L631 32 L438 708 C436 715 426 715 424 708 L240 31 L46 699 C45 702 43 703 40 702 L32 699 C29 698 28 696 29 693 L233 -12 Z M343 778 L525 868 C529 870 530 873 528 877 L526 881 C523 886 520 885 517 884 L335 793 C331 791 331 788 332 786 L334 781 C336 777 338 776 343 778 L343 778 Z " />
<glyph glyph-name="wacute" unicode="&#x1e83;" horiz-adv-x="680" d="M187 -9 C189 -18 201 -18 203 -9 L340 438 L478 -9 C480 -18 492 -18 494 -9 L648 458 C649 462 649 465 645 466 L640 468 C635 470 632 466 631 462 L485 24 L348 474 C346 481 334 481 332 474 L194 24 L49 464 C48 468 44 470 40 468 L35 466 C32 465 31 462 32 458 L187 -9 Z M253 560 L435 650 C439 652 440 655 438 659 L436 663 C433 668 430 667 427 666 L245 575 C241 573 241 570 242 568 L244 563 C246 559 248 558 253 560 L253 560 Z " />
<glyph glyph-name="Wdieresis" unicode="&#x1e84;" horiz-adv-x="868" d="M233 -12 C235 -19 245 -19 247 -12 L431 664 L624 -12 C626 -19 636 -19 638 -12 L835 693 C836 696 835 698 832 699 L824 702 C821 703 819 702 818 699 L631 32 L438 708 C436 715 426 715 424 708 L240 31 L46 699 C45 702 43 703 40 702 L32 699 C29 698 28 696 29 693 L233 -12 Z M535 808 C549 808 558 817 558 830 C558 844 549 853 535 853 C521 853 512 844 512 830 C512 817 521 808 535 808 L535 808 Z M328 808 C342 808 351 817 351 830 C351 844 342 853 328 853 C314 853 305 844 305 830 C305 817 314 808 328 808 L328 808 Z " />
<glyph glyph-name="wdieresis" unicode="&#x1e85;" horiz-adv-x="680" d="M187 -9 C189 -18 201 -18 203 -9 L340 438 L478 -9 C480 -18 492 -18 494 -9 L648 458 C649 462 649 465 645 466 L640 468 C635 470 632 466 631 462 L485 24 L348 474 C346 481 334 481 332 474 L194 24 L49 464 C48 468 44 470 40 468 L35 466 C32 465 31 462 32 458 L187 -9 Z M435 605 C449 605 458 614 458 627 C458 641 449 650 435 650 C421 650 413 641 413 627 C413 614 421 605 435 605 L435 605 Z M246 605 C260 605 268 614 268 627 C268 641 260 650 246 650 C232 650 223 641 223 627 C223 614 232 605 246 605 L246 605 Z " />
<glyph glyph-name="Ygrave" unicode="&#x1ef2;" horiz-adv-x="552" d="M267 7 C267 3 270 0 274 0 L278 0 C282 0 285 3 285 7 L285 344 L549 688 C551 691 552 694 548 697 L542 701 C539 703 536 701 534 698 L276 359 L18 698 C16 700 14 703 10 701 L4 697 C0 694 1 691 3 688 L267 343 L267 7 Z M365 778 C370 776 372 777 374 781 L376 786 C377 788 377 791 373 793 L191 884 C188 885 185 886 182 881 L180 877 C178 873 179 870 183 868 L365 778 Z " />
<glyph glyph-name="ygrave" unicode="&#x1ef3;" horiz-adv-x="470" d="M227 8 L121 -231 C118 -237 119 -239 123 -241 L127 -243 C132 -246 135 -243 137 -238 L447 457 C449 461 449 463 446 465 L440 468 C436 470 433 467 432 464 L237 26 L37 464 C36 467 33 470 29 468 L23 465 C20 463 20 461 22 457 L227 8 Z M325 560 C330 558 332 559 334 563 L336 568 C337 570 337 573 333 575 L151 666 C148 667 145 668 142 663 L140 659 C138 655 139 652 143 650 L325 560 Z " />
<glyph glyph-name="endash" unicode="&#x2013;" horiz-adv-x="563" d="M82 243 L481 243 C485 243 488 246 488 250 L488 254 C488 258 485 261 481 261 L82 261 C78 261 75 258 75 254 L75 250 C75 246 78 243 82 243 L82 243 Z " />
<glyph glyph-name="emdash" unicode="&#x2014;" horiz-adv-x="779" d="M82 243 L697 243 C701 243 704 246 704 250 L704 254 C704 258 701 261 697 261 L82 261 C78 261 75 258 75 254 L75 250 C75 246 78 243 82 243 L82 243 Z " />
<glyph glyph-name="quoteleft" unicode="&#x2018;" horiz-adv-x="196" d="M135 530 C135 543 124 553 111 553 C101 553 96 549 91 543 C84 554 80 572 80 596 C80 637 101 669 127 689 C131 692 133 694 129 700 L125 706 C123 710 120 710 115 706 C85 682 60 646 60 592 C60 554 76 505 109 505 C124 505 135 515 135 530 L135 530 Z " />
<glyph glyph-name="quoteright" unicode="&#x2019;" horiz-adv-x="194" d="M62 685 C62 672 73 662 86 662 C96 662 101 666 106 672 C113 661 117 643 117 619 C117 578 96 546 70 526 C66 523 64 521 68 515 L72 509 C74 505 77 505 82 509 C112 533 137 569 137 623 C137 661 121 710 88 710 C73 710 62 700 62 685 L62 685 Z " />
<glyph glyph-name="quotesinglbase" unicode="&#x201a;" horiz-adv-x="186" d="M63 13 C63 0 74 -10 87 -10 C97 -10 102 -6 107 0 C114 -11 118 -29 118 -53 C118 -94 97 -126 71 -146 C67 -149 65 -151 69 -157 L73 -163 C75 -167 78 -167 83 -163 C113 -139 138 -103 138 -49 C138 -11 122 38 89 38 C74 38 63 28 63 13 L63 13 Z " />
<glyph glyph-name="quotedblleft" unicode="&#x201c;" horiz-adv-x="374" d="M135 530 C135 543 124 553 111 553 C101 553 96 549 91 543 C84 554 80 572 80 596 C80 637 101 669 127 689 C131 692 133 694 129 700 L125 706 C123 710 120 710 115 706 C85 682 60 646 60 592 C60 554 76 505 109 505 C124 505 135 515 135 530 L135 530 Z M313 530 C313 543 302 553 289 553 C279 553 274 549 269 543 C262 554 258 572 258 596 C258 637 279 669 305 689 C309 692 311 694 307 700 L303 706 C301 710 298 710 293 706 C263 682 238 646 238 592 C238 554 254 505 287 505 C302 505 313 515 313 530 L313 530 Z " />
<glyph glyph-name="quotedblright" unicode="&#x201d;" horiz-adv-x="372" d="M62 685 C62 672 73 662 86 662 C96 662 101 666 106 672 C113 661 117 643 117 619 C117 578 96 546 70 526 C66 523 64 521 68 515 L72 509 C74 505 77 505 82 509 C112 533 137 569 137 623 C137 661 121 710 88 710 C73 710 62 700 62 685 L62 685 Z M240 685 C240 672 251 662 264 662 C274 662 279 666 284 672 C291 661 295 643 295 619 C295 578 274 546 248 526 C244 523 242 521 246 515 L250 509 C252 505 255 505 260 509 C290 533 315 569 315 623 C315 661 299 710 266 710 C251 710 240 700 240 685 L240 685 Z " />
<glyph glyph-name="quotedblbase" unicode="&#x201e;" horiz-adv-x="364" d="M63 13 C63 0 74 -10 87 -10 C97 -10 102 -6 107 0 C114 -11 118 -29 118 -53 C118 -94 97 -126 71 -146 C67 -149 65 -151 69 -157 L73 -163 C75 -167 78 -167 83 -163 C113 -139 138 -103 138 -49 C138 -11 122 38 89 38 C74 38 63 28 63 13 L63 13 Z M241 13 C241 0 252 -10 265 -10 C275 -10 280 -6 285 0 C292 -11 296 -29 296 -53 C296 -94 275 -126 249 -146 C245 -149 243 -151 247 -157 L251 -163 C253 -167 256 -167 261 -163 C291 -139 316 -103 316 -49 C316 -11 300 38 267 38 C252 38 241 28 241 13 L241 13 Z " />
<glyph glyph-name="dagger" unicode="&#x2020;" horiz-adv-x="535" d="M43 382 L258 382 L258 -231 C258 -235 261 -238 265 -238 L269 -238 C273 -238 276 -235 276 -231 L276 382 L492 382 C496 382 499 385 499 389 L499 393 C499 397 496 400 492 400 L276 400 L276 693 C276 697 273 700 269 700 L265 700 C261 700 258 697 258 693 L258 400 L43 400 C39 400 36 397 36 393 L36 389 C36 385 39 382 43 382 L43 382 Z " />
<glyph glyph-name="daggerdbl" unicode="&#x2021;" horiz-adv-x="555" d="M76 7 C76 3 79 0 83 0 L268 0 L268 -231 C268 -235 271 -238 275 -238 L279 -238 C283 -238 286 -235 286 -231 L286 0 L472 0 C476 0 479 3 479 7 L479 11 C479 15 476 18 472 18 L286 18 L286 400 L502 400 C506 400 509 403 509 407 L509 411 C509 415 506 418 502 418 L286 418 L286 693 C286 697 283 700 279 700 L275 700 C271 700 268 697 268 693 L268 418 L53 418 C49 418 46 415 46 411 L46 407 C46 403 49 400 53 400 L268 400 L268 18 L83 18 C79 18 76 15 76 11 L76 7 Z " />
<glyph glyph-name="bullet" unicode="&#x2022;" horiz-adv-x="254" d="M126 219 C148 219 165 236 165 256 C165 278 148 295 126 295 C105 295 89 278 89 256 C89 236 105 219 126 219 L126 219 Z " />
<glyph glyph-name="ellipsis" unicode="&#x2026;" horiz-adv-x="564" d="M450 21 C450 8 460 -3 473 -3 C487 -3 497 8 497 21 C497 34 487 44 473 44 C460 44 450 34 450 21 L450 21 Z M257 21 C257 8 267 -3 280 -3 C294 -3 304 8 304 21 C304 34 294 44 280 44 C267 44 257 34 257 21 L257 21 Z M67 21 C67 8 78 -3 91 -3 C105 -3 114 8 114 21 C114 34 105 44 91 44 C78 44 67 34 67 21 L67 21 Z " />
<glyph glyph-name="perthousand" unicode="&#x2030;" horiz-adv-x="1004" d="M190 427 C268 427 332 490 332 569 C332 647 268 710 190 710 C112 710 49 647 49 569 C49 490 112 427 190 427 L190 427 Z M190 445 C122 445 67 500 67 569 C67 637 122 692 190 692 C258 692 314 637 314 569 C314 500 258 445 190 445 L190 445 Z M682 131 C682 53 745 -10 824 -10 C901 -10 965 53 965 131 C965 210 901 273 824 273 C745 273 682 210 682 131 L682 131 Z M359 131 C359 53 422 -10 500 -10 C578 -10 641 53 641 131 C641 210 578 273 500 273 C422 273 359 210 359 131 L359 131 Z M700 131 C700 200 755 255 824 255 C891 255 947 200 947 131 C947 63 891 8 824 8 C755 8 700 63 700 131 L700 131 Z M377 131 C377 200 432 255 500 255 C568 255 624 200 624 131 C624 63 568 8 500 8 C432 8 377 63 377 131 L377 131 Z M119 12 C117 9 117 6 120 4 L128 -1 C131 -3 133 -1 135 2 L552 688 C555 693 552 695 550 696 L544 699 C541 701 538 701 536 698 L119 12 Z " />
<glyph glyph-name="guilsinglleft" unicode="&#x2039;" horiz-adv-x="256" d="M178 62 C180 59 183 58 187 60 L192 63 C196 65 196 68 194 71 L77 238 L194 403 C196 406 196 409 192 411 L187 414 C183 416 180 415 178 412 L56 242 C54 239 54 237 56 234 L178 62 Z " />
<glyph glyph-name="guilsinglright" unicode="&#x203a;" horiz-adv-x="257" d="M65 63 L70 60 C74 58 77 59 79 62 L201 234 C203 237 203 239 201 242 L79 412 C77 415 74 416 70 414 L65 411 C61 409 61 406 63 403 L180 238 L63 71 C61 68 61 65 65 63 L65 63 Z " />
<glyph glyph-name="fraction" unicode="&#x2044;" horiz-adv-x="120" d="M-140 2 L277 688 C280 693 277 695 275 696 L269 699 C266 701 263 701 261 698 L-156 12 C-158 9 -158 6 -155 4 L-147 -1 C-144 -3 -142 -1 -140 2 L-140 2 Z " />
<glyph glyph-name="zerosuperior" unicode="&#x2070;" horiz-adv-x="331" d="M165 494 C241 494 287 555 287 652 C287 750 241 810 165 810 C89 810 44 750 44 652 C44 555 89 494 165 494 L165 494 Z M165 512 C100 512 61 565 61 652 C61 740 100 793 165 793 C231 793 269 740 269 652 C269 565 231 512 165 512 L165 512 Z " />
<glyph glyph-name="foursuperior" unicode="&#x2074;" horiz-adv-x="328" d="M230 504 L234 504 C238 504 241 507 241 511 L241 572 L291 572 C295 572 298 575 298 578 L298 582 C298 586 295 589 291 589 L241 589 L241 801 C241 808 234 810 229 806 L26 583 C22 578 25 572 31 572 L223 572 L223 511 C223 507 226 504 230 504 L230 504 Z M53 589 L223 774 L223 589 L53 589 Z " />
<glyph glyph-name="fivesuperior" unicode="&#x2075;" horiz-adv-x="303" d="M146 494 C216 494 268 542 268 599 C268 659 226 696 146 695 L71 695 L71 782 L220 782 C224 782 227 785 227 789 L227 793 C227 797 224 800 220 800 L60 800 C56 800 53 797 53 793 L53 684 C53 680 56 677 60 677 L146 677 C215 678 250 648 250 599 C250 552 207 512 146 512 C94 512 72 535 61 547 C58 550 54 550 51 547 L47 543 C44 540 44 536 47 533 C61 520 88 494 146 494 L146 494 Z " />
<glyph glyph-name="sixsuperior" unicode="&#x2076;" horiz-adv-x="304" d="M160 494 C221 494 271 542 271 601 C271 664 220 704 163 704 C113 704 82 680 63 662 C84 749 176 790 208 801 C211 802 212 805 212 808 L210 815 C209 818 205 820 202 819 C164 806 41 751 41 626 C41 553 85 494 160 494 L160 494 Z M160 512 C96 512 61 565 61 629 L61 631 C61 631 92 685 163 685 C210 685 253 653 253 601 C253 552 210 512 160 512 L160 512 Z " />
<glyph glyph-name="sevensuperior" unicode="&#x2077;" horiz-adv-x="263" d="M74 502 C78 500 80 501 82 505 L239 790 C241 795 239 800 233 800 L38 800 C35 800 32 797 32 793 L32 789 C32 785 35 782 38 782 L214 782 L66 514 C64 510 64 507 67 506 L74 502 Z " />
<glyph glyph-name="eightsuperior" unicode="&#x2078;" horiz-adv-x="315" d="M158 494 C219 494 271 519 271 578 C271 616 244 645 196 656 C236 667 262 693 262 727 C262 770 230 810 157 810 C83 810 54 770 54 727 C54 693 80 667 119 656 C72 645 44 616 44 578 C44 519 96 494 158 494 L158 494 Z M158 668 C108 670 73 693 73 727 C73 762 98 794 157 794 C215 794 243 762 243 727 C243 693 208 670 158 668 L158 668 Z M158 510 C108 510 65 531 65 578 C65 616 100 641 158 644 C216 641 251 616 251 578 C251 531 208 510 158 510 L158 510 Z " />
<glyph glyph-name="ninesuperior" unicode="&#x2079;" horiz-adv-x="304" d="M102 485 C140 498 263 553 263 678 C263 751 219 810 144 810 C83 810 33 762 33 703 C33 640 84 600 141 600 C191 600 222 624 241 642 C220 555 128 514 96 503 C93 502 92 499 92 496 L94 489 C95 486 99 484 102 485 L102 485 Z M141 619 C94 619 51 651 51 703 C51 752 94 792 144 792 C208 792 243 739 243 675 L243 673 C243 673 212 619 141 619 L141 619 Z " />
<glyph glyph-name="zeroinferior" unicode="&#x2080;" horiz-adv-x="331" d="M44 -2 C44 -99 89 -160 165 -160 C241 -160 287 -99 287 -2 C287 96 241 156 165 156 C89 156 44 96 44 -2 L44 -2 Z M61 -2 C61 86 100 139 165 139 C231 139 269 86 269 -2 C269 -89 231 -142 165 -142 C100 -142 61 -89 61 -2 L61 -2 Z " />
<glyph glyph-name="oneinferior" unicode="&#x2081;" horiz-adv-x="167" d="M32 83 C34 80 37 80 40 82 L95 123 L95 -143 C95 -147 98 -150 102 -150 L106 -150 C110 -150 113 -147 113 -143 L113 144 C113 150 107 154 102 150 L29 97 C25 94 26 92 27 90 L32 83 Z " />
<glyph glyph-name="twoinferior" unicode="&#x2082;" horiz-adv-x="285" d="M55 99 C58 97 62 98 64 102 C64 102 85 138 138 138 C193 138 224 102 224 65 C224 27 198 -3 168 -28 L36 -138 C31 -142 34 -150 41 -150 L233 -150 C236 -150 239 -147 239 -143 L239 -139 C239 -135 236 -132 233 -132 L68 -132 L180 -39 C216 -9 242 25 242 65 C242 112 205 156 138 156 C75 156 48 111 48 111 C45 106 49 104 50 103 L55 99 Z " />
<glyph glyph-name="threeinferior" unicode="&#x2083;" horiz-adv-x="304" d="M87 -1 C87 -5 90 -8 94 -8 L159 -8 C211 -8 242 -38 242 -73 C242 -113 206 -142 148 -142 C89 -142 63 -114 53 -105 C50 -102 46 -102 43 -105 L40 -108 C37 -111 37 -115 40 -118 C52 -129 86 -160 147 -160 C215 -160 261 -123 261 -73 C261 -41 236 -10 200 2 C227 14 252 44 252 75 C252 126 212 156 152 156 C85 156 51 114 51 114 C49 111 48 109 53 105 L58 101 C60 99 63 100 65 102 C65 102 93 138 152 138 C202 138 233 114 233 75 C233 39 202 10 159 10 L94 10 C90 10 87 7 87 3 L87 -1 Z " />
<glyph glyph-name="fourinferior" unicode="&#x2084;" horiz-adv-x="328" d="M26 -71 C22 -76 25 -82 31 -82 L223 -82 L223 -143 C223 -147 226 -150 230 -150 L234 -150 C238 -150 241 -147 241 -143 L241 -82 L291 -82 C295 -82 298 -79 298 -76 L298 -72 C298 -68 295 -65 291 -65 L241 -65 L241 147 C241 154 234 156 229 152 L26 -71 Z M53 -65 L223 120 L223 -65 L53 -65 Z " />
<glyph glyph-name="fiveinferior" unicode="&#x2085;" horiz-adv-x="302" d="M52 30 C52 26 55 23 59 23 L145 23 C214 24 249 -6 249 -55 C249 -102 206 -142 145 -142 C93 -142 71 -119 60 -107 C57 -104 53 -104 50 -107 L46 -111 C43 -114 43 -118 46 -121 C60 -134 87 -160 145 -160 C215 -160 267 -112 267 -55 C267 5 225 42 145 41 L70 41 L70 128 L219 128 C223 128 226 131 226 135 L226 139 C226 143 223 146 219 146 L59 146 C55 146 52 143 52 139 L52 30 Z " />
<glyph glyph-name="sixinferior" unicode="&#x2086;" horiz-adv-x="304" d="M41 -28 C41 -101 85 -160 160 -160 C221 -160 271 -112 271 -53 C271 10 220 50 163 50 C113 50 82 26 63 8 C84 95 176 136 208 147 C211 148 212 151 212 154 L210 161 C209 164 205 166 202 165 C164 152 41 97 41 -28 L41 -28 Z M61 -23 C61 -23 92 31 163 31 C210 31 253 -1 253 -53 C253 -102 210 -142 160 -142 C96 -142 61 -89 61 -25 L61 -23 Z " />
<glyph glyph-name="seveninferior" unicode="&#x2087;" horiz-adv-x="259" d="M36 128 L212 128 L64 -140 C62 -144 62 -147 65 -148 L72 -152 C76 -154 78 -153 80 -149 L237 136 C239 141 237 146 231 146 L36 146 C33 146 30 143 30 139 L30 135 C30 131 33 128 36 128 L36 128 Z " />
<glyph glyph-name="eightinferior" unicode="&#x2088;" horiz-adv-x="314" d="M43 -76 C43 -135 95 -160 157 -160 C218 -160 270 -135 270 -76 C270 -38 243 -9 195 2 C235 13 261 39 261 73 C261 116 229 156 156 156 C82 156 53 116 53 73 C53 39 79 13 118 2 C71 -9 43 -38 43 -76 L43 -76 Z M72 73 C72 108 97 140 156 140 C214 140 242 108 242 73 C242 39 207 16 157 14 C107 16 72 39 72 73 L72 73 Z M64 -76 C64 -38 99 -13 157 -10 C215 -13 250 -38 250 -76 C250 -123 207 -144 157 -144 C107 -144 64 -123 64 -76 L64 -76 Z " />
<glyph glyph-name="nineinferior" unicode="&#x2089;" horiz-adv-x="304" d="M33 49 C33 -14 84 -54 141 -54 C191 -54 222 -30 241 -12 C220 -99 128 -140 96 -151 C93 -152 92 -155 92 -158 L94 -165 C95 -168 99 -170 102 -169 C140 -156 263 -101 263 24 C263 97 219 156 144 156 C83 156 33 108 33 49 L33 49 Z M51 49 C51 98 94 138 144 138 C208 138 243 85 243 21 L243 19 C243 19 212 -35 141 -35 C94 -35 51 -3 51 49 L51 49 Z " />
<glyph glyph-name="Euro" unicode="&#x20ac;" horiz-adv-x="600" d="M471 382 C475 382 478 385 478 389 L478 393 C478 397 475 400 471 400 L103 400 C119 560 212 692 358 692 C431 692 483 667 540 614 C542 612 545 611 548 614 L552 619 C554 622 553 625 551 627 C500 676 438 710 358 710 C201 710 102 567 85 400 L35 400 C32 400 29 397 29 393 L29 389 C29 385 32 382 35 382 L84 382 C83 371 83 360 83 349 C83 326 84 304 87 282 L35 282 C32 283 29 279 29 275 L29 271 C29 268 32 265 35 265 L89 265 C112 115 200 -11 358 -11 C443 -11 498 20 552 78 C554 80 554 84 552 86 L547 91 C544 94 541 93 539 91 C485 33 435 7 358 7 C209 7 130 129 108 265 L432 265 C435 265 438 268 438 271 L438 275 C438 279 435 282 432 282 L105 282 C102 304 101 326 101 349 C101 360 101 371 102 382 L471 382 Z " />
<glyph glyph-name="afii61289" unicode="&#x2113;" horiz-adv-x="465" d="M46 217 C66 221 94 229 118 237 L115 221 C110 194 106 166 106 139 C106 61 135 -10 234 -10 C346 -10 413 38 418 42 C421 45 420 49 418 52 L415 56 C413 59 408 59 405 57 C399 53 340 10 234 10 C149 10 127 75 127 141 C127 168 130 194 135 217 L141 245 C294 300 440 409 440 589 C440 662 403 710 341 710 C246 710 189 584 144 364 L123 259 C96 250 68 243 42 238 C37 237 35 234 36 230 L38 222 C39 219 41 216 46 217 L46 217 Z M145 266 L165 362 C207 566 255 690 341 690 C391 690 419 650 419 589 C419 425 288 319 145 266 L145 266 Z " />
<glyph glyph-name="uni2117" unicode="&#x2117;" horiz-adv-x="859" d="M68 350 C68 151 230 -10 429 -10 C628 -10 791 151 791 350 C791 549 628 710 429 710 C230 710 68 549 68 350 L68 350 Z M86 350 C86 539 240 692 429 692 C618 692 773 539 773 350 C773 161 618 8 429 8 C240 8 86 161 86 350 L86 350 Z M332 173 C332 169 335 166 338 166 L342 166 C346 166 349 169 349 173 L349 309 L468 309 C545 309 598 355 598 425 C598 505 534 539 468 539 L338 539 C335 539 332 536 332 532 L332 173 Z M349 326 L349 522 L468 522 C524 522 580 493 580 425 C580 358 521 326 468 326 L349 326 Z " />
<glyph glyph-name="trademark" unicode="&#x2122;" horiz-adv-x="801" d="M353 389 L359 387 C363 386 366 386 367 391 L440 661 L530 383 C532 376 542 376 544 383 L634 661 L706 391 C707 388 709 386 712 387 L720 389 C725 390 725 392 724 397 L642 706 C640 713 630 713 628 706 L537 425 L445 706 C444 713 434 713 432 706 L349 397 C348 393 348 391 353 389 L353 389 Z M181 389 L185 389 C189 389 192 392 192 396 L192 682 L294 682 C298 682 301 685 301 689 L301 693 C301 697 298 700 294 700 L70 700 C66 700 63 697 63 693 L63 689 C63 685 66 682 70 682 L174 682 L174 396 C174 392 177 389 181 389 L181 389 Z " />
<glyph glyph-name="Omega" unicode="&#x2126;" horiz-adv-x="848" d="M91 7 C91 3 94 0 98 0 L336 0 C340 0 343 3 343 7 L343 11 C343 15 340 18 336 18 C187 55 80 188 80 349 C80 540 232 692 423 692 C614 692 767 540 767 349 C767 190 660 57 514 18 C510 18 507 15 507 11 L507 7 C507 3 510 0 514 0 L752 0 C756 0 759 3 759 7 L759 11 C759 15 756 18 752 18 L567 18 C695 73 785 200 785 349 C785 550 624 710 423 710 C222 710 62 550 62 349 C62 198 153 72 284 18 L98 18 C94 18 91 15 91 11 L91 7 Z " />
<glyph glyph-name="estimated" unicode="&#x212e;" horiz-adv-x="839" d="M175 118 C166 127 158 137 151 147 L151 340 L784 340 C788 340 791 343 791 347 L791 351 L791 352 C789 552 629 710 429 710 C228 710 68 550 68 349 C68 148 228 -10 429 -10 C518 -10 604 22 673 88 C675 90 675 93 673 95 L668 101 C666 104 662 103 660 101 C593 40 514 8 429 8 C328 8 237 50 175 118 L175 118 Z M151 358 L151 551 C213 637 314 692 429 692 C545 692 647 635 709 549 L709 358 L151 358 Z " />
<glyph glyph-name="onethird" unicode="&#x2153;" horiz-adv-x="630" d="M129 404 L133 404 C137 404 140 407 140 411 L140 698 C140 704 134 708 129 704 L56 651 C52 648 53 646 54 644 L59 637 C61 634 64 634 67 636 L122 677 L122 411 C122 407 125 404 129 404 L129 404 Z M66 4 L74 -1 C77 -3 79 -1 81 2 L498 688 C501 693 498 695 496 696 L490 699 C487 701 484 701 482 698 L65 12 C63 9 63 6 66 4 L66 4 Z M356 32 C368 21 402 -10 463 -10 C531 -10 577 27 577 77 C577 109 552 140 516 152 C543 164 568 194 568 225 C568 276 528 306 468 306 C401 306 367 264 367 264 C365 261 364 259 369 255 L374 251 C376 249 379 250 381 252 C381 252 409 288 468 288 C518 288 549 264 549 225 C549 189 518 160 475 160 L410 160 C406 160 403 157 403 153 L403 149 C403 145 406 142 410 142 L475 142 C527 142 558 112 558 77 C558 37 522 8 464 8 C405 8 379 36 369 45 C366 48 362 48 359 45 L356 42 C353 39 353 35 356 32 L356 32 Z " />
<glyph glyph-name="twothirds" unicode="&#x2154;" horiz-adv-x="703" d="M62 404 L254 404 C257 404 260 407 260 411 L260 415 C260 419 257 422 254 422 L89 422 L201 515 C237 545 263 579 263 619 C263 666 226 710 159 710 C96 710 69 665 69 665 C66 660 70 658 71 657 L76 653 C79 651 83 652 85 656 C85 656 106 692 159 692 C214 692 245 656 245 619 C245 581 219 551 189 526 L57 416 C52 412 55 404 62 404 L62 404 Z M139 4 L147 -1 C150 -3 152 -1 154 2 L571 688 C574 693 571 695 569 696 L563 699 C560 701 557 701 555 698 L138 12 C136 9 136 6 139 4 L139 4 Z M429 32 C441 21 475 -10 536 -10 C604 -10 650 27 650 77 C650 109 625 140 589 152 C616 164 641 194 641 225 C641 276 601 306 541 306 C474 306 440 264 440 264 C438 261 437 259 442 255 L447 251 C449 249 452 250 454 252 C454 252 482 288 541 288 C591 288 622 264 622 225 C622 189 591 160 548 160 L483 160 C479 160 476 157 476 153 L476 149 C476 145 479 142 483 142 L548 142 C600 142 631 112 631 77 C631 37 595 8 537 8 C478 8 452 36 442 45 C439 48 435 48 432 45 L429 42 C426 39 426 35 429 32 L429 32 Z " />
<glyph glyph-name="oneeighth" unicode="&#x215b;" horiz-adv-x="642" d="M129 404 L133 404 C137 404 140 407 140 411 L140 698 C140 704 134 708 129 704 L56 651 C52 648 53 646 54 644 L59 637 C61 634 64 634 67 636 L122 677 L122 411 C122 407 125 404 129 404 L129 404 Z M66 4 L74 -1 C77 -3 79 -1 81 2 L498 688 C501 693 498 695 496 696 L490 699 C487 701 484 701 482 698 L65 12 C63 9 63 6 66 4 L66 4 Z M363 74 C363 15 415 -10 477 -10 C538 -10 590 15 590 74 C590 112 563 141 515 152 C555 163 581 189 581 223 C581 266 549 306 476 306 C402 306 373 266 373 223 C373 189 399 163 438 152 C391 141 363 112 363 74 L363 74 Z M392 223 C392 258 417 290 476 290 C534 290 562 258 562 223 C562 189 527 166 477 164 C427 166 392 189 392 223 L392 223 Z M384 74 C384 112 419 137 477 140 C535 137 570 112 570 74 C570 27 527 6 477 6 C427 6 384 27 384 74 L384 74 Z " />
<glyph glyph-name="threeeighths" unicode="&#x215c;" horiz-adv-x="694" d="M164 394 C232 394 278 431 278 481 C278 513 253 544 217 556 C244 568 269 598 269 629 C269 680 229 710 169 710 C102 710 68 668 68 668 C66 665 65 663 70 659 L75 655 C77 653 80 654 82 656 C82 656 110 692 169 692 C219 692 250 668 250 629 C250 593 219 564 176 564 L111 564 C107 564 104 561 104 557 L104 553 C104 549 107 546 111 546 L176 546 C228 546 259 516 259 481 C259 441 223 412 165 412 C106 412 80 440 70 449 C67 452 63 452 60 449 L57 446 C54 443 54 439 57 436 C69 425 103 394 164 394 L164 394 Z M126 12 C124 9 124 6 127 4 L135 -1 C138 -3 140 -1 142 2 L559 688 C562 693 559 695 557 696 L551 699 C548 701 545 701 543 698 L126 12 Z M414 74 C414 15 466 -10 528 -10 C589 -10 641 15 641 74 C641 112 614 141 566 152 C606 163 632 189 632 223 C632 266 600 306 527 306 C453 306 424 266 424 223 C424 189 450 163 489 152 C442 141 414 112 414 74 L414 74 Z M443 223 C443 258 468 290 527 290 C585 290 613 258 613 223 C613 189 578 166 528 164 C478 166 443 189 443 223 L443 223 Z M435 74 C435 112 470 137 528 140 C586 137 621 112 621 74 C621 27 578 6 528 6 C478 6 435 27 435 74 L435 74 Z " />
<glyph glyph-name="fiveeighths" unicode="&#x215d;" horiz-adv-x="689" d="M162 394 C232 394 284 442 284 499 C284 559 242 596 162 595 L87 595 L87 682 L236 682 C240 682 243 685 243 689 L243 693 C243 697 240 700 236 700 L76 700 C72 700 69 697 69 693 L69 584 C69 580 72 577 76 577 L162 577 C231 578 266 548 266 499 C266 452 223 412 162 412 C110 412 88 435 77 447 C74 450 70 450 67 447 L63 443 C60 440 60 436 63 433 C77 420 104 394 162 394 L162 394 Z M121 12 C119 9 119 6 122 4 L130 -1 C133 -3 135 -1 137 2 L554 688 C557 693 554 695 552 696 L546 699 C543 701 540 701 538 698 L121 12 Z M409 74 C409 15 461 -10 523 -10 C584 -10 636 15 636 74 C636 112 609 141 561 152 C601 163 627 189 627 223 C627 266 595 306 522 306 C448 306 419 266 419 223 C419 189 445 163 484 152 C437 141 409 112 409 74 L409 74 Z M438 223 C438 258 463 290 522 290 C580 290 608 258 608 223 C608 189 573 166 523 164 C473 166 438 189 438 223 L438 223 Z M430 74 C430 112 465 137 523 140 C581 137 616 112 616 74 C616 27 573 6 523 6 C473 6 430 27 430 74 L430 74 Z " />
<glyph glyph-name="seveneighths" unicode="&#x215e;" horiz-adv-x="636" d="M98 402 C102 400 104 401 106 405 L263 690 C265 695 263 700 257 700 L62 700 C59 700 56 697 56 693 L56 689 C56 685 59 682 62 682 L238 682 L90 414 C88 410 88 407 91 406 L98 402 Z M68 12 C66 9 66 6 69 4 L77 -1 C80 -3 82 -1 84 2 L501 688 C504 693 501 695 499 696 L493 699 C490 701 487 701 485 698 L68 12 Z M356 74 C356 15 408 -10 470 -10 C531 -10 583 15 583 74 C583 112 556 141 508 152 C548 163 574 189 574 223 C574 266 542 306 469 306 C395 306 366 266 366 223 C366 189 392 163 431 152 C384 141 356 112 356 74 L356 74 Z M385 223 C385 258 410 290 469 290 C527 290 555 258 555 223 C555 189 520 166 470 164 C420 166 385 189 385 223 L385 223 Z M377 74 C377 112 412 137 470 140 C528 137 563 112 563 74 C563 27 520 6 470 6 C420 6 377 27 377 74 L377 74 Z " />
<glyph glyph-name="partialdiff" unicode="&#x2202;" horiz-adv-x="587" d="M47 229 C47 96 153 -10 279 -10 C432 -10 521 119 521 284 C521 570 263 698 185 726 C182 727 178 726 177 723 L175 716 C174 712 175 710 179 708 C251 682 471 574 500 335 C467 379 394 456 273 456 C154 456 47 368 47 229 L47 229 Z M65 229 C65 357 163 438 273 438 C425 438 497 308 503 299 L503 284 C503 129 422 8 279 8 C162 8 65 106 65 229 L65 229 Z " />
<glyph glyph-name="Delta" unicode="&#x2206;" horiz-adv-x="687" d="M38 19 C29 -1 42 0 49 0 L637 0 C643 0 657 0 650 17 L352 717 C351 719 349 721 347 721 L345 721 C343 721 341 719 340 717 L38 19 Z M55 18 L346 685 L630 18 L55 18 Z " />
<glyph glyph-name="product" unicode="&#x220f;" horiz-adv-x="754" d="M113 7 C113 3 116 0 120 0 L124 0 C128 0 131 3 131 7 L131 682 L623 682 L623 7 C623 3 626 0 630 0 L634 0 C638 0 641 3 641 7 L641 693 C641 697 638 700 634 700 L120 700 C116 700 113 697 113 693 L113 7 Z " />
<glyph glyph-name="summation" unicode="&#x2211;" horiz-adv-x="532" d="M49 18 C44 13 46 0 56 0 L463 0 C467 0 470 3 470 7 L470 11 C470 15 467 18 463 18 L74 18 L415 352 C418 355 422 358 422 362 L422 366 C422 370 418 373 415 376 L78 682 L463 682 C467 682 470 685 470 689 L470 693 C470 697 467 700 463 700 L56 700 C45 700 43 688 49 682 L399 365 L49 18 Z " />
<glyph glyph-name="minus" unicode="&#x2212;" horiz-adv-x="600" d="M105 340 L494 340 C498 340 501 343 501 347 L501 351 C501 355 498 358 494 358 L105 358 C101 358 98 355 98 351 L98 347 C98 343 101 340 105 340 L105 340 Z " />
<glyph glyph-name="uni2215" unicode="&#x2215;" horiz-adv-x="120" d="M-140 2 L277 688 C280 693 277 695 275 696 L269 699 C266 701 263 701 261 698 L-156 12 C-158 9 -158 6 -155 4 L-147 -1 C-144 -3 -142 -1 -140 2 L-140 2 Z " />
<glyph glyph-name="uni2219" unicode="&#x2219;" horiz-adv-x="198" d="M99 238 C113 238 123 249 123 262 C123 275 113 285 99 285 C86 285 75 275 75 262 C75 249 86 238 99 238 L99 238 Z " />
<glyph glyph-name="radical" unicode="&#x221a;" horiz-adv-x="645" d="M209 -16 C212 -22 218 -22 221 -16 L524 682 L632 682 C636 682 639 685 639 689 L639 693 C639 697 636 700 632 700 L520 700 C515 700 512 699 509 692 L215 16 L52 401 C51 403 50 405 47 404 L38 401 C35 400 34 398 35 395 L209 -16 Z " />
<glyph glyph-name="infinity" unicode="&#x221e;" horiz-adv-x="696" d="M215 155 C276 155 328 193 347 247 C367 193 419 155 481 155 C558 155 622 218 622 296 C622 375 558 438 481 438 C419 438 367 399 347 345 C328 399 276 438 215 438 C137 438 74 375 74 296 C74 218 137 155 215 155 L215 155 Z M357 296 C357 365 412 420 481 420 C548 420 604 365 604 296 C604 228 548 173 481 173 C412 173 357 228 357 296 L357 296 Z M215 173 C147 173 92 228 92 296 C92 365 147 420 215 420 C283 420 339 365 339 296 C339 228 283 173 215 173 L215 173 Z " />
<glyph glyph-name="integral" unicode="&#x222b;" horiz-adv-x="524" d="M253 -73 C253 -181 201 -231 122 -231 C71 -231 38 -209 21 -193 C18 -190 14 -190 11 -193 L8 -196 C5 -199 5 -203 8 -206 C27 -224 66 -249 122 -249 C211 -249 271 -193 271 -73 L271 534 C271 642 323 692 402 692 C453 692 486 670 503 654 C506 651 510 651 513 654 L516 657 C519 660 519 664 516 667 C497 685 458 710 402 710 C313 710 253 654 253 534 L253 -73 Z " />
<glyph glyph-name="approxequal" unicode="&#x2248;" horiz-adv-x="600" d="M127 345 C130 343 132 345 134 348 C134 348 166 418 228 418 C261 418 283 394 298 374 C316 352 339 324 379 324 C450 324 485 402 485 402 C487 405 487 408 484 410 L477 414 C475 415 473 415 471 411 C471 411 441 340 379 340 C347 340 326 364 310 385 C292 407 267 435 228 435 C157 435 120 355 120 355 C118 351 119 350 121 349 L127 345 Z M127 179 C130 177 132 179 134 182 C134 182 166 252 228 252 C261 252 283 228 298 208 C316 186 339 158 379 158 C450 158 485 236 485 236 C487 239 487 242 484 244 L477 248 C475 249 473 249 471 245 C471 245 441 174 379 174 C347 174 326 198 310 219 C292 241 267 269 228 269 C157 269 120 189 120 189 C118 185 119 184 121 183 L127 179 Z " />
<glyph glyph-name="notequal" unicode="&#x2260;" horiz-adv-x="600" d="M192 83 L196 81 C199 79 203 80 205 83 L258 176 L465 176 C469 176 472 179 472 183 L472 187 C472 191 469 194 465 194 L269 194 L377 382 L465 382 C469 382 472 385 472 389 L472 393 C472 397 469 400 465 400 L388 400 L421 457 C423 460 422 464 418 466 L415 468 C411 470 407 469 405 466 L367 400 L134 400 C130 400 127 397 127 393 L127 389 C127 385 130 382 134 382 L357 382 L249 194 L134 194 C130 194 127 191 127 187 L127 183 C127 179 130 176 134 176 L238 176 L190 92 C188 89 189 85 192 83 L192 83 Z " />
<glyph glyph-name="lessequal" unicode="&#x2264;" horiz-adv-x="600" d="M95 393 L480 195 C484 193 487 193 489 197 L492 202 C494 205 494 209 490 211 L120 399 L490 594 C494 596 494 600 492 603 L489 608 C487 612 484 612 480 610 L95 405 C90 402 90 396 95 393 L95 393 Z M101 85 L490 85 C494 85 497 88 497 92 L497 96 C497 100 494 103 490 103 L101 103 C97 103 94 100 94 96 L94 92 C94 88 97 85 101 85 L101 85 Z " />
<glyph glyph-name="greaterequal" unicode="&#x2265;" horiz-adv-x="600" d="M119 195 L504 393 C509 396 509 402 504 405 L119 610 C115 612 112 612 110 608 L107 603 C105 600 105 596 109 594 L479 399 L109 211 C105 209 105 205 107 202 L110 197 C112 193 115 193 119 195 L119 195 Z M109 85 L498 85 C502 85 505 88 505 92 L505 96 C505 100 502 103 498 103 L109 103 C105 103 102 100 102 96 L102 92 C102 88 105 85 109 85 L109 85 Z " />
<glyph glyph-name="lozenge" unicode="&#x25ca;" horiz-adv-x="563" d="M277 -7 C278 -9 280 -11 282 -11 L284 -11 C286 -11 288 -9 289 -7 L501 327 C516 350 516 350 501 373 L289 707 C288 709 286 711 284 711 L282 711 C280 711 278 709 277 707 L61 371 C47 350 47 350 61 328 L277 -7 Z M283 18 L67 350 L283 681 L495 350 L283 18 Z " />
<glyph glyph-name="commaaccent" unicode="&#xf6c3;" horiz-adv-x="292" d="M105 -108 C105 -121 116 -131 129 -131 C136 -131 142 -130 147 -125 C151 -131 153 -141 153 -154 C153 -182 140 -206 126 -217 C122 -220 119 -222 124 -228 L129 -234 C132 -237 133 -238 138 -234 C156 -219 173 -186 173 -150 C173 -112 160 -83 131 -83 C116 -83 105 -93 105 -108 L105 -108 Z " />
<glyph glyph-name="uniF8FF" unicode="&#xf8ff;" horiz-adv-x="599" d="M50 30 C50 9 59 0 80 0 L519 0 C540 0 549 9 549 30 L549 670 C549 691 540 700 519 700 L80 700 C59 700 50 691 50 670 L50 30 Z M262 314 L262 343 C262 418 361 427 361 490 C361 517 340 542 300 542 C252 542 229 513 216 501 C210 497 205 497 199 501 L177 523 C171 528 173 535 177 541 C177 541 220 602 307 602 C378 602 432 556 432 491 C432 404 327 389 327 341 L327 315 C327 306 321 302 312 302 L276 302 C269 302 262 307 262 314 L262 314 Z M245 156 C245 182 267 204 293 204 C320 204 342 182 342 156 C342 130 320 108 293 108 C267 108 245 130 245 156 L245 156 Z " />
<glyph glyph-name="fi" unicode="&#xfb01;" horiz-adv-x="532" d="M112 8 C112 3 114 0 118 0 L121 0 C126 0 130 3 130 8 L130 444 L428 444 L428 8 C428 3 430 0 435 0 L440 0 C445 0 446 3 446 8 L446 454 C446 459 444 462 439 462 L130 462 L130 518 C130 632 190 692 278 692 C355 692 400 649 416 630 C419 626 423 625 427 629 L431 633 C435 637 434 640 431 643 C410 664 363 710 278 710 C178 710 112 645 112 518 L112 462 L29 462 C25 462 21 460 21 455 L21 450 C21 446 24 444 28 444 L112 444 L112 8 Z " />
</font>
</svg>
